G04 start of page 9 for group -4079 idx -4079 *
G04 Title: (unknown), topsilk *
G04 Creator: pcb 4.0.2 *
G04 CreationDate: Wed Apr 29 17:11:01 2020 UTC *
G04 For: ndholmes *
G04 Format: Gerber/RS-274X *
G04 PCB-Dimensions (mil): 4000.00 2900.00 *
G04 PCB-Coordinate-Origin: lower left *
%MOIN*%
%FSLAX25Y25*%
%LNTOPSILK*%
%ADD95C,0.0080*%
%ADD94C,0.0100*%
%ADD93C,0.0001*%
G54D93*G36*
X52543Y50709D02*X52147Y50980D01*
X52011Y51425D01*
X52065Y51740D01*
X52261Y51990D01*
X52391Y52104D01*
Y53986D01*
X51718D01*
X51241Y53981D01*
X51045Y53964D01*
X50953Y53840D01*
X50600Y53617D01*
X50172D01*
X49873Y53807D01*
X49689Y54100D01*
X49662Y54431D01*
X49770Y54724D01*
X49987Y54946D01*
X50302Y55066D01*
X50682Y55012D01*
X50991Y54773D01*
X51056Y54675D01*
X51724D01*
X52391Y54670D01*
Y56167D01*
X50058D01*
Y56900D01*
X50053Y57627D01*
X49955Y57697D01*
X49787Y57876D01*
X49678Y58093D01*
X49689Y58527D01*
X49873Y58815D01*
X50161Y58994D01*
X50497Y59026D01*
X50790Y58923D01*
X51013Y58701D01*
X51132Y58381D01*
X51078Y58006D01*
X50839Y57697D01*
X50742Y57627D01*
Y56851D01*
X52391D01*
Y59156D01*
X52857Y59748D01*
X53329Y60339D01*
Y62406D01*
X52418D01*
Y63193D01*
X56802D01*
Y64566D01*
X53986D01*
Y63193D01*
X53329D01*
Y64566D01*
X52418D01*
Y65325D01*
X53319D01*
Y66692D01*
X54002Y66719D01*
X53997Y66057D01*
X53991Y65586D01*
X54002Y65368D01*
X54067Y65358D01*
X54290Y65347D01*
X54724Y65341D01*
X55407Y65336D01*
X56802D01*
Y66719D01*
X54002D01*
X53319Y66692D01*
X52418D01*
Y67452D01*
X53329D01*
X53986Y67479D01*
X56802D01*
Y68852D01*
X53986D01*
Y67479D01*
X53329Y67452D01*
Y68824D01*
X52418D01*
Y69584D01*
X53319D01*
X53329Y70962D01*
X53986Y71005D01*
Y70327D01*
X53991Y69844D01*
X54008Y69627D01*
X54420Y69617D01*
X55407Y69611D01*
X56791D01*
X56796Y70300D01*
Y70316D01*
X56807Y71005D01*
X53986D01*
X53329Y70962D01*
X52418D01*
Y71722D01*
X53319D01*
Y73094D01*
X54002Y73148D01*
X53997Y72492D01*
X53991Y72015D01*
X54002Y71797D01*
X54067Y71787D01*
X54290Y71776D01*
X54724Y71770D01*
X55407Y71765D01*
X56807D01*
X56796Y72459D01*
X56791Y73148D01*
X54002D01*
X53319Y73094D01*
X52418D01*
Y73854D01*
X53329D01*
Y75096D01*
X53986D01*
Y73854D01*
X56802D01*
Y75096D01*
X57491D01*
Y73854D01*
X58402D01*
Y73094D01*
X57491D01*
Y71694D01*
X58402D01*
Y70935D01*
X57491D01*
Y69541D01*
X58402D01*
Y68781D01*
X57491D01*
Y67408D01*
X58402D01*
Y66649D01*
X57491D01*
Y65255D01*
X58402D01*
Y64495D01*
X57491D01*
Y63122D01*
X58402D01*
Y62336D01*
X57491D01*
X57485Y61750D01*
Y61158D01*
X56069Y59368D01*
X54648Y57583D01*
Y53574D01*
X55624Y52597D01*
X58044D01*
Y54719D01*
X58039Y55543D01*
Y56216D01*
X58033Y56672D01*
X58028Y56834D01*
X57903Y56927D01*
X57659Y57393D01*
X57794Y57909D01*
X58370Y58218D01*
X58972Y57947D01*
X59129Y57382D01*
X58831Y56872D01*
X58733Y56802D01*
Y51914D01*
X55342D01*
X53986Y53270D01*
Y57844D01*
X55396Y59623D01*
X56802Y61403D01*
Y62341D01*
X53986D01*
Y60003D01*
X53074Y58853D01*
Y52022D01*
X53140Y51990D01*
X53319Y51821D01*
X53449Y51588D01*
X53416Y51073D01*
X53069Y50693D01*
X52803Y50633D01*
X52543Y50644D01*
Y50709D01*
G37*
G36*
X68385Y51729D02*X66567Y52071D01*
X64983Y52793D01*
X63876Y53671D01*
X62932Y54778D01*
X62070Y56341D01*
X61424Y58196D01*
X61326Y58565D01*
X63746Y59081D01*
X64679Y59281D01*
X65455Y59444D01*
X65981Y59547D01*
X66182Y59580D01*
X66236Y59368D01*
X66285Y59118D01*
X66367Y58782D01*
X66730Y57757D01*
X67245Y56932D01*
X67891Y56324D01*
X68662Y55961D01*
X68900Y55918D01*
X69296Y55901D01*
X69687Y55918D01*
X69942Y55961D01*
X70962Y56547D01*
X71521Y57583D01*
X71575Y58212D01*
X71521Y58809D01*
X72123Y58983D01*
X72161Y57567D01*
X71803Y56617D01*
X71173Y55885D01*
X70316Y55424D01*
X69280Y55256D01*
X67951Y55559D01*
X66882Y56384D01*
X66090Y57627D01*
X65889Y58153D01*
X65743Y58657D01*
X65694Y58826D01*
X65645Y58842D01*
X65493Y58815D01*
X65135Y58739D01*
X64609Y58625D01*
X63979Y58489D01*
X62829Y58245D01*
X62292Y58126D01*
X62129Y58077D01*
Y58044D01*
X62178Y57860D01*
X62303Y57491D01*
X62449Y57084D01*
X62574Y56758D01*
X63572Y54979D01*
X64858Y53650D01*
X66432Y52782D01*
X68303Y52364D01*
X68699Y52353D01*
X69247D01*
X69795Y52369D01*
X70218Y52402D01*
X71548Y52657D01*
X72709Y53091D01*
X73609Y53623D01*
X74363Y54279D01*
X74966Y55060D01*
X75432Y55966D01*
X75660Y56661D01*
X75817Y57447D01*
X75866Y58402D01*
X75817Y59336D01*
X75590Y60323D01*
X75232Y61213D01*
X74711Y62032D01*
X74027Y62813D01*
X73327Y63459D01*
X72519Y64056D01*
X71445Y64717D01*
X69953Y65547D01*
X68808Y66182D01*
X68016Y66660D01*
X67463Y67061D01*
X67034Y67463D01*
X66486Y68249D01*
X66318Y69117D01*
X66464Y70159D01*
X66898Y70973D01*
X67603Y71537D01*
X68558Y71819D01*
X69139Y71836D01*
X69714Y71770D01*
X70484Y71477D01*
X71152Y70951D01*
X71727Y70186D01*
X72221Y69166D01*
X72307Y68966D01*
X72367Y68922D01*
X72530Y68971D01*
X72909Y69074D01*
X73419Y69226D01*
X74005Y69394D01*
X74581Y69562D01*
X75080Y69714D01*
X75438Y69817D01*
X75579Y69861D01*
X75552Y69985D01*
X75465Y70262D01*
X75340Y70604D01*
X75221Y70919D01*
X74543Y72134D01*
X73653Y73138D01*
X72579Y73913D01*
X71325Y74440D01*
X69568Y74743D01*
X67647Y74657D01*
X65900Y74196D01*
X64500Y73360D01*
X63800Y72633D01*
X63258Y71749D01*
X62889Y70723D01*
X62688Y69573D01*
X62661Y68797D01*
X62699Y68087D01*
X62938Y67105D01*
X63377Y66199D01*
X64017Y65358D01*
X64880Y64566D01*
X65422Y64159D01*
X66052Y63746D01*
X66855Y63269D01*
X67940Y62661D01*
X68667Y62260D01*
X69209Y61951D01*
X69633Y61696D01*
X70007Y61457D01*
X71439Y60247D01*
X72123Y58983D01*
X71521Y58809D01*
X70924Y59878D01*
X69665Y60925D01*
X69302Y61158D01*
X68895Y61403D01*
X68379Y61696D01*
X67685Y62075D01*
X66307Y62851D01*
X65292Y63480D01*
X64517Y64045D01*
X63860Y64625D01*
X63111Y65466D01*
X62574Y66350D01*
X62156Y67533D01*
X62026Y68846D01*
X62118Y70132D01*
X62411Y71331D01*
X63171Y72855D01*
X64332Y74038D01*
X65862Y74863D01*
X67734Y75302D01*
X69193Y75384D01*
X70577Y75259D01*
X71852Y74933D01*
X72991Y74407D01*
X74130Y73561D01*
X75069Y72476D01*
X75796Y71174D01*
X76289Y69671D01*
X76349Y69416D01*
X74147Y68776D01*
X73284Y68532D01*
X72579Y68331D01*
X72101Y68201D01*
X71922Y68157D01*
X71846Y68358D01*
X71618Y68960D01*
X71358Y69535D01*
X70598Y70604D01*
X69649Y71136D01*
X69014Y71201D01*
X68363Y71152D01*
X67506Y70680D01*
X67169Y70219D01*
X66985Y69622D01*
X66947Y69139D01*
X66985Y68727D01*
X67332Y68076D01*
X68059Y67408D01*
X68412Y67164D01*
X68851Y66888D01*
X69426Y66562D01*
X70197Y66139D01*
X71065Y65667D01*
X71748Y65282D01*
X72307Y64951D01*
X72785Y64642D01*
X74011Y63714D01*
X74977Y62726D01*
X75704Y61674D01*
X76192Y60534D01*
X76468Y59162D01*
X76474Y57730D01*
X76219Y56330D01*
X75709Y55066D01*
X74912Y53948D01*
X73870Y53037D01*
X72600Y52359D01*
X71135Y51914D01*
X69757Y51740D01*
X68385Y51735D01*
Y51729D01*
G37*
G36*
X78970Y63535D02*X79610Y63540D01*
X79604Y52641D01*
X91030D01*
Y55798D01*
X83256D01*
Y62319D01*
X88941D01*
Y65488D01*
X83256D01*
Y71271D01*
X90716D01*
Y74440D01*
X79621D01*
X79610Y63540D01*
X78970Y63535D01*
Y75064D01*
X91350D01*
Y70653D01*
X83890D01*
Y66133D01*
X89571D01*
Y61723D01*
X83907D01*
X83896Y59091D01*
X83890Y56460D01*
X91654D01*
Y52022D01*
X78970D01*
Y63535D01*
G37*
G36*
X54941Y77782D02*X54056Y78069D01*
X53291Y78628D01*
X52743Y79360D01*
X52456Y80223D01*
X52418Y80863D01*
X52499Y81482D01*
X52809Y82247D01*
X53329Y82898D01*
X54176Y83473D01*
X55147Y83716D01*
X56156Y83629D01*
X57100Y83202D01*
X57653Y82697D01*
X58077Y82079D01*
X58310Y81395D01*
X58380Y80668D01*
X58272Y79941D01*
X58006Y79268D01*
X57599Y78720D01*
X57084Y78275D01*
X56482Y77955D01*
X55831Y77782D01*
X55380Y77760D01*
X54941Y77782D01*
G37*
G54D94*X399500Y40500D02*Y289500D01*
X74500Y40500D02*Y500D01*
X325500D01*
Y40500D01*
X399500D01*
X98500Y73500D02*X173500D01*
X500Y289500D02*Y40500D01*
X399500Y289500D02*X500D01*
Y40500D02*X74500D01*
G54D95*X213500Y172500D02*X215500Y170500D01*
X213500D02*X215500Y172500D01*
X213500Y171500D02*X215500D01*
X214500Y172500D02*Y170500D01*
X272500Y172000D02*X274500Y170000D01*
X272500D02*X274500Y172000D01*
X272500Y171000D02*X274500D01*
X273500Y172000D02*Y170000D01*
X3000Y134000D02*Y132000D01*
X3500Y131500D01*
X4500D01*
X5000Y132000D02*X4500Y131500D01*
X5000Y133500D02*Y132000D01*
X3000Y133500D02*X7000D01*
Y134000D02*Y132000D01*
X6500Y131500D01*
X5500D02*X6500D01*
X5000Y132000D02*X5500Y131500D01*
X3000Y154000D02*X6500D01*
X7000Y153500D01*
Y152000D01*
X6500Y151500D01*
X3000D02*X6500D01*
X5000Y154000D02*Y151500D01*
X7000Y176000D02*X6500Y175500D01*
X7000Y177500D02*Y176000D01*
X6500Y178000D02*X7000Y177500D01*
X3500Y178000D02*X6500D01*
X3500D02*X3000Y177500D01*
Y176000D01*
X3500Y175500D01*
X4500D01*
X5000Y176000D02*X4500Y175500D01*
X5000Y177000D02*Y176000D01*
X3000Y174300D02*X7000D01*
X6500D02*X7000D01*
X6500D02*X4000Y171800D01*
X3000D02*X7000D01*
X3000Y170100D02*X7000D01*
Y168600D02*X6500Y168100D01*
X3500D02*X6500D01*
X3000Y168600D02*X3500Y168100D01*
X3000Y170600D02*Y168600D01*
X7000Y170600D02*Y168600D01*
X4000Y197000D02*X7000D01*
X4000D02*X3000Y196000D01*
X4000Y195000D01*
X7000D01*
Y193800D02*Y192800D01*
X3000Y193300D02*X7000D01*
X3000Y193800D02*Y192800D01*
Y191600D02*X7000D01*
X6500D02*X7000D01*
X6500D02*X4000Y189100D01*
X3000D02*X7000D01*
X86500Y137000D02*X88500Y135000D01*
X86500D02*X88500Y137000D01*
X86500Y136000D02*X88500D01*
X87500Y137000D02*Y135000D01*
X11000Y80500D02*Y77500D01*
Y80500D02*X11500Y81000D01*
X12500D01*
X13000Y80500D01*
Y77500D01*
X12500Y77000D02*X13000Y77500D01*
X11500Y77000D02*X12500D01*
X11000Y77500D02*X11500Y77000D01*
X12000Y78000D02*X13000Y77000D01*
X14200Y79000D02*Y77500D01*
X14700Y77000D01*
X15200D01*
X15700Y77500D01*
Y79000D02*Y77500D01*
X16200Y77000D01*
X16700D01*
X17200Y77500D01*
Y79000D02*Y77500D01*
X18400Y80000D02*Y79500D01*
Y78500D02*Y77000D01*
X19400Y80000D02*Y79500D01*
Y78500D02*Y77000D01*
X20900Y79000D02*X22400D01*
X20400Y78500D02*X20900Y79000D01*
X20400Y78500D02*Y77500D01*
X20900Y77000D01*
X22400D01*
X141000Y177000D02*Y173000D01*
X140500Y177000D02*X142500D01*
X143000Y176500D01*
Y175500D01*
X142500Y175000D02*X143000Y175500D01*
X141000Y175000D02*X142500D01*
X144200Y177000D02*Y173000D01*
X145700Y174500D01*
X147200Y173000D01*
Y177000D02*Y173000D01*
X148400Y177000D02*X150400D01*
X150900Y176500D01*
Y175500D01*
X150400Y175000D02*X150900Y175500D01*
X148900Y175000D02*X150400D01*
X148900Y177000D02*Y173000D01*
Y175000D02*X150900Y173000D01*
X134000Y181000D02*X136000D01*
X135000Y182000D02*Y180000D01*
X141000Y167000D02*Y163500D01*
Y167000D02*X141500Y167500D01*
X143000D01*
X143500Y167000D01*
Y163500D01*
X141000Y165500D02*X143500D01*
X145200Y163500D02*X146700D01*
X144700Y164000D02*X145200Y163500D01*
X144700Y167000D02*Y164000D01*
Y167000D02*X145200Y167500D01*
X146700D01*
X147900D02*X149900D01*
X148900D02*Y163500D01*
X140500Y158000D02*X142500D01*
X143000Y157500D01*
Y156500D01*
X142500Y156000D02*X143000Y156500D01*
X141000Y156000D02*X142500D01*
X141000Y158000D02*Y154000D01*
Y156000D02*X143000Y154000D01*
X146200Y158000D02*X146700Y157500D01*
X144700Y158000D02*X146200D01*
X144200Y157500D02*X144700Y158000D01*
X144200Y157500D02*Y156500D01*
X144700Y156000D01*
X146200D01*
X146700Y155500D01*
Y154500D01*
X146200Y154000D02*X146700Y154500D01*
X144700Y154000D02*X146200D01*
X144200Y154500D02*X144700Y154000D01*
X149900Y158000D02*X150400Y157500D01*
X148400Y158000D02*X149900D01*
X147900Y157500D02*X148400Y158000D01*
X147900Y157500D02*Y156500D01*
X148400Y156000D01*
X149900D01*
X150400Y155500D01*
Y154500D01*
X149900Y154000D02*X150400Y154500D01*
X148400Y154000D02*X149900D01*
X147900Y154500D02*X148400Y154000D01*
X151600Y158000D02*X152600D01*
X152100D02*Y154000D01*
X151600D02*X152600D01*
X141000Y148000D02*Y144500D01*
Y148000D02*X141500Y148500D01*
X143000D01*
X143500Y148000D01*
Y144500D01*
X141000Y146500D02*X143500D01*
X146700Y148500D02*X147200Y148000D01*
X145200Y148500D02*X146700D01*
X144700Y148000D02*X145200Y148500D01*
X144700Y148000D02*Y147000D01*
X145200Y146500D01*
X146700D01*
X147200Y146000D01*
Y145000D01*
X146700Y144500D02*X147200Y145000D01*
X145200Y144500D02*X146700D01*
X144700Y145000D02*X145200Y144500D01*
X150400Y148500D02*X150900Y148000D01*
X148900Y148500D02*X150400D01*
X148400Y148000D02*X148900Y148500D01*
X148400Y148000D02*Y147000D01*
X148900Y146500D01*
X150400D01*
X150900Y146000D01*
Y145000D01*
X150400Y144500D02*X150900Y145000D01*
X148900Y144500D02*X150400D01*
X148400Y145000D02*X148900Y144500D01*
X152100Y148000D02*Y145000D01*
Y148000D02*X152600Y148500D01*
X153600D01*
X154100Y148000D01*
Y145000D01*
X153600Y144500D02*X154100Y145000D01*
X152600Y144500D02*X153600D01*
X152100Y145000D02*X152600Y144500D01*
X155800D02*X157300D01*
X155300Y145000D02*X155800Y144500D01*
X155300Y148000D02*Y145000D01*
Y148000D02*X155800Y148500D01*
X157300D01*
X134000Y140500D02*X136000D01*
X135000Y141500D02*Y139500D01*
X99000Y80000D02*X100000D01*
X99500D02*Y76000D01*
X99000D02*X100000D01*
X101200Y77500D02*Y76500D01*
Y77500D02*X101700Y78000D01*
X102700D01*
X103200Y77500D01*
Y76500D01*
X102700Y76000D02*X103200Y76500D01*
X101700Y76000D02*X102700D01*
X101200Y76500D02*X101700Y76000D01*
X104400Y78000D02*Y76500D01*
X104900Y76000D01*
X105400D01*
X105900Y76500D01*
Y78000D02*Y76500D01*
X106400Y76000D01*
X106900D01*
X107400Y76500D01*
Y78000D02*Y76500D01*
X110100Y78000D02*X110600Y77500D01*
X109100Y78000D02*X110100D01*
X108600Y77500D02*X109100Y78000D01*
X108600Y77500D02*Y76500D01*
X109100Y76000D01*
X110600Y78000D02*Y76500D01*
X111100Y76000D01*
X109100D02*X110100D01*
X110600Y76500D01*
X116100Y80000D02*X116600Y79500D01*
X114600Y80000D02*X116100D01*
X114100Y79500D02*X114600Y80000D01*
X114100Y79500D02*Y78500D01*
X114600Y78000D01*
X116100D01*
X116600Y77500D01*
Y76500D01*
X116100Y76000D02*X116600Y76500D01*
X114600Y76000D02*X116100D01*
X114100Y76500D02*X114600Y76000D01*
X118300Y78000D02*X119800D01*
X117800Y77500D02*X118300Y78000D01*
X117800Y77500D02*Y76500D01*
X118300Y76000D01*
X119800D01*
X122500Y78000D02*X123000Y77500D01*
X121500Y78000D02*X122500D01*
X121000Y77500D02*X121500Y78000D01*
X121000Y77500D02*Y76500D01*
X121500Y76000D01*
X123000Y78000D02*Y76500D01*
X123500Y76000D01*
X121500D02*X122500D01*
X123000Y76500D01*
X124700Y80000D02*Y76500D01*
X125200Y76000D01*
X126700D02*X128200D01*
X126200Y76500D02*X126700Y76000D01*
X126200Y77500D02*Y76500D01*
Y77500D02*X126700Y78000D01*
X127700D01*
X128200Y77500D01*
X126200Y77000D02*X128200D01*
Y77500D02*Y77000D01*
X131400Y80000D02*Y76000D01*
X130900D02*X131400Y76500D01*
X129900Y76000D02*X130900D01*
X129400Y76500D02*X129900Y76000D01*
X129400Y77500D02*Y76500D01*
Y77500D02*X129900Y78000D01*
X130900D01*
X131400Y77500D01*
X134400Y78000D02*X135900D01*
X134400Y76000D02*X136400D01*
X134400Y80000D02*Y76000D01*
Y80000D02*X136400D01*
X138100Y77500D02*Y76000D01*
Y77500D02*X138600Y78000D01*
X139100D01*
X139600Y77500D01*
Y76000D01*
X137600Y78000D02*X138100Y77500D01*
X142300Y78000D02*X142800Y77500D01*
X141300Y78000D02*X142300D01*
X140800Y77500D02*X141300Y78000D01*
X140800Y77500D02*Y76500D01*
X141300Y76000D01*
X142300D01*
X142800Y76500D01*
X140800Y75000D02*X141300Y74500D01*
X142300D01*
X142800Y75000D01*
Y78000D02*Y75000D01*
X144000Y79000D02*Y78500D01*
Y77500D02*Y76000D01*
X145500Y77500D02*Y76000D01*
Y77500D02*X146000Y78000D01*
X146500D01*
X147000Y77500D01*
Y76000D01*
X145000Y78000D02*X145500Y77500D01*
X148700Y76000D02*X150200D01*
X148200Y76500D02*X148700Y76000D01*
X148200Y77500D02*Y76500D01*
Y77500D02*X148700Y78000D01*
X149700D01*
X150200Y77500D01*
X148200Y77000D02*X150200D01*
Y77500D02*Y77000D01*
X151900Y76000D02*X153400D01*
X151400Y76500D02*X151900Y76000D01*
X151400Y77500D02*Y76500D01*
Y77500D02*X151900Y78000D01*
X152900D01*
X153400Y77500D01*
X151400Y77000D02*X153400D01*
Y77500D02*Y77000D01*
X155100Y77500D02*Y76000D01*
Y77500D02*X155600Y78000D01*
X156600D01*
X154600D02*X155100Y77500D01*
X157800Y79000D02*Y78500D01*
Y77500D02*Y76000D01*
X159300Y77500D02*Y76000D01*
Y77500D02*X159800Y78000D01*
X160300D01*
X160800Y77500D01*
Y76000D01*
X158800Y78000D02*X159300Y77500D01*
X163500Y78000D02*X164000Y77500D01*
X162500Y78000D02*X163500D01*
X162000Y77500D02*X162500Y78000D01*
X162000Y77500D02*Y76500D01*
X162500Y76000D01*
X163500D01*
X164000Y76500D01*
X162000Y75000D02*X162500Y74500D01*
X163500D01*
X164000Y75000D01*
Y78000D02*Y75000D01*
X99000Y70500D02*Y66500D01*
Y70500D02*X100500Y69000D01*
X102000Y70500D01*
Y66500D01*
X103200Y70500D02*X105200D01*
X105700Y70000D01*
Y69000D01*
X105200Y68500D02*X105700Y69000D01*
X103700Y68500D02*X105200D01*
X103700Y70500D02*Y66500D01*
Y68500D02*X105700Y66500D01*
X106900D02*X108900D01*
X109400Y67000D01*
Y68000D02*Y67000D01*
X108900Y68500D02*X109400Y68000D01*
X107400Y68500D02*X108900D01*
X107400Y70500D02*Y66500D01*
X106900Y70500D02*X108900D01*
X109400Y70000D01*
Y69000D01*
X108900Y68500D02*X109400Y69000D01*
X110600Y68500D02*X112600D01*
X113800Y70500D02*Y66500D01*
Y70500D02*X115800D01*
X113800Y68500D02*X115300D01*
X117500Y66500D02*X119000D01*
X117000Y67000D02*X117500Y66500D01*
X117000Y70000D02*Y67000D01*
Y70000D02*X117500Y70500D01*
X119000D01*
X120200D02*Y66500D01*
Y70500D02*X121700Y69000D01*
X123200Y70500D01*
Y66500D01*
X126200Y68500D02*Y67500D01*
X127200Y66500D01*
X128200Y67500D01*
Y68500D02*Y67500D01*
X129400Y70000D02*X129900Y70500D01*
X131400D01*
X131900Y70000D01*
Y69000D01*
X129400Y66500D02*X131900Y69000D01*
X129400Y66500D02*X131900D01*
X133100D02*X133600D01*
X134800Y67000D02*X135300Y66500D01*
X134800Y70000D02*Y67000D01*
Y70000D02*X135300Y70500D01*
X136300D01*
X136800Y70000D01*
Y67000D01*
X136300Y66500D02*X136800Y67000D01*
X135300Y66500D02*X136300D01*
X134800Y67500D02*X136800Y69500D01*
X99500Y60000D02*X101000D01*
X99000Y60500D02*X99500Y60000D01*
X99000Y63500D02*Y60500D01*
Y63500D02*X99500Y64000D01*
X101000D01*
X102700Y60000D02*X104200D01*
X102200Y60500D02*X102700Y60000D01*
X102200Y63500D02*Y60500D01*
Y63500D02*X102700Y64000D01*
X104200D01*
X107200Y60000D02*X109200D01*
X109700Y60500D01*
Y61500D02*Y60500D01*
X109200Y62000D02*X109700Y61500D01*
X107700Y62000D02*X109200D01*
X107700Y64000D02*Y60000D01*
X107200Y64000D02*X109200D01*
X109700Y63500D01*
Y62500D01*
X109200Y62000D02*X109700Y62500D01*
X110900Y64000D02*Y63500D01*
X111900Y62500D01*
X112900Y63500D01*
Y64000D02*Y63500D01*
X111900Y62500D02*Y60000D01*
X114100Y62000D02*X116100D01*
X119300Y64000D02*X119800Y63500D01*
X117800Y64000D02*X119300D01*
X117300Y63500D02*X117800Y64000D01*
X117300Y63500D02*Y62500D01*
X117800Y62000D01*
X119300D01*
X119800Y61500D01*
Y60500D01*
X119300Y60000D02*X119800Y60500D01*
X117800Y60000D02*X119300D01*
X117300Y60500D02*X117800Y60000D01*
X121000Y63500D02*Y60000D01*
Y63500D02*X121500Y64000D01*
X123000D01*
X123500Y63500D01*
Y60000D01*
X121000Y62000D02*X123500D01*
X126500Y60500D02*X127000Y60000D01*
X126500Y63500D02*X127000Y64000D01*
X126500Y63500D02*Y60500D01*
X128700Y60000D02*X130200D01*
X128200Y60500D02*X128700Y60000D01*
X128200Y63500D02*Y60500D01*
Y63500D02*X128700Y64000D01*
X130200D01*
X131400D02*X131900Y63500D01*
Y60500D01*
X131400Y60000D02*X131900Y60500D01*
X134900Y63500D02*X135400Y64000D01*
X136900D01*
X137400Y63500D01*
Y62500D01*
X134900Y60000D02*X137400Y62500D01*
X134900Y60000D02*X137400D01*
X138600Y60500D02*X139100Y60000D01*
X138600Y63500D02*Y60500D01*
Y63500D02*X139100Y64000D01*
X140100D01*
X140600Y63500D01*
Y60500D01*
X140100Y60000D02*X140600Y60500D01*
X139100Y60000D02*X140100D01*
X138600Y61000D02*X140600Y63000D01*
X141800Y63500D02*X142300Y64000D01*
X143800D01*
X144300Y63500D01*
Y62500D01*
X141800Y60000D02*X144300Y62500D01*
X141800Y60000D02*X144300D01*
X145500Y60500D02*X146000Y60000D01*
X145500Y63500D02*Y60500D01*
Y63500D02*X146000Y64000D01*
X147000D01*
X147500Y63500D01*
Y60500D01*
X147000Y60000D02*X147500Y60500D01*
X146000Y60000D02*X147000D01*
X145500Y61000D02*X147500Y63000D01*
X99000Y58000D02*Y54000D01*
Y55500D02*X99500Y56000D01*
X100500D01*
X101000Y55500D01*
Y54000D01*
X102700Y58000D02*Y54500D01*
X103200Y54000D01*
X102200Y56500D02*X103200D01*
X104700Y58000D02*Y54500D01*
X105200Y54000D01*
X104200Y56500D02*X105200D01*
X106700Y55500D02*Y52500D01*
X106200Y56000D02*X106700Y55500D01*
X107200Y56000D01*
X108200D01*
X108700Y55500D01*
Y54500D01*
X108200Y54000D02*X108700Y54500D01*
X107200Y54000D02*X108200D01*
X106700Y54500D02*X107200Y54000D01*
X110400D02*X111900D01*
X112400Y54500D01*
X111900Y55000D02*X112400Y54500D01*
X110400Y55000D02*X111900D01*
X109900Y55500D02*X110400Y55000D01*
X109900Y55500D02*X110400Y56000D01*
X111900D01*
X112400Y55500D01*
X109900Y54500D02*X110400Y54000D01*
X113600Y56500D02*X114100D01*
X113600Y55500D02*X114100D01*
X115300Y54500D02*X118300Y57500D01*
X119500Y54500D02*X122500Y57500D01*
X123700Y56000D02*Y54500D01*
X124200Y54000D01*
X124700D01*
X125200Y54500D01*
Y56000D02*Y54500D01*
X125700Y54000D01*
X126200D01*
X126700Y54500D01*
Y56000D02*Y54500D01*
X127900Y56000D02*Y54500D01*
X128400Y54000D01*
X128900D01*
X129400Y54500D01*
Y56000D02*Y54500D01*
X129900Y54000D01*
X130400D01*
X130900Y54500D01*
Y56000D02*Y54500D01*
X132100Y56000D02*Y54500D01*
X132600Y54000D01*
X133100D01*
X133600Y54500D01*
Y56000D02*Y54500D01*
X134100Y54000D01*
X134600D01*
X135100Y54500D01*
Y56000D02*Y54500D01*
X136300Y54000D02*X136800D01*
X138000Y57000D02*Y56500D01*
Y55500D02*Y54000D01*
X140500Y56000D02*X141000Y55500D01*
X139500Y56000D02*X140500D01*
X139000Y55500D02*X139500Y56000D01*
X139000Y55500D02*Y54500D01*
X139500Y54000D01*
X141000Y56000D02*Y54500D01*
X141500Y54000D01*
X139500D02*X140500D01*
X141000Y54500D01*
X143200Y54000D02*X144700D01*
X145200Y54500D01*
X144700Y55000D02*X145200Y54500D01*
X143200Y55000D02*X144700D01*
X142700Y55500D02*X143200Y55000D01*
X142700Y55500D02*X143200Y56000D01*
X144700D01*
X145200Y55500D01*
X142700Y54500D02*X143200Y54000D01*
X146900Y56000D02*X148400D01*
X146400Y55500D02*X146900Y56000D01*
X146400Y55500D02*Y54500D01*
X146900Y54000D01*
X148400D01*
X151100Y56000D02*X151600Y55500D01*
X150100Y56000D02*X151100D01*
X149600Y55500D02*X150100Y56000D01*
X149600Y55500D02*Y54500D01*
X150100Y54000D01*
X151600Y56000D02*Y54500D01*
X152100Y54000D01*
X150100D02*X151100D01*
X151600Y54500D01*
X153300Y58000D02*Y54500D01*
X153800Y54000D01*
X155300D02*X156800D01*
X154800Y54500D02*X155300Y54000D01*
X154800Y55500D02*Y54500D01*
Y55500D02*X155300Y56000D01*
X156300D01*
X156800Y55500D01*
X154800Y55000D02*X156800D01*
Y55500D02*Y55000D01*
X160000Y58000D02*Y54000D01*
X159500D02*X160000Y54500D01*
X158500Y54000D02*X159500D01*
X158000Y54500D02*X158500Y54000D01*
X158000Y55500D02*Y54500D01*
Y55500D02*X158500Y56000D01*
X159500D01*
X160000Y55500D01*
X161200Y54000D02*X161700D01*
X163400Y56000D02*X164900D01*
X162900Y55500D02*X163400Y56000D01*
X162900Y55500D02*Y54500D01*
X163400Y54000D01*
X164900D01*
X166100Y55500D02*Y54500D01*
Y55500D02*X166600Y56000D01*
X167600D01*
X168100Y55500D01*
Y54500D01*
X167600Y54000D02*X168100Y54500D01*
X166600Y54000D02*X167600D01*
X166100Y54500D02*X166600Y54000D01*
X169800Y55500D02*Y54000D01*
Y55500D02*X170300Y56000D01*
X170800D01*
X171300Y55500D01*
Y54000D01*
Y55500D02*X171800Y56000D01*
X172300D01*
X172800Y55500D01*
Y54000D01*
X169300Y56000D02*X169800Y55500D01*
G54D94*X9200Y163000D02*Y123000D01*
X39200Y163000D02*Y123000D01*
X34800Y163000D02*Y123000D01*
X9200Y163000D02*X39200D01*
X9200Y123000D02*X39200D01*
X38334Y103751D02*Y91153D01*
Y103751D02*X45816D01*
Y91153D01*
X38334D02*X45816D01*
X57607Y127245D02*X58393D01*
X57607Y132755D02*X58393D01*
X99201Y165390D02*X111799D01*
Y151610D01*
X99201D01*
Y165390D01*
X92126Y7189D02*X107874D01*
X88189Y22937D02*Y15063D01*
X92126Y30811D02*X107874D01*
X111811Y22937D02*Y15063D01*
X57807Y168755D02*X58593D01*
X57807Y163245D02*X58593D01*
X84900Y157500D02*Y138500D01*
X53900Y157500D02*X84900D01*
X53900D02*Y138500D01*
X71900D02*X84900D01*
X53900D02*X66900D01*
X71900D02*G75*G03X66900Y138500I-2500J0D01*G01*
X375150Y210255D02*X375936D01*
X375150Y204745D02*X375936D01*
X375107Y220255D02*X375893D01*
X375107Y214745D02*X375893D01*
X399500Y194050D02*Y140750D01*
X323500D02*X399500D01*
X323500Y194050D02*Y140750D01*
Y194050D02*X399500D01*
X341107Y208755D02*X341893D01*
X341107Y203245D02*X341893D01*
X371500Y251600D02*Y235400D01*
X349500Y251600D02*Y235400D01*
Y251600D02*X371500D01*
X349500Y235400D02*X371500D01*
X173201Y174390D02*X185799D01*
Y160610D01*
X173201D01*
Y174390D01*
X202001Y115290D02*X214599D01*
Y101510D01*
X202001D02*X214599D01*
X202001Y115290D02*Y101510D01*
X232207Y216545D02*X232993D01*
X232207Y222055D02*X232993D01*
X261755Y168393D02*Y167607D01*
X256245Y168393D02*Y167607D01*
X72107Y173745D02*X72893D01*
X72107Y179255D02*X72893D01*
X131107Y158755D02*X131893D01*
X131107Y153245D02*X131893D01*
X131107Y177755D02*X131893D01*
X131107Y172245D02*X131893D01*
X131107Y149255D02*X131893D01*
X131107Y143745D02*X131893D01*
X131107Y168255D02*X131893D01*
X131107Y162745D02*X131893D01*
X9200Y203000D02*Y163000D01*
X39200Y203000D02*Y163000D01*
X34800Y203000D02*Y163000D01*
X9200Y203000D02*X39200D01*
X9200Y163000D02*X39200D01*
X30700Y217400D02*X1200D01*
Y251400D01*
X57200D01*
Y246400D01*
X53200Y217400D02*X57200D01*
Y222400D01*
X1200Y217400D02*Y251400D01*
X1700Y217400D02*Y251400D01*
X2200Y217400D02*Y251400D01*
X2700Y217400D02*Y251400D01*
X3200Y217400D02*Y251400D01*
X3700Y217400D02*Y251400D01*
X4200Y217400D02*Y251400D01*
X4700Y217400D02*Y251400D01*
X14200Y217400D02*Y251400D01*
X13700Y217400D02*Y251400D01*
X13200Y217400D02*Y251400D01*
X12700Y217400D02*Y251400D01*
X12200Y217400D02*Y251400D01*
X11700Y217400D02*Y251400D01*
X11200Y217400D02*Y251400D01*
X10700Y217400D02*Y251400D01*
X42700Y281500D02*Y260500D01*
X52300Y281500D02*Y260500D01*
X42700Y281500D02*X52300D01*
X42700Y260500D02*X52300D01*
X42700Y273500D02*X52300D01*
X70308Y218008D02*X76804D01*
X89796D02*X96292D01*
Y237496D02*Y218008D01*
X70308Y237496D02*Y218008D01*
X96292Y237496D02*X89796Y243992D01*
X70308Y237496D02*X76804Y243992D01*
X73300Y237000D02*X77300D01*
X75300Y239000D02*Y235000D01*
X119755Y271893D02*Y271107D01*
X114245Y271893D02*Y271107D01*
X60665Y253126D02*X106335D01*
X60665Y286590D02*X106335D01*
X60665D02*Y253126D01*
X106335Y286590D02*Y253126D01*
X63271Y184250D02*X73901D01*
X63271Y202750D02*X73901D01*
X63271Y187500D02*Y184250D01*
Y202750D02*Y199500D01*
X73901Y184429D02*Y184250D01*
Y202750D02*Y202571D01*
X158826Y7189D02*X174574D01*
X154889Y22937D02*Y15063D01*
X158826Y30811D02*X174574D01*
X178511Y22937D02*Y15063D01*
X225426Y7189D02*X241174D01*
X221489Y22937D02*Y15063D01*
X225426Y30811D02*X241174D01*
X245111Y22937D02*Y15063D01*
X292126Y7189D02*X307874D01*
X288189Y22937D02*Y15063D01*
X292126Y30811D02*X307874D01*
X311811Y22937D02*Y15063D01*
X349564Y262755D02*X350350D01*
X349564Y257245D02*X350350D01*
X198500Y278000D02*X358500D01*
X198500D02*Y268000D01*
X358500D01*
Y278000D02*Y268000D01*
X348500Y278000D02*Y268000D01*
X358500D01*
X262107Y214255D02*X262893D01*
X262107Y208745D02*X262893D01*
X217421Y201079D02*Y177221D01*
Y201079D02*X244179D01*
Y174321D01*
X220321D02*X244179D01*
X220321D02*X217421Y177221D01*
X220321Y176221D02*G75*G03X220321Y176221I0J1000D01*G01*
X273000Y174500D02*X292000D01*
Y205500D02*Y174500D01*
X273000Y205500D02*X292000D01*
X273000Y187500D02*Y174500D01*
Y205500D02*Y192500D01*
Y187500D02*G75*G03X273000Y192500I0J2500D01*G01*
X254500Y246500D02*Y226500D01*
X284500Y246500D02*Y226500D01*
X254500Y246500D02*X255500D01*
X283500D02*X284500D01*
X283500Y226500D02*X284500D01*
X254500D02*X255500D01*
X253000Y224500D02*G75*G03X253000Y224500I0J500D01*G01*
X208255Y161936D02*Y161150D01*
X202745Y161936D02*Y161150D01*
X191000Y257300D02*X204900D01*
X191000D02*Y245500D01*
X204900D01*
Y257300D02*Y245500D01*
X193100Y79100D02*X207000D01*
Y90900D02*Y79100D01*
X193100Y90900D02*X207000D01*
X193100D02*Y79100D01*
X280138Y166240D02*X284862D01*
X280138Y158760D02*X284862D01*
X250607Y157755D02*X251393D01*
X250607Y152245D02*X251393D01*
X230107D02*X230893D01*
X230107Y157755D02*X230893D01*
X217862Y147850D02*X263138D01*
Y129150D01*
X217862D01*
Y147850D01*
X267272Y130200D02*Y92200D01*
X326328Y130200D02*Y92200D01*
X267272Y130200D02*X326328D01*
X267272Y92200D02*G75*G03X286701Y64453I29528J0D01*G01*
X306899Y64453D02*G75*G03X326328Y92200I-10099J27747D01*G01*
G54D95*X25000Y121000D02*X26500D01*
Y117500D01*
X26000Y117000D02*X26500Y117500D01*
X25500Y117000D02*X26000D01*
X25000Y117500D02*X25500Y117000D01*
X27700Y120500D02*X28200Y121000D01*
X29700D01*
X30200Y120500D01*
Y119500D01*
X27700Y117000D02*X30200Y119500D01*
X27700Y117000D02*X30200D01*
X38652Y86425D02*X40652D01*
X41152Y85925D01*
Y84925D01*
X40652Y84425D02*X41152Y84925D01*
X39152Y84425D02*X40652D01*
X39152Y86425D02*Y82425D01*
Y84425D02*X41152Y82425D01*
X42352Y86425D02*X44352D01*
X42352D02*Y84425D01*
X42852Y84925D01*
X43852D01*
X44352Y84425D01*
Y82925D01*
X43852Y82425D02*X44352Y82925D01*
X42852Y82425D02*X43852D01*
X42352Y82925D02*X42852Y82425D01*
X25000Y111000D02*X26500D01*
Y107500D01*
X26000Y107000D02*X26500Y107500D01*
X25500Y107000D02*X26000D01*
X25000Y107500D02*X25500Y107000D01*
X27700Y111000D02*X29700D01*
X27700D02*Y109000D01*
X28200Y109500D01*
X29200D01*
X29700Y109000D01*
Y107500D01*
X29200Y107000D02*X29700Y107500D01*
X28200Y107000D02*X29200D01*
X27700Y107500D02*X28200Y107000D01*
X84600Y132000D02*X86100D01*
Y128500D01*
X85600Y128000D02*X86100Y128500D01*
X85100Y128000D02*X85600D01*
X84600Y128500D02*X85100Y128000D01*
X87800Y132000D02*Y128000D01*
X87300Y132000D02*X89300D01*
X89800Y131500D01*
Y130500D01*
X89300Y130000D02*X89800Y130500D01*
X87800Y130000D02*X89300D01*
X91500Y128000D02*X92500D01*
X92000Y132000D02*Y128000D01*
X91000Y131000D02*X92000Y132000D01*
X93700Y128000D02*X95700D01*
X96200Y128500D01*
Y129500D02*Y128500D01*
X95700Y130000D02*X96200Y129500D01*
X94200Y130000D02*X95700D01*
X94200Y132000D02*Y128000D01*
X93700Y132000D02*X95700D01*
X96200Y131500D01*
Y130500D01*
X95700Y130000D02*X96200Y130500D01*
X88000Y144000D02*Y140500D01*
X88500Y140000D01*
X89500D01*
X90000Y140500D01*
Y144000D02*Y140500D01*
X91200Y140000D02*X93700Y142500D01*
Y144000D02*Y142500D01*
X91200Y144000D02*X93700D01*
X103200Y149700D02*X105200D01*
X105700Y149200D01*
Y148200D01*
X105200Y147700D02*X105700Y148200D01*
X103700Y147700D02*X105200D01*
X103700Y149700D02*Y145700D01*
Y147700D02*X105700Y145700D01*
X107400D02*X108400D01*
X107900Y149700D02*Y145700D01*
X106900Y148700D02*X107900Y149700D01*
X97000Y38500D02*X97500Y38000D01*
X95500Y38500D02*X97000D01*
X95000Y38000D02*X95500Y38500D01*
X95000Y38000D02*Y37000D01*
X95500Y36500D01*
X97000D01*
X97500Y36000D01*
Y35000D01*
X97000Y34500D02*X97500Y35000D01*
X95500Y34500D02*X97000D01*
X95000Y35000D02*X95500Y34500D01*
X98700Y38500D02*Y34500D01*
X100200Y36000D01*
X101700Y34500D01*
Y38500D02*Y34500D01*
X102900Y36500D02*X104900Y38500D01*
X102900Y36500D02*X105400D01*
X104900Y38500D02*Y34500D01*
X108500Y285500D02*Y282000D01*
X109000Y281500D01*
X110000D01*
X110500Y282000D01*
Y285500D02*Y282000D01*
X112200Y281500D02*X113200D01*
X112700Y285500D02*Y281500D01*
X111700Y284500D02*X112700Y285500D01*
X25500Y208000D02*X27000D01*
Y204500D01*
X26500Y204000D02*X27000Y204500D01*
X26000Y204000D02*X26500D01*
X25500Y204500D02*X26000Y204000D01*
X28700D02*X29700D01*
X29200Y208000D02*Y204000D01*
X28200Y207000D02*X29200Y208000D01*
X44200Y168000D02*X46200D01*
X46700Y167500D01*
Y166500D01*
X46200Y166000D02*X46700Y166500D01*
X44700Y166000D02*X46200D01*
X44700Y168000D02*Y164000D01*
Y166000D02*X46700Y164000D01*
X49400Y168000D02*X49900Y167500D01*
X48400Y168000D02*X49400D01*
X47900Y167500D02*X48400Y168000D01*
X47900Y167500D02*Y164500D01*
X48400Y164000D01*
X49400Y166000D02*X49900Y165500D01*
X47900Y166000D02*X49400D01*
X48400Y164000D02*X49400D01*
X49900Y164500D01*
Y165500D02*Y164500D01*
X63000Y223000D02*X64500D01*
X62500Y223500D02*X63000Y223000D01*
X62500Y226500D02*Y223500D01*
Y226500D02*X63000Y227000D01*
X64500D01*
X66200Y223000D02*X67200D01*
X66700Y227000D02*Y223000D01*
X65700Y226000D02*X66700Y227000D01*
X49821Y186200D02*Y182700D01*
X50321Y182200D01*
X51321D01*
X51821Y182700D01*
Y186200D02*Y182700D01*
X53021D02*X53521Y182200D01*
X53021Y183700D02*Y182700D01*
Y183700D02*X53521Y184200D01*
X54521D01*
X55021Y183700D01*
Y182700D01*
X54521Y182200D02*X55021Y182700D01*
X53521Y182200D02*X54521D01*
X53021Y184700D02*X53521Y184200D01*
X53021Y185700D02*Y184700D01*
Y185700D02*X53521Y186200D01*
X54521D01*
X55021Y185700D01*
Y184700D01*
X54521Y184200D02*X55021Y184700D01*
X36600Y273600D02*Y269600D01*
X38100Y273600D02*X38600Y273100D01*
Y270100D01*
X38100Y269600D02*X38600Y270100D01*
X36100Y269600D02*X38100D01*
X36100Y273600D02*X38100D01*
X40300Y269600D02*X41300D01*
X40800Y273600D02*Y269600D01*
X39800Y272600D02*X40800Y273600D01*
X43900Y131800D02*X45900D01*
X46400Y131300D01*
Y130300D01*
X45900Y129800D02*X46400Y130300D01*
X44400Y129800D02*X45900D01*
X44400Y131800D02*Y127800D01*
Y129800D02*X46400Y127800D01*
X47600D02*X50100Y130300D01*
Y131800D02*Y130300D01*
X47600Y131800D02*X50100D01*
X1700Y257400D02*X3200D01*
Y253900D01*
X2700Y253400D02*X3200Y253900D01*
X2200Y253400D02*X2700D01*
X1700Y253900D02*X2200Y253400D01*
X4900D02*X5900D01*
X5400Y257400D02*Y253400D01*
X4400Y256400D02*X5400Y257400D01*
X7100Y256900D02*Y253400D01*
Y256900D02*X7600Y257400D01*
X9100D01*
X9600Y256900D01*
Y253400D01*
X7100Y255400D02*X9600D01*
X359406Y258418D02*X360906D01*
X358906Y258918D02*X359406Y258418D01*
X358906Y261918D02*Y258918D01*
Y261918D02*X359406Y262418D01*
X360906D01*
X362106Y258918D02*X362606Y258418D01*
X362106Y259918D02*Y258918D01*
Y259918D02*X362606Y260418D01*
X363606D01*
X364106Y259918D01*
Y258918D01*
X363606Y258418D02*X364106Y258918D01*
X362606Y258418D02*X363606D01*
X362106Y260918D02*X362606Y260418D01*
X362106Y261918D02*Y260918D01*
Y261918D02*X362606Y262418D01*
X363606D01*
X364106Y261918D01*
Y260918D01*
X363606Y260418D02*X364106Y260918D01*
X360500Y206000D02*X362000D01*
X360000Y206500D02*X360500Y206000D01*
X360000Y209500D02*Y206500D01*
Y209500D02*X360500Y210000D01*
X362000D01*
X363700Y206000D02*X364700D01*
X364200Y210000D02*Y206000D01*
X363200Y209000D02*X364200Y210000D01*
X366400Y206000D02*X367400D01*
X366900Y210000D02*Y206000D01*
X365900Y209000D02*X366900Y210000D01*
X361000Y215900D02*X362500D01*
X360500Y216400D02*X361000Y215900D01*
X360500Y219400D02*Y216400D01*
Y219400D02*X361000Y219900D01*
X362500D01*
X363700Y217900D02*X365700Y219900D01*
X363700Y217900D02*X366200D01*
X365700Y219900D02*Y215900D01*
X373500Y248000D02*X375500D01*
X376000Y247500D01*
Y246500D01*
X375500Y246000D02*X376000Y246500D01*
X374000Y246000D02*X375500D01*
X374000Y248000D02*Y244000D01*
Y246000D02*X376000Y244000D01*
X377200Y244500D02*X377700Y244000D01*
X377200Y245500D02*Y244500D01*
Y245500D02*X377700Y246000D01*
X378700D01*
X379200Y245500D01*
Y244500D01*
X378700Y244000D02*X379200Y244500D01*
X377700Y244000D02*X378700D01*
X377200Y246500D02*X377700Y246000D01*
X377200Y247500D02*Y246500D01*
Y247500D02*X377700Y248000D01*
X378700D01*
X379200Y247500D01*
Y246500D01*
X378700Y246000D02*X379200Y246500D01*
X351000Y285000D02*Y281000D01*
X353000D01*
X354700D02*X356200D01*
X354200Y281500D02*X354700Y281000D01*
X354200Y284500D02*Y281500D01*
Y284500D02*X354700Y285000D01*
X356200D01*
X357900D02*Y281000D01*
X359400Y285000D02*X359900Y284500D01*
Y281500D01*
X359400Y281000D02*X359900Y281500D01*
X357400Y281000D02*X359400D01*
X357400Y285000D02*X359400D01*
X361600Y281000D02*X362600D01*
X362100Y285000D02*Y281000D01*
X361100Y284000D02*X362100Y285000D01*
X350350Y208150D02*X352350D01*
X352850Y207650D01*
Y206650D01*
X352350Y206150D02*X352850Y206650D01*
X350850Y206150D02*X352350D01*
X350850Y208150D02*Y204150D01*
Y206150D02*X352850Y204150D01*
X354050D02*X356050Y206150D01*
Y207650D02*Y206150D01*
X355550Y208150D02*X356050Y207650D01*
X354550Y208150D02*X355550D01*
X354050Y207650D02*X354550Y208150D01*
X354050Y207650D02*Y206650D01*
X354550Y206150D01*
X356050D01*
X176800Y158200D02*X178800D01*
X179300Y157700D01*
Y156700D01*
X178800Y156200D02*X179300Y156700D01*
X177300Y156200D02*X178800D01*
X177300Y158200D02*Y154200D01*
Y156200D02*X179300Y154200D01*
X180500Y157700D02*X181000Y158200D01*
X182000D01*
X182500Y157700D01*
Y154700D01*
X182000Y154200D02*X182500Y154700D01*
X181000Y154200D02*X182000D01*
X180500Y154700D02*X181000Y154200D01*
Y156200D02*X182500D01*
X193500Y111500D02*X195500D01*
X196000Y111000D01*
Y110000D01*
X195500Y109500D02*X196000Y110000D01*
X194000Y109500D02*X195500D01*
X194000Y111500D02*Y107500D01*
Y109500D02*X196000Y107500D01*
X197200Y111000D02*X197700Y111500D01*
X199200D01*
X199700Y111000D01*
Y110000D01*
X197200Y107500D02*X199700Y110000D01*
X197200Y107500D02*X199700D01*
X196157Y165700D02*X197657D01*
X195657Y166200D02*X196157Y165700D01*
X195657Y169200D02*Y166200D01*
Y169200D02*X196157Y169700D01*
X197657D01*
X198857D02*X200857D01*
X198857D02*Y167700D01*
X199357Y168200D01*
X200357D01*
X200857Y167700D01*
Y166200D01*
X200357Y165700D02*X200857Y166200D01*
X199357Y165700D02*X200357D01*
X198857Y166200D02*X199357Y165700D01*
X218100Y153300D02*X219600D01*
X217600Y153800D02*X218100Y153300D01*
X217600Y156800D02*Y153800D01*
Y156800D02*X218100Y157300D01*
X219600D01*
X220800Y153300D02*X222800Y155300D01*
Y156800D02*Y155300D01*
X222300Y157300D02*X222800Y156800D01*
X221300Y157300D02*X222300D01*
X220800Y156800D02*X221300Y157300D01*
X220800Y156800D02*Y155800D01*
X221300Y155300D01*
X222800D01*
X210500Y131500D02*Y131000D01*
X211500Y130000D01*
X212500Y131000D01*
Y131500D02*Y131000D01*
X211500Y130000D02*Y127500D01*
X214200D02*X215200D01*
X214700Y131500D02*Y127500D01*
X213700Y130500D02*X214700Y131500D01*
X197500Y97000D02*Y93500D01*
X198000Y93000D01*
X199000D01*
X199500Y93500D01*
Y97000D02*Y93500D01*
X200700Y95000D02*X202700Y97000D01*
X200700Y95000D02*X203200D01*
X202700Y97000D02*Y93000D01*
X84600Y168000D02*X86100D01*
Y164500D01*
X85600Y164000D02*X86100Y164500D01*
X85100Y164000D02*X85600D01*
X84600Y164500D02*X85100Y164000D01*
X87800Y168000D02*Y164000D01*
X87300Y168000D02*X89300D01*
X89800Y167500D01*
Y166500D01*
X89300Y166000D02*X89800Y166500D01*
X87800Y166000D02*X89300D01*
X91500Y164000D02*X92500D01*
X92000Y168000D02*Y164000D01*
X91000Y167000D02*X92000Y168000D01*
X93700Y167500D02*Y164000D01*
Y167500D02*X94200Y168000D01*
X95700D01*
X96200Y167500D01*
Y164000D01*
X93700Y166000D02*X96200D01*
X81600Y174500D02*X83100D01*
X81100Y175000D02*X81600Y174500D01*
X81100Y178000D02*Y175000D01*
Y178000D02*X81600Y178500D01*
X83100D01*
X84300Y178000D02*X84800Y178500D01*
X85800D01*
X86300Y178000D01*
Y175000D01*
X85800Y174500D02*X86300Y175000D01*
X84800Y174500D02*X85800D01*
X84300Y175000D02*X84800Y174500D01*
Y176500D02*X86300D01*
X163500Y38500D02*X164000Y38000D01*
X162000Y38500D02*X163500D01*
X161500Y38000D02*X162000Y38500D01*
X161500Y38000D02*Y37000D01*
X162000Y36500D01*
X163500D01*
X164000Y36000D01*
Y35000D01*
X163500Y34500D02*X164000Y35000D01*
X162000Y34500D02*X163500D01*
X161500Y35000D02*X162000Y34500D01*
X165200Y38500D02*Y34500D01*
X166700Y36000D01*
X168200Y34500D01*
Y38500D02*Y34500D01*
X169400Y38000D02*X169900Y38500D01*
X170900D01*
X171400Y38000D01*
Y35000D01*
X170900Y34500D02*X171400Y35000D01*
X169900Y34500D02*X170900D01*
X169400Y35000D02*X169900Y34500D01*
Y36500D02*X171400D01*
X230500Y38500D02*X231000Y38000D01*
X229000Y38500D02*X230500D01*
X228500Y38000D02*X229000Y38500D01*
X228500Y38000D02*Y37000D01*
X229000Y36500D01*
X230500D01*
X231000Y36000D01*
Y35000D01*
X230500Y34500D02*X231000Y35000D01*
X229000Y34500D02*X230500D01*
X228500Y35000D02*X229000Y34500D01*
X232200Y38500D02*Y34500D01*
X233700Y36000D01*
X235200Y34500D01*
Y38500D02*Y34500D01*
X236400Y38000D02*X236900Y38500D01*
X238400D01*
X238900Y38000D01*
Y37000D01*
X236400Y34500D02*X238900Y37000D01*
X236400Y34500D02*X238900D01*
X297000Y38500D02*X297500Y38000D01*
X295500Y38500D02*X297000D01*
X295000Y38000D02*X295500Y38500D01*
X295000Y38000D02*Y37000D01*
X295500Y36500D01*
X297000D01*
X297500Y36000D01*
Y35000D01*
X297000Y34500D02*X297500Y35000D01*
X295500Y34500D02*X297000D01*
X295000Y35000D02*X295500Y34500D01*
X298700Y38500D02*Y34500D01*
X300200Y36000D01*
X301700Y34500D01*
Y38500D02*Y34500D01*
X303400D02*X304400D01*
X303900Y38500D02*Y34500D01*
X302900Y37500D02*X303900Y38500D01*
X320600Y138900D02*Y135400D01*
X321100Y134900D01*
X322100D01*
X322600Y135400D01*
Y138900D02*Y135400D01*
X323800Y138900D02*X325800D01*
X323800D02*Y136900D01*
X324300Y137400D01*
X325300D01*
X325800Y136900D01*
Y135400D01*
X325300Y134900D02*X325800Y135400D01*
X324300Y134900D02*X325300D01*
X323800Y135400D02*X324300Y134900D01*
X254100Y90800D02*Y90300D01*
X256600Y87800D01*
Y86800D01*
X254100Y87800D02*Y86800D01*
Y87800D02*X256600Y90300D01*
Y90800D02*Y90300D01*
X257800Y86800D02*X259800D01*
X260300Y87300D01*
Y88300D02*Y87300D01*
X259800Y88800D02*X260300Y88300D01*
X258300Y88800D02*X259800D01*
X258300Y90800D02*Y86800D01*
X257800Y90800D02*X259800D01*
X260300Y90300D01*
Y89300D01*
X259800Y88800D02*X260300Y89300D01*
X262000Y86800D02*X263000D01*
X262500Y90800D02*Y86800D01*
X261500Y89800D02*X262500Y90800D01*
X116857Y158000D02*Y154000D01*
X118357Y158000D02*X118857Y157500D01*
Y154500D01*
X118357Y154000D02*X118857Y154500D01*
X116357Y154000D02*X118357D01*
X116357Y158000D02*X118357D01*
X120057Y156000D02*X122057Y158000D01*
X120057Y156000D02*X122557D01*
X122057Y158000D02*Y154000D01*
X117000Y176900D02*Y172900D01*
X118500Y176900D02*X119000Y176400D01*
Y173400D01*
X118500Y172900D02*X119000Y173400D01*
X116500Y172900D02*X118500D01*
X116500Y176900D02*X118500D01*
X120200Y176400D02*X120700Y176900D01*
X122200D01*
X122700Y176400D01*
Y175400D01*
X120200Y172900D02*X122700Y175400D01*
X120200Y172900D02*X122700D01*
X116700Y148800D02*Y144800D01*
X118200Y148800D02*X118700Y148300D01*
Y145300D01*
X118200Y144800D02*X118700Y145300D01*
X116200Y144800D02*X118200D01*
X116200Y148800D02*X118200D01*
X119900D02*X121900D01*
X119900D02*Y146800D01*
X120400Y147300D01*
X121400D01*
X121900Y146800D01*
Y145300D01*
X121400Y144800D02*X121900Y145300D01*
X120400Y144800D02*X121400D01*
X119900Y145300D02*X120400Y144800D01*
X117000Y167500D02*Y163500D01*
X118500Y167500D02*X119000Y167000D01*
Y164000D01*
X118500Y163500D02*X119000Y164000D01*
X116500Y163500D02*X118500D01*
X116500Y167500D02*X118500D01*
X120200Y167000D02*X120700Y167500D01*
X121700D01*
X122200Y167000D01*
Y164000D01*
X121700Y163500D02*X122200Y164000D01*
X120700Y163500D02*X121700D01*
X120200Y164000D02*X120700Y163500D01*
Y165500D02*X122200D01*
X126514Y268100D02*X128014D01*
X126014Y268600D02*X126514Y268100D01*
X126014Y271600D02*Y268600D01*
Y271600D02*X126514Y272100D01*
X128014D01*
X129214Y271600D02*X129714Y272100D01*
X131214D01*
X131714Y271600D01*
Y270600D01*
X129214Y268100D02*X131714Y270600D01*
X129214Y268100D02*X131714D01*
X185100Y263700D02*Y260200D01*
X185600Y259700D01*
X186600D01*
X187100Y260200D01*
Y263700D02*Y260200D01*
X189800Y263700D02*X190300Y263200D01*
X188800Y263700D02*X189800D01*
X188300Y263200D02*X188800Y263700D01*
X188300Y263200D02*Y260200D01*
X188800Y259700D01*
X189800Y261700D02*X190300Y261200D01*
X188300Y261700D02*X189800D01*
X188800Y259700D02*X189800D01*
X190300Y260200D01*
Y261200D02*Y260200D01*
X264486Y169300D02*X265986D01*
X263986Y169800D02*X264486Y169300D01*
X263986Y172800D02*Y169800D01*
Y172800D02*X264486Y173300D01*
X265986D01*
X268686D02*X269186Y172800D01*
X267686Y173300D02*X268686D01*
X267186Y172800D02*X267686Y173300D01*
X267186Y172800D02*Y169800D01*
X267686Y169300D01*
X268686Y171300D02*X269186Y170800D01*
X267186Y171300D02*X268686D01*
X267686Y169300D02*X268686D01*
X269186Y169800D01*
Y170800D02*Y169800D01*
X279850Y155150D02*Y154650D01*
X280850Y153650D01*
X281850Y154650D01*
Y155150D02*Y154650D01*
X280850Y153650D02*Y151150D01*
X283050Y154650D02*X283550Y155150D01*
X285050D01*
X285550Y154650D01*
Y153650D01*
X283050Y151150D02*X285550Y153650D01*
X283050Y151150D02*X285550D01*
X260000Y152700D02*X261500D01*
X259500Y153200D02*X260000Y152700D01*
X259500Y156200D02*Y153200D01*
Y156200D02*X260000Y156700D01*
X261500D01*
X263200Y152700D02*X264200D01*
X263700Y156700D02*Y152700D01*
X262700Y155700D02*X263700Y156700D01*
X265400Y153200D02*X265900Y152700D01*
X265400Y156200D02*Y153200D01*
Y156200D02*X265900Y156700D01*
X266900D01*
X267400Y156200D01*
Y153200D01*
X266900Y152700D02*X267400Y153200D01*
X265900Y152700D02*X266900D01*
X265400Y153700D02*X267400Y155700D01*
X219814Y222300D02*X221314D01*
X219314Y222800D02*X219814Y222300D01*
X219314Y225800D02*Y222800D01*
Y225800D02*X219814Y226300D01*
X221314D01*
X222514Y222300D02*X225014Y224800D01*
Y226300D02*Y224800D01*
X222514Y226300D02*X225014D01*
X343500Y222700D02*X345000D01*
Y219200D01*
X344500Y218700D02*X345000Y219200D01*
X344000Y218700D02*X344500D01*
X343500Y219200D02*X344000Y218700D01*
X346200Y220700D02*X348200Y222700D01*
X346200Y220700D02*X348700D01*
X348200Y222700D02*Y218700D01*
X248250Y213700D02*X250250D01*
X250750Y213200D01*
Y212200D01*
X250250Y211700D02*X250750Y212200D01*
X248750Y211700D02*X250250D01*
X248750Y213700D02*Y209700D01*
Y211700D02*X250750Y209700D01*
X251950Y211700D02*X253950Y213700D01*
X251950Y211700D02*X254450D01*
X253950Y213700D02*Y209700D01*
X209500Y208000D02*Y204500D01*
X210000Y204000D01*
X211000D01*
X211500Y204500D01*
Y208000D02*Y204500D01*
X212700Y207500D02*X213200Y208000D01*
X214700D01*
X215200Y207500D01*
Y206500D01*
X212700Y204000D02*X215200Y206500D01*
X212700Y204000D02*X215200D01*
X279900Y212300D02*Y208800D01*
X280400Y208300D01*
X281400D01*
X281900Y208800D01*
Y212300D02*Y208800D01*
X283100Y211800D02*X283600Y212300D01*
X284600D01*
X285100Y211800D01*
Y208800D01*
X284600Y208300D02*X285100Y208800D01*
X283600Y208300D02*X284600D01*
X283100Y208800D02*X283600Y208300D01*
Y210300D02*X285100D01*
X287500Y232000D02*X289000D01*
Y228500D01*
X288500Y228000D02*X289000Y228500D01*
X288000Y228000D02*X288500D01*
X287500Y228500D02*X288000Y228000D01*
X290200Y231500D02*X290700Y232000D01*
X291700D01*
X292200Y231500D01*
Y228500D01*
X291700Y228000D02*X292200Y228500D01*
X290700Y228000D02*X291700D01*
X290200Y228500D02*X290700Y228000D01*
Y230000D02*X292200D01*
M02*
