G04 start of page 2 for group 0 idx 0 *
G04 Title: (unknown), component *
G04 Creator: pcb 4.0.2 *
G04 CreationDate: Wed Apr 29 17:11:01 2020 UTC *
G04 For: ndholmes *
G04 Format: Gerber/RS-274X *
G04 PCB-Dimensions (mil): 4000.00 2900.00 *
G04 PCB-Coordinate-Origin: lower left *
%MOIN*%
%FSLAX25Y25*%
%LNTOP*%
%ADD39C,0.1100*%
%ADD38C,0.1250*%
%ADD37C,0.0935*%
%ADD36C,0.0380*%
%ADD35C,0.0540*%
%ADD34C,0.0440*%
%ADD33C,0.0390*%
%ADD32C,0.1285*%
%ADD31C,0.0480*%
%ADD30C,0.0120*%
%ADD29C,0.0260*%
%ADD28C,0.0310*%
%ADD27C,0.1500*%
%ADD26C,0.1750*%
%ADD25C,0.0787*%
%ADD24C,0.0690*%
%ADD23C,0.2937*%
%ADD22C,0.0200*%
%ADD21C,0.0150*%
%ADD20C,0.0450*%
%ADD19C,0.0100*%
%ADD18C,0.0500*%
%ADD17C,0.0600*%
%ADD16C,0.0400*%
%ADD15C,0.0700*%
%ADD14C,0.0800*%
%ADD13C,0.0900*%
%ADD12C,0.0250*%
%ADD11C,0.0001*%
G54D11*G36*
X288000Y185000D02*X296450D01*
Y174832D01*
X295271Y173653D01*
X295204Y173596D01*
X295122Y173500D01*
X288000D01*
Y185000D01*
G37*
G36*
X296450Y182500D02*X286595D01*
X286594Y184094D01*
X286572Y184186D01*
X286536Y184273D01*
X286487Y184354D01*
X286426Y184426D01*
X286354Y184487D01*
X286273Y184536D01*
X286186Y184572D01*
X286094Y184594D01*
X286000Y184600D01*
X283906Y184594D01*
X283814Y184572D01*
X283727Y184536D01*
X283646Y184487D01*
X283574Y184426D01*
X283513Y184354D01*
X283464Y184273D01*
X283428Y184186D01*
X283406Y184094D01*
X283400Y184000D01*
X283401Y182500D01*
X281595D01*
X281594Y184094D01*
X281572Y184186D01*
X281536Y184273D01*
X281487Y184354D01*
X281426Y184426D01*
X281354Y184487D01*
X281273Y184536D01*
X281186Y184572D01*
X281094Y184594D01*
X281000Y184600D01*
X278906Y184594D01*
X278814Y184572D01*
X278727Y184536D01*
X278646Y184487D01*
X278574Y184426D01*
X278513Y184354D01*
X278464Y184273D01*
X278428Y184186D01*
X278406Y184094D01*
X278400Y184000D01*
X278401Y182500D01*
X276595D01*
X276594Y184094D01*
X276572Y184186D01*
X276536Y184273D01*
X276487Y184354D01*
X276426Y184426D01*
X276354Y184487D01*
X276273Y184536D01*
X276186Y184572D01*
X276094Y184594D01*
X276000Y184600D01*
X273906Y184594D01*
X273814Y184572D01*
X273727Y184536D01*
X273646Y184487D01*
X273574Y184426D01*
X273513Y184354D01*
X273464Y184273D01*
X273428Y184186D01*
X273406Y184094D01*
X273400Y184000D01*
X273401Y182500D01*
X271000D01*
Y189500D01*
X295818D01*
X296450Y188868D01*
Y182500D01*
G37*
G36*
X218500Y200600D02*X243800D01*
Y175030D01*
X243648Y174900D01*
X234365D01*
X234226Y175127D01*
X233996Y175396D01*
X233727Y175626D01*
X233425Y175811D01*
X233097Y175946D01*
X232753Y176029D01*
X232400Y176057D01*
X232047Y176029D01*
X231703Y175946D01*
X231375Y175811D01*
X231073Y175626D01*
X230804Y175396D01*
X230574Y175127D01*
X230435Y174900D01*
X228065D01*
X227926Y175127D01*
X227696Y175396D01*
X227427Y175626D01*
X227125Y175811D01*
X226797Y175946D01*
X226453Y176029D01*
X226100Y176057D01*
X225747Y176029D01*
X225403Y175946D01*
X225075Y175811D01*
X224773Y175626D01*
X224504Y175396D01*
X224274Y175127D01*
X224135Y174900D01*
X222000D01*
Y186441D01*
X222005Y186500D01*
X221986Y186735D01*
X221931Y186965D01*
X221841Y187183D01*
X221717Y187384D01*
X221564Y187564D01*
X221519Y187602D01*
X218500Y190621D01*
Y200600D01*
G37*
G36*
X276500Y253000D02*X289000D01*
Y237500D01*
X276500D01*
Y253000D01*
G37*
G36*
X247000Y167000D02*X270500D01*
Y159000D01*
X247000D01*
Y167000D01*
G37*
G36*
X343500Y288000D02*X366500D01*
Y278000D01*
X343500D01*
Y288000D01*
G37*
G36*
X358000D02*X366500D01*
Y273443D01*
X366465Y273000D01*
X366500Y272557D01*
Y257000D01*
X358000D01*
Y288000D01*
G37*
G36*
X383000Y256465D02*Y230500D01*
X371500D01*
Y261144D01*
X373281Y259623D01*
X375493Y258267D01*
X377890Y257274D01*
X380413Y256669D01*
X383000Y256465D01*
G37*
G36*
X358000Y273000D02*X366465D01*
X366669Y270413D01*
X367274Y267890D01*
X368267Y265493D01*
X369623Y263281D01*
X371308Y261308D01*
X373281Y259623D01*
X375493Y258267D01*
X377890Y257274D01*
X380413Y256669D01*
X381500Y256583D01*
Y251500D01*
X358000D01*
Y273000D01*
G37*
G36*
X87500Y288000D02*X348500D01*
Y278500D01*
X120397D01*
X120262Y278556D01*
X120109Y278593D01*
X119952Y278602D01*
X113891Y278593D01*
X113738Y278556D01*
X113603Y278500D01*
X87500D01*
Y288000D01*
G37*
G36*
X98261Y287500D02*X106500D01*
Y253500D01*
X98261D01*
Y258183D01*
X98331Y258195D01*
X98480Y258246D01*
X98619Y258319D01*
X98745Y258413D01*
X98855Y258525D01*
X98946Y258654D01*
X99013Y258796D01*
X99204Y259328D01*
X99337Y259877D01*
X99417Y260436D01*
X99444Y261000D01*
X99417Y261564D01*
X99337Y262123D01*
X99204Y262672D01*
X99019Y263206D01*
X98950Y263348D01*
X98858Y263477D01*
X98748Y263591D01*
X98621Y263685D01*
X98481Y263759D01*
X98332Y263809D01*
X98261Y263821D01*
Y287500D01*
G37*
G36*
X93502D02*X98261D01*
Y263821D01*
X98176Y263836D01*
X98018Y263838D01*
X97861Y263815D01*
X97710Y263768D01*
X97569Y263698D01*
X97439Y263607D01*
X97326Y263496D01*
X97232Y263370D01*
X97158Y263230D01*
X97108Y263080D01*
X97081Y262924D01*
X97079Y262766D01*
X97102Y262610D01*
X97152Y262460D01*
X97278Y262108D01*
X97366Y261744D01*
X97419Y261374D01*
X97437Y261000D01*
X97419Y260626D01*
X97366Y260256D01*
X97278Y259892D01*
X97156Y259539D01*
X97106Y259389D01*
X97083Y259234D01*
X97085Y259076D01*
X97112Y258921D01*
X97162Y258772D01*
X97236Y258633D01*
X97330Y258507D01*
X97442Y258397D01*
X97571Y258306D01*
X97712Y258236D01*
X97862Y258189D01*
X98018Y258167D01*
X98175Y258168D01*
X98261Y258183D01*
Y253500D01*
X93502D01*
Y255056D01*
X94064Y255083D01*
X94623Y255163D01*
X95172Y255296D01*
X95706Y255481D01*
X95848Y255550D01*
X95977Y255642D01*
X96091Y255752D01*
X96185Y255879D01*
X96259Y256019D01*
X96309Y256168D01*
X96336Y256324D01*
X96338Y256482D01*
X96315Y256639D01*
X96268Y256790D01*
X96198Y256931D01*
X96107Y257061D01*
X95996Y257174D01*
X95870Y257268D01*
X95730Y257342D01*
X95580Y257392D01*
X95424Y257419D01*
X95266Y257421D01*
X95110Y257398D01*
X94960Y257348D01*
X94608Y257222D01*
X94244Y257134D01*
X93874Y257081D01*
X93502Y257063D01*
Y264937D01*
X93874Y264919D01*
X94244Y264866D01*
X94608Y264778D01*
X94961Y264656D01*
X95111Y264606D01*
X95266Y264583D01*
X95424Y264585D01*
X95579Y264612D01*
X95728Y264662D01*
X95867Y264736D01*
X95993Y264830D01*
X96103Y264942D01*
X96194Y265071D01*
X96264Y265212D01*
X96311Y265362D01*
X96333Y265518D01*
X96332Y265675D01*
X96305Y265831D01*
X96254Y265980D01*
X96181Y266119D01*
X96087Y266245D01*
X95975Y266355D01*
X95846Y266446D01*
X95704Y266513D01*
X95172Y266704D01*
X94623Y266837D01*
X94064Y266917D01*
X93502Y266944D01*
Y287500D01*
G37*
G36*
X87500D02*X93502D01*
Y266944D01*
X93500Y266944D01*
X92936Y266917D01*
X92377Y266837D01*
X91828Y266704D01*
X91294Y266519D01*
X91152Y266450D01*
X91023Y266358D01*
X90909Y266248D01*
X90815Y266121D01*
X90741Y265981D01*
X90691Y265832D01*
X90664Y265676D01*
X90662Y265518D01*
X90685Y265361D01*
X90732Y265210D01*
X90802Y265069D01*
X90893Y264939D01*
X91004Y264826D01*
X91130Y264732D01*
X91270Y264658D01*
X91420Y264608D01*
X91576Y264581D01*
X91734Y264579D01*
X91890Y264602D01*
X92040Y264652D01*
X92392Y264778D01*
X92756Y264866D01*
X93126Y264919D01*
X93500Y264937D01*
X93502Y264937D01*
Y257063D01*
X93500Y257063D01*
X93126Y257081D01*
X92756Y257134D01*
X92392Y257222D01*
X92039Y257344D01*
X91889Y257394D01*
X91734Y257417D01*
X91576Y257415D01*
X91421Y257388D01*
X91272Y257338D01*
X91133Y257264D01*
X91007Y257170D01*
X90897Y257058D01*
X90806Y256929D01*
X90736Y256788D01*
X90689Y256638D01*
X90667Y256482D01*
X90668Y256325D01*
X90695Y256169D01*
X90746Y256020D01*
X90819Y255881D01*
X90913Y255755D01*
X91025Y255645D01*
X91154Y255554D01*
X91296Y255487D01*
X91828Y255296D01*
X92377Y255163D01*
X92936Y255083D01*
X93500Y255056D01*
X93502Y255056D01*
Y253500D01*
X87500D01*
Y256609D01*
X87711Y256789D01*
X88318Y257500D01*
X88735Y258179D01*
X88824Y258164D01*
X88982Y258162D01*
X89139Y258185D01*
X89290Y258232D01*
X89431Y258302D01*
X89561Y258393D01*
X89674Y258504D01*
X89768Y258630D01*
X89842Y258770D01*
X89892Y258920D01*
X89919Y259076D01*
X89921Y259234D01*
X89898Y259390D01*
X89848Y259540D01*
X89722Y259892D01*
X89634Y260256D01*
X89581Y260626D01*
X89563Y261000D01*
X89581Y261374D01*
X89634Y261744D01*
X89722Y262108D01*
X89844Y262461D01*
X89894Y262611D01*
X89917Y262766D01*
X89915Y262924D01*
X89888Y263079D01*
X89838Y263228D01*
X89764Y263367D01*
X89670Y263493D01*
X89558Y263603D01*
X89429Y263694D01*
X89288Y263764D01*
X89138Y263811D01*
X88982Y263833D01*
X88825Y263832D01*
X88737Y263817D01*
X88318Y264500D01*
X87711Y265211D01*
X87500Y265391D01*
Y287500D01*
G37*
G36*
X168500Y286500D02*X182000D01*
Y204000D01*
X168500D01*
Y286500D01*
G37*
G36*
X95000Y249500D02*X186862D01*
X186953Y249444D01*
X187287Y249306D01*
X187639Y249221D01*
X188000Y249193D01*
X188361Y249221D01*
X188713Y249306D01*
X189047Y249444D01*
X189138Y249500D01*
X189958D01*
X189897Y249351D01*
X189819Y249030D01*
X189800Y248700D01*
X189819Y245970D01*
X189897Y245649D01*
X190023Y245344D01*
X190196Y245062D01*
X190410Y244810D01*
X190662Y244596D01*
X190944Y244423D01*
X191249Y244297D01*
X191570Y244219D01*
X191900Y244200D01*
X196230Y244219D01*
X196551Y244297D01*
X196856Y244423D01*
X197500Y243779D01*
Y211621D01*
X178481Y192602D01*
X178436Y192564D01*
X178283Y192384D01*
X178159Y192183D01*
X178069Y191965D01*
X178014Y191735D01*
X178014Y191735D01*
X177995Y191500D01*
X178000Y191441D01*
Y182000D01*
X95000D01*
Y194284D01*
X95816Y194348D01*
X96612Y194539D01*
X97368Y194852D01*
X98066Y195280D01*
X98677Y195823D01*
X103533Y200679D01*
X103688Y200812D01*
X104220Y201434D01*
X104220Y201434D01*
X104648Y202132D01*
X104961Y202888D01*
X105152Y203684D01*
X105216Y204500D01*
X105200Y204704D01*
Y225000D01*
X105152Y225816D01*
X104961Y226612D01*
X104648Y227368D01*
X104220Y228066D01*
X103688Y228688D01*
X103066Y229220D01*
X102511Y229560D01*
X95000Y237071D01*
Y249500D01*
G37*
G36*
X117000Y288000D02*X186500D01*
Y253244D01*
X186369Y253131D01*
X186134Y252856D01*
X185944Y252547D01*
X185806Y252213D01*
X185721Y251861D01*
X185693Y251500D01*
X185721Y251139D01*
X185806Y250787D01*
X185944Y250453D01*
X186134Y250144D01*
X186369Y249869D01*
X186500Y249756D01*
Y234000D01*
X117000D01*
Y253588D01*
X117612Y253636D01*
X118209Y253779D01*
X118776Y254014D01*
X119299Y254335D01*
X119766Y254734D01*
X120165Y255201D01*
X120486Y255724D01*
X120721Y256291D01*
X120864Y256888D01*
X120900Y257500D01*
Y265074D01*
X120906Y265088D01*
X120943Y265241D01*
X120952Y265398D01*
X120943Y270673D01*
X120906Y270826D01*
X120846Y270971D01*
X120764Y271106D01*
X120661Y271225D01*
X120542Y271328D01*
X120407Y271410D01*
X120262Y271470D01*
X120137Y271500D01*
X120262Y271530D01*
X120407Y271590D01*
X120542Y271672D01*
X120661Y271775D01*
X120764Y271894D01*
X120846Y272029D01*
X120906Y272174D01*
X120943Y272327D01*
X120952Y272484D01*
X120943Y277759D01*
X120906Y277912D01*
X120846Y278057D01*
X120764Y278192D01*
X120661Y278311D01*
X120542Y278414D01*
X120407Y278496D01*
X120262Y278556D01*
X120109Y278593D01*
X119952Y278602D01*
X117000Y278597D01*
Y288000D01*
G37*
G36*
X98261D02*X117000D01*
Y278597D01*
X113891Y278593D01*
X113738Y278556D01*
X113593Y278496D01*
X113458Y278414D01*
X113339Y278311D01*
X113236Y278192D01*
X113154Y278057D01*
X113094Y277912D01*
X113057Y277759D01*
X113048Y277602D01*
X113057Y272327D01*
X113094Y272174D01*
X113154Y272029D01*
X113236Y271894D01*
X113339Y271775D01*
X113458Y271672D01*
X113593Y271590D01*
X113738Y271530D01*
X113863Y271500D01*
X113738Y271470D01*
X113593Y271410D01*
X113458Y271328D01*
X113339Y271225D01*
X113236Y271106D01*
X113154Y270971D01*
X113094Y270826D01*
X113057Y270673D01*
X113048Y270516D01*
X113057Y265241D01*
X113094Y265088D01*
X113100Y265074D01*
Y257500D01*
X113136Y256888D01*
X113279Y256291D01*
X113514Y255724D01*
X113835Y255201D01*
X114234Y254734D01*
X114701Y254335D01*
X115224Y254014D01*
X115791Y253779D01*
X116388Y253636D01*
X117000Y253588D01*
Y234000D01*
X98261D01*
Y258183D01*
X98331Y258195D01*
X98480Y258246D01*
X98619Y258319D01*
X98745Y258413D01*
X98855Y258525D01*
X98946Y258654D01*
X99013Y258796D01*
X99204Y259328D01*
X99337Y259877D01*
X99417Y260436D01*
X99444Y261000D01*
X99417Y261564D01*
X99337Y262123D01*
X99204Y262672D01*
X99019Y263206D01*
X98950Y263348D01*
X98858Y263477D01*
X98748Y263591D01*
X98621Y263685D01*
X98481Y263759D01*
X98332Y263809D01*
X98261Y263821D01*
Y288000D01*
G37*
G36*
X93502D02*X98261D01*
Y263821D01*
X98176Y263836D01*
X98018Y263838D01*
X97861Y263815D01*
X97710Y263768D01*
X97569Y263698D01*
X97439Y263607D01*
X97326Y263496D01*
X97232Y263370D01*
X97158Y263230D01*
X97108Y263080D01*
X97081Y262924D01*
X97079Y262766D01*
X97102Y262610D01*
X97152Y262460D01*
X97278Y262108D01*
X97366Y261744D01*
X97419Y261374D01*
X97437Y261000D01*
X97419Y260626D01*
X97366Y260256D01*
X97278Y259892D01*
X97156Y259539D01*
X97106Y259389D01*
X97083Y259234D01*
X97085Y259076D01*
X97112Y258921D01*
X97162Y258772D01*
X97236Y258633D01*
X97330Y258507D01*
X97442Y258397D01*
X97571Y258306D01*
X97712Y258236D01*
X97862Y258189D01*
X98018Y258167D01*
X98175Y258168D01*
X98261Y258183D01*
Y234000D01*
X98071D01*
X93502Y238569D01*
Y255056D01*
X94064Y255083D01*
X94623Y255163D01*
X95172Y255296D01*
X95706Y255481D01*
X95848Y255550D01*
X95977Y255642D01*
X96091Y255752D01*
X96185Y255879D01*
X96259Y256019D01*
X96309Y256168D01*
X96336Y256324D01*
X96338Y256482D01*
X96315Y256639D01*
X96268Y256790D01*
X96198Y256931D01*
X96107Y257061D01*
X95996Y257174D01*
X95870Y257268D01*
X95730Y257342D01*
X95580Y257392D01*
X95424Y257419D01*
X95266Y257421D01*
X95110Y257398D01*
X94960Y257348D01*
X94608Y257222D01*
X94244Y257134D01*
X93874Y257081D01*
X93502Y257063D01*
Y264937D01*
X93874Y264919D01*
X94244Y264866D01*
X94608Y264778D01*
X94961Y264656D01*
X95111Y264606D01*
X95266Y264583D01*
X95424Y264585D01*
X95579Y264612D01*
X95728Y264662D01*
X95867Y264736D01*
X95993Y264830D01*
X96103Y264942D01*
X96194Y265071D01*
X96264Y265212D01*
X96311Y265362D01*
X96333Y265518D01*
X96332Y265675D01*
X96305Y265831D01*
X96254Y265980D01*
X96181Y266119D01*
X96087Y266245D01*
X95975Y266355D01*
X95846Y266446D01*
X95704Y266513D01*
X95172Y266704D01*
X94623Y266837D01*
X94064Y266917D01*
X93502Y266944D01*
Y288000D01*
G37*
G36*
X87500D02*X93502D01*
Y266944D01*
X93500Y266944D01*
X92936Y266917D01*
X92377Y266837D01*
X91828Y266704D01*
X91294Y266519D01*
X91152Y266450D01*
X91023Y266358D01*
X90909Y266248D01*
X90815Y266121D01*
X90741Y265981D01*
X90691Y265832D01*
X90664Y265676D01*
X90662Y265518D01*
X90685Y265361D01*
X90732Y265210D01*
X90802Y265069D01*
X90893Y264939D01*
X91004Y264826D01*
X91130Y264732D01*
X91270Y264658D01*
X91420Y264608D01*
X91576Y264581D01*
X91734Y264579D01*
X91890Y264602D01*
X92040Y264652D01*
X92392Y264778D01*
X92756Y264866D01*
X93126Y264919D01*
X93500Y264937D01*
X93502Y264937D01*
Y257063D01*
X93500Y257063D01*
X93126Y257081D01*
X92756Y257134D01*
X92392Y257222D01*
X92039Y257344D01*
X91889Y257394D01*
X91734Y257417D01*
X91576Y257415D01*
X91421Y257388D01*
X91272Y257338D01*
X91133Y257264D01*
X91007Y257170D01*
X90897Y257058D01*
X90806Y256929D01*
X90736Y256788D01*
X90689Y256638D01*
X90667Y256482D01*
X90668Y256325D01*
X90695Y256169D01*
X90746Y256020D01*
X90819Y255881D01*
X90913Y255755D01*
X91025Y255645D01*
X91154Y255554D01*
X91296Y255487D01*
X91828Y255296D01*
X92377Y255163D01*
X92936Y255083D01*
X93500Y255056D01*
X93502Y255056D01*
Y238569D01*
X87940Y244131D01*
X87936Y247377D01*
X87881Y247607D01*
X87791Y247825D01*
X87667Y248026D01*
X87514Y248206D01*
X87500Y248218D01*
Y256609D01*
X87711Y256789D01*
X88318Y257500D01*
X88735Y258179D01*
X88824Y258164D01*
X88982Y258162D01*
X89139Y258185D01*
X89290Y258232D01*
X89431Y258302D01*
X89561Y258393D01*
X89674Y258504D01*
X89768Y258630D01*
X89842Y258770D01*
X89892Y258920D01*
X89919Y259076D01*
X89921Y259234D01*
X89898Y259390D01*
X89848Y259540D01*
X89722Y259892D01*
X89634Y260256D01*
X89581Y260626D01*
X89563Y261000D01*
X89581Y261374D01*
X89634Y261744D01*
X89722Y262108D01*
X89844Y262461D01*
X89894Y262611D01*
X89917Y262766D01*
X89915Y262924D01*
X89888Y263079D01*
X89838Y263228D01*
X89764Y263367D01*
X89670Y263493D01*
X89558Y263603D01*
X89429Y263694D01*
X89288Y263764D01*
X89138Y263811D01*
X88982Y263833D01*
X88825Y263832D01*
X88737Y263817D01*
X88318Y264500D01*
X87711Y265211D01*
X87500Y265391D01*
Y288000D01*
G37*
G36*
X316472Y23000D02*X324000D01*
Y2000D01*
X316472D01*
Y7717D01*
X316531Y7762D01*
X316586Y7818D01*
X316630Y7884D01*
X316819Y8230D01*
X316972Y8594D01*
X317093Y8970D01*
X317180Y9356D01*
X317232Y9747D01*
X317250Y10142D01*
X317232Y10536D01*
X317180Y10928D01*
X317093Y11313D01*
X316972Y11689D01*
X316819Y12053D01*
X316634Y12402D01*
X316589Y12467D01*
X316534Y12524D01*
X316472Y12571D01*
Y23000D01*
G37*
G36*
X312797D02*X316472D01*
Y12571D01*
X316470Y12572D01*
X316400Y12609D01*
X316325Y12635D01*
X316247Y12649D01*
X316168Y12650D01*
X316090Y12639D01*
X316014Y12616D01*
X315943Y12581D01*
X315878Y12536D01*
X315821Y12481D01*
X315773Y12418D01*
X315736Y12348D01*
X315710Y12273D01*
X315696Y12195D01*
X315695Y12115D01*
X315706Y12037D01*
X315729Y11961D01*
X315765Y11891D01*
X315911Y11622D01*
X316030Y11340D01*
X316124Y11049D01*
X316191Y10751D01*
X316232Y10447D01*
X316245Y10142D01*
X316232Y9836D01*
X316191Y9533D01*
X316124Y9234D01*
X316030Y8943D01*
X315911Y8661D01*
X315768Y8391D01*
X315732Y8321D01*
X315709Y8246D01*
X315698Y8168D01*
X315700Y8089D01*
X315713Y8012D01*
X315739Y7937D01*
X315776Y7868D01*
X315823Y7805D01*
X315880Y7750D01*
X315944Y7705D01*
X316015Y7671D01*
X316090Y7648D01*
X316168Y7637D01*
X316247Y7638D01*
X316325Y7652D01*
X316399Y7677D01*
X316468Y7714D01*
X316472Y7717D01*
Y2000D01*
X312797D01*
Y5687D01*
X313190Y5705D01*
X313581Y5757D01*
X313967Y5844D01*
X314343Y5965D01*
X314707Y6118D01*
X315056Y6304D01*
X315121Y6348D01*
X315178Y6403D01*
X315226Y6467D01*
X315263Y6537D01*
X315289Y6612D01*
X315302Y6690D01*
X315304Y6769D01*
X315293Y6847D01*
X315270Y6923D01*
X315235Y6994D01*
X315189Y7059D01*
X315134Y7116D01*
X315071Y7164D01*
X315001Y7201D01*
X314926Y7227D01*
X314848Y7241D01*
X314769Y7242D01*
X314690Y7231D01*
X314615Y7208D01*
X314544Y7172D01*
X314276Y7026D01*
X313994Y6907D01*
X313703Y6813D01*
X313404Y6746D01*
X313101Y6705D01*
X312797Y6692D01*
Y13592D01*
X313101Y13578D01*
X313404Y13538D01*
X313703Y13470D01*
X313994Y13377D01*
X314276Y13258D01*
X314546Y13115D01*
X314616Y13079D01*
X314691Y13056D01*
X314769Y13045D01*
X314848Y13046D01*
X314925Y13060D01*
X315000Y13085D01*
X315069Y13122D01*
X315132Y13170D01*
X315187Y13226D01*
X315232Y13291D01*
X315266Y13362D01*
X315289Y13437D01*
X315300Y13515D01*
X315299Y13593D01*
X315285Y13671D01*
X315260Y13745D01*
X315223Y13815D01*
X315175Y13878D01*
X315119Y13932D01*
X315053Y13976D01*
X314707Y14165D01*
X314343Y14319D01*
X313967Y14439D01*
X313581Y14526D01*
X313190Y14579D01*
X312797Y14596D01*
Y23000D01*
G37*
G36*
X309118D02*X312797D01*
Y14596D01*
X312795Y14596D01*
X312401Y14579D01*
X312009Y14526D01*
X311624Y14439D01*
X311248Y14319D01*
X310884Y14165D01*
X310535Y13980D01*
X310470Y13935D01*
X310413Y13880D01*
X310365Y13817D01*
X310328Y13747D01*
X310302Y13672D01*
X310288Y13594D01*
X310287Y13515D01*
X310298Y13436D01*
X310321Y13360D01*
X310356Y13289D01*
X310401Y13224D01*
X310456Y13167D01*
X310519Y13120D01*
X310589Y13082D01*
X310664Y13057D01*
X310742Y13043D01*
X310822Y13041D01*
X310900Y13052D01*
X310976Y13076D01*
X311046Y13112D01*
X311315Y13258D01*
X311597Y13377D01*
X311888Y13470D01*
X312186Y13538D01*
X312490Y13578D01*
X312795Y13592D01*
X312797Y13592D01*
Y6692D01*
X312795Y6692D01*
X312490Y6705D01*
X312186Y6746D01*
X311888Y6813D01*
X311597Y6907D01*
X311315Y7026D01*
X311045Y7169D01*
X310975Y7205D01*
X310899Y7228D01*
X310821Y7239D01*
X310743Y7237D01*
X310665Y7224D01*
X310591Y7198D01*
X310521Y7161D01*
X310458Y7114D01*
X310404Y7057D01*
X310359Y6993D01*
X310324Y6922D01*
X310301Y6847D01*
X310290Y6769D01*
X310292Y6690D01*
X310305Y6612D01*
X310331Y6538D01*
X310368Y6469D01*
X310415Y6406D01*
X310472Y6351D01*
X310537Y6307D01*
X310884Y6118D01*
X311248Y5965D01*
X311624Y5844D01*
X312009Y5757D01*
X312401Y5705D01*
X312795Y5687D01*
X312797Y5687D01*
Y2000D01*
X309118D01*
Y7713D01*
X309120Y7711D01*
X309190Y7674D01*
X309265Y7648D01*
X309343Y7635D01*
X309422Y7633D01*
X309501Y7644D01*
X309577Y7667D01*
X309648Y7702D01*
X309713Y7748D01*
X309770Y7803D01*
X309817Y7866D01*
X309855Y7936D01*
X309881Y8011D01*
X309894Y8089D01*
X309896Y8168D01*
X309885Y8247D01*
X309861Y8322D01*
X309825Y8393D01*
X309679Y8661D01*
X309560Y8943D01*
X309467Y9234D01*
X309399Y9533D01*
X309359Y9836D01*
X309345Y10142D01*
X309359Y10447D01*
X309399Y10751D01*
X309467Y11049D01*
X309560Y11340D01*
X309679Y11622D01*
X309822Y11892D01*
X309858Y11962D01*
X309881Y12038D01*
X309892Y12116D01*
X309891Y12194D01*
X309877Y12272D01*
X309852Y12346D01*
X309815Y12416D01*
X309767Y12479D01*
X309711Y12533D01*
X309646Y12578D01*
X309575Y12613D01*
X309500Y12636D01*
X309422Y12647D01*
X309344Y12645D01*
X309266Y12632D01*
X309192Y12606D01*
X309122Y12569D01*
X309118Y12566D01*
Y23000D01*
G37*
G36*
X290882D02*X309118D01*
Y12566D01*
X309059Y12522D01*
X309005Y12465D01*
X308961Y12400D01*
X308772Y12053D01*
X308618Y11689D01*
X308498Y11313D01*
X308411Y10928D01*
X308358Y10536D01*
X308341Y10142D01*
X308358Y9747D01*
X308411Y9356D01*
X308498Y8970D01*
X308618Y8594D01*
X308772Y8230D01*
X308957Y7881D01*
X309002Y7816D01*
X309057Y7759D01*
X309118Y7713D01*
Y2000D01*
X290882D01*
Y7717D01*
X290941Y7762D01*
X290995Y7818D01*
X291039Y7884D01*
X291228Y8230D01*
X291382Y8594D01*
X291502Y8970D01*
X291589Y9356D01*
X291642Y9747D01*
X291659Y10142D01*
X291642Y10536D01*
X291589Y10928D01*
X291502Y11313D01*
X291382Y11689D01*
X291228Y12053D01*
X291043Y12402D01*
X290998Y12467D01*
X290943Y12524D01*
X290882Y12571D01*
Y23000D01*
G37*
G36*
X287206D02*X290882D01*
Y12571D01*
X290880Y12572D01*
X290810Y12609D01*
X290735Y12635D01*
X290657Y12649D01*
X290578Y12650D01*
X290499Y12639D01*
X290423Y12616D01*
X290352Y12581D01*
X290287Y12536D01*
X290230Y12481D01*
X290182Y12418D01*
X290145Y12348D01*
X290119Y12273D01*
X290106Y12195D01*
X290104Y12115D01*
X290115Y12037D01*
X290139Y11961D01*
X290175Y11891D01*
X290321Y11622D01*
X290440Y11340D01*
X290533Y11049D01*
X290601Y10751D01*
X290641Y10447D01*
X290655Y10142D01*
X290641Y9836D01*
X290601Y9533D01*
X290533Y9234D01*
X290440Y8943D01*
X290321Y8661D01*
X290178Y8391D01*
X290142Y8321D01*
X290119Y8246D01*
X290108Y8168D01*
X290109Y8089D01*
X290123Y8012D01*
X290148Y7937D01*
X290185Y7868D01*
X290233Y7805D01*
X290289Y7750D01*
X290354Y7705D01*
X290425Y7671D01*
X290500Y7648D01*
X290578Y7637D01*
X290656Y7638D01*
X290734Y7652D01*
X290808Y7677D01*
X290878Y7714D01*
X290882Y7717D01*
Y2000D01*
X287206D01*
Y5687D01*
X287599Y5705D01*
X287991Y5757D01*
X288376Y5844D01*
X288752Y5965D01*
X289116Y6118D01*
X289465Y6304D01*
X289530Y6348D01*
X289587Y6403D01*
X289635Y6467D01*
X289672Y6537D01*
X289698Y6612D01*
X289712Y6690D01*
X289713Y6769D01*
X289702Y6847D01*
X289679Y6923D01*
X289644Y6994D01*
X289599Y7059D01*
X289544Y7116D01*
X289481Y7164D01*
X289411Y7201D01*
X289336Y7227D01*
X289258Y7241D01*
X289178Y7242D01*
X289100Y7231D01*
X289024Y7208D01*
X288954Y7172D01*
X288685Y7026D01*
X288403Y6907D01*
X288112Y6813D01*
X287814Y6746D01*
X287510Y6705D01*
X287206Y6692D01*
Y13592D01*
X287510Y13578D01*
X287814Y13538D01*
X288112Y13470D01*
X288403Y13377D01*
X288685Y13258D01*
X288955Y13115D01*
X289025Y13079D01*
X289101Y13056D01*
X289179Y13045D01*
X289257Y13046D01*
X289335Y13060D01*
X289409Y13085D01*
X289479Y13122D01*
X289542Y13170D01*
X289596Y13226D01*
X289641Y13291D01*
X289676Y13362D01*
X289699Y13437D01*
X289710Y13515D01*
X289708Y13593D01*
X289695Y13671D01*
X289669Y13745D01*
X289632Y13815D01*
X289585Y13878D01*
X289528Y13932D01*
X289463Y13976D01*
X289116Y14165D01*
X288752Y14319D01*
X288376Y14439D01*
X287991Y14526D01*
X287599Y14579D01*
X287206Y14596D01*
Y23000D01*
G37*
G36*
X283528D02*X287206D01*
Y14596D01*
X287205Y14596D01*
X286810Y14579D01*
X286419Y14526D01*
X286033Y14439D01*
X285657Y14319D01*
X285293Y14165D01*
X284944Y13980D01*
X284879Y13935D01*
X284822Y13880D01*
X284774Y13817D01*
X284737Y13747D01*
X284711Y13672D01*
X284698Y13594D01*
X284696Y13515D01*
X284707Y13436D01*
X284730Y13360D01*
X284765Y13289D01*
X284811Y13224D01*
X284866Y13167D01*
X284929Y13120D01*
X284999Y13082D01*
X285074Y13057D01*
X285152Y13043D01*
X285231Y13041D01*
X285310Y13052D01*
X285385Y13076D01*
X285456Y13112D01*
X285724Y13258D01*
X286006Y13377D01*
X286297Y13470D01*
X286596Y13538D01*
X286899Y13578D01*
X287205Y13592D01*
X287206Y13592D01*
Y6692D01*
X287205Y6692D01*
X286899Y6705D01*
X286596Y6746D01*
X286297Y6813D01*
X286006Y6907D01*
X285724Y7026D01*
X285454Y7169D01*
X285384Y7205D01*
X285309Y7228D01*
X285231Y7239D01*
X285152Y7237D01*
X285075Y7224D01*
X285000Y7198D01*
X284931Y7161D01*
X284868Y7114D01*
X284813Y7057D01*
X284768Y6993D01*
X284734Y6922D01*
X284711Y6847D01*
X284700Y6769D01*
X284701Y6690D01*
X284715Y6612D01*
X284740Y6538D01*
X284777Y6469D01*
X284825Y6406D01*
X284881Y6351D01*
X284947Y6307D01*
X285293Y6118D01*
X285657Y5965D01*
X286033Y5844D01*
X286419Y5757D01*
X286810Y5705D01*
X287205Y5687D01*
X287206Y5687D01*
Y2000D01*
X283528D01*
Y7713D01*
X283530Y7711D01*
X283600Y7674D01*
X283675Y7648D01*
X283753Y7635D01*
X283832Y7633D01*
X283910Y7644D01*
X283986Y7667D01*
X284057Y7702D01*
X284122Y7748D01*
X284179Y7803D01*
X284227Y7866D01*
X284264Y7936D01*
X284290Y8011D01*
X284304Y8089D01*
X284305Y8168D01*
X284294Y8247D01*
X284271Y8322D01*
X284235Y8393D01*
X284089Y8661D01*
X283970Y8943D01*
X283876Y9234D01*
X283809Y9533D01*
X283768Y9836D01*
X283755Y10142D01*
X283768Y10447D01*
X283809Y10751D01*
X283876Y11049D01*
X283970Y11340D01*
X284089Y11622D01*
X284232Y11892D01*
X284268Y11962D01*
X284291Y12038D01*
X284302Y12116D01*
X284300Y12194D01*
X284287Y12272D01*
X284261Y12346D01*
X284224Y12416D01*
X284177Y12479D01*
X284120Y12533D01*
X284056Y12578D01*
X283985Y12613D01*
X283910Y12636D01*
X283832Y12647D01*
X283753Y12645D01*
X283675Y12632D01*
X283601Y12606D01*
X283532Y12569D01*
X283528Y12566D01*
Y23000D01*
G37*
G36*
X249772D02*X283528D01*
Y12566D01*
X283469Y12522D01*
X283414Y12465D01*
X283370Y12400D01*
X283181Y12053D01*
X283028Y11689D01*
X282907Y11313D01*
X282820Y10928D01*
X282768Y10536D01*
X282750Y10142D01*
X282768Y9747D01*
X282820Y9356D01*
X282907Y8970D01*
X283028Y8594D01*
X283181Y8230D01*
X283366Y7881D01*
X283411Y7816D01*
X283466Y7759D01*
X283528Y7713D01*
Y2000D01*
X249772D01*
Y7717D01*
X249831Y7762D01*
X249886Y7818D01*
X249930Y7884D01*
X250119Y8230D01*
X250272Y8594D01*
X250393Y8970D01*
X250480Y9356D01*
X250532Y9747D01*
X250550Y10142D01*
X250532Y10536D01*
X250480Y10928D01*
X250393Y11313D01*
X250272Y11689D01*
X250119Y12053D01*
X249934Y12402D01*
X249889Y12467D01*
X249834Y12524D01*
X249772Y12571D01*
Y23000D01*
G37*
G36*
X246097D02*X249772D01*
Y12571D01*
X249770Y12572D01*
X249700Y12609D01*
X249625Y12635D01*
X249547Y12649D01*
X249468Y12650D01*
X249390Y12639D01*
X249314Y12616D01*
X249243Y12581D01*
X249178Y12536D01*
X249121Y12481D01*
X249073Y12418D01*
X249036Y12348D01*
X249010Y12273D01*
X248996Y12195D01*
X248995Y12115D01*
X249006Y12037D01*
X249029Y11961D01*
X249065Y11891D01*
X249211Y11622D01*
X249330Y11340D01*
X249424Y11049D01*
X249491Y10751D01*
X249532Y10447D01*
X249545Y10142D01*
X249532Y9836D01*
X249491Y9533D01*
X249424Y9234D01*
X249330Y8943D01*
X249211Y8661D01*
X249068Y8391D01*
X249032Y8321D01*
X249009Y8246D01*
X248998Y8168D01*
X249000Y8089D01*
X249013Y8012D01*
X249039Y7937D01*
X249076Y7868D01*
X249123Y7805D01*
X249180Y7750D01*
X249244Y7705D01*
X249315Y7671D01*
X249390Y7648D01*
X249468Y7637D01*
X249547Y7638D01*
X249625Y7652D01*
X249699Y7677D01*
X249768Y7714D01*
X249772Y7717D01*
Y2000D01*
X246097D01*
Y5687D01*
X246490Y5705D01*
X246881Y5757D01*
X247267Y5844D01*
X247643Y5965D01*
X248007Y6118D01*
X248356Y6304D01*
X248421Y6348D01*
X248478Y6403D01*
X248526Y6467D01*
X248563Y6537D01*
X248589Y6612D01*
X248602Y6690D01*
X248604Y6769D01*
X248593Y6847D01*
X248570Y6923D01*
X248535Y6994D01*
X248489Y7059D01*
X248434Y7116D01*
X248371Y7164D01*
X248301Y7201D01*
X248226Y7227D01*
X248148Y7241D01*
X248069Y7242D01*
X247990Y7231D01*
X247915Y7208D01*
X247844Y7172D01*
X247576Y7026D01*
X247294Y6907D01*
X247003Y6813D01*
X246704Y6746D01*
X246401Y6705D01*
X246097Y6692D01*
Y13592D01*
X246401Y13578D01*
X246704Y13538D01*
X247003Y13470D01*
X247294Y13377D01*
X247576Y13258D01*
X247846Y13115D01*
X247916Y13079D01*
X247991Y13056D01*
X248069Y13045D01*
X248148Y13046D01*
X248225Y13060D01*
X248300Y13085D01*
X248369Y13122D01*
X248432Y13170D01*
X248487Y13226D01*
X248532Y13291D01*
X248566Y13362D01*
X248589Y13437D01*
X248600Y13515D01*
X248599Y13593D01*
X248585Y13671D01*
X248560Y13745D01*
X248523Y13815D01*
X248475Y13878D01*
X248419Y13932D01*
X248353Y13976D01*
X248007Y14165D01*
X247643Y14319D01*
X247267Y14439D01*
X246881Y14526D01*
X246490Y14579D01*
X246097Y14596D01*
Y23000D01*
G37*
G36*
X242418D02*X246097D01*
Y14596D01*
X246095Y14596D01*
X245701Y14579D01*
X245309Y14526D01*
X244924Y14439D01*
X244548Y14319D01*
X244184Y14165D01*
X243835Y13980D01*
X243770Y13935D01*
X243713Y13880D01*
X243665Y13817D01*
X243628Y13747D01*
X243602Y13672D01*
X243588Y13594D01*
X243587Y13515D01*
X243598Y13436D01*
X243621Y13360D01*
X243656Y13289D01*
X243701Y13224D01*
X243756Y13167D01*
X243819Y13120D01*
X243889Y13082D01*
X243964Y13057D01*
X244042Y13043D01*
X244122Y13041D01*
X244200Y13052D01*
X244276Y13076D01*
X244346Y13112D01*
X244615Y13258D01*
X244897Y13377D01*
X245188Y13470D01*
X245486Y13538D01*
X245790Y13578D01*
X246095Y13592D01*
X246097Y13592D01*
Y6692D01*
X246095Y6692D01*
X245790Y6705D01*
X245486Y6746D01*
X245188Y6813D01*
X244897Y6907D01*
X244615Y7026D01*
X244345Y7169D01*
X244275Y7205D01*
X244199Y7228D01*
X244121Y7239D01*
X244043Y7237D01*
X243965Y7224D01*
X243891Y7198D01*
X243821Y7161D01*
X243758Y7114D01*
X243704Y7057D01*
X243659Y6993D01*
X243624Y6922D01*
X243601Y6847D01*
X243590Y6769D01*
X243592Y6690D01*
X243605Y6612D01*
X243631Y6538D01*
X243668Y6469D01*
X243715Y6406D01*
X243772Y6351D01*
X243837Y6307D01*
X244184Y6118D01*
X244548Y5965D01*
X244924Y5844D01*
X245309Y5757D01*
X245701Y5705D01*
X246095Y5687D01*
X246097Y5687D01*
Y2000D01*
X242418D01*
Y7713D01*
X242420Y7711D01*
X242490Y7674D01*
X242565Y7648D01*
X242643Y7635D01*
X242722Y7633D01*
X242801Y7644D01*
X242877Y7667D01*
X242948Y7702D01*
X243013Y7748D01*
X243070Y7803D01*
X243117Y7866D01*
X243155Y7936D01*
X243181Y8011D01*
X243194Y8089D01*
X243196Y8168D01*
X243185Y8247D01*
X243161Y8322D01*
X243125Y8393D01*
X242979Y8661D01*
X242860Y8943D01*
X242767Y9234D01*
X242699Y9533D01*
X242659Y9836D01*
X242645Y10142D01*
X242659Y10447D01*
X242699Y10751D01*
X242767Y11049D01*
X242860Y11340D01*
X242979Y11622D01*
X243122Y11892D01*
X243158Y11962D01*
X243181Y12038D01*
X243192Y12116D01*
X243191Y12194D01*
X243177Y12272D01*
X243152Y12346D01*
X243115Y12416D01*
X243067Y12479D01*
X243011Y12533D01*
X242946Y12578D01*
X242875Y12613D01*
X242800Y12636D01*
X242722Y12647D01*
X242644Y12645D01*
X242566Y12632D01*
X242492Y12606D01*
X242422Y12569D01*
X242418Y12566D01*
Y23000D01*
G37*
G36*
X224182D02*X242418D01*
Y12566D01*
X242359Y12522D01*
X242305Y12465D01*
X242261Y12400D01*
X242072Y12053D01*
X241918Y11689D01*
X241798Y11313D01*
X241711Y10928D01*
X241658Y10536D01*
X241641Y10142D01*
X241658Y9747D01*
X241711Y9356D01*
X241798Y8970D01*
X241918Y8594D01*
X242072Y8230D01*
X242257Y7881D01*
X242302Y7816D01*
X242357Y7759D01*
X242418Y7713D01*
Y2000D01*
X224182D01*
Y7717D01*
X224241Y7762D01*
X224295Y7818D01*
X224339Y7884D01*
X224528Y8230D01*
X224682Y8594D01*
X224802Y8970D01*
X224889Y9356D01*
X224942Y9747D01*
X224959Y10142D01*
X224942Y10536D01*
X224889Y10928D01*
X224802Y11313D01*
X224682Y11689D01*
X224528Y12053D01*
X224343Y12402D01*
X224298Y12467D01*
X224243Y12524D01*
X224182Y12571D01*
Y23000D01*
G37*
G36*
X220506D02*X224182D01*
Y12571D01*
X224180Y12572D01*
X224110Y12609D01*
X224035Y12635D01*
X223957Y12649D01*
X223878Y12650D01*
X223799Y12639D01*
X223723Y12616D01*
X223652Y12581D01*
X223587Y12536D01*
X223530Y12481D01*
X223482Y12418D01*
X223445Y12348D01*
X223419Y12273D01*
X223406Y12195D01*
X223404Y12115D01*
X223415Y12037D01*
X223439Y11961D01*
X223475Y11891D01*
X223621Y11622D01*
X223740Y11340D01*
X223833Y11049D01*
X223901Y10751D01*
X223941Y10447D01*
X223955Y10142D01*
X223941Y9836D01*
X223901Y9533D01*
X223833Y9234D01*
X223740Y8943D01*
X223621Y8661D01*
X223478Y8391D01*
X223442Y8321D01*
X223419Y8246D01*
X223408Y8168D01*
X223409Y8089D01*
X223423Y8012D01*
X223448Y7937D01*
X223485Y7868D01*
X223533Y7805D01*
X223589Y7750D01*
X223654Y7705D01*
X223725Y7671D01*
X223800Y7648D01*
X223878Y7637D01*
X223956Y7638D01*
X224034Y7652D01*
X224108Y7677D01*
X224178Y7714D01*
X224182Y7717D01*
Y2000D01*
X220506D01*
Y5687D01*
X220899Y5705D01*
X221291Y5757D01*
X221676Y5844D01*
X222052Y5965D01*
X222416Y6118D01*
X222765Y6304D01*
X222830Y6348D01*
X222887Y6403D01*
X222935Y6467D01*
X222972Y6537D01*
X222998Y6612D01*
X223012Y6690D01*
X223013Y6769D01*
X223002Y6847D01*
X222979Y6923D01*
X222944Y6994D01*
X222899Y7059D01*
X222844Y7116D01*
X222781Y7164D01*
X222711Y7201D01*
X222636Y7227D01*
X222558Y7241D01*
X222478Y7242D01*
X222400Y7231D01*
X222324Y7208D01*
X222254Y7172D01*
X221985Y7026D01*
X221703Y6907D01*
X221412Y6813D01*
X221114Y6746D01*
X220810Y6705D01*
X220506Y6692D01*
Y13592D01*
X220810Y13578D01*
X221114Y13538D01*
X221412Y13470D01*
X221703Y13377D01*
X221985Y13258D01*
X222255Y13115D01*
X222325Y13079D01*
X222401Y13056D01*
X222479Y13045D01*
X222557Y13046D01*
X222635Y13060D01*
X222709Y13085D01*
X222779Y13122D01*
X222842Y13170D01*
X222896Y13226D01*
X222941Y13291D01*
X222976Y13362D01*
X222999Y13437D01*
X223010Y13515D01*
X223008Y13593D01*
X222995Y13671D01*
X222969Y13745D01*
X222932Y13815D01*
X222885Y13878D01*
X222828Y13932D01*
X222763Y13976D01*
X222416Y14165D01*
X222052Y14319D01*
X221676Y14439D01*
X221291Y14526D01*
X220899Y14579D01*
X220506Y14596D01*
Y23000D01*
G37*
G36*
X216828D02*X220506D01*
Y14596D01*
X220505Y14596D01*
X220110Y14579D01*
X219719Y14526D01*
X219333Y14439D01*
X218957Y14319D01*
X218593Y14165D01*
X218244Y13980D01*
X218179Y13935D01*
X218122Y13880D01*
X218074Y13817D01*
X218037Y13747D01*
X218011Y13672D01*
X217998Y13594D01*
X217996Y13515D01*
X218007Y13436D01*
X218030Y13360D01*
X218065Y13289D01*
X218111Y13224D01*
X218166Y13167D01*
X218229Y13120D01*
X218299Y13082D01*
X218374Y13057D01*
X218452Y13043D01*
X218531Y13041D01*
X218609Y13052D01*
X218685Y13076D01*
X218756Y13112D01*
X219024Y13258D01*
X219306Y13377D01*
X219597Y13470D01*
X219896Y13538D01*
X220199Y13578D01*
X220505Y13592D01*
X220506Y13592D01*
Y6692D01*
X220505Y6692D01*
X220199Y6705D01*
X219896Y6746D01*
X219597Y6813D01*
X219306Y6907D01*
X219024Y7026D01*
X218754Y7169D01*
X218684Y7205D01*
X218609Y7228D01*
X218531Y7239D01*
X218452Y7237D01*
X218375Y7224D01*
X218300Y7198D01*
X218231Y7161D01*
X218168Y7114D01*
X218113Y7057D01*
X218068Y6993D01*
X218034Y6922D01*
X218011Y6847D01*
X218000Y6769D01*
X218001Y6690D01*
X218015Y6612D01*
X218040Y6538D01*
X218077Y6469D01*
X218125Y6406D01*
X218181Y6351D01*
X218247Y6307D01*
X218593Y6118D01*
X218957Y5965D01*
X219333Y5844D01*
X219719Y5757D01*
X220110Y5705D01*
X220505Y5687D01*
X220506Y5687D01*
Y2000D01*
X216828D01*
Y7713D01*
X216830Y7711D01*
X216900Y7674D01*
X216975Y7648D01*
X217053Y7635D01*
X217132Y7633D01*
X217210Y7644D01*
X217286Y7667D01*
X217357Y7702D01*
X217422Y7748D01*
X217479Y7803D01*
X217527Y7866D01*
X217564Y7936D01*
X217590Y8011D01*
X217604Y8089D01*
X217605Y8168D01*
X217594Y8247D01*
X217571Y8322D01*
X217535Y8393D01*
X217389Y8661D01*
X217270Y8943D01*
X217176Y9234D01*
X217109Y9533D01*
X217068Y9836D01*
X217055Y10142D01*
X217068Y10447D01*
X217109Y10751D01*
X217176Y11049D01*
X217270Y11340D01*
X217389Y11622D01*
X217532Y11892D01*
X217568Y11962D01*
X217591Y12038D01*
X217602Y12116D01*
X217600Y12194D01*
X217587Y12272D01*
X217561Y12346D01*
X217524Y12416D01*
X217477Y12479D01*
X217420Y12533D01*
X217356Y12578D01*
X217285Y12613D01*
X217210Y12636D01*
X217132Y12647D01*
X217053Y12645D01*
X216975Y12632D01*
X216901Y12606D01*
X216832Y12569D01*
X216828Y12566D01*
Y23000D01*
G37*
G36*
X183172D02*X216828D01*
Y12566D01*
X216769Y12522D01*
X216714Y12465D01*
X216670Y12400D01*
X216481Y12053D01*
X216328Y11689D01*
X216207Y11313D01*
X216120Y10928D01*
X216068Y10536D01*
X216050Y10142D01*
X216068Y9747D01*
X216120Y9356D01*
X216207Y8970D01*
X216328Y8594D01*
X216481Y8230D01*
X216666Y7881D01*
X216711Y7816D01*
X216766Y7759D01*
X216828Y7713D01*
Y2000D01*
X183172D01*
Y7717D01*
X183231Y7762D01*
X183286Y7818D01*
X183330Y7884D01*
X183519Y8230D01*
X183672Y8594D01*
X183793Y8970D01*
X183880Y9356D01*
X183932Y9747D01*
X183950Y10142D01*
X183932Y10536D01*
X183880Y10928D01*
X183793Y11313D01*
X183672Y11689D01*
X183519Y12053D01*
X183334Y12402D01*
X183289Y12467D01*
X183234Y12524D01*
X183172Y12571D01*
Y23000D01*
G37*
G36*
X179497D02*X183172D01*
Y12571D01*
X183170Y12572D01*
X183100Y12609D01*
X183025Y12635D01*
X182947Y12649D01*
X182868Y12650D01*
X182790Y12639D01*
X182714Y12616D01*
X182643Y12581D01*
X182578Y12536D01*
X182521Y12481D01*
X182473Y12418D01*
X182436Y12348D01*
X182410Y12273D01*
X182396Y12195D01*
X182395Y12115D01*
X182406Y12037D01*
X182429Y11961D01*
X182465Y11891D01*
X182611Y11622D01*
X182730Y11340D01*
X182824Y11049D01*
X182891Y10751D01*
X182932Y10447D01*
X182945Y10142D01*
X182932Y9836D01*
X182891Y9533D01*
X182824Y9234D01*
X182730Y8943D01*
X182611Y8661D01*
X182468Y8391D01*
X182432Y8321D01*
X182409Y8246D01*
X182398Y8168D01*
X182400Y8089D01*
X182413Y8012D01*
X182439Y7937D01*
X182476Y7868D01*
X182523Y7805D01*
X182580Y7750D01*
X182644Y7705D01*
X182715Y7671D01*
X182790Y7648D01*
X182868Y7637D01*
X182947Y7638D01*
X183025Y7652D01*
X183099Y7677D01*
X183168Y7714D01*
X183172Y7717D01*
Y2000D01*
X179497D01*
Y5687D01*
X179890Y5705D01*
X180281Y5757D01*
X180667Y5844D01*
X181043Y5965D01*
X181407Y6118D01*
X181756Y6304D01*
X181821Y6348D01*
X181878Y6403D01*
X181926Y6467D01*
X181963Y6537D01*
X181989Y6612D01*
X182002Y6690D01*
X182004Y6769D01*
X181993Y6847D01*
X181970Y6923D01*
X181935Y6994D01*
X181889Y7059D01*
X181834Y7116D01*
X181771Y7164D01*
X181701Y7201D01*
X181626Y7227D01*
X181548Y7241D01*
X181469Y7242D01*
X181390Y7231D01*
X181315Y7208D01*
X181244Y7172D01*
X180976Y7026D01*
X180694Y6907D01*
X180403Y6813D01*
X180104Y6746D01*
X179801Y6705D01*
X179497Y6692D01*
Y13592D01*
X179801Y13578D01*
X180104Y13538D01*
X180403Y13470D01*
X180694Y13377D01*
X180976Y13258D01*
X181246Y13115D01*
X181316Y13079D01*
X181391Y13056D01*
X181469Y13045D01*
X181548Y13046D01*
X181625Y13060D01*
X181700Y13085D01*
X181769Y13122D01*
X181832Y13170D01*
X181887Y13226D01*
X181932Y13291D01*
X181966Y13362D01*
X181989Y13437D01*
X182000Y13515D01*
X181999Y13593D01*
X181985Y13671D01*
X181960Y13745D01*
X181923Y13815D01*
X181875Y13878D01*
X181819Y13932D01*
X181753Y13976D01*
X181407Y14165D01*
X181043Y14319D01*
X180667Y14439D01*
X180281Y14526D01*
X179890Y14579D01*
X179497Y14596D01*
Y23000D01*
G37*
G36*
X175818D02*X179497D01*
Y14596D01*
X179495Y14596D01*
X179101Y14579D01*
X178709Y14526D01*
X178324Y14439D01*
X177948Y14319D01*
X177584Y14165D01*
X177235Y13980D01*
X177170Y13935D01*
X177113Y13880D01*
X177065Y13817D01*
X177028Y13747D01*
X177002Y13672D01*
X176988Y13594D01*
X176987Y13515D01*
X176998Y13436D01*
X177021Y13360D01*
X177056Y13289D01*
X177101Y13224D01*
X177156Y13167D01*
X177219Y13120D01*
X177289Y13082D01*
X177364Y13057D01*
X177442Y13043D01*
X177522Y13041D01*
X177600Y13052D01*
X177676Y13076D01*
X177746Y13112D01*
X178015Y13258D01*
X178297Y13377D01*
X178588Y13470D01*
X178886Y13538D01*
X179190Y13578D01*
X179495Y13592D01*
X179497Y13592D01*
Y6692D01*
X179495Y6692D01*
X179190Y6705D01*
X178886Y6746D01*
X178588Y6813D01*
X178297Y6907D01*
X178015Y7026D01*
X177745Y7169D01*
X177675Y7205D01*
X177599Y7228D01*
X177521Y7239D01*
X177443Y7237D01*
X177365Y7224D01*
X177291Y7198D01*
X177221Y7161D01*
X177158Y7114D01*
X177104Y7057D01*
X177059Y6993D01*
X177024Y6922D01*
X177001Y6847D01*
X176990Y6769D01*
X176992Y6690D01*
X177005Y6612D01*
X177031Y6538D01*
X177068Y6469D01*
X177115Y6406D01*
X177172Y6351D01*
X177237Y6307D01*
X177584Y6118D01*
X177948Y5965D01*
X178324Y5844D01*
X178709Y5757D01*
X179101Y5705D01*
X179495Y5687D01*
X179497Y5687D01*
Y2000D01*
X175818D01*
Y7713D01*
X175820Y7711D01*
X175890Y7674D01*
X175965Y7648D01*
X176043Y7635D01*
X176122Y7633D01*
X176201Y7644D01*
X176277Y7667D01*
X176348Y7702D01*
X176413Y7748D01*
X176470Y7803D01*
X176517Y7866D01*
X176555Y7936D01*
X176581Y8011D01*
X176594Y8089D01*
X176596Y8168D01*
X176585Y8247D01*
X176561Y8322D01*
X176525Y8393D01*
X176379Y8661D01*
X176260Y8943D01*
X176167Y9234D01*
X176099Y9533D01*
X176059Y9836D01*
X176045Y10142D01*
X176059Y10447D01*
X176099Y10751D01*
X176167Y11049D01*
X176260Y11340D01*
X176379Y11622D01*
X176522Y11892D01*
X176558Y11962D01*
X176581Y12038D01*
X176592Y12116D01*
X176591Y12194D01*
X176577Y12272D01*
X176552Y12346D01*
X176515Y12416D01*
X176467Y12479D01*
X176411Y12533D01*
X176346Y12578D01*
X176275Y12613D01*
X176200Y12636D01*
X176122Y12647D01*
X176044Y12645D01*
X175966Y12632D01*
X175892Y12606D01*
X175822Y12569D01*
X175818Y12566D01*
Y23000D01*
G37*
G36*
X157582D02*X175818D01*
Y12566D01*
X175759Y12522D01*
X175705Y12465D01*
X175661Y12400D01*
X175472Y12053D01*
X175318Y11689D01*
X175198Y11313D01*
X175111Y10928D01*
X175058Y10536D01*
X175041Y10142D01*
X175058Y9747D01*
X175111Y9356D01*
X175198Y8970D01*
X175318Y8594D01*
X175472Y8230D01*
X175657Y7881D01*
X175702Y7816D01*
X175757Y7759D01*
X175818Y7713D01*
Y2000D01*
X157582D01*
Y7717D01*
X157641Y7762D01*
X157695Y7818D01*
X157739Y7884D01*
X157928Y8230D01*
X158082Y8594D01*
X158202Y8970D01*
X158289Y9356D01*
X158342Y9747D01*
X158359Y10142D01*
X158342Y10536D01*
X158289Y10928D01*
X158202Y11313D01*
X158082Y11689D01*
X157928Y12053D01*
X157743Y12402D01*
X157698Y12467D01*
X157643Y12524D01*
X157582Y12571D01*
Y23000D01*
G37*
G36*
X153906D02*X157582D01*
Y12571D01*
X157580Y12572D01*
X157510Y12609D01*
X157435Y12635D01*
X157357Y12649D01*
X157278Y12650D01*
X157199Y12639D01*
X157123Y12616D01*
X157052Y12581D01*
X156987Y12536D01*
X156930Y12481D01*
X156882Y12418D01*
X156845Y12348D01*
X156819Y12273D01*
X156806Y12195D01*
X156804Y12115D01*
X156815Y12037D01*
X156839Y11961D01*
X156875Y11891D01*
X157021Y11622D01*
X157140Y11340D01*
X157233Y11049D01*
X157301Y10751D01*
X157341Y10447D01*
X157355Y10142D01*
X157341Y9836D01*
X157301Y9533D01*
X157233Y9234D01*
X157140Y8943D01*
X157021Y8661D01*
X156878Y8391D01*
X156842Y8321D01*
X156819Y8246D01*
X156808Y8168D01*
X156809Y8089D01*
X156823Y8012D01*
X156848Y7937D01*
X156885Y7868D01*
X156933Y7805D01*
X156989Y7750D01*
X157054Y7705D01*
X157125Y7671D01*
X157200Y7648D01*
X157278Y7637D01*
X157356Y7638D01*
X157434Y7652D01*
X157508Y7677D01*
X157578Y7714D01*
X157582Y7717D01*
Y2000D01*
X153906D01*
Y5687D01*
X154299Y5705D01*
X154691Y5757D01*
X155076Y5844D01*
X155452Y5965D01*
X155816Y6118D01*
X156165Y6304D01*
X156230Y6348D01*
X156287Y6403D01*
X156335Y6467D01*
X156372Y6537D01*
X156398Y6612D01*
X156412Y6690D01*
X156413Y6769D01*
X156402Y6847D01*
X156379Y6923D01*
X156344Y6994D01*
X156299Y7059D01*
X156244Y7116D01*
X156181Y7164D01*
X156111Y7201D01*
X156036Y7227D01*
X155958Y7241D01*
X155878Y7242D01*
X155800Y7231D01*
X155724Y7208D01*
X155654Y7172D01*
X155385Y7026D01*
X155103Y6907D01*
X154812Y6813D01*
X154514Y6746D01*
X154210Y6705D01*
X153906Y6692D01*
Y13592D01*
X154210Y13578D01*
X154514Y13538D01*
X154812Y13470D01*
X155103Y13377D01*
X155385Y13258D01*
X155655Y13115D01*
X155725Y13079D01*
X155801Y13056D01*
X155879Y13045D01*
X155957Y13046D01*
X156035Y13060D01*
X156109Y13085D01*
X156179Y13122D01*
X156242Y13170D01*
X156296Y13226D01*
X156341Y13291D01*
X156376Y13362D01*
X156399Y13437D01*
X156410Y13515D01*
X156408Y13593D01*
X156395Y13671D01*
X156369Y13745D01*
X156332Y13815D01*
X156285Y13878D01*
X156228Y13932D01*
X156163Y13976D01*
X155816Y14165D01*
X155452Y14319D01*
X155076Y14439D01*
X154691Y14526D01*
X154299Y14579D01*
X153906Y14596D01*
Y23000D01*
G37*
G36*
X150228D02*X153906D01*
Y14596D01*
X153905Y14596D01*
X153510Y14579D01*
X153119Y14526D01*
X152733Y14439D01*
X152357Y14319D01*
X151993Y14165D01*
X151644Y13980D01*
X151579Y13935D01*
X151522Y13880D01*
X151474Y13817D01*
X151437Y13747D01*
X151411Y13672D01*
X151398Y13594D01*
X151396Y13515D01*
X151407Y13436D01*
X151430Y13360D01*
X151465Y13289D01*
X151511Y13224D01*
X151566Y13167D01*
X151629Y13120D01*
X151699Y13082D01*
X151774Y13057D01*
X151852Y13043D01*
X151931Y13041D01*
X152010Y13052D01*
X152085Y13076D01*
X152156Y13112D01*
X152424Y13258D01*
X152706Y13377D01*
X152997Y13470D01*
X153296Y13538D01*
X153599Y13578D01*
X153905Y13592D01*
X153906Y13592D01*
Y6692D01*
X153905Y6692D01*
X153599Y6705D01*
X153296Y6746D01*
X152997Y6813D01*
X152706Y6907D01*
X152424Y7026D01*
X152154Y7169D01*
X152084Y7205D01*
X152009Y7228D01*
X151931Y7239D01*
X151852Y7237D01*
X151775Y7224D01*
X151700Y7198D01*
X151631Y7161D01*
X151568Y7114D01*
X151513Y7057D01*
X151468Y6993D01*
X151434Y6922D01*
X151411Y6847D01*
X151400Y6769D01*
X151401Y6690D01*
X151415Y6612D01*
X151440Y6538D01*
X151477Y6469D01*
X151525Y6406D01*
X151581Y6351D01*
X151647Y6307D01*
X151993Y6118D01*
X152357Y5965D01*
X152733Y5844D01*
X153119Y5757D01*
X153510Y5705D01*
X153905Y5687D01*
X153906Y5687D01*
Y2000D01*
X150228D01*
Y7713D01*
X150230Y7711D01*
X150300Y7674D01*
X150375Y7648D01*
X150453Y7635D01*
X150532Y7633D01*
X150610Y7644D01*
X150686Y7667D01*
X150757Y7702D01*
X150822Y7748D01*
X150879Y7803D01*
X150927Y7866D01*
X150964Y7936D01*
X150990Y8011D01*
X151004Y8089D01*
X151005Y8168D01*
X150994Y8247D01*
X150971Y8322D01*
X150935Y8393D01*
X150789Y8661D01*
X150670Y8943D01*
X150576Y9234D01*
X150509Y9533D01*
X150468Y9836D01*
X150455Y10142D01*
X150468Y10447D01*
X150509Y10751D01*
X150576Y11049D01*
X150670Y11340D01*
X150789Y11622D01*
X150932Y11892D01*
X150968Y11962D01*
X150991Y12038D01*
X151002Y12116D01*
X151000Y12194D01*
X150987Y12272D01*
X150961Y12346D01*
X150924Y12416D01*
X150877Y12479D01*
X150820Y12533D01*
X150756Y12578D01*
X150685Y12613D01*
X150610Y12636D01*
X150532Y12647D01*
X150453Y12645D01*
X150375Y12632D01*
X150301Y12606D01*
X150232Y12569D01*
X150228Y12566D01*
Y23000D01*
G37*
G36*
X116472D02*X150228D01*
Y12566D01*
X150169Y12522D01*
X150114Y12465D01*
X150070Y12400D01*
X149881Y12053D01*
X149728Y11689D01*
X149607Y11313D01*
X149520Y10928D01*
X149468Y10536D01*
X149450Y10142D01*
X149468Y9747D01*
X149520Y9356D01*
X149607Y8970D01*
X149728Y8594D01*
X149881Y8230D01*
X150066Y7881D01*
X150111Y7816D01*
X150166Y7759D01*
X150228Y7713D01*
Y2000D01*
X116472D01*
Y7717D01*
X116531Y7762D01*
X116586Y7818D01*
X116630Y7884D01*
X116819Y8230D01*
X116972Y8594D01*
X117093Y8970D01*
X117180Y9356D01*
X117232Y9747D01*
X117250Y10142D01*
X117232Y10536D01*
X117180Y10928D01*
X117093Y11313D01*
X116972Y11689D01*
X116819Y12053D01*
X116634Y12402D01*
X116589Y12467D01*
X116534Y12524D01*
X116472Y12571D01*
Y23000D01*
G37*
G36*
X112797D02*X116472D01*
Y12571D01*
X116470Y12572D01*
X116400Y12609D01*
X116325Y12635D01*
X116247Y12649D01*
X116168Y12650D01*
X116090Y12639D01*
X116014Y12616D01*
X115943Y12581D01*
X115878Y12536D01*
X115821Y12481D01*
X115773Y12418D01*
X115736Y12348D01*
X115710Y12273D01*
X115696Y12195D01*
X115695Y12115D01*
X115706Y12037D01*
X115729Y11961D01*
X115765Y11891D01*
X115911Y11622D01*
X116030Y11340D01*
X116124Y11049D01*
X116191Y10751D01*
X116232Y10447D01*
X116245Y10142D01*
X116232Y9836D01*
X116191Y9533D01*
X116124Y9234D01*
X116030Y8943D01*
X115911Y8661D01*
X115768Y8391D01*
X115732Y8321D01*
X115709Y8246D01*
X115698Y8168D01*
X115700Y8089D01*
X115713Y8012D01*
X115739Y7937D01*
X115776Y7868D01*
X115823Y7805D01*
X115880Y7750D01*
X115944Y7705D01*
X116015Y7671D01*
X116090Y7648D01*
X116168Y7637D01*
X116247Y7638D01*
X116325Y7652D01*
X116399Y7677D01*
X116468Y7714D01*
X116472Y7717D01*
Y2000D01*
X112797D01*
Y5687D01*
X113190Y5705D01*
X113581Y5757D01*
X113967Y5844D01*
X114343Y5965D01*
X114707Y6118D01*
X115056Y6304D01*
X115121Y6348D01*
X115178Y6403D01*
X115226Y6467D01*
X115263Y6537D01*
X115289Y6612D01*
X115302Y6690D01*
X115304Y6769D01*
X115293Y6847D01*
X115270Y6923D01*
X115235Y6994D01*
X115189Y7059D01*
X115134Y7116D01*
X115071Y7164D01*
X115001Y7201D01*
X114926Y7227D01*
X114848Y7241D01*
X114769Y7242D01*
X114690Y7231D01*
X114615Y7208D01*
X114544Y7172D01*
X114276Y7026D01*
X113994Y6907D01*
X113703Y6813D01*
X113404Y6746D01*
X113101Y6705D01*
X112797Y6692D01*
Y13592D01*
X113101Y13578D01*
X113404Y13538D01*
X113703Y13470D01*
X113994Y13377D01*
X114276Y13258D01*
X114546Y13115D01*
X114616Y13079D01*
X114691Y13056D01*
X114769Y13045D01*
X114848Y13046D01*
X114925Y13060D01*
X115000Y13085D01*
X115069Y13122D01*
X115132Y13170D01*
X115187Y13226D01*
X115232Y13291D01*
X115266Y13362D01*
X115289Y13437D01*
X115300Y13515D01*
X115299Y13593D01*
X115285Y13671D01*
X115260Y13745D01*
X115223Y13815D01*
X115175Y13878D01*
X115119Y13932D01*
X115053Y13976D01*
X114707Y14165D01*
X114343Y14319D01*
X113967Y14439D01*
X113581Y14526D01*
X113190Y14579D01*
X112797Y14596D01*
Y23000D01*
G37*
G36*
X109118D02*X112797D01*
Y14596D01*
X112795Y14596D01*
X112401Y14579D01*
X112009Y14526D01*
X111624Y14439D01*
X111248Y14319D01*
X110884Y14165D01*
X110535Y13980D01*
X110470Y13935D01*
X110413Y13880D01*
X110365Y13817D01*
X110328Y13747D01*
X110302Y13672D01*
X110288Y13594D01*
X110287Y13515D01*
X110298Y13436D01*
X110321Y13360D01*
X110356Y13289D01*
X110401Y13224D01*
X110456Y13167D01*
X110519Y13120D01*
X110589Y13082D01*
X110664Y13057D01*
X110742Y13043D01*
X110822Y13041D01*
X110900Y13052D01*
X110976Y13076D01*
X111046Y13112D01*
X111315Y13258D01*
X111597Y13377D01*
X111888Y13470D01*
X112186Y13538D01*
X112490Y13578D01*
X112795Y13592D01*
X112797Y13592D01*
Y6692D01*
X112795Y6692D01*
X112490Y6705D01*
X112186Y6746D01*
X111888Y6813D01*
X111597Y6907D01*
X111315Y7026D01*
X111045Y7169D01*
X110975Y7205D01*
X110899Y7228D01*
X110821Y7239D01*
X110743Y7237D01*
X110665Y7224D01*
X110591Y7198D01*
X110521Y7161D01*
X110458Y7114D01*
X110404Y7057D01*
X110359Y6993D01*
X110324Y6922D01*
X110301Y6847D01*
X110290Y6769D01*
X110292Y6690D01*
X110305Y6612D01*
X110331Y6538D01*
X110368Y6469D01*
X110415Y6406D01*
X110472Y6351D01*
X110537Y6307D01*
X110884Y6118D01*
X111248Y5965D01*
X111624Y5844D01*
X112009Y5757D01*
X112401Y5705D01*
X112795Y5687D01*
X112797Y5687D01*
Y2000D01*
X109118D01*
Y7713D01*
X109120Y7711D01*
X109190Y7674D01*
X109265Y7648D01*
X109343Y7635D01*
X109422Y7633D01*
X109501Y7644D01*
X109577Y7667D01*
X109648Y7702D01*
X109713Y7748D01*
X109770Y7803D01*
X109817Y7866D01*
X109855Y7936D01*
X109881Y8011D01*
X109894Y8089D01*
X109896Y8168D01*
X109885Y8247D01*
X109861Y8322D01*
X109825Y8393D01*
X109679Y8661D01*
X109560Y8943D01*
X109467Y9234D01*
X109399Y9533D01*
X109359Y9836D01*
X109345Y10142D01*
X109359Y10447D01*
X109399Y10751D01*
X109467Y11049D01*
X109560Y11340D01*
X109679Y11622D01*
X109822Y11892D01*
X109858Y11962D01*
X109881Y12038D01*
X109892Y12116D01*
X109891Y12194D01*
X109877Y12272D01*
X109852Y12346D01*
X109815Y12416D01*
X109767Y12479D01*
X109711Y12533D01*
X109646Y12578D01*
X109575Y12613D01*
X109500Y12636D01*
X109422Y12647D01*
X109344Y12645D01*
X109266Y12632D01*
X109192Y12606D01*
X109122Y12569D01*
X109118Y12566D01*
Y23000D01*
G37*
G36*
X90882D02*X109118D01*
Y12566D01*
X109059Y12522D01*
X109005Y12465D01*
X108961Y12400D01*
X108772Y12053D01*
X108618Y11689D01*
X108498Y11313D01*
X108411Y10928D01*
X108358Y10536D01*
X108341Y10142D01*
X108358Y9747D01*
X108411Y9356D01*
X108498Y8970D01*
X108618Y8594D01*
X108772Y8230D01*
X108957Y7881D01*
X109002Y7816D01*
X109057Y7759D01*
X109118Y7713D01*
Y2000D01*
X90882D01*
Y7717D01*
X90941Y7762D01*
X90995Y7818D01*
X91039Y7884D01*
X91228Y8230D01*
X91382Y8594D01*
X91502Y8970D01*
X91589Y9356D01*
X91642Y9747D01*
X91659Y10142D01*
X91642Y10536D01*
X91589Y10928D01*
X91502Y11313D01*
X91382Y11689D01*
X91228Y12053D01*
X91043Y12402D01*
X90998Y12467D01*
X90943Y12524D01*
X90882Y12571D01*
Y23000D01*
G37*
G36*
X87206D02*X90882D01*
Y12571D01*
X90880Y12572D01*
X90810Y12609D01*
X90735Y12635D01*
X90657Y12649D01*
X90578Y12650D01*
X90499Y12639D01*
X90423Y12616D01*
X90352Y12581D01*
X90287Y12536D01*
X90230Y12481D01*
X90182Y12418D01*
X90145Y12348D01*
X90119Y12273D01*
X90106Y12195D01*
X90104Y12115D01*
X90115Y12037D01*
X90139Y11961D01*
X90175Y11891D01*
X90321Y11622D01*
X90440Y11340D01*
X90533Y11049D01*
X90601Y10751D01*
X90641Y10447D01*
X90655Y10142D01*
X90641Y9836D01*
X90601Y9533D01*
X90533Y9234D01*
X90440Y8943D01*
X90321Y8661D01*
X90178Y8391D01*
X90142Y8321D01*
X90119Y8246D01*
X90108Y8168D01*
X90109Y8089D01*
X90123Y8012D01*
X90148Y7937D01*
X90185Y7868D01*
X90233Y7805D01*
X90289Y7750D01*
X90354Y7705D01*
X90425Y7671D01*
X90500Y7648D01*
X90578Y7637D01*
X90656Y7638D01*
X90734Y7652D01*
X90808Y7677D01*
X90878Y7714D01*
X90882Y7717D01*
Y2000D01*
X87206D01*
Y5687D01*
X87599Y5705D01*
X87991Y5757D01*
X88376Y5844D01*
X88752Y5965D01*
X89116Y6118D01*
X89465Y6304D01*
X89530Y6348D01*
X89587Y6403D01*
X89635Y6467D01*
X89672Y6537D01*
X89698Y6612D01*
X89712Y6690D01*
X89713Y6769D01*
X89702Y6847D01*
X89679Y6923D01*
X89644Y6994D01*
X89599Y7059D01*
X89544Y7116D01*
X89481Y7164D01*
X89411Y7201D01*
X89336Y7227D01*
X89258Y7241D01*
X89178Y7242D01*
X89100Y7231D01*
X89024Y7208D01*
X88954Y7172D01*
X88685Y7026D01*
X88403Y6907D01*
X88112Y6813D01*
X87814Y6746D01*
X87510Y6705D01*
X87206Y6692D01*
Y13592D01*
X87510Y13578D01*
X87814Y13538D01*
X88112Y13470D01*
X88403Y13377D01*
X88685Y13258D01*
X88955Y13115D01*
X89025Y13079D01*
X89101Y13056D01*
X89179Y13045D01*
X89257Y13046D01*
X89335Y13060D01*
X89409Y13085D01*
X89479Y13122D01*
X89542Y13170D01*
X89596Y13226D01*
X89641Y13291D01*
X89676Y13362D01*
X89699Y13437D01*
X89710Y13515D01*
X89708Y13593D01*
X89695Y13671D01*
X89669Y13745D01*
X89632Y13815D01*
X89585Y13878D01*
X89528Y13932D01*
X89463Y13976D01*
X89116Y14165D01*
X88752Y14319D01*
X88376Y14439D01*
X87991Y14526D01*
X87599Y14579D01*
X87206Y14596D01*
Y23000D01*
G37*
G36*
X83528D02*X87206D01*
Y14596D01*
X87205Y14596D01*
X86810Y14579D01*
X86419Y14526D01*
X86033Y14439D01*
X85657Y14319D01*
X85293Y14165D01*
X84944Y13980D01*
X84879Y13935D01*
X84822Y13880D01*
X84774Y13817D01*
X84737Y13747D01*
X84711Y13672D01*
X84698Y13594D01*
X84696Y13515D01*
X84707Y13436D01*
X84730Y13360D01*
X84765Y13289D01*
X84811Y13224D01*
X84866Y13167D01*
X84929Y13120D01*
X84999Y13082D01*
X85074Y13057D01*
X85152Y13043D01*
X85231Y13041D01*
X85310Y13052D01*
X85385Y13076D01*
X85456Y13112D01*
X85724Y13258D01*
X86006Y13377D01*
X86297Y13470D01*
X86596Y13538D01*
X86899Y13578D01*
X87205Y13592D01*
X87206Y13592D01*
Y6692D01*
X87205Y6692D01*
X86899Y6705D01*
X86596Y6746D01*
X86297Y6813D01*
X86006Y6907D01*
X85724Y7026D01*
X85454Y7169D01*
X85384Y7205D01*
X85309Y7228D01*
X85231Y7239D01*
X85152Y7237D01*
X85075Y7224D01*
X85000Y7198D01*
X84931Y7161D01*
X84868Y7114D01*
X84813Y7057D01*
X84768Y6993D01*
X84734Y6922D01*
X84711Y6847D01*
X84700Y6769D01*
X84701Y6690D01*
X84715Y6612D01*
X84740Y6538D01*
X84777Y6469D01*
X84825Y6406D01*
X84881Y6351D01*
X84947Y6307D01*
X85293Y6118D01*
X85657Y5965D01*
X86033Y5844D01*
X86419Y5757D01*
X86810Y5705D01*
X87205Y5687D01*
X87206Y5687D01*
Y2000D01*
X83528D01*
Y7713D01*
X83530Y7711D01*
X83600Y7674D01*
X83675Y7648D01*
X83753Y7635D01*
X83832Y7633D01*
X83910Y7644D01*
X83986Y7667D01*
X84057Y7702D01*
X84122Y7748D01*
X84179Y7803D01*
X84227Y7866D01*
X84264Y7936D01*
X84290Y8011D01*
X84304Y8089D01*
X84305Y8168D01*
X84294Y8247D01*
X84271Y8322D01*
X84235Y8393D01*
X84089Y8661D01*
X83970Y8943D01*
X83876Y9234D01*
X83809Y9533D01*
X83768Y9836D01*
X83755Y10142D01*
X83768Y10447D01*
X83809Y10751D01*
X83876Y11049D01*
X83970Y11340D01*
X84089Y11622D01*
X84232Y11892D01*
X84268Y11962D01*
X84291Y12038D01*
X84302Y12116D01*
X84300Y12194D01*
X84287Y12272D01*
X84261Y12346D01*
X84224Y12416D01*
X84177Y12479D01*
X84120Y12533D01*
X84056Y12578D01*
X83985Y12613D01*
X83910Y12636D01*
X83832Y12647D01*
X83753Y12645D01*
X83675Y12632D01*
X83601Y12606D01*
X83532Y12569D01*
X83528Y12566D01*
Y23000D01*
G37*
G36*
X76000D02*X83528D01*
Y12566D01*
X83469Y12522D01*
X83414Y12465D01*
X83370Y12400D01*
X83181Y12053D01*
X83028Y11689D01*
X82907Y11313D01*
X82820Y10928D01*
X82768Y10536D01*
X82750Y10142D01*
X82768Y9747D01*
X82820Y9356D01*
X82907Y8970D01*
X83028Y8594D01*
X83181Y8230D01*
X83366Y7881D01*
X83411Y7816D01*
X83466Y7759D01*
X83528Y7713D01*
Y2000D01*
X76000D01*
Y23000D01*
G37*
G36*
X206988Y26330D02*X207046Y26262D01*
X207315Y26032D01*
X207315Y26032D01*
X207502Y25918D01*
X207617Y25847D01*
X207944Y25712D01*
X208289Y25629D01*
X208289D01*
X208642Y25601D01*
X208730Y25608D01*
X216664D01*
X216893Y25235D01*
X217348Y24702D01*
X217881Y24247D01*
X218478Y23881D01*
X219125Y23613D01*
X219806Y23450D01*
X220505Y23395D01*
X221203Y23450D01*
X221884Y23613D01*
X222531Y23881D01*
X223128Y24247D01*
X223661Y24702D01*
X224116Y25235D01*
X224345Y25608D01*
X242255D01*
X242484Y25235D01*
X242939Y24702D01*
X243472Y24247D01*
X244069Y23881D01*
X244716Y23613D01*
X245397Y23450D01*
X246095Y23395D01*
X246794Y23450D01*
X247475Y23613D01*
X248122Y23881D01*
X248719Y24247D01*
X249252Y24702D01*
X249707Y25235D01*
X250072Y25832D01*
X250341Y26479D01*
X250504Y27160D01*
X250545Y27858D01*
X250504Y28557D01*
X250341Y29238D01*
X250072Y29885D01*
X249707Y30482D01*
X249252Y31015D01*
X248719Y31469D01*
X248261Y31750D01*
X250068D01*
X255488Y26330D01*
X255546Y26262D01*
X255815Y26032D01*
X255815Y26032D01*
X256002Y25918D01*
X256117Y25847D01*
X256444Y25712D01*
X256789Y25629D01*
X256789D01*
X257142Y25601D01*
X257230Y25608D01*
X283364D01*
X283593Y25235D01*
X284048Y24702D01*
X284581Y24247D01*
X285178Y23881D01*
X285825Y23613D01*
X286506Y23450D01*
X287205Y23395D01*
X287903Y23450D01*
X288584Y23613D01*
X289231Y23881D01*
X289828Y24247D01*
X290361Y24702D01*
X290816Y25235D01*
X291045Y25608D01*
X308955D01*
X309184Y25235D01*
X309639Y24702D01*
X310172Y24247D01*
X310769Y23881D01*
X311416Y23613D01*
X312097Y23450D01*
X312795Y23395D01*
X313494Y23450D01*
X314175Y23613D01*
X314822Y23881D01*
X315419Y24247D01*
X315952Y24702D01*
X316407Y25235D01*
X316772Y25832D01*
X317041Y26479D01*
X317204Y27160D01*
X317245Y27858D01*
X317204Y28557D01*
X317041Y29238D01*
X316772Y29885D01*
X316407Y30482D01*
X315952Y31015D01*
X315419Y31469D01*
X314822Y31835D01*
X314175Y32104D01*
X313494Y32267D01*
X312795Y32322D01*
X312097Y32267D01*
X311416Y32104D01*
X310769Y31835D01*
X310172Y31469D01*
X309639Y31015D01*
X309184Y30482D01*
X308955Y30108D01*
X291045D01*
X290816Y30482D01*
X290361Y31015D01*
X289828Y31469D01*
X289231Y31835D01*
X288584Y32104D01*
X287903Y32267D01*
X287205Y32322D01*
X286506Y32267D01*
X285825Y32104D01*
X285178Y31835D01*
X284581Y31469D01*
X284048Y31015D01*
X283593Y30482D01*
X283364Y30108D01*
X258074D01*
X252653Y35529D01*
X252596Y35596D01*
X252327Y35826D01*
X252327Y35826D01*
X252212Y35896D01*
X252025Y36011D01*
X251793Y36107D01*
X251697Y36146D01*
X251353Y36229D01*
X251000Y36257D01*
X250912Y36250D01*
X210432D01*
X209750Y36932D01*
Y42000D01*
X324000D01*
Y21000D01*
X76000D01*
Y42000D01*
X190250D01*
Y36932D01*
X189568Y36250D01*
X147088D01*
X147000Y36257D01*
X146647Y36229D01*
X146303Y36146D01*
X145975Y36011D01*
X145673Y35826D01*
X145673Y35826D01*
X145404Y35596D01*
X145347Y35529D01*
X139926Y30108D01*
X116636D01*
X116407Y30482D01*
X115952Y31015D01*
X115419Y31469D01*
X114822Y31835D01*
X114175Y32104D01*
X113494Y32267D01*
X112795Y32322D01*
X112097Y32267D01*
X111416Y32104D01*
X110769Y31835D01*
X110172Y31469D01*
X109639Y31015D01*
X109184Y30482D01*
X108955Y30108D01*
X91045D01*
X90816Y30482D01*
X90361Y31015D01*
X89828Y31469D01*
X89231Y31835D01*
X88584Y32104D01*
X87903Y32267D01*
X87205Y32322D01*
X86506Y32267D01*
X85825Y32104D01*
X85178Y31835D01*
X84581Y31469D01*
X84048Y31015D01*
X83593Y30482D01*
X83228Y29885D01*
X82959Y29238D01*
X82796Y28557D01*
X82741Y27858D01*
X82796Y27160D01*
X82959Y26479D01*
X83228Y25832D01*
X83593Y25235D01*
X84048Y24702D01*
X84581Y24247D01*
X85178Y23881D01*
X85825Y23613D01*
X86506Y23450D01*
X87205Y23395D01*
X87903Y23450D01*
X88584Y23613D01*
X89231Y23881D01*
X89828Y24247D01*
X90361Y24702D01*
X90816Y25235D01*
X91045Y25608D01*
X108955D01*
X109184Y25235D01*
X109639Y24702D01*
X110172Y24247D01*
X110769Y23881D01*
X111416Y23613D01*
X112097Y23450D01*
X112795Y23395D01*
X113494Y23450D01*
X114175Y23613D01*
X114822Y23881D01*
X115419Y24247D01*
X115952Y24702D01*
X116407Y25235D01*
X116636Y25608D01*
X140770D01*
X140858Y25601D01*
X141211Y25629D01*
X141211Y25629D01*
X141556Y25712D01*
X141883Y25847D01*
X142185Y26032D01*
X142454Y26262D01*
X142512Y26330D01*
X147932Y31750D01*
X151739D01*
X151281Y31469D01*
X150748Y31015D01*
X150293Y30482D01*
X149928Y29885D01*
X149659Y29238D01*
X149496Y28557D01*
X149441Y27858D01*
X149496Y27160D01*
X149659Y26479D01*
X149928Y25832D01*
X150293Y25235D01*
X150748Y24702D01*
X151281Y24247D01*
X151878Y23881D01*
X152525Y23613D01*
X153206Y23450D01*
X153905Y23395D01*
X154603Y23450D01*
X155284Y23613D01*
X155931Y23881D01*
X156528Y24247D01*
X157061Y24702D01*
X157516Y25235D01*
X157745Y25608D01*
X175655D01*
X175884Y25235D01*
X176339Y24702D01*
X176872Y24247D01*
X177469Y23881D01*
X178116Y23613D01*
X178797Y23450D01*
X179495Y23395D01*
X180194Y23450D01*
X180875Y23613D01*
X181522Y23881D01*
X182119Y24247D01*
X182652Y24702D01*
X183107Y25235D01*
X183336Y25608D01*
X191270D01*
X191358Y25601D01*
X191711Y25629D01*
X191711Y25629D01*
X192056Y25712D01*
X192383Y25847D01*
X192685Y26032D01*
X192954Y26262D01*
X193012Y26330D01*
X197429Y30747D01*
X197496Y30804D01*
X197726Y31073D01*
X197726Y31073D01*
X197911Y31375D01*
X198046Y31703D01*
X198129Y32047D01*
X198157Y32400D01*
X198150Y32488D01*
Y42000D01*
X201850D01*
Y32488D01*
X201843Y32400D01*
X201871Y32047D01*
Y32047D01*
X201954Y31703D01*
X202089Y31375D01*
X202159Y31261D01*
X202274Y31073D01*
X202274Y31073D01*
X202504Y30804D01*
X202571Y30747D01*
X206988Y26330D01*
G37*
G36*
X92000Y211000D02*X74000D01*
Y229500D01*
X88429D01*
X92000Y225929D01*
Y211000D01*
G37*
G36*
X37855Y236645D02*X38019Y236038D01*
X38135Y235388D01*
X38193Y234730D01*
Y234070D01*
X38135Y233412D01*
X38019Y232762D01*
X37855Y232155D01*
Y236645D01*
G37*
G36*
X78659Y238770D02*X78664Y234308D01*
X78719Y234078D01*
X78809Y233860D01*
X78933Y233659D01*
X79086Y233479D01*
X79266Y233326D01*
X79467Y233202D01*
X79685Y233112D01*
X79915Y233057D01*
X80150Y233043D01*
X84876Y233053D01*
X92000Y225929D01*
Y211000D01*
X49974D01*
X50230Y211439D01*
X50549Y212116D01*
X50807Y212819D01*
X51003Y213542D01*
X51134Y214280D01*
X51200Y215026D01*
Y215774D01*
X51134Y216521D01*
X51003Y217258D01*
X50807Y217981D01*
X50549Y218684D01*
X50230Y219361D01*
X49852Y220008D01*
X49419Y220619D01*
X49366Y220679D01*
X49304Y220728D01*
X49234Y220768D01*
X49160Y220796D01*
X49081Y220812D01*
X49002Y220816D01*
X48922Y220807D01*
X48845Y220786D01*
X48773Y220753D01*
X48706Y220709D01*
X48647Y220656D01*
X48597Y220593D01*
X48557Y220524D01*
X48529Y220449D01*
X48513Y220371D01*
X48509Y220291D01*
X48518Y220212D01*
X48539Y220135D01*
X48572Y220062D01*
X48617Y219996D01*
X49005Y219462D01*
X49338Y218892D01*
X49619Y218295D01*
X49847Y217675D01*
X50019Y217038D01*
X50135Y216388D01*
X50193Y215730D01*
Y215070D01*
X50135Y214412D01*
X50019Y213762D01*
X49847Y213125D01*
X49619Y212505D01*
X49338Y211908D01*
X49005Y211338D01*
X48765Y211000D01*
X37855D01*
Y221215D01*
X37888Y221218D01*
X37965Y221239D01*
X38038Y221272D01*
X38104Y221317D01*
X38638Y221705D01*
X39208Y222038D01*
X39805Y222319D01*
X40425Y222547D01*
X41062Y222719D01*
X41712Y222835D01*
X42370Y222893D01*
X43030D01*
X43688Y222835D01*
X44338Y222719D01*
X44975Y222547D01*
X45595Y222319D01*
X46192Y222038D01*
X46762Y221705D01*
X47301Y221323D01*
X47366Y221279D01*
X47437Y221246D01*
X47513Y221225D01*
X47591Y221217D01*
X47670Y221220D01*
X47747Y221236D01*
X47821Y221264D01*
X47889Y221303D01*
X47951Y221352D01*
X48004Y221410D01*
X48047Y221476D01*
X48079Y221548D01*
X48100Y221624D01*
X48109Y221702D01*
X48105Y221781D01*
X48089Y221858D01*
X48061Y221931D01*
X48022Y222000D01*
X47973Y222061D01*
X47914Y222113D01*
X47308Y222552D01*
X46661Y222930D01*
X45984Y223249D01*
X45281Y223507D01*
X44558Y223703D01*
X43820Y223834D01*
X43074Y223900D01*
X42326D01*
X41579Y223834D01*
X40842Y223703D01*
X40119Y223507D01*
X39416Y223249D01*
X38739Y222930D01*
X38092Y222552D01*
X37855Y222384D01*
Y229796D01*
X38230Y230439D01*
X38549Y231116D01*
X38807Y231819D01*
X39003Y232542D01*
X39134Y233280D01*
X39200Y234026D01*
Y234774D01*
X39134Y235521D01*
X39003Y236258D01*
X38807Y236981D01*
X38549Y237684D01*
X38230Y238361D01*
X37855Y239004D01*
Y246500D01*
X42500D01*
Y241796D01*
X42485Y241600D01*
X42546Y240815D01*
Y240815D01*
X42730Y240050D01*
X42818Y239837D01*
X43031Y239323D01*
X43286Y238907D01*
X43442Y238652D01*
X43954Y238054D01*
X44103Y237926D01*
X45245Y236784D01*
X45040Y235930D01*
X44920Y234400D01*
X45040Y232870D01*
X45399Y231378D01*
X45986Y229960D01*
X46788Y228651D01*
X47784Y227484D01*
X48951Y226488D01*
X50260Y225686D01*
X51678Y225099D01*
X53170Y224740D01*
X54700Y224620D01*
X56230Y224740D01*
X57722Y225099D01*
X59140Y225686D01*
X60449Y226488D01*
X61616Y227484D01*
X62612Y228651D01*
X63414Y229960D01*
X64001Y231378D01*
X64360Y232870D01*
X64450Y234400D01*
X64360Y235930D01*
X64001Y237422D01*
X63414Y238840D01*
X62612Y240149D01*
X61616Y241316D01*
X60449Y242312D01*
X59140Y243114D01*
X57722Y243701D01*
X56230Y244060D01*
X54700Y244180D01*
X53170Y244060D01*
X52500Y243899D01*
Y251784D01*
X52517Y252000D01*
X68850D01*
Y251758D01*
X68796Y251535D01*
X68735Y250750D01*
X68796Y249965D01*
X68980Y249200D01*
X69281Y248473D01*
X69692Y247802D01*
X70214Y247214D01*
X78659Y238770D01*
G37*
G36*
X37855Y211000D02*X36640D01*
X36395Y211338D01*
X36062Y211908D01*
X35781Y212505D01*
X35553Y213125D01*
X35381Y213762D01*
X35265Y214412D01*
X35207Y215070D01*
Y215730D01*
X35265Y216388D01*
X35381Y217038D01*
X35553Y217675D01*
X35781Y218295D01*
X36062Y218892D01*
X36395Y219462D01*
X36777Y220001D01*
X36821Y220066D01*
X36854Y220137D01*
X36875Y220213D01*
X36883Y220291D01*
X36880Y220370D01*
X36864Y220447D01*
X36836Y220521D01*
X36797Y220589D01*
X36748Y220651D01*
X36690Y220704D01*
X36624Y220747D01*
X36552Y220779D01*
X36476Y220800D01*
X36398Y220809D01*
X36319Y220805D01*
X36242Y220789D01*
X36169Y220761D01*
X36100Y220722D01*
X36039Y220673D01*
X35987Y220614D01*
X35548Y220008D01*
X35170Y219361D01*
X34851Y218684D01*
X34593Y217981D01*
X34397Y217258D01*
X34266Y216521D01*
X34200Y215774D01*
Y215026D01*
X34266Y214280D01*
X34397Y213542D01*
X34593Y212819D01*
X34851Y212116D01*
X35170Y211439D01*
X35426Y211000D01*
X30704D01*
Y225900D01*
X31074D01*
X31820Y225966D01*
X32558Y226097D01*
X33281Y226293D01*
X33984Y226551D01*
X34661Y226870D01*
X35308Y227248D01*
X35919Y227681D01*
X35979Y227734D01*
X36028Y227796D01*
X36068Y227866D01*
X36096Y227940D01*
X36112Y228019D01*
X36116Y228098D01*
X36107Y228178D01*
X36086Y228255D01*
X36053Y228327D01*
X36009Y228394D01*
X35956Y228453D01*
X35893Y228503D01*
X35824Y228543D01*
X35749Y228571D01*
X35671Y228587D01*
X35591Y228591D01*
X35512Y228582D01*
X35435Y228561D01*
X35362Y228528D01*
X35296Y228483D01*
X34762Y228095D01*
X34192Y227762D01*
X33595Y227481D01*
X32975Y227253D01*
X32338Y227081D01*
X31688Y226965D01*
X31030Y226907D01*
X30704D01*
Y241893D01*
X31030D01*
X31688Y241835D01*
X32338Y241719D01*
X32975Y241547D01*
X33595Y241319D01*
X34192Y241038D01*
X34762Y240705D01*
X35301Y240323D01*
X35366Y240279D01*
X35437Y240246D01*
X35513Y240225D01*
X35591Y240217D01*
X35670Y240220D01*
X35747Y240236D01*
X35821Y240264D01*
X35889Y240303D01*
X35951Y240352D01*
X36004Y240410D01*
X36047Y240476D01*
X36079Y240548D01*
X36100Y240624D01*
X36109Y240702D01*
X36105Y240781D01*
X36089Y240858D01*
X36061Y240931D01*
X36022Y241000D01*
X35973Y241061D01*
X35914Y241113D01*
X35308Y241552D01*
X34661Y241930D01*
X33984Y242249D01*
X33281Y242507D01*
X32558Y242703D01*
X31820Y242834D01*
X31074Y242900D01*
X30704D01*
Y246500D01*
X37855D01*
Y239004D01*
X37852Y239008D01*
X37419Y239619D01*
X37366Y239679D01*
X37304Y239728D01*
X37234Y239768D01*
X37160Y239796D01*
X37081Y239812D01*
X37002Y239816D01*
X36922Y239807D01*
X36845Y239786D01*
X36773Y239753D01*
X36706Y239709D01*
X36647Y239656D01*
X36597Y239593D01*
X36557Y239524D01*
X36529Y239449D01*
X36513Y239371D01*
X36509Y239291D01*
X36518Y239212D01*
X36539Y239135D01*
X36572Y239062D01*
X36617Y238996D01*
X37005Y238462D01*
X37338Y237892D01*
X37619Y237295D01*
X37847Y236675D01*
X37855Y236645D01*
Y232155D01*
X37847Y232125D01*
X37619Y231505D01*
X37338Y230908D01*
X37005Y230338D01*
X36623Y229799D01*
X36579Y229734D01*
X36546Y229663D01*
X36525Y229587D01*
X36517Y229509D01*
X36520Y229430D01*
X36536Y229353D01*
X36564Y229279D01*
X36603Y229211D01*
X36652Y229149D01*
X36710Y229096D01*
X36776Y229053D01*
X36848Y229021D01*
X36924Y229000D01*
X37002Y228991D01*
X37081Y228995D01*
X37158Y229011D01*
X37231Y229039D01*
X37300Y229078D01*
X37361Y229127D01*
X37413Y229186D01*
X37852Y229792D01*
X37855Y229796D01*
Y222384D01*
X37481Y222119D01*
X37421Y222066D01*
X37372Y222004D01*
X37332Y221934D01*
X37304Y221860D01*
X37288Y221781D01*
X37284Y221702D01*
X37293Y221622D01*
X37314Y221545D01*
X37347Y221473D01*
X37391Y221406D01*
X37444Y221347D01*
X37507Y221297D01*
X37576Y221257D01*
X37651Y221229D01*
X37729Y221213D01*
X37809Y221209D01*
X37855Y221215D01*
Y211000D01*
G37*
G36*
X30704D02*X27500D01*
Y211784D01*
X27517Y212000D01*
X27449Y212863D01*
X27247Y213705D01*
X26916Y214505D01*
X26463Y215243D01*
X25901Y215901D01*
X25737Y216041D01*
X23545Y218233D01*
Y229796D01*
X23548Y229792D01*
X23981Y229181D01*
X24034Y229121D01*
X24096Y229072D01*
X24166Y229032D01*
X24240Y229004D01*
X24319Y228988D01*
X24398Y228984D01*
X24478Y228993D01*
X24555Y229014D01*
X24627Y229047D01*
X24694Y229091D01*
X24753Y229144D01*
X24803Y229207D01*
X24843Y229276D01*
X24871Y229351D01*
X24887Y229429D01*
X24891Y229509D01*
X24882Y229588D01*
X24861Y229665D01*
X24828Y229738D01*
X24783Y229804D01*
X24395Y230338D01*
X24062Y230908D01*
X23781Y231505D01*
X23553Y232125D01*
X23545Y232155D01*
Y236645D01*
X23553Y236675D01*
X23781Y237295D01*
X24062Y237892D01*
X24395Y238462D01*
X24777Y239001D01*
X24821Y239066D01*
X24854Y239137D01*
X24875Y239213D01*
X24883Y239291D01*
X24880Y239370D01*
X24864Y239447D01*
X24836Y239521D01*
X24797Y239589D01*
X24748Y239651D01*
X24690Y239704D01*
X24624Y239747D01*
X24552Y239779D01*
X24476Y239800D01*
X24398Y239809D01*
X24319Y239805D01*
X24242Y239789D01*
X24169Y239761D01*
X24100Y239722D01*
X24039Y239673D01*
X23987Y239614D01*
X23548Y239008D01*
X23545Y239004D01*
Y246267D01*
X23778Y246500D01*
X30704D01*
Y242900D01*
X30326D01*
X29579Y242834D01*
X28842Y242703D01*
X28119Y242507D01*
X27416Y242249D01*
X26739Y241930D01*
X26092Y241552D01*
X25481Y241119D01*
X25421Y241066D01*
X25372Y241004D01*
X25332Y240934D01*
X25304Y240860D01*
X25288Y240781D01*
X25284Y240702D01*
X25293Y240622D01*
X25314Y240545D01*
X25347Y240473D01*
X25391Y240406D01*
X25444Y240347D01*
X25507Y240297D01*
X25576Y240257D01*
X25651Y240229D01*
X25729Y240213D01*
X25809Y240209D01*
X25888Y240218D01*
X25965Y240239D01*
X26038Y240272D01*
X26104Y240317D01*
X26638Y240705D01*
X27208Y241038D01*
X27805Y241319D01*
X28425Y241547D01*
X29062Y241719D01*
X29712Y241835D01*
X30370Y241893D01*
X30704D01*
Y226907D01*
X30370D01*
X29712Y226965D01*
X29062Y227081D01*
X28425Y227253D01*
X27805Y227481D01*
X27208Y227762D01*
X26638Y228095D01*
X26099Y228477D01*
X26034Y228521D01*
X25963Y228554D01*
X25887Y228575D01*
X25809Y228583D01*
X25730Y228580D01*
X25653Y228564D01*
X25579Y228536D01*
X25511Y228497D01*
X25449Y228448D01*
X25396Y228390D01*
X25353Y228324D01*
X25321Y228252D01*
X25300Y228176D01*
X25291Y228098D01*
X25295Y228019D01*
X25311Y227942D01*
X25339Y227869D01*
X25378Y227800D01*
X25427Y227739D01*
X25486Y227687D01*
X26092Y227248D01*
X26739Y226870D01*
X27416Y226551D01*
X28119Y226293D01*
X28842Y226097D01*
X29579Y225966D01*
X30326Y225900D01*
X30704D01*
Y211000D01*
G37*
G36*
X23545Y232155D02*X23381Y232762D01*
X23265Y233412D01*
X23207Y234070D01*
Y234730D01*
X23265Y235388D01*
X23381Y236038D01*
X23545Y236645D01*
Y232155D01*
G37*
G36*
Y218233D02*X19000Y222778D01*
Y241722D01*
X23545Y246267D01*
Y239004D01*
X23170Y238361D01*
X22851Y237684D01*
X22593Y236981D01*
X22397Y236258D01*
X22266Y235521D01*
X22200Y234774D01*
Y234026D01*
X22266Y233280D01*
X22397Y232542D01*
X22593Y231819D01*
X22851Y231116D01*
X23170Y230439D01*
X23545Y229796D01*
Y218233D01*
G37*
G36*
X49855Y217645D02*X50019Y217038D01*
X50135Y216388D01*
X50193Y215730D01*
Y215070D01*
X50135Y214412D01*
X50019Y213762D01*
X49855Y213155D01*
Y217645D01*
G37*
G36*
X70421Y189484D02*X70430Y185547D01*
X70467Y185394D01*
X70527Y185249D01*
X70609Y185114D01*
X70712Y184995D01*
X70831Y184892D01*
X70966Y184810D01*
X71111Y184750D01*
X71264Y184713D01*
X71421Y184704D01*
X72358Y184705D01*
Y182000D01*
X49855D01*
Y210796D01*
X50230Y211439D01*
X50549Y212116D01*
X50807Y212819D01*
X51003Y213542D01*
X51134Y214280D01*
X51200Y215026D01*
Y215774D01*
X51134Y216521D01*
X51003Y217258D01*
X50807Y217981D01*
X50549Y218684D01*
X50230Y219361D01*
X49855Y220004D01*
Y225934D01*
X50260Y225686D01*
X51678Y225099D01*
X53170Y224740D01*
X54700Y224620D01*
X56230Y224740D01*
X57722Y225099D01*
X59140Y225686D01*
X60449Y226488D01*
X61616Y227484D01*
X62612Y228651D01*
X63414Y229960D01*
X63638Y230500D01*
X87429D01*
X92000Y225929D01*
Y203854D01*
X91746Y203600D01*
X75452D01*
X74809Y203562D01*
X74181Y203411D01*
X73585Y203164D01*
X73035Y202827D01*
X72544Y202408D01*
X72441Y202288D01*
X71264Y202287D01*
X71111Y202250D01*
X70966Y202190D01*
X70831Y202108D01*
X70712Y202005D01*
X70609Y201886D01*
X70527Y201751D01*
X70467Y201606D01*
X70430Y201453D01*
X70421Y201296D01*
X70430Y197359D01*
X70467Y197206D01*
X70527Y197061D01*
X70609Y196926D01*
X70712Y196807D01*
X70831Y196704D01*
X70966Y196622D01*
X71111Y196562D01*
X71264Y196525D01*
X71421Y196516D01*
X72631Y196517D01*
X73035Y196173D01*
X73585Y195836D01*
X74181Y195589D01*
X74809Y195438D01*
X75452Y195400D01*
X91794D01*
X91934Y195280D01*
X92000Y195240D01*
Y182000D01*
X78358D01*
Y184712D01*
X79452Y184713D01*
X79605Y184750D01*
X79750Y184810D01*
X79885Y184892D01*
X80004Y184995D01*
X80107Y185114D01*
X80189Y185249D01*
X80249Y185394D01*
X80286Y185547D01*
X80295Y185704D01*
X80286Y189641D01*
X80249Y189794D01*
X80189Y189939D01*
X80107Y190074D01*
X80004Y190193D01*
X79885Y190296D01*
X79750Y190378D01*
X79605Y190438D01*
X79452Y190475D01*
X79295Y190484D01*
X76186Y190480D01*
X75829Y190566D01*
X75358Y190603D01*
X74887Y190566D01*
X74522Y190478D01*
X71264Y190475D01*
X71111Y190438D01*
X70966Y190378D01*
X70831Y190296D01*
X70712Y190193D01*
X70609Y190074D01*
X70527Y189939D01*
X70467Y189794D01*
X70430Y189641D01*
X70421Y189484D01*
G37*
G36*
X49855Y182000D02*X42704D01*
Y206900D01*
X43074D01*
X43820Y206966D01*
X44558Y207097D01*
X45281Y207293D01*
X45984Y207551D01*
X46661Y207870D01*
X47308Y208248D01*
X47919Y208681D01*
X47979Y208734D01*
X48028Y208796D01*
X48068Y208866D01*
X48096Y208940D01*
X48112Y209019D01*
X48116Y209098D01*
X48107Y209178D01*
X48086Y209255D01*
X48053Y209327D01*
X48009Y209394D01*
X47956Y209453D01*
X47893Y209503D01*
X47824Y209543D01*
X47749Y209571D01*
X47671Y209587D01*
X47591Y209591D01*
X47512Y209582D01*
X47435Y209561D01*
X47362Y209528D01*
X47296Y209483D01*
X46762Y209095D01*
X46192Y208762D01*
X45595Y208481D01*
X44975Y208253D01*
X44338Y208081D01*
X43688Y207965D01*
X43030Y207907D01*
X42704D01*
Y222893D01*
X43030D01*
X43688Y222835D01*
X44338Y222719D01*
X44975Y222547D01*
X45595Y222319D01*
X46192Y222038D01*
X46762Y221705D01*
X47301Y221323D01*
X47366Y221279D01*
X47437Y221246D01*
X47513Y221225D01*
X47591Y221217D01*
X47670Y221220D01*
X47747Y221236D01*
X47821Y221264D01*
X47889Y221303D01*
X47951Y221352D01*
X48004Y221410D01*
X48047Y221476D01*
X48079Y221548D01*
X48100Y221624D01*
X48109Y221702D01*
X48105Y221781D01*
X48089Y221858D01*
X48061Y221931D01*
X48022Y222000D01*
X47973Y222061D01*
X47914Y222113D01*
X47308Y222552D01*
X46661Y222930D01*
X45984Y223249D01*
X45281Y223507D01*
X44558Y223703D01*
X43820Y223834D01*
X43074Y223900D01*
X42704D01*
Y230500D01*
X45762D01*
X45986Y229960D01*
X46788Y228651D01*
X47784Y227484D01*
X48951Y226488D01*
X49855Y225934D01*
Y220004D01*
X49852Y220008D01*
X49419Y220619D01*
X49366Y220679D01*
X49304Y220728D01*
X49234Y220768D01*
X49160Y220796D01*
X49081Y220812D01*
X49002Y220816D01*
X48922Y220807D01*
X48845Y220786D01*
X48773Y220753D01*
X48706Y220709D01*
X48647Y220656D01*
X48597Y220593D01*
X48557Y220524D01*
X48529Y220449D01*
X48513Y220371D01*
X48509Y220291D01*
X48518Y220212D01*
X48539Y220135D01*
X48572Y220062D01*
X48617Y219996D01*
X49005Y219462D01*
X49338Y218892D01*
X49619Y218295D01*
X49847Y217675D01*
X49855Y217645D01*
Y213155D01*
X49847Y213125D01*
X49619Y212505D01*
X49338Y211908D01*
X49005Y211338D01*
X48623Y210799D01*
X48579Y210734D01*
X48546Y210663D01*
X48525Y210587D01*
X48517Y210509D01*
X48520Y210430D01*
X48536Y210353D01*
X48564Y210279D01*
X48603Y210211D01*
X48652Y210149D01*
X48710Y210096D01*
X48776Y210053D01*
X48848Y210021D01*
X48924Y210000D01*
X49002Y209991D01*
X49081Y209995D01*
X49158Y210011D01*
X49231Y210039D01*
X49300Y210078D01*
X49361Y210127D01*
X49413Y210186D01*
X49852Y210792D01*
X49855Y210796D01*
Y182000D01*
G37*
G36*
X42704D02*X35545D01*
Y210796D01*
X35548Y210792D01*
X35981Y210181D01*
X36034Y210121D01*
X36096Y210072D01*
X36166Y210032D01*
X36240Y210004D01*
X36319Y209988D01*
X36398Y209984D01*
X36478Y209993D01*
X36555Y210014D01*
X36627Y210047D01*
X36694Y210091D01*
X36753Y210144D01*
X36803Y210207D01*
X36843Y210276D01*
X36871Y210351D01*
X36887Y210429D01*
X36891Y210509D01*
X36882Y210588D01*
X36861Y210665D01*
X36828Y210738D01*
X36783Y210804D01*
X36395Y211338D01*
X36062Y211908D01*
X35781Y212505D01*
X35553Y213125D01*
X35545Y213155D01*
Y217645D01*
X35553Y217675D01*
X35781Y218295D01*
X36062Y218892D01*
X36395Y219462D01*
X36777Y220001D01*
X36821Y220066D01*
X36854Y220137D01*
X36875Y220213D01*
X36883Y220291D01*
X36880Y220370D01*
X36864Y220447D01*
X36836Y220521D01*
X36797Y220589D01*
X36748Y220651D01*
X36690Y220704D01*
X36624Y220747D01*
X36552Y220779D01*
X36476Y220800D01*
X36398Y220809D01*
X36319Y220805D01*
X36242Y220789D01*
X36169Y220761D01*
X36100Y220722D01*
X36039Y220673D01*
X35987Y220614D01*
X35548Y220008D01*
X35545Y220004D01*
Y227416D01*
X35919Y227681D01*
X35979Y227734D01*
X36028Y227796D01*
X36068Y227866D01*
X36096Y227940D01*
X36112Y228019D01*
X36116Y228098D01*
X36107Y228178D01*
X36086Y228255D01*
X36053Y228327D01*
X36009Y228394D01*
X35956Y228453D01*
X35893Y228503D01*
X35824Y228543D01*
X35749Y228571D01*
X35671Y228587D01*
X35591Y228591D01*
X35545Y228586D01*
Y230500D01*
X37099D01*
X37005Y230338D01*
X36623Y229799D01*
X36579Y229734D01*
X36546Y229663D01*
X36525Y229587D01*
X36517Y229509D01*
X36520Y229430D01*
X36536Y229353D01*
X36564Y229279D01*
X36603Y229211D01*
X36652Y229149D01*
X36710Y229096D01*
X36776Y229053D01*
X36848Y229021D01*
X36924Y229000D01*
X37002Y228991D01*
X37081Y228995D01*
X37158Y229011D01*
X37231Y229039D01*
X37300Y229078D01*
X37361Y229127D01*
X37413Y229186D01*
X37852Y229792D01*
X38230Y230439D01*
X38259Y230500D01*
X42704D01*
Y223900D01*
X42326D01*
X41579Y223834D01*
X40842Y223703D01*
X40119Y223507D01*
X39416Y223249D01*
X38739Y222930D01*
X38092Y222552D01*
X37481Y222119D01*
X37421Y222066D01*
X37372Y222004D01*
X37332Y221934D01*
X37304Y221860D01*
X37288Y221781D01*
X37284Y221702D01*
X37293Y221622D01*
X37314Y221545D01*
X37347Y221473D01*
X37391Y221406D01*
X37444Y221347D01*
X37507Y221297D01*
X37576Y221257D01*
X37651Y221229D01*
X37729Y221213D01*
X37809Y221209D01*
X37888Y221218D01*
X37965Y221239D01*
X38038Y221272D01*
X38104Y221317D01*
X38638Y221705D01*
X39208Y222038D01*
X39805Y222319D01*
X40425Y222547D01*
X41062Y222719D01*
X41712Y222835D01*
X42370Y222893D01*
X42704D01*
Y207907D01*
X42370D01*
X41712Y207965D01*
X41062Y208081D01*
X40425Y208253D01*
X39805Y208481D01*
X39208Y208762D01*
X38638Y209095D01*
X38099Y209477D01*
X38034Y209521D01*
X37963Y209554D01*
X37887Y209575D01*
X37809Y209583D01*
X37730Y209580D01*
X37653Y209564D01*
X37579Y209536D01*
X37511Y209497D01*
X37449Y209448D01*
X37396Y209390D01*
X37353Y209324D01*
X37321Y209252D01*
X37300Y209176D01*
X37291Y209098D01*
X37295Y209019D01*
X37311Y208942D01*
X37339Y208869D01*
X37378Y208800D01*
X37427Y208739D01*
X37486Y208687D01*
X38092Y208248D01*
X38739Y207870D01*
X39416Y207551D01*
X40119Y207293D01*
X40842Y207097D01*
X41579Y206966D01*
X42326Y206900D01*
X42704D01*
Y182000D01*
G37*
G36*
X35545Y213155D02*X35381Y213762D01*
X35265Y214412D01*
X35207Y215070D01*
Y215730D01*
X35265Y216388D01*
X35381Y217038D01*
X35545Y217645D01*
Y213155D01*
G37*
G36*
Y228586D02*X35512Y228582D01*
X35435Y228561D01*
X35362Y228528D01*
X35296Y228483D01*
X34762Y228095D01*
X34192Y227762D01*
X33595Y227481D01*
X32975Y227253D01*
X32338Y227081D01*
X31688Y226965D01*
X31030Y226907D01*
X30704D01*
Y230500D01*
X35545D01*
Y228586D01*
G37*
G36*
Y182000D02*X30704D01*
Y225900D01*
X31074D01*
X31820Y225966D01*
X32558Y226097D01*
X33281Y226293D01*
X33984Y226551D01*
X34661Y226870D01*
X35308Y227248D01*
X35545Y227416D01*
Y220004D01*
X35170Y219361D01*
X34851Y218684D01*
X34593Y217981D01*
X34397Y217258D01*
X34266Y216521D01*
X34200Y215774D01*
Y215026D01*
X34266Y214280D01*
X34397Y213542D01*
X34593Y212819D01*
X34851Y212116D01*
X35170Y211439D01*
X35545Y210796D01*
Y182000D01*
G37*
G36*
X30704D02*X21000D01*
Y187505D01*
X21705Y187506D01*
X22000Y187483D01*
X22308Y187507D01*
X26235Y187514D01*
X26465Y187569D01*
X26683Y187659D01*
X26884Y187783D01*
X27064Y187936D01*
X27217Y188116D01*
X27341Y188317D01*
X27431Y188535D01*
X27486Y188765D01*
X27500Y189000D01*
X27493Y192889D01*
X27500Y193000D01*
Y211784D01*
X27517Y212000D01*
X27449Y212863D01*
X27247Y213705D01*
X26916Y214505D01*
X26463Y215243D01*
X25901Y215901D01*
X25737Y216041D01*
X21000Y220778D01*
Y230500D01*
X23141D01*
X23170Y230439D01*
X23548Y229792D01*
X23981Y229181D01*
X24034Y229121D01*
X24096Y229072D01*
X24166Y229032D01*
X24240Y229004D01*
X24319Y228988D01*
X24398Y228984D01*
X24478Y228993D01*
X24555Y229014D01*
X24627Y229047D01*
X24694Y229091D01*
X24753Y229144D01*
X24803Y229207D01*
X24843Y229276D01*
X24871Y229351D01*
X24887Y229429D01*
X24891Y229509D01*
X24882Y229588D01*
X24861Y229665D01*
X24828Y229738D01*
X24783Y229804D01*
X24395Y230338D01*
X24301Y230500D01*
X30704D01*
Y226907D01*
X30370D01*
X29712Y226965D01*
X29062Y227081D01*
X28425Y227253D01*
X27805Y227481D01*
X27208Y227762D01*
X26638Y228095D01*
X26099Y228477D01*
X26034Y228521D01*
X25963Y228554D01*
X25887Y228575D01*
X25809Y228583D01*
X25730Y228580D01*
X25653Y228564D01*
X25579Y228536D01*
X25511Y228497D01*
X25449Y228448D01*
X25396Y228390D01*
X25353Y228324D01*
X25321Y228252D01*
X25300Y228176D01*
X25291Y228098D01*
X25295Y228019D01*
X25311Y227942D01*
X25339Y227869D01*
X25378Y227800D01*
X25427Y227739D01*
X25486Y227687D01*
X26092Y227248D01*
X26739Y226870D01*
X27416Y226551D01*
X28119Y226293D01*
X28842Y226097D01*
X29579Y225966D01*
X30326Y225900D01*
X30704D01*
Y182000D01*
G37*
G36*
X26493Y187500D02*X37000D01*
Y163500D01*
X26493D01*
Y170145D01*
X26578Y170181D01*
X26679Y170243D01*
X26769Y170319D01*
X26845Y170409D01*
X26905Y170511D01*
X27122Y170980D01*
X27289Y171469D01*
X27409Y171972D01*
X27482Y172484D01*
X27506Y173000D01*
X27482Y173516D01*
X27409Y174028D01*
X27289Y174531D01*
X27122Y175020D01*
X26910Y175492D01*
X26849Y175593D01*
X26772Y175684D01*
X26682Y175761D01*
X26580Y175823D01*
X26493Y175860D01*
Y187500D01*
G37*
G36*
X22002Y187483D02*X22216Y187500D01*
X26493D01*
Y175860D01*
X26471Y175869D01*
X26355Y175897D01*
X26237Y175906D01*
X26119Y175897D01*
X26003Y175870D01*
X25893Y175824D01*
X25792Y175762D01*
X25702Y175686D01*
X25624Y175595D01*
X25562Y175494D01*
X25516Y175385D01*
X25489Y175269D01*
X25479Y175151D01*
X25488Y175032D01*
X25516Y174917D01*
X25563Y174808D01*
X25721Y174468D01*
X25842Y174112D01*
X25930Y173747D01*
X25982Y173375D01*
X26000Y173000D01*
X25982Y172625D01*
X25930Y172253D01*
X25842Y171888D01*
X25721Y171532D01*
X25567Y171190D01*
X25520Y171082D01*
X25493Y170967D01*
X25483Y170849D01*
X25493Y170732D01*
X25521Y170617D01*
X25566Y170508D01*
X25628Y170407D01*
X25705Y170318D01*
X25795Y170241D01*
X25895Y170180D01*
X26004Y170135D01*
X26119Y170107D01*
X26237Y170098D01*
X26355Y170108D01*
X26469Y170135D01*
X26493Y170145D01*
Y163500D01*
X22002D01*
Y167494D01*
X22516Y167518D01*
X23028Y167591D01*
X23531Y167711D01*
X24020Y167878D01*
X24492Y168090D01*
X24593Y168151D01*
X24684Y168228D01*
X24761Y168318D01*
X24823Y168420D01*
X24869Y168529D01*
X24897Y168645D01*
X24906Y168763D01*
X24897Y168881D01*
X24870Y168997D01*
X24824Y169107D01*
X24762Y169208D01*
X24686Y169298D01*
X24595Y169376D01*
X24494Y169438D01*
X24385Y169484D01*
X24269Y169511D01*
X24151Y169521D01*
X24032Y169512D01*
X23917Y169484D01*
X23808Y169437D01*
X23468Y169279D01*
X23112Y169158D01*
X22747Y169070D01*
X22375Y169018D01*
X22002Y169000D01*
Y177000D01*
X22375Y176982D01*
X22747Y176930D01*
X23112Y176842D01*
X23468Y176721D01*
X23810Y176567D01*
X23918Y176520D01*
X24033Y176493D01*
X24151Y176483D01*
X24268Y176493D01*
X24383Y176521D01*
X24492Y176566D01*
X24593Y176628D01*
X24682Y176705D01*
X24759Y176795D01*
X24820Y176895D01*
X24865Y177004D01*
X24893Y177119D01*
X24902Y177237D01*
X24892Y177355D01*
X24865Y177469D01*
X24819Y177578D01*
X24757Y177679D01*
X24681Y177769D01*
X24591Y177845D01*
X24489Y177905D01*
X24020Y178122D01*
X23531Y178289D01*
X23028Y178409D01*
X22516Y178482D01*
X22002Y178506D01*
Y187483D01*
G37*
G36*
X17507Y187500D02*X21784D01*
X22000Y187483D01*
X22002Y187483D01*
Y178506D01*
X22000Y178506D01*
X21484Y178482D01*
X20972Y178409D01*
X20469Y178289D01*
X19980Y178122D01*
X19508Y177910D01*
X19407Y177849D01*
X19316Y177772D01*
X19239Y177682D01*
X19177Y177580D01*
X19131Y177471D01*
X19103Y177355D01*
X19094Y177237D01*
X19103Y177119D01*
X19130Y177003D01*
X19176Y176893D01*
X19238Y176792D01*
X19314Y176702D01*
X19405Y176624D01*
X19506Y176562D01*
X19615Y176516D01*
X19731Y176489D01*
X19849Y176479D01*
X19968Y176488D01*
X20083Y176516D01*
X20192Y176563D01*
X20532Y176721D01*
X20888Y176842D01*
X21253Y176930D01*
X21625Y176982D01*
X22000Y177000D01*
X22002Y177000D01*
Y169000D01*
X22000Y169000D01*
X21625Y169018D01*
X21253Y169070D01*
X20888Y169158D01*
X20532Y169279D01*
X20190Y169433D01*
X20082Y169480D01*
X19967Y169507D01*
X19849Y169517D01*
X19732Y169507D01*
X19617Y169479D01*
X19508Y169434D01*
X19407Y169372D01*
X19318Y169295D01*
X19241Y169205D01*
X19180Y169105D01*
X19135Y168996D01*
X19107Y168881D01*
X19098Y168763D01*
X19108Y168645D01*
X19135Y168531D01*
X19181Y168422D01*
X19243Y168321D01*
X19319Y168231D01*
X19409Y168155D01*
X19511Y168095D01*
X19980Y167878D01*
X20469Y167711D01*
X20972Y167591D01*
X21484Y167518D01*
X22000Y167494D01*
X22002Y167494D01*
Y163500D01*
X17507D01*
Y170140D01*
X17529Y170131D01*
X17645Y170103D01*
X17763Y170094D01*
X17881Y170103D01*
X17997Y170130D01*
X18107Y170176D01*
X18208Y170238D01*
X18298Y170314D01*
X18376Y170405D01*
X18438Y170506D01*
X18484Y170615D01*
X18511Y170731D01*
X18521Y170849D01*
X18512Y170968D01*
X18484Y171083D01*
X18437Y171192D01*
X18279Y171532D01*
X18158Y171888D01*
X18070Y172253D01*
X18018Y172625D01*
X18000Y173000D01*
X18018Y173375D01*
X18070Y173747D01*
X18158Y174112D01*
X18279Y174468D01*
X18433Y174810D01*
X18480Y174918D01*
X18507Y175033D01*
X18517Y175151D01*
X18507Y175268D01*
X18479Y175383D01*
X18434Y175492D01*
X18372Y175593D01*
X18295Y175682D01*
X18205Y175759D01*
X18105Y175820D01*
X17996Y175865D01*
X17881Y175893D01*
X17763Y175902D01*
X17645Y175892D01*
X17531Y175865D01*
X17507Y175855D01*
Y187500D01*
G37*
G36*
X9000D02*X17507D01*
Y175855D01*
X17422Y175819D01*
X17321Y175757D01*
X17231Y175681D01*
X17155Y175591D01*
X17095Y175489D01*
X16878Y175020D01*
X16711Y174531D01*
X16591Y174028D01*
X16518Y173516D01*
X16494Y173000D01*
X16518Y172484D01*
X16591Y171972D01*
X16711Y171469D01*
X16878Y170980D01*
X17090Y170508D01*
X17151Y170407D01*
X17228Y170316D01*
X17318Y170239D01*
X17420Y170177D01*
X17507Y170140D01*
Y163500D01*
X9000D01*
Y187500D01*
G37*
G36*
X64000Y171500D02*X30500D01*
Y185500D01*
X64000D01*
Y171500D01*
G37*
G36*
X68500Y240500D02*X76929D01*
X78659Y238770D01*
X78664Y234308D01*
X78719Y234078D01*
X78809Y233860D01*
X78933Y233659D01*
X79086Y233479D01*
X79266Y233326D01*
X79467Y233202D01*
X79685Y233112D01*
X79915Y233057D01*
X80150Y233043D01*
X84876Y233053D01*
X94800Y223129D01*
Y206654D01*
X91746Y203600D01*
X75452D01*
X74809Y203562D01*
X74181Y203411D01*
X73585Y203164D01*
X73035Y202827D01*
X72544Y202408D01*
X72441Y202288D01*
X71264Y202287D01*
X71111Y202250D01*
X70966Y202190D01*
X70831Y202108D01*
X70712Y202005D01*
X70609Y201886D01*
X70527Y201751D01*
X70467Y201606D01*
X70430Y201453D01*
X70421Y201296D01*
X70424Y200000D01*
X68500D01*
Y240500D01*
G37*
G36*
X9000Y75500D02*X2000D01*
Y122000D01*
X9000D01*
Y75500D01*
G37*
G36*
X287000Y71000D02*X306500D01*
Y48500D01*
X287000D01*
Y71000D01*
G37*
G36*
X296792Y93500D02*X303941D01*
X304000Y93495D01*
X304235Y93514D01*
X304235Y93514D01*
X304465Y93569D01*
X304683Y93659D01*
X304884Y93783D01*
X305064Y93936D01*
X305102Y93981D01*
X307121Y96000D01*
X381500D01*
Y72917D01*
X380413Y72831D01*
X377890Y72226D01*
X375493Y71233D01*
X373281Y69877D01*
X371308Y68192D01*
X369623Y66219D01*
X368267Y64007D01*
X367274Y61610D01*
X366669Y59087D01*
X366465Y56500D01*
X366669Y53913D01*
X367274Y51390D01*
X368267Y48993D01*
X369623Y46781D01*
X371308Y44808D01*
X373281Y43123D01*
X375493Y41767D01*
X376139Y41500D01*
X296792D01*
Y71920D01*
X296800Y71919D01*
X297663Y71987D01*
X298505Y72189D01*
X299305Y72520D01*
X300043Y72973D01*
X300701Y73535D01*
X301263Y74193D01*
X301716Y74931D01*
X302047Y75731D01*
X302249Y76573D01*
X302300Y77436D01*
X302249Y78299D01*
X302047Y79141D01*
X301716Y79941D01*
X301263Y80679D01*
X300701Y81337D01*
X300043Y81899D01*
X299305Y82352D01*
X298505Y82683D01*
X297663Y82885D01*
X296800Y82953D01*
X296792Y82952D01*
Y93500D01*
G37*
G36*
X214500Y79007D02*Y90379D01*
X215121Y91000D01*
X222256D01*
X222369Y90869D01*
X222644Y90634D01*
X222953Y90444D01*
X223287Y90306D01*
X223639Y90221D01*
X224000Y90193D01*
X224361Y90221D01*
X224713Y90306D01*
X225047Y90444D01*
X225356Y90634D01*
X225631Y90869D01*
X225866Y91144D01*
X226056Y91453D01*
X226194Y91787D01*
X226279Y92139D01*
X226300Y92500D01*
X226279Y92861D01*
X226194Y93213D01*
X226075Y93500D01*
X296792D01*
Y82952D01*
X295937Y82885D01*
X295095Y82683D01*
X294295Y82352D01*
X293557Y81899D01*
X292899Y81337D01*
X292337Y80679D01*
X291884Y79941D01*
X291553Y79141D01*
X291351Y78299D01*
X291283Y77436D01*
X291351Y76573D01*
X291553Y75731D01*
X291884Y74931D01*
X292337Y74193D01*
X292899Y73535D01*
X293557Y72973D01*
X294295Y72520D01*
X295095Y72189D01*
X295937Y71987D01*
X296792Y71920D01*
Y41500D01*
X209750D01*
Y75068D01*
X210029Y75347D01*
X210096Y75404D01*
X210326Y75673D01*
X210326Y75673D01*
X210511Y75975D01*
X210615Y76226D01*
X210615Y76225D01*
X210766Y75862D01*
X210971Y75526D01*
X211227Y75227D01*
X211526Y74971D01*
X211862Y74766D01*
X212225Y74615D01*
X212608Y74523D01*
X213000Y74492D01*
X213392Y74523D01*
X213775Y74615D01*
X214138Y74766D01*
X214474Y74971D01*
X214773Y75227D01*
X215029Y75526D01*
X215234Y75862D01*
X215385Y76225D01*
X215477Y76608D01*
X215500Y77000D01*
X215477Y77392D01*
X215385Y77775D01*
X215234Y78138D01*
X215029Y78474D01*
X214773Y78773D01*
X214500Y79007D01*
G37*
G36*
X201850Y40500D02*X198150D01*
Y76520D01*
X198179Y76639D01*
X198200Y77000D01*
X198179Y77361D01*
X198150Y77480D01*
Y78417D01*
X198365Y78469D01*
X198583Y78559D01*
X198784Y78683D01*
X198964Y78836D01*
X199117Y79016D01*
X199241Y79217D01*
X199331Y79435D01*
X199386Y79665D01*
X199400Y79900D01*
X199394Y81100D01*
X200606D01*
X200614Y79665D01*
X200669Y79435D01*
X200759Y79217D01*
X200883Y79016D01*
X201036Y78836D01*
X201216Y78683D01*
X201417Y78559D01*
X201635Y78469D01*
X201850Y78417D01*
Y77480D01*
X201821Y77361D01*
X201793Y77000D01*
X201821Y76639D01*
X201850Y76520D01*
Y40500D01*
G37*
G36*
X189129Y75746D02*X189174Y75673D01*
X189174Y75673D01*
X189404Y75404D01*
X189471Y75347D01*
X190250Y74568D01*
Y42000D01*
X25269D01*
X26837Y42961D01*
X28834Y44666D01*
X30539Y46663D01*
X31911Y48902D01*
X32916Y51328D01*
X33529Y53882D01*
X33684Y56500D01*
X33529Y59118D01*
X32916Y61672D01*
X31911Y64098D01*
X30539Y66337D01*
X28834Y68334D01*
X26837Y70039D01*
X24598Y71411D01*
X24500Y71452D01*
Y89994D01*
X36184D01*
X37498Y88681D01*
X37536Y88636D01*
X37716Y88483D01*
X37917Y88359D01*
X38135Y88269D01*
X38365Y88214D01*
X38600Y88195D01*
X38659Y88200D01*
X43541D01*
X43600Y88195D01*
X43659Y88200D01*
X53141D01*
X53200Y88195D01*
X53435Y88214D01*
X53435Y88214D01*
X53665Y88269D01*
X53883Y88359D01*
X54084Y88483D01*
X54264Y88636D01*
X54302Y88681D01*
X59121Y93500D01*
X161441D01*
X161500Y93495D01*
X161735Y93514D01*
X161735Y93514D01*
X161965Y93569D01*
X162183Y93659D01*
X162384Y93783D01*
X162564Y93936D01*
X162602Y93981D01*
X166121Y97500D01*
X190679D01*
X186181Y93002D01*
X186136Y92964D01*
X185983Y92784D01*
X185859Y92583D01*
X185769Y92365D01*
X185714Y92135D01*
X185714Y92135D01*
X185695Y91900D01*
X185700Y91841D01*
Y78744D01*
X185569Y78631D01*
X185334Y78356D01*
X185144Y78047D01*
X185006Y77713D01*
X184921Y77361D01*
X184893Y77000D01*
X184921Y76639D01*
X185006Y76287D01*
X185144Y75953D01*
X185334Y75644D01*
X185569Y75369D01*
X185844Y75134D01*
X186153Y74944D01*
X186487Y74806D01*
X186839Y74721D01*
X187200Y74693D01*
X187561Y74721D01*
X187913Y74806D01*
X188247Y74944D01*
X188556Y75134D01*
X188831Y75369D01*
X189066Y75644D01*
X189129Y75746D01*
G37*
G36*
X106107Y93123D02*X105825Y93312D01*
X105708Y93500D01*
X107010D01*
X106650Y93150D01*
X106107Y93117D01*
Y93123D01*
G37*
G36*
X317507Y125000D02*X353256D01*
X353369Y124869D01*
X353644Y124634D01*
X353953Y124444D01*
X354287Y124306D01*
X354639Y124221D01*
X355000Y124193D01*
X355361Y124221D01*
X355713Y124306D01*
X356047Y124444D01*
X356356Y124634D01*
X356631Y124869D01*
X356866Y125144D01*
X357056Y125453D01*
X357194Y125787D01*
X357279Y126139D01*
X357300Y126500D01*
X357279Y126861D01*
X357194Y127213D01*
X357056Y127547D01*
X356866Y127856D01*
X356631Y128131D01*
X356356Y128366D01*
X356138Y128500D01*
X356441D01*
X356500Y128495D01*
X356735Y128514D01*
X356735Y128514D01*
X356965Y128569D01*
X357183Y128659D01*
X357384Y128783D01*
X357564Y128936D01*
X357602Y128981D01*
X361019Y132398D01*
X361064Y132436D01*
X361217Y132615D01*
X361217Y132616D01*
X361341Y132817D01*
X361431Y133035D01*
X361486Y133265D01*
X361505Y133500D01*
X361500Y133559D01*
Y136000D01*
X381500D01*
Y74000D01*
X313000D01*
Y126402D01*
X313023Y126108D01*
X313115Y125725D01*
X313266Y125362D01*
X313471Y125026D01*
X313727Y124727D01*
X314026Y124471D01*
X314362Y124266D01*
X314725Y124115D01*
X315108Y124023D01*
X315500Y123992D01*
X315892Y124023D01*
X316275Y124115D01*
X316638Y124266D01*
X316974Y124471D01*
X317273Y124727D01*
X317507Y125000D01*
G37*
G36*
X381500Y126500D02*X361500D01*
Y133441D01*
X361505Y133500D01*
X361500Y133559D01*
Y137500D01*
X381500D01*
Y126500D01*
G37*
G54D12*X36000Y150500D02*X33500Y153000D01*
X22000D01*
X40000Y150500D02*Y162000D01*
X44000Y166000D01*
X54657D01*
G54D13*X22000Y193000D02*Y212000D01*
X13500Y220500D01*
Y244000D01*
X21500Y252000D01*
G54D14*X47500Y264500D02*Y241600D01*
X54700Y234400D01*
G54D13*X47000Y252000D02*X21500D01*
G54D15*X47500Y277500D02*X57000D01*
G54D14*X54500Y234600D02*X54700Y234400D01*
G54D15*X57000Y277500D02*X73500Y261000D01*
X73750Y260750D02*Y250750D01*
X83479Y241021D01*
G54D16*X83500Y241043D02*X83300Y240843D01*
G54D15*X83729Y241271D02*X100000Y225000D01*
Y204500D01*
X95000Y199500D01*
G54D17*X75452D01*
G54D18*X75358Y199406D01*
G54D19*X79650Y150500D02*X87000D01*
X79650Y155500D02*X92000D01*
X94500Y153000D01*
X86500Y150500D02*X91000D01*
G54D16*X117000Y283000D02*Y275043D01*
Y267457D02*Y257500D01*
G54D12*X59150Y150500D02*X36000D01*
X45500Y155500D02*X59150D01*
Y145500D02*X49500D01*
X47000Y143000D01*
X67000D02*Y155500D01*
X79650Y145500D02*X74500D01*
G54D19*X79650Y140500D02*X87000D01*
G54D12*X74500Y145500D02*X72500Y143500D01*
X59150Y140500D02*X64500D01*
X67000Y143000D01*
X45000Y131000D02*X54457D01*
X39000Y133000D02*X41000Y131000D01*
X49000D01*
X61543Y130000D02*X71600D01*
X31000Y133000D02*X22000D01*
X29000D02*X39000D01*
X47000Y143000D02*Y131000D01*
X72000Y143000D02*Y137500D01*
X73500Y136000D01*
X76500D01*
X78400Y130000D02*Y134100D01*
X76500Y136000D01*
X61743Y166000D02*X71600D01*
G54D16*X59500Y176500D02*X68957D01*
G54D12*X67000Y155500D02*X71000Y159500D01*
G54D16*X68957Y176500D02*Y176543D01*
G54D12*X71000Y159500D02*X76500D01*
X78000Y161000D01*
X78400Y166000D02*Y161400D01*
X76500Y159500D01*
G54D16*X75358Y187594D02*Y174642D01*
X78000Y172000D01*
X78400Y166100D02*Y171600D01*
X77250Y172750D01*
G54D19*X79000Y171000D02*X98000D01*
G54D12*X32900Y103300D02*X19706D01*
X19700Y103306D01*
G54D19*Y95431D02*X36531D01*
X38500Y97400D01*
G54D12*X19700Y99369D02*X35769D01*
X37300Y100900D01*
G54D19*X38500Y97400D02*X48900D01*
G54D12*X37300Y100900D02*X47900D01*
G54D19*X40500Y94104D02*Y97400D01*
X43650Y94104D02*Y89750D01*
X43600Y89700D01*
X19700Y91494D02*X36806D01*
X38600Y89700D01*
X48900D01*
X48700D02*X53200D01*
X58500Y95000D01*
X105500Y161000D02*Y173500D01*
X107000Y175000D01*
X98000Y171000D02*X102000Y167000D01*
Y163376D01*
X102152Y163224D01*
X108848Y160075D02*X106425D01*
X105500Y161000D01*
X108848Y163224D02*X118724D01*
X108848Y156925D02*X118575D01*
X120776Y163224D02*X123000Y161000D01*
X119500Y156000D02*X127957D01*
X128000Y165500D02*Y169500D01*
X129000Y170500D01*
X107000Y175000D02*X127957D01*
X117276Y163224D02*X120776D01*
X108848Y153776D02*X118224D01*
X102152Y160075D02*Y153776D01*
X95500Y157000D02*X102152D01*
X94500Y153000D02*Y139000D01*
X98000Y135500D01*
X92500Y138000D02*X97500Y133000D01*
X87000Y140500D02*X97000Y130500D01*
X98000Y132500D02*X96500Y134000D01*
X91000Y150500D02*X92500Y149000D01*
Y138000D01*
G54D16*X163000Y197500D02*X174500Y209000D01*
G54D19*X135043Y175000D02*X163000D01*
X129000Y170500D02*X151500D01*
G54D16*X47900Y100900D02*X158400D01*
X163000Y105500D01*
G54D19*X48000Y97400D02*X160900D01*
X167500Y104000D01*
X58500Y95000D02*X161500D01*
X170000Y103500D01*
X118575Y156925D02*X119500Y156000D01*
X118224Y153776D02*X119500Y152500D01*
Y148500D01*
X121500Y146500D01*
X127957D01*
X97000Y130500D02*X157500D01*
X98000Y135500D02*X150000D01*
X98000Y132500D02*X152000D01*
X135000Y156000D02*X143000D01*
X123000Y161000D02*X134500D01*
G54D16*X163000Y105500D02*Y197500D01*
G54D19*Y166000D02*X176152D01*
X156500Y165500D02*X158500Y163500D01*
Y131500D01*
X157500Y130500D02*X158500Y131500D01*
X167500Y104000D02*Y133500D01*
X170000Y103500D02*Y132000D01*
X167500Y140500D02*X176500D01*
X167500Y133500D02*X172000Y138000D01*
X170000Y132000D02*X173500Y135500D01*
X174500Y120000D02*X172500Y122000D01*
Y131000D01*
X174500Y133000D01*
X153000Y140500D02*Y133500D01*
X152000Y132500D02*X153000Y133500D01*
X144500Y154500D02*Y138500D01*
X135043Y146500D02*Y142957D01*
X139500Y138500D01*
X143000Y156000D02*X144500Y154500D01*
X151500Y170500D02*X157500Y164500D01*
X134500Y161000D02*X135000Y161500D01*
Y165457D01*
X135043Y165500D01*
G54D12*X87205Y27858D02*X112795D01*
X112858D02*X140858D01*
X147000Y34000D01*
X186000D01*
X220505Y27858D02*X246095D01*
X312795D02*X287205D01*
X287000D02*X257142D01*
X195600Y32100D02*X191500Y28000D01*
X153905Y27858D02*X191358D01*
X194500Y31000D01*
X208642Y27858D02*X205500Y31000D01*
X221000Y27858D02*X208642D01*
X257142D02*X251000Y34000D01*
X214500D01*
X216500D02*X209500D01*
X195900Y32400D02*X192500Y29000D01*
X204100Y32400D02*X207000Y29500D01*
X190500Y34000D02*X182500D01*
G54D16*X353500Y273000D02*Y260000D01*
X343500Y262914D02*Y280500D01*
Y262914D02*X346414Y260000D01*
G54D12*X346550Y259864D02*X346207Y260207D01*
X346500Y259914D02*X346457Y259957D01*
X351500Y253500D02*X343500D01*
G54D19*X341500Y250500D02*X345000Y247000D01*
X306000Y265500D02*X313500Y273000D01*
X308500Y258000D02*X323500Y273000D01*
X312000Y250500D02*X328600D01*
X327500D02*X337500D01*
G54D12*X343500Y253500D02*X333500Y263500D01*
Y273000D02*Y263500D01*
X336000Y261000D01*
G54D19*Y250500D02*X341500D01*
X341100Y227400D02*X360500D01*
X362500Y225400D01*
X365000Y226400D02*X361700Y229700D01*
X359900Y231500D02*X363450Y227950D01*
X362500Y225400D02*Y211500D01*
X365000Y216600D02*Y226400D01*
X342500Y231500D02*X359900D01*
X329900Y224400D02*Y215100D01*
X331000Y214000D01*
X344000D01*
X345000Y213000D01*
X333000Y211000D02*X326500D01*
X328000D02*X326500D01*
X342000D02*X331000D01*
X331100Y233500D02*X332800D01*
X333900Y234600D01*
X331100Y228500D02*X332800D01*
X333900Y227400D01*
X317500Y248000D02*X340500D01*
X342500Y246000D01*
X333900Y227400D02*X341700D01*
X333900Y234600D02*X339400D01*
X342500Y231500D01*
X326100Y228200D02*X329900Y224400D01*
G54D12*X367700Y232300D02*Y239450D01*
G54D20*X372000Y216000D02*Y233000D01*
G54D12*X379000Y226000D02*Y210543D01*
X367700Y239450D02*X367550Y239600D01*
X367500Y254000D02*Y247450D01*
X367550Y247400D01*
X354750Y243500D02*Y250250D01*
X351500Y253500D01*
G54D19*X343500Y235000D02*Y245000D01*
X341250Y247250D01*
X347500Y244500D02*X344000Y248000D01*
X347500Y231500D02*Y244500D01*
G54D16*X213500Y273000D02*Y284000D01*
G54D19*Y265000D02*Y274000D01*
G54D12*X203400Y273100D02*X203500Y273000D01*
G54D19*X202100Y251400D02*X208400D01*
X209500Y252500D01*
Y261000D01*
X202100Y247500D02*X203500D01*
X206500Y242500D02*X209500Y245500D01*
X203500Y247500D02*X207500Y243500D01*
X193900Y247500D02*X195900D01*
X199000Y244400D01*
X209500Y261000D02*X213500Y265000D01*
X188000Y251500D02*X193800D01*
X193900Y251400D01*
G54D12*X194000Y263500D02*Y255200D01*
X202100Y255300D02*Y261100D01*
X203500Y262500D01*
Y273000D01*
G54D19*X222926Y206479D02*Y254926D01*
X219776Y206479D02*Y254776D01*
X217000Y198000D02*Y249000D01*
X214000Y252000D02*Y200702D01*
X212021Y198723D01*
X212000Y254000D02*Y206000D01*
G54D12*X229225Y206479D02*Y225175D01*
X238674Y206479D02*Y216769D01*
X236000Y219443D01*
X238674Y211500D02*Y198326D01*
X229225Y225175D02*X229200Y225200D01*
X236000Y235000D02*Y219443D01*
G54D19*X230700Y240400D02*X235900D01*
X230000D02*X232200D01*
X235900D02*X237100Y241600D01*
Y251100D01*
X238500Y252500D01*
X229000Y243000D02*Y241400D01*
X226000Y245500D02*Y254500D01*
X233000Y243000D02*Y253000D01*
X234500Y254500D01*
X229000Y241400D02*X230000Y240400D01*
X226500Y258500D02*X250500D01*
X243500Y273000D02*Y262500D01*
X241500Y260500D01*
X228000Y256500D02*X253000D01*
X258500Y262000D01*
X234500Y254500D02*X254500D01*
X259500Y259500D01*
X238500Y252500D02*X255000D01*
X258000Y255500D01*
X225500Y260500D02*X220000Y255000D01*
X219776Y254776D02*X223250Y258250D01*
X224500Y262500D02*X214000Y252000D01*
X223500Y265500D02*X212000Y254000D01*
X222926Y254926D02*X226500Y258500D01*
X241500Y260500D02*X225500D01*
X233500Y273000D02*Y265000D01*
X231000Y262500D01*
X224500D01*
X223500Y265500D02*Y273000D01*
X226000Y254500D02*X228000Y256500D01*
X259000Y211457D02*X258957Y211500D01*
X241823Y206479D02*X247979D01*
X253000Y211500D01*
X256000Y211000D02*X258500D01*
X259000Y211500D01*
G54D12*Y241000D02*X242000D01*
X236000Y235000D01*
G54D19*X249579Y198724D02*Y204579D01*
Y195574D02*X253574D01*
X254500Y196500D01*
Y205000D01*
X249579Y204579D02*X256000Y211000D01*
X254500Y205000D02*X256500Y207000D01*
X253000Y211500D02*Y235000D01*
X259500Y227760D02*Y212043D01*
X258957Y211500D01*
X206500Y210500D02*Y242500D01*
X212000Y206000D02*X207000Y201000D01*
X209400Y240500D02*Y209400D01*
X205600Y205600D01*
X209400Y238600D02*Y241500D01*
X203000Y211500D02*Y236000D01*
X199000Y237500D02*Y211000D01*
X188500Y200500D01*
X199000Y236700D02*Y244400D01*
X203000Y239000D02*Y234000D01*
X285000Y200250D02*Y208500D01*
X282000Y211500D01*
X290000Y200250D02*Y210000D01*
X285000Y215000D01*
X275500Y218000D02*X289000D01*
X269500Y218500D02*X273000Y215000D01*
X276000D01*
X274500Y219000D02*X275500Y218000D01*
X278000D01*
X289000D02*X293500Y213500D01*
Y196000D01*
X292000Y194500D01*
X279000Y207000D02*X280000Y206000D01*
Y195500D01*
X285000Y215000D02*X273000D01*
X282000Y211500D02*X266043D01*
X269000Y207000D02*X279000D01*
X256500D02*X270500D01*
X307100Y206900D02*X310700D01*
X301500D02*X308600D01*
X310700D02*X311600Y207800D01*
X299900Y208500D02*X301500Y206900D01*
G54D12*X275000Y194500D02*X277500Y192000D01*
X296500D01*
G54D19*X255425Y192425D02*X257500Y194500D01*
Y204000D01*
X261500D02*X260000Y202500D01*
Y194300D01*
X258350Y192650D01*
X292000Y194500D02*X281000D01*
X280000Y195500D01*
G54D12*X275000Y200250D02*Y194500D01*
G54D19*X264000Y195000D02*Y201500D01*
X267000Y198500D02*Y195000D01*
X270000Y196000D02*Y195000D01*
G54D12*X340000Y199000D02*Y193453D01*
X330500Y199000D02*Y193287D01*
X330412Y193199D01*
G54D19*X345100Y198800D02*Y193275D01*
X345176Y193199D01*
X345043Y196057D02*X345100Y196000D01*
G54D12*X340000Y193453D02*X340254Y193199D01*
X337957Y206000D02*Y201043D01*
X340000Y199000D01*
G54D19*X345043Y206000D02*Y196057D01*
X345000Y213000D02*Y204586D01*
X345043Y204543D01*
X326500Y205000D02*X317500Y196000D01*
X313000Y197500D02*X324000Y208500D01*
X326500Y211000D02*X322500Y207000D01*
X313000Y192500D02*Y197500D01*
X310000Y192000D02*X308000Y194000D01*
G54D12*X384546Y193199D02*Y198540D01*
X379086Y204000D01*
X379600Y197100D02*Y193223D01*
X379624Y193199D01*
G54D19*X373500Y198000D02*X374500Y197000D01*
G54D12*X371728Y204972D02*X379600Y197100D01*
G54D19*X374500Y197000D02*Y193402D01*
X374703Y193199D01*
X369500Y197500D02*Y193481D01*
X369782Y193199D01*
G54D12*X379043Y217500D02*Y204043D01*
X381043Y202043D01*
X379000Y210543D02*X379043Y210500D01*
X372000Y217457D02*X371957Y217500D01*
G54D16*X371728Y217728D02*Y207772D01*
G54D19*X365000Y219100D02*Y206500D01*
X362500Y212500D02*Y204500D01*
X369500Y197500D01*
G54D16*X371728Y207772D02*X372000Y207500D01*
G54D12*X371728Y207700D02*Y204972D01*
G54D19*X365000Y206500D02*X373900Y197600D01*
X355018Y193199D02*Y205982D01*
X350000Y211000D01*
X250500Y258500D02*X253500Y261500D01*
X258500Y262000D02*X294500D01*
X299500Y257000D01*
X259500Y259500D02*X293000D01*
X296000Y256500D01*
X281400Y220500D02*X296900D01*
X299900Y217500D01*
Y214100D01*
X299500Y257000D02*Y250500D01*
X296000Y256500D02*Y248500D01*
X299500Y245000D01*
X258000Y255500D02*X289500D01*
X291500Y253500D01*
X272750Y237250D02*X274500Y235500D01*
Y219000D01*
X291500Y253500D02*Y220500D01*
X306000Y259500D02*Y265500D01*
X303500Y273000D02*Y214500D01*
X306000Y260000D02*Y213000D01*
Y215500D02*Y212500D01*
X299900Y214800D02*Y208500D01*
X308500Y258000D02*Y227000D01*
Y232500D02*Y211500D01*
Y214000D02*Y211500D01*
Y213500D02*Y210000D01*
X311600Y207800D02*Y229200D01*
G54D12*X323600Y231000D02*X321100Y228500D01*
G54D19*X326100D02*Y228200D01*
X311600Y229200D02*X313400Y231000D01*
X318600D01*
X321100Y233500D01*
X328600Y231000D02*X326100Y233500D01*
X312000Y245000D02*X314500D01*
X317500Y248000D01*
X253500Y261500D02*Y273000D01*
X279000Y231000D02*Y222900D01*
X281400Y220500D01*
X269500Y227760D02*Y218500D01*
Y227500D02*Y232500D01*
X253000Y235000D02*X254500Y236500D01*
X263500D01*
X269500Y245240D02*Y240500D01*
X273250Y236750D01*
X269500Y232500D02*X265500Y236500D01*
X262000D01*
X238674Y159631D02*X234043Y155000D01*
X234000Y138000D02*Y155000D01*
X247000Y138000D02*Y155000D01*
X241824Y160633D02*X247457Y155000D01*
G54D12*X227543D02*Y145543D01*
G54D16*X254543Y155000D02*Y159043D01*
G54D19*X210500Y147500D02*X213500Y150500D01*
Y158000D01*
X215500Y160000D01*
X220500D01*
G54D12*X226100Y173800D02*Y163400D01*
X232400Y173800D02*Y163500D01*
G54D21*X235600Y176500D02*Y168996D01*
X229200Y176900D02*Y168946D01*
G54D19*X238674Y168921D02*Y159631D01*
X241824Y168921D02*Y160633D01*
G54D16*X242000Y176500D02*X247000Y171500D01*
X247500Y171000D02*X245750Y172750D01*
G54D22*X288405Y162500D02*Y169595D01*
G54D12*X296800Y122057D02*Y172000D01*
G54D19*X301000Y97500D02*X264500D01*
X220500Y160000D02*X222926Y162426D01*
X287500Y129500D02*X207500D01*
X209500Y125500D02*X284000D01*
X220500Y95000D02*X303500D01*
X212500Y97500D02*X268500D01*
X303000D02*X297500D01*
X303000Y95000D02*X304000D01*
X224000Y100000D02*X300500D01*
X211648Y106825D02*X209825D01*
X211648Y103676D02*X217824D01*
X211648Y109975D02*X217525D01*
X209825Y106825D02*X208500Y105500D01*
Y97500D01*
X204952Y113124D02*Y103676D01*
X217824D02*X218000Y103500D01*
X217525Y109975D02*X224000Y103500D01*
Y100000D02*Y103500D01*
X222250Y105250D01*
X224000Y92500D02*X221200D01*
X211648Y113124D02*Y116352D01*
X208000Y120000D01*
X216000Y95000D02*X223000D01*
X214500Y97500D02*X198000D01*
X218000Y95000D02*X198000D01*
X213000Y91000D02*X214500Y92500D01*
X224000D01*
X212021Y195574D02*X208426D01*
X212021Y189275D02*X201225D01*
X212021Y192424D02*X204576D01*
X204500Y192500D01*
X208426Y195574D02*X207000Y197000D01*
Y201000D01*
X194000Y198000D02*X206500Y210500D01*
X191000Y199500D02*X203000Y211500D01*
X197000Y197000D02*X206350Y206350D01*
X201225Y189275D02*X201000Y189500D01*
X212021Y186125D02*X198375D01*
X197000Y187500D01*
X197025Y182975D02*X194000Y186000D01*
X197000Y187500D02*Y197000D01*
X194000Y186000D02*Y198000D01*
X191000Y184000D02*Y199500D01*
X197000Y195800D02*Y197000D01*
X212021Y182975D02*X197025D01*
X212021Y179826D02*X195174D01*
X201000Y170000D02*X211500D01*
X212021Y176676D02*X201676D01*
X199000Y174000D01*
X197224Y172224D02*X200750Y175750D01*
X195174Y179826D02*X191000Y184000D01*
X196674Y179826D02*X186174D01*
X186000Y180000D01*
X179500Y175000D02*Y191500D01*
X189500Y201500D01*
X183000Y172224D02*Y176500D01*
X205500Y165086D02*X210086D01*
X216750Y171750D01*
X205500Y153000D02*Y158000D01*
X211500Y170000D02*X215000Y173500D01*
X205828Y165000D02*X205914Y165086D01*
X182848Y165925D02*X196925D01*
X201000Y170000D01*
X182848Y162776D02*X198276D01*
X200500Y165000D01*
X205828D01*
X182848Y172224D02*X197224D01*
X183500Y150000D02*X189500Y156000D01*
X186000Y149500D02*X188500Y152000D01*
X192000D01*
X191000Y147500D02*X210500D01*
X212625Y186125D02*X217875D01*
X218500Y185500D01*
X215525Y182975D02*X216500Y182000D01*
X211975Y182975D02*X215525D01*
X218500Y185500D02*Y173500D01*
X216500Y182000D02*Y175000D01*
X220500Y173000D02*Y186500D01*
X218500Y173500D02*X216500Y171500D01*
Y175000D02*X214500Y173000D01*
X219777Y168921D02*Y172277D01*
X220500Y173000D01*
X222926Y168921D02*Y162426D01*
X220500Y186500D02*X217000Y190000D01*
Y199500D01*
G54D12*X330500Y135000D02*Y141513D01*
G54D19*X320500Y130000D02*X356500D01*
G54D12*X330500Y141513D02*X330412Y141601D01*
X394388D02*Y138388D01*
X391000Y135000D01*
X372500D01*
X384546Y141601D02*Y135046D01*
X384500Y135000D01*
G54D19*X356500Y130000D02*X360000Y133500D01*
Y141540D01*
X359939Y141601D01*
X355000Y134000D02*Y141583D01*
X355018Y141601D01*
X355000Y126500D02*X316000D01*
G54D22*X285000Y173000D02*X287000Y171000D01*
G54D12*X296800Y172000D02*X298700Y173900D01*
G54D22*X276595Y162500D02*Y169595D01*
X279250Y172250D01*
G54D16*X270500Y171000D02*X257500D01*
G54D19*X272000Y170000D02*X270750Y171250D01*
G54D22*X288405Y169595D02*X285750Y172250D01*
X280000Y179750D02*Y173000D01*
X278000Y171000D01*
X285000Y179750D02*Y173000D01*
G54D16*X275000Y179750D02*Y175500D01*
X270500Y171000D01*
G54D12*X298700Y173900D02*Y189800D01*
X296500Y192000D01*
G54D19*X304500Y194000D02*Y190500D01*
X305500Y189500D01*
X302500Y188000D02*Y185000D01*
X304000Y183500D01*
X249604Y189300D02*X249579Y189275D01*
Y192425D02*X255425D01*
X255000Y189300D02*X250000D01*
X249579Y186125D02*X255125D01*
G54D16*X258957Y171000D02*X247500D01*
G54D19*X259500Y193800D02*X255000Y189300D01*
X255125Y186125D02*X264000Y195000D01*
X267000D02*X255000Y183000D01*
X249603D01*
X249579Y179826D02*X254826D01*
X249579Y176677D02*X255677D01*
X249603Y183000D02*X249579Y182976D01*
X270000Y195000D02*X255000Y180000D01*
X254826Y179826D02*X258000Y183000D01*
X255677Y176677D02*X271500Y192500D01*
X317500Y196000D02*Y133000D01*
X313000Y129500D02*Y196000D01*
X317500Y133000D02*X320500Y130000D01*
X315500Y126500D02*X318500D01*
X304000Y183500D02*Y103500D01*
X304500Y190500D02*X307000Y188000D01*
Y101500D01*
X300500Y100000D02*X303500Y103000D01*
X304000Y103500D02*X300500Y100000D01*
X307000Y101500D02*X303000Y97500D01*
X304000Y95000D02*X310000Y101000D01*
Y192000D01*
X176152Y165925D02*Y162776D01*
X179500Y175500D02*Y159000D01*
Y143500D02*Y163000D01*
X176152Y172224D02*Y176348D01*
X176000Y176500D01*
X176500Y140500D02*X179500Y143500D01*
X176500Y140500D02*X178250Y142250D01*
X172000Y138000D02*X180500D01*
X183500Y141000D02*Y150000D01*
X186000Y140000D02*Y149500D01*
X173500Y135500D02*X181500D01*
X208000Y120000D02*X174500D01*
Y133000D02*X182500D01*
X176000Y129500D02*X210000D01*
X180500Y138000D02*X183500Y141000D01*
X181500Y135500D02*X186000Y140000D01*
X182500Y133000D02*X189000Y139500D01*
Y145500D01*
X191000Y147500D01*
X176000Y125500D02*X210000D01*
X177000Y110000D02*X204952D01*
G54D12*X177000D02*X200000D01*
X195900Y81100D02*Y32400D01*
X192500Y75500D02*Y36000D01*
X190500Y34000D01*
X204100Y81100D02*Y32400D01*
X209500Y34000D02*X207500Y36000D01*
Y76000D01*
X200000Y76900D02*Y89000D01*
X191000Y88000D02*Y77000D01*
G54D19*X187200D02*Y91900D01*
X192800Y97500D01*
G54D12*X191000Y77000D02*X192500Y75500D01*
X207500Y76000D02*X208500Y77000D01*
Y85500D01*
X204100Y88900D02*X207600D01*
X208500Y88000D01*
Y83000D01*
G54D19*X213000Y77000D02*Y91000D01*
G54D12*X195900Y85000D02*X204100D01*
X195900Y88900D02*X191900D01*
X191000Y88000D01*
G54D19*X196000Y89000D02*X195900Y88900D01*
X195750Y88750D02*Y92750D01*
X198000Y95000D01*
X192800Y97500D02*X201000D01*
G54D11*G36*
X18000Y157000D02*Y149000D01*
X26000D01*
Y157000D01*
X18000D01*
G37*
G54D14*X22000Y133000D03*
G54D11*G36*
X18000Y197000D02*Y189000D01*
X26000D01*
Y197000D01*
X18000D01*
G37*
G54D14*X22000Y173000D03*
G54D23*X17000Y56500D03*
G54D24*X112795Y10142D03*
X179495D03*
X153905D03*
X87205D03*
Y27858D03*
X112795D03*
X179495D03*
X153905D03*
X246095D03*
X220505D03*
G54D23*X383000Y273000D03*
Y56500D03*
G54D24*X246095Y10142D03*
X220505D03*
X312795D03*
X287205D03*
X312795Y27858D03*
X287205D03*
G54D14*X296800Y77436D03*
Y106964D03*
G54D17*X293500Y273000D03*
X283500D03*
X273500D03*
X263500D03*
X253500D03*
G54D11*G36*
X350500Y276000D02*Y270000D01*
X356500D01*
Y276000D01*
X350500D01*
G37*
G54D17*X343500Y273000D03*
X333500D03*
X323500D03*
X313500D03*
X303500D03*
G54D23*X17000D03*
G54D25*X93500Y261000D03*
X83500D03*
G54D11*G36*
X69563Y264937D02*Y257063D01*
X77437D01*
Y264937D01*
X69563D01*
G37*
G54D26*X54700Y234400D03*
G54D27*X30700D03*
X42700Y215400D03*
G54D17*X243500Y273000D03*
X233500D03*
X223500D03*
X213500D03*
X203500D03*
G54D11*G36*
X16649Y104487D02*Y102125D01*
X22751D01*
Y104487D01*
X16649D01*
G37*
G36*
Y100550D02*Y98188D01*
X22751D01*
Y100550D01*
X16649D01*
G37*
G36*
Y96612D02*Y94250D01*
X22751D01*
Y96612D01*
X16649D01*
G37*
G36*
X41336Y95875D02*X39664D01*
Y92332D01*
X41336D01*
Y95875D01*
G37*
G36*
X44486D02*X42814D01*
Y92332D01*
X44486D01*
Y95875D01*
G37*
G36*
Y102571D02*X42814D01*
Y99028D01*
X44486D01*
Y102571D01*
G37*
G36*
X41336D02*X39664D01*
Y99028D01*
X41336D01*
Y102571D01*
G37*
G36*
X16649Y92675D02*Y90313D01*
X22751D01*
Y92675D01*
X16649D01*
G37*
G36*
X901Y110786D02*Y106062D01*
X7987D01*
Y110786D01*
X901D01*
G37*
G36*
Y88738D02*Y84014D01*
X7987D01*
Y88738D01*
X901D01*
G37*
G54D17*X71600Y166000D03*
G54D11*G36*
X74600Y169000D02*X71600D01*
Y163000D01*
X74600D01*
Y169000D01*
G37*
G36*
X57216Y168952D02*X52098D01*
Y163048D01*
X57216D01*
Y168952D01*
G37*
G36*
X64302D02*X59184D01*
Y163048D01*
X64302D01*
Y168952D01*
G37*
G36*
X54900Y156500D02*Y154500D01*
X63400D01*
Y156500D01*
X54900D01*
G37*
G36*
X100380Y157762D02*Y156088D01*
X103923D01*
Y157762D01*
X100380D01*
G37*
G36*
Y154612D02*Y152940D01*
X103923D01*
Y154612D01*
X100380D01*
G37*
G36*
X107077D02*Y152940D01*
X110620D01*
Y154612D01*
X107077D01*
G37*
G36*
Y157762D02*Y156088D01*
X110620D01*
Y157762D01*
X107077D01*
G37*
G36*
Y160912D02*Y159238D01*
X110620D01*
Y160912D01*
X107077D01*
G37*
G36*
X75400Y156500D02*Y154500D01*
X83900D01*
Y156500D01*
X75400D01*
G37*
G36*
X78602Y179452D02*X73484D01*
Y173548D01*
X78602D01*
Y179452D01*
G37*
G36*
X71516D02*X66398D01*
Y173548D01*
X71516D01*
Y179452D01*
G37*
G36*
X71421Y189484D02*Y185704D01*
X79295D01*
Y189484D01*
X71421D01*
G37*
G36*
X63705Y195390D02*Y191610D01*
X79295D01*
Y195390D01*
X63705D01*
G37*
G36*
X57246Y198225D02*Y188775D01*
X68586D01*
Y198225D01*
X57246D01*
G37*
G36*
X71426Y191615D02*X70006Y193035D01*
X67166Y190195D01*
X68586Y188775D01*
X71426Y191615D01*
G37*
G36*
X68586Y198225D02*X67166Y196805D01*
X70006Y193965D01*
X71426Y195385D01*
X68586Y198225D01*
G37*
G36*
X71421Y201296D02*Y197516D01*
X79295D01*
Y201296D01*
X71421D01*
G37*
G54D17*X78400Y166000D03*
G54D11*G36*
Y169000D02*X75400D01*
Y163000D01*
X78400D01*
Y169000D01*
G37*
G36*
X86450Y247142D02*X80150D01*
Y234543D01*
X86450D01*
Y247142D01*
G37*
G36*
Y227457D02*X80150D01*
Y214858D01*
X86450D01*
Y227457D01*
G37*
G36*
X107077Y164060D02*Y162388D01*
X110620D01*
Y164060D01*
X107077D01*
G37*
G36*
X114048Y277602D02*Y272484D01*
X119952D01*
Y277602D01*
X114048D01*
G37*
G36*
Y270516D02*Y265398D01*
X119952D01*
Y270516D01*
X114048D01*
G37*
G36*
X43750Y267250D02*Y261750D01*
X51250D01*
Y267250D01*
X43750D01*
G37*
G36*
Y280250D02*Y274750D01*
X51250D01*
Y280250D01*
X43750D01*
G37*
G54D17*X78400Y130000D03*
G54D11*G36*
Y133000D02*X75400D01*
Y127000D01*
X78400D01*
Y133000D01*
G37*
G54D17*X71600Y130000D03*
G54D11*G36*
X74600Y133000D02*X71600D01*
Y127000D01*
X74600D01*
Y133000D01*
G37*
G36*
X75400Y141500D02*Y139500D01*
X83900D01*
Y141500D01*
X75400D01*
G37*
G36*
X64102Y132952D02*X58984D01*
Y127048D01*
X64102D01*
Y132952D01*
G37*
G36*
X57016D02*X51898D01*
Y127048D01*
X57016D01*
Y132952D01*
G37*
G36*
X75400Y146500D02*Y144500D01*
X83900D01*
Y146500D01*
X75400D01*
G37*
G36*
Y151500D02*Y149500D01*
X83900D01*
Y151500D01*
X75400D01*
G37*
G36*
X54900D02*Y149500D01*
X63400D01*
Y151500D01*
X54900D01*
G37*
G36*
Y146500D02*Y144500D01*
X63400D01*
Y146500D01*
X54900D01*
G37*
G36*
Y141500D02*Y139500D01*
X63400D01*
Y141500D01*
X54900D01*
G37*
G36*
X100380Y164060D02*Y162388D01*
X103923D01*
Y164060D01*
X100380D01*
G37*
G36*
Y160912D02*Y159238D01*
X103923D01*
Y160912D01*
X100380D01*
G37*
G36*
X130516Y158952D02*X125398D01*
Y153048D01*
X130516D01*
Y158952D01*
G37*
G36*
Y168452D02*X125398D01*
Y162548D01*
X130516D01*
Y168452D01*
G37*
G36*
X137602Y158952D02*X132484D01*
Y153048D01*
X137602D01*
Y158952D01*
G37*
G36*
Y168452D02*X132484D01*
Y162548D01*
X137602D01*
Y168452D01*
G37*
G36*
X130516Y177952D02*X125398D01*
Y172048D01*
X130516D01*
Y177952D01*
G37*
G36*
X137602D02*X132484D01*
Y172048D01*
X137602D01*
Y177952D01*
G37*
G36*
X130516Y149452D02*X125398D01*
Y143548D01*
X130516D01*
Y149452D01*
G37*
G36*
X137602D02*X132484D01*
Y143548D01*
X137602D01*
Y149452D01*
G37*
G36*
X174380Y173060D02*Y171388D01*
X177924D01*
Y173060D01*
X174380D01*
G37*
G36*
Y169912D02*Y168238D01*
X177924D01*
Y169912D01*
X174380D01*
G37*
G36*
Y166762D02*Y165088D01*
X177924D01*
Y166762D01*
X174380D01*
G37*
G36*
Y163612D02*Y161940D01*
X177924D01*
Y163612D01*
X174380D01*
G37*
G36*
X181076D02*Y161940D01*
X184620D01*
Y163612D01*
X181076D01*
G37*
G36*
Y166762D02*Y165088D01*
X184620D01*
Y166762D01*
X181076D01*
G37*
G36*
Y169912D02*Y168238D01*
X184620D01*
Y169912D01*
X181076D01*
G37*
G36*
X202548Y160559D02*Y155441D01*
X208452D01*
Y160559D01*
X202548D01*
G37*
G36*
X181076Y173060D02*Y171388D01*
X184620D01*
Y173060D01*
X181076D01*
G37*
G36*
X191900Y256500D02*Y254100D01*
X195900D01*
Y256500D01*
X191900D01*
G37*
G36*
Y252600D02*Y250200D01*
X195900D01*
Y252600D01*
X191900D01*
G37*
G36*
Y248700D02*Y246300D01*
X195900D01*
Y248700D01*
X191900D01*
G37*
G36*
X200100D02*Y246300D01*
X204100D01*
Y248700D01*
X200100D01*
G37*
G36*
Y256500D02*Y254100D01*
X204100D01*
Y256500D01*
X200100D01*
G37*
G36*
Y252600D02*Y250200D01*
X204100D01*
Y252600D01*
X200100D01*
G37*
G36*
X223713Y209479D02*X222139D01*
Y203479D01*
X223713D01*
Y209479D01*
G37*
G36*
X220563D02*X218989D01*
Y203479D01*
X220563D01*
Y209479D01*
G37*
G36*
X209021Y199510D02*Y197936D01*
X215021D01*
Y199510D01*
X209021D01*
G37*
G36*
Y196361D02*Y194787D01*
X215021D01*
Y196361D01*
X209021D01*
G37*
G36*
Y193211D02*Y191637D01*
X215021D01*
Y193211D01*
X209021D01*
G37*
G36*
Y190062D02*Y188488D01*
X215021D01*
Y190062D01*
X209021D01*
G37*
G36*
Y186912D02*Y185338D01*
X215021D01*
Y186912D01*
X209021D01*
G37*
G36*
Y183762D02*Y182188D01*
X215021D01*
Y183762D01*
X209021D01*
G37*
G36*
Y180613D02*Y179039D01*
X215021D01*
Y180613D01*
X209021D01*
G37*
G36*
Y177463D02*Y175889D01*
X215021D01*
Y177463D01*
X209021D01*
G37*
G36*
X262000Y235004D02*X257000D01*
Y220516D01*
X262000D01*
Y235004D01*
G37*
G36*
X272000D02*X267000D01*
Y220516D01*
X272000D01*
Y235004D01*
G37*
G36*
X282000D02*X277000D01*
Y220516D01*
X282000D01*
Y235004D01*
G37*
G36*
Y252484D02*X277000D01*
Y237996D01*
X282000D01*
Y252484D01*
G37*
G36*
X272000D02*X267000D01*
Y237996D01*
X272000D01*
Y252484D01*
G37*
G36*
X262000D02*X257000D01*
Y237996D01*
X262000D01*
Y252484D01*
G37*
G54D28*X331100Y233500D03*
Y228500D03*
X326100Y233500D03*
Y228500D03*
X321100Y233500D03*
Y228500D03*
G54D11*G36*
X348973Y262952D02*X343855D01*
Y257048D01*
X348973D01*
Y262952D01*
G37*
G36*
X356059D02*X350941D01*
Y257048D01*
X356059D01*
Y262952D01*
G37*
G36*
X369900Y241950D02*X365200D01*
Y237249D01*
X369900D01*
Y241950D01*
G37*
G36*
Y249751D02*X365200D01*
Y245050D01*
X369900D01*
Y249751D01*
G37*
G36*
X357900Y246651D02*X351600D01*
Y240350D01*
X357900D01*
Y246651D01*
G37*
G36*
X340516Y208952D02*X335398D01*
Y203048D01*
X340516D01*
Y208952D01*
G37*
G36*
X347602D02*X342484D01*
Y203048D01*
X347602D01*
Y208952D01*
G37*
G36*
X238702Y222252D02*X233584D01*
Y216348D01*
X238702D01*
Y222252D01*
G37*
G36*
X231616D02*X226498D01*
Y216348D01*
X231616D01*
Y222252D01*
G37*
G36*
X239461Y209479D02*X237887D01*
Y203479D01*
X239461D01*
Y209479D01*
G37*
G36*
X236311D02*X234737D01*
Y203479D01*
X236311D01*
Y209479D01*
G37*
G36*
X233162D02*X231588D01*
Y203479D01*
X233162D01*
Y209479D01*
G37*
G36*
X230012D02*X228438D01*
Y203479D01*
X230012D01*
Y209479D01*
G37*
G36*
X226862D02*X225288D01*
Y203479D01*
X226862D01*
Y209479D01*
G37*
G36*
X261516Y214452D02*X256398D01*
Y208548D01*
X261516D01*
Y214452D01*
G37*
G36*
X268602D02*X263484D01*
Y208548D01*
X268602D01*
Y214452D01*
G37*
G36*
X246579Y177464D02*Y175890D01*
X252579D01*
Y177464D01*
X246579D01*
G37*
G36*
Y180613D02*Y179039D01*
X252579D01*
Y180613D01*
X246579D01*
G37*
G36*
Y183763D02*Y182189D01*
X252579D01*
Y183763D01*
X246579D01*
G37*
G36*
Y186912D02*Y185338D01*
X252579D01*
Y186912D01*
X246579D01*
G37*
G36*
Y190062D02*Y188488D01*
X252579D01*
Y190062D01*
X246579D01*
G37*
G36*
Y193212D02*Y191638D01*
X252579D01*
Y193212D01*
X246579D01*
G37*
G36*
Y196361D02*Y194787D01*
X252579D01*
Y196361D01*
X246579D01*
G37*
G36*
Y199511D02*Y197937D01*
X252579D01*
Y199511D01*
X246579D01*
G37*
G36*
X242610Y209479D02*X241036D01*
Y203479D01*
X242610D01*
Y209479D01*
G37*
G36*
X386196Y196050D02*X382896D01*
Y190348D01*
X386196D01*
Y196050D01*
G37*
G36*
X381274D02*X377974D01*
Y190348D01*
X381274D01*
Y196050D01*
G37*
G36*
X376353D02*X373053D01*
Y190348D01*
X376353D01*
Y196050D01*
G37*
G36*
X371432D02*X368132D01*
Y190348D01*
X371432D01*
Y196050D01*
G37*
G36*
X366511D02*X363211D01*
Y190348D01*
X366511D01*
Y196050D01*
G37*
G36*
X361589D02*X358289D01*
Y190348D01*
X361589D01*
Y196050D01*
G37*
G36*
X356668D02*X353368D01*
Y190348D01*
X356668D01*
Y196050D01*
G37*
G36*
X374559Y210452D02*X369441D01*
Y204548D01*
X374559D01*
Y210452D01*
G37*
G36*
X381645D02*X376527D01*
Y204548D01*
X381645D01*
Y210452D01*
G37*
G36*
X374516Y220452D02*X369398D01*
Y214548D01*
X374516D01*
Y220452D01*
G37*
G36*
X381602D02*X376484D01*
Y214548D01*
X381602D01*
Y220452D01*
G37*
G36*
X351747Y196050D02*X348447D01*
Y190348D01*
X351747D01*
Y196050D01*
G37*
G36*
X346826D02*X343526D01*
Y190348D01*
X346826D01*
Y196050D01*
G37*
G36*
X341904D02*X338604D01*
Y190348D01*
X341904D01*
Y196050D01*
G37*
G36*
X336983D02*X333683D01*
Y190348D01*
X336983D01*
Y196050D01*
G37*
G36*
X332062D02*X328762D01*
Y190348D01*
X332062D01*
Y196050D01*
G37*
G36*
X321502Y186274D02*Y182974D01*
X327200D01*
Y186274D01*
X321502D01*
G37*
G36*
Y181353D02*Y178053D01*
X327200D01*
Y181353D01*
X321502D01*
G37*
G36*
Y176432D02*Y173132D01*
X327200D01*
Y176432D01*
X321502D01*
G37*
G36*
Y171511D02*Y168211D01*
X327200D01*
Y171511D01*
X321502D01*
G37*
G36*
Y166589D02*Y163289D01*
X327200D01*
Y166589D01*
X321502D01*
G37*
G36*
Y161668D02*Y158368D01*
X327200D01*
Y161668D01*
X321502D01*
G37*
G36*
Y156747D02*Y153447D01*
X327200D01*
Y156747D01*
X321502D01*
G37*
G36*
Y151826D02*Y148526D01*
X327200D01*
Y151826D01*
X321502D01*
G37*
G36*
X332062Y144452D02*X328762D01*
Y138750D01*
X332062D01*
Y144452D01*
G37*
G36*
X336983D02*X333683D01*
Y138750D01*
X336983D01*
Y144452D01*
G37*
G36*
X341904D02*X338604D01*
Y138750D01*
X341904D01*
Y144452D01*
G37*
G36*
X346826D02*X343526D01*
Y138750D01*
X346826D01*
Y144452D01*
G37*
G36*
X351747D02*X348447D01*
Y138750D01*
X351747D01*
Y144452D01*
G37*
G36*
X356668D02*X353368D01*
Y138750D01*
X356668D01*
Y144452D01*
G37*
G36*
X361589D02*X358289D01*
Y138750D01*
X361589D01*
Y144452D01*
G37*
G36*
X366511D02*X363211D01*
Y138750D01*
X366511D01*
Y144452D01*
G37*
G36*
X371432D02*X368132D01*
Y138750D01*
X371432D01*
Y144452D01*
G37*
G36*
X376353D02*X373053D01*
Y138750D01*
X376353D01*
Y144452D01*
G37*
G36*
X381274D02*X377974D01*
Y138750D01*
X381274D01*
Y144452D01*
G37*
G36*
X386196D02*X382896D01*
Y138750D01*
X386196D01*
Y144452D01*
G37*
G36*
X391117D02*X387817D01*
Y138750D01*
X391117D01*
Y144452D01*
G37*
G36*
X396038D02*X392738D01*
Y138750D01*
X396038D01*
Y144452D01*
G37*
G36*
X203180Y113960D02*Y112288D01*
X206724D01*
Y113960D01*
X203180D01*
G37*
G36*
X209876D02*Y112288D01*
X213420D01*
Y113960D01*
X209876D01*
G37*
G36*
X210972Y142437D02*Y134563D01*
X234594D01*
Y142437D01*
X210972D01*
G37*
G36*
X246406D02*Y134563D01*
X270028D01*
Y142437D01*
X246406D01*
G37*
G36*
X203180Y110812D02*Y109138D01*
X206724D01*
Y110812D01*
X203180D01*
G37*
G36*
X209876D02*Y109138D01*
X213420D01*
Y110812D01*
X209876D01*
G37*
G36*
X203180Y107662D02*Y105988D01*
X206724D01*
Y107662D01*
X203180D01*
G37*
G36*
Y104512D02*Y102840D01*
X206724D01*
Y104512D01*
X203180D01*
G37*
G36*
X209876D02*Y102840D01*
X213420D01*
Y104512D01*
X209876D01*
G37*
G36*
Y107662D02*Y105988D01*
X213420D01*
Y107662D01*
X209876D01*
G37*
G36*
X202100Y82300D02*Y79900D01*
X206100D01*
Y82300D01*
X202100D01*
G37*
G36*
X193900D02*Y79900D01*
X197900D01*
Y82300D01*
X193900D01*
G37*
G36*
X202100Y86200D02*Y83800D01*
X206100D01*
Y86200D01*
X202100D01*
G37*
G36*
X193900D02*Y83800D01*
X197900D01*
Y86200D01*
X193900D01*
G37*
G36*
X202100Y90100D02*Y87700D01*
X206100D01*
Y90100D01*
X202100D01*
G37*
G36*
X193900D02*Y87700D01*
X197900D01*
Y90100D01*
X193900D01*
G37*
G36*
X279154Y166240D02*X274036D01*
Y158760D01*
X279154D01*
Y166240D01*
G37*
G36*
X290964D02*X285846D01*
Y158760D01*
X290964D01*
Y166240D01*
G37*
G36*
X250016Y157952D02*X244898D01*
Y152048D01*
X250016D01*
Y157952D01*
G37*
G36*
X257102D02*X251984D01*
Y152048D01*
X257102D01*
Y157952D01*
G37*
G36*
X236602D02*X231484D01*
Y152048D01*
X236602D01*
Y157952D01*
G37*
G36*
X229516D02*X224398D01*
Y152048D01*
X229516D01*
Y157952D01*
G37*
G36*
X256048Y174102D02*Y168984D01*
X261952D01*
Y174102D01*
X256048D01*
G37*
G36*
Y167016D02*Y161898D01*
X261952D01*
Y167016D01*
X256048D01*
G37*
G36*
X202548Y167645D02*Y162527D01*
X208452D01*
Y167645D01*
X202548D01*
G37*
G36*
X220564Y171921D02*X218990D01*
Y165921D01*
X220564D01*
Y171921D01*
G37*
G36*
X223713D02*X222139D01*
Y165921D01*
X223713D01*
Y171921D01*
G37*
G36*
X226863D02*X225289D01*
Y165921D01*
X226863D01*
Y171921D01*
G37*
G36*
X230012D02*X228438D01*
Y165921D01*
X230012D01*
Y171921D01*
G37*
G36*
X233162D02*X231588D01*
Y165921D01*
X233162D01*
Y171921D01*
G37*
G36*
X236312D02*X234738D01*
Y165921D01*
X236312D01*
Y171921D01*
G37*
G36*
X239461D02*X237887D01*
Y165921D01*
X239461D01*
Y171921D01*
G37*
G36*
X242611D02*X241037D01*
Y165921D01*
X242611D01*
Y171921D01*
G37*
G36*
X276000Y184000D02*X274000D01*
Y175500D01*
X276000D01*
Y184000D01*
G37*
G36*
X281000D02*X279000D01*
Y175500D01*
X281000D01*
Y184000D01*
G37*
G36*
X286000D02*X284000D01*
Y175500D01*
X286000D01*
Y184000D01*
G37*
G36*
X291000D02*X289000D01*
Y175500D01*
X291000D01*
Y184000D01*
G37*
G36*
Y204500D02*X289000D01*
Y196000D01*
X291000D01*
Y204500D01*
G37*
G36*
X286000D02*X284000D01*
Y196000D01*
X286000D01*
Y204500D01*
G37*
G36*
X281000D02*X279000D01*
Y196000D01*
X281000D01*
Y204500D01*
G37*
G36*
X276000D02*X274000D01*
Y196000D01*
X276000D01*
Y204500D01*
G37*
G36*
X301400Y68145D02*X292200D01*
Y51145D01*
X301400D01*
Y68145D01*
G37*
G36*
Y129277D02*X292200D01*
Y114838D01*
X301400D01*
Y129277D01*
G37*
G54D29*X227500Y149500D03*
Y145500D03*
X218000Y103500D03*
Y95000D03*
X224000Y92500D03*
Y100000D03*
X226100Y163400D03*
X232400Y163500D03*
X330500Y135000D03*
X372500D03*
X376500D03*
X167500Y140500D03*
X176000Y129500D03*
Y125500D03*
X158500Y140500D03*
X153000D03*
X150000Y135500D03*
X139500Y138500D03*
X144500D03*
X355000Y134000D03*
Y126500D03*
X315500D03*
X313000Y129500D03*
X287500D03*
X284000Y125500D03*
X232400Y173800D03*
X226100D03*
X294500Y176500D03*
Y182500D03*
X302500Y188000D03*
X264500Y165000D03*
Y161000D03*
X268000Y165000D03*
Y161000D03*
X253500Y165000D03*
Y161000D03*
X250000Y165000D03*
Y161000D03*
X204500Y192500D03*
X205500Y153000D03*
X201000Y189500D03*
X176000Y176500D03*
X189500Y156000D03*
X192000Y152000D03*
X183000Y176500D03*
X186000Y180000D03*
X228000Y187500D03*
X226000Y198000D03*
X222000Y193500D03*
X232000Y192000D03*
X227000Y192500D03*
X290000Y51500D03*
X304000D03*
Y60000D03*
X290000Y68500D03*
X304000D03*
X378500Y92500D03*
Y88500D03*
Y84500D03*
Y80500D03*
X290000Y60000D03*
X208000Y120000D03*
X163000Y110000D03*
X177000D03*
X179000Y92500D03*
X225000Y85500D03*
Y81500D03*
Y77500D03*
Y73500D03*
X200000Y89000D03*
X179000Y88500D03*
Y84500D03*
Y80500D03*
X200000Y85000D03*
Y81200D03*
X204100Y77000D03*
X195900D03*
X187200D03*
X213000D03*
X208000Y88500D03*
X45500Y155500D03*
X50000D03*
X72000Y143000D03*
Y137500D03*
X95500Y157000D03*
X58500Y186500D03*
X55000Y197500D03*
Y193500D03*
Y189500D03*
X62500Y186500D03*
X66000D03*
X63500Y176500D03*
X60500D03*
X58500Y200500D03*
X62500D03*
X66000D03*
X89500Y226000D03*
Y222000D03*
Y218000D03*
Y214000D03*
X77000Y226000D03*
Y222000D03*
Y218000D03*
Y214000D03*
X117000Y257500D03*
Y262000D03*
X25100Y103300D03*
X28400D03*
X31800D03*
X28500Y85500D03*
Y81500D03*
Y77500D03*
Y73500D03*
X257500Y204000D03*
X261500D03*
X330500Y199000D03*
X340000D03*
X308500Y210000D03*
X326500Y205000D03*
X264000Y201500D03*
X267000Y198500D03*
X270000Y196000D03*
X271500Y192500D03*
X304500Y194000D03*
X308000D03*
X342000Y211000D03*
X350000D03*
X303400Y214500D03*
X305900Y212400D03*
X379100Y212600D03*
X343500Y235000D03*
X312000Y250500D03*
X299500Y245000D03*
X312000D03*
X299500Y250500D03*
X323600Y231000D03*
X367700Y232300D03*
X379000Y222500D03*
Y226000D03*
X328600Y231000D03*
X343500Y227500D03*
X287000Y248500D03*
Y242000D03*
X229200Y225200D03*
Y213200D03*
X192000Y216500D03*
Y210500D03*
X189000Y213500D03*
X186000Y216500D03*
Y210500D03*
X209500Y245500D03*
X217000Y249000D03*
X209400Y241500D03*
X203000Y239000D03*
X226000Y245500D03*
X233000Y243000D03*
X229000D03*
X188000Y251500D03*
X194000Y263500D03*
Y260000D03*
G54D30*G54D31*G54D32*G54D33*G54D32*G54D33*G54D34*G54D35*G54D36*G54D37*G54D33*G54D36*G54D37*G54D33*G54D36*G54D32*G54D20*G54D38*G54D39*G54D36*M02*
