G04 start of page 11 for group -4015 idx -4015 *
G04 Title: (unknown), toppaste *
G04 Creator: pcb 4.0.2 *
G04 CreationDate: Wed Apr 29 17:11:01 2020 UTC *
G04 For: ndholmes *
G04 Format: Gerber/RS-274X *
G04 PCB-Dimensions (mil): 4000.00 2900.00 *
G04 PCB-Coordinate-Origin: lower left *
%MOIN*%
%FSLAX25Y25*%
%LNTOPPASTE*%
%ADD98C,0.0600*%
%ADD97C,0.0001*%
G54D97*G36*
X41336Y95875D02*X39664D01*
Y92332D01*
X41336D01*
Y95875D01*
G37*
G36*
X44486D02*X42814D01*
Y92332D01*
X44486D01*
Y95875D01*
G37*
G36*
Y102571D02*X42814D01*
Y99028D01*
X44486D01*
Y102571D01*
G37*
G36*
X41336D02*X39664D01*
Y99028D01*
X41336D01*
Y102571D01*
G37*
G36*
X16649Y104487D02*Y102125D01*
X22751D01*
Y104487D01*
X16649D01*
G37*
G36*
Y100550D02*Y98188D01*
X22751D01*
Y100550D01*
X16649D01*
G37*
G36*
Y96612D02*Y94250D01*
X22751D01*
Y96612D01*
X16649D01*
G37*
G36*
Y92675D02*Y90313D01*
X22751D01*
Y92675D01*
X16649D01*
G37*
G36*
X901Y110786D02*Y106062D01*
X7987D01*
Y110786D01*
X901D01*
G37*
G36*
Y88738D02*Y84014D01*
X7987D01*
Y88738D01*
X901D01*
G37*
G36*
X174380Y173060D02*Y171388D01*
X177924D01*
Y173060D01*
X174380D01*
G37*
G36*
Y169912D02*Y168238D01*
X177924D01*
Y169912D01*
X174380D01*
G37*
G36*
Y166762D02*Y165088D01*
X177924D01*
Y166762D01*
X174380D01*
G37*
G36*
Y163612D02*Y161940D01*
X177924D01*
Y163612D01*
X174380D01*
G37*
G36*
X181076D02*Y161940D01*
X184620D01*
Y163612D01*
X181076D01*
G37*
G36*
Y166762D02*Y165088D01*
X184620D01*
Y166762D01*
X181076D01*
G37*
G36*
Y169912D02*Y168238D01*
X184620D01*
Y169912D01*
X181076D01*
G37*
G36*
Y173060D02*Y171388D01*
X184620D01*
Y173060D01*
X181076D01*
G37*
G54D98*X78400Y130000D03*
G54D97*G36*
Y133000D02*X75400D01*
Y127000D01*
X78400D01*
Y133000D01*
G37*
G54D98*X71600Y130000D03*
G54D97*G36*
X74600Y133000D02*X71600D01*
Y127000D01*
X74600D01*
Y133000D01*
G37*
G54D98*X71600Y166000D03*
G54D97*G36*
X74600Y169000D02*X71600D01*
Y163000D01*
X74600D01*
Y169000D01*
G37*
G54D98*X78400Y166000D03*
G54D97*G36*
Y169000D02*X75400D01*
Y163000D01*
X78400D01*
Y169000D01*
G37*
G36*
X100380Y164060D02*Y162388D01*
X103923D01*
Y164060D01*
X100380D01*
G37*
G36*
Y160912D02*Y159238D01*
X103923D01*
Y160912D01*
X100380D01*
G37*
G36*
Y157762D02*Y156088D01*
X103923D01*
Y157762D01*
X100380D01*
G37*
G36*
Y154612D02*Y152940D01*
X103923D01*
Y154612D01*
X100380D01*
G37*
G36*
X107077D02*Y152940D01*
X110620D01*
Y154612D01*
X107077D01*
G37*
G36*
Y157762D02*Y156088D01*
X110620D01*
Y157762D01*
X107077D01*
G37*
G36*
Y160912D02*Y159238D01*
X110620D01*
Y160912D01*
X107077D01*
G37*
G36*
Y164060D02*Y162388D01*
X110620D01*
Y164060D01*
X107077D01*
G37*
G36*
X78602Y179452D02*X73484D01*
Y173548D01*
X78602D01*
Y179452D01*
G37*
G36*
X71516D02*X66398D01*
Y173548D01*
X71516D01*
Y179452D01*
G37*
G36*
X203180Y113960D02*Y112288D01*
X206724D01*
Y113960D01*
X203180D01*
G37*
G36*
Y110812D02*Y109138D01*
X206724D01*
Y110812D01*
X203180D01*
G37*
G36*
Y107662D02*Y105988D01*
X206724D01*
Y107662D01*
X203180D01*
G37*
G36*
Y104512D02*Y102840D01*
X206724D01*
Y104512D01*
X203180D01*
G37*
G36*
X209876D02*Y102840D01*
X213420D01*
Y104512D01*
X209876D01*
G37*
G36*
Y107662D02*Y105988D01*
X213420D01*
Y107662D01*
X209876D01*
G37*
G36*
Y110812D02*Y109138D01*
X213420D01*
Y110812D01*
X209876D01*
G37*
G36*
Y113960D02*Y112288D01*
X213420D01*
Y113960D01*
X209876D01*
G37*
G36*
X238702Y222252D02*X233584D01*
Y216348D01*
X238702D01*
Y222252D01*
G37*
G36*
X231616D02*X226498D01*
Y216348D01*
X231616D01*
Y222252D01*
G37*
G36*
X256048Y174102D02*Y168984D01*
X261952D01*
Y174102D01*
X256048D01*
G37*
G36*
Y167016D02*Y161898D01*
X261952D01*
Y167016D01*
X256048D01*
G37*
G36*
X348973Y262952D02*X343855D01*
Y257048D01*
X348973D01*
Y262952D01*
G37*
G36*
X356059D02*X350941D01*
Y257048D01*
X356059D01*
Y262952D01*
G37*
G36*
X57216Y168952D02*X52098D01*
Y163048D01*
X57216D01*
Y168952D01*
G37*
G36*
X64302D02*X59184D01*
Y163048D01*
X64302D01*
Y168952D01*
G37*
G36*
X64102Y132952D02*X58984D01*
Y127048D01*
X64102D01*
Y132952D01*
G37*
G36*
X57016D02*X51898D01*
Y127048D01*
X57016D01*
Y132952D01*
G37*
G36*
X261516Y214452D02*X256398D01*
Y208548D01*
X261516D01*
Y214452D01*
G37*
G36*
X268602D02*X263484D01*
Y208548D01*
X268602D01*
Y214452D01*
G37*
G36*
X86450Y247142D02*X80150D01*
Y234543D01*
X86450D01*
Y247142D01*
G37*
G36*
Y227457D02*X80150D01*
Y214858D01*
X86450D01*
Y227457D01*
G37*
G36*
X202548Y167645D02*Y162527D01*
X208452D01*
Y167645D01*
X202548D01*
G37*
G36*
Y160559D02*Y155441D01*
X208452D01*
Y160559D01*
X202548D01*
G37*
G36*
X114048Y277602D02*Y272484D01*
X119952D01*
Y277602D01*
X114048D01*
G37*
G36*
Y270516D02*Y265398D01*
X119952D01*
Y270516D01*
X114048D01*
G37*
G36*
X191900Y256500D02*Y254100D01*
X195900D01*
Y256500D01*
X191900D01*
G37*
G36*
Y252600D02*Y250200D01*
X195900D01*
Y252600D01*
X191900D01*
G37*
G36*
Y248700D02*Y246300D01*
X195900D01*
Y248700D01*
X191900D01*
G37*
G36*
X200100D02*Y246300D01*
X204100D01*
Y248700D01*
X200100D01*
G37*
G36*
Y252600D02*Y250200D01*
X204100D01*
Y252600D01*
X200100D01*
G37*
G36*
Y256500D02*Y254100D01*
X204100D01*
Y256500D01*
X200100D01*
G37*
G36*
X71421Y189484D02*Y185704D01*
X79295D01*
Y189484D01*
X71421D01*
G37*
G36*
X63705Y195390D02*Y191610D01*
X79295D01*
Y195390D01*
X63705D01*
G37*
G36*
X57246Y198225D02*Y188775D01*
X68586D01*
Y198225D01*
X57246D01*
G37*
G36*
X71426Y191615D02*X70006Y193035D01*
X67166Y190195D01*
X68586Y188775D01*
X71426Y191615D01*
G37*
G36*
X68586Y198225D02*X67166Y196805D01*
X70006Y193965D01*
X71426Y195385D01*
X68586Y198225D01*
G37*
G36*
X71421Y201296D02*Y197516D01*
X79295D01*
Y201296D01*
X71421D01*
G37*
G36*
X75400Y141500D02*Y139500D01*
X83900D01*
Y141500D01*
X75400D01*
G37*
G36*
Y146500D02*Y144500D01*
X83900D01*
Y146500D01*
X75400D01*
G37*
G36*
Y151500D02*Y149500D01*
X83900D01*
Y151500D01*
X75400D01*
G37*
G36*
Y156500D02*Y154500D01*
X83900D01*
Y156500D01*
X75400D01*
G37*
G36*
X54900D02*Y154500D01*
X63400D01*
Y156500D01*
X54900D01*
G37*
G36*
Y151500D02*Y149500D01*
X63400D01*
Y151500D01*
X54900D01*
G37*
G36*
Y146500D02*Y144500D01*
X63400D01*
Y146500D01*
X54900D01*
G37*
G36*
Y141500D02*Y139500D01*
X63400D01*
Y141500D01*
X54900D01*
G37*
G36*
X43750Y267250D02*Y261750D01*
X51250D01*
Y267250D01*
X43750D01*
G37*
G36*
Y280250D02*Y274750D01*
X51250D01*
Y280250D01*
X43750D01*
G37*
G36*
X279154Y166240D02*X274036D01*
Y158760D01*
X279154D01*
Y166240D01*
G37*
G36*
X290964D02*X285846D01*
Y158760D01*
X290964D01*
Y166240D01*
G37*
G36*
X250016Y157952D02*X244898D01*
Y152048D01*
X250016D01*
Y157952D01*
G37*
G36*
X257102D02*X251984D01*
Y152048D01*
X257102D01*
Y157952D01*
G37*
G36*
X236602D02*X231484D01*
Y152048D01*
X236602D01*
Y157952D01*
G37*
G36*
X229516D02*X224398D01*
Y152048D01*
X229516D01*
Y157952D01*
G37*
G36*
X210972Y142437D02*Y134563D01*
X234594D01*
Y142437D01*
X210972D01*
G37*
G36*
X246406D02*Y134563D01*
X270028D01*
Y142437D01*
X246406D01*
G37*
G36*
X220564Y171921D02*X218990D01*
Y165921D01*
X220564D01*
Y171921D01*
G37*
G36*
X223713D02*X222139D01*
Y165921D01*
X223713D01*
Y171921D01*
G37*
G36*
X226863D02*X225289D01*
Y165921D01*
X226863D01*
Y171921D01*
G37*
G36*
X230012D02*X228438D01*
Y165921D01*
X230012D01*
Y171921D01*
G37*
G36*
X233162D02*X231588D01*
Y165921D01*
X233162D01*
Y171921D01*
G37*
G36*
X236312D02*X234738D01*
Y165921D01*
X236312D01*
Y171921D01*
G37*
G36*
X239461D02*X237887D01*
Y165921D01*
X239461D01*
Y171921D01*
G37*
G36*
X242611D02*X241037D01*
Y165921D01*
X242611D01*
Y171921D01*
G37*
G36*
X246579Y177464D02*Y175890D01*
X252579D01*
Y177464D01*
X246579D01*
G37*
G36*
Y180613D02*Y179039D01*
X252579D01*
Y180613D01*
X246579D01*
G37*
G36*
Y183763D02*Y182189D01*
X252579D01*
Y183763D01*
X246579D01*
G37*
G36*
Y186912D02*Y185338D01*
X252579D01*
Y186912D01*
X246579D01*
G37*
G36*
Y190062D02*Y188488D01*
X252579D01*
Y190062D01*
X246579D01*
G37*
G36*
Y193212D02*Y191638D01*
X252579D01*
Y193212D01*
X246579D01*
G37*
G36*
Y196361D02*Y194787D01*
X252579D01*
Y196361D01*
X246579D01*
G37*
G36*
Y199511D02*Y197937D01*
X252579D01*
Y199511D01*
X246579D01*
G37*
G36*
X242610Y209479D02*X241036D01*
Y203479D01*
X242610D01*
Y209479D01*
G37*
G36*
X239461D02*X237887D01*
Y203479D01*
X239461D01*
Y209479D01*
G37*
G36*
X236311D02*X234737D01*
Y203479D01*
X236311D01*
Y209479D01*
G37*
G36*
X233162D02*X231588D01*
Y203479D01*
X233162D01*
Y209479D01*
G37*
G36*
X230012D02*X228438D01*
Y203479D01*
X230012D01*
Y209479D01*
G37*
G36*
X226862D02*X225288D01*
Y203479D01*
X226862D01*
Y209479D01*
G37*
G36*
X223713D02*X222139D01*
Y203479D01*
X223713D01*
Y209479D01*
G37*
G36*
X220563D02*X218989D01*
Y203479D01*
X220563D01*
Y209479D01*
G37*
G36*
X209021Y199510D02*Y197936D01*
X215021D01*
Y199510D01*
X209021D01*
G37*
G36*
Y196361D02*Y194787D01*
X215021D01*
Y196361D01*
X209021D01*
G37*
G36*
Y193211D02*Y191637D01*
X215021D01*
Y193211D01*
X209021D01*
G37*
G36*
Y190062D02*Y188488D01*
X215021D01*
Y190062D01*
X209021D01*
G37*
G36*
Y186912D02*Y185338D01*
X215021D01*
Y186912D01*
X209021D01*
G37*
G36*
Y183762D02*Y182188D01*
X215021D01*
Y183762D01*
X209021D01*
G37*
G36*
Y180613D02*Y179039D01*
X215021D01*
Y180613D01*
X209021D01*
G37*
G36*
Y177463D02*Y175889D01*
X215021D01*
Y177463D01*
X209021D01*
G37*
G36*
X276000Y184000D02*X274000D01*
Y175500D01*
X276000D01*
Y184000D01*
G37*
G36*
X281000D02*X279000D01*
Y175500D01*
X281000D01*
Y184000D01*
G37*
G36*
X286000D02*X284000D01*
Y175500D01*
X286000D01*
Y184000D01*
G37*
G36*
X291000D02*X289000D01*
Y175500D01*
X291000D01*
Y184000D01*
G37*
G36*
Y204500D02*X289000D01*
Y196000D01*
X291000D01*
Y204500D01*
G37*
G36*
X286000D02*X284000D01*
Y196000D01*
X286000D01*
Y204500D01*
G37*
G36*
X281000D02*X279000D01*
Y196000D01*
X281000D01*
Y204500D01*
G37*
G36*
X276000D02*X274000D01*
Y196000D01*
X276000D01*
Y204500D01*
G37*
G36*
X386196Y196050D02*X382896D01*
Y190348D01*
X386196D01*
Y196050D01*
G37*
G36*
X381274D02*X377974D01*
Y190348D01*
X381274D01*
Y196050D01*
G37*
G36*
X376353D02*X373053D01*
Y190348D01*
X376353D01*
Y196050D01*
G37*
G36*
X371432D02*X368132D01*
Y190348D01*
X371432D01*
Y196050D01*
G37*
G36*
X366511D02*X363211D01*
Y190348D01*
X366511D01*
Y196050D01*
G37*
G36*
X361589D02*X358289D01*
Y190348D01*
X361589D01*
Y196050D01*
G37*
G36*
X356668D02*X353368D01*
Y190348D01*
X356668D01*
Y196050D01*
G37*
G36*
X351747D02*X348447D01*
Y190348D01*
X351747D01*
Y196050D01*
G37*
G36*
X346826D02*X343526D01*
Y190348D01*
X346826D01*
Y196050D01*
G37*
G36*
X341904D02*X338604D01*
Y190348D01*
X341904D01*
Y196050D01*
G37*
G36*
X336983D02*X333683D01*
Y190348D01*
X336983D01*
Y196050D01*
G37*
G36*
X332062D02*X328762D01*
Y190348D01*
X332062D01*
Y196050D01*
G37*
G36*
X321502Y186274D02*Y182974D01*
X327200D01*
Y186274D01*
X321502D01*
G37*
G36*
Y181353D02*Y178053D01*
X327200D01*
Y181353D01*
X321502D01*
G37*
G36*
Y176432D02*Y173132D01*
X327200D01*
Y176432D01*
X321502D01*
G37*
G36*
Y171511D02*Y168211D01*
X327200D01*
Y171511D01*
X321502D01*
G37*
G36*
Y166589D02*Y163289D01*
X327200D01*
Y166589D01*
X321502D01*
G37*
G36*
Y161668D02*Y158368D01*
X327200D01*
Y161668D01*
X321502D01*
G37*
G36*
Y156747D02*Y153447D01*
X327200D01*
Y156747D01*
X321502D01*
G37*
G36*
Y151826D02*Y148526D01*
X327200D01*
Y151826D01*
X321502D01*
G37*
G36*
X332062Y144452D02*X328762D01*
Y138750D01*
X332062D01*
Y144452D01*
G37*
G36*
X336983D02*X333683D01*
Y138750D01*
X336983D01*
Y144452D01*
G37*
G36*
X341904D02*X338604D01*
Y138750D01*
X341904D01*
Y144452D01*
G37*
G36*
X346826D02*X343526D01*
Y138750D01*
X346826D01*
Y144452D01*
G37*
G36*
X351747D02*X348447D01*
Y138750D01*
X351747D01*
Y144452D01*
G37*
G36*
X356668D02*X353368D01*
Y138750D01*
X356668D01*
Y144452D01*
G37*
G36*
X361589D02*X358289D01*
Y138750D01*
X361589D01*
Y144452D01*
G37*
G36*
X366511D02*X363211D01*
Y138750D01*
X366511D01*
Y144452D01*
G37*
G36*
X371432D02*X368132D01*
Y138750D01*
X371432D01*
Y144452D01*
G37*
G36*
X376353D02*X373053D01*
Y138750D01*
X376353D01*
Y144452D01*
G37*
G36*
X381274D02*X377974D01*
Y138750D01*
X381274D01*
Y144452D01*
G37*
G36*
X386196D02*X382896D01*
Y138750D01*
X386196D01*
Y144452D01*
G37*
G36*
X391117D02*X387817D01*
Y138750D01*
X391117D01*
Y144452D01*
G37*
G36*
X396038D02*X392738D01*
Y138750D01*
X396038D01*
Y144452D01*
G37*
G36*
X301400Y68145D02*X292200D01*
Y51145D01*
X301400D01*
Y68145D01*
G37*
G36*
Y129277D02*X292200D01*
Y114838D01*
X301400D01*
Y129277D01*
G37*
G36*
X374559Y210452D02*X369441D01*
Y204548D01*
X374559D01*
Y210452D01*
G37*
G36*
X381645D02*X376527D01*
Y204548D01*
X381645D01*
Y210452D01*
G37*
G36*
X374516Y220452D02*X369398D01*
Y214548D01*
X374516D01*
Y220452D01*
G37*
G36*
X381602D02*X376484D01*
Y214548D01*
X381602D01*
Y220452D01*
G37*
G36*
X340516Y208952D02*X335398D01*
Y203048D01*
X340516D01*
Y208952D01*
G37*
G36*
X347602D02*X342484D01*
Y203048D01*
X347602D01*
Y208952D01*
G37*
G36*
X369900Y241950D02*X365200D01*
Y237249D01*
X369900D01*
Y241950D01*
G37*
G36*
Y249751D02*X365200D01*
Y245050D01*
X369900D01*
Y249751D01*
G37*
G36*
X357900Y246651D02*X351600D01*
Y240350D01*
X357900D01*
Y246651D01*
G37*
G36*
X130516Y158952D02*X125398D01*
Y153048D01*
X130516D01*
Y158952D01*
G37*
G36*
X137602D02*X132484D01*
Y153048D01*
X137602D01*
Y158952D01*
G37*
G36*
X130516Y177952D02*X125398D01*
Y172048D01*
X130516D01*
Y177952D01*
G37*
G36*
X137602D02*X132484D01*
Y172048D01*
X137602D01*
Y177952D01*
G37*
G36*
X130516Y149452D02*X125398D01*
Y143548D01*
X130516D01*
Y149452D01*
G37*
G36*
X137602D02*X132484D01*
Y143548D01*
X137602D01*
Y149452D01*
G37*
G36*
X130516Y168452D02*X125398D01*
Y162548D01*
X130516D01*
Y168452D01*
G37*
G36*
X137602D02*X132484D01*
Y162548D01*
X137602D01*
Y168452D01*
G37*
G36*
X262000Y235004D02*X257000D01*
Y220516D01*
X262000D01*
Y235004D01*
G37*
G36*
X272000D02*X267000D01*
Y220516D01*
X272000D01*
Y235004D01*
G37*
G36*
X282000D02*X277000D01*
Y220516D01*
X282000D01*
Y235004D01*
G37*
G36*
Y252484D02*X277000D01*
Y237996D01*
X282000D01*
Y252484D01*
G37*
G36*
X272000D02*X267000D01*
Y237996D01*
X272000D01*
Y252484D01*
G37*
G36*
X262000D02*X257000D01*
Y237996D01*
X262000D01*
Y252484D01*
G37*
G36*
X202100Y82300D02*Y79900D01*
X206100D01*
Y82300D01*
X202100D01*
G37*
G36*
Y86200D02*Y83800D01*
X206100D01*
Y86200D01*
X202100D01*
G37*
G36*
Y90100D02*Y87700D01*
X206100D01*
Y90100D01*
X202100D01*
G37*
G36*
X193900D02*Y87700D01*
X197900D01*
Y90100D01*
X193900D01*
G37*
G36*
Y86200D02*Y83800D01*
X197900D01*
Y86200D01*
X193900D01*
G37*
G36*
Y82300D02*Y79900D01*
X197900D01*
Y82300D01*
X193900D01*
G37*
M02*
