G04 start of page 8 for group -4015 idx -4015 *
G04 Title: (unknown), toppaste *
G04 Creator: pcb 20110918 *
G04 CreationDate: Sun 03 Feb 2013 12:35:54 AM GMT UTC *
G04 For: petersen *
G04 Format: Gerber/RS-274X *
G04 PCB-Dimensions: 400000 250000 *
G04 PCB-Coordinate-Origin: lower left *
%MOIN*%
%FSLAX25Y25*%
%LNTOPPASTE*%
%ADD138R,0.0490X0.0490*%
%ADD137R,0.0240X0.0240*%
%ADD136R,0.0470X0.0470*%
%ADD135R,0.0920X0.0920*%
%ADD134R,0.0200X0.0200*%
%ADD133R,0.0157X0.0157*%
%ADD132R,0.1220X0.1220*%
%ADD131R,0.0560X0.0560*%
%ADD130R,0.0340X0.0340*%
%ADD129R,0.0360X0.0360*%
%ADD128R,0.0630X0.0630*%
%ADD127R,0.0512X0.0512*%
G54D127*X88457Y140393D02*Y139607D01*
X95543Y140393D02*Y139607D01*
X48819Y154905D02*X51181D01*
X48819Y143095D02*X51181D01*
X48819Y121905D02*X51181D01*
X48819Y110095D02*X51181D01*
X56543Y95393D02*Y94607D01*
X49457Y95393D02*Y94607D01*
X138543Y244393D02*Y243607D01*
X131457Y244393D02*Y243607D01*
X225543Y170893D02*Y170107D01*
X218457Y170893D02*Y170107D01*
X219957Y184893D02*Y184107D01*
X227043Y184893D02*Y184107D01*
X111543Y206393D02*Y205607D01*
X104457Y206393D02*Y205607D01*
X12819Y66095D02*X15181D01*
X12819Y77905D02*X15181D01*
X28607Y73543D02*X29393D01*
X28607Y66457D02*X29393D01*
X283543Y139393D02*Y138607D01*
X276457Y139393D02*Y138607D01*
X283543Y126393D02*Y125607D01*
X276457Y126393D02*Y125607D01*
X251543Y127393D02*Y126607D01*
X244457Y127393D02*Y126607D01*
X266043Y127393D02*Y126607D01*
X258957Y127393D02*Y126607D01*
X344457Y243393D02*Y242607D01*
X351543Y243393D02*Y242607D01*
X169095Y57181D02*Y54819D01*
X180905Y57181D02*Y54819D01*
X142543Y85393D02*Y84607D01*
X135457Y85393D02*Y84607D01*
G54D128*X61000Y240992D02*Y234693D01*
Y221307D02*Y215008D01*
G54D129*X38400Y236400D02*X39600D01*
X38400Y223500D02*X39600D01*
G54D130*X177700Y237000D02*X178300D01*
X177700Y229200D02*X178300D01*
X185900Y233100D02*X186500D01*
G54D131*X97700Y176000D02*X104300D01*
X97700Y185000D02*X104300D01*
X97700Y194100D02*X104300D01*
G54D132*X76600Y189500D02*Y180500D01*
G54D127*X131457Y235393D02*Y234607D01*
X138543Y235393D02*Y234607D01*
X88457Y149393D02*Y148607D01*
X95543Y149393D02*Y148607D01*
G54D130*X86700Y133000D02*X87300D01*
X86700Y125200D02*X87300D01*
X94900Y129100D02*X95500D01*
G54D127*X59607Y131543D02*X60393D01*
X59607Y124457D02*X60393D01*
X81607Y116543D02*X82393D01*
X81607Y109457D02*X82393D01*
G54D130*X91700Y117000D02*X92300D01*
X91700Y109200D02*X92300D01*
X99900Y113100D02*X100500D01*
G54D127*X112543Y140393D02*Y139607D01*
X105457Y140393D02*Y139607D01*
X154543Y55393D02*Y54607D01*
X147457Y55393D02*Y54607D01*
X135457Y101393D02*Y100607D01*
X142543Y101393D02*Y100607D01*
X103607Y81543D02*X104393D01*
X103607Y74457D02*X104393D01*
G54D133*X243577Y141834D02*Y137408D01*
X246726Y141834D02*Y137408D01*
X249876Y141834D02*Y137408D01*
X253025Y141834D02*Y137408D01*
X256175Y141834D02*Y137408D01*
X259325Y141834D02*Y137408D01*
X262474Y141834D02*Y137408D01*
X265624Y141834D02*Y137408D01*
X271166Y147377D02*X275592D01*
X271166Y150526D02*X275592D01*
X271166Y153676D02*X275592D01*
X271166Y156825D02*X275592D01*
X271166Y159975D02*X275592D01*
X271166Y163125D02*X275592D01*
X271166Y166274D02*X275592D01*
X271166Y169424D02*X275592D01*
X265623Y179392D02*Y174966D01*
X262474Y179392D02*Y174966D01*
X259324Y179392D02*Y174966D01*
X256175Y179392D02*Y174966D01*
X253025Y179392D02*Y174966D01*
X249875Y179392D02*Y174966D01*
X246726Y179392D02*Y174966D01*
X243576Y179392D02*Y174966D01*
X233608Y169423D02*X238034D01*
X233608Y166274D02*X238034D01*
X233608Y163124D02*X238034D01*
X233608Y159975D02*X238034D01*
X233608Y156825D02*X238034D01*
X233608Y153675D02*X238034D01*
X233608Y150526D02*X238034D01*
X233608Y147376D02*X238034D01*
G54D130*X129700Y185000D02*X130300D01*
X129700Y177200D02*X130300D01*
X137900Y181100D02*X138500D01*
G54D127*X152607Y223457D02*X153393D01*
X152607Y230543D02*X153393D01*
X257543Y190393D02*Y189607D01*
X250457Y190393D02*Y189607D01*
X350957Y175893D02*Y175107D01*
X358043Y175893D02*Y175107D01*
X350957Y165893D02*Y165107D01*
X358043Y165893D02*Y165107D01*
X350957Y155893D02*Y155107D01*
X358043Y155893D02*Y155107D01*
X350957Y145893D02*Y145107D01*
X358043Y145893D02*Y145107D01*
G54D134*X274500Y108500D02*Y102000D01*
X269500Y108500D02*Y102000D01*
X264500Y108500D02*Y102000D01*
X259500Y108500D02*Y102000D01*
Y88000D02*Y81500D01*
X264500Y88000D02*Y81500D01*
X269500Y88000D02*Y81500D01*
X274500Y88000D02*Y81500D01*
G54D127*X327043Y124393D02*Y123607D01*
X319957Y124393D02*Y123607D01*
X134543Y76393D02*Y75607D01*
X127457Y76393D02*Y75607D01*
G54D135*X198000Y65845D02*Y58045D01*
Y126977D02*Y121738D01*
G54D127*X61543Y41393D02*Y40607D01*
X54457Y41393D02*Y40607D01*
G54D136*X329599Y198950D02*X329600D01*
X337400D02*X337401D01*
G54D128*X333500Y211750D02*X333501D01*
G54D127*X26043Y39893D02*Y39107D01*
X18957Y39893D02*Y39107D01*
G54D137*X378000Y152300D02*Y150700D01*
X381900Y152300D02*Y150700D01*
X385800Y152300D02*Y150700D01*
Y160500D02*Y158900D01*
X381900Y160500D02*Y158900D01*
X378000Y160500D02*Y158900D01*
G54D138*X85500Y161300D02*Y157700D01*
X95500Y161300D02*Y157700D01*
M02*
