G04 start of page 2 for group 0 idx 0 *
G04 Title: (unknown), component *
G04 Creator: pcb 20110918 *
G04 CreationDate: Sun 03 Feb 2013 12:35:54 AM GMT UTC *
G04 For: petersen *
G04 Format: Gerber/RS-274X *
G04 PCB-Dimensions: 400000 250000 *
G04 PCB-Coordinate-Origin: lower left *
%MOIN*%
%FSLAX25Y25*%
%LNTOP*%
%ADD51C,0.0280*%
%ADD50C,0.0320*%
%ADD49C,0.0450*%
%ADD48C,0.1100*%
%ADD47C,0.1250*%
%ADD46C,0.0480*%
%ADD45C,0.0380*%
%ADD44C,0.0540*%
%ADD43C,0.0440*%
%ADD42C,0.1285*%
%ADD41C,0.0350*%
%ADD40R,0.0240X0.0240*%
%ADD39R,0.0200X0.0200*%
%ADD38R,0.0920X0.0920*%
%ADD37R,0.0490X0.0490*%
%ADD36R,0.1220X0.1220*%
%ADD35R,0.0560X0.0560*%
%ADD34R,0.0360X0.0360*%
%ADD33R,0.0630X0.0630*%
%ADD32R,0.0470X0.0470*%
%ADD31R,0.0157X0.0157*%
%ADD30R,0.0340X0.0340*%
%ADD29R,0.0512X0.0512*%
%ADD28C,0.0640*%
%ADD27C,0.0787*%
%ADD26C,0.1500*%
%ADD25C,0.1750*%
%ADD24C,0.0700*%
%ADD23C,0.0800*%
%ADD22C,0.0600*%
%ADD21C,0.1200*%
%ADD20C,0.1000*%
%ADD19C,0.2937*%
%ADD18C,0.0300*%
%ADD17C,0.0550*%
%ADD16C,0.0200*%
%ADD15C,0.0150*%
%ADD14C,0.0100*%
%ADD13C,0.0400*%
%ADD12C,0.0250*%
%ADD11C,0.0001*%
G54D11*G36*
X102302Y228000D02*X107000D01*
Y222232D01*
X106976Y222236D01*
X106818Y222238D01*
X106661Y222215D01*
X106510Y222168D01*
X106369Y222098D01*
X106239Y222007D01*
X106126Y221896D01*
X106032Y221770D01*
X105958Y221630D01*
X105908Y221480D01*
X105881Y221324D01*
X105879Y221166D01*
X105902Y221010D01*
X105952Y220860D01*
X106078Y220508D01*
X106166Y220144D01*
X106219Y219774D01*
X106237Y219400D01*
X106219Y219026D01*
X106166Y218656D01*
X106078Y218292D01*
X105956Y217939D01*
X105906Y217789D01*
X105883Y217634D01*
X105885Y217476D01*
X105912Y217321D01*
X105962Y217172D01*
X106036Y217033D01*
X106130Y216907D01*
X106242Y216797D01*
X106371Y216706D01*
X106512Y216636D01*
X106662Y216589D01*
X106818Y216567D01*
X106975Y216568D01*
X107000Y216573D01*
Y210000D01*
X102302D01*
Y213456D01*
X102864Y213483D01*
X103423Y213563D01*
X103972Y213696D01*
X104506Y213881D01*
X104648Y213950D01*
X104777Y214042D01*
X104891Y214152D01*
X104985Y214279D01*
X105059Y214419D01*
X105109Y214568D01*
X105136Y214724D01*
X105138Y214882D01*
X105115Y215039D01*
X105068Y215190D01*
X104998Y215331D01*
X104907Y215461D01*
X104796Y215574D01*
X104670Y215668D01*
X104530Y215742D01*
X104380Y215792D01*
X104224Y215819D01*
X104066Y215821D01*
X103910Y215798D01*
X103760Y215748D01*
X103408Y215622D01*
X103044Y215534D01*
X102674Y215481D01*
X102302Y215463D01*
Y223337D01*
X102674Y223319D01*
X103044Y223266D01*
X103408Y223178D01*
X103761Y223056D01*
X103911Y223006D01*
X104066Y222983D01*
X104224Y222985D01*
X104379Y223012D01*
X104528Y223062D01*
X104667Y223136D01*
X104793Y223230D01*
X104903Y223342D01*
X104994Y223471D01*
X105064Y223612D01*
X105111Y223762D01*
X105133Y223918D01*
X105132Y224075D01*
X105105Y224231D01*
X105054Y224380D01*
X104981Y224519D01*
X104887Y224645D01*
X104775Y224755D01*
X104646Y224846D01*
X104504Y224913D01*
X103972Y225104D01*
X103423Y225237D01*
X102864Y225317D01*
X102302Y225344D01*
Y228000D01*
G37*
G36*
X98000D02*X102302D01*
Y225344D01*
X102300Y225344D01*
X101736Y225317D01*
X101177Y225237D01*
X100628Y225104D01*
X100094Y224919D01*
X99952Y224850D01*
X99823Y224758D01*
X99709Y224648D01*
X99615Y224521D01*
X99541Y224381D01*
X99491Y224232D01*
X99464Y224076D01*
X99462Y223918D01*
X99485Y223761D01*
X99532Y223610D01*
X99602Y223469D01*
X99693Y223339D01*
X99804Y223226D01*
X99930Y223132D01*
X100070Y223058D01*
X100220Y223008D01*
X100376Y222981D01*
X100534Y222979D01*
X100690Y223002D01*
X100840Y223052D01*
X101192Y223178D01*
X101556Y223266D01*
X101926Y223319D01*
X102300Y223337D01*
X102302Y223337D01*
Y215463D01*
X102300Y215463D01*
X101926Y215481D01*
X101556Y215534D01*
X101192Y215622D01*
X100839Y215744D01*
X100689Y215794D01*
X100534Y215817D01*
X100376Y215815D01*
X100221Y215788D01*
X100072Y215738D01*
X99933Y215664D01*
X99807Y215570D01*
X99697Y215458D01*
X99606Y215329D01*
X99536Y215188D01*
X99489Y215038D01*
X99467Y214882D01*
X99468Y214725D01*
X99495Y214569D01*
X99546Y214420D01*
X99619Y214281D01*
X99713Y214155D01*
X99825Y214045D01*
X99954Y213954D01*
X100096Y213887D01*
X100628Y213696D01*
X101177Y213563D01*
X101736Y213483D01*
X102300Y213456D01*
X102302Y213456D01*
Y210000D01*
X98000D01*
Y216604D01*
X98090Y216632D01*
X98231Y216702D01*
X98361Y216793D01*
X98474Y216904D01*
X98568Y217030D01*
X98642Y217170D01*
X98692Y217320D01*
X98719Y217476D01*
X98721Y217634D01*
X98698Y217790D01*
X98648Y217940D01*
X98522Y218292D01*
X98434Y218656D01*
X98381Y219026D01*
X98363Y219400D01*
X98381Y219774D01*
X98434Y220144D01*
X98522Y220508D01*
X98644Y220861D01*
X98694Y221011D01*
X98717Y221166D01*
X98715Y221324D01*
X98688Y221479D01*
X98638Y221628D01*
X98564Y221767D01*
X98470Y221893D01*
X98358Y222003D01*
X98229Y222094D01*
X98088Y222164D01*
X98000Y222191D01*
Y228000D01*
G37*
G36*
X117061Y229000D02*X124000D01*
Y199000D01*
X117061D01*
Y216583D01*
X117131Y216595D01*
X117280Y216646D01*
X117419Y216719D01*
X117545Y216813D01*
X117655Y216925D01*
X117746Y217054D01*
X117813Y217196D01*
X118004Y217728D01*
X118137Y218277D01*
X118217Y218836D01*
X118244Y219400D01*
X118217Y219964D01*
X118137Y220523D01*
X118004Y221072D01*
X117819Y221606D01*
X117750Y221748D01*
X117658Y221877D01*
X117548Y221991D01*
X117421Y222085D01*
X117281Y222159D01*
X117132Y222209D01*
X117061Y222221D01*
Y229000D01*
G37*
G36*
X112302D02*X117061D01*
Y222221D01*
X116976Y222236D01*
X116818Y222238D01*
X116661Y222215D01*
X116510Y222168D01*
X116369Y222098D01*
X116239Y222007D01*
X116126Y221896D01*
X116032Y221770D01*
X115958Y221630D01*
X115908Y221480D01*
X115881Y221324D01*
X115879Y221166D01*
X115902Y221010D01*
X115952Y220860D01*
X116078Y220508D01*
X116166Y220144D01*
X116219Y219774D01*
X116237Y219400D01*
X116219Y219026D01*
X116166Y218656D01*
X116078Y218292D01*
X115956Y217939D01*
X115906Y217789D01*
X115883Y217634D01*
X115885Y217476D01*
X115912Y217321D01*
X115962Y217172D01*
X116036Y217033D01*
X116130Y216907D01*
X116242Y216797D01*
X116371Y216706D01*
X116512Y216636D01*
X116662Y216589D01*
X116818Y216567D01*
X116975Y216568D01*
X117061Y216583D01*
Y199000D01*
X112302D01*
Y202054D01*
X114259Y202057D01*
X114412Y202094D01*
X114557Y202154D01*
X114692Y202236D01*
X114811Y202339D01*
X114914Y202458D01*
X114996Y202593D01*
X115056Y202738D01*
X115093Y202891D01*
X115102Y203048D01*
X115093Y209109D01*
X115056Y209262D01*
X114996Y209407D01*
X114914Y209542D01*
X114811Y209661D01*
X114692Y209764D01*
X114557Y209846D01*
X114412Y209906D01*
X114259Y209943D01*
X114102Y209952D01*
X112302Y209949D01*
Y213456D01*
X112864Y213483D01*
X113423Y213563D01*
X113972Y213696D01*
X114506Y213881D01*
X114648Y213950D01*
X114777Y214042D01*
X114891Y214152D01*
X114985Y214279D01*
X115059Y214419D01*
X115109Y214568D01*
X115136Y214724D01*
X115138Y214882D01*
X115115Y215039D01*
X115068Y215190D01*
X114998Y215331D01*
X114907Y215461D01*
X114796Y215574D01*
X114670Y215668D01*
X114530Y215742D01*
X114380Y215792D01*
X114224Y215819D01*
X114066Y215821D01*
X113910Y215798D01*
X113760Y215748D01*
X113408Y215622D01*
X113044Y215534D01*
X112674Y215481D01*
X112302Y215463D01*
Y223337D01*
X112674Y223319D01*
X113044Y223266D01*
X113408Y223178D01*
X113761Y223056D01*
X113911Y223006D01*
X114066Y222983D01*
X114224Y222985D01*
X114379Y223012D01*
X114528Y223062D01*
X114667Y223136D01*
X114793Y223230D01*
X114903Y223342D01*
X114994Y223471D01*
X115064Y223612D01*
X115111Y223762D01*
X115133Y223918D01*
X115132Y224075D01*
X115105Y224231D01*
X115054Y224380D01*
X114981Y224519D01*
X114887Y224645D01*
X114775Y224755D01*
X114646Y224846D01*
X114504Y224913D01*
X113972Y225104D01*
X113423Y225237D01*
X112864Y225317D01*
X112302Y225344D01*
Y229000D01*
G37*
G36*
Y199000D02*X108000D01*
Y202863D01*
X108030Y202738D01*
X108090Y202593D01*
X108172Y202458D01*
X108275Y202339D01*
X108394Y202236D01*
X108529Y202154D01*
X108674Y202094D01*
X108827Y202057D01*
X108984Y202048D01*
X112302Y202054D01*
Y199000D01*
G37*
G36*
X108000Y229000D02*X112302D01*
Y225344D01*
X112300Y225344D01*
X111736Y225317D01*
X111177Y225237D01*
X110628Y225104D01*
X110094Y224919D01*
X109952Y224850D01*
X109823Y224758D01*
X109709Y224648D01*
X109615Y224521D01*
X109541Y224381D01*
X109491Y224232D01*
X109464Y224076D01*
X109462Y223918D01*
X109485Y223761D01*
X109532Y223610D01*
X109602Y223469D01*
X109693Y223339D01*
X109804Y223226D01*
X109930Y223132D01*
X110070Y223058D01*
X110220Y223008D01*
X110376Y222981D01*
X110534Y222979D01*
X110690Y223002D01*
X110840Y223052D01*
X111192Y223178D01*
X111556Y223266D01*
X111926Y223319D01*
X112300Y223337D01*
X112302Y223337D01*
Y215463D01*
X112300Y215463D01*
X111926Y215481D01*
X111556Y215534D01*
X111192Y215622D01*
X110839Y215744D01*
X110689Y215794D01*
X110534Y215817D01*
X110376Y215815D01*
X110221Y215788D01*
X110072Y215738D01*
X109933Y215664D01*
X109807Y215570D01*
X109697Y215458D01*
X109606Y215329D01*
X109536Y215188D01*
X109489Y215038D01*
X109467Y214882D01*
X109468Y214725D01*
X109495Y214569D01*
X109546Y214420D01*
X109619Y214281D01*
X109713Y214155D01*
X109825Y214045D01*
X109954Y213954D01*
X110096Y213887D01*
X110628Y213696D01*
X111177Y213563D01*
X111736Y213483D01*
X112300Y213456D01*
X112302Y213456D01*
Y209949D01*
X108827Y209943D01*
X108674Y209906D01*
X108529Y209846D01*
X108394Y209764D01*
X108275Y209661D01*
X108172Y209542D01*
X108090Y209407D01*
X108030Y209262D01*
X108000Y209137D01*
Y216604D01*
X108090Y216632D01*
X108231Y216702D01*
X108361Y216793D01*
X108474Y216904D01*
X108568Y217030D01*
X108642Y217170D01*
X108692Y217320D01*
X108719Y217476D01*
X108721Y217634D01*
X108698Y217790D01*
X108648Y217940D01*
X108522Y218292D01*
X108434Y218656D01*
X108381Y219026D01*
X108363Y219400D01*
X108381Y219774D01*
X108434Y220144D01*
X108522Y220508D01*
X108644Y220861D01*
X108694Y221011D01*
X108717Y221166D01*
X108715Y221324D01*
X108688Y221479D01*
X108638Y221628D01*
X108564Y221767D01*
X108470Y221893D01*
X108358Y222003D01*
X108229Y222094D01*
X108088Y222164D01*
X108000Y222191D01*
Y229000D01*
G37*
G36*
Y211000D02*X118000D01*
Y201000D01*
X108000D01*
Y211000D01*
G37*
G36*
X101000Y208000D02*Y211000D01*
X105000D01*
Y210000D01*
X103000Y208000D01*
X101000D01*
G37*
G36*
X63000Y206000D02*Y210369D01*
X64385Y210372D01*
X64615Y210427D01*
X64833Y210517D01*
X65017Y210630D01*
X65037Y210372D01*
X65184Y209760D01*
X65425Y209178D01*
X65754Y208642D01*
X66163Y208163D01*
X66642Y207754D01*
X67178Y207425D01*
X67760Y207184D01*
X68372Y207037D01*
X69000Y206988D01*
X69628Y207037D01*
X70240Y207184D01*
X70822Y207425D01*
X71358Y207754D01*
X71837Y208163D01*
X72246Y208642D01*
X72575Y209178D01*
X72816Y209760D01*
X72963Y210372D01*
X73000Y211000D01*
X72963Y211628D01*
X72874Y212000D01*
X106000D01*
Y209950D01*
X101741Y209943D01*
X101588Y209906D01*
X101443Y209846D01*
X101308Y209764D01*
X101189Y209661D01*
X101086Y209542D01*
X101004Y209407D01*
X100944Y209262D01*
X100907Y209109D01*
X100898Y208952D01*
X100903Y206000D01*
X99833D01*
X99862Y206070D01*
X99972Y206529D01*
X100000Y207000D01*
X99972Y207471D01*
X99862Y207930D01*
X99681Y208366D01*
X99435Y208769D01*
X99128Y209128D01*
X98769Y209435D01*
X98366Y209681D01*
X97930Y209862D01*
X97471Y209972D01*
X97000Y210009D01*
X96529Y209972D01*
X96070Y209862D01*
X95634Y209681D01*
X95231Y209435D01*
X94872Y209128D01*
X94565Y208769D01*
X94319Y208366D01*
X94138Y207930D01*
X94028Y207471D01*
X93991Y207000D01*
X94028Y206529D01*
X94138Y206070D01*
X94167Y206000D01*
X63000D01*
G37*
G36*
X65000D02*Y208000D01*
X66354D01*
X66642Y207754D01*
X67178Y207425D01*
X67760Y207184D01*
X68372Y207037D01*
X69000Y206988D01*
X69628Y207037D01*
X70240Y207184D01*
X70822Y207425D01*
X71358Y207754D01*
X71646Y208000D01*
X94167D01*
X94138Y207930D01*
X94028Y207471D01*
X93991Y207000D01*
X94028Y206529D01*
X94138Y206070D01*
X94319Y205634D01*
X94565Y205231D01*
X94872Y204872D01*
X95231Y204565D01*
X95634Y204319D01*
X96070Y204138D01*
X96529Y204028D01*
X97000Y203991D01*
Y203000D01*
X68000D01*
X65000Y206000D01*
G37*
G36*
X90000Y212000D02*X107000D01*
Y203000D01*
X90000D01*
Y212000D01*
G37*
G36*
X80000Y188000D02*X107000D01*
Y182000D01*
X80000D01*
Y188000D01*
G37*
G36*
X67000Y199000D02*X90000D01*
Y157000D01*
X67000D01*
Y199000D01*
G37*
G36*
X85500D02*X86882D01*
X86529Y198972D01*
X86070Y198862D01*
X85634Y198681D01*
X85500Y198599D01*
Y199000D01*
G37*
G36*
Y145130D02*X85588Y145094D01*
X85741Y145057D01*
X85898Y145048D01*
X90000Y145055D01*
Y143950D01*
X85741Y143943D01*
X85588Y143906D01*
X85500Y143870D01*
Y145130D01*
G37*
G36*
Y170901D02*X85634Y170819D01*
X86070Y170638D01*
X86529Y170528D01*
X87000Y170491D01*
X87471Y170528D01*
X87930Y170638D01*
X88366Y170819D01*
X88769Y171065D01*
X89128Y171372D01*
X89435Y171731D01*
X89681Y172134D01*
X89862Y172570D01*
X89972Y173029D01*
X90000Y173500D01*
Y152950D01*
X85741Y152943D01*
X85588Y152906D01*
X85500Y152870D01*
Y154254D01*
X88107Y154259D01*
X88260Y154296D01*
X88405Y154356D01*
X88540Y154438D01*
X88659Y154541D01*
X88762Y154660D01*
X88844Y154795D01*
X88904Y154940D01*
X88941Y155093D01*
X88950Y155250D01*
X88941Y163907D01*
X88904Y164060D01*
X88844Y164205D01*
X88762Y164340D01*
X88659Y164459D01*
X88540Y164562D01*
X88405Y164644D01*
X88260Y164704D01*
X88107Y164741D01*
X87950Y164750D01*
X85500Y164746D01*
Y170901D01*
G37*
G36*
X74343Y172904D02*X82935Y172914D01*
X83165Y172969D01*
X83383Y173059D01*
X83584Y173183D01*
X83764Y173336D01*
X83917Y173516D01*
X84003Y173655D01*
X83991Y173500D01*
X84028Y173029D01*
X84138Y172570D01*
X84319Y172134D01*
X84565Y171731D01*
X84872Y171372D01*
X85231Y171065D01*
X85500Y170901D01*
Y164746D01*
X82893Y164741D01*
X82740Y164704D01*
X82595Y164644D01*
X82460Y164562D01*
X82341Y164459D01*
X82238Y164340D01*
X82156Y164205D01*
X82096Y164060D01*
X82059Y163907D01*
X82050Y163750D01*
X82059Y155093D01*
X82096Y154940D01*
X82156Y154795D01*
X82238Y154660D01*
X82341Y154541D01*
X82460Y154438D01*
X82595Y154356D01*
X82740Y154296D01*
X82893Y154259D01*
X83050Y154250D01*
X85500Y154254D01*
Y152870D01*
X85443Y152846D01*
X85308Y152764D01*
X85189Y152661D01*
X85086Y152542D01*
X85004Y152407D01*
X84944Y152262D01*
X84907Y152109D01*
X84898Y151952D01*
X84907Y145891D01*
X84944Y145738D01*
X85004Y145593D01*
X85086Y145458D01*
X85189Y145339D01*
X85308Y145236D01*
X85443Y145154D01*
X85500Y145130D01*
Y143870D01*
X85443Y143846D01*
X85308Y143764D01*
X85189Y143661D01*
X85086Y143542D01*
X85004Y143407D01*
X84944Y143262D01*
X84907Y143109D01*
X84898Y142952D01*
X84901Y140813D01*
X84854Y140697D01*
X84771Y140353D01*
X84750Y140000D01*
Y137000D01*
X74343D01*
Y137248D01*
X74461Y137257D01*
X74575Y137285D01*
X74685Y137330D01*
X74785Y137391D01*
X74875Y137468D01*
X74952Y137558D01*
X75013Y137658D01*
X75058Y137768D01*
X75086Y137882D01*
X75093Y138000D01*
Y141400D01*
X75086Y141518D01*
X75058Y141632D01*
X75013Y141742D01*
X74952Y141842D01*
X74875Y141932D01*
X74785Y142009D01*
X74685Y142070D01*
X74575Y142115D01*
X74461Y142143D01*
X74343Y142152D01*
Y172904D01*
G37*
G36*
X82700Y197100D02*X74343Y197091D01*
Y199000D01*
X85500D01*
Y198599D01*
X85231Y198435D01*
X84872Y198128D01*
X84565Y197769D01*
X84319Y197366D01*
X84138Y196930D01*
X84028Y196471D01*
X84016Y196323D01*
X83917Y196484D01*
X83764Y196664D01*
X83584Y196817D01*
X83383Y196941D01*
X83165Y197031D01*
X82935Y197086D01*
X82700Y197100D01*
G37*
G36*
X70393Y172906D02*X70500Y172900D01*
X74343Y172904D01*
Y142152D01*
X74225Y142143D01*
X74111Y142115D01*
X74001Y142070D01*
X73901Y142009D01*
X73811Y141932D01*
X73734Y141842D01*
X73673Y141742D01*
X73628Y141632D01*
X73600Y141518D01*
X73593Y141400D01*
Y138000D01*
X73600Y137882D01*
X73628Y137768D01*
X73673Y137658D01*
X73734Y137558D01*
X73811Y137468D01*
X73901Y137391D01*
X74001Y137330D01*
X74111Y137285D01*
X74225Y137257D01*
X74343Y137248D01*
Y137000D01*
X70393D01*
Y142900D01*
X72093D01*
X72211Y142907D01*
X72325Y142935D01*
X72435Y142980D01*
X72535Y143041D01*
X72625Y143118D01*
X72702Y143208D01*
X72763Y143308D01*
X72808Y143418D01*
X72836Y143532D01*
X72845Y143650D01*
X72836Y143768D01*
X72808Y143882D01*
X72763Y143992D01*
X72702Y144092D01*
X72625Y144182D01*
X72535Y144259D01*
X72435Y144320D01*
X72325Y144365D01*
X72211Y144393D01*
X72093Y144400D01*
X70393D01*
Y172906D01*
G37*
G36*
X74343Y197091D02*X70393Y197086D01*
Y199000D01*
X74343D01*
Y197091D01*
G37*
G36*
X70393Y197086D02*X70265Y197086D01*
X70035Y197031D01*
X69817Y196941D01*
X69616Y196817D01*
X69436Y196664D01*
X69283Y196484D01*
X69159Y196283D01*
X69069Y196065D01*
X69014Y195835D01*
X69000Y195600D01*
X69014Y174165D01*
X69069Y173935D01*
X69159Y173717D01*
X69283Y173516D01*
X69436Y173336D01*
X69616Y173183D01*
X69817Y173059D01*
X70035Y172969D01*
X70265Y172914D01*
X70393Y172906D01*
Y144400D01*
X68693D01*
X68575Y144393D01*
X68461Y144365D01*
X68351Y144320D01*
X68251Y144259D01*
X68161Y144182D01*
X68084Y144092D01*
X68023Y143992D01*
X67978Y143882D01*
X67950Y143768D01*
X67941Y143650D01*
X67950Y143532D01*
X67978Y143418D01*
X68023Y143308D01*
X68084Y143208D01*
X68161Y143118D01*
X68251Y143041D01*
X68351Y142980D01*
X68461Y142935D01*
X68575Y142907D01*
X68693Y142900D01*
X70393D01*
Y137000D01*
X67000D01*
Y137497D01*
X67052Y137558D01*
X67113Y137658D01*
X67158Y137768D01*
X67186Y137882D01*
X67193Y138000D01*
Y141400D01*
X67186Y141518D01*
X67158Y141632D01*
X67113Y141742D01*
X67052Y141842D01*
X67000Y141903D01*
Y199000D01*
X70393D01*
Y197086D01*
G37*
G36*
X91000Y137000D02*X82000D01*
Y165000D01*
X91000D01*
Y137000D01*
G37*
G36*
X93000D02*Y179000D01*
X108000D01*
Y137000D01*
X93000D01*
G37*
G36*
X110000Y207000D02*X124000D01*
Y106000D01*
X110000D01*
Y207000D01*
G37*
G36*
X64500Y139000D02*X65693D01*
Y138000D01*
X65700Y137882D01*
X65728Y137768D01*
X65773Y137658D01*
X65834Y137558D01*
X65911Y137468D01*
X66001Y137391D01*
X66101Y137330D01*
X66211Y137285D01*
X66325Y137257D01*
X66443Y137248D01*
X66561Y137257D01*
X66675Y137285D01*
X66785Y137330D01*
X66885Y137391D01*
X66975Y137468D01*
X67052Y137558D01*
X67113Y137658D01*
X67158Y137768D01*
X67186Y137882D01*
X67193Y138000D01*
Y139000D01*
X73593D01*
Y138000D01*
X73600Y137882D01*
X73628Y137768D01*
X73673Y137658D01*
X73734Y137558D01*
X73811Y137468D01*
X73901Y137391D01*
X74001Y137330D01*
X74111Y137285D01*
X74225Y137257D01*
X74343Y137248D01*
X74461Y137257D01*
X74575Y137285D01*
X74685Y137330D01*
X74785Y137391D01*
X74875Y137468D01*
X74952Y137558D01*
X75013Y137658D01*
X75058Y137768D01*
X75086Y137882D01*
X75093Y138000D01*
Y139000D01*
X76500D01*
Y136000D01*
X72801D01*
X72763Y136092D01*
X72702Y136192D01*
X72625Y136282D01*
X72535Y136359D01*
X72435Y136420D01*
X72325Y136465D01*
X72211Y136493D01*
X72093Y136500D01*
X70908D01*
X70393Y136540D01*
X69878Y136500D01*
X68693D01*
X68575Y136493D01*
X68461Y136465D01*
X68351Y136420D01*
X68251Y136359D01*
X68161Y136282D01*
X68084Y136192D01*
X68023Y136092D01*
X67985Y136000D01*
X64500D01*
Y139000D01*
G37*
G36*
X63000Y139500D02*X65693D01*
Y138000D01*
X65700Y137882D01*
X65728Y137768D01*
X65773Y137658D01*
X65834Y137558D01*
X65911Y137468D01*
X66001Y137391D01*
X66101Y137330D01*
X66211Y137285D01*
X66325Y137257D01*
X66443Y137248D01*
X66561Y137257D01*
X66675Y137285D01*
X66785Y137330D01*
X66885Y137391D01*
X66975Y137468D01*
X67052Y137558D01*
X67113Y137658D01*
X67158Y137768D01*
X67186Y137882D01*
X67193Y138000D01*
Y139500D01*
X73593D01*
Y138000D01*
X73600Y137882D01*
X73628Y137768D01*
X73673Y137658D01*
X73734Y137558D01*
X73811Y137468D01*
X73901Y137391D01*
X74001Y137330D01*
X74111Y137285D01*
X74225Y137257D01*
X74343Y137248D01*
X74461Y137257D01*
X74575Y137285D01*
X74685Y137330D01*
X74785Y137391D01*
X74875Y137468D01*
X74952Y137558D01*
X75013Y137658D01*
X75058Y137768D01*
X75086Y137882D01*
X75093Y138000D01*
Y139500D01*
X82000D01*
Y136000D01*
X72801D01*
X72763Y136092D01*
X72702Y136192D01*
X72625Y136282D01*
X72535Y136359D01*
X72435Y136420D01*
X72325Y136465D01*
X72211Y136493D01*
X72093Y136500D01*
X70908D01*
X70393Y136540D01*
X69878Y136500D01*
X68693D01*
X68575Y136493D01*
X68461Y136465D01*
X68351Y136420D01*
X68251Y136359D01*
X68161Y136282D01*
X68084Y136192D01*
X68023Y136092D01*
X67985Y136000D01*
X63000D01*
Y139500D01*
G37*
G36*
X80000Y136000D02*Y139000D01*
X83000D01*
Y137000D01*
X82000Y136000D01*
X80000D01*
G37*
G36*
X34000Y227000D02*X43000D01*
Y213000D01*
X34000D01*
Y227000D01*
G37*
G36*
Y233000D02*Y247000D01*
X65000D01*
X66000Y246000D01*
Y232000D01*
X65000Y231000D01*
X57000D01*
X55000Y233000D01*
X34000D01*
G37*
G36*
X51000Y206000D02*X48000Y209000D01*
Y227000D01*
X50000Y229000D01*
X72000D01*
X74000Y227000D01*
Y208000D01*
X72000Y206000D01*
X51000D01*
G37*
G36*
X26750Y165000D02*X28000D01*
X32000Y161000D01*
Y147000D01*
X29000Y144000D01*
X26750D01*
Y149748D01*
X26868Y149757D01*
X26982Y149785D01*
X27092Y149830D01*
X27192Y149891D01*
X27282Y149968D01*
X27359Y150058D01*
X27420Y150158D01*
X27465Y150268D01*
X27493Y150382D01*
X27500Y150500D01*
Y155500D01*
X27493Y155618D01*
X27465Y155732D01*
X27420Y155842D01*
X27359Y155942D01*
X27282Y156032D01*
X27192Y156109D01*
X27092Y156170D01*
X26982Y156215D01*
X26868Y156243D01*
X26750Y156252D01*
Y165000D01*
G37*
G36*
X22000D02*X26750D01*
Y156252D01*
X26632Y156243D01*
X26518Y156215D01*
X26408Y156170D01*
X26308Y156109D01*
X26218Y156032D01*
X26141Y155942D01*
X26080Y155842D01*
X26035Y155732D01*
X26007Y155618D01*
X26000Y155500D01*
Y150500D01*
X26007Y150382D01*
X26035Y150268D01*
X26080Y150158D01*
X26141Y150058D01*
X26218Y149968D01*
X26308Y149891D01*
X26408Y149830D01*
X26518Y149785D01*
X26632Y149757D01*
X26750Y149748D01*
Y144000D01*
X22000D01*
Y147500D01*
X24500D01*
X24618Y147507D01*
X24732Y147535D01*
X24842Y147580D01*
X24942Y147641D01*
X25032Y147718D01*
X25109Y147808D01*
X25170Y147908D01*
X25215Y148018D01*
X25243Y148132D01*
X25252Y148250D01*
X25243Y148368D01*
X25215Y148482D01*
X25170Y148592D01*
X25109Y148692D01*
X25032Y148782D01*
X24942Y148859D01*
X24842Y148920D01*
X24732Y148965D01*
X24618Y148993D01*
X24500Y149000D01*
X22000D01*
Y157000D01*
X24500D01*
X24618Y157007D01*
X24732Y157035D01*
X24842Y157080D01*
X24942Y157141D01*
X25032Y157218D01*
X25109Y157308D01*
X25170Y157408D01*
X25215Y157518D01*
X25243Y157632D01*
X25252Y157750D01*
X25243Y157868D01*
X25215Y157982D01*
X25170Y158092D01*
X25109Y158192D01*
X25032Y158282D01*
X24942Y158359D01*
X24842Y158420D01*
X24732Y158465D01*
X24618Y158493D01*
X24500Y158500D01*
X22000D01*
Y165000D01*
G37*
G36*
X39000Y227000D02*X43000D01*
X45000Y225000D01*
Y205000D01*
X47000Y203000D01*
X61000D01*
X65000Y199000D01*
Y182000D01*
X62000Y179000D01*
X50000D01*
X42000Y187000D01*
Y194000D01*
X39000Y197000D01*
Y220704D01*
X41557Y220709D01*
X41710Y220746D01*
X41855Y220806D01*
X41990Y220888D01*
X42109Y220991D01*
X42212Y221110D01*
X42294Y221245D01*
X42354Y221390D01*
X42391Y221543D01*
X42400Y221700D01*
X42391Y225457D01*
X42354Y225610D01*
X42294Y225755D01*
X42212Y225890D01*
X42109Y226009D01*
X41990Y226112D01*
X41855Y226194D01*
X41710Y226254D01*
X41557Y226291D01*
X41400Y226300D01*
X39000Y226296D01*
Y227000D01*
G37*
G36*
X35000D02*X39000D01*
Y226296D01*
X36443Y226291D01*
X36290Y226254D01*
X36145Y226194D01*
X36010Y226112D01*
X35891Y226009D01*
X35788Y225890D01*
X35706Y225755D01*
X35646Y225610D01*
X35609Y225457D01*
X35600Y225300D01*
X35609Y221543D01*
X35646Y221390D01*
X35706Y221245D01*
X35788Y221110D01*
X35891Y220991D01*
X36010Y220888D01*
X36145Y220806D01*
X36290Y220746D01*
X36443Y220709D01*
X36600Y220700D01*
X39000Y220704D01*
Y197000D01*
X34000Y202000D01*
X22000D01*
Y216000D01*
X29000D01*
X32000Y219000D01*
Y225000D01*
X34000Y227000D01*
X35000D01*
G37*
G36*
X22000Y202000D02*X22000D01*
X19000Y199000D01*
Y168000D01*
X22000Y165000D01*
X22000D01*
Y158500D01*
X19500D01*
X19382Y158493D01*
X19268Y158465D01*
X19158Y158420D01*
X19058Y158359D01*
X18968Y158282D01*
X18891Y158192D01*
X18830Y158092D01*
X18785Y157982D01*
X18757Y157868D01*
X18748Y157750D01*
X18757Y157632D01*
X18785Y157518D01*
X18830Y157408D01*
X18891Y157308D01*
X18968Y157218D01*
X19058Y157141D01*
X19158Y157080D01*
X19268Y157035D01*
X19382Y157007D01*
X19500Y157000D01*
X22000D01*
Y149000D01*
X19500D01*
X19382Y148993D01*
X19268Y148965D01*
X19158Y148920D01*
X19058Y148859D01*
X18968Y148782D01*
X18891Y148692D01*
X18830Y148592D01*
X18785Y148482D01*
X18757Y148368D01*
X18748Y148250D01*
X18757Y148132D01*
X18785Y148018D01*
X18830Y147908D01*
X18891Y147808D01*
X18968Y147718D01*
X19058Y147641D01*
X19158Y147580D01*
X19268Y147535D01*
X19382Y147507D01*
X19500Y147500D01*
X22000D01*
Y144000D01*
X17250D01*
Y149748D01*
X17368Y149757D01*
X17482Y149785D01*
X17592Y149830D01*
X17692Y149891D01*
X17782Y149968D01*
X17859Y150058D01*
X17920Y150158D01*
X17965Y150268D01*
X17993Y150382D01*
X18000Y150500D01*
Y155500D01*
X17993Y155618D01*
X17965Y155732D01*
X17920Y155842D01*
X17859Y155942D01*
X17782Y156032D01*
X17692Y156109D01*
X17592Y156170D01*
X17482Y156215D01*
X17368Y156243D01*
X17250Y156252D01*
Y216000D01*
X22000D01*
Y202000D01*
G37*
G36*
X17250Y144000D02*X6000D01*
X3000Y147000D01*
Y213000D01*
X6000Y216000D01*
X17250D01*
Y156252D01*
X17132Y156243D01*
X17018Y156215D01*
X16908Y156170D01*
X16808Y156109D01*
X16718Y156032D01*
X16641Y155942D01*
X16580Y155842D01*
X16535Y155732D01*
X16507Y155618D01*
X16500Y155500D01*
Y150500D01*
X16507Y150382D01*
X16535Y150268D01*
X16580Y150158D01*
X16641Y150058D01*
X16718Y149968D01*
X16808Y149891D01*
X16908Y149830D01*
X17018Y149785D01*
X17132Y149757D01*
X17250Y149748D01*
Y144000D01*
G37*
G36*
X53000Y247000D02*X95000D01*
Y245250D01*
X93000D01*
X92647Y245229D01*
X92303Y245146D01*
X91975Y245011D01*
X91673Y244826D01*
X91404Y244596D01*
X91174Y244327D01*
X90989Y244025D01*
X90854Y243697D01*
X90771Y243353D01*
X90743Y243000D01*
X90771Y242647D01*
X90854Y242303D01*
X90989Y241975D01*
X91174Y241673D01*
X91404Y241404D01*
X91673Y241174D01*
X91975Y240989D01*
X92303Y240854D01*
X92647Y240771D01*
X93000Y240750D01*
X95000D01*
Y232000D01*
X65650D01*
X65636Y244377D01*
X65581Y244607D01*
X65491Y244825D01*
X65367Y245026D01*
X65214Y245206D01*
X65034Y245359D01*
X64833Y245483D01*
X64615Y245573D01*
X64385Y245628D01*
X64150Y245642D01*
X57615Y245628D01*
X57385Y245573D01*
X57167Y245483D01*
X56966Y245359D01*
X56786Y245206D01*
X56633Y245026D01*
X56509Y244825D01*
X56419Y244607D01*
X56364Y244377D01*
X56350Y244142D01*
X56363Y232000D01*
X53000D01*
Y247000D01*
G37*
G36*
X80000Y232000D02*Y247000D01*
X95000D01*
X96750Y245250D01*
X93000D01*
X92647Y245229D01*
X92303Y245146D01*
X91975Y245011D01*
X91673Y244826D01*
X91404Y244596D01*
X91174Y244327D01*
X90989Y244025D01*
X90854Y243697D01*
X90771Y243353D01*
X90743Y243000D01*
X90771Y242647D01*
X90854Y242303D01*
X90989Y241975D01*
X91174Y241673D01*
X91404Y241404D01*
X91673Y241174D01*
X91975Y240989D01*
X92303Y240854D01*
X92647Y240771D01*
X93000Y240750D01*
X97000D01*
Y221931D01*
X96945Y221875D01*
X96854Y221746D01*
X96787Y221604D01*
X96596Y221072D01*
X96463Y220523D01*
X96383Y219964D01*
X96356Y219400D01*
X96383Y218836D01*
X96463Y218277D01*
X96596Y217728D01*
X96781Y217194D01*
X96850Y217052D01*
X96942Y216923D01*
X97000Y216863D01*
Y214000D01*
X88000D01*
X86000Y216000D01*
Y226000D01*
X80000Y232000D01*
G37*
G36*
X74000Y226000D02*X83000Y217000D01*
Y214000D01*
X87000Y210000D01*
Y207000D01*
X72000D01*
Y208354D01*
X72246Y208642D01*
X72575Y209178D01*
X72816Y209760D01*
X72963Y210372D01*
X73000Y211000D01*
X72963Y211628D01*
X72816Y212240D01*
X72575Y212822D01*
X72246Y213358D01*
X72000Y213646D01*
Y221354D01*
X72246Y221642D01*
X72575Y222178D01*
X72816Y222760D01*
X72963Y223372D01*
X73000Y224000D01*
X72963Y224628D01*
X72816Y225240D01*
X72575Y225822D01*
X72246Y226358D01*
X72000Y226646D01*
Y227000D01*
X74000D01*
Y226000D01*
G37*
G36*
X89000Y245000D02*X97000D01*
Y236000D01*
X89000D01*
Y245000D01*
G37*
G36*
X98000Y235000D02*X106000D01*
Y226000D01*
X98000D01*
Y235000D01*
G37*
G36*
X99000D02*X107000D01*
Y226000D01*
X99000D01*
Y235000D01*
G37*
G36*
X79000Y137000D02*X74343D01*
Y137248D01*
X74461Y137257D01*
X74575Y137285D01*
X74685Y137330D01*
X74785Y137391D01*
X74875Y137468D01*
X74952Y137558D01*
X75013Y137658D01*
X75058Y137768D01*
X75086Y137882D01*
X75093Y138000D01*
Y141400D01*
X75086Y141518D01*
X75058Y141632D01*
X75013Y141742D01*
X74952Y141842D01*
X74875Y141932D01*
X74785Y142009D01*
X74685Y142070D01*
X74575Y142115D01*
X74461Y142143D01*
X74343Y142152D01*
Y172904D01*
X79000Y172910D01*
Y137000D01*
G37*
G36*
X74343D02*X70393D01*
Y142900D01*
X72093D01*
X72211Y142907D01*
X72325Y142935D01*
X72435Y142980D01*
X72535Y143041D01*
X72625Y143118D01*
X72702Y143208D01*
X72763Y143308D01*
X72808Y143418D01*
X72836Y143532D01*
X72845Y143650D01*
X72836Y143768D01*
X72808Y143882D01*
X72763Y143992D01*
X72702Y144092D01*
X72625Y144182D01*
X72535Y144259D01*
X72435Y144320D01*
X72325Y144365D01*
X72211Y144393D01*
X72093Y144400D01*
X70393D01*
Y172906D01*
X70500Y172900D01*
X74343Y172904D01*
Y142152D01*
X74225Y142143D01*
X74111Y142115D01*
X74001Y142070D01*
X73901Y142009D01*
X73811Y141932D01*
X73734Y141842D01*
X73673Y141742D01*
X73628Y141632D01*
X73600Y141518D01*
X73593Y141400D01*
Y138000D01*
X73600Y137882D01*
X73628Y137768D01*
X73673Y137658D01*
X73734Y137558D01*
X73811Y137468D01*
X73901Y137391D01*
X74001Y137330D01*
X74111Y137285D01*
X74225Y137257D01*
X74343Y137248D01*
Y137000D01*
G37*
G36*
X70393D02*X66443D01*
Y137248D01*
X66561Y137257D01*
X66675Y137285D01*
X66785Y137330D01*
X66885Y137391D01*
X66975Y137468D01*
X67052Y137558D01*
X67113Y137658D01*
X67158Y137768D01*
X67186Y137882D01*
X67193Y138000D01*
Y141400D01*
X67186Y141518D01*
X67158Y141632D01*
X67113Y141742D01*
X67052Y141842D01*
X66975Y141932D01*
X66885Y142009D01*
X66785Y142070D01*
X66675Y142115D01*
X66561Y142143D01*
X66443Y142152D01*
Y177443D01*
X67000Y178000D01*
X69011D01*
X69014Y174165D01*
X69069Y173935D01*
X69159Y173717D01*
X69283Y173516D01*
X69436Y173336D01*
X69616Y173183D01*
X69817Y173059D01*
X70035Y172969D01*
X70265Y172914D01*
X70393Y172906D01*
Y144400D01*
X68693D01*
X68575Y144393D01*
X68461Y144365D01*
X68351Y144320D01*
X68251Y144259D01*
X68161Y144182D01*
X68084Y144092D01*
X68023Y143992D01*
X67978Y143882D01*
X67950Y143768D01*
X67941Y143650D01*
X67950Y143532D01*
X67978Y143418D01*
X68023Y143308D01*
X68084Y143208D01*
X68161Y143118D01*
X68251Y143041D01*
X68351Y142980D01*
X68461Y142935D01*
X68575Y142907D01*
X68693Y142900D01*
X70393D01*
Y137000D01*
G37*
G36*
X66443D02*X58000D01*
Y173000D01*
X61000Y176000D01*
X65000D01*
X66443Y177443D01*
Y142152D01*
X66325Y142143D01*
X66211Y142115D01*
X66101Y142070D01*
X66001Y142009D01*
X65911Y141932D01*
X65834Y141842D01*
X65773Y141742D01*
X65728Y141632D01*
X65700Y141518D01*
X65693Y141400D01*
Y138000D01*
X65700Y137882D01*
X65728Y137768D01*
X65773Y137658D01*
X65834Y137558D01*
X65911Y137468D01*
X66001Y137391D01*
X66101Y137330D01*
X66211Y137285D01*
X66325Y137257D01*
X66443Y137248D01*
Y137000D01*
G37*
G36*
X190493Y172000D02*X193000D01*
Y158000D01*
X190493D01*
Y162145D01*
X190578Y162181D01*
X190679Y162243D01*
X190769Y162319D01*
X190845Y162409D01*
X190905Y162511D01*
X191122Y162980D01*
X191289Y163469D01*
X191409Y163972D01*
X191482Y164484D01*
X191506Y165000D01*
X191482Y165516D01*
X191409Y166028D01*
X191289Y166531D01*
X191122Y167020D01*
X190910Y167492D01*
X190849Y167593D01*
X190772Y167684D01*
X190682Y167761D01*
X190580Y167823D01*
X190493Y167860D01*
Y172000D01*
G37*
G36*
X186002D02*X190493D01*
Y167860D01*
X190471Y167869D01*
X190355Y167897D01*
X190237Y167906D01*
X190119Y167897D01*
X190003Y167870D01*
X189893Y167824D01*
X189792Y167762D01*
X189702Y167686D01*
X189624Y167595D01*
X189562Y167494D01*
X189516Y167385D01*
X189489Y167269D01*
X189479Y167151D01*
X189488Y167032D01*
X189516Y166917D01*
X189563Y166808D01*
X189721Y166468D01*
X189842Y166112D01*
X189930Y165747D01*
X189982Y165375D01*
X190000Y165000D01*
X189982Y164625D01*
X189930Y164253D01*
X189842Y163888D01*
X189721Y163532D01*
X189567Y163190D01*
X189520Y163082D01*
X189493Y162967D01*
X189483Y162849D01*
X189493Y162732D01*
X189521Y162617D01*
X189566Y162508D01*
X189628Y162407D01*
X189705Y162318D01*
X189795Y162241D01*
X189895Y162180D01*
X190004Y162135D01*
X190119Y162107D01*
X190237Y162098D01*
X190355Y162108D01*
X190469Y162135D01*
X190493Y162145D01*
Y158000D01*
X186002D01*
Y159494D01*
X186516Y159518D01*
X187028Y159591D01*
X187531Y159711D01*
X188020Y159878D01*
X188492Y160090D01*
X188593Y160151D01*
X188684Y160228D01*
X188761Y160318D01*
X188823Y160420D01*
X188869Y160529D01*
X188897Y160645D01*
X188906Y160763D01*
X188897Y160881D01*
X188870Y160997D01*
X188824Y161107D01*
X188762Y161208D01*
X188686Y161298D01*
X188595Y161376D01*
X188494Y161438D01*
X188385Y161484D01*
X188269Y161511D01*
X188151Y161521D01*
X188032Y161512D01*
X187917Y161484D01*
X187808Y161437D01*
X187468Y161279D01*
X187112Y161158D01*
X186747Y161070D01*
X186375Y161018D01*
X186002Y161000D01*
Y169000D01*
X186375Y168982D01*
X186747Y168930D01*
X187112Y168842D01*
X187468Y168721D01*
X187810Y168567D01*
X187918Y168520D01*
X188033Y168493D01*
X188151Y168483D01*
X188268Y168493D01*
X188383Y168521D01*
X188492Y168566D01*
X188593Y168628D01*
X188682Y168705D01*
X188759Y168795D01*
X188820Y168895D01*
X188865Y169004D01*
X188893Y169119D01*
X188902Y169237D01*
X188892Y169355D01*
X188865Y169469D01*
X188819Y169578D01*
X188757Y169679D01*
X188681Y169769D01*
X188591Y169845D01*
X188489Y169905D01*
X188020Y170122D01*
X187531Y170289D01*
X187028Y170409D01*
X186516Y170482D01*
X186002Y170506D01*
Y172000D01*
G37*
G36*
X181507D02*X186002D01*
Y170506D01*
X186000Y170506D01*
X185484Y170482D01*
X184972Y170409D01*
X184469Y170289D01*
X183980Y170122D01*
X183508Y169910D01*
X183407Y169849D01*
X183316Y169772D01*
X183239Y169682D01*
X183177Y169580D01*
X183131Y169471D01*
X183103Y169355D01*
X183094Y169237D01*
X183103Y169119D01*
X183130Y169003D01*
X183176Y168893D01*
X183238Y168792D01*
X183314Y168702D01*
X183405Y168624D01*
X183506Y168562D01*
X183615Y168516D01*
X183731Y168489D01*
X183849Y168479D01*
X183968Y168488D01*
X184083Y168516D01*
X184192Y168563D01*
X184532Y168721D01*
X184888Y168842D01*
X185253Y168930D01*
X185625Y168982D01*
X186000Y169000D01*
X186002Y169000D01*
Y161000D01*
X186000Y161000D01*
X185625Y161018D01*
X185253Y161070D01*
X184888Y161158D01*
X184532Y161279D01*
X184190Y161433D01*
X184082Y161480D01*
X183967Y161507D01*
X183849Y161517D01*
X183732Y161507D01*
X183617Y161479D01*
X183508Y161434D01*
X183407Y161372D01*
X183318Y161295D01*
X183241Y161205D01*
X183180Y161105D01*
X183135Y160996D01*
X183107Y160881D01*
X183098Y160763D01*
X183108Y160645D01*
X183135Y160531D01*
X183181Y160422D01*
X183243Y160321D01*
X183319Y160231D01*
X183409Y160155D01*
X183511Y160095D01*
X183980Y159878D01*
X184469Y159711D01*
X184972Y159591D01*
X185484Y159518D01*
X186000Y159494D01*
X186002Y159494D01*
Y158000D01*
X181507D01*
Y162140D01*
X181529Y162131D01*
X181645Y162103D01*
X181763Y162094D01*
X181881Y162103D01*
X181997Y162130D01*
X182107Y162176D01*
X182208Y162238D01*
X182298Y162314D01*
X182376Y162405D01*
X182438Y162506D01*
X182484Y162615D01*
X182511Y162731D01*
X182521Y162849D01*
X182512Y162968D01*
X182484Y163083D01*
X182437Y163192D01*
X182279Y163532D01*
X182158Y163888D01*
X182070Y164253D01*
X182018Y164625D01*
X182000Y165000D01*
X182018Y165375D01*
X182070Y165747D01*
X182158Y166112D01*
X182279Y166468D01*
X182433Y166810D01*
X182480Y166918D01*
X182507Y167033D01*
X182517Y167151D01*
X182507Y167268D01*
X182479Y167383D01*
X182434Y167492D01*
X182372Y167593D01*
X182295Y167682D01*
X182205Y167759D01*
X182105Y167820D01*
X181996Y167865D01*
X181881Y167893D01*
X181763Y167902D01*
X181645Y167892D01*
X181531Y167865D01*
X181507Y167855D01*
Y172000D01*
G37*
G36*
X141000D02*X181507D01*
Y167855D01*
X181422Y167819D01*
X181321Y167757D01*
X181231Y167681D01*
X181155Y167591D01*
X181095Y167489D01*
X180878Y167020D01*
X180711Y166531D01*
X180591Y166028D01*
X180518Y165516D01*
X180494Y165000D01*
X180518Y164484D01*
X180591Y163972D01*
X180711Y163469D01*
X180878Y162980D01*
X181090Y162508D01*
X181151Y162407D01*
X181228Y162316D01*
X181318Y162239D01*
X181420Y162177D01*
X181507Y162140D01*
Y158000D01*
X140237D01*
X140435Y158231D01*
X140681Y158634D01*
X140862Y159070D01*
X140972Y159529D01*
X141000Y160000D01*
Y172000D01*
G37*
G36*
X136000D02*X145500D01*
Y158000D01*
X136000D01*
Y172000D01*
G37*
G36*
X378745Y148010D02*X379435Y148014D01*
X379665Y148069D01*
X379883Y148159D01*
X379950Y148200D01*
X380017Y148159D01*
X380235Y148069D01*
X380465Y148014D01*
X380700Y148000D01*
X383335Y148014D01*
X383565Y148069D01*
X383783Y148159D01*
X383850Y148200D01*
X383917Y148159D01*
X384135Y148069D01*
X384250Y148041D01*
Y146725D01*
X383775Y146250D01*
X378745D01*
Y148010D01*
G37*
G36*
X384250Y163159D02*X384135Y163131D01*
X383917Y163041D01*
X383850Y163000D01*
X383783Y163041D01*
X383565Y163131D01*
X383335Y163186D01*
X383100Y163200D01*
X380465Y163186D01*
X380235Y163131D01*
X380017Y163041D01*
X379950Y163000D01*
X379883Y163041D01*
X379748Y163097D01*
X379734Y163274D01*
X379734Y163275D01*
X379669Y163542D01*
X379564Y163797D01*
X379420Y164032D01*
X379241Y164241D01*
X379189Y164286D01*
X378745Y164729D01*
Y169250D01*
X381775D01*
X384250Y166775D01*
Y163159D01*
G37*
G36*
X378745Y192500D02*X398500D01*
Y130000D01*
X378745D01*
Y142750D01*
X384431D01*
X384500Y142745D01*
X384774Y142766D01*
X384775Y142766D01*
X385042Y142831D01*
X385297Y142936D01*
X385532Y143080D01*
X385741Y143259D01*
X385786Y143311D01*
X387189Y144714D01*
X387241Y144759D01*
X387420Y144968D01*
X387564Y145203D01*
X387669Y145458D01*
X387734Y145725D01*
X387755Y146000D01*
X387750Y146069D01*
Y148200D01*
X387884Y148283D01*
X388064Y148436D01*
X388217Y148616D01*
X388341Y148817D01*
X388431Y149035D01*
X388486Y149265D01*
X388500Y149500D01*
X388486Y153735D01*
X388431Y153965D01*
X388341Y154183D01*
X388217Y154384D01*
X388064Y154564D01*
X387884Y154717D01*
X387683Y154841D01*
X387465Y154931D01*
X387235Y154986D01*
X387000Y155000D01*
X384365Y154986D01*
X384135Y154931D01*
X383917Y154841D01*
X383850Y154800D01*
X383783Y154841D01*
X383565Y154931D01*
X383335Y154986D01*
X383100Y155000D01*
X380465Y154986D01*
X380235Y154931D01*
X380017Y154841D01*
X379950Y154800D01*
X379883Y154841D01*
X379665Y154931D01*
X379435Y154986D01*
X379200Y155000D01*
X378745Y154998D01*
Y156210D01*
X379435Y156214D01*
X379665Y156269D01*
X379883Y156359D01*
X379950Y156400D01*
X380017Y156359D01*
X380235Y156269D01*
X380465Y156214D01*
X380700Y156200D01*
X383335Y156214D01*
X383565Y156269D01*
X383783Y156359D01*
X383850Y156400D01*
X383917Y156359D01*
X384135Y156269D01*
X384365Y156214D01*
X384600Y156200D01*
X387235Y156214D01*
X387465Y156269D01*
X387683Y156359D01*
X387884Y156483D01*
X388064Y156636D01*
X388217Y156816D01*
X388341Y157017D01*
X388431Y157235D01*
X388486Y157465D01*
X388500Y157700D01*
X388486Y161935D01*
X388431Y162165D01*
X388341Y162383D01*
X388217Y162584D01*
X388064Y162764D01*
X387884Y162917D01*
X387750Y163000D01*
Y167431D01*
X387755Y167500D01*
X387734Y167774D01*
X387734Y167775D01*
X387669Y168042D01*
X387564Y168297D01*
X387420Y168532D01*
X387241Y168741D01*
X387189Y168786D01*
X383786Y172189D01*
X383741Y172241D01*
X383532Y172420D01*
X383297Y172564D01*
X383042Y172669D01*
X382775Y172734D01*
X382774Y172734D01*
X382500Y172755D01*
X382431Y172750D01*
X378745D01*
Y192500D01*
G37*
G36*
X361000Y171630D02*X361057Y171654D01*
X361192Y171736D01*
X361311Y171839D01*
X361414Y171958D01*
X361496Y172093D01*
X361556Y172238D01*
X361593Y172391D01*
X361602Y172548D01*
X361593Y178609D01*
X361556Y178762D01*
X361496Y178907D01*
X361414Y179042D01*
X361311Y179161D01*
X361192Y179264D01*
X361057Y179346D01*
X361000Y179370D01*
Y192500D01*
X378745D01*
Y172750D01*
X378446D01*
X378435Y172769D01*
X378128Y173128D01*
X377769Y173435D01*
X377366Y173681D01*
X376930Y173862D01*
X376471Y173972D01*
X376000Y174009D01*
X375529Y173972D01*
X375070Y173862D01*
X374634Y173681D01*
X374231Y173435D01*
X373872Y173128D01*
X373565Y172769D01*
X373319Y172366D01*
X373138Y171930D01*
X373028Y171471D01*
X372991Y171000D01*
X373028Y170529D01*
X373138Y170070D01*
X373319Y169634D01*
X373565Y169231D01*
X373872Y168872D01*
X374231Y168565D01*
X374634Y168319D01*
X375070Y168138D01*
X375529Y168028D01*
X376000Y167991D01*
X376471Y168028D01*
X376930Y168138D01*
X377366Y168319D01*
X377769Y168565D01*
X378128Y168872D01*
X378435Y169231D01*
X378446Y169250D01*
X378745D01*
Y164729D01*
X377786Y165689D01*
X377741Y165741D01*
X377532Y165920D01*
X377297Y166064D01*
X377042Y166169D01*
X376775Y166234D01*
X376774Y166234D01*
X376500Y166255D01*
X376431Y166250D01*
X374446D01*
X374435Y166269D01*
X374128Y166628D01*
X373769Y166935D01*
X373366Y167181D01*
X372930Y167362D01*
X372471Y167472D01*
X372000Y167509D01*
X371529Y167472D01*
X371070Y167362D01*
X370634Y167181D01*
X370231Y166935D01*
X369872Y166628D01*
X369565Y166269D01*
X369319Y165866D01*
X369138Y165430D01*
X369028Y164971D01*
X368991Y164500D01*
X369028Y164029D01*
X369138Y163570D01*
X369319Y163134D01*
X369565Y162731D01*
X369872Y162372D01*
X370231Y162065D01*
X370634Y161819D01*
X371070Y161638D01*
X371529Y161528D01*
X372000Y161491D01*
X372471Y161528D01*
X372930Y161638D01*
X373366Y161819D01*
X373769Y162065D01*
X374128Y162372D01*
X374435Y162731D01*
X374446Y162750D01*
X375724D01*
X375583Y162584D01*
X375459Y162383D01*
X375369Y162165D01*
X375314Y161935D01*
X375300Y161700D01*
X375314Y157465D01*
X375369Y157235D01*
X375459Y157017D01*
X375583Y156816D01*
X375736Y156636D01*
X375916Y156483D01*
X376117Y156359D01*
X376335Y156269D01*
X376565Y156214D01*
X376800Y156200D01*
X378745Y156210D01*
Y154998D01*
X376565Y154986D01*
X376335Y154931D01*
X376117Y154841D01*
X375916Y154717D01*
X375736Y154564D01*
X375583Y154384D01*
X375459Y154183D01*
X375369Y153965D01*
X375314Y153735D01*
X375300Y153500D01*
X375301Y153250D01*
X372725D01*
X371967Y154008D01*
X371972Y154029D01*
X372000Y154500D01*
X371972Y154971D01*
X371862Y155430D01*
X371681Y155866D01*
X371435Y156269D01*
X371128Y156628D01*
X370769Y156935D01*
X370366Y157181D01*
X369930Y157362D01*
X369471Y157472D01*
X369000Y157509D01*
X368529Y157472D01*
X368070Y157362D01*
X367634Y157181D01*
X367231Y156935D01*
X366872Y156628D01*
X366565Y156269D01*
X366319Y155866D01*
X366138Y155430D01*
X366028Y154971D01*
X365991Y154500D01*
X366028Y154029D01*
X366138Y153570D01*
X366319Y153134D01*
X366565Y152731D01*
X366872Y152372D01*
X367231Y152065D01*
X367634Y151819D01*
X368070Y151638D01*
X368529Y151528D01*
X369000Y151491D01*
X369471Y151528D01*
X369492Y151533D01*
X370714Y150311D01*
X370759Y150259D01*
X370968Y150080D01*
X371203Y149936D01*
X371458Y149831D01*
X371725Y149766D01*
X371726Y149766D01*
X372000Y149745D01*
X372069Y149750D01*
X375312D01*
X375314Y149265D01*
X375369Y149035D01*
X375459Y148817D01*
X375583Y148616D01*
X375736Y148436D01*
X375916Y148283D01*
X376117Y148159D01*
X376335Y148069D01*
X376565Y148014D01*
X376800Y148000D01*
X378745Y148010D01*
Y146250D01*
X367946D01*
X367935Y146269D01*
X367628Y146628D01*
X367269Y146935D01*
X366866Y147181D01*
X366430Y147362D01*
X365971Y147472D01*
X365500Y147509D01*
X365029Y147472D01*
X364570Y147362D01*
X364134Y147181D01*
X363731Y146935D01*
X363372Y146628D01*
X363065Y146269D01*
X362819Y145866D01*
X362638Y145430D01*
X362528Y144971D01*
X362491Y144500D01*
X362528Y144029D01*
X362638Y143570D01*
X362819Y143134D01*
X363065Y142731D01*
X363372Y142372D01*
X363731Y142065D01*
X364134Y141819D01*
X364570Y141638D01*
X365029Y141528D01*
X365500Y141491D01*
X365971Y141528D01*
X366430Y141638D01*
X366866Y141819D01*
X367269Y142065D01*
X367628Y142372D01*
X367935Y142731D01*
X367946Y142750D01*
X378745D01*
Y130000D01*
X344250D01*
Y133248D01*
X344368Y133257D01*
X344482Y133285D01*
X344592Y133330D01*
X344692Y133391D01*
X344782Y133468D01*
X344859Y133558D01*
X344920Y133658D01*
X344965Y133768D01*
X344993Y133882D01*
X345000Y134000D01*
Y137000D01*
X344993Y137118D01*
X344965Y137232D01*
X344920Y137342D01*
X344859Y137442D01*
X344782Y137532D01*
X344692Y137609D01*
X344592Y137670D01*
X344482Y137715D01*
X344368Y137743D01*
X344250Y137752D01*
Y142500D01*
X347407D01*
X347407Y142391D01*
X347444Y142238D01*
X347504Y142093D01*
X347586Y141958D01*
X347689Y141839D01*
X347808Y141736D01*
X347943Y141654D01*
X348088Y141594D01*
X348241Y141557D01*
X348398Y141548D01*
X353673Y141557D01*
X353826Y141594D01*
X353971Y141654D01*
X354106Y141736D01*
X354225Y141839D01*
X354328Y141958D01*
X354410Y142093D01*
X354470Y142238D01*
X354500Y142363D01*
X354530Y142238D01*
X354590Y142093D01*
X354672Y141958D01*
X354775Y141839D01*
X354894Y141736D01*
X355029Y141654D01*
X355174Y141594D01*
X355327Y141557D01*
X355484Y141548D01*
X360759Y141557D01*
X360912Y141594D01*
X361057Y141654D01*
X361192Y141736D01*
X361311Y141839D01*
X361414Y141958D01*
X361496Y142093D01*
X361556Y142238D01*
X361593Y142391D01*
X361602Y142548D01*
X361593Y148609D01*
X361556Y148762D01*
X361496Y148907D01*
X361414Y149042D01*
X361311Y149161D01*
X361192Y149264D01*
X361057Y149346D01*
X361000Y149370D01*
Y151630D01*
X361057Y151654D01*
X361192Y151736D01*
X361311Y151839D01*
X361414Y151958D01*
X361496Y152093D01*
X361556Y152238D01*
X361593Y152391D01*
X361602Y152548D01*
X361593Y158609D01*
X361556Y158762D01*
X361496Y158907D01*
X361414Y159042D01*
X361311Y159161D01*
X361192Y159264D01*
X361057Y159346D01*
X361000Y159370D01*
Y161630D01*
X361057Y161654D01*
X361192Y161736D01*
X361311Y161839D01*
X361414Y161958D01*
X361496Y162093D01*
X361556Y162238D01*
X361593Y162391D01*
X361602Y162548D01*
X361593Y168609D01*
X361556Y168762D01*
X361496Y168907D01*
X361414Y169042D01*
X361311Y169161D01*
X361192Y169264D01*
X361057Y169346D01*
X361000Y169370D01*
Y171630D01*
G37*
G36*
X344250Y130000D02*X340500D01*
Y131000D01*
X342000D01*
X342118Y131007D01*
X342232Y131035D01*
X342342Y131080D01*
X342442Y131141D01*
X342532Y131218D01*
X342609Y131308D01*
X342670Y131408D01*
X342715Y131518D01*
X342743Y131632D01*
X342752Y131750D01*
X342743Y131868D01*
X342715Y131982D01*
X342670Y132092D01*
X342609Y132192D01*
X342532Y132282D01*
X342442Y132359D01*
X342342Y132420D01*
X342232Y132465D01*
X342118Y132493D01*
X342000Y132500D01*
X340500D01*
Y138500D01*
X342000D01*
X342118Y138507D01*
X342232Y138535D01*
X342342Y138580D01*
X342442Y138641D01*
X342532Y138718D01*
X342609Y138808D01*
X342670Y138908D01*
X342715Y139018D01*
X342743Y139132D01*
X342752Y139250D01*
X342743Y139368D01*
X342715Y139482D01*
X342670Y139592D01*
X342609Y139692D01*
X342532Y139782D01*
X342442Y139859D01*
X342342Y139920D01*
X342232Y139965D01*
X342118Y139993D01*
X342000Y140000D01*
X340500D01*
Y140986D01*
X341206Y141042D01*
X341895Y141207D01*
X342549Y141478D01*
X343153Y141848D01*
X343692Y142308D01*
X343856Y142500D01*
X344250D01*
Y137752D01*
X344132Y137743D01*
X344018Y137715D01*
X343908Y137670D01*
X343808Y137609D01*
X343718Y137532D01*
X343641Y137442D01*
X343580Y137342D01*
X343535Y137232D01*
X343507Y137118D01*
X343500Y137000D01*
Y134000D01*
X343507Y133882D01*
X343535Y133768D01*
X343580Y133658D01*
X343641Y133558D01*
X343718Y133468D01*
X343808Y133391D01*
X343908Y133330D01*
X344018Y133285D01*
X344132Y133257D01*
X344250Y133248D01*
Y130000D01*
G37*
G36*
X340500D02*X336750D01*
Y133248D01*
X336868Y133257D01*
X336982Y133285D01*
X337092Y133330D01*
X337192Y133391D01*
X337282Y133468D01*
X337359Y133558D01*
X337420Y133658D01*
X337465Y133768D01*
X337493Y133882D01*
X337500Y134000D01*
Y137000D01*
X337493Y137118D01*
X337465Y137232D01*
X337420Y137342D01*
X337359Y137442D01*
X337282Y137532D01*
X337192Y137609D01*
X337092Y137670D01*
X336982Y137715D01*
X336868Y137743D01*
X336750Y137752D01*
Y143007D01*
X336848Y142847D01*
X337308Y142308D01*
X337847Y141848D01*
X338451Y141478D01*
X339105Y141207D01*
X339794Y141042D01*
X340500Y140986D01*
X340500D01*
Y140000D01*
X339000D01*
X338882Y139993D01*
X338768Y139965D01*
X338658Y139920D01*
X338558Y139859D01*
X338468Y139782D01*
X338391Y139692D01*
X338330Y139592D01*
X338285Y139482D01*
X338257Y139368D01*
X338248Y139250D01*
X338257Y139132D01*
X338285Y139018D01*
X338330Y138908D01*
X338391Y138808D01*
X338468Y138718D01*
X338558Y138641D01*
X338658Y138580D01*
X338768Y138535D01*
X338882Y138507D01*
X339000Y138500D01*
X340500D01*
Y132500D01*
X339000D01*
X338882Y132493D01*
X338768Y132465D01*
X338658Y132420D01*
X338558Y132359D01*
X338468Y132282D01*
X338391Y132192D01*
X338330Y132092D01*
X338285Y131982D01*
X338257Y131868D01*
X338248Y131750D01*
X338257Y131632D01*
X338285Y131518D01*
X338330Y131408D01*
X338391Y131308D01*
X338468Y131218D01*
X338558Y131141D01*
X338658Y131080D01*
X338768Y131035D01*
X338882Y131007D01*
X339000Y131000D01*
X340500D01*
Y130000D01*
G37*
G36*
X336750D02*X321000D01*
Y143750D01*
X336354D01*
X336478Y143451D01*
X336750Y143007D01*
Y137752D01*
X336632Y137743D01*
X336518Y137715D01*
X336408Y137670D01*
X336308Y137609D01*
X336218Y137532D01*
X336141Y137442D01*
X336080Y137342D01*
X336035Y137232D01*
X336007Y137118D01*
X336000Y137000D01*
Y134000D01*
X336007Y133882D01*
X336035Y133768D01*
X336080Y133658D01*
X336141Y133558D01*
X336218Y133468D01*
X336308Y133391D01*
X336408Y133330D01*
X336518Y133285D01*
X336632Y133257D01*
X336750Y133248D01*
Y130000D01*
G37*
G36*
X380400Y164400D02*X383400D01*
Y147400D01*
X380400D01*
Y164400D01*
G37*
G36*
X147000Y226000D02*X158000D01*
Y215000D01*
X147000D01*
Y226000D01*
G37*
G36*
X207000D02*X219000D01*
Y214000D01*
X207000D01*
Y226000D01*
G37*
G36*
X190750D02*X210000D01*
Y220000D01*
X210028Y219529D01*
X210138Y219070D01*
X210319Y218634D01*
X210565Y218231D01*
X210872Y217872D01*
X211231Y217565D01*
X211634Y217319D01*
X212070Y217138D01*
X212529Y217028D01*
X213000Y216991D01*
X213471Y217028D01*
X213930Y217138D01*
X214366Y217319D01*
X214769Y217565D01*
X215128Y217872D01*
X215435Y218231D01*
X215681Y218634D01*
X215862Y219070D01*
X215972Y219529D01*
X216000Y220000D01*
Y226000D01*
X219000D01*
X222500Y222500D01*
X230000D01*
Y190500D01*
X230000Y190500D01*
Y193000D01*
X229972Y193471D01*
X229862Y193930D01*
X229681Y194366D01*
X229435Y194769D01*
X229128Y195128D01*
X228769Y195435D01*
X228366Y195681D01*
X227930Y195862D01*
X227471Y195972D01*
X227000Y196009D01*
X226529Y195972D01*
X226070Y195862D01*
X225634Y195681D01*
X225231Y195435D01*
X224872Y195128D01*
X224565Y194769D01*
X224319Y194366D01*
X224138Y193930D01*
X224028Y193471D01*
X224000Y193000D01*
Y189500D01*
X190750D01*
Y191748D01*
X190868Y191757D01*
X190982Y191785D01*
X191092Y191830D01*
X191192Y191891D01*
X191282Y191968D01*
X191359Y192058D01*
X191420Y192158D01*
X191465Y192268D01*
X191493Y192382D01*
X191500Y192500D01*
Y197500D01*
X191493Y197618D01*
X191465Y197732D01*
X191420Y197842D01*
X191359Y197942D01*
X191282Y198032D01*
X191192Y198109D01*
X191092Y198170D01*
X190982Y198215D01*
X190868Y198243D01*
X190750Y198252D01*
Y226000D01*
G37*
G36*
X186000D02*X190750D01*
Y198252D01*
X190632Y198243D01*
X190518Y198215D01*
X190408Y198170D01*
X190308Y198109D01*
X190218Y198032D01*
X190141Y197942D01*
X190080Y197842D01*
X190035Y197732D01*
X190007Y197618D01*
X190000Y197500D01*
Y192500D01*
X190007Y192382D01*
X190035Y192268D01*
X190080Y192158D01*
X190141Y192058D01*
X190218Y191968D01*
X190308Y191891D01*
X190408Y191830D01*
X190518Y191785D01*
X190632Y191757D01*
X190750Y191748D01*
Y189500D01*
X188500D01*
X188618Y189507D01*
X188732Y189535D01*
X188842Y189580D01*
X188942Y189641D01*
X189032Y189718D01*
X189109Y189808D01*
X189170Y189908D01*
X189215Y190018D01*
X189243Y190132D01*
X189252Y190250D01*
X189243Y190368D01*
X189215Y190482D01*
X189170Y190592D01*
X189109Y190692D01*
X189032Y190782D01*
X188942Y190859D01*
X188842Y190920D01*
X188732Y190965D01*
X188618Y190993D01*
X188500Y191000D01*
X186000D01*
Y199000D01*
X188500D01*
X188618Y199007D01*
X188732Y199035D01*
X188842Y199080D01*
X188942Y199141D01*
X189032Y199218D01*
X189109Y199308D01*
X189170Y199408D01*
X189215Y199518D01*
X189243Y199632D01*
X189252Y199750D01*
X189243Y199868D01*
X189215Y199982D01*
X189170Y200092D01*
X189109Y200192D01*
X189032Y200282D01*
X188942Y200359D01*
X188842Y200420D01*
X188732Y200465D01*
X188618Y200493D01*
X188500Y200500D01*
X186000D01*
Y226000D01*
G37*
G36*
X181250D02*X186000D01*
Y200500D01*
X183500D01*
X183382Y200493D01*
X183268Y200465D01*
X183158Y200420D01*
X183058Y200359D01*
X182968Y200282D01*
X182891Y200192D01*
X182830Y200092D01*
X182785Y199982D01*
X182757Y199868D01*
X182748Y199750D01*
X182757Y199632D01*
X182785Y199518D01*
X182830Y199408D01*
X182891Y199308D01*
X182968Y199218D01*
X183058Y199141D01*
X183158Y199080D01*
X183268Y199035D01*
X183382Y199007D01*
X183500Y199000D01*
X186000D01*
Y191000D01*
X183500D01*
X183382Y190993D01*
X183268Y190965D01*
X183158Y190920D01*
X183058Y190859D01*
X182968Y190782D01*
X182891Y190692D01*
X182830Y190592D01*
X182785Y190482D01*
X182757Y190368D01*
X182748Y190250D01*
X182757Y190132D01*
X182785Y190018D01*
X182830Y189908D01*
X182891Y189808D01*
X182968Y189718D01*
X183058Y189641D01*
X183158Y189580D01*
X183268Y189535D01*
X183382Y189507D01*
X183500Y189500D01*
X181250D01*
Y191748D01*
X181368Y191757D01*
X181482Y191785D01*
X181592Y191830D01*
X181692Y191891D01*
X181782Y191968D01*
X181859Y192058D01*
X181920Y192158D01*
X181965Y192268D01*
X181993Y192382D01*
X182000Y192500D01*
Y197500D01*
X181993Y197618D01*
X181965Y197732D01*
X181920Y197842D01*
X181859Y197942D01*
X181782Y198032D01*
X181692Y198109D01*
X181592Y198170D01*
X181482Y198215D01*
X181368Y198243D01*
X181250Y198252D01*
Y226000D01*
G37*
G36*
X117061Y229000D02*X145000D01*
X148000Y226000D01*
X149048D01*
X149057Y220741D01*
X149094Y220588D01*
X149154Y220443D01*
X149236Y220308D01*
X149339Y220189D01*
X149458Y220086D01*
X149593Y220004D01*
X149738Y219944D01*
X149891Y219907D01*
X150048Y219898D01*
X156109Y219907D01*
X156262Y219944D01*
X156407Y220004D01*
X156542Y220086D01*
X156661Y220189D01*
X156764Y220308D01*
X156846Y220443D01*
X156906Y220588D01*
X156943Y220741D01*
X156952Y220898D01*
X156943Y226000D01*
X181250D01*
Y198252D01*
X181132Y198243D01*
X181018Y198215D01*
X180908Y198170D01*
X180808Y198109D01*
X180718Y198032D01*
X180641Y197942D01*
X180580Y197842D01*
X180535Y197732D01*
X180507Y197618D01*
X180500Y197500D01*
Y192500D01*
X180507Y192382D01*
X180535Y192268D01*
X180580Y192158D01*
X180641Y192058D01*
X180718Y191968D01*
X180808Y191891D01*
X180908Y191830D01*
X181018Y191785D01*
X181132Y191757D01*
X181250Y191748D01*
Y189500D01*
X117061D01*
Y216583D01*
X117131Y216595D01*
X117280Y216646D01*
X117419Y216719D01*
X117545Y216813D01*
X117655Y216925D01*
X117746Y217054D01*
X117813Y217196D01*
X118004Y217728D01*
X118137Y218277D01*
X118217Y218836D01*
X118244Y219400D01*
X118217Y219964D01*
X118137Y220523D01*
X118004Y221072D01*
X117819Y221606D01*
X117750Y221748D01*
X117658Y221877D01*
X117548Y221991D01*
X117421Y222085D01*
X117281Y222159D01*
X117132Y222209D01*
X117061Y222221D01*
Y229000D01*
G37*
G36*
X112302D02*X117061D01*
Y222221D01*
X116976Y222236D01*
X116818Y222238D01*
X116661Y222215D01*
X116510Y222168D01*
X116369Y222098D01*
X116239Y222007D01*
X116126Y221896D01*
X116032Y221770D01*
X115958Y221630D01*
X115908Y221480D01*
X115881Y221324D01*
X115879Y221166D01*
X115902Y221010D01*
X115952Y220860D01*
X116078Y220508D01*
X116166Y220144D01*
X116219Y219774D01*
X116237Y219400D01*
X116219Y219026D01*
X116166Y218656D01*
X116078Y218292D01*
X115956Y217939D01*
X115906Y217789D01*
X115883Y217634D01*
X115885Y217476D01*
X115912Y217321D01*
X115962Y217172D01*
X116036Y217033D01*
X116130Y216907D01*
X116242Y216797D01*
X116371Y216706D01*
X116512Y216636D01*
X116662Y216589D01*
X116818Y216567D01*
X116975Y216568D01*
X117061Y216583D01*
Y189500D01*
X112302D01*
Y202054D01*
X114259Y202057D01*
X114412Y202094D01*
X114557Y202154D01*
X114692Y202236D01*
X114811Y202339D01*
X114914Y202458D01*
X114996Y202593D01*
X115056Y202738D01*
X115093Y202891D01*
X115102Y203048D01*
X115093Y209109D01*
X115056Y209262D01*
X114996Y209407D01*
X114914Y209542D01*
X114811Y209661D01*
X114692Y209764D01*
X114557Y209846D01*
X114412Y209906D01*
X114259Y209943D01*
X114102Y209952D01*
X112302Y209949D01*
Y213456D01*
X112864Y213483D01*
X113423Y213563D01*
X113972Y213696D01*
X114506Y213881D01*
X114648Y213950D01*
X114777Y214042D01*
X114891Y214152D01*
X114985Y214279D01*
X115059Y214419D01*
X115109Y214568D01*
X115136Y214724D01*
X115138Y214882D01*
X115115Y215039D01*
X115068Y215190D01*
X114998Y215331D01*
X114907Y215461D01*
X114796Y215574D01*
X114670Y215668D01*
X114530Y215742D01*
X114380Y215792D01*
X114224Y215819D01*
X114066Y215821D01*
X113910Y215798D01*
X113760Y215748D01*
X113408Y215622D01*
X113044Y215534D01*
X112674Y215481D01*
X112302Y215463D01*
Y223337D01*
X112674Y223319D01*
X113044Y223266D01*
X113408Y223178D01*
X113761Y223056D01*
X113911Y223006D01*
X114066Y222983D01*
X114224Y222985D01*
X114379Y223012D01*
X114528Y223062D01*
X114667Y223136D01*
X114793Y223230D01*
X114903Y223342D01*
X114994Y223471D01*
X115064Y223612D01*
X115111Y223762D01*
X115133Y223918D01*
X115132Y224075D01*
X115105Y224231D01*
X115054Y224380D01*
X114981Y224519D01*
X114887Y224645D01*
X114775Y224755D01*
X114646Y224846D01*
X114504Y224913D01*
X113972Y225104D01*
X113423Y225237D01*
X112864Y225317D01*
X112302Y225344D01*
Y229000D01*
G37*
G36*
Y189500D02*X109000D01*
Y202048D01*
X112302Y202054D01*
Y189500D01*
G37*
G36*
X108000Y229000D02*X112302D01*
Y225344D01*
X112300Y225344D01*
X111736Y225317D01*
X111177Y225237D01*
X110628Y225104D01*
X110094Y224919D01*
X109952Y224850D01*
X109823Y224758D01*
X109709Y224648D01*
X109615Y224521D01*
X109541Y224381D01*
X109491Y224232D01*
X109464Y224076D01*
X109462Y223918D01*
X109485Y223761D01*
X109532Y223610D01*
X109602Y223469D01*
X109693Y223339D01*
X109804Y223226D01*
X109930Y223132D01*
X110070Y223058D01*
X110220Y223008D01*
X110376Y222981D01*
X110534Y222979D01*
X110690Y223002D01*
X110840Y223052D01*
X111192Y223178D01*
X111556Y223266D01*
X111926Y223319D01*
X112300Y223337D01*
X112302Y223337D01*
Y215463D01*
X112300Y215463D01*
X111926Y215481D01*
X111556Y215534D01*
X111192Y215622D01*
X110839Y215744D01*
X110689Y215794D01*
X110534Y215817D01*
X110376Y215815D01*
X110221Y215788D01*
X110072Y215738D01*
X109933Y215664D01*
X109807Y215570D01*
X109697Y215458D01*
X109606Y215329D01*
X109536Y215188D01*
X109489Y215038D01*
X109467Y214882D01*
X109468Y214725D01*
X109495Y214569D01*
X109546Y214420D01*
X109619Y214281D01*
X109713Y214155D01*
X109825Y214045D01*
X109954Y213954D01*
X110096Y213887D01*
X110628Y213696D01*
X111177Y213563D01*
X111736Y213483D01*
X112300Y213456D01*
X112302Y213456D01*
Y209949D01*
X109000Y209943D01*
Y226500D01*
X108000Y227500D01*
Y229000D01*
G37*
G36*
X221500Y197500D02*X230000D01*
Y189500D01*
X221500D01*
Y197500D01*
G37*
G36*
X93000Y190000D02*Y200000D01*
X107000D01*
X109000Y202000D01*
Y207000D01*
X124000D01*
Y187000D01*
X113000D01*
X110000Y190000D01*
X93000D01*
G37*
G36*
X192000Y71000D02*X217000D01*
Y52000D01*
X192000D01*
Y71000D01*
G37*
G36*
X186500Y134500D02*X211500D01*
Y115500D01*
X186500D01*
Y134500D01*
G37*
G36*
X342000Y120000D02*X387000D01*
Y100000D01*
X342000D01*
Y120000D01*
G37*
G36*
X64500Y136000D02*X63000D01*
X60500Y138500D01*
X64500D01*
Y136000D01*
G37*
G54D12*X70000Y132000D02*X76000D01*
X50000Y143000D02*Y135000D01*
X53000Y132000D01*
X61000D01*
X50000Y122000D02*X44000D01*
X42000Y124000D01*
Y152000D01*
G54D13*Y172000D02*Y169000D01*
G54D12*Y152000D02*X45000Y155000D01*
X50000D01*
X38000Y133000D02*X42000Y137000D01*
X76000Y132000D02*X83000Y125000D01*
X71000Y124000D02*X74000D01*
X76000Y122000D01*
Y111000D01*
X83000Y125000D02*X87000D01*
X82000Y117000D02*X92000D01*
X87000Y133000D02*Y140000D01*
G54D14*Y133000D02*X88000D01*
G54D15*X91000Y130000D01*
G54D12*X65000Y100000D02*X71000D01*
X65000D02*X60000Y105000D01*
Y125000D01*
X50000Y94000D02*Y109000D01*
X56000Y95000D02*X62000Y89000D01*
X76000Y111000D02*X78000Y109000D01*
X92000D01*
X86000Y88000D02*X78000D01*
X76000Y86000D01*
G54D15*X91000Y130000D02*Y118000D01*
X90000Y117000D02*X87000D01*
X91000Y118000D02*X90000Y117000D01*
G54D16*X96000Y90000D02*Y129000D01*
Y91000D02*Y78000D01*
X99000Y75000D01*
G54D12*X101000Y113000D02*Y102000D01*
X105000Y98000D01*
G54D14*X106500Y105500D02*X107500Y104500D01*
X96000Y118000D02*X103000D01*
X106500Y114500D01*
Y105500D01*
X126000Y106000D02*Y152000D01*
X128500Y105500D02*Y148500D01*
X131000Y100500D02*Y145500D01*
G54D12*X105000Y98000D02*X114000D01*
G54D14*X107500Y104500D02*X124500D01*
X126000Y106000D01*
X115500Y98000D02*X121000D01*
X128500Y105500D01*
G54D13*X116000Y78000D02*X125000D01*
X130000Y160000D02*Y177000D01*
X138000Y181000D02*Y160000D01*
G54D14*X126000Y152000D02*X127500Y153500D01*
X128500Y148500D02*X130500Y150500D01*
X131000Y145500D02*X133000Y147500D01*
G54D12*X76000Y86000D02*Y64000D01*
X80000Y75000D02*Y62000D01*
X75000Y57000D01*
X76000Y64000D02*X73000Y61000D01*
X75000Y57000D02*X56000D01*
X54000Y53000D02*X85000D01*
X73000Y61000D02*X59000D01*
X86000Y78000D02*X83000D01*
X80000Y75000D01*
G54D17*X86000Y61000D02*Y68000D01*
G54D12*X106000Y81000D02*X112000D01*
X115000Y78000D01*
G54D16*X99000Y75000D02*X105000D01*
G54D12*X108000Y68000D02*X116000D01*
X105000Y75000D02*Y71000D01*
X108000Y68000D01*
X116000D02*X120000Y64000D01*
G54D17*X141000Y58000D02*X89000D01*
X86000Y61000D01*
G54D12*X85000Y53000D02*X90000Y58000D01*
X120000Y64000D02*X147000D01*
X140000Y58000D02*X145000D01*
X148000Y55000D01*
X150000Y67000D02*X155000Y62000D01*
G54D13*X139000Y73000D02*Y69000D01*
G54D12*X155000Y62000D02*X162000D01*
X164000Y64000D01*
X179000D01*
X181000Y62000D01*
Y56000D01*
X155000D02*X169000D01*
X147000Y64000D02*X155000Y56000D01*
G54D13*X5000Y69000D02*Y129000D01*
G54D12*X4500Y48000D02*X7000Y45500D01*
G54D13*X5000Y129000D02*X9000Y133000D01*
X22000D01*
G54D12*X14000Y78000D02*X28000D01*
X29000Y77000D01*
Y73000D01*
X31000Y89000D02*Y96000D01*
X22000Y105000D01*
Y113000D01*
Y133000D02*X38000D01*
X25500Y52500D02*Y38500D01*
X7000Y45500D02*X17500D01*
X19000Y44000D01*
Y40000D01*
X135000Y85000D02*Y93000D01*
X141000D01*
X143000Y95000D01*
Y101000D01*
X116000Y88000D02*X127000D01*
X129000Y90000D01*
G54D13*X125000Y78000D02*X127000Y76000D01*
G54D12*X129000Y90000D02*Y99000D01*
X131000Y101000D01*
X136000D01*
X150000Y82000D02*Y67000D01*
G54D13*X134000Y76000D02*X136000D01*
X139000Y73000D01*
X14000Y66000D02*X8000D01*
X5000Y69000D01*
G54D12*X29000Y66000D02*X41000D01*
X5000Y71500D02*Y55500D01*
X8000Y52500D01*
X16000D01*
X56000Y57000D02*X21000Y92000D01*
X59000Y61000D02*X31000Y89000D01*
X41000Y66000D02*X54000Y53000D01*
X42000Y52500D02*X48000Y58500D01*
X55500Y48000D02*X59500D01*
X42000Y42500D02*X47500D01*
X49000Y41000D01*
X54500D01*
X59500Y48000D02*X61500Y46000D01*
Y41000D01*
G54D13*X186000Y233000D02*X203000D01*
G54D15*X139000Y245000D02*X253000D01*
G54D13*X153000Y230000D02*X178000D01*
G54D12*Y237000D02*Y239500D01*
X180500Y242000D01*
X214500D01*
X218000Y238500D01*
G54D14*Y231000D01*
G54D12*X93000Y243000D02*X132000D01*
X105000Y235000D02*X102000Y232000D01*
X139000Y244000D02*Y234000D01*
X105000Y235000D02*X132000D01*
G54D13*X352000Y243000D02*Y234000D01*
X353000Y233000D01*
X343000Y242000D02*X344000Y243000D01*
X343000Y233000D02*Y242000D01*
G54D15*X252000Y245000D02*X265500D01*
X268000Y242500D01*
Y232000D01*
G54D13*X343000Y242000D02*X344500Y243500D01*
G54D12*X328000Y237000D02*Y245000D01*
G54D14*X244000Y232000D02*X243000Y233000D01*
X251000Y228000D02*X255000Y232000D01*
G54D15*X268000Y232500D02*Y226000D01*
X269500Y224500D01*
G54D14*X240000Y227000D02*X234000Y233000D01*
X238000Y226000D02*X236000Y228000D01*
X244000Y226000D02*X246000Y228000D01*
X251000D01*
X236000D02*X228000D01*
X223000Y233000D01*
X218000Y231000D02*X223000Y226000D01*
X234000D01*
G54D15*X269500Y224500D02*X281000D01*
X303000Y223500D02*Y233500D01*
X323000Y224000D02*Y233500D01*
G54D13*X353000Y220500D02*X346000D01*
X343000Y223500D01*
Y233500D01*
G54D12*X328000Y223000D02*Y228000D01*
G54D14*Y225000D02*Y241000D01*
X236000Y166000D02*X232000D01*
X230000Y168000D01*
X238000Y163000D02*X227000D01*
X241500Y142000D02*X233500D01*
X225000Y157000D02*X237500D01*
X225500D02*X222000D01*
X237000Y160000D02*X219500D01*
X223500Y165000D02*X226000Y167500D01*
X235000Y157000D02*X241500D01*
X243000Y158500D01*
Y167000D01*
X238000Y176000D02*Y226000D01*
X235500Y224500D02*Y179000D01*
G54D13*X227000Y193000D02*Y184000D01*
G54D14*X220000Y185000D02*Y178500D01*
X226000Y172500D01*
X244000Y187000D02*Y226000D01*
G54D13*X213000Y233000D02*Y220000D01*
G54D14*X242000Y233000D02*Y185500D01*
X240000Y172500D02*Y227000D01*
X234000Y226000D02*X235500Y224500D01*
X236000Y174000D02*X238000Y176000D01*
X235500Y179000D02*X233500Y177000D01*
X243500Y184000D02*Y175000D01*
X247000D02*Y184000D01*
X230000Y168000D02*Y172000D01*
X232000Y174000D01*
X236000D01*
X233500Y177000D02*X227500D01*
X226000Y172500D02*Y168500D01*
Y167500D02*Y170000D01*
X240000Y173500D02*Y170000D01*
X239500Y169500D01*
X237000D01*
X238000Y153500D02*X212500D01*
X219500Y160000D02*X219000Y159500D01*
X222000Y157000D02*X220500Y155500D01*
X217000D01*
X214500Y158000D01*
Y163000D01*
X216500Y165000D01*
X223500D01*
X247000Y184000D02*X244000Y187000D01*
X242000Y185500D02*X243500Y184000D01*
X193000Y185500D02*X129000D01*
X198500Y163000D02*Y180000D01*
X193000Y185500D01*
G54D13*X203000Y170500D02*X218500D01*
G54D14*X243000Y167000D02*X244500Y168500D01*
X127500Y153500D02*X216000D01*
X130500Y150500D02*X237500D01*
X133000Y147500D02*X238000D01*
G54D12*X253000D02*X251500Y149000D01*
Y165000D01*
X258000Y147500D02*X259500Y146000D01*
G54D14*X244500Y168500D02*X252000D01*
X256500Y164000D01*
Y161500D01*
X257500Y160500D01*
X262500D01*
X263500Y161500D02*Y166000D01*
X262500Y160500D02*X263500Y161500D01*
G54D15*X253000Y134500D02*Y141500D01*
X250000Y139000D02*Y134500D01*
G54D14*Y138000D02*Y141500D01*
G54D15*X253000Y138000D02*Y145000D01*
Y126000D02*Y135500D01*
X259500Y137500D02*Y145500D01*
G54D12*X253000Y144500D02*Y147500D01*
X258000D01*
G54D16*X256000Y142000D02*Y134000D01*
G54D15*Y130500D01*
X258000Y128500D01*
X259500Y138000D02*Y135500D01*
G54D13*X244500Y128000D02*Y119500D01*
X245500Y118500D01*
X258000D01*
X259000Y119500D01*
Y127500D01*
G54D14*Y126500D02*X259500Y126000D01*
G54D15*X244000Y133000D02*X240500D01*
X250000Y134500D02*X244000Y128500D01*
G54D14*X243500Y137500D02*Y140000D01*
X241500Y142000D01*
G54D15*X246500Y141000D02*Y135500D01*
X244000Y133000D01*
G54D14*X243000D02*X243500Y132500D01*
X262500Y138500D02*Y136500D01*
X264000Y135000D01*
G54D15*X259500Y135500D02*X263000Y132000D01*
G54D14*X264000Y135000D02*X268500D01*
G54D15*X271500Y132000D01*
X263000D02*X265500D01*
X266000Y131500D01*
Y127500D01*
G54D18*X274500Y76500D02*Y51500D01*
X271500Y48500D01*
G54D15*X253000Y178000D02*Y172000D01*
G54D12*Y171500D02*X260000Y164500D01*
G54D15*X256000Y175000D02*Y189000D01*
G54D14*X259500Y179500D02*Y173500D01*
G54D15*X253000Y182500D02*Y177000D01*
G54D13*X248000Y197000D02*X254000D01*
G54D14*X265500Y175500D02*Y184500D01*
X267500Y186500D01*
G54D15*X256000Y189000D02*X258000Y191000D01*
G54D14*X262500Y175000D02*Y186000D01*
X264000Y187500D01*
Y194000D01*
X259500Y173500D02*X261000Y172000D01*
G54D15*X250000Y185500D02*X253000Y182500D01*
X250000Y185500D02*Y189500D01*
G54D14*X267500Y186500D02*X291500D01*
X277000Y182500D02*X281000D01*
X296000Y181500D02*X301000Y186500D01*
G54D13*X254000Y197000D02*X264000Y207000D01*
X301000Y204000D02*X298000Y207000D01*
X264000D02*X298000D01*
G54D14*X264000Y194000D02*X257000Y201000D01*
X274000Y176500D02*X292000D01*
X293500Y165500D02*X296000Y168000D01*
Y181500D01*
Y181000D02*Y181500D01*
X261000Y172000D02*X266500D01*
X268000Y173500D01*
X263500Y166000D02*X274000Y176500D01*
X267500Y173000D02*X277000Y182500D01*
X282000Y169500D02*X271500D01*
Y166500D02*X279000D01*
X280000Y165500D01*
X293500D01*
G54D15*X271500Y163000D02*X305000D01*
X271500Y160000D02*X306500D01*
X271500Y157000D02*X307500D01*
X271000Y153500D02*X310000D01*
X271000Y150500D02*X312500D01*
X271000Y147500D02*X315500D01*
X271500Y132000D02*X288500D01*
G54D14*X265500Y139500D02*Y141500D01*
G54D15*X268000Y144000D01*
X288500D01*
G54D14*X262500Y140000D02*Y137500D01*
G54D15*X271000Y139000D02*X277000D01*
X283000Y139500D02*X293000D01*
X266000Y129000D02*Y126500D01*
Y129000D02*Y123500D01*
X288500Y144000D02*X298500Y134000D01*
X288500Y132000D02*X298500Y122000D01*
Y115000D01*
X313000Y105000D02*Y138500D01*
X320000Y145500D01*
G54D14*X319500Y105500D02*Y124500D01*
G54D15*X283000Y126000D02*X294500D01*
X306000Y98000D02*X313000Y105000D01*
G54D14*X309500Y95500D02*X319500Y105500D01*
X266500Y95500D02*X309500D01*
X272000Y93000D02*X311000D01*
X340500Y122500D01*
G54D15*X276500Y126500D02*Y120000D01*
X242000Y98000D02*X306000D01*
X274500Y115000D02*Y102000D01*
X243000Y98000D02*X226500D01*
X224000Y100500D01*
X259500Y101500D02*Y116000D01*
X257000Y118500D01*
X266000Y123500D02*X274500Y115000D01*
X264500Y114000D02*Y104000D01*
X269500Y114000D02*Y103000D01*
X224000Y100500D02*Y131000D01*
X226000Y133000D01*
G54D14*X219000Y98500D02*Y143000D01*
G54D15*X226000Y133000D02*X243000D01*
G54D12*X210500Y124500D02*X195500D01*
G54D14*X257500Y95500D02*X222000D01*
X219000Y98500D01*
X264500Y82500D02*Y93500D01*
X259500D02*Y83000D01*
X264500Y93500D02*X266500Y95500D01*
X257500D02*X259500Y93500D01*
X269500Y82000D02*Y90500D01*
X272000Y93000D01*
G54D16*X274500Y76500D02*Y87500D01*
G54D12*X143000Y85000D02*X147000D01*
X150000Y82000D01*
G54D18*X188000Y50000D02*Y127500D01*
X271500Y48500D02*X189500D01*
X188000Y50000D01*
G54D15*X305000Y163000D02*X309500Y167500D01*
X306500Y160000D02*X312500Y166000D01*
X307500Y157000D02*X316000Y165500D01*
X310000Y153500D02*X332000Y175500D01*
X312500Y150500D02*X327500Y165500D01*
X315500Y147500D02*X323500Y155500D01*
G54D13*X351500Y175500D02*X340500D01*
X358000Y145500D02*Y215500D01*
X353000Y220500D01*
G54D12*X337000Y199000D02*X341000D01*
X343500Y201500D01*
Y226500D01*
G54D13*X340500Y165500D02*X351500D01*
G54D15*X327500D02*X341000D01*
X332000Y175500D02*X341000D01*
G54D12*X329500Y199000D02*X325000D01*
X322500Y201500D01*
Y217500D01*
X328000Y223000D01*
G54D13*X301000Y196000D02*Y204000D01*
G54D15*X309500Y167500D02*Y217000D01*
X312500Y166000D02*Y233500D01*
X316000Y165500D02*Y217000D01*
X309500D02*X303000Y223500D01*
X316000Y217000D02*X323000Y224000D01*
G54D12*X333500Y212000D02*Y233500D01*
G54D13*X340500Y155500D02*X351500D01*
G54D15*X323500D02*X340500D01*
G54D13*Y145500D02*X351500D01*
G54D15*X320000D02*X341000D01*
X353000Y125500D02*X326500D01*
X370500Y127500D02*X368500Y125500D01*
X351500D01*
G54D14*X340500Y122500D02*X372500D01*
G54D15*X370500Y127500D02*X392500D01*
G54D14*X371500Y122500D02*X389500D01*
G54D15*X392500Y127500D02*X394000Y126000D01*
X376000Y171000D02*X382500D01*
X372000Y164500D02*X376500D01*
X378000Y163000D01*
Y159000D01*
X382500Y171000D02*X386000Y167500D01*
Y158500D01*
X369000Y154500D02*X372000Y151500D01*
X378000D01*
X365500Y144500D02*X384500D01*
X386000Y146000D02*Y152000D01*
X384500Y144500D02*X386000Y146000D01*
G54D19*X383000Y17000D03*
G54D20*X223000Y23500D03*
X242685D03*
G54D21*X219063Y39248D03*
X246622D03*
X285563D03*
X313122D03*
G54D20*X289500Y23500D03*
X309185D03*
G54D22*X313000Y233000D03*
X293000D03*
G54D11*G36*
X288000Y199500D02*Y193500D01*
X294000D01*
Y199500D01*
X288000D01*
G37*
G54D22*X291000Y186500D03*
Y176500D03*
X283000Y233000D03*
X273000D03*
X263000D03*
X253000D03*
X243000D03*
X233000D03*
X223000D03*
X213000D03*
X203000D03*
G54D11*G36*
X234000Y110000D02*Y104000D01*
X240000D01*
Y110000D01*
X234000D01*
G37*
G54D23*X198000Y79736D03*
Y109264D03*
G54D22*X247000Y107000D03*
X303000Y233000D03*
G54D11*G36*
X295000Y118394D02*Y111394D01*
X302000D01*
Y118394D01*
X295000D01*
G37*
G54D24*X298500Y134106D03*
G54D22*X301000Y196500D03*
Y186500D03*
Y176500D03*
G54D11*G36*
X350000Y236000D02*Y230000D01*
X356000D01*
Y236000D01*
X350000D01*
G37*
G54D22*X343000Y233000D03*
X333000D03*
X323000D03*
G54D11*G36*
X337500Y138500D02*Y132500D01*
X343500D01*
Y138500D01*
X337500D01*
G37*
G54D22*X340500Y145500D03*
Y155500D03*
Y165500D03*
Y175500D03*
G54D19*X383000Y233000D03*
X17000D03*
G54D11*G36*
X18000Y157000D02*Y149000D01*
X26000D01*
Y157000D01*
X18000D01*
G37*
G54D23*X22000Y133000D03*
G54D25*X54000Y191000D03*
G54D26*X30000D03*
X42000Y172000D03*
G54D19*X17000Y17000D03*
G54D11*G36*
X18000Y117000D02*Y109000D01*
X26000D01*
Y117000D01*
X18000D01*
G37*
G54D23*X22000Y93000D03*
G54D11*G36*
X12500Y55500D02*Y49500D01*
X18500D01*
Y55500D01*
X12500D01*
G37*
G54D22*X25500Y52500D03*
G54D11*G36*
X39000Y55500D02*Y49500D01*
X45000D01*
Y55500D01*
X39000D01*
G37*
G54D22*X42000Y42500D03*
G54D27*X112300Y219400D03*
X102300D03*
G54D11*G36*
X88363Y223337D02*Y215463D01*
X96237D01*
Y223337D01*
X88363D01*
G37*
G36*
X182000Y199000D02*Y191000D01*
X190000D01*
Y199000D01*
X182000D01*
G37*
G54D23*X186000Y165000D03*
G54D28*X157007Y139700D03*
Y131826D03*
Y123952D03*
Y116078D03*
Y108204D03*
Y100330D03*
Y92456D03*
Y84582D03*
Y76708D03*
Y68834D03*
G54D21*X152063Y39248D03*
G54D20*X156000Y23500D03*
X175685D03*
G54D21*X179622Y39248D03*
G54D11*G36*
X67193Y142900D02*Y136500D01*
X73593D01*
Y142900D01*
X67193D01*
G37*
G54D28*X70393Y131826D03*
Y123952D03*
Y116078D03*
Y108204D03*
Y100330D03*
Y92456D03*
Y84582D03*
Y76708D03*
G54D22*X86000Y98000D03*
Y88000D03*
Y78000D03*
G54D20*X89000Y23500D03*
G54D21*X85063Y39248D03*
G54D28*X70393Y68834D03*
G54D11*G36*
X113000Y71000D02*Y65000D01*
X119000D01*
Y71000D01*
X113000D01*
G37*
G54D22*X86000Y68000D03*
X116000Y78000D03*
Y88000D03*
Y98000D03*
G54D20*X108685Y23500D03*
G54D21*X112622Y39248D03*
G54D29*X138543Y244393D02*Y243607D01*
X344457Y243393D02*Y242607D01*
X351543Y243393D02*Y242607D01*
G54D30*X177700Y237000D02*X178300D01*
X177700Y229200D02*X178300D01*
X185900Y233100D02*X186500D01*
G54D29*X138543Y235393D02*Y234607D01*
X152607Y230543D02*X153393D01*
X152607Y223457D02*X153393D01*
X225543Y170893D02*Y170107D01*
X227043Y184893D02*Y184107D01*
X218457Y170893D02*Y170107D01*
X219957Y184893D02*Y184107D01*
G54D31*X233608Y169423D02*X238034D01*
X233608Y166274D02*X238034D01*
X233608Y163124D02*X238034D01*
X233608Y159975D02*X238034D01*
X233608Y156825D02*X238034D01*
X233608Y153675D02*X238034D01*
X233608Y150526D02*X238034D01*
X233608Y147376D02*X238034D01*
X265623Y179392D02*Y174966D01*
X262474Y179392D02*Y174966D01*
X259324Y179392D02*Y174966D01*
X246726Y179392D02*Y174966D01*
X243576Y179392D02*Y174966D01*
X256175Y179392D02*Y174966D01*
X253025Y179392D02*Y174966D01*
X249875Y179392D02*Y174966D01*
G54D29*X257543Y190393D02*Y189607D01*
X250457Y190393D02*Y189607D01*
G54D32*X329599Y198950D02*X329600D01*
X337400D02*X337401D01*
G54D33*X333500Y211750D02*X333501D01*
G54D29*X48819Y143095D02*X51181D01*
X48819Y121905D02*X51181D01*
X48819Y110095D02*X51181D01*
X56543Y95393D02*Y94607D01*
X49457Y95393D02*Y94607D01*
X12819Y66095D02*X15181D01*
X12819Y77905D02*X15181D01*
X28607Y73543D02*X29393D01*
X28607Y66457D02*X29393D01*
X48819Y154905D02*X51181D01*
X59607Y131543D02*X60393D01*
X59607Y124457D02*X60393D01*
X61543Y41393D02*Y40607D01*
X54457Y41393D02*Y40607D01*
X26043Y39893D02*Y39107D01*
X18957Y39893D02*Y39107D01*
X131457Y244393D02*Y243607D01*
X111543Y206393D02*Y205607D01*
X104457Y206393D02*Y205607D01*
X131457Y235393D02*Y234607D01*
G54D33*X61000Y240992D02*Y234693D01*
Y221307D02*Y215008D01*
G54D34*X38400Y236400D02*X39600D01*
X38400Y223500D02*X39600D01*
G54D35*X97700Y176000D02*X104300D01*
G54D30*X129700Y177200D02*X130300D01*
G54D35*X97700Y185000D02*X104300D01*
G54D30*X129700D02*X130300D01*
X137900Y181100D02*X138500D01*
G54D35*X97700Y194100D02*X104300D01*
G54D36*X76600Y189500D02*Y180500D01*
G54D29*X88457Y140393D02*Y139607D01*
X95543Y140393D02*Y139607D01*
X88457Y149393D02*Y148607D01*
X95543Y149393D02*Y148607D01*
X112543Y140393D02*Y139607D01*
X105457Y140393D02*Y139607D01*
G54D30*X86700Y133000D02*X87300D01*
X86700Y125200D02*X87300D01*
X94900Y129100D02*X95500D01*
X91700Y117000D02*X92300D01*
X99900Y113100D02*X100500D01*
G54D29*X81607Y116543D02*X82393D01*
X81607Y109457D02*X82393D01*
G54D37*X85500Y161300D02*Y157700D01*
X95500Y161300D02*Y157700D01*
G54D29*X169095Y57181D02*Y54819D01*
X154543Y55393D02*Y54607D01*
X147457Y55393D02*Y54607D01*
X180905Y57181D02*Y54819D01*
G54D38*X198000Y65845D02*Y58045D01*
Y126977D02*Y121738D01*
G54D29*X142543Y85393D02*Y84607D01*
X135457Y85393D02*Y84607D01*
Y101393D02*Y100607D01*
X142543Y101393D02*Y100607D01*
G54D30*X91700Y109200D02*X92300D01*
G54D29*X103607Y81543D02*X104393D01*
X103607Y74457D02*X104393D01*
X134543Y76393D02*Y75607D01*
X127457Y76393D02*Y75607D01*
X283543Y139393D02*Y138607D01*
Y126393D02*Y125607D01*
X276457Y139393D02*Y138607D01*
Y126393D02*Y125607D01*
X266043Y127393D02*Y126607D01*
G54D31*X265624Y141834D02*Y137408D01*
G54D29*X327043Y124393D02*Y123607D01*
X319957Y124393D02*Y123607D01*
X251543Y127393D02*Y126607D01*
X244457Y127393D02*Y126607D01*
X258957Y127393D02*Y126607D01*
G54D31*X243577Y141834D02*Y137408D01*
X246726Y141834D02*Y137408D01*
X249876Y141834D02*Y137408D01*
X253025Y141834D02*Y137408D01*
X256175Y141834D02*Y137408D01*
X259325Y141834D02*Y137408D01*
X262474Y141834D02*Y137408D01*
X271166Y147377D02*X275592D01*
X271166Y150526D02*X275592D01*
X271166Y153676D02*X275592D01*
X271166Y156825D02*X275592D01*
X271166Y159975D02*X275592D01*
X271166Y163125D02*X275592D01*
X271166Y166274D02*X275592D01*
X271166Y169424D02*X275592D01*
G54D39*X274500Y108500D02*Y102000D01*
Y88000D02*Y81500D01*
X269500Y108500D02*Y102000D01*
Y88000D02*Y81500D01*
X264500Y108500D02*Y102000D01*
X259500Y108500D02*Y102000D01*
Y88000D02*Y81500D01*
X264500Y88000D02*Y81500D01*
G54D29*X350957Y175893D02*Y175107D01*
X358043Y175893D02*Y175107D01*
X350957Y165893D02*Y165107D01*
X358043Y165893D02*Y165107D01*
X350957Y155893D02*Y155107D01*
X358043Y155893D02*Y155107D01*
X350957Y145893D02*Y145107D01*
X358043Y145893D02*Y145107D01*
G54D40*X378000Y152300D02*Y150700D01*
X381900Y152300D02*Y150700D01*
X385800Y152300D02*Y150700D01*
Y160500D02*Y158900D01*
X381900Y160500D02*Y158900D01*
X378000Y160500D02*Y158900D01*
G54D13*X199000Y195000D03*
X198500Y163000D03*
X203000Y170500D03*
X206000Y195000D03*
X248000Y197000D03*
X252000D03*
X213000Y195000D03*
X219000D03*
X226000D03*
X227500Y177000D03*
X219000Y159500D03*
X227000Y163500D03*
X219000Y143000D03*
X213000Y66000D03*
Y57000D03*
X207000Y66000D03*
Y57000D03*
X251500Y164000D03*
Y158000D03*
Y152500D03*
X260000Y164500D03*
X271000Y139000D03*
X247000Y118500D03*
X233500Y142000D03*
X281000Y182500D03*
Y224500D03*
X328000Y244500D03*
X252000Y118500D03*
X257000D03*
X276500Y120000D03*
X264500Y114000D03*
X269500D03*
X282000Y169500D03*
X376000Y171000D03*
X372000Y164500D03*
X369000Y154500D03*
X365500Y144500D03*
X364500Y150500D03*
X359000Y138000D03*
X364500Y181500D03*
X369500D03*
X374500D03*
X379500D03*
X389000Y122500D03*
X394000Y126000D03*
X385000Y133500D03*
X380000D03*
X385000Y139500D03*
X380000D03*
X362500Y133000D03*
X355500D03*
X347500Y116000D03*
X357500D03*
X352500Y109500D03*
X347500Y104000D03*
X357500D03*
X382000Y116000D03*
Y109500D03*
Y103500D03*
G54D22*X69000Y224000D03*
X53000D03*
X69000Y211000D03*
X53000D03*
G54D13*X83000Y207000D03*
X90000D03*
X97000D03*
X99000Y168000D03*
X104000D03*
X101500Y163000D03*
X130000Y160000D03*
Y165000D03*
Y170000D03*
X105000Y159500D03*
Y152500D03*
X101500Y156000D03*
Y149000D03*
X169000Y230000D03*
X164000D03*
X159000D03*
X131000Y195000D03*
X138000D03*
X145000D03*
X152000D03*
X159000D03*
X166000D03*
X173000D03*
X120000Y110000D03*
X135000Y58000D03*
X140000D03*
G54D22*X135000Y93000D03*
G54D13*X130000Y58000D03*
X120000Y115000D03*
Y120000D03*
G54D22*X139000Y70000D03*
G54D13*X114000Y110000D03*
X62000Y89000D03*
X114000Y115000D03*
Y120000D03*
X4500Y48000D03*
X55500D03*
X87000Y168000D03*
X82000D03*
X77000D03*
X67000D03*
X62000D03*
X64500Y172500D03*
X72000Y168000D03*
X87000Y173500D03*
Y178000D03*
Y182500D03*
Y187000D03*
Y191500D03*
Y196000D03*
G54D16*G54D41*G54D16*G54D41*G54D16*G54D41*G54D16*G54D42*G54D43*G54D44*G54D43*G54D45*G54D43*G54D44*G54D45*G54D16*G54D45*G54D42*G54D46*G54D47*G54D48*G54D42*G54D46*G54D45*G54D49*G54D46*G54D50*G54D44*G54D43*G54D44*G54D50*G54D51*G54D43*G54D44*G54D50*G54D51*G54D43*G54D44*M02*
