G04 start of page 9 for group -3984 idx -3984 *
G04 Title: (unknown), fab *
G04 Creator: pcb 20110918 *
G04 CreationDate: Sun 03 Feb 2013 12:35:54 AM GMT UTC *
G04 For: petersen *
G04 Format: Gerber/RS-274X *
G04 PCB-Dimensions: 400000 250000 *
G04 PCB-Coordinate-Origin: lower left *
%MOIN*%
%FSLAX25Y25*%
%LNFAB*%
%ADD141C,0.0100*%
%ADD140C,0.0060*%
%ADD139R,0.0080X0.0080*%
G54D139*X17000Y237800D02*Y228200D01*
X12200Y233000D02*X21800D01*
X15400Y234600D02*X18600D01*
X15400D02*Y231400D01*
X18600D01*
Y234600D02*Y231400D01*
X13800Y236200D02*X20200D01*
X13800D02*Y229800D01*
X20200D01*
Y236200D02*Y229800D01*
X383000Y21800D02*Y12200D01*
X378200Y17000D02*X387800D01*
X381400Y18600D02*X384600D01*
X381400D02*Y15400D01*
X384600D01*
Y18600D02*Y15400D01*
X379800Y20200D02*X386200D01*
X379800D02*Y13800D01*
X386200D01*
Y20200D02*Y13800D01*
X17000Y21800D02*Y12200D01*
X12200Y17000D02*X21800D01*
X15400Y18600D02*X18600D01*
X15400D02*Y15400D01*
X18600D01*
Y18600D02*Y15400D01*
X13800Y20200D02*X20200D01*
X13800D02*Y13800D01*
X20200D01*
Y20200D02*Y13800D01*
X383000Y237800D02*Y228200D01*
X378200Y233000D02*X387800D01*
X381400Y234600D02*X384600D01*
X381400D02*Y231400D01*
X384600D01*
Y234600D02*Y231400D01*
X379800Y236200D02*X386200D01*
X379800D02*Y229800D01*
X386200D01*
Y236200D02*Y229800D01*
X15000Y266050D02*Y256450D01*
X10200Y261250D02*X19800D01*
X13400Y262850D02*X16600D01*
X13400D02*Y259650D01*
X16600D01*
Y262850D02*Y259650D01*
X11800Y264450D02*X18200D01*
X11800D02*Y258050D01*
X18200D01*
Y264450D02*Y258050D01*
G54D140*X135000Y263500D02*Y262750D01*
X136500Y261250D01*
X138000Y262750D01*
Y263500D02*Y262750D01*
X136500Y261250D02*Y257500D01*
X139800Y260500D02*X142050D01*
X139800Y257500D02*X142800D01*
X139800Y263500D02*Y257500D01*
Y263500D02*X142800D01*
X147600D02*X148350Y262750D01*
X145350Y263500D02*X147600D01*
X144600Y262750D02*X145350Y263500D01*
X144600Y262750D02*Y261250D01*
X145350Y260500D01*
X147600D01*
X148350Y259750D01*
Y258250D01*
X147600Y257500D02*X148350Y258250D01*
X145350Y257500D02*X147600D01*
X144600Y258250D02*X145350Y257500D01*
X98000Y260500D02*X101000Y263500D01*
X98000Y260500D02*X101750D01*
X101000Y263500D02*Y257500D01*
X45000Y258250D02*X45750Y257500D01*
X45000Y262750D02*Y258250D01*
Y262750D02*X45750Y263500D01*
X47250D01*
X48000Y262750D01*
Y258250D01*
X47250Y257500D02*X48000Y258250D01*
X45750Y257500D02*X47250D01*
X45000Y259000D02*X48000Y262000D01*
X49800Y257500D02*X50550D01*
X53100D02*X54600D01*
X53850Y263500D02*Y257500D01*
X52350Y262000D02*X53850Y263500D01*
X56400Y262750D02*X57150Y263500D01*
X59400D01*
X60150Y262750D01*
Y261250D01*
X56400Y257500D02*X60150Y261250D01*
X56400Y257500D02*X60150D01*
X61950D02*X64950Y260500D01*
Y262750D02*Y260500D01*
X64200Y263500D02*X64950Y262750D01*
X62700Y263500D02*X64200D01*
X61950Y262750D02*X62700Y263500D01*
X61950Y262750D02*Y261250D01*
X62700Y260500D01*
X64950D01*
X54000Y191000D02*Y186200D01*
Y191000D02*X58160Y193400D01*
X54000Y191000D02*X49840Y193400D01*
X52400Y191000D02*G75*G03X55600Y191000I1600J0D01*G01*
G75*G03X52400Y191000I-1600J0D01*G01*
X50800D02*G75*G03X57200Y191000I3200J0D01*G01*
G75*G03X50800Y191000I-3200J0D01*G01*
X15000Y276250D02*Y271450D01*
Y276250D02*X19160Y278650D01*
X15000Y276250D02*X10840Y278650D01*
X13400Y276250D02*G75*G03X16600Y276250I1600J0D01*G01*
G75*G03X13400Y276250I-1600J0D01*G01*
X11800D02*G75*G03X18200Y276250I3200J0D01*G01*
G75*G03X11800Y276250I-3200J0D01*G01*
X135000Y278500D02*Y277750D01*
X136500Y276250D01*
X138000Y277750D01*
Y278500D02*Y277750D01*
X136500Y276250D02*Y272500D01*
X139800Y275500D02*X142050D01*
X139800Y272500D02*X142800D01*
X139800Y278500D02*Y272500D01*
Y278500D02*X142800D01*
X147600D02*X148350Y277750D01*
X145350Y278500D02*X147600D01*
X144600Y277750D02*X145350Y278500D01*
X144600Y277750D02*Y276250D01*
X145350Y275500D01*
X147600D01*
X148350Y274750D01*
Y273250D01*
X147600Y272500D02*X148350Y273250D01*
X145350Y272500D02*X147600D01*
X144600Y273250D02*X145350Y272500D01*
X98750D02*X100250D01*
X99500Y278500D02*Y272500D01*
X98000Y277000D02*X99500Y278500D01*
X45000Y273250D02*X45750Y272500D01*
X45000Y277750D02*Y273250D01*
Y277750D02*X45750Y278500D01*
X47250D01*
X48000Y277750D01*
Y273250D01*
X47250Y272500D02*X48000Y273250D01*
X45750Y272500D02*X47250D01*
X45000Y274000D02*X48000Y277000D01*
X49800Y272500D02*X50550D01*
X53100D02*X54600D01*
X53850Y278500D02*Y272500D01*
X52350Y277000D02*X53850Y278500D01*
X56400Y277750D02*X57150Y278500D01*
X59400D01*
X60150Y277750D01*
Y276250D01*
X56400Y272500D02*X60150Y276250D01*
X56400Y272500D02*X60150D01*
X61950Y278500D02*X64950D01*
X61950D02*Y275500D01*
X62700Y276250D01*
X64200D01*
X64950Y275500D01*
Y273250D01*
X64200Y272500D02*X64950Y273250D01*
X62700Y272500D02*X64200D01*
X61950Y273250D02*X62700Y272500D01*
X28400Y192600D02*X31600D01*
X28400D02*Y189400D01*
X31600D01*
Y192600D02*Y189400D01*
X26800Y194200D02*X33200D01*
X26800D02*Y187800D01*
X33200D01*
Y194200D02*Y187800D01*
X40400Y173600D02*X43600D01*
X40400D02*Y170400D01*
X43600D01*
Y173600D02*Y170400D01*
X38800Y175200D02*X45200D01*
X38800D02*Y168800D01*
X45200D01*
Y175200D02*Y168800D01*
X13400Y292850D02*X16600D01*
X13400D02*Y289650D01*
X16600D01*
Y292850D02*Y289650D01*
X11800Y294450D02*X18200D01*
X11800D02*Y288050D01*
X18200D01*
Y294450D02*Y288050D01*
X135000Y293500D02*Y292750D01*
X136500Y291250D01*
X138000Y292750D01*
Y293500D02*Y292750D01*
X136500Y291250D02*Y287500D01*
X139800Y290500D02*X142050D01*
X139800Y287500D02*X142800D01*
X139800Y293500D02*Y287500D01*
Y293500D02*X142800D01*
X147600D02*X148350Y292750D01*
X145350Y293500D02*X147600D01*
X144600Y292750D02*X145350Y293500D01*
X144600Y292750D02*Y291250D01*
X145350Y290500D01*
X147600D01*
X148350Y289750D01*
Y288250D01*
X147600Y287500D02*X148350Y288250D01*
X145350Y287500D02*X147600D01*
X144600Y288250D02*X145350Y287500D01*
X98000Y292750D02*X98750Y293500D01*
X101000D01*
X101750Y292750D01*
Y291250D01*
X98000Y287500D02*X101750Y291250D01*
X98000Y287500D02*X101750D01*
X45000Y288250D02*X45750Y287500D01*
X45000Y292750D02*Y288250D01*
Y292750D02*X45750Y293500D01*
X47250D01*
X48000Y292750D01*
Y288250D01*
X47250Y287500D02*X48000Y288250D01*
X45750Y287500D02*X47250D01*
X45000Y289000D02*X48000Y292000D01*
X49800Y287500D02*X50550D01*
X53100D02*X54600D01*
X53850Y293500D02*Y287500D01*
X52350Y292000D02*X53850Y293500D01*
X57150Y287500D02*X58650D01*
X57900Y293500D02*Y287500D01*
X56400Y292000D02*X57900Y293500D01*
X60450Y288250D02*X61200Y287500D01*
X60450Y292750D02*Y288250D01*
Y292750D02*X61200Y293500D01*
X62700D01*
X63450Y292750D01*
Y288250D01*
X62700Y287500D02*X63450Y288250D01*
X61200Y287500D02*X62700D01*
X60450Y289000D02*X63450Y292000D01*
X197200Y109264D02*G75*G03X198800Y109264I800J0D01*G01*
G75*G03X197200Y109264I-800J0D01*G01*
X195600D02*G75*G03X200400Y109264I2400J0D01*G01*
G75*G03X195600Y109264I-2400J0D01*G01*
X84263Y39248D02*G75*G03X85863Y39248I800J0D01*G01*
G75*G03X84263Y39248I-800J0D01*G01*
X82663D02*G75*G03X87463Y39248I2400J0D01*G01*
G75*G03X82663Y39248I-2400J0D01*G01*
X111822D02*G75*G03X113422Y39248I800J0D01*G01*
G75*G03X111822Y39248I-800J0D01*G01*
X110222D02*G75*G03X115022Y39248I2400J0D01*G01*
G75*G03X110222Y39248I-2400J0D01*G01*
X151263D02*G75*G03X152863Y39248I800J0D01*G01*
G75*G03X151263Y39248I-800J0D01*G01*
X149663D02*G75*G03X154463Y39248I2400J0D01*G01*
G75*G03X149663Y39248I-2400J0D01*G01*
X178822D02*G75*G03X180422Y39248I800J0D01*G01*
G75*G03X178822Y39248I-800J0D01*G01*
X177222D02*G75*G03X182022Y39248I2400J0D01*G01*
G75*G03X177222Y39248I-2400J0D01*G01*
X218263D02*G75*G03X219863Y39248I800J0D01*G01*
G75*G03X218263Y39248I-800J0D01*G01*
X216663D02*G75*G03X221463Y39248I2400J0D01*G01*
G75*G03X216663Y39248I-2400J0D01*G01*
X245822D02*G75*G03X247422Y39248I800J0D01*G01*
G75*G03X245822Y39248I-800J0D01*G01*
X244222D02*G75*G03X249022Y39248I2400J0D01*G01*
G75*G03X244222Y39248I-2400J0D01*G01*
X284763D02*G75*G03X286363Y39248I800J0D01*G01*
G75*G03X284763Y39248I-800J0D01*G01*
X283163D02*G75*G03X287963Y39248I2400J0D01*G01*
G75*G03X283163Y39248I-2400J0D01*G01*
X312322D02*G75*G03X313922Y39248I800J0D01*G01*
G75*G03X312322Y39248I-800J0D01*G01*
X310722D02*G75*G03X315522Y39248I2400J0D01*G01*
G75*G03X310722Y39248I-2400J0D01*G01*
X14200Y306250D02*G75*G03X15800Y306250I800J0D01*G01*
G75*G03X14200Y306250I-800J0D01*G01*
X12600D02*G75*G03X17400Y306250I2400J0D01*G01*
G75*G03X12600Y306250I-2400J0D01*G01*
X135000Y308500D02*Y307750D01*
X136500Y306250D01*
X138000Y307750D01*
Y308500D02*Y307750D01*
X136500Y306250D02*Y302500D01*
X139800Y305500D02*X142050D01*
X139800Y302500D02*X142800D01*
X139800Y308500D02*Y302500D01*
Y308500D02*X142800D01*
X147600D02*X148350Y307750D01*
X145350Y308500D02*X147600D01*
X144600Y307750D02*X145350Y308500D01*
X144600Y307750D02*Y306250D01*
X145350Y305500D01*
X147600D01*
X148350Y304750D01*
Y303250D01*
X147600Y302500D02*X148350Y303250D01*
X145350Y302500D02*X147600D01*
X144600Y303250D02*X145350Y302500D01*
X98000D02*X101000Y305500D01*
Y307750D02*Y305500D01*
X100250Y308500D02*X101000Y307750D01*
X98750Y308500D02*X100250D01*
X98000Y307750D02*X98750Y308500D01*
X98000Y307750D02*Y306250D01*
X98750Y305500D01*
X101000D01*
X45000Y303250D02*X45750Y302500D01*
X45000Y307750D02*Y303250D01*
Y307750D02*X45750Y308500D01*
X47250D01*
X48000Y307750D01*
Y303250D01*
X47250Y302500D02*X48000Y303250D01*
X45750Y302500D02*X47250D01*
X45000Y304000D02*X48000Y307000D01*
X49800Y302500D02*X50550D01*
X52350Y303250D02*X53100Y302500D01*
X52350Y307750D02*Y303250D01*
Y307750D02*X53100Y308500D01*
X54600D01*
X55350Y307750D01*
Y303250D01*
X54600Y302500D02*X55350Y303250D01*
X53100Y302500D02*X54600D01*
X52350Y304000D02*X55350Y307000D01*
X57150Y308500D02*X60150D01*
X57150D02*Y305500D01*
X57900Y306250D01*
X59400D01*
X60150Y305500D01*
Y303250D01*
X59400Y302500D02*X60150Y303250D01*
X57900Y302500D02*X59400D01*
X57150Y303250D02*X57900Y302500D01*
X61950Y305500D02*X64950Y308500D01*
X61950Y305500D02*X65700D01*
X64950Y308500D02*Y302500D01*
X19600Y115400D02*X24400Y110600D01*
X19600D02*X24400Y115400D01*
X20400Y114600D02*X23600D01*
X20400D02*Y111400D01*
X23600D01*
Y114600D02*Y111400D01*
X19600Y95400D02*X24400Y90600D01*
X19600D02*X24400Y95400D01*
X20400Y94600D02*X23600D01*
X20400D02*Y91400D01*
X23600D01*
Y94600D02*Y91400D01*
X19600Y155400D02*X24400Y150600D01*
X19600D02*X24400Y155400D01*
X20400Y154600D02*X23600D01*
X20400D02*Y151400D01*
X23600D01*
Y154600D02*Y151400D01*
X19600Y135400D02*X24400Y130600D01*
X19600D02*X24400Y135400D01*
X20400Y134600D02*X23600D01*
X20400D02*Y131400D01*
X23600D01*
Y134600D02*Y131400D01*
X183600Y197400D02*X188400Y192600D01*
X183600D02*X188400Y197400D01*
X184400Y196600D02*X187600D01*
X184400D02*Y193400D01*
X187600D01*
Y196600D02*Y193400D01*
X183600Y167400D02*X188400Y162600D01*
X183600D02*X188400Y167400D01*
X184400Y166600D02*X187600D01*
X184400D02*Y163400D01*
X187600D01*
Y166600D02*Y163400D01*
X12600Y323650D02*X17400Y318850D01*
X12600D02*X17400Y323650D01*
X13400Y322850D02*X16600D01*
X13400D02*Y319650D01*
X16600D01*
Y322850D02*Y319650D01*
X135000Y323500D02*Y322750D01*
X136500Y321250D01*
X138000Y322750D01*
Y323500D02*Y322750D01*
X136500Y321250D02*Y317500D01*
X139800Y320500D02*X142050D01*
X139800Y317500D02*X142800D01*
X139800Y323500D02*Y317500D01*
Y323500D02*X142800D01*
X147600D02*X148350Y322750D01*
X145350Y323500D02*X147600D01*
X144600Y322750D02*X145350Y323500D01*
X144600Y322750D02*Y321250D01*
X145350Y320500D01*
X147600D01*
X148350Y319750D01*
Y318250D01*
X147600Y317500D02*X148350Y318250D01*
X145350Y317500D02*X147600D01*
X144600Y318250D02*X145350Y317500D01*
X100250Y323500D02*X101000Y322750D01*
X98750Y323500D02*X100250D01*
X98000Y322750D02*X98750Y323500D01*
X98000Y322750D02*Y318250D01*
X98750Y317500D01*
X100250Y320500D02*X101000Y319750D01*
X98000Y320500D02*X100250D01*
X98750Y317500D02*X100250D01*
X101000Y318250D01*
Y319750D02*Y318250D01*
X45000D02*X45750Y317500D01*
X45000Y322750D02*Y318250D01*
Y322750D02*X45750Y323500D01*
X47250D01*
X48000Y322750D01*
Y318250D01*
X47250Y317500D02*X48000Y318250D01*
X45750Y317500D02*X47250D01*
X45000Y319000D02*X48000Y322000D01*
X49800Y317500D02*X50550D01*
X52350Y318250D02*X53100Y317500D01*
X52350Y322750D02*Y318250D01*
Y322750D02*X53100Y323500D01*
X54600D01*
X55350Y322750D01*
Y318250D01*
X54600Y317500D02*X55350Y318250D01*
X53100Y317500D02*X54600D01*
X52350Y319000D02*X55350Y322000D01*
X57150Y320500D02*X60150Y323500D01*
X57150Y320500D02*X60900D01*
X60150Y323500D02*Y317500D01*
X62700Y318250D02*X63450Y317500D01*
X62700Y319750D02*Y318250D01*
Y319750D02*X63450Y320500D01*
X64950D01*
X65700Y319750D01*
Y318250D01*
X64950Y317500D02*X65700Y318250D01*
X63450Y317500D02*X64950D01*
X62700Y321250D02*X63450Y320500D01*
X62700Y322750D02*Y321250D01*
Y322750D02*X63450Y323500D01*
X64950D01*
X65700Y322750D01*
Y321250D01*
X64950Y320500D02*X65700Y321250D01*
X112300Y222600D02*Y216200D01*
X109100Y219400D02*X115500D01*
X110700Y221000D02*X113900D01*
X110700D02*Y217800D01*
X113900D01*
Y221000D02*Y217800D01*
X102300Y222600D02*Y216200D01*
X99100Y219400D02*X105500D01*
X100700Y221000D02*X103900D01*
X100700D02*Y217800D01*
X103900D01*
Y221000D02*Y217800D01*
X92300Y222600D02*Y216200D01*
X89100Y219400D02*X95500D01*
X90700Y221000D02*X93900D01*
X90700D02*Y217800D01*
X93900D01*
Y221000D02*Y217800D01*
X15000Y339450D02*Y333050D01*
X11800Y336250D02*X18200D01*
X13400Y337850D02*X16600D01*
X13400D02*Y334650D01*
X16600D01*
Y337850D02*Y334650D01*
X135000Y338500D02*Y337750D01*
X136500Y336250D01*
X138000Y337750D01*
Y338500D02*Y337750D01*
X136500Y336250D02*Y332500D01*
X139800Y335500D02*X142050D01*
X139800Y332500D02*X142800D01*
X139800Y338500D02*Y332500D01*
Y338500D02*X142800D01*
X147600D02*X148350Y337750D01*
X145350Y338500D02*X147600D01*
X144600Y337750D02*X145350Y338500D01*
X144600Y337750D02*Y336250D01*
X145350Y335500D01*
X147600D01*
X148350Y334750D01*
Y333250D01*
X147600Y332500D02*X148350Y333250D01*
X145350Y332500D02*X147600D01*
X144600Y333250D02*X145350Y332500D01*
X98000Y337750D02*X98750Y338500D01*
X100250D01*
X101000Y337750D01*
Y333250D01*
X100250Y332500D02*X101000Y333250D01*
X98750Y332500D02*X100250D01*
X98000Y333250D02*X98750Y332500D01*
Y335500D02*X101000D01*
X45000Y333250D02*X45750Y332500D01*
X45000Y337750D02*Y333250D01*
Y337750D02*X45750Y338500D01*
X47250D01*
X48000Y337750D01*
Y333250D01*
X47250Y332500D02*X48000Y333250D01*
X45750Y332500D02*X47250D01*
X45000Y334000D02*X48000Y337000D01*
X49800Y332500D02*X50550D01*
X52350Y333250D02*X53100Y332500D01*
X52350Y337750D02*Y333250D01*
Y337750D02*X53100Y338500D01*
X54600D01*
X55350Y337750D01*
Y333250D01*
X54600Y332500D02*X55350Y333250D01*
X53100Y332500D02*X54600D01*
X52350Y334000D02*X55350Y337000D01*
X57150Y335500D02*X60150Y338500D01*
X57150Y335500D02*X60900D01*
X60150Y338500D02*Y332500D01*
X62700Y338500D02*X65700D01*
X62700D02*Y335500D01*
X63450Y336250D01*
X64950D01*
X65700Y335500D01*
Y333250D01*
X64950Y332500D02*X65700Y333250D01*
X63450Y332500D02*X64950D01*
X62700Y333250D02*X63450Y332500D01*
X198000Y79736D02*Y76536D01*
Y79736D02*X200773Y81336D01*
X198000Y79736D02*X195227Y81336D01*
X196400Y79736D02*G75*G03X199600Y79736I1600J0D01*G01*
G75*G03X196400Y79736I-1600J0D01*G01*
X89000Y23500D02*Y20300D01*
Y23500D02*X91773Y25100D01*
X89000Y23500D02*X86227Y25100D01*
X87400Y23500D02*G75*G03X90600Y23500I1600J0D01*G01*
G75*G03X87400Y23500I-1600J0D01*G01*
X108685D02*Y20300D01*
Y23500D02*X111458Y25100D01*
X108685Y23500D02*X105912Y25100D01*
X107085Y23500D02*G75*G03X110285Y23500I1600J0D01*G01*
G75*G03X107085Y23500I-1600J0D01*G01*
X156000D02*Y20300D01*
Y23500D02*X158773Y25100D01*
X156000Y23500D02*X153227Y25100D01*
X154400Y23500D02*G75*G03X157600Y23500I1600J0D01*G01*
G75*G03X154400Y23500I-1600J0D01*G01*
X175685D02*Y20300D01*
Y23500D02*X178458Y25100D01*
X175685Y23500D02*X172912Y25100D01*
X174085Y23500D02*G75*G03X177285Y23500I1600J0D01*G01*
G75*G03X174085Y23500I-1600J0D01*G01*
X223000D02*Y20300D01*
Y23500D02*X225773Y25100D01*
X223000Y23500D02*X220227Y25100D01*
X221400Y23500D02*G75*G03X224600Y23500I1600J0D01*G01*
G75*G03X221400Y23500I-1600J0D01*G01*
X242685D02*Y20300D01*
Y23500D02*X245458Y25100D01*
X242685Y23500D02*X239912Y25100D01*
X241085Y23500D02*G75*G03X244285Y23500I1600J0D01*G01*
G75*G03X241085Y23500I-1600J0D01*G01*
X289500D02*Y20300D01*
Y23500D02*X292273Y25100D01*
X289500Y23500D02*X286727Y25100D01*
X287900Y23500D02*G75*G03X291100Y23500I1600J0D01*G01*
G75*G03X287900Y23500I-1600J0D01*G01*
X309185D02*Y20300D01*
Y23500D02*X311958Y25100D01*
X309185Y23500D02*X306412Y25100D01*
X307585Y23500D02*G75*G03X310785Y23500I1600J0D01*G01*
G75*G03X307585Y23500I-1600J0D01*G01*
X15000Y351250D02*Y348050D01*
Y351250D02*X17773Y352850D01*
X15000Y351250D02*X12227Y352850D01*
X13400Y351250D02*G75*G03X16600Y351250I1600J0D01*G01*
G75*G03X13400Y351250I-1600J0D01*G01*
X135000Y353500D02*Y352750D01*
X136500Y351250D01*
X138000Y352750D01*
Y353500D02*Y352750D01*
X136500Y351250D02*Y347500D01*
X139800Y350500D02*X142050D01*
X139800Y347500D02*X142800D01*
X139800Y353500D02*Y347500D01*
Y353500D02*X142800D01*
X147600D02*X148350Y352750D01*
X145350Y353500D02*X147600D01*
X144600Y352750D02*X145350Y353500D01*
X144600Y352750D02*Y351250D01*
X145350Y350500D01*
X147600D01*
X148350Y349750D01*
Y348250D01*
X147600Y347500D02*X148350Y348250D01*
X145350Y347500D02*X147600D01*
X144600Y348250D02*X145350Y347500D01*
X98000D02*X101000Y350500D01*
Y352750D02*Y350500D01*
X100250Y353500D02*X101000Y352750D01*
X98750Y353500D02*X100250D01*
X98000Y352750D02*X98750Y353500D01*
X98000Y352750D02*Y351250D01*
X98750Y350500D01*
X101000D01*
X45000Y348250D02*X45750Y347500D01*
X45000Y352750D02*Y348250D01*
Y352750D02*X45750Y353500D01*
X47250D01*
X48000Y352750D01*
Y348250D01*
X47250Y347500D02*X48000Y348250D01*
X45750Y347500D02*X47250D01*
X45000Y349000D02*X48000Y352000D01*
X49800Y347500D02*X50550D01*
X52350Y348250D02*X53100Y347500D01*
X52350Y352750D02*Y348250D01*
Y352750D02*X53100Y353500D01*
X54600D01*
X55350Y352750D01*
Y348250D01*
X54600Y347500D02*X55350Y348250D01*
X53100Y347500D02*X54600D01*
X52350Y349000D02*X55350Y352000D01*
X57150Y350500D02*X60150Y353500D01*
X57150Y350500D02*X60900D01*
X60150Y353500D02*Y347500D01*
X62700Y350500D02*X65700Y353500D01*
X62700Y350500D02*X66450D01*
X65700Y353500D02*Y347500D01*
X351400Y234600D02*X354600D01*
X351400D02*Y231400D01*
X354600D01*
Y234600D02*Y231400D01*
X341400Y234600D02*X344600D01*
X341400D02*Y231400D01*
X344600D01*
Y234600D02*Y231400D01*
X331400Y234600D02*X334600D01*
X331400D02*Y231400D01*
X334600D01*
Y234600D02*Y231400D01*
X321400Y234600D02*X324600D01*
X321400D02*Y231400D01*
X324600D01*
Y234600D02*Y231400D01*
X311400Y234600D02*X314600D01*
X311400D02*Y231400D01*
X314600D01*
Y234600D02*Y231400D01*
X301400Y234600D02*X304600D01*
X301400D02*Y231400D01*
X304600D01*
Y234600D02*Y231400D01*
X291400Y234600D02*X294600D01*
X291400D02*Y231400D01*
X294600D01*
Y234600D02*Y231400D01*
X281400Y234600D02*X284600D01*
X281400D02*Y231400D01*
X284600D01*
Y234600D02*Y231400D01*
X271400Y234600D02*X274600D01*
X271400D02*Y231400D01*
X274600D01*
Y234600D02*Y231400D01*
X261400Y234600D02*X264600D01*
X261400D02*Y231400D01*
X264600D01*
Y234600D02*Y231400D01*
X251400Y234600D02*X254600D01*
X251400D02*Y231400D01*
X254600D01*
Y234600D02*Y231400D01*
X241400Y234600D02*X244600D01*
X241400D02*Y231400D01*
X244600D01*
Y234600D02*Y231400D01*
X231400Y234600D02*X234600D01*
X231400D02*Y231400D01*
X234600D01*
Y234600D02*Y231400D01*
X221400Y234600D02*X224600D01*
X221400D02*Y231400D01*
X224600D01*
Y234600D02*Y231400D01*
X211400Y234600D02*X214600D01*
X211400D02*Y231400D01*
X214600D01*
Y234600D02*Y231400D01*
X201400Y234600D02*X204600D01*
X201400D02*Y231400D01*
X204600D01*
Y234600D02*Y231400D01*
X289400Y198100D02*X292600D01*
X289400D02*Y194900D01*
X292600D01*
Y198100D02*Y194900D01*
X289400Y188100D02*X292600D01*
X289400D02*Y184900D01*
X292600D01*
Y188100D02*Y184900D01*
X289400Y178100D02*X292600D01*
X289400D02*Y174900D01*
X292600D01*
Y178100D02*Y174900D01*
X299400Y198100D02*X302600D01*
X299400D02*Y194900D01*
X302600D01*
Y198100D02*Y194900D01*
X299400Y188100D02*X302600D01*
X299400D02*Y184900D01*
X302600D01*
Y188100D02*Y184900D01*
X299400Y178100D02*X302600D01*
X299400D02*Y174900D01*
X302600D01*
Y178100D02*Y174900D01*
X338900Y137100D02*X342100D01*
X338900D02*Y133900D01*
X342100D01*
Y137100D02*Y133900D01*
X338900Y147100D02*X342100D01*
X338900D02*Y143900D01*
X342100D01*
Y147100D02*Y143900D01*
X338900Y157100D02*X342100D01*
X338900D02*Y153900D01*
X342100D01*
Y157100D02*Y153900D01*
X338900Y167100D02*X342100D01*
X338900D02*Y163900D01*
X342100D01*
Y167100D02*Y163900D01*
X338900Y177100D02*X342100D01*
X338900D02*Y173900D01*
X342100D01*
Y177100D02*Y173900D01*
X235400Y108600D02*X238600D01*
X235400D02*Y105400D01*
X238600D01*
Y108600D02*Y105400D01*
X245400Y108600D02*X248600D01*
X245400D02*Y105400D01*
X248600D01*
Y108600D02*Y105400D01*
X13900Y54100D02*X17100D01*
X13900D02*Y50900D01*
X17100D01*
Y54100D02*Y50900D01*
X23900Y54100D02*X27100D01*
X23900D02*Y50900D01*
X27100D01*
Y54100D02*Y50900D01*
X40400Y54100D02*X43600D01*
X40400D02*Y50900D01*
X43600D01*
Y54100D02*Y50900D01*
X40400Y44100D02*X43600D01*
X40400D02*Y40900D01*
X43600D01*
Y44100D02*Y40900D01*
X13400Y367850D02*X16600D01*
X13400D02*Y364650D01*
X16600D01*
Y367850D02*Y364650D01*
X135000Y368500D02*Y367750D01*
X136500Y366250D01*
X138000Y367750D01*
Y368500D02*Y367750D01*
X136500Y366250D02*Y362500D01*
X139800Y365500D02*X142050D01*
X139800Y362500D02*X142800D01*
X139800Y368500D02*Y362500D01*
Y368500D02*X142800D01*
X147600D02*X148350Y367750D01*
X145350Y368500D02*X147600D01*
X144600Y367750D02*X145350Y368500D01*
X144600Y367750D02*Y366250D01*
X145350Y365500D01*
X147600D01*
X148350Y364750D01*
Y363250D01*
X147600Y362500D02*X148350Y363250D01*
X145350Y362500D02*X147600D01*
X144600Y363250D02*X145350Y362500D01*
X98000Y367750D02*X98750Y368500D01*
X100250D01*
X101000Y367750D01*
Y363250D01*
X100250Y362500D02*X101000Y363250D01*
X98750Y362500D02*X100250D01*
X98000Y363250D02*X98750Y362500D01*
Y365500D02*X101000D01*
X102800Y367750D02*X103550Y368500D01*
X105050D01*
X105800Y367750D01*
Y363250D01*
X105050Y362500D02*X105800Y363250D01*
X103550Y362500D02*X105050D01*
X102800Y363250D02*X103550Y362500D01*
Y365500D02*X105800D01*
X45000Y363250D02*X45750Y362500D01*
X45000Y367750D02*Y363250D01*
Y367750D02*X45750Y368500D01*
X47250D01*
X48000Y367750D01*
Y363250D01*
X47250Y362500D02*X48000Y363250D01*
X45750Y362500D02*X47250D01*
X45000Y364000D02*X48000Y367000D01*
X49800Y362500D02*X50550D01*
X52350Y363250D02*X53100Y362500D01*
X52350Y367750D02*Y363250D01*
Y367750D02*X53100Y368500D01*
X54600D01*
X55350Y367750D01*
Y363250D01*
X54600Y362500D02*X55350Y363250D01*
X53100Y362500D02*X54600D01*
X52350Y364000D02*X55350Y367000D01*
X57150Y367750D02*X57900Y368500D01*
X59400D01*
X60150Y367750D01*
Y363250D01*
X59400Y362500D02*X60150Y363250D01*
X57900Y362500D02*X59400D01*
X57150Y363250D02*X57900Y362500D01*
Y365500D02*X60150D01*
X61950Y363250D02*X62700Y362500D01*
X61950Y364750D02*Y363250D01*
Y364750D02*X62700Y365500D01*
X64200D01*
X64950Y364750D01*
Y363250D01*
X64200Y362500D02*X64950Y363250D01*
X62700Y362500D02*X64200D01*
X61950Y366250D02*X62700Y365500D01*
X61950Y367750D02*Y366250D01*
Y367750D02*X62700Y368500D01*
X64200D01*
X64950Y367750D01*
Y366250D01*
X64200Y365500D02*X64950Y366250D01*
X68200Y224000D02*G75*G03X69800Y224000I800J0D01*G01*
G75*G03X68200Y224000I-800J0D01*G01*
X52200D02*G75*G03X53800Y224000I800J0D01*G01*
G75*G03X52200Y224000I-800J0D01*G01*
X68200Y211000D02*G75*G03X69800Y211000I800J0D01*G01*
G75*G03X68200Y211000I-800J0D01*G01*
X52200D02*G75*G03X53800Y211000I800J0D01*G01*
G75*G03X52200Y211000I-800J0D01*G01*
X134200Y93000D02*G75*G03X135800Y93000I800J0D01*G01*
G75*G03X134200Y93000I-800J0D01*G01*
X138200Y70000D02*G75*G03X139800Y70000I800J0D01*G01*
G75*G03X138200Y70000I-800J0D01*G01*
X14200Y381250D02*G75*G03X15800Y381250I800J0D01*G01*
G75*G03X14200Y381250I-800J0D01*G01*
X135000Y383500D02*Y382750D01*
X136500Y381250D01*
X138000Y382750D01*
Y383500D02*Y382750D01*
X136500Y381250D02*Y377500D01*
X139800Y380500D02*X142050D01*
X139800Y377500D02*X142800D01*
X139800Y383500D02*Y377500D01*
Y383500D02*X142800D01*
X147600D02*X148350Y382750D01*
X145350Y383500D02*X147600D01*
X144600Y382750D02*X145350Y383500D01*
X144600Y382750D02*Y381250D01*
X145350Y380500D01*
X147600D01*
X148350Y379750D01*
Y378250D01*
X147600Y377500D02*X148350Y378250D01*
X145350Y377500D02*X147600D01*
X144600Y378250D02*X145350Y377500D01*
X100250Y383500D02*X101000Y382750D01*
X98750Y383500D02*X100250D01*
X98000Y382750D02*X98750Y383500D01*
X98000Y382750D02*Y378250D01*
X98750Y377500D01*
X100250Y380500D02*X101000Y379750D01*
X98000Y380500D02*X100250D01*
X98750Y377500D02*X100250D01*
X101000Y378250D01*
Y379750D02*Y378250D01*
X45000D02*X45750Y377500D01*
X45000Y382750D02*Y378250D01*
Y382750D02*X45750Y383500D01*
X47250D01*
X48000Y382750D01*
Y378250D01*
X47250Y377500D02*X48000Y378250D01*
X45750Y377500D02*X47250D01*
X45000Y379000D02*X48000Y382000D01*
X49800Y377500D02*X50550D01*
X52350Y378250D02*X53100Y377500D01*
X52350Y382750D02*Y378250D01*
Y382750D02*X53100Y383500D01*
X54600D01*
X55350Y382750D01*
Y378250D01*
X54600Y377500D02*X55350Y378250D01*
X53100Y377500D02*X54600D01*
X52350Y379000D02*X55350Y382000D01*
X57150Y382750D02*X57900Y383500D01*
X59400D01*
X60150Y382750D01*
Y378250D01*
X59400Y377500D02*X60150Y378250D01*
X57900Y377500D02*X59400D01*
X57150Y378250D02*X57900Y377500D01*
Y380500D02*X60150D01*
X61950Y383500D02*X64950D01*
X61950D02*Y380500D01*
X62700Y381250D01*
X64200D01*
X64950Y380500D01*
Y378250D01*
X64200Y377500D02*X64950Y378250D01*
X62700Y377500D02*X64200D01*
X61950Y378250D02*X62700Y377500D01*
X69193Y140900D02*X71593Y138500D01*
X69193D02*X71593Y140900D01*
X69193Y133026D02*X71593Y130626D01*
X69193D02*X71593Y133026D01*
X69193Y125152D02*X71593Y122752D01*
X69193D02*X71593Y125152D01*
X69193Y117278D02*X71593Y114878D01*
X69193D02*X71593Y117278D01*
X69193Y109404D02*X71593Y107004D01*
X69193D02*X71593Y109404D01*
X69193Y101530D02*X71593Y99130D01*
X69193D02*X71593Y101530D01*
X69193Y93656D02*X71593Y91256D01*
X69193D02*X71593Y93656D01*
X69193Y85782D02*X71593Y83382D01*
X69193D02*X71593Y85782D01*
X69193Y77908D02*X71593Y75508D01*
X69193D02*X71593Y77908D01*
X69193Y70034D02*X71593Y67634D01*
X69193D02*X71593Y70034D01*
X155807Y140900D02*X158207Y138500D01*
X155807D02*X158207Y140900D01*
X155807Y133026D02*X158207Y130626D01*
X155807D02*X158207Y133026D01*
X155807Y125152D02*X158207Y122752D01*
X155807D02*X158207Y125152D01*
X155807Y117278D02*X158207Y114878D01*
X155807D02*X158207Y117278D01*
X155807Y109404D02*X158207Y107004D01*
X155807D02*X158207Y109404D01*
X155807Y101530D02*X158207Y99130D01*
X155807D02*X158207Y101530D01*
X155807Y93656D02*X158207Y91256D01*
X155807D02*X158207Y93656D01*
X155807Y85782D02*X158207Y83382D01*
X155807D02*X158207Y85782D01*
X155807Y77908D02*X158207Y75508D01*
X155807D02*X158207Y77908D01*
X155807Y70034D02*X158207Y67634D01*
X155807D02*X158207Y70034D01*
X13800Y397450D02*X16200Y395050D01*
X13800D02*X16200Y397450D01*
X135000Y398500D02*Y397750D01*
X136500Y396250D01*
X138000Y397750D01*
Y398500D02*Y397750D01*
X136500Y396250D02*Y392500D01*
X139800Y395500D02*X142050D01*
X139800Y392500D02*X142800D01*
X139800Y398500D02*Y392500D01*
Y398500D02*X142800D01*
X147600D02*X148350Y397750D01*
X145350Y398500D02*X147600D01*
X144600Y397750D02*X145350Y398500D01*
X144600Y397750D02*Y396250D01*
X145350Y395500D01*
X147600D01*
X148350Y394750D01*
Y393250D01*
X147600Y392500D02*X148350Y393250D01*
X145350Y392500D02*X147600D01*
X144600Y393250D02*X145350Y392500D01*
X98000Y397750D02*X98750Y398500D01*
X101000D01*
X101750Y397750D01*
Y396250D01*
X98000Y392500D02*X101750Y396250D01*
X98000Y392500D02*X101750D01*
X103550Y393250D02*X104300Y392500D01*
X103550Y397750D02*Y393250D01*
Y397750D02*X104300Y398500D01*
X105800D01*
X106550Y397750D01*
Y393250D01*
X105800Y392500D02*X106550Y393250D01*
X104300Y392500D02*X105800D01*
X103550Y394000D02*X106550Y397000D01*
X45000Y393250D02*X45750Y392500D01*
X45000Y397750D02*Y393250D01*
Y397750D02*X45750Y398500D01*
X47250D01*
X48000Y397750D01*
Y393250D01*
X47250Y392500D02*X48000Y393250D01*
X45750Y392500D02*X47250D01*
X45000Y394000D02*X48000Y397000D01*
X49800Y392500D02*X50550D01*
X52350Y393250D02*X53100Y392500D01*
X52350Y397750D02*Y393250D01*
Y397750D02*X53100Y398500D01*
X54600D01*
X55350Y397750D01*
Y393250D01*
X54600Y392500D02*X55350Y393250D01*
X53100Y392500D02*X54600D01*
X52350Y394000D02*X55350Y397000D01*
X57150Y397750D02*X57900Y398500D01*
X59400D01*
X60150Y397750D01*
Y393250D01*
X59400Y392500D02*X60150Y393250D01*
X57900Y392500D02*X59400D01*
X57150Y393250D02*X57900Y392500D01*
Y395500D02*X60150D01*
X61950Y397750D02*X62700Y398500D01*
X64950D01*
X65700Y397750D01*
Y396250D01*
X61950Y392500D02*X65700Y396250D01*
X61950Y392500D02*X65700D01*
X116000Y69600D02*Y66400D01*
X114400Y68000D02*X117600D01*
X116000Y79600D02*Y76400D01*
X114400Y78000D02*X117600D01*
X116000Y89600D02*Y86400D01*
X114400Y88000D02*X117600D01*
X116000Y99600D02*Y96400D01*
X114400Y98000D02*X117600D01*
X86000Y99600D02*Y96400D01*
X84400Y98000D02*X87600D01*
X86000Y89600D02*Y86400D01*
X84400Y88000D02*X87600D01*
X86000Y79600D02*Y76400D01*
X84400Y78000D02*X87600D01*
X86000Y69600D02*Y66400D01*
X84400Y68000D02*X87600D01*
X15000Y412850D02*Y409650D01*
X13400Y411250D02*X16600D01*
X135000Y413500D02*Y412750D01*
X136500Y411250D01*
X138000Y412750D01*
Y413500D02*Y412750D01*
X136500Y411250D02*Y407500D01*
X139800Y410500D02*X142050D01*
X139800Y407500D02*X142800D01*
X139800Y413500D02*Y407500D01*
Y413500D02*X142800D01*
X147600D02*X148350Y412750D01*
X145350Y413500D02*X147600D01*
X144600Y412750D02*X145350Y413500D01*
X144600Y412750D02*Y411250D01*
X145350Y410500D01*
X147600D01*
X148350Y409750D01*
Y408250D01*
X147600Y407500D02*X148350Y408250D01*
X145350Y407500D02*X147600D01*
X144600Y408250D02*X145350Y407500D01*
X98000Y408250D02*X98750Y407500D01*
X98000Y409750D02*Y408250D01*
Y409750D02*X98750Y410500D01*
X100250D01*
X101000Y409750D01*
Y408250D01*
X100250Y407500D02*X101000Y408250D01*
X98750Y407500D02*X100250D01*
X98000Y411250D02*X98750Y410500D01*
X98000Y412750D02*Y411250D01*
Y412750D02*X98750Y413500D01*
X100250D01*
X101000Y412750D01*
Y411250D01*
X100250Y410500D02*X101000Y411250D01*
X45000Y408250D02*X45750Y407500D01*
X45000Y412750D02*Y408250D01*
Y412750D02*X45750Y413500D01*
X47250D01*
X48000Y412750D01*
Y408250D01*
X47250Y407500D02*X48000Y408250D01*
X45750Y407500D02*X47250D01*
X45000Y409000D02*X48000Y412000D01*
X49800Y407500D02*X50550D01*
X52350Y408250D02*X53100Y407500D01*
X52350Y412750D02*Y408250D01*
Y412750D02*X53100Y413500D01*
X54600D01*
X55350Y412750D01*
Y408250D01*
X54600Y407500D02*X55350Y408250D01*
X53100Y407500D02*X54600D01*
X52350Y409000D02*X55350Y412000D01*
X57150Y412750D02*X57900Y413500D01*
X60150D01*
X60900Y412750D01*
Y411250D01*
X57150Y407500D02*X60900Y411250D01*
X57150Y407500D02*X60900D01*
X62700Y408250D02*X63450Y407500D01*
X62700Y409750D02*Y408250D01*
Y409750D02*X63450Y410500D01*
X64950D01*
X65700Y409750D01*
Y408250D01*
X64950Y407500D02*X65700Y408250D01*
X63450Y407500D02*X64950D01*
X62700Y411250D02*X63450Y410500D01*
X62700Y412750D02*Y411250D01*
Y412750D02*X63450Y413500D01*
X64950D01*
X65700Y412750D01*
Y411250D01*
X64950Y410500D02*X65700Y411250D01*
X298500Y114894D02*Y113294D01*
Y114894D02*X299887Y115694D01*
X298500Y114894D02*X297113Y115694D01*
X298500Y134106D02*Y132506D01*
Y134106D02*X299887Y134906D01*
X298500Y134106D02*X297113Y134906D01*
X87000Y168000D02*Y166400D01*
Y168000D02*X88387Y168800D01*
X87000Y168000D02*X85613Y168800D01*
X99000Y168000D02*Y166400D01*
Y168000D02*X100387Y168800D01*
X99000Y168000D02*X97613Y168800D01*
X104000Y168000D02*Y166400D01*
Y168000D02*X105387Y168800D01*
X104000Y168000D02*X102613Y168800D01*
X120000Y110000D02*Y108400D01*
Y110000D02*X121387Y110800D01*
X120000Y110000D02*X118613Y110800D01*
X114000Y110000D02*Y108400D01*
Y110000D02*X115387Y110800D01*
X114000Y110000D02*X112613Y110800D01*
X114000Y115000D02*Y113400D01*
Y115000D02*X115387Y115800D01*
X114000Y115000D02*X112613Y115800D01*
X120000Y115000D02*Y113400D01*
Y115000D02*X121387Y115800D01*
X120000Y115000D02*X118613Y115800D01*
X135000Y58000D02*Y56400D01*
Y58000D02*X136387Y58800D01*
X135000Y58000D02*X133613Y58800D01*
X140000Y58000D02*Y56400D01*
Y58000D02*X141387Y58800D01*
X140000Y58000D02*X138613Y58800D01*
X114000Y120000D02*Y118400D01*
Y120000D02*X115387Y120800D01*
X114000Y120000D02*X112613Y120800D01*
X120000Y120000D02*Y118400D01*
Y120000D02*X121387Y120800D01*
X120000Y120000D02*X118613Y120800D01*
X62000Y89000D02*Y87400D01*
Y89000D02*X63387Y89800D01*
X62000Y89000D02*X60613Y89800D01*
X130000Y160000D02*Y158400D01*
Y160000D02*X131387Y160800D01*
X130000Y160000D02*X128613Y160800D01*
X130000Y165000D02*Y163400D01*
Y165000D02*X131387Y165800D01*
X130000Y165000D02*X128613Y165800D01*
X130000Y170000D02*Y168400D01*
Y170000D02*X131387Y170800D01*
X130000Y170000D02*X128613Y170800D01*
X169000Y230000D02*Y228400D01*
Y230000D02*X170387Y230800D01*
X169000Y230000D02*X167613Y230800D01*
X164000Y230000D02*Y228400D01*
Y230000D02*X165387Y230800D01*
X164000Y230000D02*X162613Y230800D01*
X159000Y230000D02*Y228400D01*
Y230000D02*X160387Y230800D01*
X159000Y230000D02*X157613Y230800D01*
X83000Y207000D02*Y205400D01*
Y207000D02*X84387Y207800D01*
X83000Y207000D02*X81613Y207800D01*
X90000Y207000D02*Y205400D01*
Y207000D02*X91387Y207800D01*
X90000Y207000D02*X88613Y207800D01*
X97000Y207000D02*Y205400D01*
Y207000D02*X98387Y207800D01*
X97000Y207000D02*X95613Y207800D01*
X131000Y195000D02*Y193400D01*
Y195000D02*X132387Y195800D01*
X131000Y195000D02*X129613Y195800D01*
X138000Y195000D02*Y193400D01*
Y195000D02*X139387Y195800D01*
X138000Y195000D02*X136613Y195800D01*
X145000Y195000D02*Y193400D01*
Y195000D02*X146387Y195800D01*
X145000Y195000D02*X143613Y195800D01*
X152000Y195000D02*Y193400D01*
Y195000D02*X153387Y195800D01*
X152000Y195000D02*X150613Y195800D01*
X159000Y195000D02*Y193400D01*
Y195000D02*X160387Y195800D01*
X159000Y195000D02*X157613Y195800D01*
X166000Y195000D02*Y193400D01*
Y195000D02*X167387Y195800D01*
X166000Y195000D02*X164613Y195800D01*
X173000Y195000D02*Y193400D01*
Y195000D02*X174387Y195800D01*
X173000Y195000D02*X171613Y195800D01*
X199000Y195000D02*Y193400D01*
Y195000D02*X200387Y195800D01*
X199000Y195000D02*X197613Y195800D01*
X206000Y195000D02*Y193400D01*
Y195000D02*X207387Y195800D01*
X206000Y195000D02*X204613Y195800D01*
X213000Y195000D02*Y193400D01*
Y195000D02*X214387Y195800D01*
X213000Y195000D02*X211613Y195800D01*
X219000Y195000D02*Y193400D01*
Y195000D02*X220387Y195800D01*
X219000Y195000D02*X217613Y195800D01*
X226000Y195000D02*Y193400D01*
Y195000D02*X227387Y195800D01*
X226000Y195000D02*X224613Y195800D01*
X251500Y164000D02*Y162400D01*
Y164000D02*X252887Y164800D01*
X251500Y164000D02*X250113Y164800D01*
X251500Y158000D02*Y156400D01*
Y158000D02*X252887Y158800D01*
X251500Y158000D02*X250113Y158800D01*
X251500Y152500D02*Y150900D01*
Y152500D02*X252887Y153300D01*
X251500Y152500D02*X250113Y153300D01*
X260000Y164500D02*Y162900D01*
Y164500D02*X261387Y165300D01*
X260000Y164500D02*X258613Y165300D01*
X247000Y118500D02*Y116900D01*
Y118500D02*X248387Y119300D01*
X247000Y118500D02*X245613Y119300D01*
X252000Y118500D02*Y116900D01*
Y118500D02*X253387Y119300D01*
X252000Y118500D02*X250613Y119300D01*
X257000Y118500D02*Y116900D01*
Y118500D02*X258387Y119300D01*
X257000Y118500D02*X255613Y119300D01*
X271000Y139000D02*Y137400D01*
Y139000D02*X272387Y139800D01*
X271000Y139000D02*X269613Y139800D01*
X276500Y120000D02*Y118400D01*
Y120000D02*X277887Y120800D01*
X276500Y120000D02*X275113Y120800D01*
X227500Y177000D02*Y175400D01*
Y177000D02*X228887Y177800D01*
X227500Y177000D02*X226113Y177800D01*
X233500Y142000D02*Y140400D01*
Y142000D02*X234887Y142800D01*
X233500Y142000D02*X232113Y142800D01*
X198500Y163000D02*Y161400D01*
Y163000D02*X199887Y163800D01*
X198500Y163000D02*X197113Y163800D01*
X203000Y170500D02*Y168900D01*
Y170500D02*X204387Y171300D01*
X203000Y170500D02*X201613Y171300D01*
X219000Y159500D02*Y157900D01*
Y159500D02*X220387Y160300D01*
X219000Y159500D02*X217613Y160300D01*
X248000Y197000D02*Y195400D01*
Y197000D02*X249387Y197800D01*
X248000Y197000D02*X246613Y197800D01*
X252000Y197000D02*Y195400D01*
Y197000D02*X253387Y197800D01*
X252000Y197000D02*X250613Y197800D01*
X281000Y182500D02*Y180900D01*
Y182500D02*X282387Y183300D01*
X281000Y182500D02*X279613Y183300D01*
X281000Y224500D02*Y222900D01*
Y224500D02*X282387Y225300D01*
X281000Y224500D02*X279613Y225300D01*
X282000Y169500D02*Y167900D01*
Y169500D02*X283387Y170300D01*
X282000Y169500D02*X280613Y170300D01*
X264500Y114000D02*Y112400D01*
Y114000D02*X265887Y114800D01*
X264500Y114000D02*X263113Y114800D01*
X269500Y114000D02*Y112400D01*
Y114000D02*X270887Y114800D01*
X269500Y114000D02*X268113Y114800D01*
X219000Y143000D02*Y141400D01*
Y143000D02*X220387Y143800D01*
X219000Y143000D02*X217613Y143800D01*
X213000Y66000D02*Y64400D01*
Y66000D02*X214387Y66800D01*
X213000Y66000D02*X211613Y66800D01*
X227000Y163500D02*Y161900D01*
Y163500D02*X228387Y164300D01*
X227000Y163500D02*X225613Y164300D01*
X130000Y58000D02*Y56400D01*
Y58000D02*X131387Y58800D01*
X130000Y58000D02*X128613Y58800D01*
X207000Y66000D02*Y64400D01*
Y66000D02*X208387Y66800D01*
X207000Y66000D02*X205613Y66800D01*
X213000Y57000D02*Y55400D01*
Y57000D02*X214387Y57800D01*
X213000Y57000D02*X211613Y57800D01*
X207000Y57000D02*Y55400D01*
Y57000D02*X208387Y57800D01*
X207000Y57000D02*X205613Y57800D01*
X101500Y163000D02*Y161400D01*
Y163000D02*X102887Y163800D01*
X101500Y163000D02*X100113Y163800D01*
X105000Y159500D02*Y157900D01*
Y159500D02*X106387Y160300D01*
X105000Y159500D02*X103613Y160300D01*
X101500Y156000D02*Y154400D01*
Y156000D02*X102887Y156800D01*
X101500Y156000D02*X100113Y156800D01*
X105000Y152500D02*Y150900D01*
Y152500D02*X106387Y153300D01*
X105000Y152500D02*X103613Y153300D01*
X101500Y149000D02*Y147400D01*
Y149000D02*X102887Y149800D01*
X101500Y149000D02*X100113Y149800D01*
X82000Y168000D02*Y166400D01*
Y168000D02*X83387Y168800D01*
X82000Y168000D02*X80613Y168800D01*
X77000Y168000D02*Y166400D01*
Y168000D02*X78387Y168800D01*
X77000Y168000D02*X75613Y168800D01*
X72000Y168000D02*Y166400D01*
Y168000D02*X73387Y168800D01*
X72000Y168000D02*X70613Y168800D01*
X67000Y168000D02*Y166400D01*
Y168000D02*X68387Y168800D01*
X67000Y168000D02*X65613Y168800D01*
X62000Y168000D02*Y166400D01*
Y168000D02*X63387Y168800D01*
X62000Y168000D02*X60613Y168800D01*
X64500Y172500D02*Y170900D01*
Y172500D02*X65887Y173300D01*
X64500Y172500D02*X63113Y173300D01*
X87000Y173500D02*Y171900D01*
Y173500D02*X88387Y174300D01*
X87000Y173500D02*X85613Y174300D01*
X87000Y178000D02*Y176400D01*
Y178000D02*X88387Y178800D01*
X87000Y178000D02*X85613Y178800D01*
X87000Y182500D02*Y180900D01*
Y182500D02*X88387Y183300D01*
X87000Y182500D02*X85613Y183300D01*
X87000Y187000D02*Y185400D01*
Y187000D02*X88387Y187800D01*
X87000Y187000D02*X85613Y187800D01*
X87000Y191500D02*Y189900D01*
Y191500D02*X88387Y192300D01*
X87000Y191500D02*X85613Y192300D01*
X87000Y196000D02*Y194400D01*
Y196000D02*X88387Y196800D01*
X87000Y196000D02*X85613Y196800D01*
X328000Y244500D02*Y242900D01*
Y244500D02*X329387Y245300D01*
X328000Y244500D02*X326613Y245300D01*
X4500Y48000D02*Y46400D01*
Y48000D02*X5887Y48800D01*
X4500Y48000D02*X3113Y48800D01*
X55500Y48000D02*Y46400D01*
Y48000D02*X56887Y48800D01*
X55500Y48000D02*X54113Y48800D01*
X389000Y122500D02*Y120900D01*
Y122500D02*X390387Y123300D01*
X389000Y122500D02*X387613Y123300D01*
X394000Y126000D02*Y124400D01*
Y126000D02*X395387Y126800D01*
X394000Y126000D02*X392613Y126800D01*
X376000Y171000D02*Y169400D01*
Y171000D02*X377387Y171800D01*
X376000Y171000D02*X374613Y171800D01*
X372000Y164500D02*Y162900D01*
Y164500D02*X373387Y165300D01*
X372000Y164500D02*X370613Y165300D01*
X369000Y154500D02*Y152900D01*
Y154500D02*X370387Y155300D01*
X369000Y154500D02*X367613Y155300D01*
X365500Y144500D02*Y142900D01*
Y144500D02*X366887Y145300D01*
X365500Y144500D02*X364113Y145300D01*
X362500Y133000D02*Y131400D01*
Y133000D02*X363887Y133800D01*
X362500Y133000D02*X361113Y133800D01*
X355500Y133000D02*Y131400D01*
Y133000D02*X356887Y133800D01*
X355500Y133000D02*X354113Y133800D01*
X359000Y138000D02*Y136400D01*
Y138000D02*X360387Y138800D01*
X359000Y138000D02*X357613Y138800D01*
X385000Y139500D02*Y137900D01*
Y139500D02*X386387Y140300D01*
X385000Y139500D02*X383613Y140300D01*
X385000Y133500D02*Y131900D01*
Y133500D02*X386387Y134300D01*
X385000Y133500D02*X383613Y134300D01*
X380000Y139500D02*Y137900D01*
Y139500D02*X381387Y140300D01*
X380000Y139500D02*X378613Y140300D01*
X380000Y133500D02*Y131900D01*
Y133500D02*X381387Y134300D01*
X380000Y133500D02*X378613Y134300D01*
X364500Y181500D02*Y179900D01*
Y181500D02*X365887Y182300D01*
X364500Y181500D02*X363113Y182300D01*
X369500Y181500D02*Y179900D01*
Y181500D02*X370887Y182300D01*
X369500Y181500D02*X368113Y182300D01*
X374500Y181500D02*Y179900D01*
Y181500D02*X375887Y182300D01*
X374500Y181500D02*X373113Y182300D01*
X379500Y181500D02*Y179900D01*
Y181500D02*X380887Y182300D01*
X379500Y181500D02*X378113Y182300D01*
X364500Y150500D02*Y148900D01*
Y150500D02*X365887Y151300D01*
X364500Y150500D02*X363113Y151300D01*
X347500Y116000D02*Y114400D01*
Y116000D02*X348887Y116800D01*
X347500Y116000D02*X346113Y116800D01*
X357500Y116000D02*Y114400D01*
Y116000D02*X358887Y116800D01*
X357500Y116000D02*X356113Y116800D01*
X352500Y109500D02*Y107900D01*
Y109500D02*X353887Y110300D01*
X352500Y109500D02*X351113Y110300D01*
X347500Y104000D02*Y102400D01*
Y104000D02*X348887Y104800D01*
X347500Y104000D02*X346113Y104800D01*
X357500Y104000D02*Y102400D01*
Y104000D02*X358887Y104800D01*
X357500Y104000D02*X356113Y104800D01*
X382000Y116000D02*Y114400D01*
Y116000D02*X383387Y116800D01*
X382000Y116000D02*X380613Y116800D01*
X382000Y109500D02*Y107900D01*
Y109500D02*X383387Y110300D01*
X382000Y109500D02*X380613Y110300D01*
X382000Y103500D02*Y101900D01*
Y103500D02*X383387Y104300D01*
X382000Y103500D02*X380613Y104300D01*
X15000Y426250D02*Y424650D01*
Y426250D02*X16387Y427050D01*
X15000Y426250D02*X13613Y427050D01*
X135000Y428500D02*Y427750D01*
X136500Y426250D01*
X138000Y427750D01*
Y428500D02*Y427750D01*
X136500Y426250D02*Y422500D01*
X139800Y425500D02*X142050D01*
X139800Y422500D02*X142800D01*
X139800Y428500D02*Y422500D01*
Y428500D02*X142800D01*
X147600D02*X148350Y427750D01*
X145350Y428500D02*X147600D01*
X144600Y427750D02*X145350Y428500D01*
X144600Y427750D02*Y426250D01*
X145350Y425500D01*
X147600D01*
X148350Y424750D01*
Y423250D01*
X147600Y422500D02*X148350Y423250D01*
X145350Y422500D02*X147600D01*
X144600Y423250D02*X145350Y422500D01*
X98750D02*X100250D01*
X99500Y428500D02*Y422500D01*
X98000Y427000D02*X99500Y428500D01*
X102050Y423250D02*X102800Y422500D01*
X102050Y427750D02*Y423250D01*
Y427750D02*X102800Y428500D01*
X104300D01*
X105050Y427750D01*
Y423250D01*
X104300Y422500D02*X105050Y423250D01*
X102800Y422500D02*X104300D01*
X102050Y424000D02*X105050Y427000D01*
X106850Y422500D02*X109850Y425500D01*
Y427750D02*Y425500D01*
X109100Y428500D02*X109850Y427750D01*
X107600Y428500D02*X109100D01*
X106850Y427750D02*X107600Y428500D01*
X106850Y427750D02*Y426250D01*
X107600Y425500D01*
X109850D01*
X45000Y423250D02*X45750Y422500D01*
X45000Y427750D02*Y423250D01*
Y427750D02*X45750Y428500D01*
X47250D01*
X48000Y427750D01*
Y423250D01*
X47250Y422500D02*X48000Y423250D01*
X45750Y422500D02*X47250D01*
X45000Y424000D02*X48000Y427000D01*
X49800Y422500D02*X50550D01*
X52350Y423250D02*X53100Y422500D01*
X52350Y427750D02*Y423250D01*
Y427750D02*X53100Y428500D01*
X54600D01*
X55350Y427750D01*
Y423250D01*
X54600Y422500D02*X55350Y423250D01*
X53100Y422500D02*X54600D01*
X52350Y424000D02*X55350Y427000D01*
X57150Y427750D02*X57900Y428500D01*
X60150D01*
X60900Y427750D01*
Y426250D01*
X57150Y422500D02*X60900Y426250D01*
X57150Y422500D02*X60900D01*
X62700Y423250D02*X63450Y422500D01*
X62700Y427750D02*Y423250D01*
Y427750D02*X63450Y428500D01*
X64950D01*
X65700Y427750D01*
Y423250D01*
X64950Y422500D02*X65700Y423250D01*
X63450Y422500D02*X64950D01*
X62700Y424000D02*X65700Y427000D01*
X3000Y443500D02*X3750Y442750D01*
X750Y443500D02*X3000D01*
X0Y442750D02*X750Y443500D01*
X0Y442750D02*Y441250D01*
X750Y440500D01*
X3000D01*
X3750Y439750D01*
Y438250D01*
X3000Y437500D02*X3750Y438250D01*
X750Y437500D02*X3000D01*
X0Y438250D02*X750Y437500D01*
X5550Y440500D02*Y438250D01*
X6300Y437500D01*
X8550Y440500D02*Y436000D01*
X7800Y435250D02*X8550Y436000D01*
X6300Y435250D02*X7800D01*
X5550Y436000D02*X6300Y435250D01*
Y437500D02*X7800D01*
X8550Y438250D01*
X11100Y439750D02*Y437500D01*
Y439750D02*X11850Y440500D01*
X12600D01*
X13350Y439750D01*
Y437500D01*
Y439750D02*X14100Y440500D01*
X14850D01*
X15600Y439750D01*
Y437500D01*
X10350Y440500D02*X11100Y439750D01*
X17400Y443500D02*Y437500D01*
Y438250D02*X18150Y437500D01*
X19650D01*
X20400Y438250D01*
Y439750D02*Y438250D01*
X19650Y440500D02*X20400Y439750D01*
X18150Y440500D02*X19650D01*
X17400Y439750D02*X18150Y440500D01*
X22200Y439750D02*Y438250D01*
Y439750D02*X22950Y440500D01*
X24450D01*
X25200Y439750D01*
Y438250D01*
X24450Y437500D02*X25200Y438250D01*
X22950Y437500D02*X24450D01*
X22200Y438250D02*X22950Y437500D01*
X27000Y443500D02*Y438250D01*
X27750Y437500D01*
X0Y434250D02*X29250D01*
X41750Y443500D02*Y437500D01*
X44000Y443500D02*X44750Y442750D01*
Y438250D01*
X44000Y437500D02*X44750Y438250D01*
X41000Y437500D02*X44000D01*
X41000Y443500D02*X44000D01*
X46550Y442000D02*Y441250D01*
Y439750D02*Y437500D01*
X50300Y440500D02*X51050Y439750D01*
X48800Y440500D02*X50300D01*
X48050Y439750D02*X48800Y440500D01*
X48050Y439750D02*Y438250D01*
X48800Y437500D01*
X51050Y440500D02*Y438250D01*
X51800Y437500D01*
X48800D02*X50300D01*
X51050Y438250D01*
X54350Y439750D02*Y437500D01*
Y439750D02*X55100Y440500D01*
X55850D01*
X56600Y439750D01*
Y437500D01*
Y439750D02*X57350Y440500D01*
X58100D01*
X58850Y439750D01*
Y437500D01*
X53600Y440500D02*X54350Y439750D01*
X60650Y437500D02*X61400D01*
X65900Y438250D02*X66650Y437500D01*
X65900Y442750D02*X66650Y443500D01*
X65900Y442750D02*Y438250D01*
X68450Y443500D02*X69950D01*
X69200D02*Y437500D01*
X68450D02*X69950D01*
X72500Y439750D02*Y437500D01*
Y439750D02*X73250Y440500D01*
X74000D01*
X74750Y439750D01*
Y437500D01*
X71750Y440500D02*X72500Y439750D01*
X77300Y440500D02*X79550D01*
X76550Y439750D02*X77300Y440500D01*
X76550Y439750D02*Y438250D01*
X77300Y437500D01*
X79550D01*
X81350Y443500D02*Y437500D01*
Y439750D02*X82100Y440500D01*
X83600D01*
X84350Y439750D01*
Y437500D01*
X86150Y443500D02*X86900Y442750D01*
Y438250D01*
X86150Y437500D02*X86900Y438250D01*
X41000Y434250D02*X88700D01*
X95750Y437500D02*X98000D01*
X95000Y438250D02*X95750Y437500D01*
X95000Y442750D02*Y438250D01*
Y442750D02*X95750Y443500D01*
X98000D01*
X99800Y439750D02*Y438250D01*
Y439750D02*X100550Y440500D01*
X102050D01*
X102800Y439750D01*
Y438250D01*
X102050Y437500D02*X102800Y438250D01*
X100550Y437500D02*X102050D01*
X99800Y438250D02*X100550Y437500D01*
X104600Y440500D02*Y438250D01*
X105350Y437500D01*
X106850D01*
X107600Y438250D01*
Y440500D02*Y438250D01*
X110150Y439750D02*Y437500D01*
Y439750D02*X110900Y440500D01*
X111650D01*
X112400Y439750D01*
Y437500D01*
X109400Y440500D02*X110150Y439750D01*
X114950Y443500D02*Y438250D01*
X115700Y437500D01*
X114200Y441250D02*X115700D01*
X95000Y434250D02*X117200D01*
X130750Y443500D02*Y437500D01*
X130000Y443500D02*X133000D01*
X133750Y442750D01*
Y441250D01*
X133000Y440500D02*X133750Y441250D01*
X130750Y440500D02*X133000D01*
X135550Y443500D02*Y438250D01*
X136300Y437500D01*
X140050Y440500D02*X140800Y439750D01*
X138550Y440500D02*X140050D01*
X137800Y439750D02*X138550Y440500D01*
X137800Y439750D02*Y438250D01*
X138550Y437500D01*
X140800Y440500D02*Y438250D01*
X141550Y437500D01*
X138550D02*X140050D01*
X140800Y438250D01*
X144100Y443500D02*Y438250D01*
X144850Y437500D01*
X143350Y441250D02*X144850D01*
X147100Y437500D02*X149350D01*
X146350Y438250D02*X147100Y437500D01*
X146350Y439750D02*Y438250D01*
Y439750D02*X147100Y440500D01*
X148600D01*
X149350Y439750D01*
X146350Y439000D02*X149350D01*
Y439750D02*Y439000D01*
X154150Y443500D02*Y437500D01*
X153400D02*X154150Y438250D01*
X151900Y437500D02*X153400D01*
X151150Y438250D02*X151900Y437500D01*
X151150Y439750D02*Y438250D01*
Y439750D02*X151900Y440500D01*
X153400D01*
X154150Y439750D01*
X157450Y440500D02*Y439750D01*
Y438250D02*Y437500D01*
X155950Y442750D02*Y442000D01*
Y442750D02*X156700Y443500D01*
X158200D01*
X158950Y442750D01*
Y442000D01*
X157450Y440500D02*X158950Y442000D01*
X130000Y434250D02*X160750D01*
X0Y458500D02*X3000D01*
X1500D02*Y452500D01*
X4800Y458500D02*Y452500D01*
Y454750D02*X5550Y455500D01*
X7050D01*
X7800Y454750D01*
Y452500D01*
X10350D02*X12600D01*
X9600Y453250D02*X10350Y452500D01*
X9600Y454750D02*Y453250D01*
Y454750D02*X10350Y455500D01*
X11850D01*
X12600Y454750D01*
X9600Y454000D02*X12600D01*
Y454750D02*Y454000D01*
X15150Y454750D02*Y452500D01*
Y454750D02*X15900Y455500D01*
X17400D01*
X14400D02*X15150Y454750D01*
X19950Y452500D02*X22200D01*
X19200Y453250D02*X19950Y452500D01*
X19200Y454750D02*Y453250D01*
Y454750D02*X19950Y455500D01*
X21450D01*
X22200Y454750D01*
X19200Y454000D02*X22200D01*
Y454750D02*Y454000D01*
X28950Y455500D02*X29700Y454750D01*
X27450Y455500D02*X28950D01*
X26700Y454750D02*X27450Y455500D01*
X26700Y454750D02*Y453250D01*
X27450Y452500D01*
X29700Y455500D02*Y453250D01*
X30450Y452500D01*
X27450D02*X28950D01*
X29700Y453250D01*
X33000Y454750D02*Y452500D01*
Y454750D02*X33750Y455500D01*
X35250D01*
X32250D02*X33000Y454750D01*
X37800Y452500D02*X40050D01*
X37050Y453250D02*X37800Y452500D01*
X37050Y454750D02*Y453250D01*
Y454750D02*X37800Y455500D01*
X39300D01*
X40050Y454750D01*
X37050Y454000D02*X40050D01*
Y454750D02*Y454000D01*
X45300Y452500D02*X46800D01*
X46050Y458500D02*Y452500D01*
X44550Y457000D02*X46050Y458500D01*
X48600Y457750D02*X49350Y458500D01*
X51600D01*
X52350Y457750D01*
Y456250D01*
X48600Y452500D02*X52350Y456250D01*
X48600Y452500D02*X52350D01*
X59850Y458500D02*Y452500D01*
X59100D02*X59850Y453250D01*
X57600Y452500D02*X59100D01*
X56850Y453250D02*X57600Y452500D01*
X56850Y454750D02*Y453250D01*
Y454750D02*X57600Y455500D01*
X59100D01*
X59850Y454750D01*
X61650Y457000D02*Y456250D01*
Y454750D02*Y452500D01*
X63900Y457750D02*Y452500D01*
Y457750D02*X64650Y458500D01*
X65400D01*
X63150Y455500D02*X64650D01*
X67650Y457750D02*Y452500D01*
Y457750D02*X68400Y458500D01*
X69150D01*
X66900Y455500D02*X68400D01*
X71400Y452500D02*X73650D01*
X70650Y453250D02*X71400Y452500D01*
X70650Y454750D02*Y453250D01*
Y454750D02*X71400Y455500D01*
X72900D01*
X73650Y454750D01*
X70650Y454000D02*X73650D01*
Y454750D02*Y454000D01*
X76200Y454750D02*Y452500D01*
Y454750D02*X76950Y455500D01*
X78450D01*
X75450D02*X76200Y454750D01*
X81000Y452500D02*X83250D01*
X80250Y453250D02*X81000Y452500D01*
X80250Y454750D02*Y453250D01*
Y454750D02*X81000Y455500D01*
X82500D01*
X83250Y454750D01*
X80250Y454000D02*X83250D01*
Y454750D02*Y454000D01*
X85800Y454750D02*Y452500D01*
Y454750D02*X86550Y455500D01*
X87300D01*
X88050Y454750D01*
Y452500D01*
X85050Y455500D02*X85800Y454750D01*
X90600Y458500D02*Y453250D01*
X91350Y452500D01*
X89850Y456250D02*X91350D01*
X98550Y458500D02*Y452500D01*
X97800D02*X98550Y453250D01*
X96300Y452500D02*X97800D01*
X95550Y453250D02*X96300Y452500D01*
X95550Y454750D02*Y453250D01*
Y454750D02*X96300Y455500D01*
X97800D01*
X98550Y454750D01*
X101100D02*Y452500D01*
Y454750D02*X101850Y455500D01*
X103350D01*
X100350D02*X101100Y454750D01*
X105150Y457000D02*Y456250D01*
Y454750D02*Y452500D01*
X106650Y458500D02*Y453250D01*
X107400Y452500D01*
X108900Y458500D02*Y453250D01*
X109650Y452500D01*
X114600D02*X116850D01*
X117600Y453250D01*
X116850Y454000D02*X117600Y453250D01*
X114600Y454000D02*X116850D01*
X113850Y454750D02*X114600Y454000D01*
X113850Y454750D02*X114600Y455500D01*
X116850D01*
X117600Y454750D01*
X113850Y453250D02*X114600Y452500D01*
X119400Y457000D02*Y456250D01*
Y454750D02*Y452500D01*
X120900Y455500D02*X123900D01*
X120900Y452500D02*X123900Y455500D01*
X120900Y452500D02*X123900D01*
X126450D02*X128700D01*
X125700Y453250D02*X126450Y452500D01*
X125700Y454750D02*Y453250D01*
Y454750D02*X126450Y455500D01*
X127950D01*
X128700Y454750D01*
X125700Y454000D02*X128700D01*
Y454750D02*Y454000D01*
X131250Y452500D02*X133500D01*
X134250Y453250D01*
X133500Y454000D02*X134250Y453250D01*
X131250Y454000D02*X133500D01*
X130500Y454750D02*X131250Y454000D01*
X130500Y454750D02*X131250Y455500D01*
X133500D01*
X134250Y454750D01*
X130500Y453250D02*X131250Y452500D01*
X138750Y455500D02*Y453250D01*
X139500Y452500D01*
X141000D01*
X141750Y453250D01*
Y455500D02*Y453250D01*
X144300Y452500D02*X146550D01*
X147300Y453250D01*
X146550Y454000D02*X147300Y453250D01*
X144300Y454000D02*X146550D01*
X143550Y454750D02*X144300Y454000D01*
X143550Y454750D02*X144300Y455500D01*
X146550D01*
X147300Y454750D01*
X143550Y453250D02*X144300Y452500D01*
X149850D02*X152100D01*
X149100Y453250D02*X149850Y452500D01*
X149100Y454750D02*Y453250D01*
Y454750D02*X149850Y455500D01*
X151350D01*
X152100Y454750D01*
X149100Y454000D02*X152100D01*
Y454750D02*Y454000D01*
X156900Y458500D02*Y452500D01*
X156150D02*X156900Y453250D01*
X154650Y452500D02*X156150D01*
X153900Y453250D02*X154650Y452500D01*
X153900Y454750D02*Y453250D01*
Y454750D02*X154650Y455500D01*
X156150D01*
X156900Y454750D01*
X161400Y457000D02*Y456250D01*
Y454750D02*Y452500D01*
X163650Y454750D02*Y452500D01*
Y454750D02*X164400Y455500D01*
X165150D01*
X165900Y454750D01*
Y452500D01*
X162900Y455500D02*X163650Y454750D01*
X171150Y458500D02*Y453250D01*
X171900Y452500D01*
X170400Y456250D02*X171900D01*
X173400Y458500D02*Y452500D01*
Y454750D02*X174150Y455500D01*
X175650D01*
X176400Y454750D01*
Y452500D01*
X178200Y457000D02*Y456250D01*
Y454750D02*Y452500D01*
X180450D02*X182700D01*
X183450Y453250D01*
X182700Y454000D02*X183450Y453250D01*
X180450Y454000D02*X182700D01*
X179700Y454750D02*X180450Y454000D01*
X179700Y454750D02*X180450Y455500D01*
X182700D01*
X183450Y454750D01*
X179700Y453250D02*X180450Y452500D01*
X187950Y458500D02*Y453250D01*
X188700Y452500D01*
X192450Y455500D02*X193200Y454750D01*
X190950Y455500D02*X192450D01*
X190200Y454750D02*X190950Y455500D01*
X190200Y454750D02*Y453250D01*
X190950Y452500D01*
X193200Y455500D02*Y453250D01*
X193950Y452500D01*
X190950D02*X192450D01*
X193200Y453250D01*
X195750Y455500D02*Y453250D01*
X196500Y452500D01*
X198750Y455500D02*Y451000D01*
X198000Y450250D02*X198750Y451000D01*
X196500Y450250D02*X198000D01*
X195750Y451000D02*X196500Y450250D01*
Y452500D02*X198000D01*
X198750Y453250D01*
X200550Y454750D02*Y453250D01*
Y454750D02*X201300Y455500D01*
X202800D01*
X203550Y454750D01*
Y453250D01*
X202800Y452500D02*X203550Y453250D01*
X201300Y452500D02*X202800D01*
X200550Y453250D02*X201300Y452500D01*
X205350Y455500D02*Y453250D01*
X206100Y452500D01*
X207600D01*
X208350Y453250D01*
Y455500D02*Y453250D01*
X210900Y458500D02*Y453250D01*
X211650Y452500D01*
X210150Y456250D02*X211650D01*
X213150Y451000D02*X214650Y452500D01*
X219150Y457750D02*X219900Y458500D01*
X222150D01*
X222900Y457750D01*
Y456250D01*
X219150Y452500D02*X222900Y456250D01*
X219150Y452500D02*X222900D01*
X225450D02*X226950D01*
X226200Y458500D02*Y452500D01*
X224700Y457000D02*X226200Y458500D01*
X228750Y453250D02*X229500Y452500D01*
X228750Y457750D02*Y453250D01*
Y457750D02*X229500Y458500D01*
X231000D01*
X231750Y457750D01*
Y453250D01*
X231000Y452500D02*X231750Y453250D01*
X229500Y452500D02*X231000D01*
X228750Y454000D02*X231750Y457000D01*
X236250Y458500D02*Y452500D01*
Y454750D02*X237000Y455500D01*
X238500D01*
X239250Y454750D01*
Y452500D01*
X241050Y454750D02*Y453250D01*
Y454750D02*X241800Y455500D01*
X243300D01*
X244050Y454750D01*
Y453250D01*
X243300Y452500D02*X244050Y453250D01*
X241800Y452500D02*X243300D01*
X241050Y453250D02*X241800Y452500D01*
X245850Y458500D02*Y453250D01*
X246600Y452500D01*
X248850D02*X251100D01*
X248100Y453250D02*X248850Y452500D01*
X248100Y454750D02*Y453250D01*
Y454750D02*X248850Y455500D01*
X250350D01*
X251100Y454750D01*
X248100Y454000D02*X251100D01*
Y454750D02*Y454000D01*
X253650Y452500D02*X255900D01*
X256650Y453250D01*
X255900Y454000D02*X256650Y453250D01*
X253650Y454000D02*X255900D01*
X252900Y454750D02*X253650Y454000D01*
X252900Y454750D02*X253650Y455500D01*
X255900D01*
X256650Y454750D01*
X252900Y453250D02*X253650Y452500D01*
X261900Y458500D02*Y453250D01*
X262650Y452500D01*
X261150Y456250D02*X262650D01*
X264150Y454750D02*Y453250D01*
Y454750D02*X264900Y455500D01*
X266400D01*
X267150Y454750D01*
Y453250D01*
X266400Y452500D02*X267150Y453250D01*
X264900Y452500D02*X266400D01*
X264150Y453250D02*X264900Y452500D01*
X269700Y458500D02*Y453250D01*
X270450Y452500D01*
X268950Y456250D02*X270450D01*
X274200Y455500D02*X274950Y454750D01*
X272700Y455500D02*X274200D01*
X271950Y454750D02*X272700Y455500D01*
X271950Y454750D02*Y453250D01*
X272700Y452500D01*
X274950Y455500D02*Y453250D01*
X275700Y452500D01*
X272700D02*X274200D01*
X274950Y453250D01*
X277500Y458500D02*Y453250D01*
X278250Y452500D01*
G54D141*X0Y250000D02*X400000D01*
X0D02*Y0D01*
X400000Y250000D02*Y0D01*
X0D02*X400000D01*
G54D140*X200000Y263500D02*Y257500D01*
Y263500D02*X202250Y261250D01*
X204500Y263500D01*
Y257500D01*
X208550Y260500D02*X209300Y259750D01*
X207050Y260500D02*X208550D01*
X206300Y259750D02*X207050Y260500D01*
X206300Y259750D02*Y258250D01*
X207050Y257500D01*
X209300Y260500D02*Y258250D01*
X210050Y257500D01*
X207050D02*X208550D01*
X209300Y258250D01*
X211850Y260500D02*X214850Y257500D01*
X211850D02*X214850Y260500D01*
X216650Y262000D02*Y261250D01*
Y259750D02*Y257500D01*
X218900Y259750D02*Y257500D01*
Y259750D02*X219650Y260500D01*
X220400D01*
X221150Y259750D01*
Y257500D01*
Y259750D02*X221900Y260500D01*
X222650D01*
X223400Y259750D01*
Y257500D01*
X218150Y260500D02*X218900Y259750D01*
X225200Y260500D02*Y258250D01*
X225950Y257500D01*
X227450D01*
X228200Y258250D01*
Y260500D02*Y258250D01*
X230750Y259750D02*Y257500D01*
Y259750D02*X231500Y260500D01*
X232250D01*
X233000Y259750D01*
Y257500D01*
Y259750D02*X233750Y260500D01*
X234500D01*
X235250Y259750D01*
Y257500D01*
X230000Y260500D02*X230750Y259750D01*
X240500Y263500D02*Y257500D01*
X242750Y263500D02*X243500Y262750D01*
Y258250D01*
X242750Y257500D02*X243500Y258250D01*
X239750Y257500D02*X242750D01*
X239750Y263500D02*X242750D01*
X245300Y262000D02*Y261250D01*
Y259750D02*Y257500D01*
X247550Y259750D02*Y257500D01*
Y259750D02*X248300Y260500D01*
X249050D01*
X249800Y259750D01*
Y257500D01*
Y259750D02*X250550Y260500D01*
X251300D01*
X252050Y259750D01*
Y257500D01*
X246800Y260500D02*X247550Y259750D01*
X254600Y257500D02*X256850D01*
X253850Y258250D02*X254600Y257500D01*
X253850Y259750D02*Y258250D01*
Y259750D02*X254600Y260500D01*
X256100D01*
X256850Y259750D01*
X253850Y259000D02*X256850D01*
Y259750D02*Y259000D01*
X259400Y259750D02*Y257500D01*
Y259750D02*X260150Y260500D01*
X260900D01*
X261650Y259750D01*
Y257500D01*
X258650Y260500D02*X259400Y259750D01*
X264200Y257500D02*X266450D01*
X267200Y258250D01*
X266450Y259000D02*X267200Y258250D01*
X264200Y259000D02*X266450D01*
X263450Y259750D02*X264200Y259000D01*
X263450Y259750D02*X264200Y260500D01*
X266450D01*
X267200Y259750D01*
X263450Y258250D02*X264200Y257500D01*
X269000Y262000D02*Y261250D01*
Y259750D02*Y257500D01*
X270500Y259750D02*Y258250D01*
Y259750D02*X271250Y260500D01*
X272750D01*
X273500Y259750D01*
Y258250D01*
X272750Y257500D02*X273500Y258250D01*
X271250Y257500D02*X272750D01*
X270500Y258250D02*X271250Y257500D01*
X276050Y259750D02*Y257500D01*
Y259750D02*X276800Y260500D01*
X277550D01*
X278300Y259750D01*
Y257500D01*
X275300Y260500D02*X276050Y259750D01*
X280850Y257500D02*X283100D01*
X283850Y258250D01*
X283100Y259000D02*X283850Y258250D01*
X280850Y259000D02*X283100D01*
X280100Y259750D02*X280850Y259000D01*
X280100Y259750D02*X280850Y260500D01*
X283100D01*
X283850Y259750D01*
X280100Y258250D02*X280850Y257500D01*
X285650Y261250D02*X286400D01*
X285650Y259750D02*X286400D01*
X290900Y260500D02*X293900Y263500D01*
X290900Y260500D02*X294650D01*
X293900Y263500D02*Y257500D01*
X296450Y258250D02*X297200Y257500D01*
X296450Y262750D02*Y258250D01*
Y262750D02*X297200Y263500D01*
X298700D01*
X299450Y262750D01*
Y258250D01*
X298700Y257500D02*X299450Y258250D01*
X297200Y257500D02*X298700D01*
X296450Y259000D02*X299450Y262000D01*
X301250Y258250D02*X302000Y257500D01*
X301250Y262750D02*Y258250D01*
Y262750D02*X302000Y263500D01*
X303500D01*
X304250Y262750D01*
Y258250D01*
X303500Y257500D02*X304250Y258250D01*
X302000Y257500D02*X303500D01*
X301250Y259000D02*X304250Y262000D01*
X306050Y258250D02*X306800Y257500D01*
X306050Y262750D02*Y258250D01*
Y262750D02*X306800Y263500D01*
X308300D01*
X309050Y262750D01*
Y258250D01*
X308300Y257500D02*X309050Y258250D01*
X306800Y257500D02*X308300D01*
X306050Y259000D02*X309050Y262000D01*
X310850Y257500D02*X311600D01*
X313400Y258250D02*X314150Y257500D01*
X313400Y262750D02*Y258250D01*
Y262750D02*X314150Y263500D01*
X315650D01*
X316400Y262750D01*
Y258250D01*
X315650Y257500D02*X316400Y258250D01*
X314150Y257500D02*X315650D01*
X313400Y259000D02*X316400Y262000D01*
X318200Y258250D02*X318950Y257500D01*
X318200Y262750D02*Y258250D01*
Y262750D02*X318950Y263500D01*
X320450D01*
X321200Y262750D01*
Y258250D01*
X320450Y257500D02*X321200Y258250D01*
X318950Y257500D02*X320450D01*
X318200Y259000D02*X321200Y262000D01*
X323000Y258250D02*X323750Y257500D01*
X323000Y262750D02*Y258250D01*
Y262750D02*X323750Y263500D01*
X325250D01*
X326000Y262750D01*
Y258250D01*
X325250Y257500D02*X326000Y258250D01*
X323750Y257500D02*X325250D01*
X323000Y259000D02*X326000Y262000D01*
X327800Y258250D02*X328550Y257500D01*
X327800Y262750D02*Y258250D01*
Y262750D02*X328550Y263500D01*
X330050D01*
X330800Y262750D01*
Y258250D01*
X330050Y257500D02*X330800Y258250D01*
X328550Y257500D02*X330050D01*
X327800Y259000D02*X330800Y262000D01*
X332600Y258250D02*X333350Y257500D01*
X332600Y262750D02*Y258250D01*
Y262750D02*X333350Y263500D01*
X334850D01*
X335600Y262750D01*
Y258250D01*
X334850Y257500D02*X335600Y258250D01*
X333350Y257500D02*X334850D01*
X332600Y259000D02*X335600Y262000D01*
X337400Y258250D02*X338150Y257500D01*
X337400Y262750D02*Y258250D01*
Y262750D02*X338150Y263500D01*
X339650D01*
X340400Y262750D01*
Y258250D01*
X339650Y257500D02*X340400Y258250D01*
X338150Y257500D02*X339650D01*
X337400Y259000D02*X340400Y262000D01*
X345650Y259750D02*Y257500D01*
Y259750D02*X346400Y260500D01*
X347150D01*
X347900Y259750D01*
Y257500D01*
Y259750D02*X348650Y260500D01*
X349400D01*
X350150Y259750D01*
Y257500D01*
X344900Y260500D02*X345650Y259750D01*
X351950Y262000D02*Y261250D01*
Y259750D02*Y257500D01*
X353450Y263500D02*Y258250D01*
X354200Y257500D01*
X356450D02*X358700D01*
X359450Y258250D01*
X358700Y259000D02*X359450Y258250D01*
X356450Y259000D02*X358700D01*
X355700Y259750D02*X356450Y259000D01*
X355700Y259750D02*X356450Y260500D01*
X358700D01*
X359450Y259750D01*
X355700Y258250D02*X356450Y257500D01*
X363950Y260500D02*Y258250D01*
X364700Y257500D01*
X365450D01*
X366200Y258250D01*
Y260500D02*Y258250D01*
X366950Y257500D01*
X367700D01*
X368450Y258250D01*
Y260500D02*Y258250D01*
X370250Y262000D02*Y261250D01*
Y259750D02*Y257500D01*
X374750Y263500D02*Y257500D01*
X374000D02*X374750Y258250D01*
X372500Y257500D02*X374000D01*
X371750Y258250D02*X372500Y257500D01*
X371750Y259750D02*Y258250D01*
Y259750D02*X372500Y260500D01*
X374000D01*
X374750Y259750D01*
X377300Y257500D02*X379550D01*
X376550Y258250D02*X377300Y257500D01*
X376550Y259750D02*Y258250D01*
Y259750D02*X377300Y260500D01*
X378800D01*
X379550Y259750D01*
X376550Y259000D02*X379550D01*
Y259750D02*Y259000D01*
X381350Y256000D02*X382850Y257500D01*
X387350Y262750D02*X388100Y263500D01*
X390350D01*
X391100Y262750D01*
Y261250D01*
X387350Y257500D02*X391100Y261250D01*
X387350Y257500D02*X391100D01*
X392900Y263500D02*X395900D01*
X392900D02*Y260500D01*
X393650Y261250D01*
X395150D01*
X395900Y260500D01*
Y258250D01*
X395150Y257500D02*X395900Y258250D01*
X393650Y257500D02*X395150D01*
X392900Y258250D02*X393650Y257500D01*
X397700Y258250D02*X398450Y257500D01*
X397700Y262750D02*Y258250D01*
Y262750D02*X398450Y263500D01*
X399950D01*
X400700Y262750D01*
Y258250D01*
X399950Y257500D02*X400700Y258250D01*
X398450Y257500D02*X399950D01*
X397700Y259000D02*X400700Y262000D01*
X402500Y258250D02*X403250Y257500D01*
X402500Y262750D02*Y258250D01*
Y262750D02*X403250Y263500D01*
X404750D01*
X405500Y262750D01*
Y258250D01*
X404750Y257500D02*X405500Y258250D01*
X403250Y257500D02*X404750D01*
X402500Y259000D02*X405500Y262000D01*
X407300Y257500D02*X408050D01*
X409850Y258250D02*X410600Y257500D01*
X409850Y262750D02*Y258250D01*
Y262750D02*X410600Y263500D01*
X412100D01*
X412850Y262750D01*
Y258250D01*
X412100Y257500D02*X412850Y258250D01*
X410600Y257500D02*X412100D01*
X409850Y259000D02*X412850Y262000D01*
X414650Y258250D02*X415400Y257500D01*
X414650Y262750D02*Y258250D01*
Y262750D02*X415400Y263500D01*
X416900D01*
X417650Y262750D01*
Y258250D01*
X416900Y257500D02*X417650Y258250D01*
X415400Y257500D02*X416900D01*
X414650Y259000D02*X417650Y262000D01*
X419450Y258250D02*X420200Y257500D01*
X419450Y262750D02*Y258250D01*
Y262750D02*X420200Y263500D01*
X421700D01*
X422450Y262750D01*
Y258250D01*
X421700Y257500D02*X422450Y258250D01*
X420200Y257500D02*X421700D01*
X419450Y259000D02*X422450Y262000D01*
X424250Y258250D02*X425000Y257500D01*
X424250Y262750D02*Y258250D01*
Y262750D02*X425000Y263500D01*
X426500D01*
X427250Y262750D01*
Y258250D01*
X426500Y257500D02*X427250Y258250D01*
X425000Y257500D02*X426500D01*
X424250Y259000D02*X427250Y262000D01*
X429050Y258250D02*X429800Y257500D01*
X429050Y262750D02*Y258250D01*
Y262750D02*X429800Y263500D01*
X431300D01*
X432050Y262750D01*
Y258250D01*
X431300Y257500D02*X432050Y258250D01*
X429800Y257500D02*X431300D01*
X429050Y259000D02*X432050Y262000D01*
X433850Y258250D02*X434600Y257500D01*
X433850Y262750D02*Y258250D01*
Y262750D02*X434600Y263500D01*
X436100D01*
X436850Y262750D01*
Y258250D01*
X436100Y257500D02*X436850Y258250D01*
X434600Y257500D02*X436100D01*
X433850Y259000D02*X436850Y262000D01*
X442100Y259750D02*Y257500D01*
Y259750D02*X442850Y260500D01*
X443600D01*
X444350Y259750D01*
Y257500D01*
Y259750D02*X445100Y260500D01*
X445850D01*
X446600Y259750D01*
Y257500D01*
X441350Y260500D02*X442100Y259750D01*
X448400Y262000D02*Y261250D01*
Y259750D02*Y257500D01*
X449900Y263500D02*Y258250D01*
X450650Y257500D01*
X452900D02*X455150D01*
X455900Y258250D01*
X455150Y259000D02*X455900Y258250D01*
X452900Y259000D02*X455150D01*
X452150Y259750D02*X452900Y259000D01*
X452150Y259750D02*X452900Y260500D01*
X455150D01*
X455900Y259750D01*
X452150Y258250D02*X452900Y257500D01*
X460400Y263500D02*Y257500D01*
Y259750D02*X461150Y260500D01*
X462650D01*
X463400Y259750D01*
Y257500D01*
X465200Y262000D02*Y261250D01*
Y259750D02*Y257500D01*
X468950Y260500D02*X469700Y259750D01*
X467450Y260500D02*X468950D01*
X466700Y259750D02*X467450Y260500D01*
X466700Y259750D02*Y258250D01*
X467450Y257500D01*
X468950D01*
X469700Y258250D01*
X466700Y256000D02*X467450Y255250D01*
X468950D01*
X469700Y256000D01*
Y260500D02*Y256000D01*
X471500Y263500D02*Y257500D01*
Y259750D02*X472250Y260500D01*
X473750D01*
X474500Y259750D01*
Y257500D01*
X0Y-9500D02*X3000D01*
X3750Y-8750D01*
Y-7250D02*Y-8750D01*
X3000Y-6500D02*X3750Y-7250D01*
X750Y-6500D02*X3000D01*
X750Y-3500D02*Y-9500D01*
X0Y-3500D02*X3000D01*
X3750Y-4250D01*
Y-5750D01*
X3000Y-6500D02*X3750Y-5750D01*
X5550Y-7250D02*Y-8750D01*
Y-7250D02*X6300Y-6500D01*
X7800D01*
X8550Y-7250D01*
Y-8750D01*
X7800Y-9500D02*X8550Y-8750D01*
X6300Y-9500D02*X7800D01*
X5550Y-8750D02*X6300Y-9500D01*
X12600Y-6500D02*X13350Y-7250D01*
X11100Y-6500D02*X12600D01*
X10350Y-7250D02*X11100Y-6500D01*
X10350Y-7250D02*Y-8750D01*
X11100Y-9500D01*
X13350Y-6500D02*Y-8750D01*
X14100Y-9500D01*
X11100D02*X12600D01*
X13350Y-8750D01*
X16650Y-7250D02*Y-9500D01*
Y-7250D02*X17400Y-6500D01*
X18900D01*
X15900D02*X16650Y-7250D01*
X23700Y-3500D02*Y-9500D01*
X22950D02*X23700Y-8750D01*
X21450Y-9500D02*X22950D01*
X20700Y-8750D02*X21450Y-9500D01*
X20700Y-7250D02*Y-8750D01*
Y-7250D02*X21450Y-6500D01*
X22950D01*
X23700Y-7250D01*
X28200D02*Y-8750D01*
Y-7250D02*X28950Y-6500D01*
X30450D01*
X31200Y-7250D01*
Y-8750D01*
X30450Y-9500D02*X31200Y-8750D01*
X28950Y-9500D02*X30450D01*
X28200Y-8750D02*X28950Y-9500D01*
X33000Y-6500D02*Y-8750D01*
X33750Y-9500D01*
X35250D01*
X36000Y-8750D01*
Y-6500D02*Y-8750D01*
X38550Y-3500D02*Y-8750D01*
X39300Y-9500D01*
X37800Y-5750D02*X39300D01*
X40800Y-3500D02*Y-8750D01*
X41550Y-9500D01*
X43050Y-5000D02*Y-5750D01*
Y-7250D02*Y-9500D01*
X45300Y-7250D02*Y-9500D01*
Y-7250D02*X46050Y-6500D01*
X46800D01*
X47550Y-7250D01*
Y-9500D01*
X44550Y-6500D02*X45300Y-7250D01*
X50100Y-9500D02*X52350D01*
X49350Y-8750D02*X50100Y-9500D01*
X49350Y-7250D02*Y-8750D01*
Y-7250D02*X50100Y-6500D01*
X51600D01*
X52350Y-7250D01*
X49350Y-8000D02*X52350D01*
Y-7250D02*Y-8000D01*
X56850Y-5000D02*Y-5750D01*
Y-7250D02*Y-9500D01*
X59100D02*X61350D01*
X62100Y-8750D01*
X61350Y-8000D02*X62100Y-8750D01*
X59100Y-8000D02*X61350D01*
X58350Y-7250D02*X59100Y-8000D01*
X58350Y-7250D02*X59100Y-6500D01*
X61350D01*
X62100Y-7250D01*
X58350Y-8750D02*X59100Y-9500D01*
X67350Y-3500D02*Y-8750D01*
X68100Y-9500D01*
X66600Y-5750D02*X68100D01*
X69600Y-3500D02*Y-9500D01*
Y-7250D02*X70350Y-6500D01*
X71850D01*
X72600Y-7250D01*
Y-9500D01*
X75150D02*X77400D01*
X74400Y-8750D02*X75150Y-9500D01*
X74400Y-7250D02*Y-8750D01*
Y-7250D02*X75150Y-6500D01*
X76650D01*
X77400Y-7250D01*
X74400Y-8000D02*X77400D01*
Y-7250D02*Y-8000D01*
X82650Y-6500D02*X84900D01*
X81900Y-7250D02*X82650Y-6500D01*
X81900Y-7250D02*Y-8750D01*
X82650Y-9500D01*
X84900D01*
X87450D02*X89700D01*
X86700Y-8750D02*X87450Y-9500D01*
X86700Y-7250D02*Y-8750D01*
Y-7250D02*X87450Y-6500D01*
X88950D01*
X89700Y-7250D01*
X86700Y-8000D02*X89700D01*
Y-7250D02*Y-8000D01*
X92250Y-7250D02*Y-9500D01*
Y-7250D02*X93000Y-6500D01*
X93750D01*
X94500Y-7250D01*
Y-9500D01*
X91500Y-6500D02*X92250Y-7250D01*
X97050Y-3500D02*Y-8750D01*
X97800Y-9500D01*
X96300Y-5750D02*X97800D01*
X100050Y-9500D02*X102300D01*
X99300Y-8750D02*X100050Y-9500D01*
X99300Y-7250D02*Y-8750D01*
Y-7250D02*X100050Y-6500D01*
X101550D01*
X102300Y-7250D01*
X99300Y-8000D02*X102300D01*
Y-7250D02*Y-8000D01*
X104850Y-7250D02*Y-9500D01*
Y-7250D02*X105600Y-6500D01*
X107100D01*
X104100D02*X104850Y-7250D01*
X108900Y-3500D02*Y-8750D01*
X109650Y-9500D01*
X111150Y-5000D02*Y-5750D01*
Y-7250D02*Y-9500D01*
X113400Y-7250D02*Y-9500D01*
Y-7250D02*X114150Y-6500D01*
X114900D01*
X115650Y-7250D01*
Y-9500D01*
X112650Y-6500D02*X113400Y-7250D01*
X118200Y-9500D02*X120450D01*
X117450Y-8750D02*X118200Y-9500D01*
X117450Y-7250D02*Y-8750D01*
Y-7250D02*X118200Y-6500D01*
X119700D01*
X120450Y-7250D01*
X117450Y-8000D02*X120450D01*
Y-7250D02*Y-8000D01*
X124950Y-7250D02*Y-8750D01*
Y-7250D02*X125700Y-6500D01*
X127200D01*
X127950Y-7250D01*
Y-8750D01*
X127200Y-9500D02*X127950Y-8750D01*
X125700Y-9500D02*X127200D01*
X124950Y-8750D02*X125700Y-9500D01*
X130500Y-4250D02*Y-9500D01*
Y-4250D02*X131250Y-3500D01*
X132000D01*
X129750Y-6500D02*X131250D01*
X136950Y-3500D02*Y-8750D01*
X137700Y-9500D01*
X136200Y-5750D02*X137700D01*
X139200Y-3500D02*Y-9500D01*
Y-7250D02*X139950Y-6500D01*
X141450D01*
X142200Y-7250D01*
Y-9500D01*
X144000Y-5000D02*Y-5750D01*
Y-7250D02*Y-9500D01*
X146250D02*X148500D01*
X149250Y-8750D01*
X148500Y-8000D02*X149250Y-8750D01*
X146250Y-8000D02*X148500D01*
X145500Y-7250D02*X146250Y-8000D01*
X145500Y-7250D02*X146250Y-6500D01*
X148500D01*
X149250Y-7250D01*
X145500Y-8750D02*X146250Y-9500D01*
X153750Y-8750D02*X154500Y-9500D01*
X153750Y-7250D02*Y-8750D01*
Y-7250D02*X154500Y-6500D01*
X156000D01*
X156750Y-7250D01*
Y-8750D01*
X156000Y-9500D02*X156750Y-8750D01*
X154500Y-9500D02*X156000D01*
X153750Y-5750D02*X154500Y-6500D01*
X153750Y-4250D02*Y-5750D01*
Y-4250D02*X154500Y-3500D01*
X156000D01*
X156750Y-4250D01*
Y-5750D01*
X156000Y-6500D02*X156750Y-5750D01*
X158550Y-9500D02*X159300D01*
X161100Y-8750D02*X161850Y-9500D01*
X161100Y-4250D02*Y-8750D01*
Y-4250D02*X161850Y-3500D01*
X163350D01*
X164100Y-4250D01*
Y-8750D01*
X163350Y-9500D02*X164100Y-8750D01*
X161850Y-9500D02*X163350D01*
X161100Y-8000D02*X164100Y-5000D01*
X165900Y-8750D02*X166650Y-9500D01*
X165900Y-4250D02*Y-8750D01*
Y-4250D02*X166650Y-3500D01*
X168150D01*
X168900Y-4250D01*
Y-8750D01*
X168150Y-9500D02*X168900Y-8750D01*
X166650Y-9500D02*X168150D01*
X165900Y-8000D02*X168900Y-5000D01*
X170700Y-8750D02*X171450Y-9500D01*
X170700Y-4250D02*Y-8750D01*
Y-4250D02*X171450Y-3500D01*
X172950D01*
X173700Y-4250D01*
Y-8750D01*
X172950Y-9500D02*X173700Y-8750D01*
X171450Y-9500D02*X172950D01*
X170700Y-8000D02*X173700Y-5000D01*
X175500Y-8750D02*X176250Y-9500D01*
X175500Y-4250D02*Y-8750D01*
Y-4250D02*X176250Y-3500D01*
X177750D01*
X178500Y-4250D01*
Y-8750D01*
X177750Y-9500D02*X178500Y-8750D01*
X176250Y-9500D02*X177750D01*
X175500Y-8000D02*X178500Y-5000D01*
X180300Y-8750D02*X181050Y-9500D01*
X180300Y-4250D02*Y-8750D01*
Y-4250D02*X181050Y-3500D01*
X182550D01*
X183300Y-4250D01*
Y-8750D01*
X182550Y-9500D02*X183300Y-8750D01*
X181050Y-9500D02*X182550D01*
X180300Y-8000D02*X183300Y-5000D01*
X185100Y-8750D02*X185850Y-9500D01*
X185100Y-4250D02*Y-8750D01*
Y-4250D02*X185850Y-3500D01*
X187350D01*
X188100Y-4250D01*
Y-8750D01*
X187350Y-9500D02*X188100Y-8750D01*
X185850Y-9500D02*X187350D01*
X185100Y-8000D02*X188100Y-5000D01*
X193350Y-7250D02*Y-9500D01*
Y-7250D02*X194100Y-6500D01*
X194850D01*
X195600Y-7250D01*
Y-9500D01*
Y-7250D02*X196350Y-6500D01*
X197100D01*
X197850Y-7250D01*
Y-9500D01*
X192600Y-6500D02*X193350Y-7250D01*
X199650Y-5000D02*Y-5750D01*
Y-7250D02*Y-9500D01*
X201150Y-3500D02*Y-8750D01*
X201900Y-9500D01*
X206850Y-7250D02*Y-9500D01*
Y-7250D02*X207600Y-6500D01*
X209100D01*
X206100D02*X206850Y-7250D01*
X211650Y-9500D02*X213900D01*
X210900Y-8750D02*X211650Y-9500D01*
X210900Y-7250D02*Y-8750D01*
Y-7250D02*X211650Y-6500D01*
X213150D01*
X213900Y-7250D01*
X210900Y-8000D02*X213900D01*
Y-7250D02*Y-8000D01*
X216450Y-6500D02*X218700D01*
X215700Y-7250D02*X216450Y-6500D01*
X215700Y-7250D02*Y-8750D01*
X216450Y-9500D01*
X218700D01*
X221250Y-3500D02*Y-8750D01*
X222000Y-9500D01*
X220500Y-5750D02*X222000D01*
X225750Y-6500D02*X226500Y-7250D01*
X224250Y-6500D02*X225750D01*
X223500Y-7250D02*X224250Y-6500D01*
X223500Y-7250D02*Y-8750D01*
X224250Y-9500D01*
X226500Y-6500D02*Y-8750D01*
X227250Y-9500D01*
X224250D02*X225750D01*
X226500Y-8750D01*
X229800Y-7250D02*Y-9500D01*
Y-7250D02*X230550Y-6500D01*
X231300D01*
X232050Y-7250D01*
Y-9500D01*
X229050Y-6500D02*X229800Y-7250D01*
X236100Y-6500D02*X236850Y-7250D01*
X234600Y-6500D02*X236100D01*
X233850Y-7250D02*X234600Y-6500D01*
X233850Y-7250D02*Y-8750D01*
X234600Y-9500D01*
X236100D01*
X236850Y-8750D01*
X233850Y-11000D02*X234600Y-11750D01*
X236100D01*
X236850Y-11000D01*
Y-6500D02*Y-11000D01*
X238650Y-3500D02*Y-8750D01*
X239400Y-9500D01*
X241650D02*X243900D01*
X240900Y-8750D02*X241650Y-9500D01*
X240900Y-7250D02*Y-8750D01*
Y-7250D02*X241650Y-6500D01*
X243150D01*
X243900Y-7250D01*
X240900Y-8000D02*X243900D01*
Y-7250D02*Y-8000D01*
X248400Y-6500D02*X251400D01*
X255900Y-8750D02*X256650Y-9500D01*
X255900Y-4250D02*Y-8750D01*
Y-4250D02*X256650Y-3500D01*
X258150D01*
X258900Y-4250D01*
Y-8750D01*
X258150Y-9500D02*X258900Y-8750D01*
X256650Y-9500D02*X258150D01*
X255900Y-8000D02*X258900Y-5000D01*
X260700Y-11000D02*X262200Y-9500D01*
X264000Y-8750D02*X264750Y-9500D01*
X264000Y-4250D02*Y-8750D01*
Y-4250D02*X264750Y-3500D01*
X266250D01*
X267000Y-4250D01*
Y-8750D01*
X266250Y-9500D02*X267000Y-8750D01*
X264750Y-9500D02*X266250D01*
X264000Y-8000D02*X267000Y-5000D01*
X272250Y-3500D02*Y-8750D01*
X273000Y-9500D01*
X271500Y-5750D02*X273000D01*
X274500Y-7250D02*Y-8750D01*
Y-7250D02*X275250Y-6500D01*
X276750D01*
X277500Y-7250D01*
Y-8750D01*
X276750Y-9500D02*X277500Y-8750D01*
X275250Y-9500D02*X276750D01*
X274500Y-8750D02*X275250Y-9500D01*
X282000Y-6500D02*X285000Y-3500D01*
X282000Y-6500D02*X285750D01*
X285000Y-3500D02*Y-9500D01*
X287550Y-8750D02*X288300Y-9500D01*
X287550Y-4250D02*Y-8750D01*
Y-4250D02*X288300Y-3500D01*
X289800D01*
X290550Y-4250D01*
Y-8750D01*
X289800Y-9500D02*X290550Y-8750D01*
X288300Y-9500D02*X289800D01*
X287550Y-8000D02*X290550Y-5000D01*
X292350Y-8750D02*X293100Y-9500D01*
X292350Y-4250D02*Y-8750D01*
Y-4250D02*X293100Y-3500D01*
X294600D01*
X295350Y-4250D01*
Y-8750D01*
X294600Y-9500D02*X295350Y-8750D01*
X293100Y-9500D02*X294600D01*
X292350Y-8000D02*X295350Y-5000D01*
X297150Y-8750D02*X297900Y-9500D01*
X297150Y-4250D02*Y-8750D01*
Y-4250D02*X297900Y-3500D01*
X299400D01*
X300150Y-4250D01*
Y-8750D01*
X299400Y-9500D02*X300150Y-8750D01*
X297900Y-9500D02*X299400D01*
X297150Y-8000D02*X300150Y-5000D01*
X301950Y-9500D02*X302700D01*
X304500Y-8750D02*X305250Y-9500D01*
X304500Y-4250D02*Y-8750D01*
Y-4250D02*X305250Y-3500D01*
X306750D01*
X307500Y-4250D01*
Y-8750D01*
X306750Y-9500D02*X307500Y-8750D01*
X305250Y-9500D02*X306750D01*
X304500Y-8000D02*X307500Y-5000D01*
X309300Y-8750D02*X310050Y-9500D01*
X309300Y-4250D02*Y-8750D01*
Y-4250D02*X310050Y-3500D01*
X311550D01*
X312300Y-4250D01*
Y-8750D01*
X311550Y-9500D02*X312300Y-8750D01*
X310050Y-9500D02*X311550D01*
X309300Y-8000D02*X312300Y-5000D01*
X314100Y-8750D02*X314850Y-9500D01*
X314100Y-4250D02*Y-8750D01*
Y-4250D02*X314850Y-3500D01*
X316350D01*
X317100Y-4250D01*
Y-8750D01*
X316350Y-9500D02*X317100Y-8750D01*
X314850Y-9500D02*X316350D01*
X314100Y-8000D02*X317100Y-5000D01*
X318900Y-8750D02*X319650Y-9500D01*
X318900Y-4250D02*Y-8750D01*
Y-4250D02*X319650Y-3500D01*
X321150D01*
X321900Y-4250D01*
Y-8750D01*
X321150Y-9500D02*X321900Y-8750D01*
X319650Y-9500D02*X321150D01*
X318900Y-8000D02*X321900Y-5000D01*
X323700Y-8750D02*X324450Y-9500D01*
X323700Y-4250D02*Y-8750D01*
Y-4250D02*X324450Y-3500D01*
X325950D01*
X326700Y-4250D01*
Y-8750D01*
X325950Y-9500D02*X326700Y-8750D01*
X324450Y-9500D02*X325950D01*
X323700Y-8000D02*X326700Y-5000D01*
X328500Y-8750D02*X329250Y-9500D01*
X328500Y-4250D02*Y-8750D01*
Y-4250D02*X329250Y-3500D01*
X330750D01*
X331500Y-4250D01*
Y-8750D01*
X330750Y-9500D02*X331500Y-8750D01*
X329250Y-9500D02*X330750D01*
X328500Y-8000D02*X331500Y-5000D01*
X333300Y-11000D02*X334800Y-9500D01*
X336600Y-4250D02*X337350Y-3500D01*
X339600D01*
X340350Y-4250D01*
Y-5750D01*
X336600Y-9500D02*X340350Y-5750D01*
X336600Y-9500D02*X340350D01*
X342150Y-3500D02*X345150D01*
X342150D02*Y-6500D01*
X342900Y-5750D01*
X344400D01*
X345150Y-6500D01*
Y-8750D01*
X344400Y-9500D02*X345150Y-8750D01*
X342900Y-9500D02*X344400D01*
X342150Y-8750D02*X342900Y-9500D01*
X346950Y-8750D02*X347700Y-9500D01*
X346950Y-4250D02*Y-8750D01*
Y-4250D02*X347700Y-3500D01*
X349200D01*
X349950Y-4250D01*
Y-8750D01*
X349200Y-9500D02*X349950Y-8750D01*
X347700Y-9500D02*X349200D01*
X346950Y-8000D02*X349950Y-5000D01*
X351750Y-8750D02*X352500Y-9500D01*
X351750Y-4250D02*Y-8750D01*
Y-4250D02*X352500Y-3500D01*
X354000D01*
X354750Y-4250D01*
Y-8750D01*
X354000Y-9500D02*X354750Y-8750D01*
X352500Y-9500D02*X354000D01*
X351750Y-8000D02*X354750Y-5000D01*
X356550Y-9500D02*X357300D01*
X359100Y-8750D02*X359850Y-9500D01*
X359100Y-4250D02*Y-8750D01*
Y-4250D02*X359850Y-3500D01*
X361350D01*
X362100Y-4250D01*
Y-8750D01*
X361350Y-9500D02*X362100Y-8750D01*
X359850Y-9500D02*X361350D01*
X359100Y-8000D02*X362100Y-5000D01*
X363900Y-8750D02*X364650Y-9500D01*
X363900Y-4250D02*Y-8750D01*
Y-4250D02*X364650Y-3500D01*
X366150D01*
X366900Y-4250D01*
Y-8750D01*
X366150Y-9500D02*X366900Y-8750D01*
X364650Y-9500D02*X366150D01*
X363900Y-8000D02*X366900Y-5000D01*
X368700Y-8750D02*X369450Y-9500D01*
X368700Y-4250D02*Y-8750D01*
Y-4250D02*X369450Y-3500D01*
X370950D01*
X371700Y-4250D01*
Y-8750D01*
X370950Y-9500D02*X371700Y-8750D01*
X369450Y-9500D02*X370950D01*
X368700Y-8000D02*X371700Y-5000D01*
X373500Y-8750D02*X374250Y-9500D01*
X373500Y-4250D02*Y-8750D01*
Y-4250D02*X374250Y-3500D01*
X375750D01*
X376500Y-4250D01*
Y-8750D01*
X375750Y-9500D02*X376500Y-8750D01*
X374250Y-9500D02*X375750D01*
X373500Y-8000D02*X376500Y-5000D01*
X378300Y-8750D02*X379050Y-9500D01*
X378300Y-4250D02*Y-8750D01*
Y-4250D02*X379050Y-3500D01*
X380550D01*
X381300Y-4250D01*
Y-8750D01*
X380550Y-9500D02*X381300Y-8750D01*
X379050Y-9500D02*X380550D01*
X378300Y-8000D02*X381300Y-5000D01*
X383100Y-8750D02*X383850Y-9500D01*
X383100Y-4250D02*Y-8750D01*
Y-4250D02*X383850Y-3500D01*
X385350D01*
X386100Y-4250D01*
Y-8750D01*
X385350Y-9500D02*X386100Y-8750D01*
X383850Y-9500D02*X385350D01*
X383100Y-8000D02*X386100Y-5000D01*
X391350Y-7250D02*Y-9500D01*
Y-7250D02*X392100Y-6500D01*
X392850D01*
X393600Y-7250D01*
Y-9500D01*
Y-7250D02*X394350Y-6500D01*
X395100D01*
X395850Y-7250D01*
Y-9500D01*
X390600Y-6500D02*X391350Y-7250D01*
X397650Y-5000D02*Y-5750D01*
Y-7250D02*Y-9500D01*
X399150Y-3500D02*Y-8750D01*
X399900Y-9500D01*
X402150D02*X404400D01*
X405150Y-8750D01*
X404400Y-8000D02*X405150Y-8750D01*
X402150Y-8000D02*X404400D01*
X401400Y-7250D02*X402150Y-8000D01*
X401400Y-7250D02*X402150Y-6500D01*
X404400D01*
X405150Y-7250D01*
X401400Y-8750D02*X402150Y-9500D01*
X200750Y278500D02*Y272500D01*
X203000Y278500D02*X203750Y277750D01*
Y273250D01*
X203000Y272500D02*X203750Y273250D01*
X200000Y272500D02*X203000D01*
X200000Y278500D02*X203000D01*
X207800Y275500D02*X208550Y274750D01*
X206300Y275500D02*X207800D01*
X205550Y274750D02*X206300Y275500D01*
X205550Y274750D02*Y273250D01*
X206300Y272500D01*
X208550Y275500D02*Y273250D01*
X209300Y272500D01*
X206300D02*X207800D01*
X208550Y273250D01*
X211850Y278500D02*Y273250D01*
X212600Y272500D01*
X211100Y276250D02*X212600D01*
X214850Y272500D02*X217100D01*
X214100Y273250D02*X214850Y272500D01*
X214100Y274750D02*Y273250D01*
Y274750D02*X214850Y275500D01*
X216350D01*
X217100Y274750D01*
X214100Y274000D02*X217100D01*
Y274750D02*Y274000D01*
X218900Y276250D02*X219650D01*
X218900Y274750D02*X219650D01*
X227150Y278500D02*X227900Y277750D01*
X224900Y278500D02*X227150D01*
X224150Y277750D02*X224900Y278500D01*
X224150Y277750D02*Y276250D01*
X224900Y275500D01*
X227150D01*
X227900Y274750D01*
Y273250D01*
X227150Y272500D02*X227900Y273250D01*
X224900Y272500D02*X227150D01*
X224150Y273250D02*X224900Y272500D01*
X229700Y275500D02*Y273250D01*
X230450Y272500D01*
X231950D01*
X232700Y273250D01*
Y275500D02*Y273250D01*
X235250Y274750D02*Y272500D01*
Y274750D02*X236000Y275500D01*
X236750D01*
X237500Y274750D01*
Y272500D01*
X234500Y275500D02*X235250Y274750D01*
X242000Y273250D02*X242750Y272500D01*
X242000Y277750D02*Y273250D01*
Y277750D02*X242750Y278500D01*
X244250D01*
X245000Y277750D01*
Y273250D01*
X244250Y272500D02*X245000Y273250D01*
X242750Y272500D02*X244250D01*
X242000Y274000D02*X245000Y277000D01*
X246800Y277750D02*X247550Y278500D01*
X249050D01*
X249800Y277750D01*
Y273250D01*
X249050Y272500D02*X249800Y273250D01*
X247550Y272500D02*X249050D01*
X246800Y273250D02*X247550Y272500D01*
Y275500D02*X249800D01*
X254300Y278500D02*Y272500D01*
Y278500D02*X257300D01*
X254300Y275500D02*X256550D01*
X259850Y272500D02*X262100D01*
X259100Y273250D02*X259850Y272500D01*
X259100Y274750D02*Y273250D01*
Y274750D02*X259850Y275500D01*
X261350D01*
X262100Y274750D01*
X259100Y274000D02*X262100D01*
Y274750D02*Y274000D01*
X263900Y278500D02*Y272500D01*
Y273250D02*X264650Y272500D01*
X266150D01*
X266900Y273250D01*
Y274750D02*Y273250D01*
X266150Y275500D02*X266900Y274750D01*
X264650Y275500D02*X266150D01*
X263900Y274750D02*X264650Y275500D01*
X271400Y277750D02*X272150Y278500D01*
X274400D01*
X275150Y277750D01*
Y276250D01*
X271400Y272500D02*X275150Y276250D01*
X271400Y272500D02*X275150D01*
X276950Y273250D02*X277700Y272500D01*
X276950Y277750D02*Y273250D01*
Y277750D02*X277700Y278500D01*
X279200D01*
X279950Y277750D01*
Y273250D01*
X279200Y272500D02*X279950Y273250D01*
X277700Y272500D02*X279200D01*
X276950Y274000D02*X279950Y277000D01*
X282500Y272500D02*X284000D01*
X283250Y278500D02*Y272500D01*
X281750Y277000D02*X283250Y278500D01*
X285800Y277750D02*X286550Y278500D01*
X288050D01*
X288800Y277750D01*
Y273250D01*
X288050Y272500D02*X288800Y273250D01*
X286550Y272500D02*X288050D01*
X285800Y273250D02*X286550Y272500D01*
Y275500D02*X288800D01*
X294050Y272500D02*X295550D01*
X294800Y278500D02*Y272500D01*
X293300Y277000D02*X294800Y278500D01*
X297350Y277750D02*X298100Y278500D01*
X300350D01*
X301100Y277750D01*
Y276250D01*
X297350Y272500D02*X301100Y276250D01*
X297350Y272500D02*X301100D01*
X302900Y276250D02*X303650D01*
X302900Y274750D02*X303650D01*
X305450Y277750D02*X306200Y278500D01*
X307700D01*
X308450Y277750D01*
Y273250D01*
X307700Y272500D02*X308450Y273250D01*
X306200Y272500D02*X307700D01*
X305450Y273250D02*X306200Y272500D01*
Y275500D02*X308450D01*
X310250Y278500D02*X313250D01*
X310250D02*Y275500D01*
X311000Y276250D01*
X312500D01*
X313250Y275500D01*
Y273250D01*
X312500Y272500D02*X313250Y273250D01*
X311000Y272500D02*X312500D01*
X310250Y273250D02*X311000Y272500D01*
X315050Y276250D02*X315800D01*
X315050Y274750D02*X315800D01*
X317600Y278500D02*X320600D01*
X317600D02*Y275500D01*
X318350Y276250D01*
X319850D01*
X320600Y275500D01*
Y273250D01*
X319850Y272500D02*X320600Y273250D01*
X318350Y272500D02*X319850D01*
X317600Y273250D02*X318350Y272500D01*
X322400Y275500D02*X325400Y278500D01*
X322400Y275500D02*X326150D01*
X325400Y278500D02*Y272500D01*
X330650Y277750D02*Y272500D01*
Y277750D02*X331400Y278500D01*
X333650D01*
X334400Y277750D01*
Y272500D01*
X330650Y275500D02*X334400D01*
X336200Y278500D02*Y272500D01*
Y278500D02*X338450Y276250D01*
X340700Y278500D01*
Y272500D01*
X348200Y278500D02*X348950Y277750D01*
X345950Y278500D02*X348200D01*
X345200Y277750D02*X345950Y278500D01*
X345200Y277750D02*Y273250D01*
X345950Y272500D01*
X348200D01*
X348950Y273250D01*
Y274750D02*Y273250D01*
X348200Y275500D02*X348950Y274750D01*
X346700Y275500D02*X348200D01*
X350750Y278500D02*Y272500D01*
Y278500D02*X353000Y276250D01*
X355250Y278500D01*
Y272500D01*
X357050Y278500D02*X360050D01*
X358550D02*Y272500D01*
X364550Y278500D02*Y273250D01*
X365300Y272500D01*
X366800D01*
X367550Y273250D01*
Y278500D02*Y273250D01*
X369350Y278500D02*X372350D01*
X370850D02*Y272500D01*
X374900D02*X377150D01*
X374150Y273250D02*X374900Y272500D01*
X374150Y277750D02*Y273250D01*
Y277750D02*X374900Y278500D01*
X377150D01*
X200000Y292750D02*Y287500D01*
Y292750D02*X200750Y293500D01*
X203000D01*
X203750Y292750D01*
Y287500D01*
X200000Y290500D02*X203750D01*
X205550D02*Y288250D01*
X206300Y287500D01*
X207800D01*
X208550Y288250D01*
Y290500D02*Y288250D01*
X211100Y293500D02*Y288250D01*
X211850Y287500D01*
X210350Y291250D02*X211850D01*
X213350Y293500D02*Y287500D01*
Y289750D02*X214100Y290500D01*
X215600D01*
X216350Y289750D01*
Y287500D01*
X218150Y289750D02*Y288250D01*
Y289750D02*X218900Y290500D01*
X220400D01*
X221150Y289750D01*
Y288250D01*
X220400Y287500D02*X221150Y288250D01*
X218900Y287500D02*X220400D01*
X218150Y288250D02*X218900Y287500D01*
X223700Y289750D02*Y287500D01*
Y289750D02*X224450Y290500D01*
X225950D01*
X222950D02*X223700Y289750D01*
X227750Y291250D02*X228500D01*
X227750Y289750D02*X228500D01*
X233000Y293500D02*Y287500D01*
Y293500D02*X235250Y291250D01*
X237500Y293500D01*
Y287500D01*
X239300Y292000D02*Y291250D01*
Y289750D02*Y287500D01*
X241550Y290500D02*X243800D01*
X240800Y289750D02*X241550Y290500D01*
X240800Y289750D02*Y288250D01*
X241550Y287500D01*
X243800D01*
X245600Y293500D02*Y287500D01*
Y289750D02*X246350Y290500D01*
X247850D01*
X248600Y289750D01*
Y287500D01*
X252650Y290500D02*X253400Y289750D01*
X251150Y290500D02*X252650D01*
X250400Y289750D02*X251150Y290500D01*
X250400Y289750D02*Y288250D01*
X251150Y287500D01*
X253400Y290500D02*Y288250D01*
X254150Y287500D01*
X251150D02*X252650D01*
X253400Y288250D01*
X256700Y287500D02*X258950D01*
X255950Y288250D02*X256700Y287500D01*
X255950Y289750D02*Y288250D01*
Y289750D02*X256700Y290500D01*
X258200D01*
X258950Y289750D01*
X255950Y289000D02*X258950D01*
Y289750D02*Y289000D01*
X260750Y293500D02*Y288250D01*
X261500Y287500D01*
X266450Y293500D02*Y287500D01*
X265700Y293500D02*X268700D01*
X269450Y292750D01*
Y291250D01*
X268700Y290500D02*X269450Y291250D01*
X266450Y290500D02*X268700D01*
X272000Y287500D02*X274250D01*
X271250Y288250D02*X272000Y287500D01*
X271250Y289750D02*Y288250D01*
Y289750D02*X272000Y290500D01*
X273500D01*
X274250Y289750D01*
X271250Y289000D02*X274250D01*
Y289750D02*Y289000D01*
X276800Y293500D02*Y288250D01*
X277550Y287500D01*
X276050Y291250D02*X277550D01*
X279800Y287500D02*X282050D01*
X279050Y288250D02*X279800Y287500D01*
X279050Y289750D02*Y288250D01*
Y289750D02*X279800Y290500D01*
X281300D01*
X282050Y289750D01*
X279050Y289000D02*X282050D01*
Y289750D02*Y289000D01*
X284600Y289750D02*Y287500D01*
Y289750D02*X285350Y290500D01*
X286850D01*
X283850D02*X284600Y289750D01*
X289400Y287500D02*X291650D01*
X292400Y288250D01*
X291650Y289000D02*X292400Y288250D01*
X289400Y289000D02*X291650D01*
X288650Y289750D02*X289400Y289000D01*
X288650Y289750D02*X289400Y290500D01*
X291650D01*
X292400Y289750D01*
X288650Y288250D02*X289400Y287500D01*
X294950D02*X297200D01*
X294200Y288250D02*X294950Y287500D01*
X294200Y289750D02*Y288250D01*
Y289750D02*X294950Y290500D01*
X296450D01*
X297200Y289750D01*
X294200Y289000D02*X297200D01*
Y289750D02*Y289000D01*
X299750Y289750D02*Y287500D01*
Y289750D02*X300500Y290500D01*
X301250D01*
X302000Y289750D01*
Y287500D01*
X299000Y290500D02*X299750Y289750D01*
X200000Y308500D02*X203000D01*
X201500D02*Y302500D01*
X204800Y307000D02*Y306250D01*
Y304750D02*Y302500D01*
X207050Y308500D02*Y303250D01*
X207800Y302500D01*
X206300Y306250D02*X207800D01*
X209300Y308500D02*Y303250D01*
X210050Y302500D01*
X212300D02*X214550D01*
X211550Y303250D02*X212300Y302500D01*
X211550Y304750D02*Y303250D01*
Y304750D02*X212300Y305500D01*
X213800D01*
X214550Y304750D01*
X211550Y304000D02*X214550D01*
Y304750D02*Y304000D01*
X216350Y306250D02*X217100D01*
X216350Y304750D02*X217100D01*
X221600Y303250D02*X222350Y302500D01*
X221600Y307750D02*X222350Y308500D01*
X221600Y307750D02*Y303250D01*
X224150Y305500D02*Y303250D01*
X224900Y302500D01*
X226400D01*
X227150Y303250D01*
Y305500D02*Y303250D01*
X229700Y304750D02*Y302500D01*
Y304750D02*X230450Y305500D01*
X231200D01*
X231950Y304750D01*
Y302500D01*
X228950Y305500D02*X229700Y304750D01*
X233750Y308500D02*Y302500D01*
Y304750D02*X236000Y302500D01*
X233750Y304750D02*X235250Y306250D01*
X238550Y304750D02*Y302500D01*
Y304750D02*X239300Y305500D01*
X240050D01*
X240800Y304750D01*
Y302500D01*
X237800Y305500D02*X238550Y304750D01*
X242600D02*Y303250D01*
Y304750D02*X243350Y305500D01*
X244850D01*
X245600Y304750D01*
Y303250D01*
X244850Y302500D02*X245600Y303250D01*
X243350Y302500D02*X244850D01*
X242600Y303250D02*X243350Y302500D01*
X247400Y305500D02*Y303250D01*
X248150Y302500D01*
X248900D01*
X249650Y303250D01*
Y305500D02*Y303250D01*
X250400Y302500D01*
X251150D01*
X251900Y303250D01*
Y305500D02*Y303250D01*
X254450Y304750D02*Y302500D01*
Y304750D02*X255200Y305500D01*
X255950D01*
X256700Y304750D01*
Y302500D01*
X253700Y305500D02*X254450Y304750D01*
X258500Y308500D02*X259250Y307750D01*
Y303250D01*
X258500Y302500D02*X259250Y303250D01*
X263750Y305500D02*X266750D01*
X271250Y308500D02*Y302500D01*
Y308500D02*X274250D01*
X271250Y305500D02*X273500D01*
X278300D02*X279050Y304750D01*
X276800Y305500D02*X278300D01*
X276050Y304750D02*X276800Y305500D01*
X276050Y304750D02*Y303250D01*
X276800Y302500D01*
X279050Y305500D02*Y303250D01*
X279800Y302500D01*
X276800D02*X278300D01*
X279050Y303250D01*
X281600Y308500D02*Y302500D01*
Y303250D02*X282350Y302500D01*
X283850D01*
X284600Y303250D01*
Y304750D02*Y303250D01*
X283850Y305500D02*X284600Y304750D01*
X282350Y305500D02*X283850D01*
X281600Y304750D02*X282350Y305500D01*
X287150Y304750D02*Y302500D01*
Y304750D02*X287900Y305500D01*
X289400D01*
X286400D02*X287150Y304750D01*
X291200Y307000D02*Y306250D01*
Y304750D02*Y302500D01*
X293450Y305500D02*X295700D01*
X292700Y304750D02*X293450Y305500D01*
X292700Y304750D02*Y303250D01*
X293450Y302500D01*
X295700D01*
X299750Y305500D02*X300500Y304750D01*
X298250Y305500D02*X299750D01*
X297500Y304750D02*X298250Y305500D01*
X297500Y304750D02*Y303250D01*
X298250Y302500D01*
X300500Y305500D02*Y303250D01*
X301250Y302500D01*
X298250D02*X299750D01*
X300500Y303250D01*
X303800Y308500D02*Y303250D01*
X304550Y302500D01*
X303050Y306250D02*X304550D01*
X306050Y307000D02*Y306250D01*
Y304750D02*Y302500D01*
X307550Y304750D02*Y303250D01*
Y304750D02*X308300Y305500D01*
X309800D01*
X310550Y304750D01*
Y303250D01*
X309800Y302500D02*X310550Y303250D01*
X308300Y302500D02*X309800D01*
X307550Y303250D02*X308300Y302500D01*
X313100Y304750D02*Y302500D01*
Y304750D02*X313850Y305500D01*
X314600D01*
X315350Y304750D01*
Y302500D01*
X312350Y305500D02*X313100Y304750D01*
X320600Y308500D02*Y302500D01*
X322850Y308500D02*X323600Y307750D01*
Y303250D01*
X322850Y302500D02*X323600Y303250D01*
X319850Y302500D02*X322850D01*
X319850Y308500D02*X322850D01*
X326150Y304750D02*Y302500D01*
Y304750D02*X326900Y305500D01*
X328400D01*
X325400D02*X326150Y304750D01*
X332450Y305500D02*X333200Y304750D01*
X330950Y305500D02*X332450D01*
X330200Y304750D02*X330950Y305500D01*
X330200Y304750D02*Y303250D01*
X330950Y302500D01*
X333200Y305500D02*Y303250D01*
X333950Y302500D01*
X330950D02*X332450D01*
X333200Y303250D01*
X335750Y305500D02*Y303250D01*
X336500Y302500D01*
X337250D01*
X338000Y303250D01*
Y305500D02*Y303250D01*
X338750Y302500D01*
X339500D01*
X340250Y303250D01*
Y305500D02*Y303250D01*
X342050Y307000D02*Y306250D01*
Y304750D02*Y302500D01*
X344300Y304750D02*Y302500D01*
Y304750D02*X345050Y305500D01*
X345800D01*
X346550Y304750D01*
Y302500D01*
X343550Y305500D02*X344300Y304750D01*
X350600Y305500D02*X351350Y304750D01*
X349100Y305500D02*X350600D01*
X348350Y304750D02*X349100Y305500D01*
X348350Y304750D02*Y303250D01*
X349100Y302500D01*
X350600D01*
X351350Y303250D01*
X348350Y301000D02*X349100Y300250D01*
X350600D01*
X351350Y301000D01*
Y305500D02*Y301000D01*
M02*
