M48
INCH
T73C0.012
T72C0.038
T71C0.054
T70C0.044
T69C0.039
T68C0.110
T67C0.125
T66C0.045
T65C0.129
T64C0.048
%
T73
X002510Y010330
X002840Y010330
X002850Y008550
X002850Y008150
X002850Y007750
X002850Y007350
X003180Y010330
X004550Y015550
X005000Y015550
X005500Y019750
X005500Y019350
X005500Y018950
X005850Y020050
X005850Y018650
X006050Y017650
X006250Y020050
X006250Y018650
X006350Y017650
X006600Y020050
X006600Y018650
X007200Y014300
X007200Y013750
X007700Y022600
X007700Y022200
X007700Y021800
X007700Y021400
X008950Y022600
X008950Y022200
X008950Y021800
X008950Y021400
X009550Y015700
X011700Y026200
X011700Y025750
X013950Y013850
X014450Y013850
X015000Y013550
X015300Y014050
X015850Y014050
X016300Y011000
X016750Y014050
X017600Y017650
X017600Y012950
X017600Y012550
X017700Y011000
X017900Y009250
X017900Y008850
X017900Y008450
X017900Y008050
X018300Y017650
X018600Y021650
X018600Y021050
X018600Y018000
X018720Y007700
X018800Y025150
X018800Y024750
X018900Y021350
X018950Y015600
X019200Y021650
X019200Y021050
X019200Y015200
X019590Y007700
X020000Y008900
X020000Y008500
X020000Y008120
X020100Y018950
X020250Y026400
X020250Y025950
X020300Y023900
X020410Y007700
X020450Y019250
X020550Y015300
X020800Y012000
X020800Y008850
X020940Y024150
X020950Y024550
X021300Y007700
X021700Y024900
X021800Y010350
X021800Y009500
X022200Y019350
X022400Y010000
X022400Y009250
X022500Y008550
X022500Y008150
X022500Y007750
X022500Y007350
X022600Y024550
X022600Y019800
X022610Y017380
X022610Y016340
X022700Y019250
X022750Y014950
X022750Y014550
X022800Y018750
X022900Y024300
X022920Y022520
X022920Y021320
X023200Y019200
X023240Y017380
X023240Y016350
X023300Y024300
X025000Y016500
X025000Y016100
X025350Y016500
X025350Y016100
X025750Y020400
X026150Y020400
X026400Y020150
X026450Y016500
X026450Y016100
X026700Y019850
X026800Y016500
X026800Y016100
X027000Y019600
X027150Y019250
X028400Y012550
X028700Y024850
X028700Y024200
X028750Y012950
X029000Y006850
X029000Y006000
X029000Y005150
X029450Y018250
X029450Y017650
X029950Y025050
X029950Y024500
X030250Y018800
X030340Y021450
X030400Y006850
X030400Y006000
X030400Y005150
X030450Y019400
X030590Y021240
X030800Y019400
X030850Y021000
X031200Y025050
X031200Y024500
X031300Y012950
X031550Y012650
X032360Y023100
X032650Y020500
X032860Y023100
X033050Y019900
X033050Y013500
X034000Y019900
X034200Y021100
X034350Y023500
X034350Y022750
X035000Y021100
X035500Y013400
X035500Y012650
X036770Y023230
X037250Y013500
X037650Y013500
X037850Y009250
X037850Y008850
X037850Y008450
X037850Y008050
X037900Y022600
X037900Y022250
X037910Y021260
T72
X020350Y027300
X021350Y027300
X022350Y027300
X023350Y027300
X024350Y027300
X025350Y027300
X026350Y027300
X027350Y027300
X028350Y027300
X029350Y027300
X030350Y027300
X031350Y027300
X032350Y027300
X033350Y027300
X034350Y027300
X035350Y027300
T69
X008720Y002786
X008720Y001014
X011280Y002786
X011280Y001014
X015390Y002786
X015390Y001014
X017950Y002786
X017950Y001014
X022050Y002786
X022050Y001014
X024610Y002786
X024610Y001014
X028720Y002786
X028720Y001014
X031280Y002786
X031280Y001014
T70
X029680Y007744
T66
X007350Y026100
X008350Y026100
X009350Y026100
T64
X002200Y019300
X002200Y017300
X002200Y015300
X002200Y013300
T71
X029680Y010696
T68
X003070Y023440
X004270Y021540
T67
X005470Y023440
T65
X001700Y027300
X001700Y005650
X038300Y027300
X038300Y005650
M30
