G04 start of page 3 for group 1 idx 1 *
G04 Title: (unknown), solder *
G04 Creator: pcb 4.0.2 *
G04 CreationDate: Tue Apr 28 16:30:13 2020 UTC *
G04 For: ndholmes *
G04 Format: Gerber/RS-274X *
G04 PCB-Dimensions (mil): 4000.00 2900.00 *
G04 PCB-Coordinate-Origin: lower left *
%MOIN*%
%FSLAX25Y25*%
%LNBOTTOM*%
%ADD62C,0.0380*%
%ADD61C,0.0540*%
%ADD60C,0.0440*%
%ADD59C,0.0935*%
%ADD58C,0.0390*%
%ADD57C,0.1100*%
%ADD56C,0.1250*%
%ADD55C,0.0450*%
%ADD54C,0.1285*%
%ADD53C,0.0480*%
%ADD52C,0.0120*%
%ADD51C,0.0260*%
%ADD50C,0.0600*%
%ADD49C,0.0690*%
%ADD48C,0.1500*%
%ADD47C,0.1750*%
%ADD46C,0.0787*%
%ADD45C,0.2937*%
%ADD44C,0.0800*%
%ADD43C,0.0250*%
%ADD42C,0.1000*%
%ADD41C,0.0100*%
%ADD40C,0.0001*%
G54D40*G36*
X83502Y288000D02*X94000D01*
Y266916D01*
X93500Y266955D01*
X92568Y266882D01*
X91660Y266664D01*
X90796Y266306D01*
X90000Y265818D01*
X89289Y265211D01*
X88682Y264500D01*
X88265Y263821D01*
X88176Y263836D01*
X88018Y263838D01*
X87861Y263815D01*
X87710Y263768D01*
X87569Y263698D01*
X87439Y263607D01*
X87326Y263496D01*
X87232Y263370D01*
X87158Y263230D01*
X87108Y263080D01*
X87081Y262924D01*
X87079Y262766D01*
X87102Y262610D01*
X87152Y262460D01*
X87278Y262108D01*
X87366Y261744D01*
X87419Y261374D01*
X87437Y261000D01*
X87419Y260626D01*
X87366Y260256D01*
X87278Y259892D01*
X87156Y259539D01*
X87106Y259389D01*
X87083Y259234D01*
X87085Y259076D01*
X87112Y258921D01*
X87162Y258772D01*
X87236Y258633D01*
X87330Y258507D01*
X87442Y258397D01*
X87571Y258306D01*
X87712Y258236D01*
X87862Y258189D01*
X88018Y258167D01*
X88175Y258168D01*
X88263Y258183D01*
X88682Y257500D01*
X89289Y256789D01*
X90000Y256182D01*
X90796Y255694D01*
X91660Y255336D01*
X92568Y255118D01*
X93500Y255045D01*
X94000Y255084D01*
Y42000D01*
X83502D01*
Y255056D01*
X84064Y255083D01*
X84623Y255163D01*
X85172Y255296D01*
X85706Y255481D01*
X85848Y255550D01*
X85977Y255642D01*
X86091Y255752D01*
X86185Y255879D01*
X86259Y256019D01*
X86309Y256168D01*
X86336Y256324D01*
X86338Y256482D01*
X86315Y256639D01*
X86268Y256790D01*
X86198Y256931D01*
X86107Y257061D01*
X85996Y257174D01*
X85870Y257268D01*
X85730Y257342D01*
X85580Y257392D01*
X85424Y257419D01*
X85266Y257421D01*
X85110Y257398D01*
X84960Y257348D01*
X84608Y257222D01*
X84244Y257134D01*
X83874Y257081D01*
X83502Y257063D01*
Y264937D01*
X83874Y264919D01*
X84244Y264866D01*
X84608Y264778D01*
X84961Y264656D01*
X85111Y264606D01*
X85266Y264583D01*
X85424Y264585D01*
X85579Y264612D01*
X85728Y264662D01*
X85867Y264736D01*
X85993Y264830D01*
X86103Y264942D01*
X86194Y265071D01*
X86264Y265212D01*
X86311Y265362D01*
X86333Y265518D01*
X86332Y265675D01*
X86305Y265831D01*
X86254Y265980D01*
X86181Y266119D01*
X86087Y266245D01*
X85975Y266355D01*
X85846Y266446D01*
X85704Y266513D01*
X85172Y266704D01*
X84623Y266837D01*
X84064Y266917D01*
X83502Y266944D01*
Y288000D01*
G37*
G36*
X73742D02*X83502D01*
Y266944D01*
X83500Y266944D01*
X82936Y266917D01*
X82377Y266837D01*
X81828Y266704D01*
X81294Y266519D01*
X81152Y266450D01*
X81023Y266358D01*
X80909Y266248D01*
X80815Y266121D01*
X80741Y265981D01*
X80691Y265832D01*
X80664Y265676D01*
X80662Y265518D01*
X80685Y265361D01*
X80732Y265210D01*
X80802Y265069D01*
X80893Y264939D01*
X81004Y264826D01*
X81130Y264732D01*
X81270Y264658D01*
X81420Y264608D01*
X81576Y264581D01*
X81734Y264579D01*
X81890Y264602D01*
X82040Y264652D01*
X82392Y264778D01*
X82756Y264866D01*
X83126Y264919D01*
X83500Y264937D01*
X83502Y264937D01*
Y257063D01*
X83500Y257063D01*
X83126Y257081D01*
X82756Y257134D01*
X82392Y257222D01*
X82039Y257344D01*
X81889Y257394D01*
X81734Y257417D01*
X81576Y257415D01*
X81421Y257388D01*
X81272Y257338D01*
X81133Y257264D01*
X81007Y257170D01*
X80897Y257058D01*
X80806Y256929D01*
X80736Y256788D01*
X80689Y256638D01*
X80667Y256482D01*
X80668Y256325D01*
X80695Y256169D01*
X80746Y256020D01*
X80819Y255881D01*
X80913Y255755D01*
X81025Y255645D01*
X81154Y255554D01*
X81296Y255487D01*
X81828Y255296D01*
X82377Y255163D01*
X82936Y255083D01*
X83500Y255056D01*
X83502Y255056D01*
Y42000D01*
X73742D01*
Y255072D01*
X77751Y255082D01*
X78057Y255155D01*
X78348Y255275D01*
X78616Y255440D01*
X78856Y255644D01*
X79060Y255884D01*
X79225Y256152D01*
X79345Y256443D01*
X79418Y256749D01*
X79437Y257063D01*
X79434Y258304D01*
X79561Y258393D01*
X79674Y258504D01*
X79768Y258630D01*
X79842Y258770D01*
X79892Y258920D01*
X79919Y259076D01*
X79921Y259234D01*
X79898Y259390D01*
X79848Y259540D01*
X79722Y259892D01*
X79634Y260256D01*
X79581Y260626D01*
X79563Y261000D01*
X79581Y261374D01*
X79634Y261744D01*
X79722Y262108D01*
X79844Y262461D01*
X79894Y262611D01*
X79917Y262766D01*
X79915Y262924D01*
X79888Y263079D01*
X79838Y263228D01*
X79764Y263367D01*
X79670Y263493D01*
X79558Y263603D01*
X79429Y263694D01*
X79422Y263698D01*
X79418Y265251D01*
X79345Y265557D01*
X79225Y265848D01*
X79060Y266116D01*
X78856Y266356D01*
X78616Y266560D01*
X78348Y266725D01*
X78057Y266845D01*
X77751Y266918D01*
X77437Y266937D01*
X73742Y266929D01*
Y288000D01*
G37*
G36*
X54685D02*X73742D01*
Y266929D01*
X69249Y266918D01*
X68943Y266845D01*
X68652Y266725D01*
X68384Y266560D01*
X68144Y266356D01*
X67940Y266116D01*
X67775Y265848D01*
X67655Y265557D01*
X67582Y265251D01*
X67563Y264937D01*
X67582Y256749D01*
X67655Y256443D01*
X67775Y256152D01*
X67940Y255884D01*
X68144Y255644D01*
X68384Y255440D01*
X68652Y255275D01*
X68943Y255155D01*
X69249Y255082D01*
X69563Y255063D01*
X73742Y255072D01*
Y42000D01*
X54685D01*
Y224621D01*
X54700Y224620D01*
X56230Y224740D01*
X57722Y225099D01*
X59140Y225686D01*
X60449Y226488D01*
X61616Y227484D01*
X62612Y228651D01*
X63414Y229960D01*
X64001Y231378D01*
X64360Y232870D01*
X64450Y234400D01*
X64360Y235930D01*
X64001Y237422D01*
X63414Y238840D01*
X62612Y240149D01*
X61616Y241316D01*
X60449Y242312D01*
X59140Y243114D01*
X57722Y243701D01*
X56230Y244060D01*
X54700Y244180D01*
X54685Y244179D01*
Y288000D01*
G37*
G36*
X37855Y236645D02*X38019Y236038D01*
X38135Y235388D01*
X38193Y234730D01*
Y234070D01*
X38135Y233412D01*
X38019Y232762D01*
X37855Y232155D01*
Y236645D01*
G37*
G36*
X49855Y217645D02*X50019Y217038D01*
X50135Y216388D01*
X50193Y215730D01*
Y215070D01*
X50135Y214412D01*
X50019Y213762D01*
X49855Y213155D01*
Y217645D01*
G37*
G36*
Y225934D02*X50260Y225686D01*
X51678Y225099D01*
X53170Y224740D01*
X54685Y224621D01*
Y42000D01*
X49855D01*
Y210796D01*
X50230Y211439D01*
X50549Y212116D01*
X50807Y212819D01*
X51003Y213542D01*
X51134Y214280D01*
X51200Y215026D01*
Y215774D01*
X51134Y216521D01*
X51003Y217258D01*
X50807Y217981D01*
X50549Y218684D01*
X50230Y219361D01*
X49855Y220004D01*
Y225934D01*
G37*
G36*
Y288000D02*X54685D01*
Y244179D01*
X53170Y244060D01*
X51678Y243701D01*
X50260Y243114D01*
X49855Y242866D01*
Y288000D01*
G37*
G36*
X37855D02*X49855D01*
Y242866D01*
X48951Y242312D01*
X47784Y241316D01*
X46788Y240149D01*
X45986Y238840D01*
X45399Y237422D01*
X45040Y235930D01*
X44920Y234400D01*
X45040Y232870D01*
X45399Y231378D01*
X45986Y229960D01*
X46788Y228651D01*
X47784Y227484D01*
X48951Y226488D01*
X49855Y225934D01*
Y220004D01*
X49852Y220008D01*
X49419Y220619D01*
X49366Y220679D01*
X49304Y220728D01*
X49234Y220768D01*
X49160Y220796D01*
X49081Y220812D01*
X49002Y220816D01*
X48922Y220807D01*
X48845Y220786D01*
X48773Y220753D01*
X48706Y220709D01*
X48647Y220656D01*
X48597Y220593D01*
X48557Y220524D01*
X48529Y220449D01*
X48513Y220371D01*
X48509Y220291D01*
X48518Y220212D01*
X48539Y220135D01*
X48572Y220062D01*
X48617Y219996D01*
X49005Y219462D01*
X49338Y218892D01*
X49619Y218295D01*
X49847Y217675D01*
X49855Y217645D01*
Y213155D01*
X49847Y213125D01*
X49619Y212505D01*
X49338Y211908D01*
X49005Y211338D01*
X48623Y210799D01*
X48579Y210734D01*
X48546Y210663D01*
X48525Y210587D01*
X48517Y210509D01*
X48520Y210430D01*
X48536Y210353D01*
X48564Y210279D01*
X48603Y210211D01*
X48652Y210149D01*
X48710Y210096D01*
X48776Y210053D01*
X48848Y210021D01*
X48924Y210000D01*
X49002Y209991D01*
X49081Y209995D01*
X49158Y210011D01*
X49231Y210039D01*
X49300Y210078D01*
X49361Y210127D01*
X49413Y210186D01*
X49852Y210792D01*
X49855Y210796D01*
Y42000D01*
X37855D01*
Y208420D01*
X38092Y208248D01*
X38739Y207870D01*
X39416Y207551D01*
X40119Y207293D01*
X40842Y207097D01*
X41579Y206966D01*
X42326Y206900D01*
X43074D01*
X43820Y206966D01*
X44558Y207097D01*
X45281Y207293D01*
X45984Y207551D01*
X46661Y207870D01*
X47308Y208248D01*
X47919Y208681D01*
X47979Y208734D01*
X48028Y208796D01*
X48068Y208866D01*
X48096Y208940D01*
X48112Y209019D01*
X48116Y209098D01*
X48107Y209178D01*
X48086Y209255D01*
X48053Y209327D01*
X48009Y209394D01*
X47956Y209453D01*
X47893Y209503D01*
X47824Y209543D01*
X47749Y209571D01*
X47671Y209587D01*
X47591Y209591D01*
X47512Y209582D01*
X47435Y209561D01*
X47362Y209528D01*
X47296Y209483D01*
X46762Y209095D01*
X46192Y208762D01*
X45595Y208481D01*
X44975Y208253D01*
X44338Y208081D01*
X43688Y207965D01*
X43030Y207907D01*
X42370D01*
X41712Y207965D01*
X41062Y208081D01*
X40425Y208253D01*
X39805Y208481D01*
X39208Y208762D01*
X38638Y209095D01*
X38099Y209477D01*
X38034Y209521D01*
X37963Y209554D01*
X37887Y209575D01*
X37855Y209578D01*
Y221215D01*
X37888Y221218D01*
X37965Y221239D01*
X38038Y221272D01*
X38104Y221317D01*
X38638Y221705D01*
X39208Y222038D01*
X39805Y222319D01*
X40425Y222547D01*
X41062Y222719D01*
X41712Y222835D01*
X42370Y222893D01*
X43030D01*
X43688Y222835D01*
X44338Y222719D01*
X44975Y222547D01*
X45595Y222319D01*
X46192Y222038D01*
X46762Y221705D01*
X47301Y221323D01*
X47366Y221279D01*
X47437Y221246D01*
X47513Y221225D01*
X47591Y221217D01*
X47670Y221220D01*
X47747Y221236D01*
X47821Y221264D01*
X47889Y221303D01*
X47951Y221352D01*
X48004Y221410D01*
X48047Y221476D01*
X48079Y221548D01*
X48100Y221624D01*
X48109Y221702D01*
X48105Y221781D01*
X48089Y221858D01*
X48061Y221931D01*
X48022Y222000D01*
X47973Y222061D01*
X47914Y222113D01*
X47308Y222552D01*
X46661Y222930D01*
X45984Y223249D01*
X45281Y223507D01*
X44558Y223703D01*
X43820Y223834D01*
X43074Y223900D01*
X42326D01*
X41579Y223834D01*
X40842Y223703D01*
X40119Y223507D01*
X39416Y223249D01*
X38739Y222930D01*
X38092Y222552D01*
X37855Y222384D01*
Y229796D01*
X38230Y230439D01*
X38549Y231116D01*
X38807Y231819D01*
X39003Y232542D01*
X39134Y233280D01*
X39200Y234026D01*
Y234774D01*
X39134Y235521D01*
X39003Y236258D01*
X38807Y236981D01*
X38549Y237684D01*
X38230Y238361D01*
X37855Y239004D01*
Y288000D01*
G37*
G36*
X35545D02*X37855D01*
Y239004D01*
X37852Y239008D01*
X37419Y239619D01*
X37366Y239679D01*
X37304Y239728D01*
X37234Y239768D01*
X37160Y239796D01*
X37081Y239812D01*
X37002Y239816D01*
X36922Y239807D01*
X36845Y239786D01*
X36773Y239753D01*
X36706Y239709D01*
X36647Y239656D01*
X36597Y239593D01*
X36557Y239524D01*
X36529Y239449D01*
X36513Y239371D01*
X36509Y239291D01*
X36518Y239212D01*
X36539Y239135D01*
X36572Y239062D01*
X36617Y238996D01*
X37005Y238462D01*
X37338Y237892D01*
X37619Y237295D01*
X37847Y236675D01*
X37855Y236645D01*
Y232155D01*
X37847Y232125D01*
X37619Y231505D01*
X37338Y230908D01*
X37005Y230338D01*
X36623Y229799D01*
X36579Y229734D01*
X36546Y229663D01*
X36525Y229587D01*
X36517Y229509D01*
X36520Y229430D01*
X36536Y229353D01*
X36564Y229279D01*
X36603Y229211D01*
X36652Y229149D01*
X36710Y229096D01*
X36776Y229053D01*
X36848Y229021D01*
X36924Y229000D01*
X37002Y228991D01*
X37081Y228995D01*
X37158Y229011D01*
X37231Y229039D01*
X37300Y229078D01*
X37361Y229127D01*
X37413Y229186D01*
X37852Y229792D01*
X37855Y229796D01*
Y222384D01*
X37481Y222119D01*
X37421Y222066D01*
X37372Y222004D01*
X37332Y221934D01*
X37304Y221860D01*
X37288Y221781D01*
X37284Y221702D01*
X37293Y221622D01*
X37314Y221545D01*
X37347Y221473D01*
X37391Y221406D01*
X37444Y221347D01*
X37507Y221297D01*
X37576Y221257D01*
X37651Y221229D01*
X37729Y221213D01*
X37809Y221209D01*
X37855Y221215D01*
Y209578D01*
X37809Y209583D01*
X37730Y209580D01*
X37653Y209564D01*
X37579Y209536D01*
X37511Y209497D01*
X37449Y209448D01*
X37396Y209390D01*
X37353Y209324D01*
X37321Y209252D01*
X37300Y209176D01*
X37291Y209098D01*
X37295Y209019D01*
X37311Y208942D01*
X37339Y208869D01*
X37378Y208800D01*
X37427Y208739D01*
X37486Y208687D01*
X37855Y208420D01*
Y42000D01*
X35545D01*
Y210796D01*
X35548Y210792D01*
X35981Y210181D01*
X36034Y210121D01*
X36096Y210072D01*
X36166Y210032D01*
X36240Y210004D01*
X36319Y209988D01*
X36398Y209984D01*
X36478Y209993D01*
X36555Y210014D01*
X36627Y210047D01*
X36694Y210091D01*
X36753Y210144D01*
X36803Y210207D01*
X36843Y210276D01*
X36871Y210351D01*
X36887Y210429D01*
X36891Y210509D01*
X36882Y210588D01*
X36861Y210665D01*
X36828Y210738D01*
X36783Y210804D01*
X36395Y211338D01*
X36062Y211908D01*
X35781Y212505D01*
X35553Y213125D01*
X35545Y213155D01*
Y217645D01*
X35553Y217675D01*
X35781Y218295D01*
X36062Y218892D01*
X36395Y219462D01*
X36777Y220001D01*
X36821Y220066D01*
X36854Y220137D01*
X36875Y220213D01*
X36883Y220291D01*
X36880Y220370D01*
X36864Y220447D01*
X36836Y220521D01*
X36797Y220589D01*
X36748Y220651D01*
X36690Y220704D01*
X36624Y220747D01*
X36552Y220779D01*
X36476Y220800D01*
X36398Y220809D01*
X36319Y220805D01*
X36242Y220789D01*
X36169Y220761D01*
X36100Y220722D01*
X36039Y220673D01*
X35987Y220614D01*
X35548Y220008D01*
X35545Y220004D01*
Y227416D01*
X35919Y227681D01*
X35979Y227734D01*
X36028Y227796D01*
X36068Y227866D01*
X36096Y227940D01*
X36112Y228019D01*
X36116Y228098D01*
X36107Y228178D01*
X36086Y228255D01*
X36053Y228327D01*
X36009Y228394D01*
X35956Y228453D01*
X35893Y228503D01*
X35824Y228543D01*
X35749Y228571D01*
X35671Y228587D01*
X35591Y228591D01*
X35545Y228586D01*
Y240222D01*
X35591Y240217D01*
X35670Y240220D01*
X35747Y240236D01*
X35821Y240264D01*
X35889Y240303D01*
X35951Y240352D01*
X36004Y240410D01*
X36047Y240476D01*
X36079Y240548D01*
X36100Y240624D01*
X36109Y240702D01*
X36105Y240781D01*
X36089Y240858D01*
X36061Y240931D01*
X36022Y241000D01*
X35973Y241061D01*
X35914Y241113D01*
X35545Y241380D01*
Y288000D01*
G37*
G36*
Y213155D02*X35381Y213762D01*
X35265Y214412D01*
X35207Y215070D01*
Y215730D01*
X35265Y216388D01*
X35381Y217038D01*
X35545Y217645D01*
Y213155D01*
G37*
G36*
Y228586D02*X35512Y228582D01*
X35435Y228561D01*
X35362Y228528D01*
X35296Y228483D01*
X34762Y228095D01*
X34192Y227762D01*
X33595Y227481D01*
X32975Y227253D01*
X32338Y227081D01*
X31688Y226965D01*
X31030Y226907D01*
X30370D01*
X29712Y226965D01*
X29062Y227081D01*
X28425Y227253D01*
X27805Y227481D01*
X27208Y227762D01*
X26638Y228095D01*
X26493Y228198D01*
Y240599D01*
X26638Y240705D01*
X27208Y241038D01*
X27805Y241319D01*
X28425Y241547D01*
X29062Y241719D01*
X29712Y241835D01*
X30370Y241893D01*
X31030D01*
X31688Y241835D01*
X32338Y241719D01*
X32975Y241547D01*
X33595Y241319D01*
X34192Y241038D01*
X34762Y240705D01*
X35301Y240323D01*
X35366Y240279D01*
X35437Y240246D01*
X35513Y240225D01*
X35545Y240222D01*
Y228586D01*
G37*
G36*
Y42000D02*X26493D01*
Y42750D01*
X26837Y42961D01*
X28834Y44666D01*
X30539Y46663D01*
X31911Y48902D01*
X32916Y51328D01*
X33529Y53882D01*
X33684Y56500D01*
X33529Y59118D01*
X32916Y61672D01*
X31911Y64098D01*
X30539Y66337D01*
X28834Y68334D01*
X26837Y70039D01*
X26493Y70250D01*
Y129805D01*
X26916Y130495D01*
X27247Y131295D01*
X27449Y132137D01*
X27500Y133000D01*
X27449Y133863D01*
X27247Y134705D01*
X26916Y135505D01*
X26493Y136195D01*
Y147580D01*
X26683Y147659D01*
X26884Y147783D01*
X27064Y147936D01*
X27217Y148116D01*
X27341Y148317D01*
X27431Y148535D01*
X27486Y148765D01*
X27500Y149000D01*
X27486Y157235D01*
X27431Y157465D01*
X27341Y157683D01*
X27217Y157884D01*
X27064Y158064D01*
X26884Y158217D01*
X26683Y158341D01*
X26493Y158420D01*
Y170145D01*
X26578Y170181D01*
X26679Y170243D01*
X26769Y170319D01*
X26845Y170409D01*
X26905Y170511D01*
X27122Y170980D01*
X27289Y171469D01*
X27409Y171972D01*
X27482Y172484D01*
X27506Y173000D01*
X27482Y173516D01*
X27409Y174028D01*
X27289Y174531D01*
X27122Y175020D01*
X26910Y175492D01*
X26849Y175593D01*
X26772Y175684D01*
X26682Y175761D01*
X26580Y175823D01*
X26493Y175860D01*
Y187580D01*
X26683Y187659D01*
X26884Y187783D01*
X27064Y187936D01*
X27217Y188116D01*
X27341Y188317D01*
X27431Y188535D01*
X27486Y188765D01*
X27500Y189000D01*
X27486Y197235D01*
X27431Y197465D01*
X27341Y197683D01*
X27217Y197884D01*
X27064Y198064D01*
X26884Y198217D01*
X26683Y198341D01*
X26493Y198420D01*
Y227014D01*
X26739Y226870D01*
X27416Y226551D01*
X28119Y226293D01*
X28842Y226097D01*
X29579Y225966D01*
X30326Y225900D01*
X31074D01*
X31820Y225966D01*
X32558Y226097D01*
X33281Y226293D01*
X33984Y226551D01*
X34661Y226870D01*
X35308Y227248D01*
X35545Y227416D01*
Y220004D01*
X35170Y219361D01*
X34851Y218684D01*
X34593Y217981D01*
X34397Y217258D01*
X34266Y216521D01*
X34200Y215774D01*
Y215026D01*
X34266Y214280D01*
X34397Y213542D01*
X34593Y212819D01*
X34851Y212116D01*
X35170Y211439D01*
X35545Y210796D01*
Y42000D01*
G37*
G36*
X26493Y288000D02*X35545D01*
Y241380D01*
X35308Y241552D01*
X34661Y241930D01*
X33984Y242249D01*
X33281Y242507D01*
X32558Y242703D01*
X31820Y242834D01*
X31074Y242900D01*
X30326D01*
X29579Y242834D01*
X28842Y242703D01*
X28119Y242507D01*
X27416Y242249D01*
X26739Y241930D01*
X26493Y241786D01*
Y259367D01*
X26778Y259542D01*
X28763Y261237D01*
X30458Y263222D01*
X31822Y265448D01*
X32821Y267859D01*
X33430Y270398D01*
X33584Y273000D01*
X33430Y275602D01*
X32821Y278141D01*
X31822Y280552D01*
X30458Y282778D01*
X28763Y284763D01*
X26778Y286458D01*
X26493Y286633D01*
Y288000D01*
G37*
G36*
Y198420D02*X26465Y198431D01*
X26235Y198486D01*
X26000Y198500D01*
X23545Y198496D01*
Y229796D01*
X23548Y229792D01*
X23981Y229181D01*
X24034Y229121D01*
X24096Y229072D01*
X24166Y229032D01*
X24240Y229004D01*
X24319Y228988D01*
X24398Y228984D01*
X24478Y228993D01*
X24555Y229014D01*
X24627Y229047D01*
X24694Y229091D01*
X24753Y229144D01*
X24803Y229207D01*
X24843Y229276D01*
X24871Y229351D01*
X24887Y229429D01*
X24891Y229509D01*
X24882Y229588D01*
X24861Y229665D01*
X24828Y229738D01*
X24783Y229804D01*
X24395Y230338D01*
X24062Y230908D01*
X23781Y231505D01*
X23553Y232125D01*
X23545Y232155D01*
Y236645D01*
X23553Y236675D01*
X23781Y237295D01*
X24062Y237892D01*
X24395Y238462D01*
X24777Y239001D01*
X24821Y239066D01*
X24854Y239137D01*
X24875Y239213D01*
X24883Y239291D01*
X24880Y239370D01*
X24864Y239447D01*
X24836Y239521D01*
X24797Y239589D01*
X24748Y239651D01*
X24690Y239704D01*
X24624Y239747D01*
X24552Y239779D01*
X24476Y239800D01*
X24398Y239809D01*
X24319Y239805D01*
X24242Y239789D01*
X24169Y239761D01*
X24100Y239722D01*
X24039Y239673D01*
X23987Y239614D01*
X23548Y239008D01*
X23545Y239004D01*
Y257761D01*
X24552Y258178D01*
X26493Y259367D01*
Y241786D01*
X26092Y241552D01*
X25481Y241119D01*
X25421Y241066D01*
X25372Y241004D01*
X25332Y240934D01*
X25304Y240860D01*
X25288Y240781D01*
X25284Y240702D01*
X25293Y240622D01*
X25314Y240545D01*
X25347Y240473D01*
X25391Y240406D01*
X25444Y240347D01*
X25507Y240297D01*
X25576Y240257D01*
X25651Y240229D01*
X25729Y240213D01*
X25809Y240209D01*
X25888Y240218D01*
X25965Y240239D01*
X26038Y240272D01*
X26104Y240317D01*
X26493Y240599D01*
Y228198D01*
X26099Y228477D01*
X26034Y228521D01*
X25963Y228554D01*
X25887Y228575D01*
X25809Y228583D01*
X25730Y228580D01*
X25653Y228564D01*
X25579Y228536D01*
X25511Y228497D01*
X25449Y228448D01*
X25396Y228390D01*
X25353Y228324D01*
X25321Y228252D01*
X25300Y228176D01*
X25291Y228098D01*
X25295Y228019D01*
X25311Y227942D01*
X25339Y227869D01*
X25378Y227800D01*
X25427Y227739D01*
X25486Y227687D01*
X26092Y227248D01*
X26493Y227014D01*
Y198420D01*
G37*
G36*
X23545Y232155D02*X23381Y232762D01*
X23265Y233412D01*
X23207Y234070D01*
Y234730D01*
X23265Y235388D01*
X23381Y236038D01*
X23545Y236645D01*
Y232155D01*
G37*
G36*
Y198496D02*X22000Y198493D01*
Y257145D01*
X22141Y257179D01*
X23545Y257761D01*
Y239004D01*
X23170Y238361D01*
X22851Y237684D01*
X22593Y236981D01*
X22397Y236258D01*
X22266Y235521D01*
X22200Y234774D01*
Y234026D01*
X22266Y233280D01*
X22397Y232542D01*
X22593Y231819D01*
X22851Y231116D01*
X23170Y230439D01*
X23545Y229796D01*
Y198496D01*
G37*
G36*
X26493Y158420D02*X26465Y158431D01*
X26235Y158486D01*
X26000Y158500D01*
X22000Y158493D01*
Y167494D01*
X22516Y167518D01*
X23028Y167591D01*
X23531Y167711D01*
X24020Y167878D01*
X24492Y168090D01*
X24593Y168151D01*
X24684Y168228D01*
X24761Y168318D01*
X24823Y168420D01*
X24869Y168529D01*
X24897Y168645D01*
X24906Y168763D01*
X24897Y168881D01*
X24870Y168997D01*
X24824Y169107D01*
X24762Y169208D01*
X24686Y169298D01*
X24595Y169376D01*
X24494Y169438D01*
X24385Y169484D01*
X24269Y169511D01*
X24151Y169521D01*
X24032Y169512D01*
X23917Y169484D01*
X23808Y169437D01*
X23468Y169279D01*
X23112Y169158D01*
X22747Y169070D01*
X22375Y169018D01*
X22000Y169000D01*
Y177000D01*
X22375Y176982D01*
X22747Y176930D01*
X23112Y176842D01*
X23468Y176721D01*
X23810Y176567D01*
X23918Y176520D01*
X24033Y176493D01*
X24151Y176483D01*
X24268Y176493D01*
X24383Y176521D01*
X24492Y176566D01*
X24593Y176628D01*
X24682Y176705D01*
X24759Y176795D01*
X24820Y176895D01*
X24865Y177004D01*
X24893Y177119D01*
X24902Y177237D01*
X24892Y177355D01*
X24865Y177469D01*
X24819Y177578D01*
X24757Y177679D01*
X24681Y177769D01*
X24591Y177845D01*
X24489Y177905D01*
X24020Y178122D01*
X23531Y178289D01*
X23028Y178409D01*
X22516Y178482D01*
X22000Y178506D01*
Y187507D01*
X26235Y187514D01*
X26465Y187569D01*
X26493Y187580D01*
Y175860D01*
X26471Y175869D01*
X26355Y175897D01*
X26237Y175906D01*
X26119Y175897D01*
X26003Y175870D01*
X25893Y175824D01*
X25792Y175762D01*
X25702Y175686D01*
X25624Y175595D01*
X25562Y175494D01*
X25516Y175385D01*
X25489Y175269D01*
X25479Y175151D01*
X25488Y175032D01*
X25516Y174917D01*
X25563Y174808D01*
X25721Y174468D01*
X25842Y174112D01*
X25930Y173747D01*
X25982Y173375D01*
X26000Y173000D01*
X25982Y172625D01*
X25930Y172253D01*
X25842Y171888D01*
X25721Y171532D01*
X25567Y171190D01*
X25520Y171082D01*
X25493Y170967D01*
X25483Y170849D01*
X25493Y170732D01*
X25521Y170617D01*
X25566Y170508D01*
X25628Y170407D01*
X25705Y170318D01*
X25795Y170241D01*
X25895Y170180D01*
X26004Y170135D01*
X26119Y170107D01*
X26237Y170098D01*
X26355Y170108D01*
X26469Y170135D01*
X26493Y170145D01*
Y158420D01*
G37*
G36*
Y136195D02*X26463Y136243D01*
X25901Y136901D01*
X25243Y137463D01*
X24505Y137916D01*
X23705Y138247D01*
X22863Y138449D01*
X22000Y138517D01*
Y147507D01*
X26235Y147514D01*
X26465Y147569D01*
X26493Y147580D01*
Y136195D01*
G37*
G36*
Y70250D02*X24598Y71411D01*
X22172Y72416D01*
X22000Y72458D01*
Y127483D01*
X22863Y127551D01*
X23705Y127753D01*
X24505Y128084D01*
X25243Y128537D01*
X25901Y129099D01*
X26463Y129757D01*
X26493Y129805D01*
Y70250D01*
G37*
G36*
Y42000D02*X25269D01*
X26493Y42750D01*
Y42000D01*
G37*
G36*
X24123Y288000D02*X26493D01*
Y286633D01*
X24552Y287822D01*
X24123Y288000D01*
G37*
G36*
X17507Y147580D02*X17535Y147569D01*
X17765Y147514D01*
X18000Y147500D01*
X22000Y147507D01*
Y138517D01*
X21137Y138449D01*
X20295Y138247D01*
X19495Y137916D01*
X18757Y137463D01*
X18099Y136901D01*
X17537Y136243D01*
X17507Y136195D01*
Y147580D01*
G37*
G36*
Y187580D02*X17535Y187569D01*
X17765Y187514D01*
X18000Y187500D01*
X22000Y187507D01*
Y178506D01*
X22000D01*
X21484Y178482D01*
X20972Y178409D01*
X20469Y178289D01*
X19980Y178122D01*
X19508Y177910D01*
X19407Y177849D01*
X19316Y177772D01*
X19239Y177682D01*
X19177Y177580D01*
X19131Y177471D01*
X19103Y177355D01*
X19094Y177237D01*
X19103Y177119D01*
X19130Y177003D01*
X19176Y176893D01*
X19238Y176792D01*
X19314Y176702D01*
X19405Y176624D01*
X19506Y176562D01*
X19615Y176516D01*
X19731Y176489D01*
X19849Y176479D01*
X19968Y176488D01*
X20083Y176516D01*
X20192Y176563D01*
X20532Y176721D01*
X20888Y176842D01*
X21253Y176930D01*
X21625Y176982D01*
X22000Y177000D01*
Y169000D01*
X21625Y169018D01*
X21253Y169070D01*
X20888Y169158D01*
X20532Y169279D01*
X20190Y169433D01*
X20082Y169480D01*
X19967Y169507D01*
X19849Y169517D01*
X19732Y169507D01*
X19617Y169479D01*
X19508Y169434D01*
X19407Y169372D01*
X19318Y169295D01*
X19241Y169205D01*
X19180Y169105D01*
X19135Y168996D01*
X19107Y168881D01*
X19098Y168763D01*
X19108Y168645D01*
X19135Y168531D01*
X19181Y168422D01*
X19243Y168321D01*
X19319Y168231D01*
X19409Y168155D01*
X19511Y168095D01*
X19980Y167878D01*
X20469Y167711D01*
X20972Y167591D01*
X21484Y167518D01*
X22000Y167494D01*
X22000D01*
Y158493D01*
X17765Y158486D01*
X17535Y158431D01*
X17507Y158420D01*
Y170140D01*
X17529Y170131D01*
X17645Y170103D01*
X17763Y170094D01*
X17881Y170103D01*
X17997Y170130D01*
X18107Y170176D01*
X18208Y170238D01*
X18298Y170314D01*
X18376Y170405D01*
X18438Y170506D01*
X18484Y170615D01*
X18511Y170731D01*
X18521Y170849D01*
X18512Y170968D01*
X18484Y171083D01*
X18437Y171192D01*
X18279Y171532D01*
X18158Y171888D01*
X18070Y172253D01*
X18018Y172625D01*
X18000Y173000D01*
X18018Y173375D01*
X18070Y173747D01*
X18158Y174112D01*
X18279Y174468D01*
X18433Y174810D01*
X18480Y174918D01*
X18507Y175033D01*
X18517Y175151D01*
X18507Y175268D01*
X18479Y175383D01*
X18434Y175492D01*
X18372Y175593D01*
X18295Y175682D01*
X18205Y175759D01*
X18105Y175820D01*
X17996Y175865D01*
X17881Y175893D01*
X17763Y175902D01*
X17645Y175892D01*
X17531Y175865D01*
X17507Y175855D01*
Y187580D01*
G37*
G36*
Y256405D02*X19602Y256570D01*
X22000Y257145D01*
Y198493D01*
X17765Y198486D01*
X17535Y198431D01*
X17507Y198420D01*
Y256405D01*
G37*
G36*
X22000Y72458D02*X19618Y73029D01*
X17507Y73196D01*
Y129805D01*
X17537Y129757D01*
X18099Y129099D01*
X18757Y128537D01*
X19495Y128084D01*
X20295Y127753D01*
X21137Y127551D01*
X22000Y127483D01*
Y72458D01*
G37*
G36*
X17507Y73196D02*X17000Y73235D01*
X14382Y73029D01*
X11828Y72416D01*
X9402Y71411D01*
X7163Y70039D01*
X5166Y68334D01*
X3461Y66337D01*
X2089Y64098D01*
X2000Y63884D01*
Y265877D01*
X2178Y265448D01*
X3542Y263222D01*
X5237Y261237D01*
X7222Y259542D01*
X9448Y258178D01*
X11859Y257179D01*
X14398Y256570D01*
X17000Y256365D01*
X17507Y256405D01*
Y198420D01*
X17317Y198341D01*
X17116Y198217D01*
X16936Y198064D01*
X16783Y197884D01*
X16659Y197683D01*
X16569Y197465D01*
X16514Y197235D01*
X16500Y197000D01*
X16514Y188765D01*
X16569Y188535D01*
X16659Y188317D01*
X16783Y188116D01*
X16936Y187936D01*
X17116Y187783D01*
X17317Y187659D01*
X17507Y187580D01*
Y175855D01*
X17422Y175819D01*
X17321Y175757D01*
X17231Y175681D01*
X17155Y175591D01*
X17095Y175489D01*
X16878Y175020D01*
X16711Y174531D01*
X16591Y174028D01*
X16518Y173516D01*
X16494Y173000D01*
X16518Y172484D01*
X16591Y171972D01*
X16711Y171469D01*
X16878Y170980D01*
X17090Y170508D01*
X17151Y170407D01*
X17228Y170316D01*
X17318Y170239D01*
X17420Y170177D01*
X17507Y170140D01*
Y158420D01*
X17317Y158341D01*
X17116Y158217D01*
X16936Y158064D01*
X16783Y157884D01*
X16659Y157683D01*
X16569Y157465D01*
X16514Y157235D01*
X16500Y157000D01*
X16514Y148765D01*
X16569Y148535D01*
X16659Y148317D01*
X16783Y148116D01*
X16936Y147936D01*
X17116Y147783D01*
X17317Y147659D01*
X17507Y147580D01*
Y136195D01*
X17084Y135505D01*
X16753Y134705D01*
X16551Y133863D01*
X16483Y133000D01*
X16551Y132137D01*
X16753Y131295D01*
X17084Y130495D01*
X17507Y129805D01*
Y73196D01*
G37*
G36*
X93258Y288000D02*X116500D01*
Y42000D01*
X93258D01*
Y255064D01*
X93500Y255045D01*
X94432Y255118D01*
X95340Y255336D01*
X96204Y255694D01*
X97000Y256182D01*
X97711Y256789D01*
X98318Y257500D01*
X98806Y258296D01*
X99164Y259160D01*
X99382Y260068D01*
X99437Y261000D01*
X99382Y261932D01*
X99164Y262840D01*
X98806Y263704D01*
X98318Y264500D01*
X97711Y265211D01*
X97000Y265818D01*
X96204Y266306D01*
X95340Y266664D01*
X94432Y266882D01*
X93500Y266955D01*
X93258Y266936D01*
Y288000D01*
G37*
G36*
X83502D02*X93258D01*
Y266936D01*
X92568Y266882D01*
X91660Y266664D01*
X90796Y266306D01*
X90000Y265818D01*
X89289Y265211D01*
X88682Y264500D01*
X88265Y263821D01*
X88176Y263836D01*
X88018Y263838D01*
X87861Y263815D01*
X87710Y263768D01*
X87569Y263698D01*
X87439Y263607D01*
X87326Y263496D01*
X87232Y263370D01*
X87158Y263230D01*
X87108Y263080D01*
X87081Y262924D01*
X87079Y262766D01*
X87102Y262610D01*
X87152Y262460D01*
X87278Y262108D01*
X87366Y261744D01*
X87419Y261374D01*
X87437Y261000D01*
X87419Y260626D01*
X87366Y260256D01*
X87278Y259892D01*
X87156Y259539D01*
X87106Y259389D01*
X87083Y259234D01*
X87085Y259076D01*
X87112Y258921D01*
X87162Y258772D01*
X87236Y258633D01*
X87330Y258507D01*
X87442Y258397D01*
X87571Y258306D01*
X87712Y258236D01*
X87862Y258189D01*
X88018Y258167D01*
X88175Y258168D01*
X88263Y258183D01*
X88682Y257500D01*
X89289Y256789D01*
X90000Y256182D01*
X90796Y255694D01*
X91660Y255336D01*
X92568Y255118D01*
X93258Y255064D01*
Y42000D01*
X83502D01*
Y255056D01*
X84064Y255083D01*
X84623Y255163D01*
X85172Y255296D01*
X85706Y255481D01*
X85848Y255550D01*
X85977Y255642D01*
X86091Y255752D01*
X86185Y255879D01*
X86259Y256019D01*
X86309Y256168D01*
X86336Y256324D01*
X86338Y256482D01*
X86315Y256639D01*
X86268Y256790D01*
X86198Y256931D01*
X86107Y257061D01*
X85996Y257174D01*
X85870Y257268D01*
X85730Y257342D01*
X85580Y257392D01*
X85424Y257419D01*
X85266Y257421D01*
X85110Y257398D01*
X84960Y257348D01*
X84608Y257222D01*
X84244Y257134D01*
X83874Y257081D01*
X83502Y257063D01*
Y264937D01*
X83874Y264919D01*
X84244Y264866D01*
X84608Y264778D01*
X84961Y264656D01*
X85111Y264606D01*
X85266Y264583D01*
X85424Y264585D01*
X85579Y264612D01*
X85728Y264662D01*
X85867Y264736D01*
X85993Y264830D01*
X86103Y264942D01*
X86194Y265071D01*
X86264Y265212D01*
X86311Y265362D01*
X86333Y265518D01*
X86332Y265675D01*
X86305Y265831D01*
X86254Y265980D01*
X86181Y266119D01*
X86087Y266245D01*
X85975Y266355D01*
X85846Y266446D01*
X85704Y266513D01*
X85172Y266704D01*
X84623Y266837D01*
X84064Y266917D01*
X83502Y266944D01*
Y288000D01*
G37*
G36*
X73742D02*X83502D01*
Y266944D01*
X83500Y266944D01*
X82936Y266917D01*
X82377Y266837D01*
X81828Y266704D01*
X81294Y266519D01*
X81152Y266450D01*
X81023Y266358D01*
X80909Y266248D01*
X80815Y266121D01*
X80741Y265981D01*
X80691Y265832D01*
X80664Y265676D01*
X80662Y265518D01*
X80685Y265361D01*
X80732Y265210D01*
X80802Y265069D01*
X80893Y264939D01*
X81004Y264826D01*
X81130Y264732D01*
X81270Y264658D01*
X81420Y264608D01*
X81576Y264581D01*
X81734Y264579D01*
X81890Y264602D01*
X82040Y264652D01*
X82392Y264778D01*
X82756Y264866D01*
X83126Y264919D01*
X83500Y264937D01*
X83502Y264937D01*
Y257063D01*
X83500Y257063D01*
X83126Y257081D01*
X82756Y257134D01*
X82392Y257222D01*
X82039Y257344D01*
X81889Y257394D01*
X81734Y257417D01*
X81576Y257415D01*
X81421Y257388D01*
X81272Y257338D01*
X81133Y257264D01*
X81007Y257170D01*
X80897Y257058D01*
X80806Y256929D01*
X80736Y256788D01*
X80689Y256638D01*
X80667Y256482D01*
X80668Y256325D01*
X80695Y256169D01*
X80746Y256020D01*
X80819Y255881D01*
X80913Y255755D01*
X81025Y255645D01*
X81154Y255554D01*
X81296Y255487D01*
X81828Y255296D01*
X82377Y255163D01*
X82936Y255083D01*
X83500Y255056D01*
X83502Y255056D01*
Y42000D01*
X73742D01*
Y255072D01*
X77751Y255082D01*
X78057Y255155D01*
X78348Y255275D01*
X78616Y255440D01*
X78856Y255644D01*
X79060Y255884D01*
X79225Y256152D01*
X79345Y256443D01*
X79418Y256749D01*
X79437Y257063D01*
X79434Y258304D01*
X79561Y258393D01*
X79674Y258504D01*
X79768Y258630D01*
X79842Y258770D01*
X79892Y258920D01*
X79919Y259076D01*
X79921Y259234D01*
X79898Y259390D01*
X79848Y259540D01*
X79722Y259892D01*
X79634Y260256D01*
X79581Y260626D01*
X79563Y261000D01*
X79581Y261374D01*
X79634Y261744D01*
X79722Y262108D01*
X79844Y262461D01*
X79894Y262611D01*
X79917Y262766D01*
X79915Y262924D01*
X79888Y263079D01*
X79838Y263228D01*
X79764Y263367D01*
X79670Y263493D01*
X79558Y263603D01*
X79429Y263694D01*
X79422Y263698D01*
X79418Y265251D01*
X79345Y265557D01*
X79225Y265848D01*
X79060Y266116D01*
X78856Y266356D01*
X78616Y266560D01*
X78348Y266725D01*
X78057Y266845D01*
X77751Y266918D01*
X77437Y266937D01*
X73742Y266929D01*
Y288000D01*
G37*
G36*
X54685D02*X73742D01*
Y266929D01*
X69249Y266918D01*
X68943Y266845D01*
X68652Y266725D01*
X68384Y266560D01*
X68144Y266356D01*
X67940Y266116D01*
X67775Y265848D01*
X67655Y265557D01*
X67582Y265251D01*
X67563Y264937D01*
X67582Y256749D01*
X67655Y256443D01*
X67775Y256152D01*
X67940Y255884D01*
X68144Y255644D01*
X68384Y255440D01*
X68652Y255275D01*
X68943Y255155D01*
X69249Y255082D01*
X69563Y255063D01*
X73742Y255072D01*
Y42000D01*
X54685D01*
Y224621D01*
X54700Y224620D01*
X56230Y224740D01*
X57722Y225099D01*
X59140Y225686D01*
X60449Y226488D01*
X61616Y227484D01*
X62612Y228651D01*
X63414Y229960D01*
X64001Y231378D01*
X64360Y232870D01*
X64450Y234400D01*
X64360Y235930D01*
X64001Y237422D01*
X63414Y238840D01*
X62612Y240149D01*
X61616Y241316D01*
X60449Y242312D01*
X59140Y243114D01*
X57722Y243701D01*
X56230Y244060D01*
X54700Y244180D01*
X54685Y244179D01*
Y288000D01*
G37*
G36*
X37855Y236645D02*X38019Y236038D01*
X38135Y235388D01*
X38193Y234730D01*
Y234070D01*
X38135Y233412D01*
X38019Y232762D01*
X37855Y232155D01*
Y236645D01*
G37*
G36*
X49855Y217645D02*X50019Y217038D01*
X50135Y216388D01*
X50193Y215730D01*
Y215070D01*
X50135Y214412D01*
X50019Y213762D01*
X49855Y213155D01*
Y217645D01*
G37*
G36*
Y225934D02*X50260Y225686D01*
X51678Y225099D01*
X53170Y224740D01*
X54685Y224621D01*
Y42000D01*
X49855D01*
Y210796D01*
X50230Y211439D01*
X50549Y212116D01*
X50807Y212819D01*
X51003Y213542D01*
X51134Y214280D01*
X51200Y215026D01*
Y215774D01*
X51134Y216521D01*
X51003Y217258D01*
X50807Y217981D01*
X50549Y218684D01*
X50230Y219361D01*
X49855Y220004D01*
Y225934D01*
G37*
G36*
Y288000D02*X54685D01*
Y244179D01*
X53170Y244060D01*
X51678Y243701D01*
X50260Y243114D01*
X49855Y242866D01*
Y288000D01*
G37*
G36*
X37855D02*X49855D01*
Y242866D01*
X48951Y242312D01*
X47784Y241316D01*
X46788Y240149D01*
X45986Y238840D01*
X45399Y237422D01*
X45040Y235930D01*
X44920Y234400D01*
X45040Y232870D01*
X45399Y231378D01*
X45986Y229960D01*
X46788Y228651D01*
X47784Y227484D01*
X48951Y226488D01*
X49855Y225934D01*
Y220004D01*
X49852Y220008D01*
X49419Y220619D01*
X49366Y220679D01*
X49304Y220728D01*
X49234Y220768D01*
X49160Y220796D01*
X49081Y220812D01*
X49002Y220816D01*
X48922Y220807D01*
X48845Y220786D01*
X48773Y220753D01*
X48706Y220709D01*
X48647Y220656D01*
X48597Y220593D01*
X48557Y220524D01*
X48529Y220449D01*
X48513Y220371D01*
X48509Y220291D01*
X48518Y220212D01*
X48539Y220135D01*
X48572Y220062D01*
X48617Y219996D01*
X49005Y219462D01*
X49338Y218892D01*
X49619Y218295D01*
X49847Y217675D01*
X49855Y217645D01*
Y213155D01*
X49847Y213125D01*
X49619Y212505D01*
X49338Y211908D01*
X49005Y211338D01*
X48623Y210799D01*
X48579Y210734D01*
X48546Y210663D01*
X48525Y210587D01*
X48517Y210509D01*
X48520Y210430D01*
X48536Y210353D01*
X48564Y210279D01*
X48603Y210211D01*
X48652Y210149D01*
X48710Y210096D01*
X48776Y210053D01*
X48848Y210021D01*
X48924Y210000D01*
X49002Y209991D01*
X49081Y209995D01*
X49158Y210011D01*
X49231Y210039D01*
X49300Y210078D01*
X49361Y210127D01*
X49413Y210186D01*
X49852Y210792D01*
X49855Y210796D01*
Y42000D01*
X37855D01*
Y208420D01*
X38092Y208248D01*
X38739Y207870D01*
X39416Y207551D01*
X40119Y207293D01*
X40842Y207097D01*
X41579Y206966D01*
X42326Y206900D01*
X43074D01*
X43820Y206966D01*
X44558Y207097D01*
X45281Y207293D01*
X45984Y207551D01*
X46661Y207870D01*
X47308Y208248D01*
X47919Y208681D01*
X47979Y208734D01*
X48028Y208796D01*
X48068Y208866D01*
X48096Y208940D01*
X48112Y209019D01*
X48116Y209098D01*
X48107Y209178D01*
X48086Y209255D01*
X48053Y209327D01*
X48009Y209394D01*
X47956Y209453D01*
X47893Y209503D01*
X47824Y209543D01*
X47749Y209571D01*
X47671Y209587D01*
X47591Y209591D01*
X47512Y209582D01*
X47435Y209561D01*
X47362Y209528D01*
X47296Y209483D01*
X46762Y209095D01*
X46192Y208762D01*
X45595Y208481D01*
X44975Y208253D01*
X44338Y208081D01*
X43688Y207965D01*
X43030Y207907D01*
X42370D01*
X41712Y207965D01*
X41062Y208081D01*
X40425Y208253D01*
X39805Y208481D01*
X39208Y208762D01*
X38638Y209095D01*
X38099Y209477D01*
X38034Y209521D01*
X37963Y209554D01*
X37887Y209575D01*
X37855Y209578D01*
Y221215D01*
X37888Y221218D01*
X37965Y221239D01*
X38038Y221272D01*
X38104Y221317D01*
X38638Y221705D01*
X39208Y222038D01*
X39805Y222319D01*
X40425Y222547D01*
X41062Y222719D01*
X41712Y222835D01*
X42370Y222893D01*
X43030D01*
X43688Y222835D01*
X44338Y222719D01*
X44975Y222547D01*
X45595Y222319D01*
X46192Y222038D01*
X46762Y221705D01*
X47301Y221323D01*
X47366Y221279D01*
X47437Y221246D01*
X47513Y221225D01*
X47591Y221217D01*
X47670Y221220D01*
X47747Y221236D01*
X47821Y221264D01*
X47889Y221303D01*
X47951Y221352D01*
X48004Y221410D01*
X48047Y221476D01*
X48079Y221548D01*
X48100Y221624D01*
X48109Y221702D01*
X48105Y221781D01*
X48089Y221858D01*
X48061Y221931D01*
X48022Y222000D01*
X47973Y222061D01*
X47914Y222113D01*
X47308Y222552D01*
X46661Y222930D01*
X45984Y223249D01*
X45281Y223507D01*
X44558Y223703D01*
X43820Y223834D01*
X43074Y223900D01*
X42326D01*
X41579Y223834D01*
X40842Y223703D01*
X40119Y223507D01*
X39416Y223249D01*
X38739Y222930D01*
X38092Y222552D01*
X37855Y222384D01*
Y229796D01*
X38230Y230439D01*
X38549Y231116D01*
X38807Y231819D01*
X39003Y232542D01*
X39134Y233280D01*
X39200Y234026D01*
Y234774D01*
X39134Y235521D01*
X39003Y236258D01*
X38807Y236981D01*
X38549Y237684D01*
X38230Y238361D01*
X37855Y239004D01*
Y288000D01*
G37*
G36*
X35545D02*X37855D01*
Y239004D01*
X37852Y239008D01*
X37419Y239619D01*
X37366Y239679D01*
X37304Y239728D01*
X37234Y239768D01*
X37160Y239796D01*
X37081Y239812D01*
X37002Y239816D01*
X36922Y239807D01*
X36845Y239786D01*
X36773Y239753D01*
X36706Y239709D01*
X36647Y239656D01*
X36597Y239593D01*
X36557Y239524D01*
X36529Y239449D01*
X36513Y239371D01*
X36509Y239291D01*
X36518Y239212D01*
X36539Y239135D01*
X36572Y239062D01*
X36617Y238996D01*
X37005Y238462D01*
X37338Y237892D01*
X37619Y237295D01*
X37847Y236675D01*
X37855Y236645D01*
Y232155D01*
X37847Y232125D01*
X37619Y231505D01*
X37338Y230908D01*
X37005Y230338D01*
X36623Y229799D01*
X36579Y229734D01*
X36546Y229663D01*
X36525Y229587D01*
X36517Y229509D01*
X36520Y229430D01*
X36536Y229353D01*
X36564Y229279D01*
X36603Y229211D01*
X36652Y229149D01*
X36710Y229096D01*
X36776Y229053D01*
X36848Y229021D01*
X36924Y229000D01*
X37002Y228991D01*
X37081Y228995D01*
X37158Y229011D01*
X37231Y229039D01*
X37300Y229078D01*
X37361Y229127D01*
X37413Y229186D01*
X37852Y229792D01*
X37855Y229796D01*
Y222384D01*
X37481Y222119D01*
X37421Y222066D01*
X37372Y222004D01*
X37332Y221934D01*
X37304Y221860D01*
X37288Y221781D01*
X37284Y221702D01*
X37293Y221622D01*
X37314Y221545D01*
X37347Y221473D01*
X37391Y221406D01*
X37444Y221347D01*
X37507Y221297D01*
X37576Y221257D01*
X37651Y221229D01*
X37729Y221213D01*
X37809Y221209D01*
X37855Y221215D01*
Y209578D01*
X37809Y209583D01*
X37730Y209580D01*
X37653Y209564D01*
X37579Y209536D01*
X37511Y209497D01*
X37449Y209448D01*
X37396Y209390D01*
X37353Y209324D01*
X37321Y209252D01*
X37300Y209176D01*
X37291Y209098D01*
X37295Y209019D01*
X37311Y208942D01*
X37339Y208869D01*
X37378Y208800D01*
X37427Y208739D01*
X37486Y208687D01*
X37855Y208420D01*
Y42000D01*
X35545D01*
Y210796D01*
X35548Y210792D01*
X35981Y210181D01*
X36034Y210121D01*
X36096Y210072D01*
X36166Y210032D01*
X36240Y210004D01*
X36319Y209988D01*
X36398Y209984D01*
X36478Y209993D01*
X36555Y210014D01*
X36627Y210047D01*
X36694Y210091D01*
X36753Y210144D01*
X36803Y210207D01*
X36843Y210276D01*
X36871Y210351D01*
X36887Y210429D01*
X36891Y210509D01*
X36882Y210588D01*
X36861Y210665D01*
X36828Y210738D01*
X36783Y210804D01*
X36395Y211338D01*
X36062Y211908D01*
X35781Y212505D01*
X35553Y213125D01*
X35545Y213155D01*
Y217645D01*
X35553Y217675D01*
X35781Y218295D01*
X36062Y218892D01*
X36395Y219462D01*
X36777Y220001D01*
X36821Y220066D01*
X36854Y220137D01*
X36875Y220213D01*
X36883Y220291D01*
X36880Y220370D01*
X36864Y220447D01*
X36836Y220521D01*
X36797Y220589D01*
X36748Y220651D01*
X36690Y220704D01*
X36624Y220747D01*
X36552Y220779D01*
X36476Y220800D01*
X36398Y220809D01*
X36319Y220805D01*
X36242Y220789D01*
X36169Y220761D01*
X36100Y220722D01*
X36039Y220673D01*
X35987Y220614D01*
X35548Y220008D01*
X35545Y220004D01*
Y227416D01*
X35919Y227681D01*
X35979Y227734D01*
X36028Y227796D01*
X36068Y227866D01*
X36096Y227940D01*
X36112Y228019D01*
X36116Y228098D01*
X36107Y228178D01*
X36086Y228255D01*
X36053Y228327D01*
X36009Y228394D01*
X35956Y228453D01*
X35893Y228503D01*
X35824Y228543D01*
X35749Y228571D01*
X35671Y228587D01*
X35591Y228591D01*
X35545Y228586D01*
Y240222D01*
X35591Y240217D01*
X35670Y240220D01*
X35747Y240236D01*
X35821Y240264D01*
X35889Y240303D01*
X35951Y240352D01*
X36004Y240410D01*
X36047Y240476D01*
X36079Y240548D01*
X36100Y240624D01*
X36109Y240702D01*
X36105Y240781D01*
X36089Y240858D01*
X36061Y240931D01*
X36022Y241000D01*
X35973Y241061D01*
X35914Y241113D01*
X35545Y241380D01*
Y288000D01*
G37*
G36*
Y213155D02*X35381Y213762D01*
X35265Y214412D01*
X35207Y215070D01*
Y215730D01*
X35265Y216388D01*
X35381Y217038D01*
X35545Y217645D01*
Y213155D01*
G37*
G36*
Y228586D02*X35512Y228582D01*
X35435Y228561D01*
X35362Y228528D01*
X35296Y228483D01*
X34762Y228095D01*
X34192Y227762D01*
X33595Y227481D01*
X32975Y227253D01*
X32338Y227081D01*
X31688Y226965D01*
X31030Y226907D01*
X30370D01*
X29712Y226965D01*
X29062Y227081D01*
X28425Y227253D01*
X27805Y227481D01*
X27208Y227762D01*
X26638Y228095D01*
X26493Y228198D01*
Y240599D01*
X26638Y240705D01*
X27208Y241038D01*
X27805Y241319D01*
X28425Y241547D01*
X29062Y241719D01*
X29712Y241835D01*
X30370Y241893D01*
X31030D01*
X31688Y241835D01*
X32338Y241719D01*
X32975Y241547D01*
X33595Y241319D01*
X34192Y241038D01*
X34762Y240705D01*
X35301Y240323D01*
X35366Y240279D01*
X35437Y240246D01*
X35513Y240225D01*
X35545Y240222D01*
Y228586D01*
G37*
G36*
Y42000D02*X26493D01*
Y42750D01*
X26837Y42961D01*
X28834Y44666D01*
X30539Y46663D01*
X31911Y48902D01*
X32916Y51328D01*
X33529Y53882D01*
X33684Y56500D01*
X33529Y59118D01*
X32916Y61672D01*
X31911Y64098D01*
X30539Y66337D01*
X28834Y68334D01*
X26837Y70039D01*
X26493Y70250D01*
Y129805D01*
X26916Y130495D01*
X27247Y131295D01*
X27449Y132137D01*
X27500Y133000D01*
X27449Y133863D01*
X27247Y134705D01*
X26916Y135505D01*
X26493Y136195D01*
Y147580D01*
X26683Y147659D01*
X26884Y147783D01*
X27064Y147936D01*
X27217Y148116D01*
X27341Y148317D01*
X27431Y148535D01*
X27486Y148765D01*
X27500Y149000D01*
X27486Y157235D01*
X27431Y157465D01*
X27341Y157683D01*
X27217Y157884D01*
X27064Y158064D01*
X26884Y158217D01*
X26683Y158341D01*
X26493Y158420D01*
Y170145D01*
X26578Y170181D01*
X26679Y170243D01*
X26769Y170319D01*
X26845Y170409D01*
X26905Y170511D01*
X27122Y170980D01*
X27289Y171469D01*
X27409Y171972D01*
X27482Y172484D01*
X27506Y173000D01*
X27482Y173516D01*
X27409Y174028D01*
X27289Y174531D01*
X27122Y175020D01*
X26910Y175492D01*
X26849Y175593D01*
X26772Y175684D01*
X26682Y175761D01*
X26580Y175823D01*
X26493Y175860D01*
Y187580D01*
X26683Y187659D01*
X26884Y187783D01*
X27064Y187936D01*
X27217Y188116D01*
X27341Y188317D01*
X27431Y188535D01*
X27486Y188765D01*
X27500Y189000D01*
X27486Y197235D01*
X27431Y197465D01*
X27341Y197683D01*
X27217Y197884D01*
X27064Y198064D01*
X26884Y198217D01*
X26683Y198341D01*
X26493Y198420D01*
Y227014D01*
X26739Y226870D01*
X27416Y226551D01*
X28119Y226293D01*
X28842Y226097D01*
X29579Y225966D01*
X30326Y225900D01*
X31074D01*
X31820Y225966D01*
X32558Y226097D01*
X33281Y226293D01*
X33984Y226551D01*
X34661Y226870D01*
X35308Y227248D01*
X35545Y227416D01*
Y220004D01*
X35170Y219361D01*
X34851Y218684D01*
X34593Y217981D01*
X34397Y217258D01*
X34266Y216521D01*
X34200Y215774D01*
Y215026D01*
X34266Y214280D01*
X34397Y213542D01*
X34593Y212819D01*
X34851Y212116D01*
X35170Y211439D01*
X35545Y210796D01*
Y42000D01*
G37*
G36*
X26493Y288000D02*X35545D01*
Y241380D01*
X35308Y241552D01*
X34661Y241930D01*
X33984Y242249D01*
X33281Y242507D01*
X32558Y242703D01*
X31820Y242834D01*
X31074Y242900D01*
X30326D01*
X29579Y242834D01*
X28842Y242703D01*
X28119Y242507D01*
X27416Y242249D01*
X26739Y241930D01*
X26493Y241786D01*
Y259367D01*
X26778Y259542D01*
X28763Y261237D01*
X30458Y263222D01*
X31822Y265448D01*
X32821Y267859D01*
X33430Y270398D01*
X33584Y273000D01*
X33430Y275602D01*
X32821Y278141D01*
X31822Y280552D01*
X30458Y282778D01*
X28763Y284763D01*
X26778Y286458D01*
X26493Y286633D01*
Y288000D01*
G37*
G36*
Y198420D02*X26465Y198431D01*
X26235Y198486D01*
X26000Y198500D01*
X24500Y198497D01*
Y228999D01*
X24555Y229014D01*
X24627Y229047D01*
X24694Y229091D01*
X24753Y229144D01*
X24803Y229207D01*
X24843Y229276D01*
X24871Y229351D01*
X24887Y229429D01*
X24891Y229509D01*
X24882Y229588D01*
X24861Y229665D01*
X24828Y229738D01*
X24783Y229804D01*
X24500Y230194D01*
Y238610D01*
X24777Y239001D01*
X24821Y239066D01*
X24854Y239137D01*
X24875Y239213D01*
X24883Y239291D01*
X24880Y239370D01*
X24864Y239447D01*
X24836Y239521D01*
X24797Y239589D01*
X24748Y239651D01*
X24690Y239704D01*
X24624Y239747D01*
X24552Y239779D01*
X24500Y239794D01*
Y258156D01*
X24552Y258178D01*
X26493Y259367D01*
Y241786D01*
X26092Y241552D01*
X25481Y241119D01*
X25421Y241066D01*
X25372Y241004D01*
X25332Y240934D01*
X25304Y240860D01*
X25288Y240781D01*
X25284Y240702D01*
X25293Y240622D01*
X25314Y240545D01*
X25347Y240473D01*
X25391Y240406D01*
X25444Y240347D01*
X25507Y240297D01*
X25576Y240257D01*
X25651Y240229D01*
X25729Y240213D01*
X25809Y240209D01*
X25888Y240218D01*
X25965Y240239D01*
X26038Y240272D01*
X26104Y240317D01*
X26493Y240599D01*
Y228198D01*
X26099Y228477D01*
X26034Y228521D01*
X25963Y228554D01*
X25887Y228575D01*
X25809Y228583D01*
X25730Y228580D01*
X25653Y228564D01*
X25579Y228536D01*
X25511Y228497D01*
X25449Y228448D01*
X25396Y228390D01*
X25353Y228324D01*
X25321Y228252D01*
X25300Y228176D01*
X25291Y228098D01*
X25295Y228019D01*
X25311Y227942D01*
X25339Y227869D01*
X25378Y227800D01*
X25427Y227739D01*
X25486Y227687D01*
X26092Y227248D01*
X26493Y227014D01*
Y198420D01*
G37*
G36*
Y158420D02*X26465Y158431D01*
X26235Y158486D01*
X26000Y158500D01*
X24500Y158497D01*
Y168095D01*
X24593Y168151D01*
X24684Y168228D01*
X24761Y168318D01*
X24823Y168420D01*
X24869Y168529D01*
X24897Y168645D01*
X24906Y168763D01*
X24897Y168881D01*
X24870Y168997D01*
X24824Y169107D01*
X24762Y169208D01*
X24686Y169298D01*
X24595Y169376D01*
X24500Y169434D01*
Y176571D01*
X24593Y176628D01*
X24682Y176705D01*
X24759Y176795D01*
X24820Y176895D01*
X24865Y177004D01*
X24893Y177119D01*
X24902Y177237D01*
X24892Y177355D01*
X24865Y177469D01*
X24819Y177578D01*
X24757Y177679D01*
X24681Y177769D01*
X24591Y177845D01*
X24500Y177898D01*
Y187511D01*
X26235Y187514D01*
X26465Y187569D01*
X26493Y187580D01*
Y175860D01*
X26471Y175869D01*
X26355Y175897D01*
X26237Y175906D01*
X26119Y175897D01*
X26003Y175870D01*
X25893Y175824D01*
X25792Y175762D01*
X25702Y175686D01*
X25624Y175595D01*
X25562Y175494D01*
X25516Y175385D01*
X25489Y175269D01*
X25479Y175151D01*
X25488Y175032D01*
X25516Y174917D01*
X25563Y174808D01*
X25721Y174468D01*
X25842Y174112D01*
X25930Y173747D01*
X25982Y173375D01*
X26000Y173000D01*
X25982Y172625D01*
X25930Y172253D01*
X25842Y171888D01*
X25721Y171532D01*
X25567Y171190D01*
X25520Y171082D01*
X25493Y170967D01*
X25483Y170849D01*
X25493Y170732D01*
X25521Y170617D01*
X25566Y170508D01*
X25628Y170407D01*
X25705Y170318D01*
X25795Y170241D01*
X25895Y170180D01*
X26004Y170135D01*
X26119Y170107D01*
X26237Y170098D01*
X26355Y170108D01*
X26469Y170135D01*
X26493Y170145D01*
Y158420D01*
G37*
G36*
Y136195D02*X26463Y136243D01*
X25901Y136901D01*
X25243Y137463D01*
X24505Y137916D01*
X24500Y137918D01*
Y147511D01*
X26235Y147514D01*
X26465Y147569D01*
X26493Y147580D01*
Y136195D01*
G37*
G36*
Y70250D02*X24598Y71411D01*
X24500Y71452D01*
Y128082D01*
X24505Y128084D01*
X25243Y128537D01*
X25901Y129099D01*
X26463Y129757D01*
X26493Y129805D01*
Y70250D01*
G37*
G36*
Y42000D02*X25269D01*
X26493Y42750D01*
Y42000D01*
G37*
G36*
X24500Y288000D02*X26493D01*
Y286633D01*
X24552Y287822D01*
X24500Y287844D01*
Y288000D01*
G37*
G36*
X207250Y245020D02*X207306Y244787D01*
X207444Y244453D01*
X207634Y244144D01*
X207869Y243869D01*
X208144Y243634D01*
X208312Y243531D01*
X208044Y243366D01*
X207769Y243131D01*
X207534Y242856D01*
X207344Y242547D01*
X207250Y242320D01*
Y245020D01*
G37*
G36*
X207325Y240500D02*X207250D01*
Y240680D01*
X207325Y240500D01*
G37*
G36*
X259000Y171543D02*X253493D01*
Y268487D01*
X253500Y268486D01*
X254206Y268542D01*
X254895Y268707D01*
X255549Y268978D01*
X256153Y269348D01*
X256692Y269808D01*
X257152Y270347D01*
X257522Y270951D01*
X257793Y271605D01*
X257958Y272294D01*
X258000Y273000D01*
X257958Y273706D01*
X257793Y274395D01*
X257522Y275049D01*
X257152Y275653D01*
X256692Y276192D01*
X256153Y276652D01*
X255549Y277022D01*
X254895Y277293D01*
X254206Y277458D01*
X253500Y277514D01*
X253493Y277513D01*
Y288000D01*
X259000D01*
Y273176D01*
X258986Y273000D01*
X259000Y272824D01*
Y207621D01*
X257672Y206294D01*
X257500Y206307D01*
X257139Y206279D01*
X256787Y206194D01*
X256453Y206056D01*
X256144Y205866D01*
X255869Y205631D01*
X255634Y205356D01*
X255444Y205047D01*
X255306Y204713D01*
X255221Y204361D01*
X255193Y204000D01*
X255221Y203639D01*
X255306Y203287D01*
X255444Y202953D01*
X255634Y202644D01*
X255869Y202369D01*
X256144Y202134D01*
X256453Y201944D01*
X256787Y201806D01*
X257139Y201721D01*
X257500Y201693D01*
X257861Y201721D01*
X258213Y201806D01*
X258547Y201944D01*
X258856Y202134D01*
X259000Y202256D01*
Y171543D01*
G37*
G36*
X253493D02*X243493D01*
Y268487D01*
X243500Y268486D01*
X244206Y268542D01*
X244895Y268707D01*
X245549Y268978D01*
X246153Y269348D01*
X246692Y269808D01*
X247152Y270347D01*
X247522Y270951D01*
X247793Y271605D01*
X247958Y272294D01*
X248000Y273000D01*
X247958Y273706D01*
X247793Y274395D01*
X247522Y275049D01*
X247152Y275653D01*
X246692Y276192D01*
X246153Y276652D01*
X245549Y277022D01*
X244895Y277293D01*
X244206Y277458D01*
X243500Y277514D01*
X243493Y277513D01*
Y288000D01*
X253493D01*
Y277513D01*
X252794Y277458D01*
X252105Y277293D01*
X251451Y277022D01*
X250847Y276652D01*
X250308Y276192D01*
X249848Y275653D01*
X249478Y275049D01*
X249207Y274395D01*
X249042Y273706D01*
X248986Y273000D01*
X249042Y272294D01*
X249207Y271605D01*
X249478Y270951D01*
X249848Y270347D01*
X250308Y269808D01*
X250847Y269348D01*
X251451Y268978D01*
X252105Y268707D01*
X252794Y268542D01*
X253493Y268487D01*
Y171543D01*
G37*
G36*
X243493D02*X233493D01*
Y185520D01*
X233756Y185744D01*
X234369Y186462D01*
X234863Y187268D01*
X235224Y188140D01*
X235444Y189058D01*
X235519Y190000D01*
X235444Y190942D01*
X235224Y191860D01*
X234863Y192732D01*
X234369Y193538D01*
X233743Y194243D01*
X233493Y194492D01*
Y240547D01*
X233775Y240615D01*
X234138Y240766D01*
X234474Y240971D01*
X234773Y241227D01*
X235029Y241526D01*
X235234Y241862D01*
X235385Y242225D01*
X235477Y242608D01*
X235500Y243000D01*
X235477Y243392D01*
X235385Y243775D01*
X235234Y244138D01*
X235029Y244474D01*
X234773Y244773D01*
X234474Y245029D01*
X234138Y245234D01*
X233775Y245385D01*
X233493Y245453D01*
Y268487D01*
X233500Y268486D01*
X234206Y268542D01*
X234895Y268707D01*
X235549Y268978D01*
X236153Y269348D01*
X236692Y269808D01*
X237152Y270347D01*
X237522Y270951D01*
X237793Y271605D01*
X237958Y272294D01*
X238000Y273000D01*
X237958Y273706D01*
X237793Y274395D01*
X237522Y275049D01*
X237152Y275653D01*
X236692Y276192D01*
X236153Y276652D01*
X235549Y277022D01*
X234895Y277293D01*
X234206Y277458D01*
X233500Y277514D01*
X233493Y277513D01*
Y288000D01*
X243493D01*
Y277513D01*
X242794Y277458D01*
X242105Y277293D01*
X241451Y277022D01*
X240847Y276652D01*
X240308Y276192D01*
X239848Y275653D01*
X239478Y275049D01*
X239207Y274395D01*
X239042Y273706D01*
X238986Y273000D01*
X239042Y272294D01*
X239207Y271605D01*
X239478Y270951D01*
X239848Y270347D01*
X240308Y269808D01*
X240847Y269348D01*
X241451Y268978D01*
X242105Y268707D01*
X242794Y268542D01*
X243493Y268487D01*
Y171543D01*
G37*
G36*
X233493Y245453D02*X233392Y245477D01*
X233000Y245508D01*
X232608Y245477D01*
X232225Y245385D01*
X231862Y245234D01*
X231526Y245029D01*
X231227Y244773D01*
X230971Y244474D01*
X230883Y244330D01*
X230866Y244356D01*
X230631Y244631D01*
X230356Y244866D01*
X230047Y245056D01*
X229713Y245194D01*
X229361Y245279D01*
X229000Y245307D01*
X228639Y245279D01*
X228287Y245194D01*
X228282Y245192D01*
X228300Y245500D01*
X228279Y245861D01*
X228194Y246213D01*
X228056Y246547D01*
X227866Y246856D01*
X227631Y247131D01*
X227356Y247366D01*
X227047Y247556D01*
X226713Y247694D01*
X226361Y247779D01*
X226000Y247807D01*
X225639Y247779D01*
X225287Y247694D01*
X224953Y247556D01*
X224644Y247366D01*
X224369Y247131D01*
X224256Y247000D01*
X223493D01*
Y268487D01*
X223500Y268486D01*
X224206Y268542D01*
X224895Y268707D01*
X225549Y268978D01*
X226153Y269348D01*
X226692Y269808D01*
X227152Y270347D01*
X227522Y270951D01*
X227793Y271605D01*
X227958Y272294D01*
X228000Y273000D01*
X227958Y273706D01*
X227793Y274395D01*
X227522Y275049D01*
X227152Y275653D01*
X226692Y276192D01*
X226153Y276652D01*
X225549Y277022D01*
X224895Y277293D01*
X224206Y277458D01*
X223500Y277514D01*
X223493Y277513D01*
Y288000D01*
X233493D01*
Y277513D01*
X232794Y277458D01*
X232105Y277293D01*
X231451Y277022D01*
X230847Y276652D01*
X230308Y276192D01*
X229848Y275653D01*
X229478Y275049D01*
X229207Y274395D01*
X229042Y273706D01*
X228986Y273000D01*
X229042Y272294D01*
X229207Y271605D01*
X229478Y270951D01*
X229848Y270347D01*
X230308Y269808D01*
X230847Y269348D01*
X231451Y268978D01*
X232105Y268707D01*
X232794Y268542D01*
X233493Y268487D01*
Y245453D01*
G37*
G36*
X223493Y247000D02*X218138D01*
X218356Y247134D01*
X218631Y247369D01*
X218866Y247644D01*
X219056Y247953D01*
X219194Y248287D01*
X219279Y248639D01*
X219300Y249000D01*
X219279Y249361D01*
X219194Y249713D01*
X219056Y250047D01*
X218866Y250356D01*
X218631Y250631D01*
X218356Y250866D01*
X218047Y251056D01*
X217713Y251194D01*
X217361Y251279D01*
X217000Y251307D01*
X216828Y251294D01*
X215602Y252519D01*
X215564Y252564D01*
X215384Y252717D01*
X215183Y252841D01*
X214965Y252931D01*
X214735Y252986D01*
X214500Y253005D01*
X214441Y253000D01*
X213493D01*
Y268487D01*
X213500Y268486D01*
X214206Y268542D01*
X214895Y268707D01*
X215549Y268978D01*
X216153Y269348D01*
X216692Y269808D01*
X217152Y270347D01*
X217522Y270951D01*
X217793Y271605D01*
X217958Y272294D01*
X218000Y273000D01*
X217958Y273706D01*
X217793Y274395D01*
X217522Y275049D01*
X217152Y275653D01*
X216692Y276192D01*
X216153Y276652D01*
X215549Y277022D01*
X214895Y277293D01*
X214206Y277458D01*
X213500Y277514D01*
X213493Y277513D01*
Y288000D01*
X223493D01*
Y277513D01*
X222794Y277458D01*
X222105Y277293D01*
X221451Y277022D01*
X220847Y276652D01*
X220308Y276192D01*
X219848Y275653D01*
X219478Y275049D01*
X219207Y274395D01*
X219042Y273706D01*
X218986Y273000D01*
X219042Y272294D01*
X219207Y271605D01*
X219478Y270951D01*
X219848Y270347D01*
X220308Y269808D01*
X220847Y269348D01*
X221451Y268978D01*
X222105Y268707D01*
X222794Y268542D01*
X223493Y268487D01*
Y247000D01*
G37*
G36*
X213493Y253000D02*X207250D01*
Y270507D01*
X207522Y270951D01*
X207793Y271605D01*
X207958Y272294D01*
X208000Y273000D01*
X207958Y273706D01*
X207793Y274395D01*
X207522Y275049D01*
X207250Y275493D01*
Y288000D01*
X213493D01*
Y277513D01*
X212794Y277458D01*
X212105Y277293D01*
X211451Y277022D01*
X210847Y276652D01*
X210308Y276192D01*
X209848Y275653D01*
X209478Y275049D01*
X209207Y274395D01*
X209042Y273706D01*
X208986Y273000D01*
X209042Y272294D01*
X209207Y271605D01*
X209478Y270951D01*
X209848Y270347D01*
X210308Y269808D01*
X210847Y269348D01*
X211451Y268978D01*
X212105Y268707D01*
X212794Y268542D01*
X213493Y268487D01*
Y253000D01*
G37*
G36*
X233493Y194492D02*X210409Y217576D01*
X210256Y217756D01*
X209538Y218369D01*
X208732Y218863D01*
X208221Y219074D01*
X207860Y219224D01*
X207639Y219277D01*
X207250Y219370D01*
Y237500D01*
X228941D01*
X229000Y237495D01*
X229235Y237514D01*
X229235Y237514D01*
X229465Y237569D01*
X229683Y237659D01*
X229884Y237783D01*
X230064Y237936D01*
X230102Y237981D01*
X232642Y240520D01*
X233000Y240492D01*
X233392Y240523D01*
X233493Y240547D01*
Y194492D01*
G37*
G36*
Y171543D02*X207250D01*
Y203765D01*
X225257Y185757D01*
X225962Y185131D01*
X226768Y184637D01*
X227640Y184276D01*
X228558Y184056D01*
X229500Y183981D01*
X230442Y184056D01*
X231360Y184276D01*
X232232Y184637D01*
X233038Y185131D01*
X233493Y185520D01*
Y171543D01*
G37*
G36*
X207250D02*X193500D01*
Y187879D01*
X193621Y188000D01*
X199125D01*
X199298Y187798D01*
X199585Y187552D01*
X199907Y187355D01*
X200256Y187210D01*
X200623Y187122D01*
X201000Y187093D01*
X201377Y187122D01*
X201744Y187210D01*
X202093Y187355D01*
X202415Y187552D01*
X202702Y187798D01*
X202948Y188085D01*
X203145Y188407D01*
X203290Y188756D01*
X203378Y189123D01*
X203400Y189500D01*
X203378Y189877D01*
X203290Y190244D01*
X203188Y190489D01*
X203407Y190355D01*
X203756Y190210D01*
X204123Y190122D01*
X204500Y190093D01*
X204877Y190122D01*
X205244Y190210D01*
X205593Y190355D01*
X205915Y190552D01*
X206202Y190798D01*
X206448Y191085D01*
X206645Y191407D01*
X206790Y191756D01*
X206878Y192123D01*
X206900Y192500D01*
X206878Y192877D01*
X206790Y193244D01*
X206645Y193593D01*
X206448Y193915D01*
X206202Y194202D01*
X205915Y194448D01*
X205593Y194645D01*
X205244Y194790D01*
X204877Y194878D01*
X204500Y194907D01*
X204123Y194878D01*
X203756Y194790D01*
X203407Y194645D01*
X203085Y194448D01*
X202798Y194202D01*
X202625Y194000D01*
X191559D01*
X191500Y194005D01*
X191265Y193986D01*
X191035Y193931D01*
X190817Y193841D01*
X190616Y193717D01*
X190615Y193717D01*
X190436Y193564D01*
X190398Y193519D01*
X188481Y191602D01*
X188436Y191564D01*
X188283Y191384D01*
X188159Y191183D01*
X188069Y190965D01*
X188014Y190735D01*
X188014Y190735D01*
X187995Y190500D01*
X188000Y190441D01*
Y181138D01*
X187866Y181356D01*
X187631Y181631D01*
X187356Y181866D01*
X187047Y182056D01*
X186713Y182194D01*
X186361Y182279D01*
X186000Y182307D01*
X185639Y182279D01*
X185287Y182194D01*
X184953Y182056D01*
X184644Y181866D01*
X184369Y181631D01*
X184134Y181356D01*
X183944Y181047D01*
X183806Y180713D01*
X183721Y180361D01*
X183693Y180000D01*
X183721Y179639D01*
X183806Y179287D01*
X183944Y178953D01*
X184134Y178644D01*
X184369Y178369D01*
X184500Y178256D01*
Y178244D01*
X184356Y178366D01*
X184047Y178556D01*
X183713Y178694D01*
X183361Y178779D01*
X183000Y178807D01*
X182639Y178779D01*
X182287Y178694D01*
X181953Y178556D01*
X181644Y178366D01*
X181369Y178131D01*
X181134Y177856D01*
X180944Y177547D01*
X180806Y177213D01*
X180721Y176861D01*
X180693Y176500D01*
X180721Y176139D01*
X180806Y175787D01*
X180944Y175453D01*
X181134Y175144D01*
X181369Y174869D01*
X181500Y174756D01*
Y171543D01*
X110000D01*
Y288000D01*
X207250D01*
Y275493D01*
X207152Y275653D01*
X206692Y276192D01*
X206153Y276652D01*
X205549Y277022D01*
X204895Y277293D01*
X204206Y277458D01*
X203500Y277514D01*
X202794Y277458D01*
X202105Y277293D01*
X201451Y277022D01*
X200847Y276652D01*
X200308Y276192D01*
X199848Y275653D01*
X199478Y275049D01*
X199207Y274395D01*
X199042Y273706D01*
X198986Y273000D01*
X199042Y272294D01*
X199207Y271605D01*
X199478Y270951D01*
X199848Y270347D01*
X200308Y269808D01*
X200847Y269348D01*
X201451Y268978D01*
X202105Y268707D01*
X202794Y268542D01*
X203500Y268486D01*
X204206Y268542D01*
X204895Y268707D01*
X205549Y268978D01*
X206153Y269348D01*
X206692Y269808D01*
X207152Y270347D01*
X207250Y270507D01*
Y253000D01*
X189744D01*
X189631Y253131D01*
X189356Y253366D01*
X189047Y253556D01*
X188713Y253694D01*
X188361Y253779D01*
X188000Y253807D01*
X187639Y253779D01*
X187287Y253694D01*
X186953Y253556D01*
X186644Y253366D01*
X186369Y253131D01*
X186134Y252856D01*
X185944Y252547D01*
X185806Y252213D01*
X185721Y251861D01*
X185693Y251500D01*
X185721Y251139D01*
X185806Y250787D01*
X185944Y250453D01*
X186134Y250144D01*
X186369Y249869D01*
X186644Y249634D01*
X186862Y249500D01*
X186644Y249366D01*
X186369Y249131D01*
X186134Y248856D01*
X185944Y248547D01*
X185806Y248213D01*
X185721Y247861D01*
X185693Y247500D01*
X185721Y247139D01*
X185806Y246787D01*
X185944Y246453D01*
X186134Y246144D01*
X186369Y245869D01*
X186644Y245634D01*
X186953Y245444D01*
X187287Y245306D01*
X187639Y245221D01*
X188000Y245193D01*
X188361Y245221D01*
X188713Y245306D01*
X189047Y245444D01*
X189356Y245634D01*
X189631Y245869D01*
X189744Y246000D01*
X206879D01*
X207206Y245672D01*
X207193Y245500D01*
X207221Y245139D01*
X207250Y245020D01*
Y242320D01*
X207206Y242213D01*
X207121Y241861D01*
X207093Y241500D01*
X207121Y241139D01*
X207206Y240787D01*
X207250Y240680D01*
Y240500D01*
X204744D01*
X204631Y240631D01*
X204356Y240866D01*
X204047Y241056D01*
X203713Y241194D01*
X203361Y241279D01*
X203000Y241307D01*
X202639Y241279D01*
X202287Y241194D01*
X201953Y241056D01*
X201644Y240866D01*
X201369Y240631D01*
X201134Y240356D01*
X200944Y240047D01*
X200806Y239713D01*
X200721Y239361D01*
X200693Y239000D01*
X200721Y238639D01*
X200806Y238287D01*
X200944Y237953D01*
X201134Y237644D01*
X201369Y237369D01*
X201644Y237134D01*
X201953Y236944D01*
X202287Y236806D01*
X202639Y236721D01*
X203000Y236693D01*
X203361Y236721D01*
X203713Y236806D01*
X204047Y236944D01*
X204356Y237134D01*
X204631Y237369D01*
X204744Y237500D01*
X207250D01*
Y219370D01*
X206942Y219444D01*
X206941Y219444D01*
X206000Y219519D01*
X205765Y219500D01*
X185000D01*
X184058Y219444D01*
X183140Y219224D01*
X182268Y218863D01*
X181462Y218369D01*
X180744Y217756D01*
X180131Y217038D01*
X179637Y216232D01*
X179276Y215360D01*
X179056Y214442D01*
X178981Y213500D01*
X179056Y212558D01*
X179276Y211640D01*
X179637Y210768D01*
X180131Y209962D01*
X180744Y209244D01*
X181462Y208631D01*
X182268Y208137D01*
X183140Y207776D01*
X184058Y207556D01*
X185000Y207500D01*
X203515D01*
X207250Y203765D01*
Y171543D01*
G37*
G36*
X316472Y54400D02*X324000D01*
Y2000D01*
X316472D01*
Y7717D01*
X316531Y7762D01*
X316586Y7818D01*
X316630Y7884D01*
X316819Y8230D01*
X316972Y8594D01*
X317093Y8970D01*
X317180Y9356D01*
X317232Y9747D01*
X317250Y10142D01*
X317232Y10536D01*
X317180Y10928D01*
X317093Y11313D01*
X316972Y11689D01*
X316819Y12053D01*
X316634Y12402D01*
X316589Y12467D01*
X316534Y12524D01*
X316472Y12571D01*
Y25342D01*
X316772Y25832D01*
X317041Y26479D01*
X317204Y27160D01*
X317245Y27858D01*
X317204Y28557D01*
X317041Y29238D01*
X316772Y29885D01*
X316472Y30375D01*
Y54400D01*
G37*
G36*
Y2000D02*X312797D01*
Y5687D01*
X313190Y5705D01*
X313581Y5757D01*
X313967Y5844D01*
X314343Y5965D01*
X314707Y6118D01*
X315056Y6304D01*
X315121Y6348D01*
X315178Y6403D01*
X315226Y6467D01*
X315263Y6537D01*
X315289Y6612D01*
X315302Y6690D01*
X315304Y6769D01*
X315293Y6847D01*
X315270Y6923D01*
X315235Y6994D01*
X315189Y7059D01*
X315134Y7116D01*
X315071Y7164D01*
X315001Y7201D01*
X314926Y7227D01*
X314848Y7241D01*
X314769Y7242D01*
X314690Y7231D01*
X314615Y7208D01*
X314544Y7172D01*
X314276Y7026D01*
X313994Y6907D01*
X313703Y6813D01*
X313404Y6746D01*
X313101Y6705D01*
X312797Y6692D01*
Y13592D01*
X313101Y13578D01*
X313404Y13538D01*
X313703Y13470D01*
X313994Y13377D01*
X314276Y13258D01*
X314546Y13115D01*
X314616Y13079D01*
X314691Y13056D01*
X314769Y13045D01*
X314848Y13046D01*
X314925Y13060D01*
X315000Y13085D01*
X315069Y13122D01*
X315132Y13170D01*
X315187Y13226D01*
X315232Y13291D01*
X315266Y13362D01*
X315289Y13437D01*
X315300Y13515D01*
X315299Y13593D01*
X315285Y13671D01*
X315260Y13745D01*
X315223Y13815D01*
X315175Y13878D01*
X315119Y13932D01*
X315053Y13976D01*
X314707Y14165D01*
X314343Y14319D01*
X313967Y14439D01*
X313581Y14526D01*
X313190Y14579D01*
X312797Y14596D01*
Y23395D01*
X313494Y23450D01*
X314175Y23613D01*
X314822Y23881D01*
X315419Y24247D01*
X315952Y24702D01*
X316407Y25235D01*
X316472Y25342D01*
Y12571D01*
X316470Y12572D01*
X316400Y12609D01*
X316325Y12635D01*
X316247Y12649D01*
X316168Y12650D01*
X316090Y12639D01*
X316014Y12616D01*
X315943Y12581D01*
X315878Y12536D01*
X315821Y12481D01*
X315773Y12418D01*
X315736Y12348D01*
X315710Y12273D01*
X315696Y12195D01*
X315695Y12115D01*
X315706Y12037D01*
X315729Y11961D01*
X315765Y11891D01*
X315911Y11622D01*
X316030Y11340D01*
X316124Y11049D01*
X316191Y10751D01*
X316232Y10447D01*
X316245Y10142D01*
X316232Y9836D01*
X316191Y9533D01*
X316124Y9234D01*
X316030Y8943D01*
X315911Y8661D01*
X315768Y8391D01*
X315732Y8321D01*
X315709Y8246D01*
X315698Y8168D01*
X315700Y8089D01*
X315713Y8012D01*
X315739Y7937D01*
X315776Y7868D01*
X315823Y7805D01*
X315880Y7750D01*
X315944Y7705D01*
X316015Y7671D01*
X316090Y7648D01*
X316168Y7637D01*
X316247Y7638D01*
X316325Y7652D01*
X316399Y7677D01*
X316468Y7714D01*
X316472Y7717D01*
Y2000D01*
G37*
G36*
X312797Y54400D02*X316472D01*
Y30375D01*
X316407Y30482D01*
X315952Y31015D01*
X315419Y31469D01*
X314822Y31835D01*
X314175Y32104D01*
X313494Y32267D01*
X312797Y32322D01*
Y54400D01*
G37*
G36*
X309118Y25342D02*X309184Y25235D01*
X309639Y24702D01*
X310172Y24247D01*
X310769Y23881D01*
X311416Y23613D01*
X312097Y23450D01*
X312795Y23395D01*
X312797Y23395D01*
Y14596D01*
X312795Y14596D01*
X312401Y14579D01*
X312009Y14526D01*
X311624Y14439D01*
X311248Y14319D01*
X310884Y14165D01*
X310535Y13980D01*
X310470Y13935D01*
X310413Y13880D01*
X310365Y13817D01*
X310328Y13747D01*
X310302Y13672D01*
X310288Y13594D01*
X310287Y13515D01*
X310298Y13436D01*
X310321Y13360D01*
X310356Y13289D01*
X310401Y13224D01*
X310456Y13167D01*
X310519Y13120D01*
X310589Y13082D01*
X310664Y13057D01*
X310742Y13043D01*
X310822Y13041D01*
X310900Y13052D01*
X310976Y13076D01*
X311046Y13112D01*
X311315Y13258D01*
X311597Y13377D01*
X311888Y13470D01*
X312186Y13538D01*
X312490Y13578D01*
X312795Y13592D01*
X312797Y13592D01*
Y6692D01*
X312795Y6692D01*
X312490Y6705D01*
X312186Y6746D01*
X311888Y6813D01*
X311597Y6907D01*
X311315Y7026D01*
X311045Y7169D01*
X310975Y7205D01*
X310899Y7228D01*
X310821Y7239D01*
X310743Y7237D01*
X310665Y7224D01*
X310591Y7198D01*
X310521Y7161D01*
X310458Y7114D01*
X310404Y7057D01*
X310359Y6993D01*
X310324Y6922D01*
X310301Y6847D01*
X310290Y6769D01*
X310292Y6690D01*
X310305Y6612D01*
X310331Y6538D01*
X310368Y6469D01*
X310415Y6406D01*
X310472Y6351D01*
X310537Y6307D01*
X310884Y6118D01*
X311248Y5965D01*
X311624Y5844D01*
X312009Y5757D01*
X312401Y5705D01*
X312795Y5687D01*
X312797Y5687D01*
Y2000D01*
X309118D01*
Y7713D01*
X309120Y7711D01*
X309190Y7674D01*
X309265Y7648D01*
X309343Y7635D01*
X309422Y7633D01*
X309501Y7644D01*
X309577Y7667D01*
X309648Y7702D01*
X309713Y7748D01*
X309770Y7803D01*
X309817Y7866D01*
X309855Y7936D01*
X309881Y8011D01*
X309894Y8089D01*
X309896Y8168D01*
X309885Y8247D01*
X309861Y8322D01*
X309825Y8393D01*
X309679Y8661D01*
X309560Y8943D01*
X309467Y9234D01*
X309399Y9533D01*
X309359Y9836D01*
X309345Y10142D01*
X309359Y10447D01*
X309399Y10751D01*
X309467Y11049D01*
X309560Y11340D01*
X309679Y11622D01*
X309822Y11892D01*
X309858Y11962D01*
X309881Y12038D01*
X309892Y12116D01*
X309891Y12194D01*
X309877Y12272D01*
X309852Y12346D01*
X309815Y12416D01*
X309767Y12479D01*
X309711Y12533D01*
X309646Y12578D01*
X309575Y12613D01*
X309500Y12636D01*
X309422Y12647D01*
X309344Y12645D01*
X309266Y12632D01*
X309192Y12606D01*
X309122Y12569D01*
X309118Y12566D01*
Y25342D01*
G37*
G36*
Y54400D02*X312797D01*
Y32322D01*
X312795Y32322D01*
X312097Y32267D01*
X311416Y32104D01*
X310769Y31835D01*
X310172Y31469D01*
X309639Y31015D01*
X309184Y30482D01*
X309118Y30375D01*
Y54400D01*
G37*
G36*
X290882D02*X309118D01*
Y30375D01*
X308818Y29885D01*
X308550Y29238D01*
X308387Y28557D01*
X308332Y27858D01*
X308387Y27160D01*
X308550Y26479D01*
X308818Y25832D01*
X309118Y25342D01*
Y12566D01*
X309059Y12522D01*
X309005Y12465D01*
X308961Y12400D01*
X308772Y12053D01*
X308618Y11689D01*
X308498Y11313D01*
X308411Y10928D01*
X308358Y10536D01*
X308341Y10142D01*
X308358Y9747D01*
X308411Y9356D01*
X308498Y8970D01*
X308618Y8594D01*
X308772Y8230D01*
X308957Y7881D01*
X309002Y7816D01*
X309057Y7759D01*
X309118Y7713D01*
Y2000D01*
X290882D01*
Y7717D01*
X290941Y7762D01*
X290995Y7818D01*
X291039Y7884D01*
X291228Y8230D01*
X291382Y8594D01*
X291502Y8970D01*
X291589Y9356D01*
X291642Y9747D01*
X291659Y10142D01*
X291642Y10536D01*
X291589Y10928D01*
X291502Y11313D01*
X291382Y11689D01*
X291228Y12053D01*
X291043Y12402D01*
X290998Y12467D01*
X290943Y12524D01*
X290882Y12571D01*
Y25342D01*
X291182Y25832D01*
X291450Y26479D01*
X291613Y27160D01*
X291655Y27858D01*
X291613Y28557D01*
X291450Y29238D01*
X291182Y29885D01*
X290882Y30375D01*
Y54400D01*
G37*
G36*
Y2000D02*X287206D01*
Y5687D01*
X287599Y5705D01*
X287991Y5757D01*
X288376Y5844D01*
X288752Y5965D01*
X289116Y6118D01*
X289465Y6304D01*
X289530Y6348D01*
X289587Y6403D01*
X289635Y6467D01*
X289672Y6537D01*
X289698Y6612D01*
X289712Y6690D01*
X289713Y6769D01*
X289702Y6847D01*
X289679Y6923D01*
X289644Y6994D01*
X289599Y7059D01*
X289544Y7116D01*
X289481Y7164D01*
X289411Y7201D01*
X289336Y7227D01*
X289258Y7241D01*
X289178Y7242D01*
X289100Y7231D01*
X289024Y7208D01*
X288954Y7172D01*
X288685Y7026D01*
X288403Y6907D01*
X288112Y6813D01*
X287814Y6746D01*
X287510Y6705D01*
X287206Y6692D01*
Y13592D01*
X287510Y13578D01*
X287814Y13538D01*
X288112Y13470D01*
X288403Y13377D01*
X288685Y13258D01*
X288955Y13115D01*
X289025Y13079D01*
X289101Y13056D01*
X289179Y13045D01*
X289257Y13046D01*
X289335Y13060D01*
X289409Y13085D01*
X289479Y13122D01*
X289542Y13170D01*
X289596Y13226D01*
X289641Y13291D01*
X289676Y13362D01*
X289699Y13437D01*
X289710Y13515D01*
X289708Y13593D01*
X289695Y13671D01*
X289669Y13745D01*
X289632Y13815D01*
X289585Y13878D01*
X289528Y13932D01*
X289463Y13976D01*
X289116Y14165D01*
X288752Y14319D01*
X288376Y14439D01*
X287991Y14526D01*
X287599Y14579D01*
X287206Y14596D01*
Y23395D01*
X287903Y23450D01*
X288584Y23613D01*
X289231Y23881D01*
X289828Y24247D01*
X290361Y24702D01*
X290816Y25235D01*
X290882Y25342D01*
Y12571D01*
X290880Y12572D01*
X290810Y12609D01*
X290735Y12635D01*
X290657Y12649D01*
X290578Y12650D01*
X290499Y12639D01*
X290423Y12616D01*
X290352Y12581D01*
X290287Y12536D01*
X290230Y12481D01*
X290182Y12418D01*
X290145Y12348D01*
X290119Y12273D01*
X290106Y12195D01*
X290104Y12115D01*
X290115Y12037D01*
X290139Y11961D01*
X290175Y11891D01*
X290321Y11622D01*
X290440Y11340D01*
X290533Y11049D01*
X290601Y10751D01*
X290641Y10447D01*
X290655Y10142D01*
X290641Y9836D01*
X290601Y9533D01*
X290533Y9234D01*
X290440Y8943D01*
X290321Y8661D01*
X290178Y8391D01*
X290142Y8321D01*
X290119Y8246D01*
X290108Y8168D01*
X290109Y8089D01*
X290123Y8012D01*
X290148Y7937D01*
X290185Y7868D01*
X290233Y7805D01*
X290289Y7750D01*
X290354Y7705D01*
X290425Y7671D01*
X290500Y7648D01*
X290578Y7637D01*
X290656Y7638D01*
X290734Y7652D01*
X290808Y7677D01*
X290878Y7714D01*
X290882Y7717D01*
Y2000D01*
G37*
G36*
X287206Y54400D02*X290882D01*
Y30375D01*
X290816Y30482D01*
X290361Y31015D01*
X289828Y31469D01*
X289231Y31835D01*
X288584Y32104D01*
X287903Y32267D01*
X287206Y32322D01*
Y54400D01*
G37*
G36*
X283528Y25342D02*X283593Y25235D01*
X284048Y24702D01*
X284581Y24247D01*
X285178Y23881D01*
X285825Y23613D01*
X286506Y23450D01*
X287205Y23395D01*
X287206Y23395D01*
Y14596D01*
X287205Y14596D01*
X286810Y14579D01*
X286419Y14526D01*
X286033Y14439D01*
X285657Y14319D01*
X285293Y14165D01*
X284944Y13980D01*
X284879Y13935D01*
X284822Y13880D01*
X284774Y13817D01*
X284737Y13747D01*
X284711Y13672D01*
X284698Y13594D01*
X284696Y13515D01*
X284707Y13436D01*
X284730Y13360D01*
X284765Y13289D01*
X284811Y13224D01*
X284866Y13167D01*
X284929Y13120D01*
X284999Y13082D01*
X285074Y13057D01*
X285152Y13043D01*
X285231Y13041D01*
X285310Y13052D01*
X285385Y13076D01*
X285456Y13112D01*
X285724Y13258D01*
X286006Y13377D01*
X286297Y13470D01*
X286596Y13538D01*
X286899Y13578D01*
X287205Y13592D01*
X287206Y13592D01*
Y6692D01*
X287205Y6692D01*
X286899Y6705D01*
X286596Y6746D01*
X286297Y6813D01*
X286006Y6907D01*
X285724Y7026D01*
X285454Y7169D01*
X285384Y7205D01*
X285309Y7228D01*
X285231Y7239D01*
X285152Y7237D01*
X285075Y7224D01*
X285000Y7198D01*
X284931Y7161D01*
X284868Y7114D01*
X284813Y7057D01*
X284768Y6993D01*
X284734Y6922D01*
X284711Y6847D01*
X284700Y6769D01*
X284701Y6690D01*
X284715Y6612D01*
X284740Y6538D01*
X284777Y6469D01*
X284825Y6406D01*
X284881Y6351D01*
X284947Y6307D01*
X285293Y6118D01*
X285657Y5965D01*
X286033Y5844D01*
X286419Y5757D01*
X286810Y5705D01*
X287205Y5687D01*
X287206Y5687D01*
Y2000D01*
X283528D01*
Y7713D01*
X283530Y7711D01*
X283600Y7674D01*
X283675Y7648D01*
X283753Y7635D01*
X283832Y7633D01*
X283910Y7644D01*
X283986Y7667D01*
X284057Y7702D01*
X284122Y7748D01*
X284179Y7803D01*
X284227Y7866D01*
X284264Y7936D01*
X284290Y8011D01*
X284304Y8089D01*
X284305Y8168D01*
X284294Y8247D01*
X284271Y8322D01*
X284235Y8393D01*
X284089Y8661D01*
X283970Y8943D01*
X283876Y9234D01*
X283809Y9533D01*
X283768Y9836D01*
X283755Y10142D01*
X283768Y10447D01*
X283809Y10751D01*
X283876Y11049D01*
X283970Y11340D01*
X284089Y11622D01*
X284232Y11892D01*
X284268Y11962D01*
X284291Y12038D01*
X284302Y12116D01*
X284300Y12194D01*
X284287Y12272D01*
X284261Y12346D01*
X284224Y12416D01*
X284177Y12479D01*
X284120Y12533D01*
X284056Y12578D01*
X283985Y12613D01*
X283910Y12636D01*
X283832Y12647D01*
X283753Y12645D01*
X283675Y12632D01*
X283601Y12606D01*
X283532Y12569D01*
X283528Y12566D01*
Y25342D01*
G37*
G36*
Y54400D02*X287206D01*
Y32322D01*
X287205Y32322D01*
X286506Y32267D01*
X285825Y32104D01*
X285178Y31835D01*
X284581Y31469D01*
X284048Y31015D01*
X283593Y30482D01*
X283528Y30375D01*
Y54400D01*
G37*
G36*
X249772D02*X283528D01*
Y30375D01*
X283228Y29885D01*
X282959Y29238D01*
X282796Y28557D01*
X282741Y27858D01*
X282796Y27160D01*
X282959Y26479D01*
X283228Y25832D01*
X283528Y25342D01*
Y12566D01*
X283469Y12522D01*
X283414Y12465D01*
X283370Y12400D01*
X283181Y12053D01*
X283028Y11689D01*
X282907Y11313D01*
X282820Y10928D01*
X282768Y10536D01*
X282750Y10142D01*
X282768Y9747D01*
X282820Y9356D01*
X282907Y8970D01*
X283028Y8594D01*
X283181Y8230D01*
X283366Y7881D01*
X283411Y7816D01*
X283466Y7759D01*
X283528Y7713D01*
Y2000D01*
X249772D01*
Y7717D01*
X249831Y7762D01*
X249886Y7818D01*
X249930Y7884D01*
X250119Y8230D01*
X250272Y8594D01*
X250393Y8970D01*
X250480Y9356D01*
X250532Y9747D01*
X250550Y10142D01*
X250532Y10536D01*
X250480Y10928D01*
X250393Y11313D01*
X250272Y11689D01*
X250119Y12053D01*
X249934Y12402D01*
X249889Y12467D01*
X249834Y12524D01*
X249772Y12571D01*
Y25342D01*
X250072Y25832D01*
X250341Y26479D01*
X250504Y27160D01*
X250545Y27858D01*
X250504Y28557D01*
X250341Y29238D01*
X250072Y29885D01*
X249772Y30375D01*
Y54400D01*
G37*
G36*
Y2000D02*X246097D01*
Y5687D01*
X246490Y5705D01*
X246881Y5757D01*
X247267Y5844D01*
X247643Y5965D01*
X248007Y6118D01*
X248356Y6304D01*
X248421Y6348D01*
X248478Y6403D01*
X248526Y6467D01*
X248563Y6537D01*
X248589Y6612D01*
X248602Y6690D01*
X248604Y6769D01*
X248593Y6847D01*
X248570Y6923D01*
X248535Y6994D01*
X248489Y7059D01*
X248434Y7116D01*
X248371Y7164D01*
X248301Y7201D01*
X248226Y7227D01*
X248148Y7241D01*
X248069Y7242D01*
X247990Y7231D01*
X247915Y7208D01*
X247844Y7172D01*
X247576Y7026D01*
X247294Y6907D01*
X247003Y6813D01*
X246704Y6746D01*
X246401Y6705D01*
X246097Y6692D01*
Y13592D01*
X246401Y13578D01*
X246704Y13538D01*
X247003Y13470D01*
X247294Y13377D01*
X247576Y13258D01*
X247846Y13115D01*
X247916Y13079D01*
X247991Y13056D01*
X248069Y13045D01*
X248148Y13046D01*
X248225Y13060D01*
X248300Y13085D01*
X248369Y13122D01*
X248432Y13170D01*
X248487Y13226D01*
X248532Y13291D01*
X248566Y13362D01*
X248589Y13437D01*
X248600Y13515D01*
X248599Y13593D01*
X248585Y13671D01*
X248560Y13745D01*
X248523Y13815D01*
X248475Y13878D01*
X248419Y13932D01*
X248353Y13976D01*
X248007Y14165D01*
X247643Y14319D01*
X247267Y14439D01*
X246881Y14526D01*
X246490Y14579D01*
X246097Y14596D01*
Y23395D01*
X246794Y23450D01*
X247475Y23613D01*
X248122Y23881D01*
X248719Y24247D01*
X249252Y24702D01*
X249707Y25235D01*
X249772Y25342D01*
Y12571D01*
X249770Y12572D01*
X249700Y12609D01*
X249625Y12635D01*
X249547Y12649D01*
X249468Y12650D01*
X249390Y12639D01*
X249314Y12616D01*
X249243Y12581D01*
X249178Y12536D01*
X249121Y12481D01*
X249073Y12418D01*
X249036Y12348D01*
X249010Y12273D01*
X248996Y12195D01*
X248995Y12115D01*
X249006Y12037D01*
X249029Y11961D01*
X249065Y11891D01*
X249211Y11622D01*
X249330Y11340D01*
X249424Y11049D01*
X249491Y10751D01*
X249532Y10447D01*
X249545Y10142D01*
X249532Y9836D01*
X249491Y9533D01*
X249424Y9234D01*
X249330Y8943D01*
X249211Y8661D01*
X249068Y8391D01*
X249032Y8321D01*
X249009Y8246D01*
X248998Y8168D01*
X249000Y8089D01*
X249013Y8012D01*
X249039Y7937D01*
X249076Y7868D01*
X249123Y7805D01*
X249180Y7750D01*
X249244Y7705D01*
X249315Y7671D01*
X249390Y7648D01*
X249468Y7637D01*
X249547Y7638D01*
X249625Y7652D01*
X249699Y7677D01*
X249768Y7714D01*
X249772Y7717D01*
Y2000D01*
G37*
G36*
X246097Y54400D02*X249772D01*
Y30375D01*
X249707Y30482D01*
X249252Y31015D01*
X248719Y31469D01*
X248122Y31835D01*
X247475Y32104D01*
X246794Y32267D01*
X246097Y32322D01*
Y54400D01*
G37*
G36*
X242418Y25342D02*X242484Y25235D01*
X242939Y24702D01*
X243472Y24247D01*
X244069Y23881D01*
X244716Y23613D01*
X245397Y23450D01*
X246095Y23395D01*
X246097Y23395D01*
Y14596D01*
X246095Y14596D01*
X245701Y14579D01*
X245309Y14526D01*
X244924Y14439D01*
X244548Y14319D01*
X244184Y14165D01*
X243835Y13980D01*
X243770Y13935D01*
X243713Y13880D01*
X243665Y13817D01*
X243628Y13747D01*
X243602Y13672D01*
X243588Y13594D01*
X243587Y13515D01*
X243598Y13436D01*
X243621Y13360D01*
X243656Y13289D01*
X243701Y13224D01*
X243756Y13167D01*
X243819Y13120D01*
X243889Y13082D01*
X243964Y13057D01*
X244042Y13043D01*
X244122Y13041D01*
X244200Y13052D01*
X244276Y13076D01*
X244346Y13112D01*
X244615Y13258D01*
X244897Y13377D01*
X245188Y13470D01*
X245486Y13538D01*
X245790Y13578D01*
X246095Y13592D01*
X246097Y13592D01*
Y6692D01*
X246095Y6692D01*
X245790Y6705D01*
X245486Y6746D01*
X245188Y6813D01*
X244897Y6907D01*
X244615Y7026D01*
X244345Y7169D01*
X244275Y7205D01*
X244199Y7228D01*
X244121Y7239D01*
X244043Y7237D01*
X243965Y7224D01*
X243891Y7198D01*
X243821Y7161D01*
X243758Y7114D01*
X243704Y7057D01*
X243659Y6993D01*
X243624Y6922D01*
X243601Y6847D01*
X243590Y6769D01*
X243592Y6690D01*
X243605Y6612D01*
X243631Y6538D01*
X243668Y6469D01*
X243715Y6406D01*
X243772Y6351D01*
X243837Y6307D01*
X244184Y6118D01*
X244548Y5965D01*
X244924Y5844D01*
X245309Y5757D01*
X245701Y5705D01*
X246095Y5687D01*
X246097Y5687D01*
Y2000D01*
X242418D01*
Y7713D01*
X242420Y7711D01*
X242490Y7674D01*
X242565Y7648D01*
X242643Y7635D01*
X242722Y7633D01*
X242801Y7644D01*
X242877Y7667D01*
X242948Y7702D01*
X243013Y7748D01*
X243070Y7803D01*
X243117Y7866D01*
X243155Y7936D01*
X243181Y8011D01*
X243194Y8089D01*
X243196Y8168D01*
X243185Y8247D01*
X243161Y8322D01*
X243125Y8393D01*
X242979Y8661D01*
X242860Y8943D01*
X242767Y9234D01*
X242699Y9533D01*
X242659Y9836D01*
X242645Y10142D01*
X242659Y10447D01*
X242699Y10751D01*
X242767Y11049D01*
X242860Y11340D01*
X242979Y11622D01*
X243122Y11892D01*
X243158Y11962D01*
X243181Y12038D01*
X243192Y12116D01*
X243191Y12194D01*
X243177Y12272D01*
X243152Y12346D01*
X243115Y12416D01*
X243067Y12479D01*
X243011Y12533D01*
X242946Y12578D01*
X242875Y12613D01*
X242800Y12636D01*
X242722Y12647D01*
X242644Y12645D01*
X242566Y12632D01*
X242492Y12606D01*
X242422Y12569D01*
X242418Y12566D01*
Y25342D01*
G37*
G36*
Y54400D02*X246097D01*
Y32322D01*
X246095Y32322D01*
X245397Y32267D01*
X244716Y32104D01*
X244069Y31835D01*
X243472Y31469D01*
X242939Y31015D01*
X242484Y30482D01*
X242418Y30375D01*
Y54400D01*
G37*
G36*
X224182D02*X242418D01*
Y30375D01*
X242118Y29885D01*
X241850Y29238D01*
X241687Y28557D01*
X241632Y27858D01*
X241687Y27160D01*
X241850Y26479D01*
X242118Y25832D01*
X242418Y25342D01*
Y12566D01*
X242359Y12522D01*
X242305Y12465D01*
X242261Y12400D01*
X242072Y12053D01*
X241918Y11689D01*
X241798Y11313D01*
X241711Y10928D01*
X241658Y10536D01*
X241641Y10142D01*
X241658Y9747D01*
X241711Y9356D01*
X241798Y8970D01*
X241918Y8594D01*
X242072Y8230D01*
X242257Y7881D01*
X242302Y7816D01*
X242357Y7759D01*
X242418Y7713D01*
Y2000D01*
X224182D01*
Y7717D01*
X224241Y7762D01*
X224295Y7818D01*
X224339Y7884D01*
X224528Y8230D01*
X224682Y8594D01*
X224802Y8970D01*
X224889Y9356D01*
X224942Y9747D01*
X224959Y10142D01*
X224942Y10536D01*
X224889Y10928D01*
X224802Y11313D01*
X224682Y11689D01*
X224528Y12053D01*
X224343Y12402D01*
X224298Y12467D01*
X224243Y12524D01*
X224182Y12571D01*
Y25342D01*
X224482Y25832D01*
X224750Y26479D01*
X224913Y27160D01*
X224955Y27858D01*
X224913Y28557D01*
X224750Y29238D01*
X224482Y29885D01*
X224182Y30375D01*
Y54400D01*
G37*
G36*
Y2000D02*X220506D01*
Y5687D01*
X220899Y5705D01*
X221291Y5757D01*
X221676Y5844D01*
X222052Y5965D01*
X222416Y6118D01*
X222765Y6304D01*
X222830Y6348D01*
X222887Y6403D01*
X222935Y6467D01*
X222972Y6537D01*
X222998Y6612D01*
X223012Y6690D01*
X223013Y6769D01*
X223002Y6847D01*
X222979Y6923D01*
X222944Y6994D01*
X222899Y7059D01*
X222844Y7116D01*
X222781Y7164D01*
X222711Y7201D01*
X222636Y7227D01*
X222558Y7241D01*
X222478Y7242D01*
X222400Y7231D01*
X222324Y7208D01*
X222254Y7172D01*
X221985Y7026D01*
X221703Y6907D01*
X221412Y6813D01*
X221114Y6746D01*
X220810Y6705D01*
X220506Y6692D01*
Y13592D01*
X220810Y13578D01*
X221114Y13538D01*
X221412Y13470D01*
X221703Y13377D01*
X221985Y13258D01*
X222255Y13115D01*
X222325Y13079D01*
X222401Y13056D01*
X222479Y13045D01*
X222557Y13046D01*
X222635Y13060D01*
X222709Y13085D01*
X222779Y13122D01*
X222842Y13170D01*
X222896Y13226D01*
X222941Y13291D01*
X222976Y13362D01*
X222999Y13437D01*
X223010Y13515D01*
X223008Y13593D01*
X222995Y13671D01*
X222969Y13745D01*
X222932Y13815D01*
X222885Y13878D01*
X222828Y13932D01*
X222763Y13976D01*
X222416Y14165D01*
X222052Y14319D01*
X221676Y14439D01*
X221291Y14526D01*
X220899Y14579D01*
X220506Y14596D01*
Y23395D01*
X221203Y23450D01*
X221884Y23613D01*
X222531Y23881D01*
X223128Y24247D01*
X223661Y24702D01*
X224116Y25235D01*
X224182Y25342D01*
Y12571D01*
X224180Y12572D01*
X224110Y12609D01*
X224035Y12635D01*
X223957Y12649D01*
X223878Y12650D01*
X223799Y12639D01*
X223723Y12616D01*
X223652Y12581D01*
X223587Y12536D01*
X223530Y12481D01*
X223482Y12418D01*
X223445Y12348D01*
X223419Y12273D01*
X223406Y12195D01*
X223404Y12115D01*
X223415Y12037D01*
X223439Y11961D01*
X223475Y11891D01*
X223621Y11622D01*
X223740Y11340D01*
X223833Y11049D01*
X223901Y10751D01*
X223941Y10447D01*
X223955Y10142D01*
X223941Y9836D01*
X223901Y9533D01*
X223833Y9234D01*
X223740Y8943D01*
X223621Y8661D01*
X223478Y8391D01*
X223442Y8321D01*
X223419Y8246D01*
X223408Y8168D01*
X223409Y8089D01*
X223423Y8012D01*
X223448Y7937D01*
X223485Y7868D01*
X223533Y7805D01*
X223589Y7750D01*
X223654Y7705D01*
X223725Y7671D01*
X223800Y7648D01*
X223878Y7637D01*
X223956Y7638D01*
X224034Y7652D01*
X224108Y7677D01*
X224178Y7714D01*
X224182Y7717D01*
Y2000D01*
G37*
G36*
X220506Y54400D02*X224182D01*
Y30375D01*
X224116Y30482D01*
X223661Y31015D01*
X223128Y31469D01*
X222531Y31835D01*
X221884Y32104D01*
X221203Y32267D01*
X220506Y32322D01*
Y54400D01*
G37*
G36*
X216828Y25342D02*X216893Y25235D01*
X217348Y24702D01*
X217881Y24247D01*
X218478Y23881D01*
X219125Y23613D01*
X219806Y23450D01*
X220505Y23395D01*
X220506Y23395D01*
Y14596D01*
X220505Y14596D01*
X220110Y14579D01*
X219719Y14526D01*
X219333Y14439D01*
X218957Y14319D01*
X218593Y14165D01*
X218244Y13980D01*
X218179Y13935D01*
X218122Y13880D01*
X218074Y13817D01*
X218037Y13747D01*
X218011Y13672D01*
X217998Y13594D01*
X217996Y13515D01*
X218007Y13436D01*
X218030Y13360D01*
X218065Y13289D01*
X218111Y13224D01*
X218166Y13167D01*
X218229Y13120D01*
X218299Y13082D01*
X218374Y13057D01*
X218452Y13043D01*
X218531Y13041D01*
X218609Y13052D01*
X218685Y13076D01*
X218756Y13112D01*
X219024Y13258D01*
X219306Y13377D01*
X219597Y13470D01*
X219896Y13538D01*
X220199Y13578D01*
X220505Y13592D01*
X220506Y13592D01*
Y6692D01*
X220505Y6692D01*
X220199Y6705D01*
X219896Y6746D01*
X219597Y6813D01*
X219306Y6907D01*
X219024Y7026D01*
X218754Y7169D01*
X218684Y7205D01*
X218609Y7228D01*
X218531Y7239D01*
X218452Y7237D01*
X218375Y7224D01*
X218300Y7198D01*
X218231Y7161D01*
X218168Y7114D01*
X218113Y7057D01*
X218068Y6993D01*
X218034Y6922D01*
X218011Y6847D01*
X218000Y6769D01*
X218001Y6690D01*
X218015Y6612D01*
X218040Y6538D01*
X218077Y6469D01*
X218125Y6406D01*
X218181Y6351D01*
X218247Y6307D01*
X218593Y6118D01*
X218957Y5965D01*
X219333Y5844D01*
X219719Y5757D01*
X220110Y5705D01*
X220505Y5687D01*
X220506Y5687D01*
Y2000D01*
X216828D01*
Y7713D01*
X216830Y7711D01*
X216900Y7674D01*
X216975Y7648D01*
X217053Y7635D01*
X217132Y7633D01*
X217210Y7644D01*
X217286Y7667D01*
X217357Y7702D01*
X217422Y7748D01*
X217479Y7803D01*
X217527Y7866D01*
X217564Y7936D01*
X217590Y8011D01*
X217604Y8089D01*
X217605Y8168D01*
X217594Y8247D01*
X217571Y8322D01*
X217535Y8393D01*
X217389Y8661D01*
X217270Y8943D01*
X217176Y9234D01*
X217109Y9533D01*
X217068Y9836D01*
X217055Y10142D01*
X217068Y10447D01*
X217109Y10751D01*
X217176Y11049D01*
X217270Y11340D01*
X217389Y11622D01*
X217532Y11892D01*
X217568Y11962D01*
X217591Y12038D01*
X217602Y12116D01*
X217600Y12194D01*
X217587Y12272D01*
X217561Y12346D01*
X217524Y12416D01*
X217477Y12479D01*
X217420Y12533D01*
X217356Y12578D01*
X217285Y12613D01*
X217210Y12636D01*
X217132Y12647D01*
X217053Y12645D01*
X216975Y12632D01*
X216901Y12606D01*
X216832Y12569D01*
X216828Y12566D01*
Y25342D01*
G37*
G36*
Y54400D02*X220506D01*
Y32322D01*
X220505Y32322D01*
X219806Y32267D01*
X219125Y32104D01*
X218478Y31835D01*
X217881Y31469D01*
X217348Y31015D01*
X216893Y30482D01*
X216828Y30375D01*
Y54400D01*
G37*
G36*
X183172D02*X216828D01*
Y30375D01*
X216528Y29885D01*
X216259Y29238D01*
X216096Y28557D01*
X216041Y27858D01*
X216096Y27160D01*
X216259Y26479D01*
X216528Y25832D01*
X216828Y25342D01*
Y12566D01*
X216769Y12522D01*
X216714Y12465D01*
X216670Y12400D01*
X216481Y12053D01*
X216328Y11689D01*
X216207Y11313D01*
X216120Y10928D01*
X216068Y10536D01*
X216050Y10142D01*
X216068Y9747D01*
X216120Y9356D01*
X216207Y8970D01*
X216328Y8594D01*
X216481Y8230D01*
X216666Y7881D01*
X216711Y7816D01*
X216766Y7759D01*
X216828Y7713D01*
Y2000D01*
X183172D01*
Y7717D01*
X183231Y7762D01*
X183286Y7818D01*
X183330Y7884D01*
X183519Y8230D01*
X183672Y8594D01*
X183793Y8970D01*
X183880Y9356D01*
X183932Y9747D01*
X183950Y10142D01*
X183932Y10536D01*
X183880Y10928D01*
X183793Y11313D01*
X183672Y11689D01*
X183519Y12053D01*
X183334Y12402D01*
X183289Y12467D01*
X183234Y12524D01*
X183172Y12571D01*
Y25342D01*
X183472Y25832D01*
X183741Y26479D01*
X183904Y27160D01*
X183945Y27858D01*
X183904Y28557D01*
X183741Y29238D01*
X183472Y29885D01*
X183172Y30375D01*
Y54400D01*
G37*
G36*
Y2000D02*X179497D01*
Y5687D01*
X179890Y5705D01*
X180281Y5757D01*
X180667Y5844D01*
X181043Y5965D01*
X181407Y6118D01*
X181756Y6304D01*
X181821Y6348D01*
X181878Y6403D01*
X181926Y6467D01*
X181963Y6537D01*
X181989Y6612D01*
X182002Y6690D01*
X182004Y6769D01*
X181993Y6847D01*
X181970Y6923D01*
X181935Y6994D01*
X181889Y7059D01*
X181834Y7116D01*
X181771Y7164D01*
X181701Y7201D01*
X181626Y7227D01*
X181548Y7241D01*
X181469Y7242D01*
X181390Y7231D01*
X181315Y7208D01*
X181244Y7172D01*
X180976Y7026D01*
X180694Y6907D01*
X180403Y6813D01*
X180104Y6746D01*
X179801Y6705D01*
X179497Y6692D01*
Y13592D01*
X179801Y13578D01*
X180104Y13538D01*
X180403Y13470D01*
X180694Y13377D01*
X180976Y13258D01*
X181246Y13115D01*
X181316Y13079D01*
X181391Y13056D01*
X181469Y13045D01*
X181548Y13046D01*
X181625Y13060D01*
X181700Y13085D01*
X181769Y13122D01*
X181832Y13170D01*
X181887Y13226D01*
X181932Y13291D01*
X181966Y13362D01*
X181989Y13437D01*
X182000Y13515D01*
X181999Y13593D01*
X181985Y13671D01*
X181960Y13745D01*
X181923Y13815D01*
X181875Y13878D01*
X181819Y13932D01*
X181753Y13976D01*
X181407Y14165D01*
X181043Y14319D01*
X180667Y14439D01*
X180281Y14526D01*
X179890Y14579D01*
X179497Y14596D01*
Y23395D01*
X180194Y23450D01*
X180875Y23613D01*
X181522Y23881D01*
X182119Y24247D01*
X182652Y24702D01*
X183107Y25235D01*
X183172Y25342D01*
Y12571D01*
X183170Y12572D01*
X183100Y12609D01*
X183025Y12635D01*
X182947Y12649D01*
X182868Y12650D01*
X182790Y12639D01*
X182714Y12616D01*
X182643Y12581D01*
X182578Y12536D01*
X182521Y12481D01*
X182473Y12418D01*
X182436Y12348D01*
X182410Y12273D01*
X182396Y12195D01*
X182395Y12115D01*
X182406Y12037D01*
X182429Y11961D01*
X182465Y11891D01*
X182611Y11622D01*
X182730Y11340D01*
X182824Y11049D01*
X182891Y10751D01*
X182932Y10447D01*
X182945Y10142D01*
X182932Y9836D01*
X182891Y9533D01*
X182824Y9234D01*
X182730Y8943D01*
X182611Y8661D01*
X182468Y8391D01*
X182432Y8321D01*
X182409Y8246D01*
X182398Y8168D01*
X182400Y8089D01*
X182413Y8012D01*
X182439Y7937D01*
X182476Y7868D01*
X182523Y7805D01*
X182580Y7750D01*
X182644Y7705D01*
X182715Y7671D01*
X182790Y7648D01*
X182868Y7637D01*
X182947Y7638D01*
X183025Y7652D01*
X183099Y7677D01*
X183168Y7714D01*
X183172Y7717D01*
Y2000D01*
G37*
G36*
X179497Y54400D02*X183172D01*
Y30375D01*
X183107Y30482D01*
X182652Y31015D01*
X182119Y31469D01*
X181522Y31835D01*
X180875Y32104D01*
X180194Y32267D01*
X179497Y32322D01*
Y54400D01*
G37*
G36*
X175818Y25342D02*X175884Y25235D01*
X176339Y24702D01*
X176872Y24247D01*
X177469Y23881D01*
X178116Y23613D01*
X178797Y23450D01*
X179495Y23395D01*
X179497Y23395D01*
Y14596D01*
X179495Y14596D01*
X179101Y14579D01*
X178709Y14526D01*
X178324Y14439D01*
X177948Y14319D01*
X177584Y14165D01*
X177235Y13980D01*
X177170Y13935D01*
X177113Y13880D01*
X177065Y13817D01*
X177028Y13747D01*
X177002Y13672D01*
X176988Y13594D01*
X176987Y13515D01*
X176998Y13436D01*
X177021Y13360D01*
X177056Y13289D01*
X177101Y13224D01*
X177156Y13167D01*
X177219Y13120D01*
X177289Y13082D01*
X177364Y13057D01*
X177442Y13043D01*
X177522Y13041D01*
X177600Y13052D01*
X177676Y13076D01*
X177746Y13112D01*
X178015Y13258D01*
X178297Y13377D01*
X178588Y13470D01*
X178886Y13538D01*
X179190Y13578D01*
X179495Y13592D01*
X179497Y13592D01*
Y6692D01*
X179495Y6692D01*
X179190Y6705D01*
X178886Y6746D01*
X178588Y6813D01*
X178297Y6907D01*
X178015Y7026D01*
X177745Y7169D01*
X177675Y7205D01*
X177599Y7228D01*
X177521Y7239D01*
X177443Y7237D01*
X177365Y7224D01*
X177291Y7198D01*
X177221Y7161D01*
X177158Y7114D01*
X177104Y7057D01*
X177059Y6993D01*
X177024Y6922D01*
X177001Y6847D01*
X176990Y6769D01*
X176992Y6690D01*
X177005Y6612D01*
X177031Y6538D01*
X177068Y6469D01*
X177115Y6406D01*
X177172Y6351D01*
X177237Y6307D01*
X177584Y6118D01*
X177948Y5965D01*
X178324Y5844D01*
X178709Y5757D01*
X179101Y5705D01*
X179495Y5687D01*
X179497Y5687D01*
Y2000D01*
X175818D01*
Y7713D01*
X175820Y7711D01*
X175890Y7674D01*
X175965Y7648D01*
X176043Y7635D01*
X176122Y7633D01*
X176201Y7644D01*
X176277Y7667D01*
X176348Y7702D01*
X176413Y7748D01*
X176470Y7803D01*
X176517Y7866D01*
X176555Y7936D01*
X176581Y8011D01*
X176594Y8089D01*
X176596Y8168D01*
X176585Y8247D01*
X176561Y8322D01*
X176525Y8393D01*
X176379Y8661D01*
X176260Y8943D01*
X176167Y9234D01*
X176099Y9533D01*
X176059Y9836D01*
X176045Y10142D01*
X176059Y10447D01*
X176099Y10751D01*
X176167Y11049D01*
X176260Y11340D01*
X176379Y11622D01*
X176522Y11892D01*
X176558Y11962D01*
X176581Y12038D01*
X176592Y12116D01*
X176591Y12194D01*
X176577Y12272D01*
X176552Y12346D01*
X176515Y12416D01*
X176467Y12479D01*
X176411Y12533D01*
X176346Y12578D01*
X176275Y12613D01*
X176200Y12636D01*
X176122Y12647D01*
X176044Y12645D01*
X175966Y12632D01*
X175892Y12606D01*
X175822Y12569D01*
X175818Y12566D01*
Y25342D01*
G37*
G36*
Y54400D02*X179497D01*
Y32322D01*
X179495Y32322D01*
X178797Y32267D01*
X178116Y32104D01*
X177469Y31835D01*
X176872Y31469D01*
X176339Y31015D01*
X175884Y30482D01*
X175818Y30375D01*
Y54400D01*
G37*
G36*
X157582D02*X175818D01*
Y30375D01*
X175518Y29885D01*
X175250Y29238D01*
X175087Y28557D01*
X175032Y27858D01*
X175087Y27160D01*
X175250Y26479D01*
X175518Y25832D01*
X175818Y25342D01*
Y12566D01*
X175759Y12522D01*
X175705Y12465D01*
X175661Y12400D01*
X175472Y12053D01*
X175318Y11689D01*
X175198Y11313D01*
X175111Y10928D01*
X175058Y10536D01*
X175041Y10142D01*
X175058Y9747D01*
X175111Y9356D01*
X175198Y8970D01*
X175318Y8594D01*
X175472Y8230D01*
X175657Y7881D01*
X175702Y7816D01*
X175757Y7759D01*
X175818Y7713D01*
Y2000D01*
X157582D01*
Y7717D01*
X157641Y7762D01*
X157695Y7818D01*
X157739Y7884D01*
X157928Y8230D01*
X158082Y8594D01*
X158202Y8970D01*
X158289Y9356D01*
X158342Y9747D01*
X158359Y10142D01*
X158342Y10536D01*
X158289Y10928D01*
X158202Y11313D01*
X158082Y11689D01*
X157928Y12053D01*
X157743Y12402D01*
X157698Y12467D01*
X157643Y12524D01*
X157582Y12571D01*
Y25342D01*
X157882Y25832D01*
X158150Y26479D01*
X158313Y27160D01*
X158355Y27858D01*
X158313Y28557D01*
X158150Y29238D01*
X157882Y29885D01*
X157582Y30375D01*
Y54400D01*
G37*
G36*
Y2000D02*X153906D01*
Y5687D01*
X154299Y5705D01*
X154691Y5757D01*
X155076Y5844D01*
X155452Y5965D01*
X155816Y6118D01*
X156165Y6304D01*
X156230Y6348D01*
X156287Y6403D01*
X156335Y6467D01*
X156372Y6537D01*
X156398Y6612D01*
X156412Y6690D01*
X156413Y6769D01*
X156402Y6847D01*
X156379Y6923D01*
X156344Y6994D01*
X156299Y7059D01*
X156244Y7116D01*
X156181Y7164D01*
X156111Y7201D01*
X156036Y7227D01*
X155958Y7241D01*
X155878Y7242D01*
X155800Y7231D01*
X155724Y7208D01*
X155654Y7172D01*
X155385Y7026D01*
X155103Y6907D01*
X154812Y6813D01*
X154514Y6746D01*
X154210Y6705D01*
X153906Y6692D01*
Y13592D01*
X154210Y13578D01*
X154514Y13538D01*
X154812Y13470D01*
X155103Y13377D01*
X155385Y13258D01*
X155655Y13115D01*
X155725Y13079D01*
X155801Y13056D01*
X155879Y13045D01*
X155957Y13046D01*
X156035Y13060D01*
X156109Y13085D01*
X156179Y13122D01*
X156242Y13170D01*
X156296Y13226D01*
X156341Y13291D01*
X156376Y13362D01*
X156399Y13437D01*
X156410Y13515D01*
X156408Y13593D01*
X156395Y13671D01*
X156369Y13745D01*
X156332Y13815D01*
X156285Y13878D01*
X156228Y13932D01*
X156163Y13976D01*
X155816Y14165D01*
X155452Y14319D01*
X155076Y14439D01*
X154691Y14526D01*
X154299Y14579D01*
X153906Y14596D01*
Y23395D01*
X154603Y23450D01*
X155284Y23613D01*
X155931Y23881D01*
X156528Y24247D01*
X157061Y24702D01*
X157516Y25235D01*
X157582Y25342D01*
Y12571D01*
X157580Y12572D01*
X157510Y12609D01*
X157435Y12635D01*
X157357Y12649D01*
X157278Y12650D01*
X157199Y12639D01*
X157123Y12616D01*
X157052Y12581D01*
X156987Y12536D01*
X156930Y12481D01*
X156882Y12418D01*
X156845Y12348D01*
X156819Y12273D01*
X156806Y12195D01*
X156804Y12115D01*
X156815Y12037D01*
X156839Y11961D01*
X156875Y11891D01*
X157021Y11622D01*
X157140Y11340D01*
X157233Y11049D01*
X157301Y10751D01*
X157341Y10447D01*
X157355Y10142D01*
X157341Y9836D01*
X157301Y9533D01*
X157233Y9234D01*
X157140Y8943D01*
X157021Y8661D01*
X156878Y8391D01*
X156842Y8321D01*
X156819Y8246D01*
X156808Y8168D01*
X156809Y8089D01*
X156823Y8012D01*
X156848Y7937D01*
X156885Y7868D01*
X156933Y7805D01*
X156989Y7750D01*
X157054Y7705D01*
X157125Y7671D01*
X157200Y7648D01*
X157278Y7637D01*
X157356Y7638D01*
X157434Y7652D01*
X157508Y7677D01*
X157578Y7714D01*
X157582Y7717D01*
Y2000D01*
G37*
G36*
X153906Y54400D02*X157582D01*
Y30375D01*
X157516Y30482D01*
X157061Y31015D01*
X156528Y31469D01*
X155931Y31835D01*
X155284Y32104D01*
X154603Y32267D01*
X153906Y32322D01*
Y54400D01*
G37*
G36*
X150228Y25342D02*X150293Y25235D01*
X150748Y24702D01*
X151281Y24247D01*
X151878Y23881D01*
X152525Y23613D01*
X153206Y23450D01*
X153905Y23395D01*
X153906Y23395D01*
Y14596D01*
X153905Y14596D01*
X153510Y14579D01*
X153119Y14526D01*
X152733Y14439D01*
X152357Y14319D01*
X151993Y14165D01*
X151644Y13980D01*
X151579Y13935D01*
X151522Y13880D01*
X151474Y13817D01*
X151437Y13747D01*
X151411Y13672D01*
X151398Y13594D01*
X151396Y13515D01*
X151407Y13436D01*
X151430Y13360D01*
X151465Y13289D01*
X151511Y13224D01*
X151566Y13167D01*
X151629Y13120D01*
X151699Y13082D01*
X151774Y13057D01*
X151852Y13043D01*
X151931Y13041D01*
X152010Y13052D01*
X152085Y13076D01*
X152156Y13112D01*
X152424Y13258D01*
X152706Y13377D01*
X152997Y13470D01*
X153296Y13538D01*
X153599Y13578D01*
X153905Y13592D01*
X153906Y13592D01*
Y6692D01*
X153905Y6692D01*
X153599Y6705D01*
X153296Y6746D01*
X152997Y6813D01*
X152706Y6907D01*
X152424Y7026D01*
X152154Y7169D01*
X152084Y7205D01*
X152009Y7228D01*
X151931Y7239D01*
X151852Y7237D01*
X151775Y7224D01*
X151700Y7198D01*
X151631Y7161D01*
X151568Y7114D01*
X151513Y7057D01*
X151468Y6993D01*
X151434Y6922D01*
X151411Y6847D01*
X151400Y6769D01*
X151401Y6690D01*
X151415Y6612D01*
X151440Y6538D01*
X151477Y6469D01*
X151525Y6406D01*
X151581Y6351D01*
X151647Y6307D01*
X151993Y6118D01*
X152357Y5965D01*
X152733Y5844D01*
X153119Y5757D01*
X153510Y5705D01*
X153905Y5687D01*
X153906Y5687D01*
Y2000D01*
X150228D01*
Y7713D01*
X150230Y7711D01*
X150300Y7674D01*
X150375Y7648D01*
X150453Y7635D01*
X150532Y7633D01*
X150610Y7644D01*
X150686Y7667D01*
X150757Y7702D01*
X150822Y7748D01*
X150879Y7803D01*
X150927Y7866D01*
X150964Y7936D01*
X150990Y8011D01*
X151004Y8089D01*
X151005Y8168D01*
X150994Y8247D01*
X150971Y8322D01*
X150935Y8393D01*
X150789Y8661D01*
X150670Y8943D01*
X150576Y9234D01*
X150509Y9533D01*
X150468Y9836D01*
X150455Y10142D01*
X150468Y10447D01*
X150509Y10751D01*
X150576Y11049D01*
X150670Y11340D01*
X150789Y11622D01*
X150932Y11892D01*
X150968Y11962D01*
X150991Y12038D01*
X151002Y12116D01*
X151000Y12194D01*
X150987Y12272D01*
X150961Y12346D01*
X150924Y12416D01*
X150877Y12479D01*
X150820Y12533D01*
X150756Y12578D01*
X150685Y12613D01*
X150610Y12636D01*
X150532Y12647D01*
X150453Y12645D01*
X150375Y12632D01*
X150301Y12606D01*
X150232Y12569D01*
X150228Y12566D01*
Y25342D01*
G37*
G36*
Y54400D02*X153906D01*
Y32322D01*
X153905Y32322D01*
X153206Y32267D01*
X152525Y32104D01*
X151878Y31835D01*
X151281Y31469D01*
X150748Y31015D01*
X150293Y30482D01*
X150228Y30375D01*
Y54400D01*
G37*
G36*
X116472D02*X150228D01*
Y30375D01*
X149928Y29885D01*
X149659Y29238D01*
X149496Y28557D01*
X149441Y27858D01*
X149496Y27160D01*
X149659Y26479D01*
X149928Y25832D01*
X150228Y25342D01*
Y12566D01*
X150169Y12522D01*
X150114Y12465D01*
X150070Y12400D01*
X149881Y12053D01*
X149728Y11689D01*
X149607Y11313D01*
X149520Y10928D01*
X149468Y10536D01*
X149450Y10142D01*
X149468Y9747D01*
X149520Y9356D01*
X149607Y8970D01*
X149728Y8594D01*
X149881Y8230D01*
X150066Y7881D01*
X150111Y7816D01*
X150166Y7759D01*
X150228Y7713D01*
Y2000D01*
X116472D01*
Y7717D01*
X116531Y7762D01*
X116586Y7818D01*
X116630Y7884D01*
X116819Y8230D01*
X116972Y8594D01*
X117093Y8970D01*
X117180Y9356D01*
X117232Y9747D01*
X117250Y10142D01*
X117232Y10536D01*
X117180Y10928D01*
X117093Y11313D01*
X116972Y11689D01*
X116819Y12053D01*
X116634Y12402D01*
X116589Y12467D01*
X116534Y12524D01*
X116472Y12571D01*
Y25342D01*
X116772Y25832D01*
X117041Y26479D01*
X117204Y27160D01*
X117245Y27858D01*
X117204Y28557D01*
X117041Y29238D01*
X116772Y29885D01*
X116472Y30375D01*
Y54400D01*
G37*
G36*
Y2000D02*X112797D01*
Y5687D01*
X113190Y5705D01*
X113581Y5757D01*
X113967Y5844D01*
X114343Y5965D01*
X114707Y6118D01*
X115056Y6304D01*
X115121Y6348D01*
X115178Y6403D01*
X115226Y6467D01*
X115263Y6537D01*
X115289Y6612D01*
X115302Y6690D01*
X115304Y6769D01*
X115293Y6847D01*
X115270Y6923D01*
X115235Y6994D01*
X115189Y7059D01*
X115134Y7116D01*
X115071Y7164D01*
X115001Y7201D01*
X114926Y7227D01*
X114848Y7241D01*
X114769Y7242D01*
X114690Y7231D01*
X114615Y7208D01*
X114544Y7172D01*
X114276Y7026D01*
X113994Y6907D01*
X113703Y6813D01*
X113404Y6746D01*
X113101Y6705D01*
X112797Y6692D01*
Y13592D01*
X113101Y13578D01*
X113404Y13538D01*
X113703Y13470D01*
X113994Y13377D01*
X114276Y13258D01*
X114546Y13115D01*
X114616Y13079D01*
X114691Y13056D01*
X114769Y13045D01*
X114848Y13046D01*
X114925Y13060D01*
X115000Y13085D01*
X115069Y13122D01*
X115132Y13170D01*
X115187Y13226D01*
X115232Y13291D01*
X115266Y13362D01*
X115289Y13437D01*
X115300Y13515D01*
X115299Y13593D01*
X115285Y13671D01*
X115260Y13745D01*
X115223Y13815D01*
X115175Y13878D01*
X115119Y13932D01*
X115053Y13976D01*
X114707Y14165D01*
X114343Y14319D01*
X113967Y14439D01*
X113581Y14526D01*
X113190Y14579D01*
X112797Y14596D01*
Y23395D01*
X113494Y23450D01*
X114175Y23613D01*
X114822Y23881D01*
X115419Y24247D01*
X115952Y24702D01*
X116407Y25235D01*
X116472Y25342D01*
Y12571D01*
X116470Y12572D01*
X116400Y12609D01*
X116325Y12635D01*
X116247Y12649D01*
X116168Y12650D01*
X116090Y12639D01*
X116014Y12616D01*
X115943Y12581D01*
X115878Y12536D01*
X115821Y12481D01*
X115773Y12418D01*
X115736Y12348D01*
X115710Y12273D01*
X115696Y12195D01*
X115695Y12115D01*
X115706Y12037D01*
X115729Y11961D01*
X115765Y11891D01*
X115911Y11622D01*
X116030Y11340D01*
X116124Y11049D01*
X116191Y10751D01*
X116232Y10447D01*
X116245Y10142D01*
X116232Y9836D01*
X116191Y9533D01*
X116124Y9234D01*
X116030Y8943D01*
X115911Y8661D01*
X115768Y8391D01*
X115732Y8321D01*
X115709Y8246D01*
X115698Y8168D01*
X115700Y8089D01*
X115713Y8012D01*
X115739Y7937D01*
X115776Y7868D01*
X115823Y7805D01*
X115880Y7750D01*
X115944Y7705D01*
X116015Y7671D01*
X116090Y7648D01*
X116168Y7637D01*
X116247Y7638D01*
X116325Y7652D01*
X116399Y7677D01*
X116468Y7714D01*
X116472Y7717D01*
Y2000D01*
G37*
G36*
X112797Y54400D02*X116472D01*
Y30375D01*
X116407Y30482D01*
X115952Y31015D01*
X115419Y31469D01*
X114822Y31835D01*
X114175Y32104D01*
X113494Y32267D01*
X112797Y32322D01*
Y54400D01*
G37*
G36*
X109118Y25342D02*X109184Y25235D01*
X109639Y24702D01*
X110172Y24247D01*
X110769Y23881D01*
X111416Y23613D01*
X112097Y23450D01*
X112795Y23395D01*
X112797Y23395D01*
Y14596D01*
X112795Y14596D01*
X112401Y14579D01*
X112009Y14526D01*
X111624Y14439D01*
X111248Y14319D01*
X110884Y14165D01*
X110535Y13980D01*
X110470Y13935D01*
X110413Y13880D01*
X110365Y13817D01*
X110328Y13747D01*
X110302Y13672D01*
X110288Y13594D01*
X110287Y13515D01*
X110298Y13436D01*
X110321Y13360D01*
X110356Y13289D01*
X110401Y13224D01*
X110456Y13167D01*
X110519Y13120D01*
X110589Y13082D01*
X110664Y13057D01*
X110742Y13043D01*
X110822Y13041D01*
X110900Y13052D01*
X110976Y13076D01*
X111046Y13112D01*
X111315Y13258D01*
X111597Y13377D01*
X111888Y13470D01*
X112186Y13538D01*
X112490Y13578D01*
X112795Y13592D01*
X112797Y13592D01*
Y6692D01*
X112795Y6692D01*
X112490Y6705D01*
X112186Y6746D01*
X111888Y6813D01*
X111597Y6907D01*
X111315Y7026D01*
X111045Y7169D01*
X110975Y7205D01*
X110899Y7228D01*
X110821Y7239D01*
X110743Y7237D01*
X110665Y7224D01*
X110591Y7198D01*
X110521Y7161D01*
X110458Y7114D01*
X110404Y7057D01*
X110359Y6993D01*
X110324Y6922D01*
X110301Y6847D01*
X110290Y6769D01*
X110292Y6690D01*
X110305Y6612D01*
X110331Y6538D01*
X110368Y6469D01*
X110415Y6406D01*
X110472Y6351D01*
X110537Y6307D01*
X110884Y6118D01*
X111248Y5965D01*
X111624Y5844D01*
X112009Y5757D01*
X112401Y5705D01*
X112795Y5687D01*
X112797Y5687D01*
Y2000D01*
X109118D01*
Y7713D01*
X109120Y7711D01*
X109190Y7674D01*
X109265Y7648D01*
X109343Y7635D01*
X109422Y7633D01*
X109501Y7644D01*
X109577Y7667D01*
X109648Y7702D01*
X109713Y7748D01*
X109770Y7803D01*
X109817Y7866D01*
X109855Y7936D01*
X109881Y8011D01*
X109894Y8089D01*
X109896Y8168D01*
X109885Y8247D01*
X109861Y8322D01*
X109825Y8393D01*
X109679Y8661D01*
X109560Y8943D01*
X109467Y9234D01*
X109399Y9533D01*
X109359Y9836D01*
X109345Y10142D01*
X109359Y10447D01*
X109399Y10751D01*
X109467Y11049D01*
X109560Y11340D01*
X109679Y11622D01*
X109822Y11892D01*
X109858Y11962D01*
X109881Y12038D01*
X109892Y12116D01*
X109891Y12194D01*
X109877Y12272D01*
X109852Y12346D01*
X109815Y12416D01*
X109767Y12479D01*
X109711Y12533D01*
X109646Y12578D01*
X109575Y12613D01*
X109500Y12636D01*
X109422Y12647D01*
X109344Y12645D01*
X109266Y12632D01*
X109192Y12606D01*
X109122Y12569D01*
X109118Y12566D01*
Y25342D01*
G37*
G36*
Y54400D02*X112797D01*
Y32322D01*
X112795Y32322D01*
X112097Y32267D01*
X111416Y32104D01*
X110769Y31835D01*
X110172Y31469D01*
X109639Y31015D01*
X109184Y30482D01*
X109118Y30375D01*
Y54400D01*
G37*
G36*
X90882D02*X109118D01*
Y30375D01*
X108818Y29885D01*
X108550Y29238D01*
X108387Y28557D01*
X108332Y27858D01*
X108387Y27160D01*
X108550Y26479D01*
X108818Y25832D01*
X109118Y25342D01*
Y12566D01*
X109059Y12522D01*
X109005Y12465D01*
X108961Y12400D01*
X108772Y12053D01*
X108618Y11689D01*
X108498Y11313D01*
X108411Y10928D01*
X108358Y10536D01*
X108341Y10142D01*
X108358Y9747D01*
X108411Y9356D01*
X108498Y8970D01*
X108618Y8594D01*
X108772Y8230D01*
X108957Y7881D01*
X109002Y7816D01*
X109057Y7759D01*
X109118Y7713D01*
Y2000D01*
X90882D01*
Y7717D01*
X90941Y7762D01*
X90995Y7818D01*
X91039Y7884D01*
X91228Y8230D01*
X91382Y8594D01*
X91502Y8970D01*
X91589Y9356D01*
X91642Y9747D01*
X91659Y10142D01*
X91642Y10536D01*
X91589Y10928D01*
X91502Y11313D01*
X91382Y11689D01*
X91228Y12053D01*
X91043Y12402D01*
X90998Y12467D01*
X90943Y12524D01*
X90882Y12571D01*
Y25342D01*
X91182Y25832D01*
X91450Y26479D01*
X91613Y27160D01*
X91655Y27858D01*
X91613Y28557D01*
X91450Y29238D01*
X91182Y29885D01*
X90882Y30375D01*
Y54400D01*
G37*
G36*
Y2000D02*X87206D01*
Y5687D01*
X87599Y5705D01*
X87991Y5757D01*
X88376Y5844D01*
X88752Y5965D01*
X89116Y6118D01*
X89465Y6304D01*
X89530Y6348D01*
X89587Y6403D01*
X89635Y6467D01*
X89672Y6537D01*
X89698Y6612D01*
X89712Y6690D01*
X89713Y6769D01*
X89702Y6847D01*
X89679Y6923D01*
X89644Y6994D01*
X89599Y7059D01*
X89544Y7116D01*
X89481Y7164D01*
X89411Y7201D01*
X89336Y7227D01*
X89258Y7241D01*
X89178Y7242D01*
X89100Y7231D01*
X89024Y7208D01*
X88954Y7172D01*
X88685Y7026D01*
X88403Y6907D01*
X88112Y6813D01*
X87814Y6746D01*
X87510Y6705D01*
X87206Y6692D01*
Y13592D01*
X87510Y13578D01*
X87814Y13538D01*
X88112Y13470D01*
X88403Y13377D01*
X88685Y13258D01*
X88955Y13115D01*
X89025Y13079D01*
X89101Y13056D01*
X89179Y13045D01*
X89257Y13046D01*
X89335Y13060D01*
X89409Y13085D01*
X89479Y13122D01*
X89542Y13170D01*
X89596Y13226D01*
X89641Y13291D01*
X89676Y13362D01*
X89699Y13437D01*
X89710Y13515D01*
X89708Y13593D01*
X89695Y13671D01*
X89669Y13745D01*
X89632Y13815D01*
X89585Y13878D01*
X89528Y13932D01*
X89463Y13976D01*
X89116Y14165D01*
X88752Y14319D01*
X88376Y14439D01*
X87991Y14526D01*
X87599Y14579D01*
X87206Y14596D01*
Y23395D01*
X87903Y23450D01*
X88584Y23613D01*
X89231Y23881D01*
X89828Y24247D01*
X90361Y24702D01*
X90816Y25235D01*
X90882Y25342D01*
Y12571D01*
X90880Y12572D01*
X90810Y12609D01*
X90735Y12635D01*
X90657Y12649D01*
X90578Y12650D01*
X90499Y12639D01*
X90423Y12616D01*
X90352Y12581D01*
X90287Y12536D01*
X90230Y12481D01*
X90182Y12418D01*
X90145Y12348D01*
X90119Y12273D01*
X90106Y12195D01*
X90104Y12115D01*
X90115Y12037D01*
X90139Y11961D01*
X90175Y11891D01*
X90321Y11622D01*
X90440Y11340D01*
X90533Y11049D01*
X90601Y10751D01*
X90641Y10447D01*
X90655Y10142D01*
X90641Y9836D01*
X90601Y9533D01*
X90533Y9234D01*
X90440Y8943D01*
X90321Y8661D01*
X90178Y8391D01*
X90142Y8321D01*
X90119Y8246D01*
X90108Y8168D01*
X90109Y8089D01*
X90123Y8012D01*
X90148Y7937D01*
X90185Y7868D01*
X90233Y7805D01*
X90289Y7750D01*
X90354Y7705D01*
X90425Y7671D01*
X90500Y7648D01*
X90578Y7637D01*
X90656Y7638D01*
X90734Y7652D01*
X90808Y7677D01*
X90878Y7714D01*
X90882Y7717D01*
Y2000D01*
G37*
G36*
X87206Y54400D02*X90882D01*
Y30375D01*
X90816Y30482D01*
X90361Y31015D01*
X89828Y31469D01*
X89231Y31835D01*
X88584Y32104D01*
X87903Y32267D01*
X87206Y32322D01*
Y54400D01*
G37*
G36*
X83528Y25342D02*X83593Y25235D01*
X84048Y24702D01*
X84581Y24247D01*
X85178Y23881D01*
X85825Y23613D01*
X86506Y23450D01*
X87205Y23395D01*
X87206Y23395D01*
Y14596D01*
X87205Y14596D01*
X86810Y14579D01*
X86419Y14526D01*
X86033Y14439D01*
X85657Y14319D01*
X85293Y14165D01*
X84944Y13980D01*
X84879Y13935D01*
X84822Y13880D01*
X84774Y13817D01*
X84737Y13747D01*
X84711Y13672D01*
X84698Y13594D01*
X84696Y13515D01*
X84707Y13436D01*
X84730Y13360D01*
X84765Y13289D01*
X84811Y13224D01*
X84866Y13167D01*
X84929Y13120D01*
X84999Y13082D01*
X85074Y13057D01*
X85152Y13043D01*
X85231Y13041D01*
X85310Y13052D01*
X85385Y13076D01*
X85456Y13112D01*
X85724Y13258D01*
X86006Y13377D01*
X86297Y13470D01*
X86596Y13538D01*
X86899Y13578D01*
X87205Y13592D01*
X87206Y13592D01*
Y6692D01*
X87205Y6692D01*
X86899Y6705D01*
X86596Y6746D01*
X86297Y6813D01*
X86006Y6907D01*
X85724Y7026D01*
X85454Y7169D01*
X85384Y7205D01*
X85309Y7228D01*
X85231Y7239D01*
X85152Y7237D01*
X85075Y7224D01*
X85000Y7198D01*
X84931Y7161D01*
X84868Y7114D01*
X84813Y7057D01*
X84768Y6993D01*
X84734Y6922D01*
X84711Y6847D01*
X84700Y6769D01*
X84701Y6690D01*
X84715Y6612D01*
X84740Y6538D01*
X84777Y6469D01*
X84825Y6406D01*
X84881Y6351D01*
X84947Y6307D01*
X85293Y6118D01*
X85657Y5965D01*
X86033Y5844D01*
X86419Y5757D01*
X86810Y5705D01*
X87205Y5687D01*
X87206Y5687D01*
Y2000D01*
X83528D01*
Y7713D01*
X83530Y7711D01*
X83600Y7674D01*
X83675Y7648D01*
X83753Y7635D01*
X83832Y7633D01*
X83910Y7644D01*
X83986Y7667D01*
X84057Y7702D01*
X84122Y7748D01*
X84179Y7803D01*
X84227Y7866D01*
X84264Y7936D01*
X84290Y8011D01*
X84304Y8089D01*
X84305Y8168D01*
X84294Y8247D01*
X84271Y8322D01*
X84235Y8393D01*
X84089Y8661D01*
X83970Y8943D01*
X83876Y9234D01*
X83809Y9533D01*
X83768Y9836D01*
X83755Y10142D01*
X83768Y10447D01*
X83809Y10751D01*
X83876Y11049D01*
X83970Y11340D01*
X84089Y11622D01*
X84232Y11892D01*
X84268Y11962D01*
X84291Y12038D01*
X84302Y12116D01*
X84300Y12194D01*
X84287Y12272D01*
X84261Y12346D01*
X84224Y12416D01*
X84177Y12479D01*
X84120Y12533D01*
X84056Y12578D01*
X83985Y12613D01*
X83910Y12636D01*
X83832Y12647D01*
X83753Y12645D01*
X83675Y12632D01*
X83601Y12606D01*
X83532Y12569D01*
X83528Y12566D01*
Y25342D01*
G37*
G36*
Y54400D02*X87206D01*
Y32322D01*
X87205Y32322D01*
X86506Y32267D01*
X85825Y32104D01*
X85178Y31835D01*
X84581Y31469D01*
X84048Y31015D01*
X83593Y30482D01*
X83528Y30375D01*
Y54400D01*
G37*
G36*
X76000D02*X83528D01*
Y30375D01*
X83228Y29885D01*
X82959Y29238D01*
X82796Y28557D01*
X82741Y27858D01*
X82796Y27160D01*
X82959Y26479D01*
X83228Y25832D01*
X83528Y25342D01*
Y12566D01*
X83469Y12522D01*
X83414Y12465D01*
X83370Y12400D01*
X83181Y12053D01*
X83028Y11689D01*
X82907Y11313D01*
X82820Y10928D01*
X82768Y10536D01*
X82750Y10142D01*
X82768Y9747D01*
X82820Y9356D01*
X82907Y8970D01*
X83028Y8594D01*
X83181Y8230D01*
X83366Y7881D01*
X83411Y7816D01*
X83466Y7759D01*
X83528Y7713D01*
Y2000D01*
X76000D01*
Y54400D01*
G37*
G36*
X354996Y189500D02*X381500D01*
Y89000D01*
X354996D01*
Y124193D01*
X355000Y124193D01*
X355361Y124221D01*
X355713Y124306D01*
X356047Y124444D01*
X356356Y124634D01*
X356631Y124869D01*
X356866Y125144D01*
X357056Y125453D01*
X357194Y125787D01*
X357279Y126139D01*
X357300Y126500D01*
X357279Y126861D01*
X357194Y127213D01*
X357056Y127547D01*
X356866Y127856D01*
X356631Y128131D01*
X356500Y128244D01*
Y132256D01*
X356631Y132369D01*
X356866Y132644D01*
X357056Y132953D01*
X357194Y133287D01*
X357279Y133639D01*
X357300Y134000D01*
X357279Y134361D01*
X357194Y134713D01*
X357056Y135047D01*
X356866Y135356D01*
X356631Y135631D01*
X356356Y135866D01*
X356047Y136056D01*
X355713Y136194D01*
X355361Y136279D01*
X355000Y136307D01*
X354996Y136307D01*
Y189500D01*
G37*
G36*
X299846D02*X300756D01*
X300634Y189356D01*
X300444Y189047D01*
X300306Y188713D01*
X300221Y188361D01*
X300193Y188000D01*
X300221Y187639D01*
X300306Y187287D01*
X300444Y186953D01*
X300634Y186644D01*
X300869Y186369D01*
X301144Y186134D01*
X301453Y185944D01*
X301787Y185806D01*
X302139Y185721D01*
X302500Y185693D01*
X302861Y185721D01*
X303213Y185806D01*
X303547Y185944D01*
X303856Y186134D01*
X304131Y186369D01*
X304366Y186644D01*
X304556Y186953D01*
X304694Y187287D01*
X304779Y187639D01*
X304800Y188000D01*
X304779Y188361D01*
X304694Y188713D01*
X304556Y189047D01*
X304366Y189356D01*
X304244Y189500D01*
X354996D01*
Y136307D01*
X354639Y136279D01*
X354287Y136194D01*
X353953Y136056D01*
X353644Y135866D01*
X353369Y135631D01*
X353134Y135356D01*
X352944Y135047D01*
X352806Y134713D01*
X352721Y134361D01*
X352693Y134000D01*
X352721Y133639D01*
X352806Y133287D01*
X352944Y132953D01*
X353134Y132644D01*
X353369Y132369D01*
X353500Y132256D01*
Y128244D01*
X353369Y128131D01*
X353134Y127856D01*
X352944Y127547D01*
X352806Y127213D01*
X352721Y126861D01*
X352693Y126500D01*
X352721Y126139D01*
X352806Y125787D01*
X352944Y125453D01*
X353134Y125144D01*
X353369Y124869D01*
X353644Y124634D01*
X353953Y124444D01*
X354287Y124306D01*
X354639Y124221D01*
X354996Y124193D01*
Y89000D01*
X299846D01*
Y102380D01*
X300043Y102501D01*
X300701Y103063D01*
X301263Y103721D01*
X301716Y104459D01*
X302047Y105259D01*
X302249Y106101D01*
X302300Y106964D01*
X302249Y107827D01*
X302047Y108669D01*
X301716Y109469D01*
X301263Y110207D01*
X300701Y110865D01*
X300043Y111427D01*
X299846Y111548D01*
Y124000D01*
X314441D01*
X314500Y123995D01*
X314735Y124014D01*
X314735Y124014D01*
X314941Y124063D01*
X315108Y124023D01*
X315500Y123992D01*
X315892Y124023D01*
X316275Y124115D01*
X316638Y124266D01*
X316974Y124471D01*
X317273Y124727D01*
X317529Y125026D01*
X317734Y125362D01*
X317885Y125725D01*
X317977Y126108D01*
X318000Y126500D01*
X317977Y126892D01*
X317885Y127275D01*
X317734Y127638D01*
X317529Y127974D01*
X317273Y128273D01*
X316974Y128529D01*
X316638Y128734D01*
X316275Y128885D01*
X315892Y128977D01*
X315500Y129008D01*
X315242Y128987D01*
X315279Y129139D01*
X315300Y129500D01*
X315279Y129861D01*
X315194Y130213D01*
X315056Y130547D01*
X314866Y130856D01*
X314631Y131131D01*
X314356Y131366D01*
X314047Y131556D01*
X313713Y131694D01*
X313361Y131779D01*
X313000Y131807D01*
X312639Y131779D01*
X312287Y131694D01*
X311953Y131556D01*
X311644Y131366D01*
X311369Y131131D01*
X311256Y131000D01*
X299846D01*
Y189500D01*
G37*
G36*
X245500D02*X299846D01*
Y131000D01*
X289507D01*
X289273Y131273D01*
X288974Y131529D01*
X288638Y131734D01*
X288275Y131885D01*
X287892Y131977D01*
X287500Y132008D01*
X287108Y131977D01*
X286725Y131885D01*
X286362Y131734D01*
X286026Y131529D01*
X285727Y131273D01*
X285471Y130974D01*
X285266Y130638D01*
X285115Y130275D01*
X285023Y129892D01*
X284992Y129500D01*
X285023Y129108D01*
X285115Y128725D01*
X285266Y128362D01*
X285471Y128026D01*
X285727Y127727D01*
X286026Y127471D01*
X286362Y127266D01*
X286725Y127115D01*
X287108Y127023D01*
X287402Y127000D01*
X285744D01*
X285631Y127131D01*
X285356Y127366D01*
X285047Y127556D01*
X284713Y127694D01*
X284361Y127779D01*
X284000Y127807D01*
X283639Y127779D01*
X283287Y127694D01*
X282953Y127556D01*
X282644Y127366D01*
X282369Y127131D01*
X282134Y126856D01*
X281944Y126547D01*
X281806Y126213D01*
X281721Y125861D01*
X281693Y125500D01*
X281721Y125139D01*
X281806Y124787D01*
X281944Y124453D01*
X282134Y124144D01*
X282369Y123869D01*
X282644Y123634D01*
X282953Y123444D01*
X283287Y123306D01*
X283639Y123221D01*
X284000Y123193D01*
X284361Y123221D01*
X284713Y123306D01*
X285047Y123444D01*
X285356Y123634D01*
X285631Y123869D01*
X285744Y124000D01*
X299846D01*
Y111548D01*
X299305Y111880D01*
X298505Y112211D01*
X297663Y112413D01*
X296800Y112481D01*
X295937Y112413D01*
X295095Y112211D01*
X294295Y111880D01*
X293557Y111427D01*
X292899Y110865D01*
X292337Y110207D01*
X291884Y109469D01*
X291553Y108669D01*
X291351Y107827D01*
X291283Y106964D01*
X291351Y106101D01*
X291553Y105259D01*
X291884Y104459D01*
X292337Y103721D01*
X292899Y103063D01*
X293557Y102501D01*
X294295Y102048D01*
X295095Y101717D01*
X295937Y101515D01*
X296800Y101447D01*
X297663Y101515D01*
X298505Y101717D01*
X299305Y102048D01*
X299846Y102380D01*
Y89000D01*
X245500D01*
Y189500D01*
G37*
G36*
X354996Y179500D02*X381500D01*
Y72917D01*
X380413Y72831D01*
X377890Y72226D01*
X375493Y71233D01*
X373281Y69877D01*
X371308Y68192D01*
X369623Y66219D01*
X368267Y64007D01*
X367274Y61610D01*
X366669Y59087D01*
X366465Y56500D01*
X366669Y53913D01*
X367274Y51390D01*
X368267Y48993D01*
X369623Y46781D01*
X371308Y44808D01*
X373281Y43123D01*
X375493Y41767D01*
X376139Y41500D01*
X354996D01*
Y124193D01*
X355000Y124193D01*
X355361Y124221D01*
X355713Y124306D01*
X356047Y124444D01*
X356356Y124634D01*
X356631Y124869D01*
X356866Y125144D01*
X357056Y125453D01*
X357194Y125787D01*
X357279Y126139D01*
X357300Y126500D01*
X357279Y126861D01*
X357194Y127213D01*
X357056Y127547D01*
X356866Y127856D01*
X356631Y128131D01*
X356500Y128244D01*
Y132256D01*
X356631Y132369D01*
X356866Y132644D01*
X357056Y132953D01*
X357194Y133287D01*
X357279Y133639D01*
X357300Y134000D01*
X357279Y134361D01*
X357194Y134713D01*
X357056Y135047D01*
X356866Y135356D01*
X356631Y135631D01*
X356356Y135866D01*
X356047Y136056D01*
X355713Y136194D01*
X355361Y136279D01*
X355000Y136307D01*
X354996Y136307D01*
Y179500D01*
G37*
G36*
X299846D02*X354996D01*
Y136307D01*
X354639Y136279D01*
X354287Y136194D01*
X353953Y136056D01*
X353644Y135866D01*
X353369Y135631D01*
X353134Y135356D01*
X352944Y135047D01*
X352806Y134713D01*
X352721Y134361D01*
X352693Y134000D01*
X352721Y133639D01*
X352806Y133287D01*
X352944Y132953D01*
X353134Y132644D01*
X353369Y132369D01*
X353500Y132256D01*
Y128244D01*
X353369Y128131D01*
X353134Y127856D01*
X352944Y127547D01*
X352806Y127213D01*
X352721Y126861D01*
X352693Y126500D01*
X352721Y126139D01*
X352806Y125787D01*
X352944Y125453D01*
X353134Y125144D01*
X353369Y124869D01*
X353644Y124634D01*
X353953Y124444D01*
X354287Y124306D01*
X354639Y124221D01*
X354996Y124193D01*
Y41500D01*
X299846D01*
Y72852D01*
X300043Y72973D01*
X300701Y73535D01*
X301263Y74193D01*
X301716Y74931D01*
X302047Y75731D01*
X302249Y76573D01*
X302300Y77436D01*
X302249Y78299D01*
X302047Y79141D01*
X301716Y79941D01*
X301263Y80679D01*
X300701Y81337D01*
X300043Y81899D01*
X299846Y82020D01*
Y102380D01*
X300043Y102501D01*
X300701Y103063D01*
X301263Y103721D01*
X301716Y104459D01*
X302047Y105259D01*
X302249Y106101D01*
X302300Y106964D01*
X302249Y107827D01*
X302047Y108669D01*
X301716Y109469D01*
X301263Y110207D01*
X300701Y110865D01*
X300043Y111427D01*
X299846Y111548D01*
Y124000D01*
X314441D01*
X314500Y123995D01*
X314735Y124014D01*
X314735Y124014D01*
X314941Y124063D01*
X315108Y124023D01*
X315500Y123992D01*
X315892Y124023D01*
X316275Y124115D01*
X316638Y124266D01*
X316974Y124471D01*
X317273Y124727D01*
X317529Y125026D01*
X317734Y125362D01*
X317885Y125725D01*
X317977Y126108D01*
X318000Y126500D01*
X317977Y126892D01*
X317885Y127275D01*
X317734Y127638D01*
X317529Y127974D01*
X317273Y128273D01*
X316974Y128529D01*
X316638Y128734D01*
X316275Y128885D01*
X315892Y128977D01*
X315500Y129008D01*
X315242Y128987D01*
X315279Y129139D01*
X315300Y129500D01*
X315279Y129861D01*
X315194Y130213D01*
X315056Y130547D01*
X314866Y130856D01*
X314631Y131131D01*
X314356Y131366D01*
X314047Y131556D01*
X313713Y131694D01*
X313361Y131779D01*
X313000Y131807D01*
X312639Y131779D01*
X312287Y131694D01*
X311953Y131556D01*
X311644Y131366D01*
X311369Y131131D01*
X311256Y131000D01*
X299846D01*
Y179500D01*
G37*
G36*
X223996D02*X299846D01*
Y131000D01*
X289507D01*
X289273Y131273D01*
X288974Y131529D01*
X288638Y131734D01*
X288275Y131885D01*
X287892Y131977D01*
X287500Y132008D01*
X287108Y131977D01*
X286725Y131885D01*
X286362Y131734D01*
X286026Y131529D01*
X285727Y131273D01*
X285471Y130974D01*
X285266Y130638D01*
X285115Y130275D01*
X285023Y129892D01*
X284992Y129500D01*
X285023Y129108D01*
X285115Y128725D01*
X285266Y128362D01*
X285471Y128026D01*
X285727Y127727D01*
X286026Y127471D01*
X286362Y127266D01*
X286725Y127115D01*
X287108Y127023D01*
X287402Y127000D01*
X285744D01*
X285631Y127131D01*
X285356Y127366D01*
X285047Y127556D01*
X284713Y127694D01*
X284361Y127779D01*
X284000Y127807D01*
X283639Y127779D01*
X283287Y127694D01*
X282953Y127556D01*
X282644Y127366D01*
X282369Y127131D01*
X282134Y126856D01*
X281944Y126547D01*
X281806Y126213D01*
X281721Y125861D01*
X281693Y125500D01*
X281721Y125139D01*
X281806Y124787D01*
X281944Y124453D01*
X282134Y124144D01*
X282369Y123869D01*
X282644Y123634D01*
X282953Y123444D01*
X283287Y123306D01*
X283639Y123221D01*
X284000Y123193D01*
X284361Y123221D01*
X284713Y123306D01*
X285047Y123444D01*
X285356Y123634D01*
X285631Y123869D01*
X285744Y124000D01*
X299846D01*
Y111548D01*
X299305Y111880D01*
X298505Y112211D01*
X297663Y112413D01*
X296800Y112481D01*
X295937Y112413D01*
X295095Y112211D01*
X294295Y111880D01*
X293557Y111427D01*
X292899Y110865D01*
X292337Y110207D01*
X291884Y109469D01*
X291553Y108669D01*
X291351Y107827D01*
X291283Y106964D01*
X291351Y106101D01*
X291553Y105259D01*
X291884Y104459D01*
X292337Y103721D01*
X292899Y103063D01*
X293557Y102501D01*
X294295Y102048D01*
X295095Y101717D01*
X295937Y101515D01*
X296800Y101447D01*
X297663Y101515D01*
X298505Y101717D01*
X299305Y102048D01*
X299846Y102380D01*
Y82020D01*
X299305Y82352D01*
X298505Y82683D01*
X297663Y82885D01*
X296800Y82953D01*
X295937Y82885D01*
X295095Y82683D01*
X294295Y82352D01*
X293557Y81899D01*
X292899Y81337D01*
X292337Y80679D01*
X291884Y79941D01*
X291553Y79141D01*
X291351Y78299D01*
X291283Y77436D01*
X291351Y76573D01*
X291553Y75731D01*
X291884Y74931D01*
X292337Y74193D01*
X292899Y73535D01*
X293557Y72973D01*
X294295Y72520D01*
X295095Y72189D01*
X295937Y71987D01*
X296800Y71919D01*
X297663Y71987D01*
X298505Y72189D01*
X299305Y72520D01*
X299846Y72852D01*
Y41500D01*
X223996D01*
Y90193D01*
X224000Y90193D01*
X224361Y90221D01*
X224713Y90306D01*
X225047Y90444D01*
X225356Y90634D01*
X225631Y90869D01*
X225866Y91144D01*
X226056Y91453D01*
X226194Y91787D01*
X226279Y92139D01*
X226300Y92500D01*
X226279Y92861D01*
X226194Y93213D01*
X226056Y93547D01*
X225866Y93856D01*
X225631Y94131D01*
X225500Y94244D01*
Y98256D01*
X225631Y98369D01*
X225866Y98644D01*
X226056Y98953D01*
X226194Y99287D01*
X226279Y99639D01*
X226300Y100000D01*
X226279Y100361D01*
X226194Y100713D01*
X226056Y101047D01*
X225866Y101356D01*
X225631Y101631D01*
X225356Y101866D01*
X225047Y102056D01*
X224713Y102194D01*
X224361Y102279D01*
X224000Y102307D01*
X223996Y102307D01*
Y179500D01*
G37*
G36*
X217996D02*X223996D01*
Y102307D01*
X223639Y102279D01*
X223287Y102194D01*
X222953Y102056D01*
X222644Y101866D01*
X222369Y101631D01*
X222134Y101356D01*
X221944Y101047D01*
X221806Y100713D01*
X221721Y100361D01*
X221693Y100000D01*
X221721Y99639D01*
X221806Y99287D01*
X221944Y98953D01*
X222134Y98644D01*
X222369Y98369D01*
X222500Y98256D01*
Y94244D01*
X222369Y94131D01*
X222134Y93856D01*
X221944Y93547D01*
X221806Y93213D01*
X221721Y92861D01*
X221693Y92500D01*
X221721Y92139D01*
X221806Y91787D01*
X221944Y91453D01*
X222134Y91144D01*
X222369Y90869D01*
X222644Y90634D01*
X222953Y90444D01*
X223287Y90306D01*
X223639Y90221D01*
X223996Y90193D01*
Y41500D01*
X217996D01*
Y92693D01*
X218000Y92693D01*
X218361Y92721D01*
X218713Y92806D01*
X219047Y92944D01*
X219356Y93134D01*
X219631Y93369D01*
X219866Y93644D01*
X220056Y93953D01*
X220194Y94287D01*
X220279Y94639D01*
X220300Y95000D01*
X220279Y95361D01*
X220194Y95713D01*
X220056Y96047D01*
X219866Y96356D01*
X219631Y96631D01*
X219500Y96744D01*
Y101756D01*
X219631Y101869D01*
X219866Y102144D01*
X220056Y102453D01*
X220194Y102787D01*
X220279Y103139D01*
X220300Y103500D01*
X220279Y103861D01*
X220194Y104213D01*
X220056Y104547D01*
X219866Y104856D01*
X219631Y105131D01*
X219356Y105366D01*
X219047Y105556D01*
X218713Y105694D01*
X218361Y105779D01*
X218000Y105807D01*
X217996Y105807D01*
Y179500D01*
G37*
G36*
X208646D02*X217996D01*
Y105807D01*
X217639Y105779D01*
X217287Y105694D01*
X216953Y105556D01*
X216644Y105366D01*
X216369Y105131D01*
X216134Y104856D01*
X215944Y104547D01*
X215806Y104213D01*
X215721Y103861D01*
X215693Y103500D01*
X215721Y103139D01*
X215806Y102787D01*
X215944Y102453D01*
X216134Y102144D01*
X216369Y101869D01*
X216500Y101756D01*
Y96744D01*
X216369Y96631D01*
X216134Y96356D01*
X215944Y96047D01*
X215806Y95713D01*
X215721Y95361D01*
X215693Y95000D01*
X215721Y94639D01*
X215806Y94287D01*
X215944Y93953D01*
X216134Y93644D01*
X216369Y93369D01*
X216644Y93134D01*
X216953Y92944D01*
X217287Y92806D01*
X217639Y92721D01*
X217996Y92693D01*
Y41500D01*
X208646D01*
Y75500D01*
X210993D01*
X211227Y75227D01*
X211526Y74971D01*
X211862Y74766D01*
X212225Y74615D01*
X212608Y74523D01*
X213000Y74492D01*
X213392Y74523D01*
X213775Y74615D01*
X214138Y74766D01*
X214474Y74971D01*
X214773Y75227D01*
X215029Y75526D01*
X215234Y75862D01*
X215385Y76225D01*
X215477Y76608D01*
X215500Y77000D01*
X215477Y77392D01*
X215385Y77775D01*
X215234Y78138D01*
X215029Y78474D01*
X214773Y78773D01*
X214474Y79029D01*
X214138Y79234D01*
X213775Y79385D01*
X213392Y79477D01*
X213000Y79508D01*
X212608Y79477D01*
X212225Y79385D01*
X211862Y79234D01*
X211526Y79029D01*
X211227Y78773D01*
X210993Y78500D01*
X208646D01*
Y86290D01*
X208713Y86306D01*
X209047Y86444D01*
X209356Y86634D01*
X209631Y86869D01*
X209866Y87144D01*
X210025Y87403D01*
X210064Y87436D01*
X210217Y87616D01*
X210341Y87817D01*
X210431Y88035D01*
X210486Y88265D01*
X210505Y88500D01*
X210486Y88735D01*
X210431Y88965D01*
X210341Y89183D01*
X210217Y89384D01*
X210061Y89561D01*
X210027Y89595D01*
X209866Y89856D01*
X209631Y90131D01*
X209500Y90244D01*
Y118256D01*
X209631Y118369D01*
X209866Y118644D01*
X210056Y118953D01*
X210194Y119287D01*
X210279Y119639D01*
X210300Y120000D01*
X210279Y120361D01*
X210194Y120713D01*
X210056Y121047D01*
X209866Y121356D01*
X209631Y121631D01*
X209356Y121866D01*
X209047Y122056D01*
X208713Y122194D01*
X208646Y122210D01*
Y179500D01*
G37*
G36*
X191546Y149641D02*X191623Y149622D01*
X192000Y149593D01*
X192377Y149622D01*
X192744Y149710D01*
X193093Y149855D01*
X193415Y150052D01*
X193702Y150298D01*
X193948Y150585D01*
X194145Y150907D01*
X194290Y151256D01*
X194378Y151623D01*
X194400Y152000D01*
X194378Y152377D01*
X194290Y152744D01*
X194145Y153093D01*
X193948Y153415D01*
X193702Y153702D01*
X193500Y153875D01*
Y179500D01*
X208646D01*
Y122210D01*
X208361Y122279D01*
X208000Y122307D01*
X207639Y122279D01*
X207287Y122194D01*
X206953Y122056D01*
X206644Y121866D01*
X206369Y121631D01*
X206134Y121356D01*
X205944Y121047D01*
X205806Y120713D01*
X205721Y120361D01*
X205693Y120000D01*
X205721Y119639D01*
X205806Y119287D01*
X205944Y118953D01*
X206134Y118644D01*
X206369Y118369D01*
X206500Y118256D01*
Y90244D01*
X206369Y90131D01*
X206134Y89856D01*
X205944Y89547D01*
X205806Y89213D01*
X205721Y88861D01*
X205693Y88500D01*
X205721Y88139D01*
X205806Y87787D01*
X205944Y87453D01*
X206134Y87144D01*
X206369Y86869D01*
X206644Y86634D01*
X206953Y86444D01*
X207287Y86306D01*
X207639Y86221D01*
X208000Y86193D01*
X208361Y86221D01*
X208646Y86290D01*
Y78500D01*
X205844D01*
X205731Y78631D01*
X205456Y78866D01*
X205147Y79056D01*
X204813Y79194D01*
X204461Y79279D01*
X204100Y79307D01*
X203739Y79279D01*
X203387Y79194D01*
X203053Y79056D01*
X202744Y78866D01*
X202469Y78631D01*
X202234Y78356D01*
X202044Y78047D01*
X201906Y77713D01*
X201821Y77361D01*
X201793Y77000D01*
X201821Y76639D01*
X201906Y76287D01*
X202044Y75953D01*
X202234Y75644D01*
X202469Y75369D01*
X202744Y75134D01*
X203053Y74944D01*
X203387Y74806D01*
X203739Y74721D01*
X204100Y74693D01*
X204461Y74721D01*
X204813Y74806D01*
X205147Y74944D01*
X205456Y75134D01*
X205731Y75369D01*
X205844Y75500D01*
X208646D01*
Y41500D01*
X191546D01*
Y75500D01*
X194156D01*
X194269Y75369D01*
X194544Y75134D01*
X194853Y74944D01*
X195187Y74806D01*
X195539Y74721D01*
X195900Y74693D01*
X196261Y74721D01*
X196613Y74806D01*
X196947Y74944D01*
X197256Y75134D01*
X197531Y75369D01*
X197766Y75644D01*
X197956Y75953D01*
X198094Y76287D01*
X198179Y76639D01*
X198200Y77000D01*
X198179Y77361D01*
X198094Y77713D01*
X197956Y78047D01*
X197766Y78356D01*
X197531Y78631D01*
X197256Y78866D01*
X196947Y79056D01*
X196613Y79194D01*
X196261Y79279D01*
X195900Y79307D01*
X195539Y79279D01*
X195187Y79194D01*
X194853Y79056D01*
X194544Y78866D01*
X194269Y78631D01*
X194156Y78500D01*
X191546D01*
Y149641D01*
G37*
G36*
X169996Y128000D02*X174256D01*
X174369Y127869D01*
X174644Y127634D01*
X174862Y127500D01*
X174644Y127366D01*
X174369Y127131D01*
X174256Y127000D01*
X169996D01*
Y128000D01*
G37*
G36*
Y179500D02*X183755D01*
X183806Y179287D01*
X183944Y178953D01*
X184134Y178644D01*
X184369Y178369D01*
X184500Y178256D01*
Y178244D01*
X184356Y178366D01*
X184047Y178556D01*
X183713Y178694D01*
X183361Y178779D01*
X183000Y178807D01*
X182639Y178779D01*
X182287Y178694D01*
X181953Y178556D01*
X181644Y178366D01*
X181369Y178131D01*
X181134Y177856D01*
X180944Y177547D01*
X180806Y177213D01*
X180721Y176861D01*
X180693Y176500D01*
X180721Y176139D01*
X180806Y175787D01*
X180944Y175453D01*
X181134Y175144D01*
X181369Y174869D01*
X181500Y174756D01*
Y145621D01*
X181379Y145500D01*
X169996D01*
Y179500D01*
G37*
G36*
Y134000D02*X179441D01*
X179500Y133995D01*
X179735Y134014D01*
X179735Y134014D01*
X179965Y134069D01*
X180183Y134159D01*
X180384Y134283D01*
X180564Y134436D01*
X180602Y134481D01*
X187019Y140898D01*
X187064Y140936D01*
X187217Y141115D01*
X187217Y141116D01*
X187341Y141317D01*
X187431Y141535D01*
X187486Y141765D01*
X187505Y142000D01*
X187500Y142059D01*
Y154670D01*
X187552Y154585D01*
X187798Y154298D01*
X188085Y154052D01*
X188407Y153855D01*
X188756Y153710D01*
X189123Y153622D01*
X189500Y153593D01*
X189877Y153622D01*
X190244Y153710D01*
X190367Y153761D01*
X190298Y153702D01*
X190052Y153415D01*
X189855Y153093D01*
X189710Y152744D01*
X189622Y152377D01*
X189593Y152000D01*
X189622Y151623D01*
X189710Y151256D01*
X189855Y150907D01*
X190052Y150585D01*
X190298Y150298D01*
X190585Y150052D01*
X190907Y149855D01*
X191256Y149710D01*
X191546Y149641D01*
Y78500D01*
X188944D01*
X188831Y78631D01*
X188556Y78866D01*
X188247Y79056D01*
X187913Y79194D01*
X187561Y79279D01*
X187200Y79307D01*
X186839Y79279D01*
X186487Y79194D01*
X186153Y79056D01*
X185844Y78866D01*
X185569Y78631D01*
X185334Y78356D01*
X185144Y78047D01*
X185006Y77713D01*
X184921Y77361D01*
X184893Y77000D01*
X184921Y76639D01*
X185006Y76287D01*
X185144Y75953D01*
X185334Y75644D01*
X185569Y75369D01*
X185844Y75134D01*
X186153Y74944D01*
X186487Y74806D01*
X186839Y74721D01*
X187200Y74693D01*
X187561Y74721D01*
X187913Y74806D01*
X188247Y74944D01*
X188556Y75134D01*
X188831Y75369D01*
X188944Y75500D01*
X191546D01*
Y41500D01*
X169996D01*
Y107750D01*
X176520D01*
X176639Y107721D01*
X177000Y107693D01*
X177361Y107721D01*
X177713Y107806D01*
X178047Y107944D01*
X178356Y108134D01*
X178631Y108369D01*
X178866Y108644D01*
X179056Y108953D01*
X179194Y109287D01*
X179279Y109639D01*
X179300Y110000D01*
X179279Y110361D01*
X179194Y110713D01*
X179056Y111047D01*
X178866Y111356D01*
X178631Y111631D01*
X178356Y111866D01*
X178047Y112056D01*
X177713Y112194D01*
X177361Y112279D01*
X177000Y112307D01*
X176639Y112279D01*
X176520Y112250D01*
X169996D01*
Y124000D01*
X174256D01*
X174369Y123869D01*
X174644Y123634D01*
X174953Y123444D01*
X175287Y123306D01*
X175639Y123221D01*
X176000Y123193D01*
X176361Y123221D01*
X176713Y123306D01*
X177047Y123444D01*
X177356Y123634D01*
X177631Y123869D01*
X177866Y124144D01*
X178056Y124453D01*
X178194Y124787D01*
X178279Y125139D01*
X178300Y125500D01*
X178279Y125861D01*
X178194Y126213D01*
X178056Y126547D01*
X177866Y126856D01*
X177631Y127131D01*
X177356Y127366D01*
X177138Y127500D01*
X177356Y127634D01*
X177631Y127869D01*
X177866Y128144D01*
X178056Y128453D01*
X178194Y128787D01*
X178279Y129139D01*
X178300Y129500D01*
X178279Y129861D01*
X178194Y130213D01*
X178056Y130547D01*
X177866Y130856D01*
X177631Y131131D01*
X177356Y131366D01*
X177047Y131556D01*
X176713Y131694D01*
X176361Y131779D01*
X176000Y131807D01*
X175639Y131779D01*
X175287Y131694D01*
X174953Y131556D01*
X174644Y131366D01*
X174369Y131131D01*
X174256Y131000D01*
X169996D01*
Y134000D01*
G37*
G36*
Y142500D02*X181941D01*
X182000Y142495D01*
X182235Y142514D01*
X182235Y142514D01*
X182465Y142569D01*
X182683Y142659D01*
X182884Y142783D01*
X183064Y142936D01*
X183102Y142981D01*
X184019Y143898D01*
X184064Y143936D01*
X184217Y144115D01*
X184217Y144116D01*
X184341Y144317D01*
X184431Y144535D01*
X184486Y144765D01*
X184500Y144941D01*
Y142621D01*
X178879Y137000D01*
X169996D01*
Y142500D01*
G37*
G36*
X160244Y139000D02*X165756D01*
X165869Y138869D01*
X166144Y138634D01*
X166453Y138444D01*
X166787Y138306D01*
X167139Y138221D01*
X167500Y138193D01*
X167861Y138221D01*
X168213Y138306D01*
X168547Y138444D01*
X168856Y138634D01*
X169131Y138869D01*
X169366Y139144D01*
X169556Y139453D01*
X169694Y139787D01*
X169779Y140139D01*
X169800Y140500D01*
X169779Y140861D01*
X169694Y141213D01*
X169556Y141547D01*
X169366Y141856D01*
X169131Y142131D01*
X168856Y142366D01*
X168638Y142500D01*
X169996D01*
Y137000D01*
X151744D01*
X151631Y137131D01*
X151356Y137366D01*
X151047Y137556D01*
X150713Y137694D01*
X150361Y137779D01*
X150000Y137807D01*
X149639Y137779D01*
X149287Y137694D01*
X148953Y137556D01*
X148644Y137366D01*
X148369Y137131D01*
X148134Y136856D01*
X147944Y136547D01*
X147806Y136213D01*
X147721Y135861D01*
X147693Y135500D01*
X147721Y135139D01*
X147806Y134787D01*
X147944Y134453D01*
X148134Y134144D01*
X148369Y133869D01*
X148644Y133634D01*
X148953Y133444D01*
X149287Y133306D01*
X149639Y133221D01*
X150000Y133193D01*
X150361Y133221D01*
X150713Y133306D01*
X151047Y133444D01*
X151356Y133634D01*
X151631Y133869D01*
X151744Y134000D01*
X169996D01*
Y131000D01*
X146621D01*
X146000Y131621D01*
Y136756D01*
X146131Y136869D01*
X146366Y137144D01*
X146556Y137453D01*
X146694Y137787D01*
X146779Y138139D01*
X146800Y138500D01*
X146779Y138861D01*
X146694Y139213D01*
X146556Y139547D01*
X146366Y139856D01*
X146131Y140131D01*
X145856Y140366D01*
X145547Y140556D01*
X145213Y140694D01*
X144861Y140779D01*
X144500Y140807D01*
X144139Y140779D01*
X143787Y140694D01*
X143453Y140556D01*
X143144Y140366D01*
X142869Y140131D01*
X142634Y139856D01*
X142444Y139547D01*
X142306Y139213D01*
X142221Y138861D01*
X142193Y138500D01*
X142221Y138139D01*
X142306Y137787D01*
X142444Y137453D01*
X142634Y137144D01*
X142869Y136869D01*
X143000Y136756D01*
Y131059D01*
X142995Y131000D01*
X143014Y130765D01*
X143069Y130535D01*
X143159Y130317D01*
X143283Y130116D01*
X143436Y129936D01*
X143481Y129898D01*
X144898Y128481D01*
X144936Y128436D01*
X145116Y128283D01*
X145317Y128159D01*
X145535Y128069D01*
X145765Y128014D01*
X146000Y127995D01*
X146059Y128000D01*
X169996D01*
Y127000D01*
X142621D01*
X141000Y128621D01*
Y136756D01*
X141131Y136869D01*
X141366Y137144D01*
X141556Y137453D01*
X141694Y137787D01*
X141779Y138139D01*
X141800Y138500D01*
X141779Y138861D01*
X141694Y139213D01*
X141556Y139547D01*
X141366Y139856D01*
X141131Y140131D01*
X140856Y140366D01*
X140547Y140556D01*
X140213Y140694D01*
X139861Y140779D01*
X139500Y140807D01*
X139139Y140779D01*
X138787Y140694D01*
X138453Y140556D01*
X138144Y140366D01*
X137869Y140131D01*
X137634Y139856D01*
X137444Y139547D01*
X137306Y139213D01*
X137221Y138861D01*
X137193Y138500D01*
X137221Y138139D01*
X137306Y137787D01*
X137444Y137453D01*
X137634Y137144D01*
X137869Y136869D01*
X138000Y136756D01*
Y128059D01*
X137995Y128000D01*
X138014Y127765D01*
X138069Y127535D01*
X138159Y127317D01*
X138283Y127116D01*
X138436Y126936D01*
X138481Y126898D01*
X140898Y124481D01*
X140936Y124436D01*
X141116Y124283D01*
X141317Y124159D01*
X141535Y124069D01*
X141765Y124014D01*
X142000Y123995D01*
X142059Y124000D01*
X169996D01*
Y112250D01*
X163480D01*
X163361Y112279D01*
X163000Y112307D01*
X162639Y112279D01*
X162287Y112194D01*
X161953Y112056D01*
X161644Y111866D01*
X161369Y111631D01*
X161134Y111356D01*
X160944Y111047D01*
X160806Y110713D01*
X160721Y110361D01*
X160693Y110000D01*
X160721Y109639D01*
X160806Y109287D01*
X160944Y108953D01*
X161134Y108644D01*
X161369Y108369D01*
X161644Y108134D01*
X161953Y107944D01*
X162287Y107806D01*
X162639Y107721D01*
X163000Y107693D01*
X163361Y107721D01*
X163480Y107750D01*
X169996D01*
Y41500D01*
X106000D01*
Y179500D01*
X169996D01*
Y145500D01*
X155059D01*
X155000Y145505D01*
X154765Y145486D01*
X154535Y145431D01*
X154317Y145341D01*
X154116Y145217D01*
X154116Y145217D01*
X153936Y145064D01*
X153898Y145019D01*
X151981Y143102D01*
X151936Y143064D01*
X151783Y142884D01*
X151659Y142683D01*
X151569Y142465D01*
X151520Y142261D01*
X151369Y142131D01*
X151134Y141856D01*
X150944Y141547D01*
X150806Y141213D01*
X150721Y140861D01*
X150693Y140500D01*
X150721Y140139D01*
X150806Y139787D01*
X150944Y139453D01*
X151134Y139144D01*
X151369Y138869D01*
X151644Y138634D01*
X151953Y138444D01*
X152287Y138306D01*
X152639Y138221D01*
X153000Y138193D01*
X153361Y138221D01*
X153713Y138306D01*
X154047Y138444D01*
X154356Y138634D01*
X154631Y138869D01*
X154866Y139144D01*
X155056Y139453D01*
X155194Y139787D01*
X155279Y140139D01*
X155300Y140500D01*
X155279Y140861D01*
X155194Y141213D01*
X155056Y141547D01*
X154909Y141787D01*
X155621Y142500D01*
X157362D01*
X157144Y142366D01*
X156869Y142131D01*
X156634Y141856D01*
X156444Y141547D01*
X156306Y141213D01*
X156221Y140861D01*
X156193Y140500D01*
X156221Y140139D01*
X156306Y139787D01*
X156444Y139453D01*
X156634Y139144D01*
X156869Y138869D01*
X157144Y138634D01*
X157453Y138444D01*
X157787Y138306D01*
X158139Y138221D01*
X158500Y138193D01*
X158861Y138221D01*
X159213Y138306D01*
X159547Y138444D01*
X159856Y138634D01*
X160131Y138869D01*
X160244Y139000D01*
G37*
G36*
X357250Y288000D02*X376139D01*
X375493Y287733D01*
X373281Y286377D01*
X371308Y284692D01*
X369623Y282719D01*
X368267Y280507D01*
X367274Y278110D01*
X366669Y275587D01*
X366465Y273000D01*
X366669Y270413D01*
X367274Y267890D01*
X368267Y265493D01*
X369623Y263281D01*
X371308Y261308D01*
X373281Y259623D01*
X375493Y258267D01*
X377890Y257274D01*
X380413Y256669D01*
X381500Y256583D01*
Y187500D01*
X357250D01*
Y270748D01*
X357368Y270757D01*
X357482Y270785D01*
X357592Y270830D01*
X357692Y270891D01*
X357782Y270968D01*
X357859Y271058D01*
X357920Y271158D01*
X357965Y271268D01*
X357993Y271382D01*
X358000Y271500D01*
Y274500D01*
X357993Y274618D01*
X357965Y274732D01*
X357920Y274842D01*
X357859Y274942D01*
X357782Y275032D01*
X357692Y275109D01*
X357592Y275170D01*
X357482Y275215D01*
X357368Y275243D01*
X357250Y275252D01*
Y288000D01*
G37*
G36*
X353500D02*X357250D01*
Y275252D01*
X357132Y275243D01*
X357018Y275215D01*
X356908Y275170D01*
X356808Y275109D01*
X356718Y275032D01*
X356641Y274942D01*
X356580Y274842D01*
X356535Y274732D01*
X356507Y274618D01*
X356500Y274500D01*
Y271500D01*
X356507Y271382D01*
X356535Y271268D01*
X356580Y271158D01*
X356641Y271058D01*
X356718Y270968D01*
X356808Y270891D01*
X356908Y270830D01*
X357018Y270785D01*
X357132Y270757D01*
X357250Y270748D01*
Y187500D01*
X353500D01*
Y268500D01*
X355000D01*
X355118Y268507D01*
X355232Y268535D01*
X355342Y268580D01*
X355442Y268641D01*
X355532Y268718D01*
X355609Y268808D01*
X355670Y268908D01*
X355715Y269018D01*
X355743Y269132D01*
X355752Y269250D01*
X355743Y269368D01*
X355715Y269482D01*
X355670Y269592D01*
X355609Y269692D01*
X355532Y269782D01*
X355442Y269859D01*
X355342Y269920D01*
X355232Y269965D01*
X355118Y269993D01*
X355000Y270000D01*
X353500D01*
Y276000D01*
X355000D01*
X355118Y276007D01*
X355232Y276035D01*
X355342Y276080D01*
X355442Y276141D01*
X355532Y276218D01*
X355609Y276308D01*
X355670Y276408D01*
X355715Y276518D01*
X355743Y276632D01*
X355752Y276750D01*
X355743Y276868D01*
X355715Y276982D01*
X355670Y277092D01*
X355609Y277192D01*
X355532Y277282D01*
X355442Y277359D01*
X355342Y277420D01*
X355232Y277465D01*
X355118Y277493D01*
X355000Y277500D01*
X353500D01*
Y288000D01*
G37*
G36*
X349750D02*X353500D01*
Y277500D01*
X352000D01*
X351882Y277493D01*
X351768Y277465D01*
X351658Y277420D01*
X351558Y277359D01*
X351468Y277282D01*
X351391Y277192D01*
X351330Y277092D01*
X351285Y276982D01*
X351257Y276868D01*
X351248Y276750D01*
X351257Y276632D01*
X351285Y276518D01*
X351330Y276408D01*
X351391Y276308D01*
X351468Y276218D01*
X351558Y276141D01*
X351658Y276080D01*
X351768Y276035D01*
X351882Y276007D01*
X352000Y276000D01*
X353500D01*
Y270000D01*
X352000D01*
X351882Y269993D01*
X351768Y269965D01*
X351658Y269920D01*
X351558Y269859D01*
X351468Y269782D01*
X351391Y269692D01*
X351330Y269592D01*
X351285Y269482D01*
X351257Y269368D01*
X351248Y269250D01*
X351257Y269132D01*
X351285Y269018D01*
X351330Y268908D01*
X351391Y268808D01*
X351468Y268718D01*
X351558Y268641D01*
X351658Y268580D01*
X351768Y268535D01*
X351882Y268507D01*
X352000Y268500D01*
X353500D01*
Y187500D01*
X349750D01*
Y208713D01*
X350000Y208693D01*
X350361Y208721D01*
X350713Y208806D01*
X351047Y208944D01*
X351356Y209134D01*
X351631Y209369D01*
X351866Y209644D01*
X352056Y209953D01*
X352194Y210287D01*
X352279Y210639D01*
X352300Y211000D01*
X352279Y211361D01*
X352194Y211713D01*
X352056Y212047D01*
X351866Y212356D01*
X351631Y212631D01*
X351356Y212866D01*
X351047Y213056D01*
X350713Y213194D01*
X350361Y213279D01*
X350000Y213307D01*
X349750Y213287D01*
Y270748D01*
X349868Y270757D01*
X349982Y270785D01*
X350092Y270830D01*
X350192Y270891D01*
X350282Y270968D01*
X350359Y271058D01*
X350420Y271158D01*
X350465Y271268D01*
X350493Y271382D01*
X350500Y271500D01*
Y274500D01*
X350493Y274618D01*
X350465Y274732D01*
X350420Y274842D01*
X350359Y274942D01*
X350282Y275032D01*
X350192Y275109D01*
X350092Y275170D01*
X349982Y275215D01*
X349868Y275243D01*
X349750Y275252D01*
Y288000D01*
G37*
G36*
Y187500D02*X345996D01*
Y209500D01*
X348256D01*
X348369Y209369D01*
X348644Y209134D01*
X348953Y208944D01*
X349287Y208806D01*
X349639Y208721D01*
X349750Y208713D01*
Y187500D01*
G37*
G36*
X345996Y288000D02*X349750D01*
Y275252D01*
X349632Y275243D01*
X349518Y275215D01*
X349408Y275170D01*
X349308Y275109D01*
X349218Y275032D01*
X349141Y274942D01*
X349080Y274842D01*
X349035Y274732D01*
X349007Y274618D01*
X349000Y274500D01*
Y271500D01*
X349007Y271382D01*
X349035Y271268D01*
X349080Y271158D01*
X349141Y271058D01*
X349218Y270968D01*
X349308Y270891D01*
X349408Y270830D01*
X349518Y270785D01*
X349632Y270757D01*
X349750Y270748D01*
Y213287D01*
X349639Y213279D01*
X349287Y213194D01*
X348953Y213056D01*
X348644Y212866D01*
X348369Y212631D01*
X348256Y212500D01*
X345996D01*
Y269252D01*
X346153Y269348D01*
X346692Y269808D01*
X347152Y270347D01*
X347522Y270951D01*
X347793Y271605D01*
X347958Y272294D01*
X348000Y273000D01*
X347958Y273706D01*
X347793Y274395D01*
X347522Y275049D01*
X347152Y275653D01*
X346692Y276192D01*
X346153Y276652D01*
X345996Y276748D01*
Y288000D01*
G37*
G36*
X343496Y209253D02*X343631Y209369D01*
X343744Y209500D01*
X345996D01*
Y187500D01*
X343496D01*
Y209253D01*
G37*
G36*
Y268486D02*X343500Y268486D01*
X344206Y268542D01*
X344895Y268707D01*
X345549Y268978D01*
X345996Y269252D01*
Y212500D01*
X343744D01*
X343631Y212631D01*
X343496Y212747D01*
Y225193D01*
X343500Y225193D01*
X343861Y225221D01*
X344213Y225306D01*
X344547Y225444D01*
X344856Y225634D01*
X345131Y225869D01*
X345366Y226144D01*
X345556Y226453D01*
X345694Y226787D01*
X345779Y227139D01*
X345800Y227500D01*
X345779Y227861D01*
X345694Y228213D01*
X345556Y228547D01*
X345366Y228856D01*
X345131Y229131D01*
X345000Y229244D01*
Y233256D01*
X345131Y233369D01*
X345366Y233644D01*
X345556Y233953D01*
X345694Y234287D01*
X345779Y234639D01*
X345800Y235000D01*
X345779Y235361D01*
X345694Y235713D01*
X345556Y236047D01*
X345366Y236356D01*
X345131Y236631D01*
X344856Y236866D01*
X344547Y237056D01*
X344213Y237194D01*
X343861Y237279D01*
X343500Y237307D01*
X343496Y237307D01*
Y268486D01*
G37*
G36*
Y288000D02*X345996D01*
Y276748D01*
X345549Y277022D01*
X344895Y277293D01*
X344206Y277458D01*
X343500Y277514D01*
X343496Y277514D01*
Y288000D01*
G37*
G36*
X336095D02*X343496D01*
Y277514D01*
X342794Y277458D01*
X342105Y277293D01*
X341451Y277022D01*
X340847Y276652D01*
X340308Y276192D01*
X339848Y275653D01*
X339478Y275049D01*
X339207Y274395D01*
X339042Y273706D01*
X338986Y273000D01*
X339042Y272294D01*
X339207Y271605D01*
X339478Y270951D01*
X339848Y270347D01*
X340308Y269808D01*
X340847Y269348D01*
X341451Y268978D01*
X342105Y268707D01*
X342794Y268542D01*
X343496Y268486D01*
Y237307D01*
X343139Y237279D01*
X342787Y237194D01*
X342453Y237056D01*
X342144Y236866D01*
X341869Y236631D01*
X341634Y236356D01*
X341444Y236047D01*
X341306Y235713D01*
X341221Y235361D01*
X341193Y235000D01*
X341221Y234639D01*
X341306Y234287D01*
X341444Y233953D01*
X341634Y233644D01*
X341869Y233369D01*
X342000Y233256D01*
Y229244D01*
X341869Y229131D01*
X341634Y228856D01*
X341444Y228547D01*
X341306Y228213D01*
X341221Y227861D01*
X341193Y227500D01*
X341221Y227139D01*
X341306Y226787D01*
X341444Y226453D01*
X341634Y226144D01*
X341869Y225869D01*
X342144Y225634D01*
X342453Y225444D01*
X342787Y225306D01*
X343139Y225221D01*
X343496Y225193D01*
Y212747D01*
X343356Y212866D01*
X343047Y213056D01*
X342713Y213194D01*
X342361Y213279D01*
X342000Y213307D01*
X341639Y213279D01*
X341287Y213194D01*
X340953Y213056D01*
X340644Y212866D01*
X340369Y212631D01*
X340134Y212356D01*
X339944Y212047D01*
X339806Y211713D01*
X339721Y211361D01*
X339693Y211000D01*
X339721Y210639D01*
X339806Y210287D01*
X339944Y209953D01*
X340134Y209644D01*
X340369Y209369D01*
X340644Y209134D01*
X340953Y208944D01*
X341287Y208806D01*
X341639Y208721D01*
X342000Y208693D01*
X342361Y208721D01*
X342713Y208806D01*
X343047Y208944D01*
X343356Y209134D01*
X343496Y209253D01*
Y187500D01*
X336095D01*
Y215308D01*
X336100Y215307D01*
X336991Y215378D01*
X337859Y215586D01*
X338684Y215928D01*
X339446Y216395D01*
X340125Y216975D01*
X340705Y217654D01*
X341172Y218416D01*
X341514Y219241D01*
X341722Y220109D01*
X341775Y221000D01*
X341722Y221891D01*
X341514Y222759D01*
X341172Y223584D01*
X340705Y224346D01*
X340125Y225025D01*
X339446Y225605D01*
X338684Y226072D01*
X337859Y226414D01*
X336991Y226622D01*
X336100Y226693D01*
X336095Y226692D01*
Y228041D01*
X336100Y228041D01*
X336563Y228077D01*
X337014Y228186D01*
X337443Y228363D01*
X337839Y228606D01*
X338192Y228908D01*
X338494Y229261D01*
X338737Y229657D01*
X338914Y230086D01*
X339023Y230537D01*
X339050Y231000D01*
X339023Y231463D01*
X338914Y231914D01*
X338737Y232343D01*
X338494Y232739D01*
X338192Y233092D01*
X337839Y233394D01*
X337443Y233637D01*
X337014Y233814D01*
X336563Y233923D01*
X336100Y233959D01*
X336095Y233959D01*
Y235308D01*
X336100Y235307D01*
X336991Y235378D01*
X337859Y235586D01*
X338684Y235928D01*
X339446Y236395D01*
X340125Y236975D01*
X340705Y237654D01*
X341172Y238416D01*
X341514Y239241D01*
X341722Y240109D01*
X341775Y241000D01*
X341722Y241891D01*
X341514Y242759D01*
X341172Y243584D01*
X340705Y244346D01*
X340125Y245025D01*
X339446Y245605D01*
X338684Y246072D01*
X337859Y246414D01*
X336991Y246622D01*
X336100Y246693D01*
X336095Y246692D01*
Y269313D01*
X336153Y269348D01*
X336692Y269808D01*
X337152Y270347D01*
X337522Y270951D01*
X337793Y271605D01*
X337958Y272294D01*
X338000Y273000D01*
X337958Y273706D01*
X337793Y274395D01*
X337522Y275049D01*
X337152Y275653D01*
X336692Y276192D01*
X336153Y276652D01*
X336095Y276687D01*
Y288000D01*
G37*
G36*
Y226692D02*X335209Y226622D01*
X334341Y226414D01*
X333516Y226072D01*
X332754Y225605D01*
X332075Y225025D01*
X331495Y224346D01*
X331400Y224191D01*
Y224341D01*
X331405Y224400D01*
X331386Y224635D01*
X331331Y224865D01*
X331241Y225083D01*
X331117Y225284D01*
X330964Y225464D01*
X330919Y225502D01*
X330100Y226321D01*
Y229256D01*
X330231Y229369D01*
X330466Y229644D01*
X330656Y229953D01*
X330794Y230287D01*
X330879Y230639D01*
X330900Y231000D01*
X330879Y231361D01*
X330794Y231713D01*
X330656Y232047D01*
X330466Y232356D01*
X330231Y232631D01*
X329956Y232866D01*
X329841Y232937D01*
Y270358D01*
X329848Y270347D01*
X330308Y269808D01*
X330847Y269348D01*
X331451Y268978D01*
X332105Y268707D01*
X332794Y268542D01*
X333500Y268486D01*
X334206Y268542D01*
X334895Y268707D01*
X335549Y268978D01*
X336095Y269313D01*
Y246692D01*
X335209Y246622D01*
X334341Y246414D01*
X333516Y246072D01*
X332754Y245605D01*
X332075Y245025D01*
X331495Y244346D01*
X331028Y243584D01*
X330686Y242759D01*
X330478Y241891D01*
X330407Y241000D01*
X330478Y240109D01*
X330686Y239241D01*
X331028Y238416D01*
X331495Y237654D01*
X332075Y236975D01*
X332754Y236395D01*
X333516Y235928D01*
X334341Y235586D01*
X335209Y235378D01*
X336095Y235308D01*
Y233959D01*
X335637Y233923D01*
X335186Y233814D01*
X334757Y233637D01*
X334361Y233394D01*
X334008Y233092D01*
X333706Y232739D01*
X333463Y232343D01*
X333286Y231914D01*
X333177Y231463D01*
X333141Y231000D01*
X333177Y230537D01*
X333286Y230086D01*
X333463Y229657D01*
X333706Y229261D01*
X334008Y228908D01*
X334361Y228606D01*
X334757Y228363D01*
X335186Y228186D01*
X335637Y228077D01*
X336095Y228041D01*
Y226692D01*
G37*
G36*
Y187500D02*X329841D01*
Y206220D01*
X330919Y207298D01*
X330964Y207336D01*
X331117Y207515D01*
X331117Y207516D01*
X331241Y207717D01*
X331331Y207935D01*
X331386Y208165D01*
X331405Y208400D01*
X331400Y208459D01*
Y217809D01*
X331495Y217654D01*
X332075Y216975D01*
X332754Y216395D01*
X333516Y215928D01*
X334341Y215586D01*
X335209Y215378D01*
X336095Y215308D01*
Y187500D01*
G37*
G36*
X329841Y288000D02*X336095D01*
Y276687D01*
X335549Y277022D01*
X334895Y277293D01*
X334206Y277458D01*
X333500Y277514D01*
X332794Y277458D01*
X332105Y277293D01*
X331451Y277022D01*
X330847Y276652D01*
X330308Y276192D01*
X329848Y275653D01*
X329841Y275642D01*
Y288000D01*
G37*
G36*
X323591Y215308D02*X323600Y215307D01*
X324491Y215378D01*
X325359Y215586D01*
X326184Y215928D01*
X326946Y216395D01*
X327625Y216975D01*
X328205Y217654D01*
X328400Y217972D01*
Y209021D01*
X326672Y207294D01*
X326500Y207307D01*
X326139Y207279D01*
X325787Y207194D01*
X325453Y207056D01*
X325144Y206866D01*
X324869Y206631D01*
X324634Y206356D01*
X324444Y206047D01*
X324306Y205713D01*
X324221Y205361D01*
X324193Y205000D01*
X324221Y204639D01*
X324306Y204287D01*
X324444Y203953D01*
X324634Y203644D01*
X324869Y203369D01*
X325144Y203134D01*
X325453Y202944D01*
X325787Y202806D01*
X326139Y202721D01*
X326500Y202693D01*
X326861Y202721D01*
X327213Y202806D01*
X327547Y202944D01*
X327856Y203134D01*
X328131Y203369D01*
X328366Y203644D01*
X328556Y203953D01*
X328694Y204287D01*
X328779Y204639D01*
X328800Y205000D01*
X328790Y205169D01*
X329841Y206220D01*
Y187500D01*
X323591D01*
Y215308D01*
G37*
G36*
Y288000D02*X329841D01*
Y275642D01*
X329478Y275049D01*
X329207Y274395D01*
X329042Y273706D01*
X328986Y273000D01*
X329042Y272294D01*
X329207Y271605D01*
X329478Y270951D01*
X329841Y270358D01*
Y232937D01*
X329647Y233056D01*
X329313Y233194D01*
X328961Y233279D01*
X328600Y233307D01*
X328239Y233279D01*
X327887Y233194D01*
X327553Y233056D01*
X327244Y232866D01*
X326969Y232631D01*
X326734Y232356D01*
X326544Y232047D01*
X326406Y231713D01*
X326321Y231361D01*
X326293Y231000D01*
X326321Y230639D01*
X326406Y230287D01*
X326544Y229953D01*
X326734Y229644D01*
X326969Y229369D01*
X327100Y229256D01*
Y225759D01*
X327095Y225700D01*
X327114Y225465D01*
X327115Y225461D01*
X326946Y225605D01*
X326184Y226072D01*
X325359Y226414D01*
X324491Y226622D01*
X323600Y226693D01*
X323591Y226692D01*
Y235308D01*
X323600Y235307D01*
X324491Y235378D01*
X325359Y235586D01*
X326184Y235928D01*
X326946Y236395D01*
X327625Y236975D01*
X328205Y237654D01*
X328672Y238416D01*
X329014Y239241D01*
X329222Y240109D01*
X329275Y241000D01*
X329222Y241891D01*
X329014Y242759D01*
X328672Y243584D01*
X328205Y244346D01*
X327625Y245025D01*
X326946Y245605D01*
X326184Y246072D01*
X325359Y246414D01*
X324491Y246622D01*
X323600Y246693D01*
X323591Y246692D01*
Y268493D01*
X324206Y268542D01*
X324895Y268707D01*
X325549Y268978D01*
X326153Y269348D01*
X326692Y269808D01*
X327152Y270347D01*
X327522Y270951D01*
X327793Y271605D01*
X327958Y272294D01*
X328000Y273000D01*
X327958Y273706D01*
X327793Y274395D01*
X327522Y275049D01*
X327152Y275653D01*
X326692Y276192D01*
X326153Y276652D01*
X325549Y277022D01*
X324895Y277293D01*
X324206Y277458D01*
X323591Y277507D01*
Y288000D01*
G37*
G36*
X316095D02*X323591D01*
Y277507D01*
X323500Y277514D01*
X322794Y277458D01*
X322105Y277293D01*
X321451Y277022D01*
X320847Y276652D01*
X320308Y276192D01*
X319848Y275653D01*
X319478Y275049D01*
X319207Y274395D01*
X319042Y273706D01*
X318986Y273000D01*
X319042Y272294D01*
X319207Y271605D01*
X319478Y270951D01*
X319848Y270347D01*
X320308Y269808D01*
X320847Y269348D01*
X321451Y268978D01*
X322105Y268707D01*
X322794Y268542D01*
X323500Y268486D01*
X323591Y268493D01*
Y246692D01*
X322709Y246622D01*
X321841Y246414D01*
X321016Y246072D01*
X320254Y245605D01*
X319575Y245025D01*
X318995Y244346D01*
X318528Y243584D01*
X318186Y242759D01*
X317978Y241891D01*
X317907Y241000D01*
X317978Y240109D01*
X318186Y239241D01*
X318528Y238416D01*
X318995Y237654D01*
X319575Y236975D01*
X320254Y236395D01*
X321016Y235928D01*
X321841Y235586D01*
X322709Y235378D01*
X323591Y235308D01*
Y226692D01*
X322709Y226622D01*
X321841Y226414D01*
X321016Y226072D01*
X320254Y225605D01*
X319575Y225025D01*
X318995Y224346D01*
X318528Y223584D01*
X318186Y222759D01*
X317978Y221891D01*
X317907Y221000D01*
X317978Y220109D01*
X318186Y219241D01*
X318528Y218416D01*
X318995Y217654D01*
X319575Y216975D01*
X320254Y216395D01*
X321016Y215928D01*
X321841Y215586D01*
X322709Y215378D01*
X323591Y215308D01*
Y187500D01*
X316095D01*
Y224041D01*
X316100Y224041D01*
X316563Y224077D01*
X317014Y224186D01*
X317443Y224363D01*
X317839Y224606D01*
X318192Y224908D01*
X318494Y225261D01*
X318737Y225657D01*
X318914Y226086D01*
X319023Y226537D01*
X319050Y227000D01*
X319023Y227463D01*
X318914Y227914D01*
X318737Y228343D01*
X318494Y228739D01*
X318192Y229092D01*
X317839Y229394D01*
X317443Y229637D01*
X317014Y229814D01*
X316563Y229923D01*
X316100Y229959D01*
X316095Y229959D01*
Y232041D01*
X316100Y232041D01*
X316563Y232077D01*
X317014Y232186D01*
X317443Y232363D01*
X317839Y232606D01*
X318192Y232908D01*
X318494Y233261D01*
X318737Y233657D01*
X318914Y234086D01*
X319023Y234537D01*
X319050Y235000D01*
X319023Y235463D01*
X318914Y235914D01*
X318737Y236343D01*
X318494Y236739D01*
X318192Y237092D01*
X317839Y237394D01*
X317443Y237637D01*
X317014Y237814D01*
X316563Y237923D01*
X316100Y237959D01*
X316095Y237959D01*
Y269313D01*
X316153Y269348D01*
X316692Y269808D01*
X317152Y270347D01*
X317522Y270951D01*
X317793Y271605D01*
X317958Y272294D01*
X318000Y273000D01*
X317958Y273706D01*
X317793Y274395D01*
X317522Y275049D01*
X317152Y275653D01*
X316692Y276192D01*
X316153Y276652D01*
X316095Y276687D01*
Y288000D01*
G37*
G36*
X305746D02*X316095D01*
Y276687D01*
X315549Y277022D01*
X314895Y277293D01*
X314206Y277458D01*
X313500Y277514D01*
X312794Y277458D01*
X312105Y277293D01*
X311451Y277022D01*
X310847Y276652D01*
X310308Y276192D01*
X309848Y275653D01*
X309478Y275049D01*
X309207Y274395D01*
X309042Y273706D01*
X308986Y273000D01*
X309042Y272294D01*
X309207Y271605D01*
X309478Y270951D01*
X309848Y270347D01*
X310308Y269808D01*
X310847Y269348D01*
X311451Y268978D01*
X312105Y268707D01*
X312794Y268542D01*
X313500Y268486D01*
X314206Y268542D01*
X314895Y268707D01*
X315549Y268978D01*
X316095Y269313D01*
Y237959D01*
X315637Y237923D01*
X315186Y237814D01*
X314757Y237637D01*
X314361Y237394D01*
X314008Y237092D01*
X313706Y236739D01*
X313463Y236343D01*
X313286Y235914D01*
X313177Y235463D01*
X313141Y235000D01*
X313177Y234537D01*
X313286Y234086D01*
X313463Y233657D01*
X313706Y233261D01*
X314008Y232908D01*
X314361Y232606D01*
X314757Y232363D01*
X315186Y232186D01*
X315637Y232077D01*
X316095Y232041D01*
Y229959D01*
X315637Y229923D01*
X315186Y229814D01*
X314757Y229637D01*
X314361Y229394D01*
X314008Y229092D01*
X313706Y228739D01*
X313463Y228343D01*
X313286Y227914D01*
X313177Y227463D01*
X313141Y227000D01*
X313177Y226537D01*
X313286Y226086D01*
X313463Y225657D01*
X313706Y225261D01*
X314008Y224908D01*
X314361Y224606D01*
X314757Y224363D01*
X315186Y224186D01*
X315637Y224077D01*
X316095Y224041D01*
Y187500D01*
X305746D01*
Y192066D01*
X305856Y192134D01*
X306131Y192369D01*
X306250Y192508D01*
X306369Y192369D01*
X306644Y192134D01*
X306953Y191944D01*
X307287Y191806D01*
X307639Y191721D01*
X308000Y191693D01*
X308361Y191721D01*
X308713Y191806D01*
X309047Y191944D01*
X309356Y192134D01*
X309631Y192369D01*
X309866Y192644D01*
X310056Y192953D01*
X310194Y193287D01*
X310279Y193639D01*
X310300Y194000D01*
X310279Y194361D01*
X310194Y194713D01*
X310056Y195047D01*
X309866Y195356D01*
X309631Y195631D01*
X309356Y195866D01*
X309097Y196025D01*
X309064Y196064D01*
X309019Y196102D01*
X305746Y199375D01*
Y205125D01*
X308328Y207706D01*
X308500Y207693D01*
X308861Y207721D01*
X309213Y207806D01*
X309547Y207944D01*
X309856Y208134D01*
X310131Y208369D01*
X310366Y208644D01*
X310556Y208953D01*
X310694Y209287D01*
X310779Y209639D01*
X310800Y210000D01*
X310779Y210361D01*
X310694Y210713D01*
X310556Y211047D01*
X310366Y211356D01*
X310131Y211631D01*
X309856Y211866D01*
X309547Y212056D01*
X309213Y212194D01*
X308861Y212279D01*
X308500Y212307D01*
X308193Y212283D01*
X308200Y212400D01*
X308179Y212761D01*
X308094Y213113D01*
X307956Y213447D01*
X307766Y213756D01*
X307531Y214031D01*
X307256Y214266D01*
X306947Y214456D01*
X306613Y214594D01*
X306261Y214679D01*
X305900Y214707D01*
X305746Y214695D01*
Y243500D01*
X310256D01*
X310369Y243369D01*
X310644Y243134D01*
X310953Y242944D01*
X311287Y242806D01*
X311639Y242721D01*
X312000Y242693D01*
X312361Y242721D01*
X312713Y242806D01*
X313047Y242944D01*
X313356Y243134D01*
X313631Y243369D01*
X313866Y243644D01*
X314056Y243953D01*
X314194Y244287D01*
X314279Y244639D01*
X314300Y245000D01*
X314279Y245361D01*
X314194Y245713D01*
X314056Y246047D01*
X313866Y246356D01*
X313631Y246631D01*
X313356Y246866D01*
X313047Y247056D01*
X312713Y247194D01*
X312361Y247279D01*
X312000Y247307D01*
X311639Y247279D01*
X311287Y247194D01*
X310953Y247056D01*
X310644Y246866D01*
X310369Y246631D01*
X310256Y246500D01*
X305746D01*
Y249000D01*
X310256D01*
X310369Y248869D01*
X310644Y248634D01*
X310953Y248444D01*
X311287Y248306D01*
X311639Y248221D01*
X312000Y248193D01*
X312361Y248221D01*
X312713Y248306D01*
X313047Y248444D01*
X313356Y248634D01*
X313631Y248869D01*
X313866Y249144D01*
X314056Y249453D01*
X314194Y249787D01*
X314279Y250139D01*
X314300Y250500D01*
X314279Y250861D01*
X314194Y251213D01*
X314056Y251547D01*
X313866Y251856D01*
X313631Y252131D01*
X313356Y252366D01*
X313047Y252556D01*
X312713Y252694D01*
X312361Y252779D01*
X312000Y252807D01*
X311639Y252779D01*
X311287Y252694D01*
X310953Y252556D01*
X310644Y252366D01*
X310369Y252131D01*
X310256Y252000D01*
X305746D01*
Y269099D01*
X306153Y269348D01*
X306692Y269808D01*
X307152Y270347D01*
X307522Y270951D01*
X307793Y271605D01*
X307958Y272294D01*
X308000Y273000D01*
X307958Y273706D01*
X307793Y274395D01*
X307522Y275049D01*
X307152Y275653D01*
X306692Y276192D01*
X306153Y276652D01*
X305746Y276901D01*
Y288000D01*
G37*
G36*
Y199375D02*X305602Y199519D01*
X305564Y199564D01*
X305384Y199717D01*
X305183Y199841D01*
X304965Y199931D01*
X304735Y199986D01*
X304500Y200005D01*
X304441Y200000D01*
X300059D01*
X300235Y200014D01*
X300235D01*
X300235Y200014D01*
X300465Y200069D01*
X300683Y200159D01*
X300884Y200283D01*
X301064Y200436D01*
X301102Y200481D01*
X305746Y205125D01*
Y199375D01*
G37*
G36*
Y187500D02*X304745D01*
X304779Y187639D01*
X304800Y188000D01*
X304779Y188361D01*
X304694Y188713D01*
X304556Y189047D01*
X304366Y189356D01*
X304131Y189631D01*
X304000Y189744D01*
Y191755D01*
X304139Y191721D01*
X304500Y191693D01*
X304861Y191721D01*
X305213Y191806D01*
X305547Y191944D01*
X305746Y192066D01*
Y187500D01*
G37*
G36*
X293493Y192500D02*X299879D01*
X301000Y191379D01*
Y189744D01*
X300869Y189631D01*
X300634Y189356D01*
X300444Y189047D01*
X300306Y188713D01*
X300221Y188361D01*
X300193Y188000D01*
X300221Y187639D01*
X300255Y187500D01*
X293493D01*
Y192500D01*
G37*
G36*
Y288000D02*X305746D01*
Y276901D01*
X305549Y277022D01*
X304895Y277293D01*
X304206Y277458D01*
X303500Y277514D01*
X302794Y277458D01*
X302105Y277293D01*
X301451Y277022D01*
X300847Y276652D01*
X300308Y276192D01*
X299848Y275653D01*
X299478Y275049D01*
X299207Y274395D01*
X299042Y273706D01*
X298986Y273000D01*
X299042Y272294D01*
X299207Y271605D01*
X299478Y270951D01*
X299848Y270347D01*
X300308Y269808D01*
X300847Y269348D01*
X301451Y268978D01*
X302105Y268707D01*
X302794Y268542D01*
X303500Y268486D01*
X304206Y268542D01*
X304895Y268707D01*
X305549Y268978D01*
X305746Y269099D01*
Y252000D01*
X301244D01*
X301131Y252131D01*
X300856Y252366D01*
X300547Y252556D01*
X300213Y252694D01*
X299861Y252779D01*
X299500Y252807D01*
X299139Y252779D01*
X298787Y252694D01*
X298453Y252556D01*
X298144Y252366D01*
X297869Y252131D01*
X297634Y251856D01*
X297444Y251547D01*
X297306Y251213D01*
X297221Y250861D01*
X297193Y250500D01*
X297221Y250139D01*
X297306Y249787D01*
X297444Y249453D01*
X297634Y249144D01*
X297869Y248869D01*
X298144Y248634D01*
X298453Y248444D01*
X298787Y248306D01*
X299139Y248221D01*
X299500Y248193D01*
X299861Y248221D01*
X300213Y248306D01*
X300547Y248444D01*
X300856Y248634D01*
X301131Y248869D01*
X301244Y249000D01*
X305746D01*
Y246500D01*
X301244D01*
X301131Y246631D01*
X300856Y246866D01*
X300547Y247056D01*
X300213Y247194D01*
X299861Y247279D01*
X299500Y247307D01*
X299139Y247279D01*
X298787Y247194D01*
X298453Y247056D01*
X298144Y246866D01*
X297869Y246631D01*
X297634Y246356D01*
X297444Y246047D01*
X297306Y245713D01*
X297221Y245361D01*
X297193Y245000D01*
X297221Y244639D01*
X297306Y244287D01*
X297444Y243953D01*
X297634Y243644D01*
X297869Y243369D01*
X298144Y243134D01*
X298453Y242944D01*
X298787Y242806D01*
X299139Y242721D01*
X299500Y242693D01*
X299861Y242721D01*
X300213Y242806D01*
X300547Y242944D01*
X300856Y243134D01*
X301131Y243369D01*
X301244Y243500D01*
X305746D01*
Y214695D01*
X305689Y214690D01*
X305679Y214861D01*
X305594Y215213D01*
X305456Y215547D01*
X305266Y215856D01*
X305031Y216131D01*
X304756Y216366D01*
X304447Y216556D01*
X304113Y216694D01*
X303761Y216779D01*
X303400Y216807D01*
X303039Y216779D01*
X302687Y216694D01*
X302353Y216556D01*
X302044Y216366D01*
X301769Y216131D01*
X301534Y215856D01*
X301344Y215547D01*
X301206Y215213D01*
X301121Y214861D01*
X301093Y214500D01*
X301114Y214235D01*
X295379Y208500D01*
X293493D01*
Y268487D01*
X293500Y268486D01*
X294206Y268542D01*
X294895Y268707D01*
X295549Y268978D01*
X296153Y269348D01*
X296692Y269808D01*
X297152Y270347D01*
X297522Y270951D01*
X297793Y271605D01*
X297958Y272294D01*
X298000Y273000D01*
X297958Y273706D01*
X297793Y274395D01*
X297522Y275049D01*
X297152Y275653D01*
X296692Y276192D01*
X296153Y276652D01*
X295549Y277022D01*
X294895Y277293D01*
X294206Y277458D01*
X293500Y277514D01*
X293493Y277513D01*
Y288000D01*
G37*
G36*
X283493Y192500D02*X293493D01*
Y187500D01*
X283493D01*
Y192500D01*
G37*
G36*
Y288000D02*X293493D01*
Y277513D01*
X292794Y277458D01*
X292105Y277293D01*
X291451Y277022D01*
X290847Y276652D01*
X290308Y276192D01*
X289848Y275653D01*
X289478Y275049D01*
X289207Y274395D01*
X289042Y273706D01*
X288986Y273000D01*
X289042Y272294D01*
X289207Y271605D01*
X289478Y270951D01*
X289848Y270347D01*
X290308Y269808D01*
X290847Y269348D01*
X291451Y268978D01*
X292105Y268707D01*
X292794Y268542D01*
X293493Y268487D01*
Y208500D01*
X283493D01*
Y268487D01*
X283500Y268486D01*
X284206Y268542D01*
X284895Y268707D01*
X285549Y268978D01*
X286153Y269348D01*
X286692Y269808D01*
X287152Y270347D01*
X287522Y270951D01*
X287793Y271605D01*
X287958Y272294D01*
X288000Y273000D01*
X287958Y273706D01*
X287793Y274395D01*
X287522Y275049D01*
X287152Y275653D01*
X286692Y276192D01*
X286153Y276652D01*
X285549Y277022D01*
X284895Y277293D01*
X284206Y277458D01*
X283500Y277514D01*
X283493Y277513D01*
Y288000D01*
G37*
G36*
X273493Y191350D02*X273556Y191453D01*
X273694Y191787D01*
X273779Y192139D01*
X273800Y192500D01*
X283493D01*
Y187500D01*
X273493D01*
Y191350D01*
G37*
G36*
Y288000D02*X283493D01*
Y277513D01*
X282794Y277458D01*
X282105Y277293D01*
X281451Y277022D01*
X280847Y276652D01*
X280308Y276192D01*
X279848Y275653D01*
X279478Y275049D01*
X279207Y274395D01*
X279042Y273706D01*
X278986Y273000D01*
X279042Y272294D01*
X279207Y271605D01*
X279478Y270951D01*
X279848Y270347D01*
X280308Y269808D01*
X280847Y269348D01*
X281451Y268978D01*
X282105Y268707D01*
X282794Y268542D01*
X283493Y268487D01*
Y208500D01*
X273493D01*
Y268487D01*
X273500Y268486D01*
X274206Y268542D01*
X274895Y268707D01*
X275549Y268978D01*
X276153Y269348D01*
X276692Y269808D01*
X277152Y270347D01*
X277522Y270951D01*
X277793Y271605D01*
X277958Y272294D01*
X278000Y273000D01*
X277958Y273706D01*
X277793Y274395D01*
X277522Y275049D01*
X277152Y275653D01*
X276692Y276192D01*
X276153Y276652D01*
X275549Y277022D01*
X274895Y277293D01*
X274206Y277458D01*
X273500Y277514D01*
X273493Y277513D01*
Y288000D01*
G37*
G36*
X263493Y199256D02*X263639Y199221D01*
X264000Y199193D01*
X264361Y199221D01*
X264713Y199306D01*
X264872Y199372D01*
X264806Y199213D01*
X264721Y198861D01*
X264693Y198500D01*
X264721Y198139D01*
X264806Y197787D01*
X264944Y197453D01*
X265134Y197144D01*
X265369Y196869D01*
X265644Y196634D01*
X265953Y196444D01*
X266287Y196306D01*
X266639Y196221D01*
X267000Y196193D01*
X267361Y196221D01*
X267713Y196306D01*
X267717Y196308D01*
X267693Y196000D01*
X267721Y195639D01*
X267806Y195287D01*
X267944Y194953D01*
X268134Y194644D01*
X268369Y194369D01*
X268644Y194134D01*
X268953Y193944D01*
X269287Y193806D01*
X269562Y193740D01*
X269444Y193547D01*
X269306Y193213D01*
X269221Y192861D01*
X269193Y192500D01*
X269221Y192139D01*
X269306Y191787D01*
X269444Y191453D01*
X269634Y191144D01*
X269869Y190869D01*
X270144Y190634D01*
X270453Y190444D01*
X270787Y190306D01*
X271139Y190221D01*
X271500Y190193D01*
X271861Y190221D01*
X272213Y190306D01*
X272547Y190444D01*
X272856Y190634D01*
X273131Y190869D01*
X273366Y191144D01*
X273493Y191350D01*
Y187500D01*
X263493D01*
Y199256D01*
G37*
G36*
Y288000D02*X273493D01*
Y277513D01*
X272794Y277458D01*
X272105Y277293D01*
X271451Y277022D01*
X270847Y276652D01*
X270308Y276192D01*
X269848Y275653D01*
X269478Y275049D01*
X269207Y274395D01*
X269042Y273706D01*
X268986Y273000D01*
X269042Y272294D01*
X269207Y271605D01*
X269478Y270951D01*
X269848Y270347D01*
X270308Y269808D01*
X270847Y269348D01*
X271451Y268978D01*
X272105Y268707D01*
X272794Y268542D01*
X273493Y268487D01*
Y208500D01*
X263493D01*
Y268487D01*
X263500Y268486D01*
X264206Y268542D01*
X264895Y268707D01*
X265549Y268978D01*
X266153Y269348D01*
X266692Y269808D01*
X267152Y270347D01*
X267522Y270951D01*
X267793Y271605D01*
X267958Y272294D01*
X268000Y273000D01*
X267958Y273706D01*
X267793Y274395D01*
X267522Y275049D01*
X267152Y275653D01*
X266692Y276192D01*
X266153Y276652D01*
X265549Y277022D01*
X264895Y277293D01*
X264206Y277458D01*
X263500Y277514D01*
X263493Y277513D01*
Y288000D01*
G37*
G36*
X253493D02*X263493D01*
Y277513D01*
X262794Y277458D01*
X262105Y277293D01*
X261451Y277022D01*
X260847Y276652D01*
X260308Y276192D01*
X259848Y275653D01*
X259478Y275049D01*
X259207Y274395D01*
X259042Y273706D01*
X258986Y273000D01*
X259042Y272294D01*
X259207Y271605D01*
X259478Y270951D01*
X259848Y270347D01*
X260308Y269808D01*
X260847Y269348D01*
X261451Y268978D01*
X262105Y268707D01*
X262794Y268542D01*
X263493Y268487D01*
Y208500D01*
X260559D01*
X260500Y208505D01*
X260265Y208486D01*
X260035Y208431D01*
X259817Y208341D01*
X259616Y208217D01*
X259615Y208217D01*
X259436Y208064D01*
X259398Y208019D01*
X257672Y206294D01*
X257500Y206307D01*
X257139Y206279D01*
X256787Y206194D01*
X256453Y206056D01*
X256144Y205866D01*
X255869Y205631D01*
X255634Y205356D01*
X255444Y205047D01*
X255306Y204713D01*
X255221Y204361D01*
X255193Y204000D01*
X255221Y203639D01*
X255306Y203287D01*
X255444Y202953D01*
X255634Y202644D01*
X255869Y202369D01*
X256144Y202134D01*
X256453Y201944D01*
X256787Y201806D01*
X257139Y201721D01*
X257500Y201693D01*
X257861Y201721D01*
X258213Y201806D01*
X258547Y201944D01*
X258856Y202134D01*
X259131Y202369D01*
X259366Y202644D01*
X259500Y202862D01*
X259634Y202644D01*
X259869Y202369D01*
X260144Y202134D01*
X260453Y201944D01*
X260787Y201806D01*
X261139Y201721D01*
X261500Y201693D01*
X261709Y201709D01*
X261693Y201500D01*
X261721Y201139D01*
X261806Y200787D01*
X261944Y200453D01*
X262134Y200144D01*
X262369Y199869D01*
X262644Y199634D01*
X262953Y199444D01*
X263287Y199306D01*
X263493Y199256D01*
Y187500D01*
X253493D01*
Y268487D01*
X253500Y268486D01*
X254206Y268542D01*
X254895Y268707D01*
X255549Y268978D01*
X256153Y269348D01*
X256692Y269808D01*
X257152Y270347D01*
X257522Y270951D01*
X257793Y271605D01*
X257958Y272294D01*
X258000Y273000D01*
X257958Y273706D01*
X257793Y274395D01*
X257522Y275049D01*
X257152Y275653D01*
X256692Y276192D01*
X256153Y276652D01*
X255549Y277022D01*
X254895Y277293D01*
X254206Y277458D01*
X253500Y277514D01*
X253493Y277513D01*
Y288000D01*
G37*
G36*
X245500D02*X253493D01*
Y277513D01*
X252794Y277458D01*
X252105Y277293D01*
X251451Y277022D01*
X250847Y276652D01*
X250308Y276192D01*
X249848Y275653D01*
X249478Y275049D01*
X249207Y274395D01*
X249042Y273706D01*
X248986Y273000D01*
X249042Y272294D01*
X249207Y271605D01*
X249478Y270951D01*
X249848Y270347D01*
X250308Y269808D01*
X250847Y269348D01*
X251451Y268978D01*
X252105Y268707D01*
X252794Y268542D01*
X253493Y268487D01*
Y187500D01*
X245500D01*
Y268958D01*
X245549Y268978D01*
X246153Y269348D01*
X246692Y269808D01*
X247152Y270347D01*
X247522Y270951D01*
X247793Y271605D01*
X247958Y272294D01*
X248000Y273000D01*
X247958Y273706D01*
X247793Y274395D01*
X247522Y275049D01*
X247152Y275653D01*
X246692Y276192D01*
X246153Y276652D01*
X245549Y277022D01*
X245500Y277042D01*
Y288000D01*
G37*
G54D41*X260500Y207000D02*X296000D01*
X257500Y204000D02*X260500Y207000D01*
X297500Y204000D02*X261500D01*
X264000Y201500D02*X300000D01*
X267000Y198500D02*X304500D01*
X297500Y204000D02*X295600D01*
X270000Y196000D02*X302500D01*
X271500Y192500D02*X273000Y194000D01*
X191500Y192500D02*X204500D01*
X201000Y189500D02*X193000D01*
X273000Y194000D02*X300500D01*
X302500Y192000D02*X300500Y194000D01*
X296000Y207000D02*X297500Y208500D01*
X303400Y214500D02*Y214400D01*
X296900Y207900D01*
X305900Y212400D02*X297500Y204000D01*
X312000Y250500D02*X299500D01*
Y245000D02*X312000D01*
X302500Y196000D02*X304500Y194000D01*
X308000D02*Y195000D01*
X305250Y197750D01*
X302500Y188000D02*Y192000D01*
X304500Y198500D02*X306500Y196500D01*
X308500Y210000D02*X300000Y201500D01*
X296000D01*
X328600Y231000D02*Y225700D01*
X343500Y235000D02*Y227500D01*
X329900Y224400D02*Y215800D01*
Y216600D02*Y209100D01*
Y209600D02*Y208400D01*
X326500Y205000D01*
X209500Y245500D02*X226000D01*
X226100Y241500D02*X209400D01*
X188000Y251500D02*X214500D01*
X217000Y249000D01*
X207500Y247500D02*X209500Y245500D01*
X188000Y247500D02*X207500D01*
X189500Y156000D02*Y190500D01*
X191500Y192500D01*
X193000Y189500D02*X192000Y188500D01*
Y152000D02*Y188500D01*
X203000Y239000D02*X229000D01*
G54D42*X229500Y190000D02*X206000Y213500D01*
X185000D01*
G54D41*X229000Y239000D02*X233000Y243000D01*
X225600Y241500D02*X227500D01*
X229000Y243000D01*
X192500Y152500D02*X192000Y152000D01*
X183000Y176500D02*Y145000D01*
X182000Y144000D01*
X186000Y180000D02*Y142000D01*
X154500Y135500D02*X179500D01*
X150000D02*X161000D01*
X158500Y140500D02*X167500D01*
X155000Y144000D02*X182000D01*
X153000Y140500D02*Y142000D01*
X155000Y144000D01*
X156500D01*
X144500Y138500D02*Y131000D01*
X139500Y138500D02*Y128000D01*
X142000Y125500D01*
X144500Y131000D02*X146000Y129500D01*
X176000D01*
X142000Y125500D02*X176000D01*
X186000Y142000D02*X181000Y137000D01*
X179500Y135500D02*X183500Y139500D01*
G54D43*X179500Y27863D02*X179495Y27858D01*
G54D41*X218000Y103500D02*Y95000D01*
X224000Y92500D02*Y100000D01*
G54D43*X220500Y27863D02*X220505Y27858D01*
G54D41*X208000Y92500D02*Y120000D01*
X209000Y88500D02*X208000Y89500D01*
Y94500D01*
G54D43*X163000Y110000D02*X177000D01*
G54D41*X187200Y77000D02*X195900D01*
X213000D02*X204100D01*
X328600Y225700D02*X329900Y224400D01*
X355000Y126500D02*Y134000D01*
X342000Y211000D02*X350000D01*
X287500Y129500D02*X313000D01*
X284000Y125500D02*X314500D01*
X315500Y126500D01*
G54D40*G36*
X18000Y157000D02*Y149000D01*
X26000D01*
Y157000D01*
X18000D01*
G37*
G54D44*X22000Y133000D03*
G54D40*G36*
X18000Y197000D02*Y189000D01*
X26000D01*
Y197000D01*
X18000D01*
G37*
G54D44*X22000Y173000D03*
G54D45*X17000Y56500D03*
Y273000D03*
G54D46*X93500Y261000D03*
X83500D03*
G54D40*G36*
X69563Y264937D02*Y257063D01*
X77437D01*
Y264937D01*
X69563D01*
G37*
G54D47*X54700Y234400D03*
G54D48*X30700D03*
X42700Y215400D03*
G54D45*X383000Y273000D03*
Y56500D03*
G54D49*X112795Y10142D03*
X87205D03*
X112795Y27858D03*
X87205D03*
X179495Y10142D03*
X153905D03*
X179495Y27858D03*
X153905D03*
X246095Y10142D03*
X312795D03*
X287205D03*
X220505D03*
X246095Y27858D03*
X312795D03*
X287205D03*
X220505D03*
G54D44*X296800Y77436D03*
Y106964D03*
G54D40*G36*
X350500Y276000D02*Y270000D01*
X356500D01*
Y276000D01*
X350500D01*
G37*
G54D50*X343500Y273000D03*
X333500D03*
X323500D03*
X313500D03*
X303500D03*
X293500D03*
X283500D03*
X273500D03*
X263500D03*
X253500D03*
X243500D03*
X233500D03*
X223500D03*
X213500D03*
X203500D03*
G54D51*X227500Y149500D03*
X205500Y153000D03*
X227500Y145500D03*
X167500Y140500D03*
X158500D03*
X226100Y163400D03*
X228000Y187500D03*
X226000Y198000D03*
X222000Y193500D03*
X227000Y192500D03*
X232400Y163500D03*
X232000Y192000D03*
X176000Y176500D03*
X189500Y156000D03*
X192000Y152000D03*
X183000Y176500D03*
X186000Y180000D03*
X153000Y140500D03*
X232400Y173800D03*
X226100D03*
X294500Y176500D03*
Y182500D03*
X264500Y165000D03*
Y161000D03*
X268000Y165000D03*
Y161000D03*
X253500Y165000D03*
Y161000D03*
X250000Y165000D03*
Y161000D03*
X257500Y204000D03*
X264000Y201500D03*
X267000Y198500D03*
X270000Y196000D03*
X271500Y192500D03*
X303400Y214500D03*
X229200Y213200D03*
X305900Y212400D03*
X379100Y212600D03*
X350000Y211000D03*
X229200Y225200D03*
X233000Y243000D03*
X229000D03*
X299500Y245000D03*
X287000Y242000D03*
X312000Y245000D03*
X343500Y235000D03*
X312000Y250500D03*
X323600Y231000D03*
X367700Y232300D03*
X379000Y222500D03*
Y226000D03*
X328600Y231000D03*
X343500Y227500D03*
X299500Y250500D03*
X287000Y248500D03*
X202500Y259500D03*
X204500Y192500D03*
X201000Y189500D03*
X203000Y239000D03*
X202500Y264000D03*
X209500Y245500D03*
X226000D03*
X188000Y247500D03*
X217000Y249000D03*
X188000Y251500D03*
X209400Y241500D03*
X192000Y216500D03*
X186000D03*
X192000Y210500D03*
X186000D03*
X189000Y213500D03*
X261500Y204000D03*
X330500Y199000D03*
X340000D03*
X308500Y210000D03*
X326500Y205000D03*
X304500Y194000D03*
X308000D03*
X302500Y188000D03*
X342000Y211000D03*
X45500Y155500D03*
X50000D03*
X72000Y143000D03*
Y137500D03*
X95500Y157000D03*
X58500Y186500D03*
X55000Y197500D03*
Y193500D03*
Y189500D03*
X62500Y186500D03*
X66000D03*
X63500Y176500D03*
X60500D03*
X58500Y200500D03*
X62500D03*
X66000D03*
X89500Y226000D03*
Y222000D03*
Y218000D03*
Y214000D03*
X77000Y226000D03*
Y222000D03*
Y218000D03*
Y214000D03*
X117000Y257500D03*
Y262000D03*
X25100Y103300D03*
X28400D03*
X31800D03*
X28500Y85500D03*
Y81500D03*
Y77500D03*
Y73500D03*
X330500Y135000D03*
X372500D03*
X376500D03*
X290000Y51500D03*
Y68500D03*
Y60000D03*
X304000Y51500D03*
Y68500D03*
Y60000D03*
X355000Y134000D03*
Y126500D03*
X378500Y92500D03*
Y88500D03*
Y84500D03*
Y80500D03*
X315500Y126500D03*
X313000Y129500D03*
X287500D03*
X284000Y125500D03*
X150000Y135500D03*
X139500Y138500D03*
X144500D03*
X163000Y110000D03*
X177000D03*
X176000Y129500D03*
Y125500D03*
X179000Y92500D03*
Y88500D03*
Y84500D03*
Y80500D03*
X218000Y103500D03*
Y95000D03*
X200000Y85000D03*
Y81200D03*
Y89000D03*
X208000Y88500D03*
X224000Y92500D03*
X225000Y85500D03*
Y81500D03*
Y77500D03*
Y73500D03*
X224000Y100000D03*
X208000Y120000D03*
X204100Y77000D03*
X213000D03*
X195900D03*
X187200D03*
G54D52*G54D53*G54D54*G54D55*G54D56*G54D57*G54D54*G54D58*G54D59*G54D58*G54D59*G54D58*G54D60*G54D61*G54D59*G54D62*M02*
