G04 start of page 11 for group -4015 idx -4015 *
G04 Title: (unknown), toppaste *
G04 Creator: pcb 4.0.2 *
G04 CreationDate: Thu Jul  2 20:22:59 2020 UTC *
G04 For: ndholmes *
G04 Format: Gerber/RS-274X *
G04 PCB-Dimensions (mil): 4000.00 2900.00 *
G04 PCB-Coordinate-Origin: lower left *
%MOIN*%
%FSLAX25Y25*%
%LNTOPPASTE*%
%ADD101C,0.0600*%
%ADD100C,0.0001*%
G54D100*G36*
X225576Y134262D02*Y132588D01*
X229120D01*
Y134262D01*
X225576D01*
G37*
G36*
Y137412D02*Y135738D01*
X229120D01*
Y137412D01*
X225576D01*
G37*
G36*
X218880D02*Y135738D01*
X222424D01*
Y137412D01*
X218880D01*
G37*
G36*
Y134262D02*Y132588D01*
X222424D01*
Y134262D01*
X218880D01*
G37*
G36*
X50375Y62751D02*X48013D01*
Y56649D01*
X50375D01*
Y62751D01*
G37*
G36*
X54312D02*X51950D01*
Y56649D01*
X54312D01*
Y62751D01*
G37*
G36*
X58250D02*X55888D01*
Y56649D01*
X58250D01*
Y62751D01*
G37*
G36*
X62187D02*X59825D01*
Y56649D01*
X62187D01*
Y62751D01*
G37*
G36*
X46438Y47987D02*X41714D01*
Y40901D01*
X46438D01*
Y47987D01*
G37*
G36*
X68486D02*X63762D01*
Y40901D01*
X68486D01*
Y47987D01*
G37*
G36*
X165880Y159060D02*Y157388D01*
X169424D01*
Y159060D01*
X165880D01*
G37*
G36*
Y155912D02*Y154238D01*
X169424D01*
Y155912D01*
X165880D01*
G37*
G36*
Y152762D02*Y151088D01*
X169424D01*
Y152762D01*
X165880D01*
G37*
G36*
Y149612D02*Y147940D01*
X169424D01*
Y149612D01*
X165880D01*
G37*
G36*
X172576D02*Y147940D01*
X176120D01*
Y149612D01*
X172576D01*
G37*
G36*
Y152762D02*Y151088D01*
X176120D01*
Y152762D01*
X172576D01*
G37*
G36*
Y155912D02*Y154238D01*
X176120D01*
Y155912D01*
X172576D01*
G37*
G36*
Y159060D02*Y157388D01*
X176120D01*
Y159060D01*
X172576D01*
G37*
G54D101*X78400Y130000D03*
G54D100*G36*
Y133000D02*X75400D01*
Y127000D01*
X78400D01*
Y133000D01*
G37*
G54D101*X71600Y130000D03*
G54D100*G36*
X74600Y133000D02*X71600D01*
Y127000D01*
X74600D01*
Y133000D01*
G37*
G54D101*X71600Y166000D03*
G54D100*G36*
X74600Y169000D02*X71600D01*
Y163000D01*
X74600D01*
Y169000D01*
G37*
G54D101*X78400Y166000D03*
G54D100*G36*
Y169000D02*X75400D01*
Y163000D01*
X78400D01*
Y169000D01*
G37*
G36*
X78602Y179452D02*X73484D01*
Y173548D01*
X78602D01*
Y179452D01*
G37*
G36*
X71516D02*X66398D01*
Y173548D01*
X71516D01*
Y179452D01*
G37*
G36*
X203180Y113960D02*Y112288D01*
X206724D01*
Y113960D01*
X203180D01*
G37*
G36*
Y110812D02*Y109138D01*
X206724D01*
Y110812D01*
X203180D01*
G37*
G36*
Y107662D02*Y105988D01*
X206724D01*
Y107662D01*
X203180D01*
G37*
G36*
Y104512D02*Y102840D01*
X206724D01*
Y104512D01*
X203180D01*
G37*
G36*
X209876D02*Y102840D01*
X213420D01*
Y104512D01*
X209876D01*
G37*
G36*
Y107662D02*Y105988D01*
X213420D01*
Y107662D01*
X209876D01*
G37*
G36*
Y110812D02*Y109138D01*
X213420D01*
Y110812D01*
X209876D01*
G37*
G36*
Y113960D02*Y112288D01*
X213420D01*
Y113960D01*
X209876D01*
G37*
G36*
X194048Y220516D02*Y215398D01*
X199952D01*
Y220516D01*
X194048D01*
G37*
G36*
Y227602D02*Y222484D01*
X199952D01*
Y227602D01*
X194048D01*
G37*
G36*
X348973Y262952D02*X343855D01*
Y257048D01*
X348973D01*
Y262952D01*
G37*
G36*
X356059D02*X350941D01*
Y257048D01*
X356059D01*
Y262952D01*
G37*
G36*
X57216Y168952D02*X52098D01*
Y163048D01*
X57216D01*
Y168952D01*
G37*
G36*
X64302D02*X59184D01*
Y163048D01*
X64302D01*
Y168952D01*
G37*
G36*
X64102Y132952D02*X58984D01*
Y127048D01*
X64102D01*
Y132952D01*
G37*
G36*
X57016D02*X51898D01*
Y127048D01*
X57016D01*
Y132952D01*
G37*
G36*
X62858Y223450D02*Y217150D01*
X75457D01*
Y223450D01*
X62858D01*
G37*
G36*
X82543D02*Y217150D01*
X95142D01*
Y223450D01*
X82543D01*
G37*
G36*
X158473Y226452D02*X153355D01*
Y220548D01*
X158473D01*
Y226452D01*
G37*
G36*
X165559D02*X160441D01*
Y220548D01*
X165559D01*
Y226452D01*
G37*
G36*
X191900Y256500D02*Y254100D01*
X195900D01*
Y256500D01*
X191900D01*
G37*
G36*
Y252600D02*Y250200D01*
X195900D01*
Y252600D01*
X191900D01*
G37*
G36*
Y248700D02*Y246300D01*
X195900D01*
Y248700D01*
X191900D01*
G37*
G36*
X200100D02*Y246300D01*
X204100D01*
Y248700D01*
X200100D01*
G37*
G36*
Y252600D02*Y250200D01*
X204100D01*
Y252600D01*
X200100D01*
G37*
G36*
Y256500D02*Y254100D01*
X204100D01*
Y256500D01*
X200100D01*
G37*
G36*
X71421Y189484D02*Y185704D01*
X79295D01*
Y189484D01*
X71421D01*
G37*
G36*
X63705Y195390D02*Y191610D01*
X79295D01*
Y195390D01*
X63705D01*
G37*
G36*
X57246Y198225D02*Y188775D01*
X68586D01*
Y198225D01*
X57246D01*
G37*
G36*
X71426Y191615D02*X70006Y193035D01*
X67166Y190195D01*
X68586Y188775D01*
X71426Y191615D01*
G37*
G36*
X68586Y198225D02*X67166Y196805D01*
X70006Y193965D01*
X71426Y195385D01*
X68586Y198225D01*
G37*
G36*
X71421Y201296D02*Y197516D01*
X79295D01*
Y201296D01*
X71421D01*
G37*
G36*
X75400Y141500D02*Y139500D01*
X83900D01*
Y141500D01*
X75400D01*
G37*
G36*
Y146500D02*Y144500D01*
X83900D01*
Y146500D01*
X75400D01*
G37*
G36*
Y151500D02*Y149500D01*
X83900D01*
Y151500D01*
X75400D01*
G37*
G36*
Y156500D02*Y154500D01*
X83900D01*
Y156500D01*
X75400D01*
G37*
G36*
X54900D02*Y154500D01*
X63400D01*
Y156500D01*
X54900D01*
G37*
G36*
Y151500D02*Y149500D01*
X63400D01*
Y151500D01*
X54900D01*
G37*
G36*
Y146500D02*Y144500D01*
X63400D01*
Y146500D01*
X54900D01*
G37*
G36*
Y141500D02*Y139500D01*
X63400D01*
Y141500D01*
X54900D01*
G37*
G36*
X178102Y202952D02*X172984D01*
Y197048D01*
X178102D01*
Y202952D01*
G37*
G36*
X171016D02*X165898D01*
Y197048D01*
X171016D01*
Y202952D01*
G37*
G36*
X170930Y176452D02*X165812D01*
Y170548D01*
X170930D01*
Y176452D01*
G37*
G36*
X178016D02*X172898D01*
Y170548D01*
X178016D01*
Y176452D01*
G37*
G36*
X386196Y196050D02*X382896D01*
Y190348D01*
X386196D01*
Y196050D01*
G37*
G36*
X381274D02*X377974D01*
Y190348D01*
X381274D01*
Y196050D01*
G37*
G36*
X376353D02*X373053D01*
Y190348D01*
X376353D01*
Y196050D01*
G37*
G36*
X371432D02*X368132D01*
Y190348D01*
X371432D01*
Y196050D01*
G37*
G36*
X366511D02*X363211D01*
Y190348D01*
X366511D01*
Y196050D01*
G37*
G36*
X361589D02*X358289D01*
Y190348D01*
X361589D01*
Y196050D01*
G37*
G36*
X356668D02*X353368D01*
Y190348D01*
X356668D01*
Y196050D01*
G37*
G36*
X351747D02*X348447D01*
Y190348D01*
X351747D01*
Y196050D01*
G37*
G36*
X346826D02*X343526D01*
Y190348D01*
X346826D01*
Y196050D01*
G37*
G36*
X341904D02*X338604D01*
Y190348D01*
X341904D01*
Y196050D01*
G37*
G36*
X336983D02*X333683D01*
Y190348D01*
X336983D01*
Y196050D01*
G37*
G36*
X332062D02*X328762D01*
Y190348D01*
X332062D01*
Y196050D01*
G37*
G36*
X321502Y186274D02*Y182974D01*
X327200D01*
Y186274D01*
X321502D01*
G37*
G36*
Y181353D02*Y178053D01*
X327200D01*
Y181353D01*
X321502D01*
G37*
G36*
Y176432D02*Y173132D01*
X327200D01*
Y176432D01*
X321502D01*
G37*
G36*
Y171511D02*Y168211D01*
X327200D01*
Y171511D01*
X321502D01*
G37*
G36*
Y166589D02*Y163289D01*
X327200D01*
Y166589D01*
X321502D01*
G37*
G36*
Y161668D02*Y158368D01*
X327200D01*
Y161668D01*
X321502D01*
G37*
G36*
Y156747D02*Y153447D01*
X327200D01*
Y156747D01*
X321502D01*
G37*
G36*
Y151826D02*Y148526D01*
X327200D01*
Y151826D01*
X321502D01*
G37*
G36*
X332062Y144452D02*X328762D01*
Y138750D01*
X332062D01*
Y144452D01*
G37*
G36*
X336983D02*X333683D01*
Y138750D01*
X336983D01*
Y144452D01*
G37*
G36*
X341904D02*X338604D01*
Y138750D01*
X341904D01*
Y144452D01*
G37*
G36*
X346826D02*X343526D01*
Y138750D01*
X346826D01*
Y144452D01*
G37*
G36*
X351747D02*X348447D01*
Y138750D01*
X351747D01*
Y144452D01*
G37*
G36*
X356668D02*X353368D01*
Y138750D01*
X356668D01*
Y144452D01*
G37*
G36*
X361589D02*X358289D01*
Y138750D01*
X361589D01*
Y144452D01*
G37*
G36*
X366511D02*X363211D01*
Y138750D01*
X366511D01*
Y144452D01*
G37*
G36*
X371432D02*X368132D01*
Y138750D01*
X371432D01*
Y144452D01*
G37*
G36*
X376353D02*X373053D01*
Y138750D01*
X376353D01*
Y144452D01*
G37*
G36*
X381274D02*X377974D01*
Y138750D01*
X381274D01*
Y144452D01*
G37*
G36*
X386196D02*X382896D01*
Y138750D01*
X386196D01*
Y144452D01*
G37*
G36*
X391117D02*X387817D01*
Y138750D01*
X391117D01*
Y144452D01*
G37*
G36*
X396038D02*X392738D01*
Y138750D01*
X396038D01*
Y144452D01*
G37*
G36*
X374559Y210452D02*X369441D01*
Y204548D01*
X374559D01*
Y210452D01*
G37*
G36*
X381645D02*X376527D01*
Y204548D01*
X381645D01*
Y210452D01*
G37*
G36*
X374516Y220452D02*X369398D01*
Y214548D01*
X374516D01*
Y220452D01*
G37*
G36*
X381602D02*X376484D01*
Y214548D01*
X381602D01*
Y220452D01*
G37*
G36*
X369900Y241950D02*X365200D01*
Y237249D01*
X369900D01*
Y241950D01*
G37*
G36*
Y249751D02*X365200D01*
Y245050D01*
X369900D01*
Y249751D01*
G37*
G36*
X357900Y246651D02*X351600D01*
Y240350D01*
X357900D01*
Y246651D01*
G37*
G36*
X142376Y263600D02*Y258600D01*
X156864D01*
Y263600D01*
X142376D01*
G37*
G36*
Y253600D02*Y248600D01*
X156864D01*
Y253600D01*
X142376D01*
G37*
G36*
Y243600D02*Y238600D01*
X156864D01*
Y243600D01*
X142376D01*
G37*
G36*
X159856D02*Y238600D01*
X174344D01*
Y243600D01*
X159856D01*
G37*
G36*
Y253600D02*Y248600D01*
X174344D01*
Y253600D01*
X159856D01*
G37*
G36*
Y263600D02*Y258600D01*
X174344D01*
Y263600D01*
X159856D01*
G37*
G36*
X202100Y82300D02*Y79900D01*
X206100D01*
Y82300D01*
X202100D01*
G37*
G36*
Y86200D02*Y83800D01*
X206100D01*
Y86200D01*
X202100D01*
G37*
G36*
Y90100D02*Y87700D01*
X206100D01*
Y90100D01*
X202100D01*
G37*
G36*
X193900D02*Y87700D01*
X197900D01*
Y90100D01*
X193900D01*
G37*
G36*
Y86200D02*Y83800D01*
X197900D01*
Y86200D01*
X193900D01*
G37*
G36*
Y82300D02*Y79900D01*
X197900D01*
Y82300D01*
X193900D01*
G37*
G36*
X273622Y188567D02*Y186598D01*
X276772D01*
Y188567D01*
X273622D01*
G37*
G36*
Y185418D02*Y183449D01*
X276772D01*
Y185418D01*
X273622D01*
G37*
G36*
Y182268D02*Y180299D01*
X276772D01*
Y182268D01*
X273622D01*
G37*
G36*
Y179118D02*Y177149D01*
X276772D01*
Y179118D01*
X273622D01*
G37*
G36*
Y175969D02*Y174000D01*
X276772D01*
Y175969D01*
X273622D01*
G37*
G36*
X282283D02*Y174000D01*
X285433D01*
Y175969D01*
X282283D01*
G37*
G36*
Y179118D02*Y177149D01*
X285433D01*
Y179118D01*
X282283D01*
G37*
G36*
Y182268D02*Y180299D01*
X285433D01*
Y182268D01*
X282283D01*
G37*
G36*
Y185418D02*Y183449D01*
X285433D01*
Y185418D01*
X282283D01*
G37*
G36*
Y188567D02*Y186598D01*
X285433D01*
Y188567D01*
X282283D01*
G37*
G36*
X194815Y208035D02*Y206461D01*
X200815D01*
Y208035D01*
X194815D01*
G37*
G36*
Y204886D02*Y203312D01*
X200815D01*
Y204886D01*
X194815D01*
G37*
G36*
Y201736D02*Y200162D01*
X200815D01*
Y201736D01*
X194815D01*
G37*
G36*
Y198587D02*Y197013D01*
X200815D01*
Y198587D01*
X194815D01*
G37*
G36*
Y195437D02*Y193863D01*
X200815D01*
Y195437D01*
X194815D01*
G37*
G36*
Y192287D02*Y190713D01*
X200815D01*
Y192287D01*
X194815D01*
G37*
G36*
Y189138D02*Y187564D01*
X200815D01*
Y189138D01*
X194815D01*
G37*
G36*
Y185988D02*Y184414D01*
X200815D01*
Y185988D01*
X194815D01*
G37*
G36*
Y182839D02*Y181265D01*
X200815D01*
Y182839D01*
X194815D01*
G37*
G36*
Y179689D02*Y178115D01*
X200815D01*
Y179689D01*
X194815D01*
G37*
G36*
Y176539D02*Y174965D01*
X200815D01*
Y176539D01*
X194815D01*
G37*
G36*
X207539Y169815D02*X205965D01*
Y163815D01*
X207539D01*
Y169815D01*
G37*
G36*
X210688D02*X209114D01*
Y163815D01*
X210688D01*
Y169815D01*
G37*
G36*
X213838D02*X212264D01*
Y163815D01*
X213838D01*
Y169815D01*
G37*
G36*
X216987D02*X215413D01*
Y163815D01*
X216987D01*
Y169815D01*
G37*
G36*
X220137D02*X218563D01*
Y163815D01*
X220137D01*
Y169815D01*
G37*
G36*
X223287D02*X221713D01*
Y163815D01*
X223287D01*
Y169815D01*
G37*
G36*
X226436D02*X224862D01*
Y163815D01*
X226436D01*
Y169815D01*
G37*
G36*
X229586D02*X228012D01*
Y163815D01*
X229586D01*
Y169815D01*
G37*
G36*
X232735D02*X231161D01*
Y163815D01*
X232735D01*
Y169815D01*
G37*
G36*
X235885D02*X234311D01*
Y163815D01*
X235885D01*
Y169815D01*
G37*
G36*
X239035D02*X237461D01*
Y163815D01*
X239035D01*
Y169815D01*
G37*
G36*
X244185Y176539D02*Y174965D01*
X250185D01*
Y176539D01*
X244185D01*
G37*
G36*
Y179688D02*Y178114D01*
X250185D01*
Y179688D01*
X244185D01*
G37*
G36*
Y182838D02*Y181264D01*
X250185D01*
Y182838D01*
X244185D01*
G37*
G36*
Y185987D02*Y184413D01*
X250185D01*
Y185987D01*
X244185D01*
G37*
G36*
Y189137D02*Y187563D01*
X250185D01*
Y189137D01*
X244185D01*
G37*
G36*
Y192287D02*Y190713D01*
X250185D01*
Y192287D01*
X244185D01*
G37*
G36*
Y195436D02*Y193862D01*
X250185D01*
Y195436D01*
X244185D01*
G37*
G36*
Y198586D02*Y197012D01*
X250185D01*
Y198586D01*
X244185D01*
G37*
G36*
Y201735D02*Y200161D01*
X250185D01*
Y201735D01*
X244185D01*
G37*
G36*
Y204885D02*Y203311D01*
X250185D01*
Y204885D01*
X244185D01*
G37*
G36*
Y208035D02*Y206461D01*
X250185D01*
Y208035D01*
X244185D01*
G37*
G36*
X239035Y219185D02*X237461D01*
Y213185D01*
X239035D01*
Y219185D01*
G37*
G36*
X235886D02*X234312D01*
Y213185D01*
X235886D01*
Y219185D01*
G37*
G36*
X232736D02*X231162D01*
Y213185D01*
X232736D01*
Y219185D01*
G37*
G36*
X229587D02*X228013D01*
Y213185D01*
X229587D01*
Y219185D01*
G37*
G36*
X226437D02*X224863D01*
Y213185D01*
X226437D01*
Y219185D01*
G37*
G36*
X223287D02*X221713D01*
Y213185D01*
X223287D01*
Y219185D01*
G37*
G36*
X220138D02*X218564D01*
Y213185D01*
X220138D01*
Y219185D01*
G37*
G36*
X216988D02*X215414D01*
Y213185D01*
X216988D01*
Y219185D01*
G37*
G36*
X213839D02*X212265D01*
Y213185D01*
X213839D01*
Y219185D01*
G37*
G36*
X210689D02*X209115D01*
Y213185D01*
X210689D01*
Y219185D01*
G37*
G36*
X207539D02*X205965D01*
Y213185D01*
X207539D01*
Y219185D01*
G37*
G36*
X101602Y255052D02*X96484D01*
Y249148D01*
X101602D01*
Y255052D01*
G37*
G36*
X94516D02*X89398D01*
Y249148D01*
X94516D01*
Y255052D01*
G37*
G36*
X75516Y257452D02*X70398D01*
Y251548D01*
X75516D01*
Y257452D01*
G37*
G36*
X82602D02*X77484D01*
Y251548D01*
X82602D01*
Y257452D01*
G37*
G36*
X79000Y271200D02*Y268800D01*
X83000D01*
Y271200D01*
X79000D01*
G37*
G36*
Y267300D02*Y264900D01*
X83000D01*
Y267300D01*
X79000D01*
G37*
G36*
Y263400D02*Y261000D01*
X83000D01*
Y263400D01*
X79000D01*
G37*
G36*
X87200D02*Y261000D01*
X91200D01*
Y263400D01*
X87200D01*
G37*
G36*
Y267300D02*Y264900D01*
X91200D01*
Y267300D01*
X87200D01*
G37*
G36*
Y271200D02*Y268800D01*
X91200D01*
Y271200D01*
X87200D01*
G37*
G36*
X101602Y245152D02*X96484D01*
Y239248D01*
X101602D01*
Y245152D01*
G37*
G36*
X94516D02*X89398D01*
Y239248D01*
X94516D01*
Y245152D01*
G37*
G36*
X101000Y282300D02*X98700D01*
Y258600D01*
X101000D01*
Y282300D01*
G37*
G36*
X98700Y260900D02*Y258600D01*
X106600D01*
Y260900D01*
X98700D01*
G37*
G36*
Y282300D02*Y280000D01*
X106600D01*
Y282300D01*
X98700D01*
G37*
G36*
X122400D02*X120100D01*
Y258600D01*
X122400D01*
Y282300D01*
G37*
G36*
X114500Y260900D02*Y258600D01*
X122400D01*
Y260900D01*
X114500D01*
G37*
G36*
Y282300D02*Y280000D01*
X122400D01*
Y282300D01*
X114500D01*
G37*
G36*
X101000Y266494D02*X98879Y264373D01*
X104473Y258779D01*
X106594Y260900D01*
X101000Y266494D01*
G37*
G36*
X106594Y280000D02*X104473Y282121D01*
X98879Y276527D01*
X101000Y274406D01*
X106594Y280000D01*
G37*
G36*
X122221Y264373D02*X120100Y266494D01*
X114506Y260900D01*
X116627Y258779D01*
X122221Y264373D01*
G37*
G36*
X116627Y282121D02*X114506Y280000D01*
X120100Y274406D01*
X122221Y276527D01*
X116627Y282121D01*
G37*
G36*
X99200Y262700D02*Y259100D01*
X102800D01*
Y262700D01*
X99200D01*
G37*
G36*
Y281800D02*Y278200D01*
X102800D01*
Y281800D01*
X99200D01*
G37*
G36*
X118300Y262700D02*Y259100D01*
X121900D01*
Y262700D01*
X118300D01*
G37*
G36*
Y281800D02*Y278200D01*
X121900D01*
Y281800D01*
X118300D01*
G37*
G36*
X53750Y283750D02*X48250D01*
Y276250D01*
X53750D01*
Y283750D01*
G37*
G36*
X66750D02*X61250D01*
Y276250D01*
X66750D01*
Y283750D01*
G37*
G36*
X164997Y185003D02*Y179885D01*
X172870D01*
Y185003D01*
X164997D01*
G37*
G36*
X179564D02*Y179885D01*
X187437D01*
Y185003D01*
X179564D01*
G37*
G36*
Y194059D02*Y188941D01*
X187437D01*
Y194059D01*
X179564D01*
G37*
G36*
X164997D02*Y188941D01*
X172870D01*
Y194059D01*
X164997D01*
G37*
G36*
X364355Y94900D02*Y85700D01*
X381355D01*
Y94900D01*
X364355D01*
G37*
G36*
X303223D02*Y85700D01*
X317662D01*
Y94900D01*
X303223D01*
G37*
G36*
X259048Y187016D02*Y181898D01*
X264952D01*
Y187016D01*
X259048D01*
G37*
G36*
Y194102D02*Y188984D01*
X264952D01*
Y194102D01*
X259048D01*
G37*
G36*
X242338Y91060D02*Y89388D01*
X245881D01*
Y91060D01*
X242338D01*
G37*
G36*
Y87912D02*Y86238D01*
X245881D01*
Y87912D01*
X242338D01*
G37*
G36*
Y84762D02*Y83088D01*
X245881D01*
Y84762D01*
X242338D01*
G37*
G36*
Y81612D02*Y79940D01*
X245881D01*
Y81612D01*
X242338D01*
G37*
G36*
X249034D02*Y79940D01*
X252577D01*
Y81612D01*
X249034D01*
G37*
G36*
Y84762D02*Y83088D01*
X252577D01*
Y84762D01*
X249034D01*
G37*
G36*
Y87912D02*Y86238D01*
X252577D01*
Y87912D01*
X249034D01*
G37*
G36*
Y91060D02*Y89388D01*
X252577D01*
Y91060D01*
X249034D01*
G37*
G36*
X272473Y85952D02*X267355D01*
Y80048D01*
X272473D01*
Y85952D01*
G37*
G36*
X279559D02*X274441D01*
Y80048D01*
X279559D01*
Y85952D01*
G37*
G36*
X272473Y104952D02*X267355D01*
Y99048D01*
X272473D01*
Y104952D01*
G37*
G36*
X279559D02*X274441D01*
Y99048D01*
X279559D01*
Y104952D01*
G37*
G36*
X272473Y76452D02*X267355D01*
Y70548D01*
X272473D01*
Y76452D01*
G37*
G36*
X279559D02*X274441D01*
Y70548D01*
X279559D01*
Y76452D01*
G37*
G36*
X272473Y95452D02*X267355D01*
Y89548D01*
X272473D01*
Y95452D01*
G37*
G36*
X279559D02*X274441D01*
Y89548D01*
X279559D01*
Y95452D01*
G37*
G36*
X286076Y206112D02*Y204440D01*
X289620D01*
Y206112D01*
X286076D01*
G37*
G36*
Y209261D02*Y207589D01*
X289620D01*
Y209261D01*
X286076D01*
G37*
G36*
Y212411D02*Y210739D01*
X289620D01*
Y212411D01*
X286076D01*
G37*
G36*
Y215560D02*Y213888D01*
X289620D01*
Y215560D01*
X286076D01*
G37*
G36*
X279380D02*Y213888D01*
X282924D01*
Y215560D01*
X279380D01*
G37*
G36*
Y212411D02*Y210739D01*
X282924D01*
Y212411D01*
X279380D01*
G37*
G36*
Y209261D02*Y207589D01*
X282924D01*
Y209261D01*
X279380D01*
G37*
G36*
Y206112D02*Y204440D01*
X282924D01*
Y206112D01*
X279380D01*
G37*
G36*
X55300Y102800D02*X52900D01*
Y98800D01*
X55300D01*
Y102800D01*
G37*
G36*
X51400D02*X49000D01*
Y98800D01*
X51400D01*
Y102800D01*
G37*
G36*
X47500D02*X45100D01*
Y98800D01*
X47500D01*
Y102800D01*
G37*
G36*
Y94600D02*X45100D01*
Y90600D01*
X47500D01*
Y94600D01*
G37*
G36*
X51400D02*X49000D01*
Y90600D01*
X51400D01*
Y94600D01*
G37*
G36*
X55300D02*X52900D01*
Y90600D01*
X55300D01*
Y94600D01*
G37*
G36*
X180890Y105878D02*Y103516D01*
X186992D01*
Y105878D01*
X180890D01*
G37*
G36*
Y109815D02*Y107453D01*
X186992D01*
Y109815D01*
X180890D01*
G37*
G36*
Y113752D02*Y111390D01*
X186992D01*
Y113752D01*
X180890D01*
G37*
G36*
Y117689D02*Y115327D01*
X186992D01*
Y117689D01*
X180890D01*
G37*
G36*
Y121626D02*Y119264D01*
X186992D01*
Y121626D01*
X180890D01*
G37*
G36*
Y125563D02*Y123201D01*
X186992D01*
Y125563D01*
X180890D01*
G37*
G36*
X170457Y101941D02*Y97217D01*
X177543D01*
Y101941D01*
X170457D01*
G37*
G36*
Y131862D02*Y127138D01*
X177543D01*
Y131862D01*
X170457D01*
G37*
G36*
X140177Y209025D02*X137421D01*
Y204300D01*
X140177D01*
Y209025D01*
G37*
G36*
X135847D02*X133091D01*
Y204300D01*
X135847D01*
Y209025D01*
G37*
G36*
X131516D02*X128760D01*
Y204300D01*
X131516D01*
Y209025D01*
G37*
G36*
X127185D02*X124429D01*
Y204300D01*
X127185D01*
Y209025D01*
G37*
G36*
X122854D02*X120098D01*
Y204300D01*
X122854D01*
Y209025D01*
G37*
G36*
X118524D02*X115768D01*
Y204300D01*
X118524D01*
Y209025D01*
G37*
G36*
X114193D02*X111437D01*
Y204300D01*
X114193D01*
Y209025D01*
G37*
G36*
X109862D02*X107106D01*
Y204300D01*
X109862D01*
Y209025D01*
G37*
G36*
X105531D02*X102775D01*
Y204300D01*
X105531D01*
Y209025D01*
G37*
G36*
X99036Y166900D02*Y163749D01*
X102972D01*
Y166900D01*
X99036D01*
G37*
G36*
X102972Y192096D02*X99036D01*
Y187372D01*
X102972D01*
Y192096D01*
G37*
G36*
X102973Y154498D02*X99036D01*
Y143474D01*
X102973D01*
Y154498D01*
G37*
G36*
X156713Y150953D02*X151595D01*
Y143472D01*
X156713D01*
Y150953D01*
G37*
G36*
X146870Y209026D02*X142932D01*
Y204300D01*
X146870D01*
Y209026D01*
G37*
G36*
X127102Y220452D02*X121984D01*
Y214548D01*
X127102D01*
Y220452D01*
G37*
G36*
X120016D02*X114898D01*
Y214548D01*
X120016D01*
Y220452D01*
G37*
G36*
X87016Y283452D02*X81898D01*
Y277548D01*
X87016D01*
Y283452D01*
G37*
G36*
X94102D02*X88984D01*
Y277548D01*
X94102D01*
Y283452D01*
G37*
M02*
