G04 start of page 13 for group -3984 idx -3984 *
G04 Title: (unknown), fab *
G04 Creator: pcb 4.0.2 *
G04 CreationDate: Thu Jul  2 20:22:59 2020 UTC *
G04 For: ndholmes *
G04 Format: Gerber/RS-274X *
G04 PCB-Dimensions (mil): 4000.00 2900.00 *
G04 PCB-Coordinate-Origin: lower left *
%MOIN*%
%FSLAX25Y25*%
%LNFAB*%
%ADD104C,0.0100*%
%ADD103C,0.0060*%
%ADD102R,0.0080X0.0080*%
G54D102*X383000Y277800D02*Y268200D01*
X378200Y273000D02*X387800D01*
X381400Y274600D02*X384600D01*
X381400D02*Y271400D01*
X384600D01*
Y274600D02*Y271400D01*
X379800Y276200D02*X386200D01*
X379800D02*Y269800D01*
X386200D01*
Y276200D02*Y269800D01*
X17000Y61300D02*Y51700D01*
X12200Y56500D02*X21800D01*
X15400Y58100D02*X18600D01*
X15400D02*Y54900D01*
X18600D01*
Y58100D02*Y54900D01*
X13800Y59700D02*X20200D01*
X13800D02*Y53300D01*
X20200D01*
Y59700D02*Y53300D01*
X383000Y61300D02*Y51700D01*
X378200Y56500D02*X387800D01*
X381400Y58100D02*X384600D01*
X381400D02*Y54900D01*
X384600D01*
Y58100D02*Y54900D01*
X379800Y59700D02*X386200D01*
X379800D02*Y53300D01*
X386200D01*
Y59700D02*Y53300D01*
X17000Y277800D02*Y268200D01*
X12200Y273000D02*X21800D01*
X15400Y274600D02*X18600D01*
X15400D02*Y271400D01*
X18600D01*
Y274600D02*Y271400D01*
X13800Y276200D02*X20200D01*
X13800D02*Y269800D01*
X20200D01*
Y276200D02*Y269800D01*
X15000Y306050D02*Y296450D01*
X10200Y301250D02*X19800D01*
X13400Y302850D02*X16600D01*
X13400D02*Y299650D01*
X16600D01*
Y302850D02*Y299650D01*
X11800Y304450D02*X18200D01*
X11800D02*Y298050D01*
X18200D01*
Y304450D02*Y298050D01*
G54D103*X135000Y303500D02*Y302750D01*
X136500Y301250D01*
X138000Y302750D01*
Y303500D02*Y302750D01*
X136500Y301250D02*Y297500D01*
X139800Y300500D02*X142050D01*
X139800Y297500D02*X142800D01*
X139800Y303500D02*Y297500D01*
Y303500D02*X142800D01*
X147600D02*X148350Y302750D01*
X145350Y303500D02*X147600D01*
X144600Y302750D02*X145350Y303500D01*
X144600Y302750D02*Y301250D01*
X145350Y300500D01*
X147600D01*
X148350Y299750D01*
Y298250D01*
X147600Y297500D02*X148350Y298250D01*
X145350Y297500D02*X147600D01*
X144600Y298250D02*X145350Y297500D01*
X98000Y300500D02*X101000Y303500D01*
X98000Y300500D02*X101750D01*
X101000Y303500D02*Y297500D01*
X45000Y298250D02*X45750Y297500D01*
X45000Y302750D02*Y298250D01*
Y302750D02*X45750Y303500D01*
X47250D01*
X48000Y302750D01*
Y298250D01*
X47250Y297500D02*X48000Y298250D01*
X45750Y297500D02*X47250D01*
X45000Y299000D02*X48000Y302000D01*
X49800Y297500D02*X50550D01*
X53100D02*X54600D01*
X53850Y303500D02*Y297500D01*
X52350Y302000D02*X53850Y303500D01*
X56400Y302750D02*X57150Y303500D01*
X59400D01*
X60150Y302750D01*
Y301250D01*
X56400Y297500D02*X60150Y301250D01*
X56400Y297500D02*X60150D01*
X61950D02*X64950Y300500D01*
Y302750D02*Y300500D01*
X64200Y303500D02*X64950Y302750D01*
X62700Y303500D02*X64200D01*
X61950Y302750D02*X62700Y303500D01*
X61950Y302750D02*Y301250D01*
X62700Y300500D01*
X64950D01*
X54700Y234400D02*Y229600D01*
Y234400D02*X58860Y236800D01*
X54700Y234400D02*X50540Y236800D01*
X53100Y234400D02*G75*G03X56300Y234400I1600J0D01*G01*
G75*G03X53100Y234400I-1600J0D01*G01*
X51500D02*G75*G03X57900Y234400I3200J0D01*G01*
G75*G03X51500Y234400I-3200J0D01*G01*
X15000Y316250D02*Y311450D01*
Y316250D02*X19160Y318650D01*
X15000Y316250D02*X10840Y318650D01*
X13400Y316250D02*G75*G03X16600Y316250I1600J0D01*G01*
G75*G03X13400Y316250I-1600J0D01*G01*
X11800D02*G75*G03X18200Y316250I3200J0D01*G01*
G75*G03X11800Y316250I-3200J0D01*G01*
X135000Y318500D02*Y317750D01*
X136500Y316250D01*
X138000Y317750D01*
Y318500D02*Y317750D01*
X136500Y316250D02*Y312500D01*
X139800Y315500D02*X142050D01*
X139800Y312500D02*X142800D01*
X139800Y318500D02*Y312500D01*
Y318500D02*X142800D01*
X147600D02*X148350Y317750D01*
X145350Y318500D02*X147600D01*
X144600Y317750D02*X145350Y318500D01*
X144600Y317750D02*Y316250D01*
X145350Y315500D01*
X147600D01*
X148350Y314750D01*
Y313250D01*
X147600Y312500D02*X148350Y313250D01*
X145350Y312500D02*X147600D01*
X144600Y313250D02*X145350Y312500D01*
X98750D02*X100250D01*
X99500Y318500D02*Y312500D01*
X98000Y317000D02*X99500Y318500D01*
X45000Y313250D02*X45750Y312500D01*
X45000Y317750D02*Y313250D01*
Y317750D02*X45750Y318500D01*
X47250D01*
X48000Y317750D01*
Y313250D01*
X47250Y312500D02*X48000Y313250D01*
X45750Y312500D02*X47250D01*
X45000Y314000D02*X48000Y317000D01*
X49800Y312500D02*X50550D01*
X53100D02*X54600D01*
X53850Y318500D02*Y312500D01*
X52350Y317000D02*X53850Y318500D01*
X56400Y317750D02*X57150Y318500D01*
X59400D01*
X60150Y317750D01*
Y316250D01*
X56400Y312500D02*X60150Y316250D01*
X56400Y312500D02*X60150D01*
X61950Y318500D02*X64950D01*
X61950D02*Y315500D01*
X62700Y316250D01*
X64200D01*
X64950Y315500D01*
Y313250D01*
X64200Y312500D02*X64950Y313250D01*
X62700Y312500D02*X64200D01*
X61950Y313250D02*X62700Y312500D01*
X29100Y236000D02*X32300D01*
X29100D02*Y232800D01*
X32300D01*
Y236000D02*Y232800D01*
X27500Y237600D02*X33900D01*
X27500D02*Y231200D01*
X33900D01*
Y237600D02*Y231200D01*
X41100Y217000D02*X44300D01*
X41100D02*Y213800D01*
X44300D01*
Y217000D02*Y213800D01*
X39500Y218600D02*X45900D01*
X39500D02*Y212200D01*
X45900D01*
Y218600D02*Y212200D01*
X13400Y332850D02*X16600D01*
X13400D02*Y329650D01*
X16600D01*
Y332850D02*Y329650D01*
X11800Y334450D02*X18200D01*
X11800D02*Y328050D01*
X18200D01*
Y334450D02*Y328050D01*
X135000Y333500D02*Y332750D01*
X136500Y331250D01*
X138000Y332750D01*
Y333500D02*Y332750D01*
X136500Y331250D02*Y327500D01*
X139800Y330500D02*X142050D01*
X139800Y327500D02*X142800D01*
X139800Y333500D02*Y327500D01*
Y333500D02*X142800D01*
X147600D02*X148350Y332750D01*
X145350Y333500D02*X147600D01*
X144600Y332750D02*X145350Y333500D01*
X144600Y332750D02*Y331250D01*
X145350Y330500D01*
X147600D01*
X148350Y329750D01*
Y328250D01*
X147600Y327500D02*X148350Y328250D01*
X145350Y327500D02*X147600D01*
X144600Y328250D02*X145350Y327500D01*
X98000Y332750D02*X98750Y333500D01*
X101000D01*
X101750Y332750D01*
Y331250D01*
X98000Y327500D02*X101750Y331250D01*
X98000Y327500D02*X101750D01*
X45000Y328250D02*X45750Y327500D01*
X45000Y332750D02*Y328250D01*
Y332750D02*X45750Y333500D01*
X47250D01*
X48000Y332750D01*
Y328250D01*
X47250Y327500D02*X48000Y328250D01*
X45750Y327500D02*X47250D01*
X45000Y329000D02*X48000Y332000D01*
X49800Y327500D02*X50550D01*
X53100D02*X54600D01*
X53850Y333500D02*Y327500D01*
X52350Y332000D02*X53850Y333500D01*
X57150Y327500D02*X58650D01*
X57900Y333500D02*Y327500D01*
X56400Y332000D02*X57900Y333500D01*
X60450Y328250D02*X61200Y327500D01*
X60450Y332750D02*Y328250D01*
Y332750D02*X61200Y333500D01*
X62700D01*
X63450Y332750D01*
Y328250D01*
X62700Y327500D02*X63450Y328250D01*
X61200Y327500D02*X62700D01*
X60450Y329000D02*X63450Y332000D01*
X335200Y221000D02*G75*G03X336800Y221000I800J0D01*G01*
G75*G03X335200Y221000I-800J0D01*G01*
X333600D02*G75*G03X338400Y221000I2400J0D01*G01*
G75*G03X333600Y221000I-2400J0D01*G01*
X322700D02*G75*G03X324300Y221000I800J0D01*G01*
G75*G03X322700Y221000I-800J0D01*G01*
X321100D02*G75*G03X325900Y221000I2400J0D01*G01*
G75*G03X321100Y221000I-2400J0D01*G01*
X322700Y241000D02*G75*G03X324300Y241000I800J0D01*G01*
G75*G03X322700Y241000I-800J0D01*G01*
X321100D02*G75*G03X325900Y241000I2400J0D01*G01*
G75*G03X321100Y241000I-2400J0D01*G01*
X335200D02*G75*G03X336800Y241000I800J0D01*G01*
G75*G03X335200Y241000I-800J0D01*G01*
X333600D02*G75*G03X338400Y241000I2400J0D01*G01*
G75*G03X333600Y241000I-2400J0D01*G01*
X14200Y346250D02*G75*G03X15800Y346250I800J0D01*G01*
G75*G03X14200Y346250I-800J0D01*G01*
X12600D02*G75*G03X17400Y346250I2400J0D01*G01*
G75*G03X12600Y346250I-2400J0D01*G01*
X140000Y348500D02*Y342500D01*
Y348500D02*Y347750D01*
X143750Y344000D01*
Y348500D02*Y342500D01*
X145550Y347750D02*Y343250D01*
Y347750D02*X146300Y348500D01*
X147800D01*
X148550Y347750D01*
Y343250D01*
X147800Y342500D02*X148550Y343250D01*
X146300Y342500D02*X147800D01*
X145550Y343250D02*X146300Y342500D01*
X98000Y345500D02*X101000Y348500D01*
X98000Y345500D02*X101750D01*
X101000Y348500D02*Y342500D01*
X45000Y343250D02*X45750Y342500D01*
X45000Y347750D02*Y343250D01*
Y347750D02*X45750Y348500D01*
X47250D01*
X48000Y347750D01*
Y343250D01*
X47250Y342500D02*X48000Y343250D01*
X45750Y342500D02*X47250D01*
X45000Y344000D02*X48000Y347000D01*
X49800Y342500D02*X50550D01*
X52350Y343250D02*X53100Y342500D01*
X52350Y347750D02*Y343250D01*
Y347750D02*X53100Y348500D01*
X54600D01*
X55350Y347750D01*
Y343250D01*
X54600Y342500D02*X55350Y343250D01*
X53100Y342500D02*X54600D01*
X52350Y344000D02*X55350Y347000D01*
X57150Y342500D02*X60150Y345500D01*
Y347750D02*Y345500D01*
X59400Y348500D02*X60150Y347750D01*
X57900Y348500D02*X59400D01*
X57150Y347750D02*X57900Y348500D01*
X57150Y347750D02*Y346250D01*
X57900Y345500D01*
X60150D01*
X61950Y347750D02*X62700Y348500D01*
X64200D01*
X64950Y347750D01*
Y343250D01*
X64200Y342500D02*X64950Y343250D01*
X62700Y342500D02*X64200D01*
X61950Y343250D02*X62700Y342500D01*
Y345500D02*X64950D01*
X323136Y92700D02*X327936Y87900D01*
X323136D02*X327936Y92700D01*
X323936Y91900D02*X327136D01*
X323936D02*Y88700D01*
X327136D01*
Y91900D02*Y88700D01*
X12600Y363650D02*X17400Y358850D01*
X12600D02*X17400Y363650D01*
X13400Y362850D02*X16600D01*
X13400D02*Y359650D01*
X16600D01*
Y362850D02*Y359650D01*
X135000Y363500D02*Y362750D01*
X136500Y361250D01*
X138000Y362750D01*
Y363500D02*Y362750D01*
X136500Y361250D02*Y357500D01*
X139800Y360500D02*X142050D01*
X139800Y357500D02*X142800D01*
X139800Y363500D02*Y357500D01*
Y363500D02*X142800D01*
X147600D02*X148350Y362750D01*
X145350Y363500D02*X147600D01*
X144600Y362750D02*X145350Y363500D01*
X144600Y362750D02*Y361250D01*
X145350Y360500D01*
X147600D01*
X148350Y359750D01*
Y358250D01*
X147600Y357500D02*X148350Y358250D01*
X145350Y357500D02*X147600D01*
X144600Y358250D02*X145350Y357500D01*
X98750D02*X100250D01*
X99500Y363500D02*Y357500D01*
X98000Y362000D02*X99500Y363500D01*
X45000Y358250D02*X45750Y357500D01*
X45000Y362750D02*Y358250D01*
Y362750D02*X45750Y363500D01*
X47250D01*
X48000Y362750D01*
Y358250D01*
X47250Y357500D02*X48000Y358250D01*
X45750Y357500D02*X47250D01*
X45000Y359000D02*X48000Y362000D01*
X49800Y357500D02*X50550D01*
X52350Y358250D02*X53100Y357500D01*
X52350Y362750D02*Y358250D01*
Y362750D02*X53100Y363500D01*
X54600D01*
X55350Y362750D01*
Y358250D01*
X54600Y357500D02*X55350Y358250D01*
X53100Y357500D02*X54600D01*
X52350Y359000D02*X55350Y362000D01*
X57150Y363500D02*X60150D01*
X57150D02*Y360500D01*
X57900Y361250D01*
X59400D01*
X60150Y360500D01*
Y358250D01*
X59400Y357500D02*X60150Y358250D01*
X57900Y357500D02*X59400D01*
X57150Y358250D02*X57900Y357500D01*
X61950Y360500D02*X64950Y363500D01*
X61950Y360500D02*X65700D01*
X64950Y363500D02*Y357500D01*
X22000Y156200D02*Y149800D01*
X18800Y153000D02*X25200D01*
X20400Y154600D02*X23600D01*
X20400D02*Y151400D01*
X23600D01*
Y154600D02*Y151400D01*
X22000Y136200D02*Y129800D01*
X18800Y133000D02*X25200D01*
X20400Y134600D02*X23600D01*
X20400D02*Y131400D01*
X23600D01*
Y134600D02*Y131400D01*
X22000Y196200D02*Y189800D01*
X18800Y193000D02*X25200D01*
X20400Y194600D02*X23600D01*
X20400D02*Y191400D01*
X23600D01*
Y194600D02*Y191400D01*
X22000Y176200D02*Y169800D01*
X18800Y173000D02*X25200D01*
X20400Y174600D02*X23600D01*
X20400D02*Y171400D01*
X23600D01*
Y174600D02*Y171400D01*
X15000Y379450D02*Y373050D01*
X11800Y376250D02*X18200D01*
X13400Y377850D02*X16600D01*
X13400D02*Y374650D01*
X16600D01*
Y377850D02*Y374650D01*
X135000Y378500D02*Y377750D01*
X136500Y376250D01*
X138000Y377750D01*
Y378500D02*Y377750D01*
X136500Y376250D02*Y372500D01*
X139800Y375500D02*X142050D01*
X139800Y372500D02*X142800D01*
X139800Y378500D02*Y372500D01*
Y378500D02*X142800D01*
X147600D02*X148350Y377750D01*
X145350Y378500D02*X147600D01*
X144600Y377750D02*X145350Y378500D01*
X144600Y377750D02*Y376250D01*
X145350Y375500D01*
X147600D01*
X148350Y374750D01*
Y373250D01*
X147600Y372500D02*X148350Y373250D01*
X145350Y372500D02*X147600D01*
X144600Y373250D02*X145350Y372500D01*
X98000Y375500D02*X101000Y378500D01*
X98000Y375500D02*X101750D01*
X101000Y378500D02*Y372500D01*
X45000Y373250D02*X45750Y372500D01*
X45000Y377750D02*Y373250D01*
Y377750D02*X45750Y378500D01*
X47250D01*
X48000Y377750D01*
Y373250D01*
X47250Y372500D02*X48000Y373250D01*
X45750Y372500D02*X47250D01*
X45000Y374000D02*X48000Y377000D01*
X49800Y372500D02*X50550D01*
X52350Y373250D02*X53100Y372500D01*
X52350Y377750D02*Y373250D01*
Y377750D02*X53100Y378500D01*
X54600D01*
X55350Y377750D01*
Y373250D01*
X54600Y372500D02*X55350Y373250D01*
X53100Y372500D02*X54600D01*
X52350Y374000D02*X55350Y377000D01*
X57150Y375500D02*X60150Y378500D01*
X57150Y375500D02*X60900D01*
X60150Y378500D02*Y372500D01*
X62700Y373250D02*X63450Y372500D01*
X62700Y374750D02*Y373250D01*
Y374750D02*X63450Y375500D01*
X64950D01*
X65700Y374750D01*
Y373250D01*
X64950Y372500D02*X65700Y373250D01*
X63450Y372500D02*X64950D01*
X62700Y376250D02*X63450Y375500D01*
X62700Y377750D02*Y376250D01*
Y377750D02*X63450Y378500D01*
X64950D01*
X65700Y377750D01*
Y376250D01*
X64950Y375500D02*X65700Y376250D01*
X23673Y110445D02*Y107245D01*
Y110445D02*X26446Y112045D01*
X23673Y110445D02*X20900Y112045D01*
X22073Y110445D02*G75*G03X25273Y110445I1600J0D01*G01*
G75*G03X22073Y110445I-1600J0D01*G01*
X23673Y96665D02*Y93465D01*
Y96665D02*X26446Y98265D01*
X23673Y96665D02*X20900Y98265D01*
X22073Y96665D02*G75*G03X25273Y96665I1600J0D01*G01*
G75*G03X22073Y96665I-1600J0D01*G01*
X23673Y82886D02*Y79686D01*
Y82886D02*X26446Y84486D01*
X23673Y82886D02*X20900Y84486D01*
X22073Y82886D02*G75*G03X25273Y82886I1600J0D01*G01*
G75*G03X22073Y82886I-1600J0D01*G01*
X15000Y391250D02*Y388050D01*
Y391250D02*X17773Y392850D01*
X15000Y391250D02*X12227Y392850D01*
X13400Y391250D02*G75*G03X16600Y391250I1600J0D01*G01*
G75*G03X13400Y391250I-1600J0D01*G01*
X135000Y393500D02*Y392750D01*
X136500Y391250D01*
X138000Y392750D01*
Y393500D02*Y392750D01*
X136500Y391250D02*Y387500D01*
X139800Y390500D02*X142050D01*
X139800Y387500D02*X142800D01*
X139800Y393500D02*Y387500D01*
Y393500D02*X142800D01*
X147600D02*X148350Y392750D01*
X145350Y393500D02*X147600D01*
X144600Y392750D02*X145350Y393500D01*
X144600Y392750D02*Y391250D01*
X145350Y390500D01*
X147600D01*
X148350Y389750D01*
Y388250D01*
X147600Y387500D02*X148350Y388250D01*
X145350Y387500D02*X147600D01*
X144600Y388250D02*X145350Y387500D01*
X98000Y392750D02*X98750Y393500D01*
X100250D01*
X101000Y392750D01*
Y388250D01*
X100250Y387500D02*X101000Y388250D01*
X98750Y387500D02*X100250D01*
X98000Y388250D02*X98750Y387500D01*
Y390500D02*X101000D01*
X45000Y388250D02*X45750Y387500D01*
X45000Y392750D02*Y388250D01*
Y392750D02*X45750Y393500D01*
X47250D01*
X48000Y392750D01*
Y388250D01*
X47250Y387500D02*X48000Y388250D01*
X45750Y387500D02*X47250D01*
X45000Y389000D02*X48000Y392000D01*
X49800Y387500D02*X50550D01*
X52350Y388250D02*X53100Y387500D01*
X52350Y392750D02*Y388250D01*
Y392750D02*X53100Y393500D01*
X54600D01*
X55350Y392750D01*
Y388250D01*
X54600Y387500D02*X55350Y388250D01*
X53100Y387500D02*X54600D01*
X52350Y389000D02*X55350Y392000D01*
X57150Y390500D02*X60150Y393500D01*
X57150Y390500D02*X60900D01*
X60150Y393500D02*Y387500D01*
X62700D02*X66450Y391250D01*
Y393500D02*Y391250D01*
X62700Y393500D02*X66450D01*
X353464Y91900D02*X356664D01*
X353464D02*Y88700D01*
X356664D01*
Y91900D02*Y88700D01*
X13400Y407850D02*X16600D01*
X13400D02*Y404650D01*
X16600D01*
Y407850D02*Y404650D01*
X135000Y408500D02*Y407750D01*
X136500Y406250D01*
X138000Y407750D01*
Y408500D02*Y407750D01*
X136500Y406250D02*Y402500D01*
X139800Y405500D02*X142050D01*
X139800Y402500D02*X142800D01*
X139800Y408500D02*Y402500D01*
Y408500D02*X142800D01*
X147600D02*X148350Y407750D01*
X145350Y408500D02*X147600D01*
X144600Y407750D02*X145350Y408500D01*
X144600Y407750D02*Y406250D01*
X145350Y405500D01*
X147600D01*
X148350Y404750D01*
Y403250D01*
X147600Y402500D02*X148350Y403250D01*
X145350Y402500D02*X147600D01*
X144600Y403250D02*X145350Y402500D01*
X98750D02*X100250D01*
X99500Y408500D02*Y402500D01*
X98000Y407000D02*X99500Y408500D01*
X45000Y403250D02*X45750Y402500D01*
X45000Y407750D02*Y403250D01*
Y407750D02*X45750Y408500D01*
X47250D01*
X48000Y407750D01*
Y403250D01*
X47250Y402500D02*X48000Y403250D01*
X45750Y402500D02*X47250D01*
X45000Y404000D02*X48000Y407000D01*
X49800Y402500D02*X50550D01*
X52350Y403250D02*X53100Y402500D01*
X52350Y407750D02*Y403250D01*
Y407750D02*X53100Y408500D01*
X54600D01*
X55350Y407750D01*
Y403250D01*
X54600Y402500D02*X55350Y403250D01*
X53100Y402500D02*X54600D01*
X52350Y404000D02*X55350Y407000D01*
X57150Y405500D02*X60150Y408500D01*
X57150Y405500D02*X60900D01*
X60150Y408500D02*Y402500D01*
X62700Y405500D02*X65700Y408500D01*
X62700Y405500D02*X66450D01*
X65700Y408500D02*Y402500D01*
X111995Y10142D02*G75*G03X113595Y10142I800J0D01*G01*
G75*G03X111995Y10142I-800J0D01*G01*
X86405D02*G75*G03X88005Y10142I800J0D01*G01*
G75*G03X86405Y10142I-800J0D01*G01*
X111995Y27858D02*G75*G03X113595Y27858I800J0D01*G01*
G75*G03X111995Y27858I-800J0D01*G01*
X86405D02*G75*G03X88005Y27858I800J0D01*G01*
G75*G03X86405Y27858I-800J0D01*G01*
X178695Y10142D02*G75*G03X180295Y10142I800J0D01*G01*
G75*G03X178695Y10142I-800J0D01*G01*
X153105D02*G75*G03X154705Y10142I800J0D01*G01*
G75*G03X153105Y10142I-800J0D01*G01*
X178695Y27858D02*G75*G03X180295Y27858I800J0D01*G01*
G75*G03X178695Y27858I-800J0D01*G01*
X153105D02*G75*G03X154705Y27858I800J0D01*G01*
G75*G03X153105Y27858I-800J0D01*G01*
X245295Y10142D02*G75*G03X246895Y10142I800J0D01*G01*
G75*G03X245295Y10142I-800J0D01*G01*
X219705D02*G75*G03X221305Y10142I800J0D01*G01*
G75*G03X219705Y10142I-800J0D01*G01*
X245295Y27858D02*G75*G03X246895Y27858I800J0D01*G01*
G75*G03X245295Y27858I-800J0D01*G01*
X219705D02*G75*G03X221305Y27858I800J0D01*G01*
G75*G03X219705Y27858I-800J0D01*G01*
X311995Y10142D02*G75*G03X313595Y10142I800J0D01*G01*
G75*G03X311995Y10142I-800J0D01*G01*
X286405D02*G75*G03X288005Y10142I800J0D01*G01*
G75*G03X286405Y10142I-800J0D01*G01*
X311995Y27858D02*G75*G03X313595Y27858I800J0D01*G01*
G75*G03X311995Y27858I-800J0D01*G01*
X286405D02*G75*G03X288005Y27858I800J0D01*G01*
G75*G03X286405Y27858I-800J0D01*G01*
X334800Y232200D02*X337200Y229800D01*
X334800D02*X337200Y232200D01*
X314800Y228200D02*X317200Y225800D01*
X314800D02*X317200Y228200D01*
X314800Y236200D02*X317200Y233800D01*
X314800D02*X317200Y236200D01*
X14200Y421250D02*G75*G03X15800Y421250I800J0D01*G01*
G75*G03X14200Y421250I-800J0D01*G01*
X135000Y423500D02*Y422750D01*
X136500Y421250D01*
X138000Y422750D01*
Y423500D02*Y422750D01*
X136500Y421250D02*Y417500D01*
X139800Y420500D02*X142050D01*
X139800Y417500D02*X142800D01*
X139800Y423500D02*Y417500D01*
Y423500D02*X142800D01*
X147600D02*X148350Y422750D01*
X145350Y423500D02*X147600D01*
X144600Y422750D02*X145350Y423500D01*
X144600Y422750D02*Y421250D01*
X145350Y420500D01*
X147600D01*
X148350Y419750D01*
Y418250D01*
X147600Y417500D02*X148350Y418250D01*
X145350Y417500D02*X147600D01*
X144600Y418250D02*X145350Y417500D01*
X98750D02*X100250D01*
X99500Y423500D02*Y417500D01*
X98000Y422000D02*X99500Y423500D01*
X104300D02*X105050Y422750D01*
X102800Y423500D02*X104300D01*
X102050Y422750D02*X102800Y423500D01*
X102050Y422750D02*Y418250D01*
X102800Y417500D01*
X104300Y420500D02*X105050Y419750D01*
X102050Y420500D02*X104300D01*
X102800Y417500D02*X104300D01*
X105050Y418250D01*
Y419750D02*Y418250D01*
X13800Y437450D02*X16200Y435050D01*
X13800D02*X16200Y437450D01*
X140000Y438500D02*Y432500D01*
Y438500D02*Y437750D01*
X143750Y434000D01*
Y438500D02*Y432500D01*
X145550Y437750D02*Y433250D01*
Y437750D02*X146300Y438500D01*
X147800D01*
X148550Y437750D01*
Y433250D01*
X147800Y432500D02*X148550Y433250D01*
X146300Y432500D02*X147800D01*
X145550Y433250D02*X146300Y432500D01*
X98000Y437750D02*X98750Y438500D01*
X100250D01*
X101000Y437750D01*
Y433250D01*
X100250Y432500D02*X101000Y433250D01*
X98750Y432500D02*X100250D01*
X98000Y433250D02*X98750Y432500D01*
Y435500D02*X101000D01*
X45000Y433250D02*X45750Y432500D01*
X45000Y437750D02*Y433250D01*
Y437750D02*X45750Y438500D01*
X47250D01*
X48000Y437750D01*
Y433250D01*
X47250Y432500D02*X48000Y433250D01*
X45750Y432500D02*X47250D01*
X45000Y434000D02*X48000Y437000D01*
X49800Y432500D02*X50550D01*
X52350Y433250D02*X53100Y432500D01*
X52350Y437750D02*Y433250D01*
Y437750D02*X53100Y438500D01*
X54600D01*
X55350Y437750D01*
Y433250D01*
X54600Y432500D02*X55350Y433250D01*
X53100Y432500D02*X54600D01*
X52350Y434000D02*X55350Y437000D01*
X57150Y437750D02*X57900Y438500D01*
X59400D01*
X60150Y437750D01*
Y433250D01*
X59400Y432500D02*X60150Y433250D01*
X57900Y432500D02*X59400D01*
X57150Y433250D02*X57900Y432500D01*
Y435500D02*X60150D01*
X61950Y432500D02*X64950Y435500D01*
Y437750D02*Y435500D01*
X64200Y438500D02*X64950Y437750D01*
X62700Y438500D02*X64200D01*
X61950Y437750D02*X62700Y438500D01*
X61950Y437750D02*Y436250D01*
X62700Y435500D01*
X64950D01*
X45000Y418250D02*X45750Y417500D01*
X45000Y422750D02*Y418250D01*
Y422750D02*X45750Y423500D01*
X47250D01*
X48000Y422750D01*
Y418250D01*
X47250Y417500D02*X48000Y418250D01*
X45750Y417500D02*X47250D01*
X45000Y419000D02*X48000Y422000D01*
X49800Y417500D02*X50550D01*
X52350Y418250D02*X53100Y417500D01*
X52350Y422750D02*Y418250D01*
Y422750D02*X53100Y423500D01*
X54600D01*
X55350Y422750D01*
Y418250D01*
X54600Y417500D02*X55350Y418250D01*
X53100Y417500D02*X54600D01*
X52350Y419000D02*X55350Y422000D01*
X57150Y422750D02*X57900Y423500D01*
X59400D01*
X60150Y422750D01*
Y418250D01*
X59400Y417500D02*X60150Y418250D01*
X57900Y417500D02*X59400D01*
X57150Y418250D02*X57900Y417500D01*
Y420500D02*X60150D01*
X61950Y417500D02*X64950Y420500D01*
Y422750D02*Y420500D01*
X64200Y423500D02*X64950Y422750D01*
X62700Y423500D02*X64200D01*
X61950Y422750D02*X62700Y423500D01*
X61950Y422750D02*Y421250D01*
X62700Y420500D01*
X64950D01*
X353500Y274600D02*Y271400D01*
X351900Y273000D02*X355100D01*
X343500Y274600D02*Y271400D01*
X341900Y273000D02*X345100D01*
X333500Y274600D02*Y271400D01*
X331900Y273000D02*X335100D01*
X323500Y274600D02*Y271400D01*
X321900Y273000D02*X325100D01*
X313500Y274600D02*Y271400D01*
X311900Y273000D02*X315100D01*
X303500Y274600D02*Y271400D01*
X301900Y273000D02*X305100D01*
X293500Y274600D02*Y271400D01*
X291900Y273000D02*X295100D01*
X283500Y274600D02*Y271400D01*
X281900Y273000D02*X285100D01*
X273500Y274600D02*Y271400D01*
X271900Y273000D02*X275100D01*
X263500Y274600D02*Y271400D01*
X261900Y273000D02*X265100D01*
X253500Y274600D02*Y271400D01*
X251900Y273000D02*X255100D01*
X243500Y274600D02*Y271400D01*
X241900Y273000D02*X245100D01*
X233500Y274600D02*Y271400D01*
X231900Y273000D02*X235100D01*
X223500Y274600D02*Y271400D01*
X221900Y273000D02*X225100D01*
X213500Y274600D02*Y271400D01*
X211900Y273000D02*X215100D01*
X203500Y274600D02*Y271400D01*
X201900Y273000D02*X205100D01*
X15000Y452850D02*Y449650D01*
X13400Y451250D02*X16600D01*
X135000Y453500D02*Y452750D01*
X136500Y451250D01*
X138000Y452750D01*
Y453500D02*Y452750D01*
X136500Y451250D02*Y447500D01*
X139800Y450500D02*X142050D01*
X139800Y447500D02*X142800D01*
X139800Y453500D02*Y447500D01*
Y453500D02*X142800D01*
X147600D02*X148350Y452750D01*
X145350Y453500D02*X147600D01*
X144600Y452750D02*X145350Y453500D01*
X144600Y452750D02*Y451250D01*
X145350Y450500D01*
X147600D01*
X148350Y449750D01*
Y448250D01*
X147600Y447500D02*X148350Y448250D01*
X145350Y447500D02*X147600D01*
X144600Y448250D02*X145350Y447500D01*
X98750D02*X100250D01*
X99500Y453500D02*Y447500D01*
X98000Y452000D02*X99500Y453500D01*
X104300D02*X105050Y452750D01*
X102800Y453500D02*X104300D01*
X102050Y452750D02*X102800Y453500D01*
X102050Y452750D02*Y448250D01*
X102800Y447500D01*
X104300Y450500D02*X105050Y449750D01*
X102050Y450500D02*X104300D01*
X102800Y447500D02*X104300D01*
X105050Y448250D01*
Y449750D02*Y448250D01*
X45000D02*X45750Y447500D01*
X45000Y452750D02*Y448250D01*
Y452750D02*X45750Y453500D01*
X47250D01*
X48000Y452750D01*
Y448250D01*
X47250Y447500D02*X48000Y448250D01*
X45750Y447500D02*X47250D01*
X45000Y449000D02*X48000Y452000D01*
X49800Y447500D02*X50550D01*
X52350Y448250D02*X53100Y447500D01*
X52350Y452750D02*Y448250D01*
Y452750D02*X53100Y453500D01*
X54600D01*
X55350Y452750D01*
Y448250D01*
X54600Y447500D02*X55350Y448250D01*
X53100Y447500D02*X54600D01*
X52350Y449000D02*X55350Y452000D01*
X57150Y452750D02*X57900Y453500D01*
X59400D01*
X60150Y452750D01*
Y448250D01*
X59400Y447500D02*X60150Y448250D01*
X57900Y447500D02*X59400D01*
X57150Y448250D02*X57900Y447500D01*
Y450500D02*X60150D01*
X61950Y448250D02*X62700Y447500D01*
X61950Y449750D02*Y448250D01*
Y449750D02*X62700Y450500D01*
X64200D01*
X64950Y449750D01*
Y448250D01*
X64200Y447500D02*X64950Y448250D01*
X62700Y447500D02*X64200D01*
X61950Y451250D02*X62700Y450500D01*
X61950Y452750D02*Y451250D01*
Y452750D02*X62700Y453500D01*
X64200D01*
X64950Y452750D01*
Y451250D01*
X64200Y450500D02*X64950Y451250D01*
X45500Y155500D02*Y153900D01*
Y155500D02*X46887Y156300D01*
X45500Y155500D02*X44113Y156300D01*
X50000Y155500D02*Y153900D01*
Y155500D02*X51387Y156300D01*
X50000Y155500D02*X48613Y156300D01*
X72000Y143000D02*Y141400D01*
Y143000D02*X73387Y143800D01*
X72000Y143000D02*X70613Y143800D01*
X72000Y137500D02*Y135900D01*
Y137500D02*X73387Y138300D01*
X72000Y137500D02*X70613Y138300D01*
X58500Y186500D02*Y184900D01*
Y186500D02*X59887Y187300D01*
X58500Y186500D02*X57113Y187300D01*
X55000Y197500D02*Y195900D01*
Y197500D02*X56387Y198300D01*
X55000Y197500D02*X53613Y198300D01*
X55000Y193500D02*Y191900D01*
Y193500D02*X56387Y194300D01*
X55000Y193500D02*X53613Y194300D01*
X55000Y189500D02*Y187900D01*
Y189500D02*X56387Y190300D01*
X55000Y189500D02*X53613Y190300D01*
X62500Y186500D02*Y184900D01*
Y186500D02*X63887Y187300D01*
X62500Y186500D02*X61113Y187300D01*
X66000Y186500D02*Y184900D01*
Y186500D02*X67387Y187300D01*
X66000Y186500D02*X64613Y187300D01*
X58500Y200500D02*Y198900D01*
Y200500D02*X59887Y201300D01*
X58500Y200500D02*X57113Y201300D01*
X62500Y200500D02*Y198900D01*
Y200500D02*X63887Y201300D01*
X62500Y200500D02*X61113Y201300D01*
X66000Y200500D02*Y198900D01*
Y200500D02*X67387Y201300D01*
X66000Y200500D02*X64613Y201300D01*
X63500Y176500D02*Y174900D01*
Y176500D02*X64887Y177300D01*
X63500Y176500D02*X62113Y177300D01*
X60500Y176500D02*Y174900D01*
Y176500D02*X61887Y177300D01*
X60500Y176500D02*X59113Y177300D01*
X45000Y60000D02*Y58400D01*
Y60000D02*X46387Y60800D01*
X45000Y60000D02*X43613Y60800D01*
X330500Y199000D02*Y197400D01*
Y199000D02*X331887Y199800D01*
X330500Y199000D02*X329113Y199800D01*
X340000Y199000D02*Y197400D01*
Y199000D02*X341387Y199800D01*
X340000Y199000D02*X338613Y199800D01*
X330500Y135000D02*Y133400D01*
Y135000D02*X331887Y135800D01*
X330500Y135000D02*X329113Y135800D01*
X372500Y135000D02*Y133400D01*
Y135000D02*X373887Y135800D01*
X372500Y135000D02*X371113Y135800D01*
X376500Y135000D02*Y133400D01*
Y135000D02*X377887Y135800D01*
X376500Y135000D02*X375113Y135800D01*
X379100Y212600D02*Y211000D01*
Y212600D02*X380487Y213400D01*
X379100Y212600D02*X377713Y213400D01*
X323600Y231000D02*Y229400D01*
Y231000D02*X324987Y231800D01*
X323600Y231000D02*X322213Y231800D01*
X367700Y232300D02*Y230700D01*
Y232300D02*X369087Y233100D01*
X367700Y232300D02*X366313Y233100D01*
X379000Y222500D02*Y220900D01*
Y222500D02*X380387Y223300D01*
X379000Y222500D02*X377613Y223300D01*
X379000Y226000D02*Y224400D01*
Y226000D02*X380387Y226800D01*
X379000Y226000D02*X377613Y226800D01*
X328600Y231000D02*Y229400D01*
Y231000D02*X329987Y231800D01*
X328600Y231000D02*X327213Y231800D01*
X343500Y227500D02*Y225900D01*
Y227500D02*X344887Y228300D01*
X343500Y227500D02*X342113Y228300D01*
X343500Y235000D02*Y233400D01*
Y235000D02*X344887Y235800D01*
X343500Y235000D02*X342113Y235800D01*
X355000Y134000D02*Y132400D01*
Y134000D02*X356387Y134800D01*
X355000Y134000D02*X353613Y134800D01*
X355000Y127500D02*Y125900D01*
Y127500D02*X356387Y128300D01*
X355000Y127500D02*X353613Y128300D01*
X342000Y211000D02*Y209400D01*
Y211000D02*X343387Y211800D01*
X342000Y211000D02*X340613Y211800D01*
X200000Y85000D02*Y83400D01*
Y85000D02*X201387Y85800D01*
X200000Y85000D02*X198613Y85800D01*
X200000Y81200D02*Y79600D01*
Y81200D02*X201387Y82000D01*
X200000Y81200D02*X198613Y82000D01*
X200000Y89000D02*Y87400D01*
Y89000D02*X201387Y89800D01*
X200000Y89000D02*X198613Y89800D01*
X204100Y77000D02*Y75400D01*
Y77000D02*X205487Y77800D01*
X204100Y77000D02*X202713Y77800D01*
X208000Y88500D02*Y86900D01*
Y88500D02*X209387Y89300D01*
X208000Y88500D02*X206613Y89300D01*
X195900Y77000D02*Y75400D01*
Y77000D02*X197287Y77800D01*
X195900Y77000D02*X194513Y77800D01*
X187200Y77000D02*Y75400D01*
Y77000D02*X188587Y77800D01*
X187200Y77000D02*X185813Y77800D01*
X213000Y77000D02*Y75400D01*
Y77000D02*X214387Y77800D01*
X213000Y77000D02*X211613Y77800D01*
X194000Y263500D02*Y261900D01*
Y263500D02*X195387Y264300D01*
X194000Y263500D02*X192613Y264300D01*
X194000Y260000D02*Y258400D01*
Y260000D02*X195387Y260800D01*
X194000Y260000D02*X192613Y260800D01*
X85100Y257400D02*Y255800D01*
Y257400D02*X86487Y258200D01*
X85100Y257400D02*X83713Y258200D01*
X92400Y257400D02*Y255800D01*
Y257400D02*X93787Y258200D01*
X92400Y257400D02*X91013Y258200D01*
X88600Y257400D02*Y255800D01*
Y257400D02*X89987Y258200D01*
X88600Y257400D02*X87213Y258200D01*
X84500Y213500D02*Y211900D01*
Y213500D02*X85887Y214300D01*
X84500Y213500D02*X83113Y214300D01*
X89000Y213500D02*Y211900D01*
Y213500D02*X90387Y214300D01*
X89000Y213500D02*X87613Y214300D01*
X80000Y213500D02*Y211900D01*
Y213500D02*X81387Y214300D01*
X80000Y213500D02*X78613Y214300D01*
X84500Y227000D02*Y225400D01*
Y227000D02*X85887Y227800D01*
X84500Y227000D02*X83113Y227800D01*
X89000Y227000D02*Y225400D01*
Y227000D02*X90387Y227800D01*
X89000Y227000D02*X87613Y227800D01*
X80000Y227000D02*Y225400D01*
Y227000D02*X81387Y227800D01*
X80000Y227000D02*X78613Y227800D01*
X85000Y247500D02*Y245900D01*
Y247500D02*X86387Y248300D01*
X85000Y247500D02*X83613Y248300D01*
X80500Y247500D02*Y245900D01*
Y247500D02*X81887Y248300D01*
X80500Y247500D02*X79113Y248300D01*
X81000Y242500D02*Y240900D01*
Y242500D02*X82387Y243300D01*
X81000Y242500D02*X79613Y243300D01*
X85000Y242500D02*Y240900D01*
Y242500D02*X86387Y243300D01*
X85000Y242500D02*X83613Y243300D01*
X225700Y161800D02*Y160200D01*
Y161800D02*X227087Y162600D01*
X225700Y161800D02*X224313Y162600D01*
X252400Y191500D02*Y189900D01*
Y191500D02*X253787Y192300D01*
X252400Y191500D02*X251013Y192300D01*
X222500Y221200D02*Y219600D01*
Y221200D02*X223887Y222000D01*
X222500Y221200D02*X221113Y222000D01*
X100900Y161300D02*Y159700D01*
Y161300D02*X102287Y162100D01*
X100900Y161300D02*X99513Y162100D01*
X100900Y169200D02*Y167600D01*
Y169200D02*X102287Y170000D01*
X100900Y169200D02*X99513Y170000D01*
X117200Y211400D02*Y209800D01*
Y211400D02*X118587Y212200D01*
X117200Y211400D02*X115813Y212200D01*
X163000Y236000D02*Y234400D01*
Y236000D02*X164387Y236800D01*
X163000Y236000D02*X161613Y236800D01*
X172000Y236000D02*Y234400D01*
Y236000D02*X173387Y236800D01*
X172000Y236000D02*X170613Y236800D01*
X141500Y202000D02*Y200400D01*
Y202000D02*X142887Y202800D01*
X141500Y202000D02*X140113Y202800D01*
X141500Y219500D02*Y217900D01*
Y219500D02*X142887Y220300D01*
X141500Y219500D02*X140113Y220300D01*
X137000Y219500D02*Y217900D01*
Y219500D02*X138387Y220300D01*
X137000Y219500D02*X135613Y220300D01*
X156000Y202000D02*Y200400D01*
Y202000D02*X157387Y202800D01*
X156000Y202000D02*X154613Y202800D01*
X146000Y219500D02*Y217900D01*
Y219500D02*X147387Y220300D01*
X146000Y219500D02*X144613Y220300D01*
X160500Y205000D02*Y203400D01*
Y205000D02*X161887Y205800D01*
X160500Y205000D02*X159113Y205800D01*
X191500Y225000D02*Y223400D01*
Y225000D02*X192887Y225800D01*
X191500Y225000D02*X190113Y225800D01*
X202500Y225000D02*Y223400D01*
Y225000D02*X203887Y225800D01*
X202500Y225000D02*X201113Y225800D01*
X203000Y191500D02*Y189900D01*
Y191500D02*X204387Y192300D01*
X203000Y191500D02*X201613Y192300D01*
X192500Y191500D02*Y189900D01*
Y191500D02*X193887Y192300D01*
X192500Y191500D02*X191113Y192300D01*
X225700Y171900D02*Y170300D01*
Y171900D02*X227087Y172700D01*
X225700Y171900D02*X224313Y172700D01*
X222500Y211100D02*Y209500D01*
Y211100D02*X223887Y211900D01*
X222500Y211100D02*X221113Y211900D01*
X242000Y191500D02*Y189900D01*
Y191500D02*X243387Y192300D01*
X242000Y191500D02*X240613Y192300D01*
X176000Y191500D02*Y189900D01*
Y191500D02*X177387Y192300D01*
X176000Y191500D02*X174613Y192300D01*
X176000Y182500D02*Y180900D01*
Y182500D02*X177387Y183300D01*
X176000Y182500D02*X174613Y183300D01*
X140000Y198000D02*Y196400D01*
Y198000D02*X141387Y198800D01*
X140000Y198000D02*X138613Y198800D01*
X134469Y211469D02*Y209869D01*
Y211469D02*X135856Y212269D01*
X134469Y211469D02*X133082Y212269D01*
X138000Y195000D02*Y193400D01*
Y195000D02*X139387Y195800D01*
X138000Y195000D02*X136613Y195800D01*
X217525Y109975D02*Y108375D01*
Y109975D02*X218912Y110775D01*
X217525Y109975D02*X216139Y110775D01*
X215000Y98500D02*Y96900D01*
Y98500D02*X216387Y99300D01*
X215000Y98500D02*X213613Y99300D01*
X181500Y174000D02*Y172400D01*
Y174000D02*X182887Y174800D01*
X181500Y174000D02*X180113Y174800D01*
X203500Y174000D02*Y172400D01*
Y174000D02*X204887Y174800D01*
X203500Y174000D02*X202113Y174800D01*
X181500Y166000D02*Y164400D01*
Y166000D02*X182887Y166800D01*
X181500Y166000D02*X180113Y166800D01*
X200500Y171500D02*Y169900D01*
Y171500D02*X201887Y172300D01*
X200500Y171500D02*X199113Y172300D01*
X188910Y104678D02*Y103078D01*
Y104678D02*X190297Y105478D01*
X188910Y104678D02*X187523Y105478D01*
X190500Y158000D02*Y156400D01*
Y158000D02*X191887Y158800D01*
X190500Y158000D02*X189113Y158800D01*
X188000Y155000D02*Y153400D01*
Y155000D02*X189387Y155800D01*
X188000Y155000D02*X186613Y155800D01*
X268000Y155000D02*Y153400D01*
Y155000D02*X269387Y155800D01*
X268000Y155000D02*X266613Y155800D01*
X141500Y158000D02*Y156400D01*
Y158000D02*X142887Y158800D01*
X141500Y158000D02*X140113Y158800D01*
X265000Y152000D02*Y150400D01*
Y152000D02*X266387Y152800D01*
X265000Y152000D02*X263613Y152800D01*
X190500Y152000D02*Y150400D01*
Y152000D02*X191887Y152800D01*
X190500Y152000D02*X189113Y152800D01*
X160500Y171000D02*Y169400D01*
Y171000D02*X161887Y171800D01*
X160500Y171000D02*X159113Y171800D01*
X171000Y162500D02*Y160900D01*
Y162500D02*X172387Y163300D01*
X171000Y162500D02*X169613Y163300D01*
X211500Y161000D02*Y159400D01*
Y161000D02*X212887Y161800D01*
X211500Y161000D02*X210113Y161800D01*
X163500Y162500D02*Y160900D01*
Y162500D02*X164887Y163300D01*
X163500Y162500D02*X162113Y163300D01*
X144500Y161000D02*Y159400D01*
Y161000D02*X145887Y161800D01*
X144500Y161000D02*X143113Y161800D01*
X220000Y113000D02*Y111400D01*
Y113000D02*X221387Y113800D01*
X220000Y113000D02*X218613Y113800D01*
X269000Y189500D02*Y187900D01*
Y189500D02*X270387Y190300D01*
X269000Y189500D02*X267613Y190300D01*
X263000Y155000D02*Y153400D01*
Y155000D02*X264387Y155800D01*
X263000Y155000D02*X261613Y155800D01*
X284000Y170500D02*Y168900D01*
Y170500D02*X285387Y171300D01*
X284000Y170500D02*X282613Y171300D01*
X232000Y147000D02*Y145400D01*
Y147000D02*X233387Y147800D01*
X232000Y147000D02*X230613Y147800D01*
X247000Y149500D02*Y147900D01*
Y149500D02*X248387Y150300D01*
X247000Y149500D02*X245613Y150300D01*
X228500Y149500D02*Y147900D01*
Y149500D02*X229887Y150300D01*
X228500Y149500D02*X227113Y150300D01*
X249500Y147000D02*Y145400D01*
Y147000D02*X250887Y147800D01*
X249500Y147000D02*X248113Y147800D01*
X311500Y184500D02*Y182900D01*
Y184500D02*X312887Y185300D01*
X311500Y184500D02*X310113Y185300D01*
X289000Y184500D02*Y182900D01*
Y184500D02*X290387Y185300D01*
X289000Y184500D02*X287613Y185300D01*
X237457Y84000D02*Y82400D01*
Y84000D02*X238844Y84800D01*
X237457Y84000D02*X236070Y84800D01*
X207000Y247500D02*Y245900D01*
Y247500D02*X208387Y248300D01*
X207000Y247500D02*X205613Y248300D01*
X238000Y243500D02*Y241900D01*
Y243500D02*X239387Y244300D01*
X238000Y243500D02*X236613Y244300D01*
X163000Y215500D02*Y213900D01*
Y215500D02*X164387Y216300D01*
X163000Y215500D02*X161613Y216300D01*
X188500Y247500D02*Y245900D01*
Y247500D02*X189887Y248300D01*
X188500Y247500D02*X187113Y248300D01*
X38500Y60000D02*Y58400D01*
Y60000D02*X39887Y60800D01*
X38500Y60000D02*X37113Y60800D01*
X41800Y60000D02*Y58400D01*
Y60000D02*X43187Y60800D01*
X41800Y60000D02*X40413Y60800D01*
X247000Y144000D02*Y142400D01*
Y144000D02*X248387Y144800D01*
X247000Y144000D02*X245613Y144800D01*
X145500Y153500D02*Y151900D01*
Y153500D02*X146887Y154300D01*
X145500Y153500D02*X144113Y154300D01*
X255000Y142000D02*Y140400D01*
Y142000D02*X256387Y142800D01*
X255000Y142000D02*X253613Y142800D01*
X50000Y96800D02*Y95200D01*
Y96800D02*X51387Y97600D01*
X50000Y96800D02*X48613Y97600D01*
X299500Y214000D02*Y212400D01*
Y214000D02*X300887Y214800D01*
X299500Y214000D02*X298113Y214800D01*
X312000Y214000D02*Y212400D01*
Y214000D02*X313387Y214800D01*
X312000Y214000D02*X310613Y214800D01*
X281000Y219500D02*Y217900D01*
Y219500D02*X282387Y220300D01*
X281000Y219500D02*X279613Y220300D01*
X258000Y136500D02*Y134900D01*
Y136500D02*X259387Y137300D01*
X258000Y136500D02*X256613Y137300D01*
X257500Y147500D02*Y145900D01*
Y147500D02*X258887Y148300D01*
X257500Y147500D02*X256113Y148300D01*
X191000Y137000D02*Y135400D01*
Y137000D02*X192387Y137800D01*
X191000Y137000D02*X189613Y137800D01*
X198500Y137000D02*Y135400D01*
Y137000D02*X199887Y137800D01*
X198500Y137000D02*X197113Y137800D01*
X212000Y120500D02*Y118900D01*
Y120500D02*X213387Y121300D01*
X212000Y120500D02*X210613Y121300D01*
X212000Y128500D02*Y126900D01*
Y128500D02*X213387Y129300D01*
X212000Y128500D02*X210613Y129300D01*
X181500Y161000D02*Y159400D01*
Y161000D02*X182887Y161800D01*
X181500Y161000D02*X180113Y161800D01*
X213500Y39000D02*Y37400D01*
Y39000D02*X214887Y39800D01*
X213500Y39000D02*X212113Y39800D01*
X218000Y39000D02*Y37400D01*
Y39000D02*X219387Y39800D01*
X218000Y39000D02*X216613Y39800D01*
X222000Y39000D02*Y37400D01*
Y39000D02*X223387Y39800D01*
X222000Y39000D02*X220613Y39800D01*
X178500Y39000D02*Y37400D01*
Y39000D02*X179887Y39800D01*
X178500Y39000D02*X177113Y39800D01*
X183000Y39000D02*Y37400D01*
Y39000D02*X184387Y39800D01*
X183000Y39000D02*X181613Y39800D01*
X187000Y39000D02*Y37400D01*
Y39000D02*X188387Y39800D01*
X187000Y39000D02*X185613Y39800D01*
X90500Y121500D02*Y119900D01*
Y121500D02*X91887Y122300D01*
X90500Y121500D02*X89113Y122300D01*
X90500Y125500D02*Y123900D01*
Y125500D02*X91887Y126300D01*
X90500Y125500D02*X89113Y126300D01*
X90500Y170500D02*Y168900D01*
Y170500D02*X91887Y171300D01*
X90500Y170500D02*X89113Y171300D01*
X90500Y166500D02*Y164900D01*
Y166500D02*X91887Y167300D01*
X90500Y166500D02*X89113Y167300D01*
X90500Y162500D02*Y160900D01*
Y162500D02*X91887Y163300D01*
X90500Y162500D02*X89113Y163300D01*
X117146Y201946D02*Y200346D01*
Y201946D02*X118533Y202746D01*
X117146Y201946D02*X115759Y202746D01*
X179500Y247500D02*Y245900D01*
Y247500D02*X180887Y248300D01*
X179500Y247500D02*X178113Y248300D01*
X329900Y208500D02*Y206900D01*
Y208500D02*X331287Y209300D01*
X329900Y208500D02*X328513Y209300D01*
X347800Y211000D02*Y209400D01*
Y211000D02*X349187Y211800D01*
X347800Y211000D02*X346413Y211800D01*
X373100Y82000D02*Y80400D01*
Y82000D02*X374487Y82800D01*
X373100Y82000D02*X371713Y82800D01*
X373100Y98400D02*Y96800D01*
Y98400D02*X374487Y99200D01*
X373100Y98400D02*X371713Y99200D01*
X191500Y107000D02*Y105400D01*
Y107000D02*X192887Y107800D01*
X191500Y107000D02*X190113Y107800D01*
X219000Y161500D02*Y159900D01*
Y161500D02*X220387Y162300D01*
X219000Y161500D02*X217613Y162300D01*
X265000Y164500D02*Y162900D01*
Y164500D02*X266387Y165300D01*
X265000Y164500D02*X263613Y165300D01*
X160500Y150500D02*Y148900D01*
Y150500D02*X161887Y151300D01*
X160500Y150500D02*X159113Y151300D01*
X162500Y147000D02*Y145400D01*
Y147000D02*X163887Y147800D01*
X162500Y147000D02*X161113Y147800D01*
X140000Y161000D02*Y159400D01*
Y161000D02*X141387Y161800D01*
X140000Y161000D02*X138613Y161800D01*
X153000Y190000D02*Y188400D01*
Y190000D02*X154387Y190800D01*
X153000Y190000D02*X151613Y190800D01*
X15000Y466250D02*Y464650D01*
Y466250D02*X16387Y467050D01*
X15000Y466250D02*X13613Y467050D01*
X135000Y468500D02*Y467750D01*
X136500Y466250D01*
X138000Y467750D01*
Y468500D02*Y467750D01*
X136500Y466250D02*Y462500D01*
X139800Y465500D02*X142050D01*
X139800Y462500D02*X142800D01*
X139800Y468500D02*Y462500D01*
Y468500D02*X142800D01*
X147600D02*X148350Y467750D01*
X145350Y468500D02*X147600D01*
X144600Y467750D02*X145350Y468500D01*
X144600Y467750D02*Y466250D01*
X145350Y465500D01*
X147600D01*
X148350Y464750D01*
Y463250D01*
X147600Y462500D02*X148350Y463250D01*
X145350Y462500D02*X147600D01*
X144600Y463250D02*X145350Y462500D01*
X98750D02*X100250D01*
X99500Y468500D02*Y462500D01*
X98000Y467000D02*X99500Y468500D01*
X102050D02*X105050D01*
X102050D02*Y465500D01*
X102800Y466250D01*
X104300D01*
X105050Y465500D01*
Y463250D01*
X104300Y462500D02*X105050Y463250D01*
X102800Y462500D02*X104300D01*
X102050Y463250D02*X102800Y462500D01*
X106850Y465500D02*X109850Y468500D01*
X106850Y465500D02*X110600D01*
X109850Y468500D02*Y462500D01*
X45000Y463250D02*X45750Y462500D01*
X45000Y467750D02*Y463250D01*
Y467750D02*X45750Y468500D01*
X47250D01*
X48000Y467750D01*
Y463250D01*
X47250Y462500D02*X48000Y463250D01*
X45750Y462500D02*X47250D01*
X45000Y464000D02*X48000Y467000D01*
X49800Y462500D02*X50550D01*
X52350Y463250D02*X53100Y462500D01*
X52350Y467750D02*Y463250D01*
Y467750D02*X53100Y468500D01*
X54600D01*
X55350Y467750D01*
Y463250D01*
X54600Y462500D02*X55350Y463250D01*
X53100Y462500D02*X54600D01*
X52350Y464000D02*X55350Y467000D01*
X57900Y462500D02*X59400D01*
X58650Y468500D02*Y462500D01*
X57150Y467000D02*X58650Y468500D01*
X61200Y467750D02*X61950Y468500D01*
X64200D01*
X64950Y467750D01*
Y466250D01*
X61200Y462500D02*X64950Y466250D01*
X61200Y462500D02*X64950D01*
X3000Y483500D02*X3750Y482750D01*
X750Y483500D02*X3000D01*
X0Y482750D02*X750Y483500D01*
X0Y482750D02*Y481250D01*
X750Y480500D01*
X3000D01*
X3750Y479750D01*
Y478250D01*
X3000Y477500D02*X3750Y478250D01*
X750Y477500D02*X3000D01*
X0Y478250D02*X750Y477500D01*
X5550Y480500D02*Y478250D01*
X6300Y477500D01*
X8550Y480500D02*Y476000D01*
X7800Y475250D02*X8550Y476000D01*
X6300Y475250D02*X7800D01*
X5550Y476000D02*X6300Y475250D01*
Y477500D02*X7800D01*
X8550Y478250D01*
X11100Y479750D02*Y477500D01*
Y479750D02*X11850Y480500D01*
X12600D01*
X13350Y479750D01*
Y477500D01*
Y479750D02*X14100Y480500D01*
X14850D01*
X15600Y479750D01*
Y477500D01*
X10350Y480500D02*X11100Y479750D01*
X17400Y483500D02*Y477500D01*
Y478250D02*X18150Y477500D01*
X19650D01*
X20400Y478250D01*
Y479750D02*Y478250D01*
X19650Y480500D02*X20400Y479750D01*
X18150Y480500D02*X19650D01*
X17400Y479750D02*X18150Y480500D01*
X22200Y479750D02*Y478250D01*
Y479750D02*X22950Y480500D01*
X24450D01*
X25200Y479750D01*
Y478250D01*
X24450Y477500D02*X25200Y478250D01*
X22950Y477500D02*X24450D01*
X22200Y478250D02*X22950Y477500D01*
X27000Y483500D02*Y478250D01*
X27750Y477500D01*
X0Y474250D02*X29250D01*
X41750Y483500D02*Y477500D01*
X44000Y483500D02*X44750Y482750D01*
Y478250D01*
X44000Y477500D02*X44750Y478250D01*
X41000Y477500D02*X44000D01*
X41000Y483500D02*X44000D01*
X46550Y482000D02*Y481250D01*
Y479750D02*Y477500D01*
X50300Y480500D02*X51050Y479750D01*
X48800Y480500D02*X50300D01*
X48050Y479750D02*X48800Y480500D01*
X48050Y479750D02*Y478250D01*
X48800Y477500D01*
X51050Y480500D02*Y478250D01*
X51800Y477500D01*
X48800D02*X50300D01*
X51050Y478250D01*
X54350Y479750D02*Y477500D01*
Y479750D02*X55100Y480500D01*
X55850D01*
X56600Y479750D01*
Y477500D01*
Y479750D02*X57350Y480500D01*
X58100D01*
X58850Y479750D01*
Y477500D01*
X53600Y480500D02*X54350Y479750D01*
X60650Y477500D02*X61400D01*
X65900Y478250D02*X66650Y477500D01*
X65900Y482750D02*X66650Y483500D01*
X65900Y482750D02*Y478250D01*
X68450Y483500D02*X69950D01*
X69200D02*Y477500D01*
X68450D02*X69950D01*
X72500Y479750D02*Y477500D01*
Y479750D02*X73250Y480500D01*
X74000D01*
X74750Y479750D01*
Y477500D01*
X71750Y480500D02*X72500Y479750D01*
X77300Y480500D02*X79550D01*
X76550Y479750D02*X77300Y480500D01*
X76550Y479750D02*Y478250D01*
X77300Y477500D01*
X79550D01*
X81350Y483500D02*Y477500D01*
Y479750D02*X82100Y480500D01*
X83600D01*
X84350Y479750D01*
Y477500D01*
X86150Y483500D02*X86900Y482750D01*
Y478250D01*
X86150Y477500D02*X86900Y478250D01*
X41000Y474250D02*X88700D01*
X95750Y477500D02*X98000D01*
X95000Y478250D02*X95750Y477500D01*
X95000Y482750D02*Y478250D01*
Y482750D02*X95750Y483500D01*
X98000D01*
X99800Y479750D02*Y478250D01*
Y479750D02*X100550Y480500D01*
X102050D01*
X102800Y479750D01*
Y478250D01*
X102050Y477500D02*X102800Y478250D01*
X100550Y477500D02*X102050D01*
X99800Y478250D02*X100550Y477500D01*
X104600Y480500D02*Y478250D01*
X105350Y477500D01*
X106850D01*
X107600Y478250D01*
Y480500D02*Y478250D01*
X110150Y479750D02*Y477500D01*
Y479750D02*X110900Y480500D01*
X111650D01*
X112400Y479750D01*
Y477500D01*
X109400Y480500D02*X110150Y479750D01*
X114950Y483500D02*Y478250D01*
X115700Y477500D01*
X114200Y481250D02*X115700D01*
X95000Y474250D02*X117200D01*
X130750Y483500D02*Y477500D01*
X130000Y483500D02*X133000D01*
X133750Y482750D01*
Y481250D01*
X133000Y480500D02*X133750Y481250D01*
X130750Y480500D02*X133000D01*
X135550Y483500D02*Y478250D01*
X136300Y477500D01*
X140050Y480500D02*X140800Y479750D01*
X138550Y480500D02*X140050D01*
X137800Y479750D02*X138550Y480500D01*
X137800Y479750D02*Y478250D01*
X138550Y477500D01*
X140800Y480500D02*Y478250D01*
X141550Y477500D01*
X138550D02*X140050D01*
X140800Y478250D01*
X144100Y483500D02*Y478250D01*
X144850Y477500D01*
X143350Y481250D02*X144850D01*
X147100Y477500D02*X149350D01*
X146350Y478250D02*X147100Y477500D01*
X146350Y479750D02*Y478250D01*
Y479750D02*X147100Y480500D01*
X148600D01*
X149350Y479750D01*
X146350Y479000D02*X149350D01*
Y479750D02*Y479000D01*
X154150Y483500D02*Y477500D01*
X153400D02*X154150Y478250D01*
X151900Y477500D02*X153400D01*
X151150Y478250D02*X151900Y477500D01*
X151150Y479750D02*Y478250D01*
Y479750D02*X151900Y480500D01*
X153400D01*
X154150Y479750D01*
X157450Y480500D02*Y479750D01*
Y478250D02*Y477500D01*
X155950Y482750D02*Y482000D01*
Y482750D02*X156700Y483500D01*
X158200D01*
X158950Y482750D01*
Y482000D01*
X157450Y480500D02*X158950Y482000D01*
X130000Y474250D02*X160750D01*
X0Y498500D02*X3000D01*
X1500D02*Y492500D01*
X4800Y498500D02*Y492500D01*
Y494750D02*X5550Y495500D01*
X7050D01*
X7800Y494750D01*
Y492500D01*
X10350D02*X12600D01*
X9600Y493250D02*X10350Y492500D01*
X9600Y494750D02*Y493250D01*
Y494750D02*X10350Y495500D01*
X11850D01*
X12600Y494750D01*
X9600Y494000D02*X12600D01*
Y494750D02*Y494000D01*
X15150Y494750D02*Y492500D01*
Y494750D02*X15900Y495500D01*
X17400D01*
X14400D02*X15150Y494750D01*
X19950Y492500D02*X22200D01*
X19200Y493250D02*X19950Y492500D01*
X19200Y494750D02*Y493250D01*
Y494750D02*X19950Y495500D01*
X21450D01*
X22200Y494750D01*
X19200Y494000D02*X22200D01*
Y494750D02*Y494000D01*
X28950Y495500D02*X29700Y494750D01*
X27450Y495500D02*X28950D01*
X26700Y494750D02*X27450Y495500D01*
X26700Y494750D02*Y493250D01*
X27450Y492500D01*
X29700Y495500D02*Y493250D01*
X30450Y492500D01*
X27450D02*X28950D01*
X29700Y493250D01*
X33000Y494750D02*Y492500D01*
Y494750D02*X33750Y495500D01*
X35250D01*
X32250D02*X33000Y494750D01*
X37800Y492500D02*X40050D01*
X37050Y493250D02*X37800Y492500D01*
X37050Y494750D02*Y493250D01*
Y494750D02*X37800Y495500D01*
X39300D01*
X40050Y494750D01*
X37050Y494000D02*X40050D01*
Y494750D02*Y494000D01*
X45300Y492500D02*X46800D01*
X46050Y498500D02*Y492500D01*
X44550Y497000D02*X46050Y498500D01*
X49350Y492500D02*X50850D01*
X50100Y498500D02*Y492500D01*
X48600Y497000D02*X50100Y498500D01*
X58350D02*Y492500D01*
X57600D02*X58350Y493250D01*
X56100Y492500D02*X57600D01*
X55350Y493250D02*X56100Y492500D01*
X55350Y494750D02*Y493250D01*
Y494750D02*X56100Y495500D01*
X57600D01*
X58350Y494750D01*
X60150Y497000D02*Y496250D01*
Y494750D02*Y492500D01*
X62400Y497750D02*Y492500D01*
Y497750D02*X63150Y498500D01*
X63900D01*
X61650Y495500D02*X63150D01*
X66150Y497750D02*Y492500D01*
Y497750D02*X66900Y498500D01*
X67650D01*
X65400Y495500D02*X66900D01*
X69900Y492500D02*X72150D01*
X69150Y493250D02*X69900Y492500D01*
X69150Y494750D02*Y493250D01*
Y494750D02*X69900Y495500D01*
X71400D01*
X72150Y494750D01*
X69150Y494000D02*X72150D01*
Y494750D02*Y494000D01*
X74700Y494750D02*Y492500D01*
Y494750D02*X75450Y495500D01*
X76950D01*
X73950D02*X74700Y494750D01*
X79500Y492500D02*X81750D01*
X78750Y493250D02*X79500Y492500D01*
X78750Y494750D02*Y493250D01*
Y494750D02*X79500Y495500D01*
X81000D01*
X81750Y494750D01*
X78750Y494000D02*X81750D01*
Y494750D02*Y494000D01*
X84300Y494750D02*Y492500D01*
Y494750D02*X85050Y495500D01*
X85800D01*
X86550Y494750D01*
Y492500D01*
X83550Y495500D02*X84300Y494750D01*
X89100Y498500D02*Y493250D01*
X89850Y492500D01*
X88350Y496250D02*X89850D01*
X97050Y498500D02*Y492500D01*
X96300D02*X97050Y493250D01*
X94800Y492500D02*X96300D01*
X94050Y493250D02*X94800Y492500D01*
X94050Y494750D02*Y493250D01*
Y494750D02*X94800Y495500D01*
X96300D01*
X97050Y494750D01*
X99600D02*Y492500D01*
Y494750D02*X100350Y495500D01*
X101850D01*
X98850D02*X99600Y494750D01*
X103650Y497000D02*Y496250D01*
Y494750D02*Y492500D01*
X105150Y498500D02*Y493250D01*
X105900Y492500D01*
X107400Y498500D02*Y493250D01*
X108150Y492500D01*
X113100D02*X115350D01*
X116100Y493250D01*
X115350Y494000D02*X116100Y493250D01*
X113100Y494000D02*X115350D01*
X112350Y494750D02*X113100Y494000D01*
X112350Y494750D02*X113100Y495500D01*
X115350D01*
X116100Y494750D01*
X112350Y493250D02*X113100Y492500D01*
X117900Y497000D02*Y496250D01*
Y494750D02*Y492500D01*
X119400Y495500D02*X122400D01*
X119400Y492500D02*X122400Y495500D01*
X119400Y492500D02*X122400D01*
X124950D02*X127200D01*
X124200Y493250D02*X124950Y492500D01*
X124200Y494750D02*Y493250D01*
Y494750D02*X124950Y495500D01*
X126450D01*
X127200Y494750D01*
X124200Y494000D02*X127200D01*
Y494750D02*Y494000D01*
X129750Y492500D02*X132000D01*
X132750Y493250D01*
X132000Y494000D02*X132750Y493250D01*
X129750Y494000D02*X132000D01*
X129000Y494750D02*X129750Y494000D01*
X129000Y494750D02*X129750Y495500D01*
X132000D01*
X132750Y494750D01*
X129000Y493250D02*X129750Y492500D01*
X137250Y495500D02*Y493250D01*
X138000Y492500D01*
X139500D01*
X140250Y493250D01*
Y495500D02*Y493250D01*
X142800Y492500D02*X145050D01*
X145800Y493250D01*
X145050Y494000D02*X145800Y493250D01*
X142800Y494000D02*X145050D01*
X142050Y494750D02*X142800Y494000D01*
X142050Y494750D02*X142800Y495500D01*
X145050D01*
X145800Y494750D01*
X142050Y493250D02*X142800Y492500D01*
X148350D02*X150600D01*
X147600Y493250D02*X148350Y492500D01*
X147600Y494750D02*Y493250D01*
Y494750D02*X148350Y495500D01*
X149850D01*
X150600Y494750D01*
X147600Y494000D02*X150600D01*
Y494750D02*Y494000D01*
X155400Y498500D02*Y492500D01*
X154650D02*X155400Y493250D01*
X153150Y492500D02*X154650D01*
X152400Y493250D02*X153150Y492500D01*
X152400Y494750D02*Y493250D01*
Y494750D02*X153150Y495500D01*
X154650D01*
X155400Y494750D01*
X159900Y497000D02*Y496250D01*
Y494750D02*Y492500D01*
X162150Y494750D02*Y492500D01*
Y494750D02*X162900Y495500D01*
X163650D01*
X164400Y494750D01*
Y492500D01*
X161400Y495500D02*X162150Y494750D01*
X169650Y498500D02*Y493250D01*
X170400Y492500D01*
X168900Y496250D02*X170400D01*
X171900Y498500D02*Y492500D01*
Y494750D02*X172650Y495500D01*
X174150D01*
X174900Y494750D01*
Y492500D01*
X176700Y497000D02*Y496250D01*
Y494750D02*Y492500D01*
X178950D02*X181200D01*
X181950Y493250D01*
X181200Y494000D02*X181950Y493250D01*
X178950Y494000D02*X181200D01*
X178200Y494750D02*X178950Y494000D01*
X178200Y494750D02*X178950Y495500D01*
X181200D01*
X181950Y494750D01*
X178200Y493250D02*X178950Y492500D01*
X186450Y498500D02*Y493250D01*
X187200Y492500D01*
X190950Y495500D02*X191700Y494750D01*
X189450Y495500D02*X190950D01*
X188700Y494750D02*X189450Y495500D01*
X188700Y494750D02*Y493250D01*
X189450Y492500D01*
X191700Y495500D02*Y493250D01*
X192450Y492500D01*
X189450D02*X190950D01*
X191700Y493250D01*
X194250Y495500D02*Y493250D01*
X195000Y492500D01*
X197250Y495500D02*Y491000D01*
X196500Y490250D02*X197250Y491000D01*
X195000Y490250D02*X196500D01*
X194250Y491000D02*X195000Y490250D01*
Y492500D02*X196500D01*
X197250Y493250D01*
X199050Y494750D02*Y493250D01*
Y494750D02*X199800Y495500D01*
X201300D01*
X202050Y494750D01*
Y493250D01*
X201300Y492500D02*X202050Y493250D01*
X199800Y492500D02*X201300D01*
X199050Y493250D02*X199800Y492500D01*
X203850Y495500D02*Y493250D01*
X204600Y492500D01*
X206100D01*
X206850Y493250D01*
Y495500D02*Y493250D01*
X209400Y498500D02*Y493250D01*
X210150Y492500D01*
X208650Y496250D02*X210150D01*
X211650Y491000D02*X213150Y492500D01*
X217650Y497750D02*X218400Y498500D01*
X220650D01*
X221400Y497750D01*
Y496250D01*
X217650Y492500D02*X221400Y496250D01*
X217650Y492500D02*X221400D01*
X223200Y493250D02*X223950Y492500D01*
X223200Y497750D02*Y493250D01*
Y497750D02*X223950Y498500D01*
X225450D01*
X226200Y497750D01*
Y493250D01*
X225450Y492500D02*X226200Y493250D01*
X223950Y492500D02*X225450D01*
X223200Y494000D02*X226200Y497000D01*
X228000Y492500D02*X231000Y495500D01*
Y497750D02*Y495500D01*
X230250Y498500D02*X231000Y497750D01*
X228750Y498500D02*X230250D01*
X228000Y497750D02*X228750Y498500D01*
X228000Y497750D02*Y496250D01*
X228750Y495500D01*
X231000D01*
X235500Y498500D02*Y492500D01*
Y494750D02*X236250Y495500D01*
X237750D01*
X238500Y494750D01*
Y492500D01*
X240300Y494750D02*Y493250D01*
Y494750D02*X241050Y495500D01*
X242550D01*
X243300Y494750D01*
Y493250D01*
X242550Y492500D02*X243300Y493250D01*
X241050Y492500D02*X242550D01*
X240300Y493250D02*X241050Y492500D01*
X245100Y498500D02*Y493250D01*
X245850Y492500D01*
X248100D02*X250350D01*
X247350Y493250D02*X248100Y492500D01*
X247350Y494750D02*Y493250D01*
Y494750D02*X248100Y495500D01*
X249600D01*
X250350Y494750D01*
X247350Y494000D02*X250350D01*
Y494750D02*Y494000D01*
X252900Y492500D02*X255150D01*
X255900Y493250D01*
X255150Y494000D02*X255900Y493250D01*
X252900Y494000D02*X255150D01*
X252150Y494750D02*X252900Y494000D01*
X252150Y494750D02*X252900Y495500D01*
X255150D01*
X255900Y494750D01*
X252150Y493250D02*X252900Y492500D01*
X261150Y498500D02*Y493250D01*
X261900Y492500D01*
X260400Y496250D02*X261900D01*
X263400Y494750D02*Y493250D01*
Y494750D02*X264150Y495500D01*
X265650D01*
X266400Y494750D01*
Y493250D01*
X265650Y492500D02*X266400Y493250D01*
X264150Y492500D02*X265650D01*
X263400Y493250D02*X264150Y492500D01*
X268950Y498500D02*Y493250D01*
X269700Y492500D01*
X268200Y496250D02*X269700D01*
X273450Y495500D02*X274200Y494750D01*
X271950Y495500D02*X273450D01*
X271200Y494750D02*X271950Y495500D01*
X271200Y494750D02*Y493250D01*
X271950Y492500D01*
X274200Y495500D02*Y493250D01*
X274950Y492500D01*
X271950D02*X273450D01*
X274200Y493250D01*
X276750Y498500D02*Y493250D01*
X277500Y492500D01*
G54D104*X0Y40000D02*X74000D01*
Y0D01*
X326000D01*
Y40000D01*
X400000D01*
Y290000D01*
X0D01*
Y40000D01*
G54D103*X113675Y-9500D02*X116675D01*
X117425Y-8750D01*
Y-7250D02*Y-8750D01*
X116675Y-6500D02*X117425Y-7250D01*
X114425Y-6500D02*X116675D01*
X114425Y-3500D02*Y-9500D01*
X113675Y-3500D02*X116675D01*
X117425Y-4250D01*
Y-5750D01*
X116675Y-6500D02*X117425Y-5750D01*
X119225Y-7250D02*Y-8750D01*
Y-7250D02*X119975Y-6500D01*
X121475D01*
X122225Y-7250D01*
Y-8750D01*
X121475Y-9500D02*X122225Y-8750D01*
X119975Y-9500D02*X121475D01*
X119225Y-8750D02*X119975Y-9500D01*
X126275Y-6500D02*X127025Y-7250D01*
X124775Y-6500D02*X126275D01*
X124025Y-7250D02*X124775Y-6500D01*
X124025Y-7250D02*Y-8750D01*
X124775Y-9500D01*
X127025Y-6500D02*Y-8750D01*
X127775Y-9500D01*
X124775D02*X126275D01*
X127025Y-8750D01*
X130325Y-7250D02*Y-9500D01*
Y-7250D02*X131075Y-6500D01*
X132575D01*
X129575D02*X130325Y-7250D01*
X137375Y-3500D02*Y-9500D01*
X136625D02*X137375Y-8750D01*
X135125Y-9500D02*X136625D01*
X134375Y-8750D02*X135125Y-9500D01*
X134375Y-7250D02*Y-8750D01*
Y-7250D02*X135125Y-6500D01*
X136625D01*
X137375Y-7250D01*
X141875D02*Y-8750D01*
Y-7250D02*X142625Y-6500D01*
X144125D01*
X144875Y-7250D01*
Y-8750D01*
X144125Y-9500D02*X144875Y-8750D01*
X142625Y-9500D02*X144125D01*
X141875Y-8750D02*X142625Y-9500D01*
X146675Y-6500D02*Y-8750D01*
X147425Y-9500D01*
X148925D01*
X149675Y-8750D01*
Y-6500D02*Y-8750D01*
X152225Y-3500D02*Y-8750D01*
X152975Y-9500D01*
X151475Y-5750D02*X152975D01*
X154475Y-3500D02*Y-8750D01*
X155225Y-9500D01*
X156725Y-5000D02*Y-5750D01*
Y-7250D02*Y-9500D01*
X158975Y-7250D02*Y-9500D01*
Y-7250D02*X159725Y-6500D01*
X160475D01*
X161225Y-7250D01*
Y-9500D01*
X158225Y-6500D02*X158975Y-7250D01*
X163775Y-9500D02*X166025D01*
X163025Y-8750D02*X163775Y-9500D01*
X163025Y-7250D02*Y-8750D01*
Y-7250D02*X163775Y-6500D01*
X165275D01*
X166025Y-7250D01*
X163025Y-8000D02*X166025D01*
Y-7250D02*Y-8000D01*
X170525Y-5000D02*Y-5750D01*
Y-7250D02*Y-9500D01*
X172775D02*X175025D01*
X175775Y-8750D01*
X175025Y-8000D02*X175775Y-8750D01*
X172775Y-8000D02*X175025D01*
X172025Y-7250D02*X172775Y-8000D01*
X172025Y-7250D02*X172775Y-6500D01*
X175025D01*
X175775Y-7250D01*
X172025Y-8750D02*X172775Y-9500D01*
X181025Y-3500D02*Y-8750D01*
X181775Y-9500D01*
X180275Y-5750D02*X181775D01*
X183275Y-3500D02*Y-9500D01*
Y-7250D02*X184025Y-6500D01*
X185525D01*
X186275Y-7250D01*
Y-9500D01*
X188825D02*X191075D01*
X188075Y-8750D02*X188825Y-9500D01*
X188075Y-7250D02*Y-8750D01*
Y-7250D02*X188825Y-6500D01*
X190325D01*
X191075Y-7250D01*
X188075Y-8000D02*X191075D01*
Y-7250D02*Y-8000D01*
X196325Y-6500D02*X198575D01*
X195575Y-7250D02*X196325Y-6500D01*
X195575Y-7250D02*Y-8750D01*
X196325Y-9500D01*
X198575D01*
X201125D02*X203375D01*
X200375Y-8750D02*X201125Y-9500D01*
X200375Y-7250D02*Y-8750D01*
Y-7250D02*X201125Y-6500D01*
X202625D01*
X203375Y-7250D01*
X200375Y-8000D02*X203375D01*
Y-7250D02*Y-8000D01*
X205925Y-7250D02*Y-9500D01*
Y-7250D02*X206675Y-6500D01*
X207425D01*
X208175Y-7250D01*
Y-9500D01*
X205175Y-6500D02*X205925Y-7250D01*
X210725Y-3500D02*Y-8750D01*
X211475Y-9500D01*
X209975Y-5750D02*X211475D01*
X213725Y-9500D02*X215975D01*
X212975Y-8750D02*X213725Y-9500D01*
X212975Y-7250D02*Y-8750D01*
Y-7250D02*X213725Y-6500D01*
X215225D01*
X215975Y-7250D01*
X212975Y-8000D02*X215975D01*
Y-7250D02*Y-8000D01*
X218525Y-7250D02*Y-9500D01*
Y-7250D02*X219275Y-6500D01*
X220775D01*
X217775D02*X218525Y-7250D01*
X222575Y-3500D02*Y-8750D01*
X223325Y-9500D01*
X224825Y-5000D02*Y-5750D01*
Y-7250D02*Y-9500D01*
X227075Y-7250D02*Y-9500D01*
Y-7250D02*X227825Y-6500D01*
X228575D01*
X229325Y-7250D01*
Y-9500D01*
X226325Y-6500D02*X227075Y-7250D01*
X231875Y-9500D02*X234125D01*
X231125Y-8750D02*X231875Y-9500D01*
X231125Y-7250D02*Y-8750D01*
Y-7250D02*X231875Y-6500D01*
X233375D01*
X234125Y-7250D01*
X231125Y-8000D02*X234125D01*
Y-7250D02*Y-8000D01*
X238625Y-7250D02*Y-8750D01*
Y-7250D02*X239375Y-6500D01*
X240875D01*
X241625Y-7250D01*
Y-8750D01*
X240875Y-9500D02*X241625Y-8750D01*
X239375Y-9500D02*X240875D01*
X238625Y-8750D02*X239375Y-9500D01*
X244175Y-4250D02*Y-9500D01*
Y-4250D02*X244925Y-3500D01*
X245675D01*
X243425Y-6500D02*X244925D01*
X250625Y-3500D02*Y-8750D01*
X251375Y-9500D01*
X249875Y-5750D02*X251375D01*
X252875Y-3500D02*Y-9500D01*
Y-7250D02*X253625Y-6500D01*
X255125D01*
X255875Y-7250D01*
Y-9500D01*
X257675Y-5000D02*Y-5750D01*
Y-7250D02*Y-9500D01*
X259925D02*X262175D01*
X262925Y-8750D01*
X262175Y-8000D02*X262925Y-8750D01*
X259925Y-8000D02*X262175D01*
X259175Y-7250D02*X259925Y-8000D01*
X259175Y-7250D02*X259925Y-6500D01*
X262175D01*
X262925Y-7250D01*
X259175Y-8750D02*X259925Y-9500D01*
X268175Y-7250D02*Y-11750D01*
X267425Y-6500D02*X268175Y-7250D01*
X268925Y-6500D01*
X270425D01*
X271175Y-7250D01*
Y-8750D01*
X270425Y-9500D02*X271175Y-8750D01*
X268925Y-9500D02*X270425D01*
X268175Y-8750D02*X268925Y-9500D01*
X275225Y-6500D02*X275975Y-7250D01*
X273725Y-6500D02*X275225D01*
X272975Y-7250D02*X273725Y-6500D01*
X272975Y-7250D02*Y-8750D01*
X273725Y-9500D01*
X275975Y-6500D02*Y-8750D01*
X276725Y-9500D01*
X273725D02*X275225D01*
X275975Y-8750D01*
X279275Y-3500D02*Y-8750D01*
X280025Y-9500D01*
X278525Y-5750D02*X280025D01*
X281525Y-3500D02*Y-9500D01*
Y-7250D02*X282275Y-6500D01*
X283775D01*
X284525Y-7250D01*
Y-9500D01*
X200750Y318500D02*Y312500D01*
X203000Y318500D02*X203750Y317750D01*
Y313250D01*
X203000Y312500D02*X203750Y313250D01*
X200000Y312500D02*X203000D01*
X200000Y318500D02*X203000D01*
X207800Y315500D02*X208550Y314750D01*
X206300Y315500D02*X207800D01*
X205550Y314750D02*X206300Y315500D01*
X205550Y314750D02*Y313250D01*
X206300Y312500D01*
X208550Y315500D02*Y313250D01*
X209300Y312500D01*
X206300D02*X207800D01*
X208550Y313250D01*
X211850Y318500D02*Y313250D01*
X212600Y312500D01*
X211100Y316250D02*X212600D01*
X214850Y312500D02*X217100D01*
X214100Y313250D02*X214850Y312500D01*
X214100Y314750D02*Y313250D01*
Y314750D02*X214850Y315500D01*
X216350D01*
X217100Y314750D01*
X214100Y314000D02*X217100D01*
Y314750D02*Y314000D01*
X218900Y316250D02*X219650D01*
X218900Y314750D02*X219650D01*
X224150Y318500D02*X227150D01*
X225650D02*Y312500D01*
X228950Y318500D02*Y312500D01*
Y314750D02*X229700Y315500D01*
X231200D01*
X231950Y314750D01*
Y312500D01*
X233750Y315500D02*Y313250D01*
X234500Y312500D01*
X236000D01*
X236750Y313250D01*
Y315500D02*Y313250D01*
X241250Y318500D02*X243500D01*
Y313250D01*
X242750Y312500D02*X243500Y313250D01*
X242000Y312500D02*X242750D01*
X241250Y313250D02*X242000Y312500D01*
X245300Y315500D02*Y313250D01*
X246050Y312500D01*
X247550D01*
X248300Y313250D01*
Y315500D02*Y313250D01*
X250100Y318500D02*Y313250D01*
X250850Y312500D01*
X257750Y317750D02*X258500Y318500D01*
X260750D01*
X261500Y317750D01*
Y316250D01*
X257750Y312500D02*X261500Y316250D01*
X257750Y312500D02*X261500D01*
X266000Y317750D02*X266750Y318500D01*
X269000D01*
X269750Y317750D01*
Y316250D01*
X266000Y312500D02*X269750Y316250D01*
X266000Y312500D02*X269750D01*
X271550Y313250D02*X272300Y312500D01*
X271550Y317750D02*Y313250D01*
Y317750D02*X272300Y318500D01*
X273800D01*
X274550Y317750D01*
Y313250D01*
X273800Y312500D02*X274550Y313250D01*
X272300Y312500D02*X273800D01*
X271550Y314000D02*X274550Y317000D01*
X276350Y316250D02*X277100D01*
X276350Y314750D02*X277100D01*
X278900Y317750D02*X279650Y318500D01*
X281900D01*
X282650Y317750D01*
Y316250D01*
X278900Y312500D02*X282650Y316250D01*
X278900Y312500D02*X282650D01*
X284450Y317750D02*X285200Y318500D01*
X287450D01*
X288200Y317750D01*
Y316250D01*
X284450Y312500D02*X288200Y316250D01*
X284450Y312500D02*X288200D01*
X290000Y316250D02*X290750D01*
X290000Y314750D02*X290750D01*
X292550Y318500D02*X295550D01*
X292550D02*Y315500D01*
X293300Y316250D01*
X294800D01*
X295550Y315500D01*
Y313250D01*
X294800Y312500D02*X295550Y313250D01*
X293300Y312500D02*X294800D01*
X292550Y313250D02*X293300Y312500D01*
X297350D02*X300350Y315500D01*
Y317750D02*Y315500D01*
X299600Y318500D02*X300350Y317750D01*
X298100Y318500D02*X299600D01*
X297350Y317750D02*X298100Y318500D01*
X297350Y317750D02*Y316250D01*
X298100Y315500D01*
X300350D01*
X304850Y317750D02*X305600Y318500D01*
X307850D01*
X308600Y317750D01*
Y316250D01*
X304850Y312500D02*X308600Y316250D01*
X304850Y312500D02*X308600D01*
X310400Y313250D02*X311150Y312500D01*
X310400Y317750D02*Y313250D01*
Y317750D02*X311150Y318500D01*
X312650D01*
X313400Y317750D01*
Y313250D01*
X312650Y312500D02*X313400Y313250D01*
X311150Y312500D02*X312650D01*
X310400Y314000D02*X313400Y317000D01*
X315200Y317750D02*X315950Y318500D01*
X318200D01*
X318950Y317750D01*
Y316250D01*
X315200Y312500D02*X318950Y316250D01*
X315200Y312500D02*X318950D01*
X320750Y313250D02*X321500Y312500D01*
X320750Y317750D02*Y313250D01*
Y317750D02*X321500Y318500D01*
X323000D01*
X323750Y317750D01*
Y313250D01*
X323000Y312500D02*X323750Y313250D01*
X321500Y312500D02*X323000D01*
X320750Y314000D02*X323750Y317000D01*
X328250Y318500D02*Y313250D01*
X329000Y312500D01*
X330500D01*
X331250Y313250D01*
Y318500D02*Y313250D01*
X333050Y318500D02*X336050D01*
X334550D02*Y312500D01*
X338600D02*X340850D01*
X337850Y313250D02*X338600Y312500D01*
X337850Y317750D02*Y313250D01*
Y317750D02*X338600Y318500D01*
X340850D01*
X200000Y332750D02*Y327500D01*
Y332750D02*X200750Y333500D01*
X203000D01*
X203750Y332750D01*
Y327500D01*
X200000Y330500D02*X203750D01*
X205550D02*Y328250D01*
X206300Y327500D01*
X207800D01*
X208550Y328250D01*
Y330500D02*Y328250D01*
X211100Y333500D02*Y328250D01*
X211850Y327500D01*
X210350Y331250D02*X211850D01*
X213350Y333500D02*Y327500D01*
Y329750D02*X214100Y330500D01*
X215600D01*
X216350Y329750D01*
Y327500D01*
X218150Y329750D02*Y328250D01*
Y329750D02*X218900Y330500D01*
X220400D01*
X221150Y329750D01*
Y328250D01*
X220400Y327500D02*X221150Y328250D01*
X218900Y327500D02*X220400D01*
X218150Y328250D02*X218900Y327500D01*
X223700Y329750D02*Y327500D01*
Y329750D02*X224450Y330500D01*
X225950D01*
X222950D02*X223700Y329750D01*
X227750Y331250D02*X228500D01*
X227750Y329750D02*X228500D01*
X233000Y333500D02*Y327500D01*
Y333500D02*Y332750D01*
X236750Y329000D01*
Y333500D02*Y327500D01*
X240800Y330500D02*X241550Y329750D01*
X239300Y330500D02*X240800D01*
X238550Y329750D02*X239300Y330500D01*
X238550Y329750D02*Y328250D01*
X239300Y327500D01*
X241550Y330500D02*Y328250D01*
X242300Y327500D01*
X239300D02*X240800D01*
X241550Y328250D01*
X244850Y333500D02*Y328250D01*
X245600Y327500D01*
X244100Y331250D02*X245600D01*
X247100Y333500D02*Y327500D01*
Y329750D02*X247850Y330500D01*
X249350D01*
X250100Y329750D01*
Y327500D01*
X254150Y330500D02*X254900Y329750D01*
X252650Y330500D02*X254150D01*
X251900Y329750D02*X252650Y330500D01*
X251900Y329750D02*Y328250D01*
X252650Y327500D01*
X254900Y330500D02*Y328250D01*
X255650Y327500D01*
X252650D02*X254150D01*
X254900Y328250D01*
X258200Y329750D02*Y327500D01*
Y329750D02*X258950Y330500D01*
X259700D01*
X260450Y329750D01*
Y327500D01*
X257450Y330500D02*X258200Y329750D01*
X265700Y333500D02*Y327500D01*
X267950Y333500D02*X268700Y332750D01*
Y328250D01*
X267950Y327500D02*X268700Y328250D01*
X264950Y327500D02*X267950D01*
X264950Y333500D02*X267950D01*
X270500Y327500D02*X271250D01*
X275750Y333500D02*Y327500D01*
X279500Y333500D02*Y327500D01*
X275750Y330500D02*X279500D01*
X281300Y329750D02*Y328250D01*
Y329750D02*X282050Y330500D01*
X283550D01*
X284300Y329750D01*
Y328250D01*
X283550Y327500D02*X284300Y328250D01*
X282050Y327500D02*X283550D01*
X281300Y328250D02*X282050Y327500D01*
X286100Y333500D02*Y328250D01*
X286850Y327500D01*
X289100Y329750D02*Y327500D01*
Y329750D02*X289850Y330500D01*
X290600D01*
X291350Y329750D01*
Y327500D01*
Y329750D02*X292100Y330500D01*
X292850D01*
X293600Y329750D01*
Y327500D01*
X288350Y330500D02*X289100Y329750D01*
X296150Y327500D02*X298400D01*
X295400Y328250D02*X296150Y327500D01*
X295400Y329750D02*Y328250D01*
Y329750D02*X296150Y330500D01*
X297650D01*
X298400Y329750D01*
X295400Y329000D02*X298400D01*
Y329750D02*Y329000D01*
X300950Y327500D02*X303200D01*
X303950Y328250D01*
X303200Y329000D02*X303950Y328250D01*
X300950Y329000D02*X303200D01*
X300200Y329750D02*X300950Y329000D01*
X300200Y329750D02*X300950Y330500D01*
X303200D01*
X303950Y329750D01*
X300200Y328250D02*X300950Y327500D01*
X200000Y348500D02*X203000D01*
X201500D02*Y342500D01*
X204800Y347000D02*Y346250D01*
Y344750D02*Y342500D01*
X207050Y348500D02*Y343250D01*
X207800Y342500D01*
X206300Y346250D02*X207800D01*
X209300Y348500D02*Y343250D01*
X210050Y342500D01*
X212300D02*X214550D01*
X211550Y343250D02*X212300Y342500D01*
X211550Y344750D02*Y343250D01*
Y344750D02*X212300Y345500D01*
X213800D01*
X214550Y344750D01*
X211550Y344000D02*X214550D01*
Y344750D02*Y344000D01*
X216350Y346250D02*X217100D01*
X216350Y344750D02*X217100D01*
X221600Y343250D02*X222350Y342500D01*
X221600Y347750D02*X222350Y348500D01*
X221600Y347750D02*Y343250D01*
X224150Y345500D02*Y343250D01*
X224900Y342500D01*
X226400D01*
X227150Y343250D01*
Y345500D02*Y343250D01*
X229700Y344750D02*Y342500D01*
Y344750D02*X230450Y345500D01*
X231200D01*
X231950Y344750D01*
Y342500D01*
X228950Y345500D02*X229700Y344750D01*
X233750Y348500D02*Y342500D01*
Y344750D02*X236000Y342500D01*
X233750Y344750D02*X235250Y346250D01*
X238550Y344750D02*Y342500D01*
Y344750D02*X239300Y345500D01*
X240050D01*
X240800Y344750D01*
Y342500D01*
X237800Y345500D02*X238550Y344750D01*
X242600D02*Y343250D01*
Y344750D02*X243350Y345500D01*
X244850D01*
X245600Y344750D01*
Y343250D01*
X244850Y342500D02*X245600Y343250D01*
X243350Y342500D02*X244850D01*
X242600Y343250D02*X243350Y342500D01*
X247400Y345500D02*Y343250D01*
X248150Y342500D01*
X248900D01*
X249650Y343250D01*
Y345500D02*Y343250D01*
X250400Y342500D01*
X251150D01*
X251900Y343250D01*
Y345500D02*Y343250D01*
X254450Y344750D02*Y342500D01*
Y344750D02*X255200Y345500D01*
X255950D01*
X256700Y344750D01*
Y342500D01*
X253700Y345500D02*X254450Y344750D01*
X258500Y348500D02*X259250Y347750D01*
Y343250D01*
X258500Y342500D02*X259250Y343250D01*
X263750Y345500D02*X266750D01*
X271250Y348500D02*Y342500D01*
Y348500D02*X274250D01*
X271250Y345500D02*X273500D01*
X278300D02*X279050Y344750D01*
X276800Y345500D02*X278300D01*
X276050Y344750D02*X276800Y345500D01*
X276050Y344750D02*Y343250D01*
X276800Y342500D01*
X279050Y345500D02*Y343250D01*
X279800Y342500D01*
X276800D02*X278300D01*
X279050Y343250D01*
X281600Y348500D02*Y342500D01*
Y343250D02*X282350Y342500D01*
X283850D01*
X284600Y343250D01*
Y344750D02*Y343250D01*
X283850Y345500D02*X284600Y344750D01*
X282350Y345500D02*X283850D01*
X281600Y344750D02*X282350Y345500D01*
X287150Y344750D02*Y342500D01*
Y344750D02*X287900Y345500D01*
X289400D01*
X286400D02*X287150Y344750D01*
X291200Y347000D02*Y346250D01*
Y344750D02*Y342500D01*
X293450Y345500D02*X295700D01*
X292700Y344750D02*X293450Y345500D01*
X292700Y344750D02*Y343250D01*
X293450Y342500D01*
X295700D01*
X299750Y345500D02*X300500Y344750D01*
X298250Y345500D02*X299750D01*
X297500Y344750D02*X298250Y345500D01*
X297500Y344750D02*Y343250D01*
X298250Y342500D01*
X300500Y345500D02*Y343250D01*
X301250Y342500D01*
X298250D02*X299750D01*
X300500Y343250D01*
X303800Y348500D02*Y343250D01*
X304550Y342500D01*
X303050Y346250D02*X304550D01*
X306050Y347000D02*Y346250D01*
Y344750D02*Y342500D01*
X307550Y344750D02*Y343250D01*
Y344750D02*X308300Y345500D01*
X309800D01*
X310550Y344750D01*
Y343250D01*
X309800Y342500D02*X310550Y343250D01*
X308300Y342500D02*X309800D01*
X307550Y343250D02*X308300Y342500D01*
X313100Y344750D02*Y342500D01*
Y344750D02*X313850Y345500D01*
X314600D01*
X315350Y344750D01*
Y342500D01*
X312350Y345500D02*X313100Y344750D01*
X320600Y348500D02*Y342500D01*
X322850Y348500D02*X323600Y347750D01*
Y343250D01*
X322850Y342500D02*X323600Y343250D01*
X319850Y342500D02*X322850D01*
X319850Y348500D02*X322850D01*
X326150Y344750D02*Y342500D01*
Y344750D02*X326900Y345500D01*
X328400D01*
X325400D02*X326150Y344750D01*
X332450Y345500D02*X333200Y344750D01*
X330950Y345500D02*X332450D01*
X330200Y344750D02*X330950Y345500D01*
X330200Y344750D02*Y343250D01*
X330950Y342500D01*
X333200Y345500D02*Y343250D01*
X333950Y342500D01*
X330950D02*X332450D01*
X333200Y343250D01*
X335750Y345500D02*Y343250D01*
X336500Y342500D01*
X337250D01*
X338000Y343250D01*
Y345500D02*Y343250D01*
X338750Y342500D01*
X339500D01*
X340250Y343250D01*
Y345500D02*Y343250D01*
X342050Y347000D02*Y346250D01*
Y344750D02*Y342500D01*
X344300Y344750D02*Y342500D01*
Y344750D02*X345050Y345500D01*
X345800D01*
X346550Y344750D01*
Y342500D01*
X343550Y345500D02*X344300Y344750D01*
X350600Y345500D02*X351350Y344750D01*
X349100Y345500D02*X350600D01*
X348350Y344750D02*X349100Y345500D01*
X348350Y344750D02*Y343250D01*
X349100Y342500D01*
X350600D01*
X351350Y343250D01*
X348350Y341000D02*X349100Y340250D01*
X350600D01*
X351350Y341000D01*
Y345500D02*Y341000D01*
M02*
