G04 start of page 8 for group -4062 idx -4062 *
G04 Title: (unknown), soldermask *
G04 Creator: pcb 4.0.2 *
G04 CreationDate: Thu Jul  2 20:22:59 2020 UTC *
G04 For: ndholmes *
G04 Format: Gerber/RS-274X *
G04 PCB-Dimensions (mil): 4000.00 2900.00 *
G04 PCB-Coordinate-Origin: lower left *
%MOIN*%
%FSLAX25Y25*%
%LNBOTTOMMASK*%
%ADD93C,0.1025*%
%ADD92C,0.1035*%
%ADD91C,0.0490*%
%ADD90C,0.0750*%
%ADD89C,0.1700*%
%ADD88C,0.1950*%
%ADD87C,0.0660*%
%ADD86C,0.2997*%
%ADD85C,0.0860*%
%ADD84C,0.0001*%
G54D84*G36*
X17700Y157300D02*Y148700D01*
X26300D01*
Y157300D01*
X17700D01*
G37*
G54D85*X22000Y133000D03*
G54D84*G36*
X17700Y197300D02*Y188700D01*
X26300D01*
Y197300D01*
X17700D01*
G37*
G54D85*X22000Y173000D03*
G54D86*X17000Y273000D03*
G54D87*X243500D03*
X233500D03*
X223500D03*
X213500D03*
X203500D03*
G54D88*X54700Y234400D03*
G54D89*X30700D03*
X42700Y215400D03*
G54D86*X383000Y273000D03*
Y56500D03*
G54D90*X246095Y10142D03*
X220505D03*
X312795D03*
X287205D03*
X312795Y27858D03*
G54D85*X355064Y90300D03*
X325536D03*
G54D90*X287205Y27858D03*
G54D91*X316000Y235000D03*
G54D84*G36*
X350200Y276300D02*Y269700D01*
X356800D01*
Y276300D01*
X350200D01*
G37*
G54D87*X343500Y273000D03*
X333500D03*
X323500D03*
X313500D03*
X303500D03*
X293500D03*
X283500D03*
G54D90*X112795Y10142D03*
X179495D03*
X153905D03*
X87205D03*
Y27858D03*
X112795D03*
X179495D03*
X153905D03*
X246095D03*
X220505D03*
G54D86*X17000Y56500D03*
G54D84*G36*
X19373Y114745D02*Y106145D01*
X27973D01*
Y114745D01*
X19373D01*
G37*
G54D85*X23673Y96665D03*
Y82886D03*
G54D87*X273500Y273000D03*
X263500D03*
X253500D03*
G54D92*X336000Y221000D03*
X323500D03*
G54D93*Y241000D03*
G54D92*X336000D03*
G54D91*Y231000D03*
X316000Y227000D03*
M02*
