G04 start of page 9 for group -4079 idx -4079 *
G04 Title: (unknown), topsilk *
G04 Creator: pcb 4.0.2 *
G04 CreationDate: Thu Jul  2 20:22:59 2020 UTC *
G04 For: ndholmes *
G04 Format: Gerber/RS-274X *
G04 PCB-Dimensions (mil): 4000.00 2900.00 *
G04 PCB-Coordinate-Origin: lower left *
%MOIN*%
%FSLAX25Y25*%
%LNTOPSILK*%
%ADD98C,0.0050*%
%ADD97C,0.0020*%
%ADD96C,0.0080*%
%ADD95C,0.0100*%
%ADD94C,0.0001*%
G54D94*G36*
X100543Y85209D02*X100147Y85480D01*
X100011Y85925D01*
X100065Y86240D01*
X100261Y86490D01*
X100391Y86604D01*
Y88486D01*
X99718D01*
X99241Y88481D01*
X99045Y88464D01*
X98953Y88340D01*
X98600Y88117D01*
X98172D01*
X97873Y88307D01*
X97689Y88600D01*
X97662Y88931D01*
X97770Y89224D01*
X97987Y89446D01*
X98302Y89566D01*
X98682Y89512D01*
X98991Y89273D01*
X99056Y89175D01*
X99724D01*
X100391Y89170D01*
Y90667D01*
X98058D01*
Y91400D01*
X98053Y92127D01*
X97955Y92197D01*
X97787Y92376D01*
X97678Y92593D01*
X97689Y93027D01*
X97873Y93315D01*
X98161Y93494D01*
X98497Y93526D01*
X98790Y93423D01*
X99013Y93201D01*
X99132Y92881D01*
X99078Y92506D01*
X98839Y92197D01*
X98742Y92127D01*
Y91351D01*
X100391D01*
Y93656D01*
X100857Y94248D01*
X101329Y94839D01*
Y96906D01*
X100418D01*
Y97693D01*
X104802D01*
Y99066D01*
X101986D01*
Y97693D01*
X101329D01*
Y99066D01*
X100418D01*
Y99825D01*
X101319D01*
Y101192D01*
X102002Y101219D01*
X101997Y100557D01*
X101991Y100086D01*
X102002Y99868D01*
X102067Y99858D01*
X102290Y99847D01*
X102724Y99841D01*
X103407Y99836D01*
X104802D01*
Y101219D01*
X102002D01*
X101319Y101192D01*
X100418D01*
Y101952D01*
X101329D01*
X101986Y101979D01*
X104802D01*
Y103352D01*
X101986D01*
Y101979D01*
X101329Y101952D01*
Y103324D01*
X100418D01*
Y104084D01*
X101319D01*
X101329Y105462D01*
X101986Y105505D01*
Y104827D01*
X101991Y104344D01*
X102008Y104127D01*
X102420Y104117D01*
X103407Y104111D01*
X104791D01*
X104796Y104800D01*
Y104816D01*
X104807Y105505D01*
X101986D01*
X101329Y105462D01*
X100418D01*
Y106222D01*
X101319D01*
Y107594D01*
X102002Y107648D01*
X101997Y106992D01*
X101991Y106515D01*
X102002Y106297D01*
X102067Y106287D01*
X102290Y106276D01*
X102724Y106270D01*
X103407Y106265D01*
X104807D01*
X104796Y106959D01*
X104791Y107648D01*
X102002D01*
X101319Y107594D01*
X100418D01*
Y108354D01*
X101329D01*
Y109596D01*
X101986D01*
Y108354D01*
X104802D01*
Y109596D01*
X105491D01*
Y108354D01*
X106402D01*
Y107594D01*
X105491D01*
Y106194D01*
X106402D01*
Y105435D01*
X105491D01*
Y104041D01*
X106402D01*
Y103281D01*
X105491D01*
Y101908D01*
X106402D01*
Y101149D01*
X105491D01*
Y99755D01*
X106402D01*
Y98995D01*
X105491D01*
Y97622D01*
X106402D01*
Y96836D01*
X105491D01*
X105485Y96250D01*
Y95658D01*
X104069Y93868D01*
X102648Y92083D01*
Y88074D01*
X103624Y87097D01*
X106044D01*
Y89219D01*
X106039Y90043D01*
Y90716D01*
X106033Y91172D01*
X106028Y91334D01*
X105903Y91427D01*
X105659Y91893D01*
X105794Y92409D01*
X106370Y92718D01*
X106972Y92447D01*
X107129Y91882D01*
X106831Y91372D01*
X106733Y91302D01*
Y86414D01*
X103342D01*
X101986Y87770D01*
Y92344D01*
X103396Y94123D01*
X104802Y95903D01*
Y96841D01*
X101986D01*
Y94503D01*
X101074Y93353D01*
Y86522D01*
X101140Y86490D01*
X101319Y86321D01*
X101449Y86088D01*
X101416Y85573D01*
X101069Y85193D01*
X100803Y85133D01*
X100543Y85144D01*
Y85209D01*
G37*
G36*
X116385Y86229D02*X114567Y86571D01*
X112983Y87293D01*
X111876Y88171D01*
X110932Y89278D01*
X110070Y90841D01*
X109424Y92696D01*
X109326Y93065D01*
X111746Y93581D01*
X112679Y93781D01*
X113455Y93944D01*
X113981Y94047D01*
X114182Y94080D01*
X114236Y93868D01*
X114285Y93618D01*
X114367Y93282D01*
X114730Y92257D01*
X115245Y91432D01*
X115891Y90824D01*
X116662Y90461D01*
X116900Y90418D01*
X117296Y90401D01*
X117687Y90418D01*
X117942Y90461D01*
X118962Y91047D01*
X119521Y92083D01*
X119575Y92712D01*
X119521Y93309D01*
X120123Y93483D01*
X120161Y92067D01*
X119803Y91117D01*
X119173Y90385D01*
X118316Y89924D01*
X117280Y89756D01*
X115951Y90059D01*
X114882Y90884D01*
X114090Y92127D01*
X113889Y92653D01*
X113743Y93157D01*
X113694Y93326D01*
X113645Y93342D01*
X113493Y93315D01*
X113135Y93239D01*
X112609Y93125D01*
X111979Y92989D01*
X110829Y92745D01*
X110292Y92626D01*
X110129Y92577D01*
Y92544D01*
X110178Y92360D01*
X110303Y91991D01*
X110449Y91584D01*
X110574Y91258D01*
X111572Y89479D01*
X112858Y88150D01*
X114432Y87282D01*
X116303Y86864D01*
X116699Y86853D01*
X117247D01*
X117795Y86869D01*
X118218Y86902D01*
X119548Y87157D01*
X120709Y87591D01*
X121609Y88123D01*
X122363Y88779D01*
X122966Y89560D01*
X123432Y90466D01*
X123660Y91161D01*
X123817Y91947D01*
X123866Y92902D01*
X123817Y93836D01*
X123590Y94823D01*
X123232Y95713D01*
X122711Y96532D01*
X122027Y97313D01*
X121327Y97959D01*
X120519Y98556D01*
X119445Y99217D01*
X117953Y100047D01*
X116808Y100682D01*
X116016Y101160D01*
X115463Y101561D01*
X115034Y101963D01*
X114486Y102749D01*
X114318Y103617D01*
X114464Y104659D01*
X114898Y105473D01*
X115603Y106037D01*
X116558Y106319D01*
X117139Y106336D01*
X117714Y106270D01*
X118484Y105977D01*
X119152Y105451D01*
X119727Y104686D01*
X120221Y103666D01*
X120307Y103466D01*
X120367Y103422D01*
X120530Y103471D01*
X120909Y103574D01*
X121419Y103726D01*
X122005Y103894D01*
X122581Y104062D01*
X123080Y104214D01*
X123438Y104317D01*
X123579Y104361D01*
X123552Y104485D01*
X123465Y104762D01*
X123340Y105104D01*
X123221Y105419D01*
X122543Y106634D01*
X121653Y107638D01*
X120579Y108413D01*
X119325Y108940D01*
X117568Y109243D01*
X115647Y109157D01*
X113900Y108696D01*
X112500Y107860D01*
X111800Y107133D01*
X111258Y106249D01*
X110889Y105223D01*
X110688Y104073D01*
X110661Y103297D01*
X110699Y102587D01*
X110938Y101605D01*
X111377Y100699D01*
X112017Y99858D01*
X112880Y99066D01*
X113422Y98659D01*
X114052Y98246D01*
X114855Y97769D01*
X115940Y97161D01*
X116667Y96760D01*
X117209Y96451D01*
X117633Y96196D01*
X118007Y95957D01*
X119439Y94747D01*
X120123Y93483D01*
X119521Y93309D01*
X118924Y94378D01*
X117665Y95425D01*
X117302Y95658D01*
X116895Y95903D01*
X116379Y96196D01*
X115685Y96575D01*
X114307Y97351D01*
X113292Y97980D01*
X112517Y98545D01*
X111860Y99125D01*
X111111Y99966D01*
X110574Y100850D01*
X110156Y102033D01*
X110026Y103346D01*
X110118Y104632D01*
X110411Y105831D01*
X111171Y107355D01*
X112332Y108538D01*
X113862Y109363D01*
X115734Y109802D01*
X117193Y109884D01*
X118577Y109759D01*
X119852Y109433D01*
X120991Y108907D01*
X122130Y108061D01*
X123069Y106976D01*
X123796Y105674D01*
X124289Y104171D01*
X124349Y103916D01*
X122147Y103276D01*
X121284Y103032D01*
X120579Y102831D01*
X120101Y102701D01*
X119922Y102657D01*
X119846Y102858D01*
X119618Y103460D01*
X119358Y104035D01*
X118598Y105104D01*
X117649Y105636D01*
X117014Y105701D01*
X116363Y105652D01*
X115506Y105180D01*
X115169Y104719D01*
X114985Y104122D01*
X114947Y103639D01*
X114985Y103227D01*
X115332Y102576D01*
X116059Y101908D01*
X116412Y101664D01*
X116851Y101388D01*
X117426Y101062D01*
X118197Y100639D01*
X119065Y100167D01*
X119748Y99782D01*
X120307Y99451D01*
X120785Y99142D01*
X122011Y98214D01*
X122977Y97226D01*
X123704Y96174D01*
X124192Y95034D01*
X124468Y93662D01*
X124474Y92230D01*
X124219Y90830D01*
X123709Y89566D01*
X122912Y88448D01*
X121870Y87537D01*
X120600Y86859D01*
X119135Y86414D01*
X117757Y86240D01*
X116385Y86235D01*
Y86229D01*
G37*
G36*
X126970Y98035D02*X127610Y98040D01*
X127604Y87141D01*
X139030D01*
Y90298D01*
X131256D01*
Y96819D01*
X136941D01*
Y99988D01*
X131256D01*
Y105771D01*
X138716D01*
Y108940D01*
X127621D01*
X127610Y98040D01*
X126970Y98035D01*
Y109564D01*
X139350D01*
Y105153D01*
X131890D01*
Y100633D01*
X137571D01*
Y96223D01*
X131907D01*
X131896Y93591D01*
X131890Y90960D01*
X139654D01*
Y86522D01*
X126970D01*
Y98035D01*
G37*
G36*
X102941Y112282D02*X102056Y112569D01*
X101291Y113128D01*
X100743Y113860D01*
X100456Y114723D01*
X100418Y115363D01*
X100499Y115982D01*
X100809Y116747D01*
X101329Y117398D01*
X102176Y117973D01*
X103147Y118216D01*
X104156Y118129D01*
X105100Y117702D01*
X105653Y117197D01*
X106077Y116579D01*
X106310Y115895D01*
X106380Y115168D01*
X106272Y114441D01*
X106006Y113768D01*
X105599Y113220D01*
X105084Y112775D01*
X104482Y112455D01*
X103831Y112282D01*
X103380Y112260D01*
X102941Y112282D01*
G37*
G54D95*X399500Y40500D02*Y289500D01*
X74500Y40500D02*Y500D01*
X325500D01*
Y40500D01*
X399500D01*
X98500Y73500D02*X173500D01*
X500Y289500D02*Y40500D01*
X399500Y289500D02*X500D01*
Y40500D02*X74500D01*
G54D96*X3000Y154000D02*X6500D01*
X7000Y153500D01*
Y152000D01*
X6500Y151500D01*
X3000D02*X6500D01*
X5000Y154000D02*Y151500D01*
X7000Y176000D02*X6500Y175500D01*
X7000Y177500D02*Y176000D01*
X6500Y178000D02*X7000Y177500D01*
X3500Y178000D02*X6500D01*
X3500D02*X3000Y177500D01*
Y176000D01*
X3500Y175500D01*
X4500D01*
X5000Y176000D02*X4500Y175500D01*
X5000Y177000D02*Y176000D01*
X3000Y174300D02*X7000D01*
X6500D02*X7000D01*
X6500D02*X4000Y171800D01*
X3000D02*X7000D01*
X3000Y170100D02*X7000D01*
Y168600D02*X6500Y168100D01*
X3500D02*X6500D01*
X3000Y168600D02*X3500Y168100D01*
X3000Y170600D02*Y168600D01*
X7000Y170600D02*Y168600D01*
X4000Y197000D02*X7000D01*
X4000D02*X3000Y196000D01*
X4000Y195000D01*
X7000D01*
Y193800D02*Y192800D01*
X3000Y193300D02*X7000D01*
X3000Y193800D02*Y192800D01*
Y191600D02*X7000D01*
X6500D02*X7000D01*
X6500D02*X4000Y189100D01*
X3000D02*X7000D01*
X3000Y134000D02*Y132000D01*
X3500Y131500D01*
X4500D01*
X5000Y132000D02*X4500Y131500D01*
X5000Y133500D02*Y132000D01*
X3000Y133500D02*X7000D01*
Y134000D02*Y132000D01*
X6500Y131500D01*
X5500D02*X6500D01*
X5000Y132000D02*X5500Y131500D01*
X7000Y99500D02*X6500Y99000D01*
X7000Y101000D02*Y99500D01*
X6500Y101500D02*X7000Y101000D01*
X3500Y101500D02*X6500D01*
X3500D02*X3000Y101000D01*
Y99500D01*
X3500Y99000D01*
X4500D01*
X5000Y99500D02*X4500Y99000D01*
X5000Y100500D02*Y99500D01*
X3000Y97800D02*X7000D01*
X6500D02*X7000D01*
X6500D02*X4000Y95300D01*
X3000D02*X7000D01*
X3000Y93600D02*X7000D01*
Y92100D02*X6500Y91600D01*
X3500D02*X6500D01*
X3000Y92100D02*X3500Y91600D01*
X3000Y94100D02*Y92100D01*
X7000Y94100D02*Y92100D01*
Y114000D02*Y113000D01*
X3000Y113500D02*X7000D01*
X3000Y114000D02*Y113000D01*
Y111800D02*X7000D01*
X6500D02*X7000D01*
X6500D02*X4000Y109300D01*
X3000D02*X7000D01*
X3000Y107600D02*Y106600D01*
Y107100D02*X7000D01*
X6000Y108100D02*X7000Y107100D01*
Y87000D02*Y86000D01*
X3000Y86500D02*X7000D01*
X3000Y87000D02*Y86000D01*
Y84800D02*X7000D01*
X6500D02*X7000D01*
X6500D02*X4000Y82300D01*
X3000D02*X7000D01*
X6500Y81100D02*X7000Y80600D01*
Y79100D01*
X6500Y78600D01*
X5500D02*X6500D01*
X3000Y81100D02*X5500Y78600D01*
X3000Y81100D02*Y78600D01*
X86500Y137000D02*X88500Y135000D01*
X86500D02*X88500Y137000D01*
X86500Y136000D02*X88500D01*
X87500Y137000D02*Y135000D01*
X99000Y80000D02*X100000D01*
X99500D02*Y76000D01*
X99000D02*X100000D01*
X101200Y77500D02*Y76500D01*
Y77500D02*X101700Y78000D01*
X102700D01*
X103200Y77500D01*
Y76500D01*
X102700Y76000D02*X103200Y76500D01*
X101700Y76000D02*X102700D01*
X101200Y76500D02*X101700Y76000D01*
X104400Y78000D02*Y76500D01*
X104900Y76000D01*
X105400D01*
X105900Y76500D01*
Y78000D02*Y76500D01*
X106400Y76000D01*
X106900D01*
X107400Y76500D01*
Y78000D02*Y76500D01*
X110100Y78000D02*X110600Y77500D01*
X109100Y78000D02*X110100D01*
X108600Y77500D02*X109100Y78000D01*
X108600Y77500D02*Y76500D01*
X109100Y76000D01*
X110600Y78000D02*Y76500D01*
X111100Y76000D01*
X109100D02*X110100D01*
X110600Y76500D01*
X116100Y80000D02*X116600Y79500D01*
X114600Y80000D02*X116100D01*
X114100Y79500D02*X114600Y80000D01*
X114100Y79500D02*Y78500D01*
X114600Y78000D01*
X116100D01*
X116600Y77500D01*
Y76500D01*
X116100Y76000D02*X116600Y76500D01*
X114600Y76000D02*X116100D01*
X114100Y76500D02*X114600Y76000D01*
X118300Y78000D02*X119800D01*
X117800Y77500D02*X118300Y78000D01*
X117800Y77500D02*Y76500D01*
X118300Y76000D01*
X119800D01*
X122500Y78000D02*X123000Y77500D01*
X121500Y78000D02*X122500D01*
X121000Y77500D02*X121500Y78000D01*
X121000Y77500D02*Y76500D01*
X121500Y76000D01*
X123000Y78000D02*Y76500D01*
X123500Y76000D01*
X121500D02*X122500D01*
X123000Y76500D01*
X124700Y80000D02*Y76500D01*
X125200Y76000D01*
X126700D02*X128200D01*
X126200Y76500D02*X126700Y76000D01*
X126200Y77500D02*Y76500D01*
Y77500D02*X126700Y78000D01*
X127700D01*
X128200Y77500D01*
X126200Y77000D02*X128200D01*
Y77500D02*Y77000D01*
X131400Y80000D02*Y76000D01*
X130900D02*X131400Y76500D01*
X129900Y76000D02*X130900D01*
X129400Y76500D02*X129900Y76000D01*
X129400Y77500D02*Y76500D01*
Y77500D02*X129900Y78000D01*
X130900D01*
X131400Y77500D01*
X134400Y78000D02*X135900D01*
X134400Y76000D02*X136400D01*
X134400Y80000D02*Y76000D01*
Y80000D02*X136400D01*
X138100Y77500D02*Y76000D01*
Y77500D02*X138600Y78000D01*
X139100D01*
X139600Y77500D01*
Y76000D01*
X137600Y78000D02*X138100Y77500D01*
X142300Y78000D02*X142800Y77500D01*
X141300Y78000D02*X142300D01*
X140800Y77500D02*X141300Y78000D01*
X140800Y77500D02*Y76500D01*
X141300Y76000D01*
X142300D01*
X142800Y76500D01*
X140800Y75000D02*X141300Y74500D01*
X142300D01*
X142800Y75000D01*
Y78000D02*Y75000D01*
X144000Y79000D02*Y78500D01*
Y77500D02*Y76000D01*
X145500Y77500D02*Y76000D01*
Y77500D02*X146000Y78000D01*
X146500D01*
X147000Y77500D01*
Y76000D01*
X145000Y78000D02*X145500Y77500D01*
X148700Y76000D02*X150200D01*
X148200Y76500D02*X148700Y76000D01*
X148200Y77500D02*Y76500D01*
Y77500D02*X148700Y78000D01*
X149700D01*
X150200Y77500D01*
X148200Y77000D02*X150200D01*
Y77500D02*Y77000D01*
X151900Y76000D02*X153400D01*
X151400Y76500D02*X151900Y76000D01*
X151400Y77500D02*Y76500D01*
Y77500D02*X151900Y78000D01*
X152900D01*
X153400Y77500D01*
X151400Y77000D02*X153400D01*
Y77500D02*Y77000D01*
X155100Y77500D02*Y76000D01*
Y77500D02*X155600Y78000D01*
X156600D01*
X154600D02*X155100Y77500D01*
X157800Y79000D02*Y78500D01*
Y77500D02*Y76000D01*
X159300Y77500D02*Y76000D01*
Y77500D02*X159800Y78000D01*
X160300D01*
X160800Y77500D01*
Y76000D01*
X158800Y78000D02*X159300Y77500D01*
X163500Y78000D02*X164000Y77500D01*
X162500Y78000D02*X163500D01*
X162000Y77500D02*X162500Y78000D01*
X162000Y77500D02*Y76500D01*
X162500Y76000D01*
X163500D01*
X164000Y76500D01*
X162000Y75000D02*X162500Y74500D01*
X163500D01*
X164000Y75000D01*
Y78000D02*Y75000D01*
X99500Y59500D02*X101000D01*
X99000Y60000D02*X99500Y59500D01*
X99000Y63000D02*Y60000D01*
Y63000D02*X99500Y63500D01*
X101000D01*
X102700Y59500D02*X104200D01*
X102200Y60000D02*X102700Y59500D01*
X102200Y63000D02*Y60000D01*
Y63000D02*X102700Y63500D01*
X104200D01*
X107200Y59500D02*X109200D01*
X109700Y60000D01*
Y61000D02*Y60000D01*
X109200Y61500D02*X109700Y61000D01*
X107700Y61500D02*X109200D01*
X107700Y63500D02*Y59500D01*
X107200Y63500D02*X109200D01*
X109700Y63000D01*
Y62000D01*
X109200Y61500D02*X109700Y62000D01*
X110900Y63500D02*Y63000D01*
X111900Y62000D01*
X112900Y63000D01*
Y63500D02*Y63000D01*
X111900Y62000D02*Y59500D01*
X114100Y61500D02*X116100D01*
X119300Y63500D02*X119800Y63000D01*
X117800Y63500D02*X119300D01*
X117300Y63000D02*X117800Y63500D01*
X117300Y63000D02*Y62000D01*
X117800Y61500D01*
X119300D01*
X119800Y61000D01*
Y60000D01*
X119300Y59500D02*X119800Y60000D01*
X117800Y59500D02*X119300D01*
X117300Y60000D02*X117800Y59500D01*
X121000Y63000D02*Y59500D01*
Y63000D02*X121500Y63500D01*
X123000D01*
X123500Y63000D01*
Y59500D01*
X121000Y61500D02*X123500D01*
X126500Y60000D02*X127000Y59500D01*
X126500Y63000D02*X127000Y63500D01*
X126500Y63000D02*Y60000D01*
X128700Y59500D02*X130200D01*
X128200Y60000D02*X128700Y59500D01*
X128200Y63000D02*Y60000D01*
Y63000D02*X128700Y63500D01*
X130200D01*
X131400D02*X131900Y63000D01*
Y60000D01*
X131400Y59500D02*X131900Y60000D01*
X134900Y63000D02*X135400Y63500D01*
X136900D01*
X137400Y63000D01*
Y62000D01*
X134900Y59500D02*X137400Y62000D01*
X134900Y59500D02*X137400D01*
X138600Y60000D02*X139100Y59500D01*
X138600Y63000D02*Y60000D01*
Y63000D02*X139100Y63500D01*
X140100D01*
X140600Y63000D01*
Y60000D01*
X140100Y59500D02*X140600Y60000D01*
X139100Y59500D02*X140100D01*
X138600Y60500D02*X140600Y62500D01*
X141800Y63000D02*X142300Y63500D01*
X143800D01*
X144300Y63000D01*
Y62000D01*
X141800Y59500D02*X144300Y62000D01*
X141800Y59500D02*X144300D01*
X145500Y60000D02*X146000Y59500D01*
X145500Y63000D02*Y60000D01*
Y63000D02*X146000Y63500D01*
X147000D01*
X147500Y63000D01*
Y60000D01*
X147000Y59500D02*X147500Y60000D01*
X146000Y59500D02*X147000D01*
X145500Y60500D02*X147500Y62500D01*
X166500Y101000D02*Y99500D01*
X166000Y99000D02*X166500Y99500D01*
X163000Y99000D02*X166000D01*
X163000D02*X162500Y99500D01*
Y101000D02*Y99500D01*
X163000Y102200D02*X166000D01*
X163000D02*X162500Y102700D01*
Y103700D02*Y102700D01*
Y103700D02*X163000Y104200D01*
X166000D01*
X166500Y103700D02*X166000Y104200D01*
X166500Y103700D02*Y102700D01*
X166000Y102200D02*X166500Y102700D01*
X162500Y105400D02*X166500D01*
X162500D02*X163000D01*
X165500Y107900D01*
X162500D02*X166500D01*
X162500Y109100D02*X166500D01*
X162500D02*X163000D01*
X165500Y111600D01*
X162500D02*X166500D01*
X164500Y114300D02*Y112800D01*
X166500Y114800D02*Y112800D01*
X162500D02*X166500D01*
X162500Y114800D02*Y112800D01*
X166500Y118000D02*Y116500D01*
X166000Y116000D02*X166500Y116500D01*
X163000Y116000D02*X166000D01*
X163000D02*X162500Y116500D01*
Y118000D02*Y116500D01*
Y121200D02*Y119200D01*
Y120200D02*X166500D01*
X163000Y122400D02*X166000D01*
X163000D02*X162500Y122900D01*
Y123900D02*Y122900D01*
Y123900D02*X163000Y124400D01*
X166000D01*
X166500Y123900D02*X166000Y124400D01*
X166500Y123900D02*Y122900D01*
X166000Y122400D02*X166500Y122900D01*
X162500Y127600D02*Y125600D01*
Y127600D02*X163000Y128100D01*
X164000D01*
X164500Y127600D02*X164000Y128100D01*
X164500Y127600D02*Y126100D01*
X162500D02*X166500D01*
X164500D02*X166500Y128100D01*
X158500Y100000D02*Y98500D01*
X160500Y100500D02*Y98500D01*
X156500D02*X160500D01*
X156500Y100500D02*Y98500D01*
Y101700D02*X157000D01*
X159500Y104200D01*
X160500D01*
X159500Y101700D02*X160500D01*
X159500D02*X157000Y104200D01*
X156500D02*X157000D01*
X156500Y105900D02*X160500D01*
X156500Y107400D02*Y105400D01*
Y107400D02*X157000Y107900D01*
X158000D01*
X158500Y107400D02*X158000Y107900D01*
X158500Y107400D02*Y105900D01*
X157000Y109100D02*X160500D01*
X157000D02*X156500Y109600D01*
Y111100D02*Y109600D01*
Y111100D02*X157000Y111600D01*
X160500D01*
X158500D02*Y109100D01*
X156500Y112800D02*X160500D01*
X156500D02*X157000D01*
X159500Y115300D01*
X156500D02*X160500D01*
X156500Y118500D02*X157000Y119000D01*
X156500Y118500D02*Y117000D01*
X157000Y116500D02*X156500Y117000D01*
X157000Y116500D02*X158000D01*
X158500Y117000D01*
Y118500D02*Y117000D01*
Y118500D02*X159000Y119000D01*
X160000D01*
X160500Y118500D02*X160000Y119000D01*
X160500Y118500D02*Y117000D01*
X160000Y116500D02*X160500Y117000D01*
X156500Y121200D02*Y120200D01*
Y120700D02*X160500D01*
Y121200D02*Y120200D01*
X157000Y122400D02*X160000D01*
X157000D02*X156500Y122900D01*
Y123900D02*Y122900D01*
Y123900D02*X157000Y124400D01*
X160000D01*
X160500Y123900D02*X160000Y124400D01*
X160500Y123900D02*Y122900D01*
X160000Y122400D02*X160500Y122900D01*
X156500Y125600D02*X160500D01*
X156500D02*X157000D01*
X159500Y128100D01*
X156500D02*X160500D01*
X99000Y70500D02*Y66500D01*
Y70500D02*X100500Y69000D01*
X102000Y70500D01*
Y66500D01*
X103200Y70500D02*X105200D01*
X105700Y70000D01*
Y69000D01*
X105200Y68500D02*X105700Y69000D01*
X103700Y68500D02*X105200D01*
X103700Y70500D02*Y66500D01*
Y68500D02*X105700Y66500D01*
X106900D02*X108900D01*
X109400Y67000D01*
Y68000D02*Y67000D01*
X108900Y68500D02*X109400Y68000D01*
X107400Y68500D02*X108900D01*
X107400Y70500D02*Y66500D01*
X106900Y70500D02*X108900D01*
X109400Y70000D01*
Y69000D01*
X108900Y68500D02*X109400Y69000D01*
X110600Y68500D02*X112600D01*
X113800Y70500D02*Y66500D01*
Y70500D02*X115800D01*
X113800Y68500D02*X115300D01*
X117500Y66500D02*X119000D01*
X117000Y67000D02*X117500Y66500D01*
X117000Y70000D02*Y67000D01*
Y70000D02*X117500Y70500D01*
X119000D01*
X120200D02*Y66500D01*
Y70500D02*X121700Y69000D01*
X123200Y70500D01*
Y66500D01*
X126200Y68500D02*Y67500D01*
X127200Y66500D01*
X128200Y67500D01*
Y68500D02*Y67500D01*
X129400Y70000D02*X129900Y70500D01*
X131400D01*
X131900Y70000D01*
Y69000D01*
X129400Y66500D02*X131900Y69000D01*
X129400Y66500D02*X131900D01*
X133100D02*X133600D01*
X135300D02*X136300D01*
X135800Y70500D02*Y66500D01*
X134800Y69500D02*X135800Y70500D01*
X99000Y57500D02*Y53500D01*
Y55000D02*X99500Y55500D01*
X100500D01*
X101000Y55000D01*
Y53500D01*
X102700Y57500D02*Y54000D01*
X103200Y53500D01*
X102200Y56000D02*X103200D01*
X104700Y57500D02*Y54000D01*
X105200Y53500D01*
X104200Y56000D02*X105200D01*
X106700Y55000D02*Y52000D01*
X106200Y55500D02*X106700Y55000D01*
X107200Y55500D01*
X108200D01*
X108700Y55000D01*
Y54000D01*
X108200Y53500D02*X108700Y54000D01*
X107200Y53500D02*X108200D01*
X106700Y54000D02*X107200Y53500D01*
X110400D02*X111900D01*
X112400Y54000D01*
X111900Y54500D02*X112400Y54000D01*
X110400Y54500D02*X111900D01*
X109900Y55000D02*X110400Y54500D01*
X109900Y55000D02*X110400Y55500D01*
X111900D01*
X112400Y55000D01*
X109900Y54000D02*X110400Y53500D01*
X113600Y56000D02*X114100D01*
X113600Y55000D02*X114100D01*
X115300Y54000D02*X118300Y57000D01*
X119500Y54000D02*X122500Y57000D01*
X123700Y55500D02*Y54000D01*
X124200Y53500D01*
X124700D01*
X125200Y54000D01*
Y55500D02*Y54000D01*
X125700Y53500D01*
X126200D01*
X126700Y54000D01*
Y55500D02*Y54000D01*
X127900Y55500D02*Y54000D01*
X128400Y53500D01*
X128900D01*
X129400Y54000D01*
Y55500D02*Y54000D01*
X129900Y53500D01*
X130400D01*
X130900Y54000D01*
Y55500D02*Y54000D01*
X132100Y55500D02*Y54000D01*
X132600Y53500D01*
X133100D01*
X133600Y54000D01*
Y55500D02*Y54000D01*
X134100Y53500D01*
X134600D01*
X135100Y54000D01*
Y55500D02*Y54000D01*
X136300Y53500D02*X136800D01*
X138000Y56500D02*Y56000D01*
Y55000D02*Y53500D01*
X140500Y55500D02*X141000Y55000D01*
X139500Y55500D02*X140500D01*
X139000Y55000D02*X139500Y55500D01*
X139000Y55000D02*Y54000D01*
X139500Y53500D01*
X141000Y55500D02*Y54000D01*
X141500Y53500D01*
X139500D02*X140500D01*
X141000Y54000D01*
X143200Y53500D02*X144700D01*
X145200Y54000D01*
X144700Y54500D02*X145200Y54000D01*
X143200Y54500D02*X144700D01*
X142700Y55000D02*X143200Y54500D01*
X142700Y55000D02*X143200Y55500D01*
X144700D01*
X145200Y55000D01*
X142700Y54000D02*X143200Y53500D01*
X146900Y55500D02*X148400D01*
X146400Y55000D02*X146900Y55500D01*
X146400Y55000D02*Y54000D01*
X146900Y53500D01*
X148400D01*
X151100Y55500D02*X151600Y55000D01*
X150100Y55500D02*X151100D01*
X149600Y55000D02*X150100Y55500D01*
X149600Y55000D02*Y54000D01*
X150100Y53500D01*
X151600Y55500D02*Y54000D01*
X152100Y53500D01*
X150100D02*X151100D01*
X151600Y54000D01*
X153300Y57500D02*Y54000D01*
X153800Y53500D01*
X155300D02*X156800D01*
X154800Y54000D02*X155300Y53500D01*
X154800Y55000D02*Y54000D01*
Y55000D02*X155300Y55500D01*
X156300D01*
X156800Y55000D01*
X154800Y54500D02*X156800D01*
Y55000D02*Y54500D01*
X160000Y57500D02*Y53500D01*
X159500D02*X160000Y54000D01*
X158500Y53500D02*X159500D01*
X158000Y54000D02*X158500Y53500D01*
X158000Y55000D02*Y54000D01*
Y55000D02*X158500Y55500D01*
X159500D01*
X160000Y55000D01*
X161200Y53500D02*X161700D01*
X163400Y55500D02*X164900D01*
X162900Y55000D02*X163400Y55500D01*
X162900Y55000D02*Y54000D01*
X163400Y53500D01*
X164900D01*
X166100Y55000D02*Y54000D01*
Y55000D02*X166600Y55500D01*
X167600D01*
X168100Y55000D01*
Y54000D01*
X167600Y53500D02*X168100Y54000D01*
X166600Y53500D02*X167600D01*
X166100Y54000D02*X166600Y53500D01*
X169800Y55000D02*Y53500D01*
Y55000D02*X170300Y55500D01*
X170800D01*
X171300Y55000D01*
Y53500D01*
Y55000D02*X171800Y55500D01*
X172300D01*
X172800Y55000D01*
Y53500D01*
X169300Y55500D02*X169800Y55000D01*
X76000D02*Y52000D01*
Y55000D02*X76500Y55500D01*
X77500D01*
X78000Y55000D01*
Y52000D01*
X77500Y51500D02*X78000Y52000D01*
X76500Y51500D02*X77500D01*
X76000Y52000D02*X76500Y51500D01*
X77000Y52500D02*X78000Y51500D01*
X79200Y53500D02*Y52000D01*
X79700Y51500D01*
X80200D01*
X80700Y52000D01*
Y53500D02*Y52000D01*
X81200Y51500D01*
X81700D01*
X82200Y52000D01*
Y53500D02*Y52000D01*
X83400Y54500D02*Y54000D01*
Y53000D02*Y51500D01*
X84400Y54500D02*Y54000D01*
Y53000D02*Y51500D01*
X85900Y53500D02*X87400D01*
X85400Y53000D02*X85900Y53500D01*
X85400Y53000D02*Y52000D01*
X85900Y51500D01*
X87400D01*
X76500Y49000D02*X77500D01*
X77000D02*Y45000D01*
X76500D02*X77500D01*
X78700Y48500D02*X79200Y49000D01*
X80700D01*
X81200Y48500D01*
Y47500D01*
X78700Y45000D02*X81200Y47500D01*
X78700Y45000D02*X81200D01*
X82900D02*X84400D01*
X82400Y45500D02*X82900Y45000D01*
X82400Y48500D02*Y45500D01*
Y48500D02*X82900Y49000D01*
X84400D01*
X275957Y68000D02*X277957D01*
X276957Y69000D02*Y67000D01*
X282957Y75000D02*Y71500D01*
Y75000D02*X283457Y75500D01*
X284957D01*
X285457Y75000D01*
Y71500D01*
X282957Y73500D02*X285457D01*
X288657Y75500D02*X289157Y75000D01*
X287157Y75500D02*X288657D01*
X286657Y75000D02*X287157Y75500D01*
X286657Y75000D02*Y74000D01*
X287157Y73500D01*
X288657D01*
X289157Y73000D01*
Y72000D01*
X288657Y71500D02*X289157Y72000D01*
X287157Y71500D02*X288657D01*
X286657Y72000D02*X287157Y71500D01*
X292357Y75500D02*X292857Y75000D01*
X290857Y75500D02*X292357D01*
X290357Y75000D02*X290857Y75500D01*
X290357Y75000D02*Y74000D01*
X290857Y73500D01*
X292357D01*
X292857Y73000D01*
Y72000D01*
X292357Y71500D02*X292857Y72000D01*
X290857Y71500D02*X292357D01*
X290357Y72000D02*X290857Y71500D01*
X294057Y75000D02*Y72000D01*
Y75000D02*X294557Y75500D01*
X295557D01*
X296057Y75000D01*
Y72000D01*
X295557Y71500D02*X296057Y72000D01*
X294557Y71500D02*X295557D01*
X294057Y72000D02*X294557Y71500D01*
X297757D02*X299257D01*
X297257Y72000D02*X297757Y71500D01*
X297257Y75000D02*Y72000D01*
Y75000D02*X297757Y75500D01*
X299257D01*
X303500Y54500D02*X305000D01*
X303000Y55000D02*X303500Y54500D01*
X303000Y58000D02*Y55000D01*
Y58000D02*X303500Y58500D01*
X305000D01*
X306200D02*X308200D01*
X308700Y58000D01*
Y57000D01*
X308200Y56500D02*X308700Y57000D01*
X306700Y56500D02*X308200D01*
X306700Y58500D02*Y54500D01*
Y56500D02*X308700Y54500D01*
X310400D02*X311400D01*
X310900Y58500D02*Y54500D01*
X309900Y57500D02*X310900Y58500D01*
X312600Y58000D02*X313100Y58500D01*
X314600D01*
X315100Y58000D01*
Y57000D01*
X312600Y54500D02*X315100Y57000D01*
X312600Y54500D02*X315100D01*
X316300Y58000D02*X316800Y58500D01*
X318300D01*
X318800Y58000D01*
Y57000D01*
X316300Y54500D02*X318800Y57000D01*
X316300Y54500D02*X318800D01*
X320000Y55000D02*X320500Y54500D01*
X320000Y58000D02*Y55000D01*
Y58000D02*X320500Y58500D01*
X321500D01*
X322000Y58000D01*
Y55000D01*
X321500Y54500D02*X322000Y55000D01*
X320500Y54500D02*X321500D01*
X320000Y55500D02*X322000Y57500D01*
X325500Y54500D02*X327000D01*
X325000Y55000D02*X325500Y54500D01*
X325000Y58000D02*Y55000D01*
Y58000D02*X325500Y58500D01*
X327000D01*
X328200Y58000D02*Y55000D01*
Y58000D02*X328700Y58500D01*
X329700D01*
X330200Y58000D01*
Y55000D01*
X329700Y54500D02*X330200Y55000D01*
X328700Y54500D02*X329700D01*
X328200Y55000D02*X328700Y54500D01*
X331400Y58500D02*X332400D01*
X331900D02*Y54500D01*
X331400D02*X332400D01*
X333600Y58500D02*Y54500D01*
Y58500D02*Y58000D01*
X336100Y55500D01*
Y58500D02*Y54500D01*
X339600D02*X341100D01*
X339100Y55000D02*X339600Y54500D01*
X339100Y58000D02*Y55000D01*
Y58000D02*X339600Y58500D01*
X341100D01*
X342300Y56500D02*X343800D01*
X342300Y54500D02*X344300D01*
X342300Y58500D02*Y54500D01*
Y58500D02*X344300D01*
X345500D02*Y54500D01*
X347500D01*
X348700Y58500D02*Y54500D01*
X350700D01*
X282957Y104000D02*Y100000D01*
X282457Y104000D02*X284457D01*
X284957Y103500D01*
Y102500D01*
X284457Y102000D02*X284957Y102500D01*
X282957Y102000D02*X284457D01*
X286157Y104000D02*Y100000D01*
X287657Y101500D01*
X289157Y100000D01*
Y104000D02*Y100000D01*
X290357Y104000D02*X292357D01*
X292857Y103500D01*
Y102500D01*
X292357Y102000D02*X292857Y102500D01*
X290857Y102000D02*X292357D01*
X290857Y104000D02*Y100000D01*
Y102000D02*X292857Y100000D01*
X275957Y108000D02*X277957D01*
X276957Y109000D02*Y107000D01*
X282957Y94000D02*Y90500D01*
Y94000D02*X283457Y94500D01*
X284957D01*
X285457Y94000D01*
Y90500D01*
X282957Y92500D02*X285457D01*
X287157Y90500D02*X288657D01*
X286657Y91000D02*X287157Y90500D01*
X286657Y94000D02*Y91000D01*
Y94000D02*X287157Y94500D01*
X288657D01*
X289857D02*X291857D01*
X290857D02*Y90500D01*
X282457Y85000D02*X284457D01*
X284957Y84500D01*
Y83500D01*
X284457Y83000D02*X284957Y83500D01*
X282957Y83000D02*X284457D01*
X282957Y85000D02*Y81000D01*
Y83000D02*X284957Y81000D01*
X288157Y85000D02*X288657Y84500D01*
X286657Y85000D02*X288157D01*
X286157Y84500D02*X286657Y85000D01*
X286157Y84500D02*Y83500D01*
X286657Y83000D01*
X288157D01*
X288657Y82500D01*
Y81500D01*
X288157Y81000D02*X288657Y81500D01*
X286657Y81000D02*X288157D01*
X286157Y81500D02*X286657Y81000D01*
X291857Y85000D02*X292357Y84500D01*
X290357Y85000D02*X291857D01*
X289857Y84500D02*X290357Y85000D01*
X289857Y84500D02*Y83500D01*
X290357Y83000D01*
X291857D01*
X292357Y82500D01*
Y81500D01*
X291857Y81000D02*X292357Y81500D01*
X290357Y81000D02*X291857D01*
X289857Y81500D02*X290357Y81000D01*
X293557Y85000D02*X294557D01*
X294057D02*Y81000D01*
X293557D02*X294557D01*
X153000Y273000D02*X154000D01*
X153500D02*Y269000D01*
X153000D02*X154000D01*
X155700D02*X157200D01*
X155200Y269500D02*X155700Y269000D01*
X155200Y272500D02*Y269500D01*
Y272500D02*X155700Y273000D01*
X157200D01*
X160400D02*X160900Y272500D01*
X158900Y273000D02*X160400D01*
X158400Y272500D02*X158900Y273000D01*
X158400Y272500D02*Y271500D01*
X158900Y271000D01*
X160400D01*
X160900Y270500D01*
Y269500D01*
X160400Y269000D02*X160900Y269500D01*
X158900Y269000D02*X160400D01*
X158400Y269500D02*X158900Y269000D01*
X162600Y273000D02*Y269000D01*
X162100Y273000D02*X164100D01*
X164600Y272500D01*
Y271500D01*
X164100Y271000D02*X164600Y271500D01*
X162600Y271000D02*X164100D01*
X323500Y253000D02*Y252500D01*
X326000Y250000D01*
Y249000D01*
X323500Y250000D02*Y249000D01*
Y250000D02*X326000Y252500D01*
Y253000D02*Y252500D01*
X327200Y249000D02*X329200D01*
X329700Y249500D01*
Y250500D02*Y249500D01*
X329200Y251000D02*X329700Y250500D01*
X327700Y251000D02*X329200D01*
X327700Y253000D02*Y249000D01*
X327200Y253000D02*X329200D01*
X329700Y252500D01*
Y251500D01*
X329200Y251000D02*X329700Y251500D01*
X330900Y251000D02*X332400D01*
X330900Y249000D02*X332900D01*
X330900Y253000D02*Y249000D01*
Y253000D02*X332900D01*
X334100Y251000D02*X335600D01*
X334100Y249000D02*X336100D01*
X334100Y253000D02*Y249000D01*
Y253000D02*X336100D01*
X194500Y213000D02*X196500Y211000D01*
X194500D02*X196500Y213000D01*
X194500Y212000D02*X196500D01*
X195500Y213000D02*Y211000D01*
G54D95*X9200Y163000D02*Y123000D01*
X39200Y163000D02*Y123000D01*
X34800Y163000D02*Y123000D01*
X9200Y163000D02*X39200D01*
X9200Y123000D02*X39200D01*
X9500Y119500D02*Y73831D01*
X37059D01*
Y119500D01*
X9500D01*
X57607Y127245D02*X58393D01*
X57607Y132755D02*X58393D01*
X84900Y157500D02*Y138500D01*
X53900Y157500D02*X84900D01*
X53900D02*Y138500D01*
X71900D02*X84900D01*
X53900D02*X66900D01*
X71900D02*G75*G03X66900Y138500I-2500J0D01*G01*
X56100Y103700D02*Y89800D01*
X44300Y103700D02*X56100D01*
X44300D02*Y89800D01*
X56100D01*
X349564Y262755D02*X350350D01*
X349564Y257245D02*X350350D01*
X375150Y210255D02*X375936D01*
X375150Y204745D02*X375936D01*
X375107Y220255D02*X375893D01*
X375107Y214745D02*X375893D01*
X371500Y251600D02*Y235400D01*
X349500Y251600D02*Y235400D01*
Y251600D02*X371500D01*
X349500Y235400D02*X371500D01*
X198500Y278000D02*X358500D01*
X198500D02*Y268000D01*
X358500D01*
Y278000D02*Y268000D01*
X348500Y278000D02*Y268000D01*
X358500D01*
X399500Y194050D02*Y140750D01*
X323500D02*X399500D01*
X323500Y194050D02*Y140750D01*
Y194050D02*X399500D01*
G54D96*X272638Y189551D02*X286418D01*
Y173015D01*
X272638D01*
Y189551D01*
G54D95*X270638Y191051D02*G75*G03X270638Y191051I500J0D01*G01*
X259245Y188393D02*Y187607D01*
X264755Y188393D02*Y187607D01*
X278201Y203110D02*X290799D01*
X278201Y216890D02*Y203110D01*
Y216890D02*X290799D01*
Y203110D01*
X72107Y173745D02*X72893D01*
X72107Y179255D02*X72893D01*
X57807Y168755D02*X58593D01*
X57807Y163245D02*X58593D01*
X91992Y213804D02*Y207308D01*
Y233292D02*Y226796D01*
X72504Y233292D02*X91992D01*
X72504Y207308D02*X91992D01*
X72504Y233292D02*X66008Y226796D01*
X72504Y207308D02*X66008Y213804D01*
X73000Y214300D02*Y210300D01*
X71000Y212300D02*X75000D01*
X63271Y184250D02*X73901D01*
X63271Y202750D02*X73901D01*
X63271Y187500D02*Y184250D01*
Y202750D02*Y199500D01*
X73901Y184429D02*Y184250D01*
Y202750D02*Y202571D01*
X194245Y221893D02*Y221107D01*
X199755Y221893D02*Y221107D01*
X159064Y226255D02*X159850D01*
X159064Y220745D02*X159850D01*
X191000Y257300D02*X204900D01*
X191000D02*Y245500D01*
X204900D01*
Y257300D02*Y245500D01*
X171607Y197245D02*X172393D01*
X171607Y202755D02*X172393D01*
X148360Y266100D02*X168360D01*
X148360Y236100D02*X168360D01*
Y266100D02*Y265100D01*
Y237100D02*Y236100D01*
X148360Y237100D02*Y236100D01*
Y266100D02*Y265100D01*
X146360Y267600D02*G75*G03X146360Y267600I500J0D01*G01*
X95107Y249345D02*X95893D01*
X95107Y254855D02*X95893D01*
X76107Y257255D02*X76893D01*
X76107Y251745D02*X76893D01*
X78100Y272000D02*X92000D01*
X78100D02*Y260200D01*
X92000D01*
Y272000D02*Y260200D01*
X95107Y239445D02*X95893D01*
X95107Y244955D02*X95893D01*
X97550Y283450D02*Y261450D01*
Y283450D02*X119550D01*
X123550Y279450D02*Y257450D01*
X101550D02*X123550D01*
X87607Y283255D02*X88393D01*
X87607Y277745D02*X88393D01*
X9200Y203000D02*Y163000D01*
X39200Y203000D02*Y163000D01*
X34800Y203000D02*Y163000D01*
X9200Y203000D02*X39200D01*
X9200Y163000D02*X39200D01*
X30700Y217400D02*X1200D01*
Y251400D01*
X57200D01*
Y246400D01*
X53200Y217400D02*X57200D01*
Y222400D01*
X1200Y217400D02*Y251400D01*
X1700Y217400D02*Y251400D01*
X2200Y217400D02*Y251400D01*
X2700Y217400D02*Y251400D01*
X3200Y217400D02*Y251400D01*
X3700Y217400D02*Y251400D01*
X4200Y217400D02*Y251400D01*
X4700Y217400D02*Y251400D01*
X14200Y217400D02*Y251400D01*
X13700Y217400D02*Y251400D01*
X13200Y217400D02*Y251400D01*
X12700Y217400D02*Y251400D01*
X12200Y217400D02*Y251400D01*
X11700Y217400D02*Y251400D01*
X11200Y217400D02*Y251400D01*
X10700Y217400D02*Y251400D01*
X47000Y284800D02*X68000D01*
X47000Y275200D02*X68000D01*
Y284800D02*Y275200D01*
X47000Y284800D02*Y275200D01*
X60000Y284800D02*Y275200D01*
X120607Y214745D02*X121393D01*
X120607Y220255D02*X121393D01*
X92126Y7189D02*X107874D01*
X88189Y22937D02*Y15063D01*
X92126Y30811D02*X107874D01*
X111811Y22937D02*Y15063D01*
X158826Y7189D02*X174574D01*
X154889Y22937D02*Y15063D01*
X158826Y30811D02*X174574D01*
X178511Y22937D02*Y15063D01*
X225426Y7189D02*X241174D01*
X221489Y22937D02*Y15063D01*
X225426Y30811D02*X241174D01*
X245111Y22937D02*Y15063D01*
X292126Y7189D02*X307874D01*
X288189Y22937D02*Y15063D01*
X292126Y30811D02*X307874D01*
X311811Y22937D02*Y15063D01*
X171521Y176255D02*X172307D01*
X171521Y170745D02*X172307D01*
X206115Y210785D02*X241785D01*
Y172215D01*
X203215D02*X241785D01*
X203215Y207885D02*Y172215D01*
Y207885D02*X206115Y210785D01*
X205115Y207885D02*G75*G03X205115Y207885I1000J0D01*G01*
X166374Y193271D02*Y180673D01*
Y193271D02*X186060D01*
Y180673D01*
X166374D02*X186060D01*
X164874Y178673D02*G75*G03X164874Y178673I0J500D01*G01*
X302300Y60772D02*X340300D01*
X302300Y119828D02*X340300D01*
X302300D02*Y60772D01*
X340300D02*G75*G03X368047Y80201I0J29528D01*G01*
X368047Y100399D02*G75*G03X340300Y119828I-27747J-10099D01*G01*
X217701Y131259D02*X230299D01*
X217701Y138741D02*Y131259D01*
Y138741D02*X230299D01*
Y131259D01*
X241158Y92390D02*X253756D01*
Y78610D01*
X241158D01*
Y92390D01*
X273064Y85755D02*X273850D01*
X273064Y80245D02*X273850D01*
X273064Y104755D02*X273850D01*
X273064Y99245D02*X273850D01*
X273064Y76255D02*X273850D01*
X273064Y70745D02*X273850D01*
X273064Y95255D02*X273850D01*
X273064Y89745D02*X273850D01*
X164701Y160390D02*X177299D01*
Y146610D01*
X164701D01*
Y160390D01*
X202001Y115290D02*X214599D01*
Y101510D01*
X202001D02*X214599D01*
X202001Y115290D02*Y101510D01*
X193100Y79100D02*X207000D01*
Y90900D02*Y79100D01*
X193100Y90900D02*X207000D01*
X193100D02*Y79100D01*
G54D97*X139588Y186977D02*Y180678D01*
X106517Y186977D02*Y180678D01*
X139588D01*
X106517Y186977D02*X139588D01*
X103761Y181859D02*X106517D01*
X103761D02*Y151938D01*
X106517D01*
Y181859D02*Y151938D01*
X99430Y204890D02*X102383D01*
X99430D02*Y193079D01*
X102383D01*
Y204890D02*Y193079D01*
X138800Y144851D02*X139981Y143670D01*
X138800Y144064D02*X139194Y143670D01*
X139587Y148788D02*X144705Y143670D01*
X140374Y148788D02*X145492Y143670D01*
X138800D02*X149430D01*
Y148788D02*Y143670D01*
X138800Y148788D02*X149430D01*
X138800D02*Y143670D01*
X99430Y204890D02*X102382Y201938D01*
X100218Y204890D02*X102383Y202725D01*
X101005Y204890D02*X102383Y203512D01*
X101792Y204890D02*X102382Y204300D01*
X99430Y204103D02*X102382Y201151D01*
X99430Y203316D02*X102382Y200364D01*
X99430Y202529D02*X102382Y199577D01*
X99430Y201741D02*X102382Y198789D01*
X99430Y200954D02*X102382Y198002D01*
X99430Y200166D02*X102382Y197214D01*
X99430Y199379D02*X102382Y196427D01*
X99430Y198592D02*X102382Y195640D01*
X99430Y197804D02*X102382Y194852D01*
X99430Y197017D02*X102382Y194065D01*
X99430Y196229D02*X102382Y193277D01*
X99430Y195442D02*X101791Y193080D01*
X99430Y194654D02*X101005Y193079D01*
X99430Y193867D02*X100218Y193079D01*
X99430Y173787D02*X100021Y173197D01*
X141162Y148788D02*X146280Y143670D01*
X141949Y148788D02*X147067Y143670D01*
X142737Y148788D02*X147855Y143670D01*
X143524Y148788D02*X148642Y143670D01*
X144311Y148788D02*X149429Y143670D01*
Y144457D02*X145098Y148788D01*
X149429Y145245D02*X145886Y148788D01*
X149429Y146032D02*X146673Y148788D01*
X149429Y146820D02*X147461Y148788D01*
X149429Y147607D02*X148248Y148788D01*
X149429Y148394D02*X149035Y148788D01*
G54D98*X106517Y143670D02*X150611D01*
X99430Y162764D02*Y155481D01*
Y186386D02*Y167882D01*
Y206662D02*Y193079D01*
Y206662D02*X101792D01*
X141163D02*X141950D01*
X147855D02*X156517D01*
Y151938D01*
X106517Y143670D02*X105533Y144654D01*
X103958D02*X105533D01*
G54D97*X103761Y181859D02*X106517Y179103D01*
X104548Y181859D02*X106517Y179890D01*
X105336Y181859D02*X106517Y180678D01*
Y182253D02*X108092Y180678D01*
X103761Y181072D02*X106517Y178316D01*
X103761Y180284D02*X106517Y177528D01*
X103761Y179497D02*X106517Y176741D01*
X103761Y178709D02*X106517Y175953D01*
X103761Y177922D02*X106517Y175166D01*
X103761Y177135D02*X106517Y174379D01*
X103761Y176347D02*X106517Y173591D01*
X103761Y175560D02*X106517Y172804D01*
X103761Y174772D02*X106517Y172016D01*
X103761Y173985D02*X106517Y171229D01*
X103761Y173198D02*X106517Y170442D01*
X103761Y172410D02*X106517Y169654D01*
X103761Y171623D02*X106517Y168867D01*
X103761Y170835D02*X106517Y168079D01*
X103761Y170047D02*X106517Y167291D01*
X103761Y169260D02*X106517Y166504D01*
X103761Y168473D02*X106517Y165717D01*
X103761Y167685D02*X106517Y164929D01*
X103761Y166898D02*X106517Y164142D01*
X103761Y166110D02*X106517Y163354D01*
X103761Y165323D02*X106517Y162567D01*
X103761Y164536D02*X106517Y161780D01*
X103761Y163748D02*X106517Y160992D01*
X103761Y162961D02*X106517Y160205D01*
X103761Y162173D02*X106517Y159417D01*
X103761Y161386D02*X106517Y158630D01*
X103761Y160599D02*X106517Y157843D01*
X103761Y159812D02*X106517Y157056D01*
X103761Y159024D02*X106517Y156268D01*
X103761Y158237D02*X106517Y155481D01*
X103761Y157449D02*X106517Y154693D01*
X103761Y156662D02*X106517Y153906D01*
X103761Y155875D02*X106517Y153119D01*
X103761Y155087D02*X106517Y152331D01*
X103761Y154300D02*X106123Y151938D01*
X103761Y153512D02*X105336Y151938D01*
X103761Y152725D02*X104548Y151938D01*
X106517Y186977D02*X112816Y180678D01*
X106517Y186190D02*X112029Y180678D01*
X106517Y185402D02*X111241Y180678D01*
X106517Y184615D02*X110454Y180678D01*
X106517Y183827D02*X109667Y180677D01*
X106517Y183040D02*X108879Y180678D01*
X106123Y181859D02*X107304Y180678D01*
X107305Y186977D02*X113604Y180678D01*
X108092Y186977D02*X114391Y180678D01*
X108880Y186977D02*X115179Y180678D01*
X109667Y186977D02*X115966Y180678D01*
X110455Y186977D02*X116754Y180678D01*
X111242Y186977D02*X117541Y180678D01*
X112030Y186977D02*X118329Y180678D01*
X112817Y186977D02*X119116Y180678D01*
X113605Y186977D02*X119904Y180678D01*
X114392Y186977D02*X120691Y180678D01*
X115180Y186977D02*X121479Y180678D01*
X115967Y186977D02*X122266Y180678D01*
X116755Y186977D02*X123054Y180678D01*
X117542Y186977D02*X123841Y180678D01*
X118330Y186977D02*X124629Y180678D01*
X119116Y186977D02*X125415Y180678D01*
X119904Y186977D02*X126203Y180678D01*
X120691Y186977D02*X126990Y180678D01*
X121479Y186977D02*X127778Y180678D01*
X122266Y186977D02*X128565Y180678D01*
X123054Y186977D02*X129353Y180678D01*
X123841Y186977D02*X130140Y180678D01*
X124629Y186977D02*X130928Y180678D01*
X125415Y186977D02*X131714Y180678D01*
X126203Y186977D02*X132502Y180678D01*
X126990Y186977D02*X133289Y180678D01*
X127778Y186977D02*X134077Y180678D01*
X128565Y186977D02*X134864Y180678D01*
X129353Y186977D02*X135652Y180678D01*
X130140Y186977D02*X136439Y180678D01*
X130928Y186977D02*X137227Y180678D01*
X131714Y186977D02*X138013Y180678D01*
X132502Y186977D02*X138801Y180678D01*
X133289Y186977D02*X139588Y180678D01*
X134077Y186977D02*X139589Y181465D01*
X134864Y186977D02*X139588Y182253D01*
X135652Y186977D02*X139588Y183040D01*
X136439Y186977D02*X139589Y183827D01*
X137227Y186977D02*X139589Y184615D01*
X138013Y186977D02*X139588Y185402D01*
X138800Y186977D02*X139587Y186190D01*
X138800Y148788D02*X143918Y143670D01*
X138800Y148001D02*X143131Y143670D01*
X138800Y147213D02*X142343Y143670D01*
X138800Y146426D02*X141556Y143670D01*
X138800Y145638D02*X140768Y143670D01*
X99430Y186386D02*Y173197D01*
Y173196D02*X102383D01*
Y186386D02*Y173197D01*
X99430Y186386D02*X102383D01*
X99430D02*X102382Y183434D01*
X100218Y186386D02*X102383Y184221D01*
X101005Y186386D02*X102383Y185008D01*
X101792Y186386D02*X102382Y185796D01*
X99430Y185599D02*X102382Y182647D01*
X99430Y184812D02*X102382Y181860D01*
X99430Y184025D02*X102382Y181073D01*
X99430Y183237D02*X102382Y180285D01*
X99430Y182450D02*X102382Y179498D01*
X99430Y181662D02*X102382Y178710D01*
X99430Y180875D02*X102382Y177923D01*
X99430Y180088D02*X102382Y177136D01*
X99430Y179300D02*X102382Y176348D01*
X99430Y178513D02*X102382Y175561D01*
X99430Y177725D02*X102382Y174773D01*
X99430Y176938D02*X102382Y173986D01*
X99430Y176150D02*X102383Y173198D01*
X99430Y175363D02*X101596Y173197D01*
X99430Y174575D02*X100808Y173197D01*
G54D98*X147855Y143670D02*Y142095D01*
X104548Y143670D02*Y142095D01*
G54D96*X41000Y162000D02*X42500D01*
Y158500D01*
X42000Y158000D02*X42500Y158500D01*
X41500Y158000D02*X42000D01*
X41000Y158500D02*X41500Y158000D01*
X43700Y161500D02*X44200Y162000D01*
X45700D01*
X46200Y161500D01*
Y160500D01*
X43700Y158000D02*X46200Y160500D01*
X43700Y158000D02*X46200D01*
X40500Y70000D02*X42000D01*
Y66500D01*
X41500Y66000D02*X42000Y66500D01*
X41000Y66000D02*X41500D01*
X40500Y66500D02*X41000Y66000D01*
X43200Y70000D02*X45200D01*
X43200D02*Y68000D01*
X43700Y68500D01*
X44700D01*
X45200Y68000D01*
Y66500D01*
X44700Y66000D02*X45200Y66500D01*
X43700Y66000D02*X44700D01*
X43200Y66500D02*X43700Y66000D01*
X43900Y131800D02*X45900D01*
X46400Y131300D01*
Y130300D01*
X45900Y129800D02*X46400Y130300D01*
X44400Y129800D02*X45900D01*
X44400Y131800D02*Y127800D01*
Y129800D02*X46400Y127800D01*
X47600D02*X50100Y130300D01*
Y131800D02*Y130300D01*
X47600Y131800D02*X50100D01*
X39500Y118000D02*X41000D01*
Y114500D01*
X40500Y114000D02*X41000Y114500D01*
X40000Y114000D02*X40500D01*
X39500Y114500D02*X40000Y114000D01*
X43700Y118000D02*X44200Y117500D01*
X42700Y118000D02*X43700D01*
X42200Y117500D02*X42700Y118000D01*
X42200Y117500D02*Y114500D01*
X42700Y114000D01*
X43700Y116000D02*X44200Y115500D01*
X42200Y116000D02*X43700D01*
X42700Y114000D02*X43700D01*
X44200Y114500D01*
Y115500D02*Y114500D01*
X51100Y111300D02*Y107800D01*
X51600Y107300D01*
X52600D01*
X53100Y107800D01*
Y111300D02*Y107800D01*
X54300Y107300D02*X56300Y109300D01*
Y110800D02*Y109300D01*
X55800Y111300D02*X56300Y110800D01*
X54800Y111300D02*X55800D01*
X54300Y110800D02*X54800Y111300D01*
X54300Y110800D02*Y109800D01*
X54800Y109300D01*
X56300D01*
X84600Y132000D02*X86100D01*
Y128500D01*
X85600Y128000D02*X86100Y128500D01*
X85100Y128000D02*X85600D01*
X84600Y128500D02*X85100Y128000D01*
X87800Y132000D02*Y128000D01*
X87300Y132000D02*X89300D01*
X89800Y131500D01*
Y130500D01*
X89300Y130000D02*X89800Y130500D01*
X87800Y130000D02*X89300D01*
X91500Y128000D02*X92500D01*
X92000Y132000D02*Y128000D01*
X91000Y131000D02*X92000Y132000D01*
X93700Y128000D02*X95700D01*
X96200Y128500D01*
Y129500D02*Y128500D01*
X95700Y130000D02*X96200Y129500D01*
X94200Y130000D02*X95700D01*
X94200Y132000D02*Y128000D01*
X93700Y132000D02*X95700D01*
X96200Y131500D01*
Y130500D01*
X95700Y130000D02*X96200Y130500D01*
X97000Y38500D02*X97500Y38000D01*
X95500Y38500D02*X97000D01*
X95000Y38000D02*X95500Y38500D01*
X95000Y38000D02*Y37000D01*
X95500Y36500D01*
X97000D01*
X97500Y36000D01*
Y35000D01*
X97000Y34500D02*X97500Y35000D01*
X95500Y34500D02*X97000D01*
X95000Y35000D02*X95500Y34500D01*
X98700Y38500D02*Y34500D01*
X100200Y36000D01*
X101700Y34500D01*
Y38500D02*Y34500D01*
X102900Y36500D02*X104900Y38500D01*
X102900Y36500D02*X105400D01*
X104900Y38500D02*Y34500D01*
X88000Y144000D02*Y140500D01*
X88500Y140000D01*
X89500D01*
X90000Y140500D01*
Y144000D02*Y140500D01*
X91200Y140000D02*X93700Y142500D01*
Y144000D02*Y142500D01*
X91200Y144000D02*X93700D01*
X359406Y258418D02*X360906D01*
X358906Y258918D02*X359406Y258418D01*
X358906Y261918D02*Y258918D01*
Y261918D02*X359406Y262418D01*
X360906D01*
X362106Y258918D02*X362606Y258418D01*
X362106Y259918D02*Y258918D01*
Y259918D02*X362606Y260418D01*
X363606D01*
X364106Y259918D01*
Y258918D01*
X363606Y258418D02*X364106Y258918D01*
X362606Y258418D02*X363606D01*
X362106Y260918D02*X362606Y260418D01*
X362106Y261918D02*Y260918D01*
Y261918D02*X362606Y262418D01*
X363606D01*
X364106Y261918D01*
Y260918D01*
X363606Y260418D02*X364106Y260918D01*
X373500Y248000D02*X375500D01*
X376000Y247500D01*
Y246500D01*
X375500Y246000D02*X376000Y246500D01*
X374000Y246000D02*X375500D01*
X374000Y248000D02*Y244000D01*
Y246000D02*X376000Y244000D01*
X377200Y244500D02*X377700Y244000D01*
X377200Y245500D02*Y244500D01*
Y245500D02*X377700Y246000D01*
X378700D01*
X379200Y245500D01*
Y244500D01*
X378700Y244000D02*X379200Y244500D01*
X377700Y244000D02*X378700D01*
X377200Y246500D02*X377700Y246000D01*
X377200Y247500D02*Y246500D01*
Y247500D02*X377700Y248000D01*
X378700D01*
X379200Y247500D01*
Y246500D01*
X378700Y246000D02*X379200Y246500D01*
X185100Y263700D02*Y260200D01*
X185600Y259700D01*
X186600D01*
X187100Y260200D01*
Y263700D02*Y260200D01*
X189800Y263700D02*X190300Y263200D01*
X188800Y263700D02*X189800D01*
X188300Y263200D02*X188800Y263700D01*
X188300Y263200D02*Y260200D01*
X188800Y259700D01*
X189800Y261700D02*X190300Y261200D01*
X188300Y261700D02*X189800D01*
X188800Y259700D02*X189800D01*
X190300Y260200D01*
Y261200D02*Y260200D01*
X351000Y285000D02*Y281000D01*
X353000D01*
X354700D02*X356200D01*
X354200Y281500D02*X354700Y281000D01*
X354200Y284500D02*Y281500D01*
Y284500D02*X354700Y285000D01*
X356200D01*
X357900D02*Y281000D01*
X359400Y285000D02*X359900Y284500D01*
Y281500D01*
X359400Y281000D02*X359900Y281500D01*
X357400Y281000D02*X359400D01*
X357400Y285000D02*X359400D01*
X361600Y281000D02*X362600D01*
X362100Y285000D02*Y281000D01*
X361100Y284000D02*X362100Y285000D01*
X360500Y206000D02*X362000D01*
X360000Y206500D02*X360500Y206000D01*
X360000Y209500D02*Y206500D01*
Y209500D02*X360500Y210000D01*
X362000D01*
X363700Y206000D02*X364700D01*
X364200Y210000D02*Y206000D01*
X363200Y209000D02*X364200Y210000D01*
X366400Y206000D02*X367400D01*
X366900Y210000D02*Y206000D01*
X365900Y209000D02*X366900Y210000D01*
X361000Y215900D02*X362500D01*
X360500Y216400D02*X361000Y215900D01*
X360500Y219400D02*Y216400D01*
Y219400D02*X361000Y219900D01*
X362500D01*
X363700Y217900D02*X365700Y219900D01*
X363700Y217900D02*X366200D01*
X365700Y219900D02*Y215900D01*
X243500Y216500D02*Y213000D01*
X244000Y212500D01*
X245000D01*
X245500Y213000D01*
Y216500D02*Y213000D01*
X246700Y216000D02*X247200Y216500D01*
X248700D01*
X249200Y216000D01*
Y215000D01*
X246700Y212500D02*X249200Y215000D01*
X246700Y212500D02*X249200D01*
X283000Y224000D02*X285000D01*
X285500Y223500D01*
Y222500D01*
X285000Y222000D02*X285500Y222500D01*
X283500Y222000D02*X285000D01*
X283500Y224000D02*Y220000D01*
Y222000D02*X285500Y220000D01*
X286700Y222000D02*X288700Y224000D01*
X286700Y222000D02*X289200D01*
X288700Y224000D02*Y220000D01*
X344100Y224000D02*X345600D01*
Y220500D01*
X345100Y220000D02*X345600Y220500D01*
X344600Y220000D02*X345100D01*
X344100Y220500D02*X344600Y220000D01*
X346800Y222000D02*X348800Y224000D01*
X346800Y222000D02*X349300D01*
X348800Y224000D02*Y220000D01*
X168300Y144200D02*X170300D01*
X170800Y143700D01*
Y142700D01*
X170300Y142200D02*X170800Y142700D01*
X168800Y142200D02*X170300D01*
X168800Y144200D02*Y140200D01*
Y142200D02*X170800Y140200D01*
X172000Y143700D02*X172500Y144200D01*
X173500D01*
X174000Y143700D01*
Y140700D01*
X173500Y140200D02*X174000Y140700D01*
X172500Y140200D02*X173500D01*
X172000Y140700D02*X172500Y140200D01*
Y142200D02*X174000D01*
X186214Y216000D02*X187714D01*
X185714Y216500D02*X186214Y216000D01*
X185714Y219500D02*Y216500D01*
Y219500D02*X186214Y220000D01*
X187714D01*
X188914Y216000D02*X191414Y218500D01*
Y220000D02*Y218500D01*
X188914Y220000D02*X191414D01*
X168500Y205200D02*X170000D01*
X168000Y205700D02*X168500Y205200D01*
X168000Y208700D02*Y205700D01*
Y208700D02*X168500Y209200D01*
X170000D01*
X171700Y205200D02*X172700D01*
X172200Y209200D02*Y205200D01*
X171200Y208200D02*X172200Y209200D01*
X173900Y205700D02*X174400Y205200D01*
X173900Y208700D02*Y205700D01*
Y208700D02*X174400Y209200D01*
X175400D01*
X175900Y208700D01*
Y205700D01*
X175400Y205200D02*X175900Y205700D01*
X174400Y205200D02*X175400D01*
X173900Y206200D02*X175900Y208200D01*
X169786Y164300D02*X171286D01*
X169286Y164800D02*X169786Y164300D01*
X169286Y167800D02*Y164800D01*
Y167800D02*X169786Y168300D01*
X171286D01*
X172486Y164300D02*X174486Y166300D01*
Y167800D02*Y166300D01*
X173986Y168300D02*X174486Y167800D01*
X172986Y168300D02*X173986D01*
X172486Y167800D02*X172986Y168300D01*
X172486Y167800D02*Y166800D01*
X172986Y166300D01*
X174486D01*
X181429Y200783D02*Y200283D01*
X182429Y199283D01*
X183429Y200283D01*
Y200783D02*Y200283D01*
X182429Y199283D02*Y196783D01*
X185129D02*X186129D01*
X185629Y200783D02*Y196783D01*
X184629Y199783D02*X185629Y200783D01*
X169657Y221700D02*X171157D01*
X169157Y222200D02*X169657Y221700D01*
X169157Y225200D02*Y222200D01*
Y225200D02*X169657Y225700D01*
X171157D01*
X172357D02*X174357D01*
X172357D02*Y223700D01*
X172857Y224200D01*
X173857D01*
X174357Y223700D01*
Y222200D01*
X173857Y221700D02*X174357Y222200D01*
X172857Y221700D02*X173857D01*
X172357Y222200D02*X172857Y221700D01*
X148900Y232860D02*X150400D01*
Y229360D01*
X149900Y228860D02*X150400Y229360D01*
X149400Y228860D02*X149900D01*
X148900Y229360D02*X149400Y228860D01*
X151600Y232360D02*X152100Y232860D01*
X153100D01*
X153600Y232360D01*
Y229360D01*
X153100Y228860D02*X153600Y229360D01*
X152100Y228860D02*X153100D01*
X151600Y229360D02*X152100Y228860D01*
Y230860D02*X153600D01*
X276670Y195650D02*Y192150D01*
X277170Y191650D01*
X278170D01*
X278670Y192150D01*
Y195650D02*Y192150D01*
X279870Y195150D02*X280370Y195650D01*
X281370D01*
X281870Y195150D01*
Y192150D01*
X281370Y191650D02*X281870Y192150D01*
X280370Y191650D02*X281370D01*
X279870Y192150D02*X280370Y191650D01*
Y193650D02*X281870D01*
X259986Y196800D02*X261486D01*
X259486Y197300D02*X259986Y196800D01*
X259486Y200300D02*Y197300D01*
Y200300D02*X259986Y200800D01*
X261486D01*
X264186D02*X264686Y200300D01*
X263186Y200800D02*X264186D01*
X262686Y200300D02*X263186Y200800D01*
X262686Y200300D02*Y197300D01*
X263186Y196800D01*
X264186Y198800D02*X264686Y198300D01*
X262686Y198800D02*X264186D01*
X263186Y196800D02*X264186D01*
X264686Y197300D01*
Y198300D02*Y197300D01*
X320600Y138900D02*Y135400D01*
X321100Y134900D01*
X322100D01*
X322600Y135400D01*
Y138900D02*Y135400D01*
X323800Y138900D02*X325800D01*
X323800D02*Y136900D01*
X324300Y137400D01*
X325300D01*
X325800Y136900D01*
Y135400D01*
X325300Y134900D02*X325800Y135400D01*
X324300Y134900D02*X325300D01*
X323800Y135400D02*X324300Y134900D01*
X368600Y109300D02*Y108800D01*
X371100Y106300D01*
Y105300D01*
X368600Y106300D02*Y105300D01*
Y106300D02*X371100Y108800D01*
Y109300D02*Y108800D01*
X372300Y105300D02*X374300D01*
X374800Y105800D01*
Y106800D02*Y105800D01*
X374300Y107300D02*X374800Y106800D01*
X372800Y107300D02*X374300D01*
X372800Y109300D02*Y105300D01*
X372300Y109300D02*X374300D01*
X374800Y108800D01*
Y107800D01*
X374300Y107300D02*X374800Y107800D01*
X376500Y105300D02*X377500D01*
X377000Y109300D02*Y105300D01*
X376000Y108300D02*X377000Y109300D01*
X193500Y111500D02*X195500D01*
X196000Y111000D01*
Y110000D01*
X195500Y109500D02*X196000Y110000D01*
X194000Y109500D02*X195500D01*
X194000Y111500D02*Y107500D01*
Y109500D02*X196000Y107500D01*
X197200Y111000D02*X197700Y111500D01*
X199200D01*
X199700Y111000D01*
Y110000D01*
X197200Y107500D02*X199700Y110000D01*
X197200Y107500D02*X199700D01*
X163500Y38500D02*X164000Y38000D01*
X162000Y38500D02*X163500D01*
X161500Y38000D02*X162000Y38500D01*
X161500Y38000D02*Y37000D01*
X162000Y36500D01*
X163500D01*
X164000Y36000D01*
Y35000D01*
X163500Y34500D02*X164000Y35000D01*
X162000Y34500D02*X163500D01*
X161500Y35000D02*X162000Y34500D01*
X165200Y38500D02*Y34500D01*
X166700Y36000D01*
X168200Y34500D01*
Y38500D02*Y34500D01*
X169400Y38000D02*X169900Y38500D01*
X170900D01*
X171400Y38000D01*
Y35000D01*
X170900Y34500D02*X171400Y35000D01*
X169900Y34500D02*X170900D01*
X169400Y35000D02*X169900Y34500D01*
Y36500D02*X171400D01*
X197500Y97000D02*Y93500D01*
X198000Y93000D01*
X199000D01*
X199500Y93500D01*
Y97000D02*Y93500D01*
X200700Y95000D02*X202700Y97000D01*
X200700Y95000D02*X203200D01*
X202700Y97000D02*Y93000D01*
X221077Y128973D02*X223077D01*
X223577Y128473D01*
Y127473D01*
X223077Y126973D02*X223577Y127473D01*
X221577Y126973D02*X223077D01*
X221577Y128973D02*Y124973D01*
Y126973D02*X223577Y124973D01*
X224777Y128973D02*X226777D01*
X224777D02*Y126973D01*
X225277Y127473D01*
X226277D01*
X226777Y126973D01*
Y125473D01*
X226277Y124973D02*X226777Y125473D01*
X225277Y124973D02*X226277D01*
X224777Y125473D02*X225277Y124973D01*
X258957Y103900D02*Y99900D01*
X260457Y103900D02*X260957Y103400D01*
Y100400D01*
X260457Y99900D02*X260957Y100400D01*
X258457Y99900D02*X260457D01*
X258457Y103900D02*X260457D01*
X262157Y103400D02*X262657Y103900D01*
X264157D01*
X264657Y103400D01*
Y102400D01*
X262157Y99900D02*X264657Y102400D01*
X262157Y99900D02*X264657D01*
X230500Y38500D02*X231000Y38000D01*
X229000Y38500D02*X230500D01*
X228500Y38000D02*X229000Y38500D01*
X228500Y38000D02*Y37000D01*
X229000Y36500D01*
X230500D01*
X231000Y36000D01*
Y35000D01*
X230500Y34500D02*X231000Y35000D01*
X229000Y34500D02*X230500D01*
X228500Y35000D02*X229000Y34500D01*
X232200Y38500D02*Y34500D01*
X233700Y36000D01*
X235200Y34500D01*
Y38500D02*Y34500D01*
X236400Y38000D02*X236900Y38500D01*
X238400D01*
X238900Y38000D01*
Y37000D01*
X236400Y34500D02*X238900Y37000D01*
X236400Y34500D02*X238900D01*
X297000Y38500D02*X297500Y38000D01*
X295500Y38500D02*X297000D01*
X295000Y38000D02*X295500Y38500D01*
X295000Y38000D02*Y37000D01*
X295500Y36500D01*
X297000D01*
X297500Y36000D01*
Y35000D01*
X297000Y34500D02*X297500Y35000D01*
X295500Y34500D02*X297000D01*
X295000Y35000D02*X295500Y34500D01*
X298700Y38500D02*Y34500D01*
X300200Y36000D01*
X301700Y34500D01*
Y38500D02*Y34500D01*
X303400D02*X304400D01*
X303900Y38500D02*Y34500D01*
X302900Y37500D02*X303900Y38500D01*
X245157Y76700D02*X247157D01*
X247657Y76200D01*
Y75200D01*
X247157Y74700D02*X247657Y75200D01*
X245657Y74700D02*X247157D01*
X245657Y76700D02*Y72700D01*
Y74700D02*X247657Y72700D01*
X249357D02*X250357D01*
X249857Y76700D02*Y72700D01*
X248857Y75700D02*X249857Y76700D01*
X258814Y85000D02*Y81000D01*
X260314Y85000D02*X260814Y84500D01*
Y81500D01*
X260314Y81000D02*X260814Y81500D01*
X258314Y81000D02*X260314D01*
X258314Y85000D02*X260314D01*
X262014Y83000D02*X264014Y85000D01*
X262014Y83000D02*X264514D01*
X264014Y85000D02*Y81000D01*
X258657Y75800D02*Y71800D01*
X260157Y75800D02*X260657Y75300D01*
Y72300D01*
X260157Y71800D02*X260657Y72300D01*
X258157Y71800D02*X260157D01*
X258157Y75800D02*X260157D01*
X261857D02*X263857D01*
X261857D02*Y73800D01*
X262357Y74300D01*
X263357D01*
X263857Y73800D01*
Y72300D01*
X263357Y71800D02*X263857Y72300D01*
X262357Y71800D02*X263357D01*
X261857Y72300D02*X262357Y71800D01*
X258957Y94500D02*Y90500D01*
X260457Y94500D02*X260957Y94000D01*
Y91000D01*
X260457Y90500D02*X260957Y91000D01*
X258457Y90500D02*X260457D01*
X258457Y94500D02*X260457D01*
X262157Y94000D02*X262657Y94500D01*
X263657D01*
X264157Y94000D01*
Y91000D01*
X263657Y90500D02*X264157Y91000D01*
X262657Y90500D02*X263657D01*
X262157Y91000D02*X262657Y90500D01*
Y92500D02*X264157D01*
X181539Y136559D02*X183039D01*
Y133059D01*
X182539Y132559D02*X183039Y133059D01*
X182039Y132559D02*X182539D01*
X181539Y133059D02*X182039Y132559D01*
X184239D02*X186739Y135059D01*
Y136559D02*Y135059D01*
X184239Y136559D02*X186739D01*
X84600Y168000D02*X86100D01*
Y164500D01*
X85600Y164000D02*X86100Y164500D01*
X85100Y164000D02*X85600D01*
X84600Y164500D02*X85100Y164000D01*
X87800Y168000D02*Y164000D01*
X87300Y168000D02*X89300D01*
X89800Y167500D01*
Y166500D01*
X89300Y166000D02*X89800Y166500D01*
X87800Y166000D02*X89300D01*
X91500Y164000D02*X92500D01*
X92000Y168000D02*Y164000D01*
X91000Y167000D02*X92000Y168000D01*
X93700Y167500D02*Y164000D01*
Y167500D02*X94200Y168000D01*
X95700D01*
X96200Y167500D01*
Y164000D01*
X93700Y166000D02*X96200D01*
X44200Y168000D02*X46200D01*
X46700Y167500D01*
Y166500D01*
X46200Y166000D02*X46700Y166500D01*
X44700Y166000D02*X46200D01*
X44700Y168000D02*Y164000D01*
Y166000D02*X46700Y164000D01*
X49400Y168000D02*X49900Y167500D01*
X48400Y168000D02*X49400D01*
X47900Y167500D02*X48400Y168000D01*
X47900Y167500D02*Y164500D01*
X48400Y164000D01*
X49400Y166000D02*X49900Y165500D01*
X47900Y166000D02*X49400D01*
X48400Y164000D02*X49400D01*
X49900Y164500D01*
Y165500D02*Y164500D01*
X81600Y174500D02*X83100D01*
X81100Y175000D02*X81600Y174500D01*
X81100Y178000D02*Y175000D01*
Y178000D02*X81600Y178500D01*
X83100D01*
X84300Y178000D02*X84800Y178500D01*
X85800D01*
X86300Y178000D01*
Y175000D01*
X85800Y174500D02*X86300Y175000D01*
X84800Y174500D02*X85800D01*
X84300Y175000D02*X84800Y174500D01*
Y176500D02*X86300D01*
X49821Y186200D02*Y182700D01*
X50321Y182200D01*
X51321D01*
X51821Y182700D01*
Y186200D02*Y182700D01*
X53021D02*X53521Y182200D01*
X53021Y183700D02*Y182700D01*
Y183700D02*X53521Y184200D01*
X54521D01*
X55021Y183700D01*
Y182700D01*
X54521Y182200D02*X55021Y182700D01*
X53521Y182200D02*X54521D01*
X53021Y184700D02*X53521Y184200D01*
X53021Y185700D02*Y184700D01*
Y185700D02*X53521Y186200D01*
X54521D01*
X55021Y185700D01*
Y184700D01*
X54521Y184200D02*X55021Y184700D01*
X91848Y201449D02*X93543D01*
Y197494D01*
X92978Y196929D02*X93543Y197494D01*
X92413Y196929D02*X92978D01*
X91848Y197494D02*X92413Y196929D01*
X94899Y197494D02*X95464Y196929D01*
X94899Y198624D02*Y197494D01*
Y198624D02*X95464Y199189D01*
X96594D01*
X97159Y198624D01*
Y197494D01*
X96594Y196929D02*X97159Y197494D01*
X95464Y196929D02*X96594D01*
X94899Y199754D02*X95464Y199189D01*
X94899Y200884D02*Y199754D01*
Y200884D02*X95464Y201449D01*
X96594D01*
X97159Y200884D01*
Y199754D01*
X96594Y199189D02*X97159Y199754D01*
X41000Y202500D02*X42500D01*
Y199000D01*
X42000Y198500D02*X42500Y199000D01*
X41500Y198500D02*X42000D01*
X41000Y199000D02*X41500Y198500D01*
X44200D02*X45200D01*
X44700Y202500D02*Y198500D01*
X43700Y201500D02*X44700Y202500D01*
X1700Y257400D02*X3200D01*
Y253900D01*
X2700Y253400D02*X3200Y253900D01*
X2200Y253400D02*X2700D01*
X1700Y253900D02*X2200Y253400D01*
X4900D02*X5900D01*
X5400Y257400D02*Y253400D01*
X4400Y256400D02*X5400Y257400D01*
X7100Y256900D02*Y253400D01*
Y256900D02*X7600Y257400D01*
X9100D01*
X9600Y256900D01*
Y253400D01*
X7100Y255400D02*X9600D01*
X38100Y279600D02*Y275600D01*
X39600Y279600D02*X40100Y279100D01*
Y276100D01*
X39600Y275600D02*X40100Y276100D01*
X37600Y275600D02*X39600D01*
X37600Y279600D02*X39600D01*
X41800Y275600D02*X42800D01*
X42300Y279600D02*Y275600D01*
X41300Y278600D02*X42300Y279600D01*
X68500Y235500D02*X70000D01*
X68000Y236000D02*X68500Y235500D01*
X68000Y239000D02*Y236000D01*
Y239000D02*X68500Y239500D01*
X70000D01*
X71700Y235500D02*X72700D01*
X72200Y239500D02*Y235500D01*
X71200Y238500D02*X72200Y239500D01*
X66550Y245507D02*X68050D01*
X66050Y246007D02*X66550Y245507D01*
X66050Y249007D02*Y246007D01*
Y249007D02*X66550Y249507D01*
X68050D01*
X69750Y245507D02*X70750D01*
X70250Y249507D02*Y245507D01*
X69250Y248507D02*X70250Y249507D01*
X71950Y249007D02*X72450Y249507D01*
X73950D01*
X74450Y249007D01*
Y248007D01*
X71950Y245507D02*X74450Y248007D01*
X71950Y245507D02*X74450D01*
X71500Y265000D02*Y261500D01*
X72000Y261000D01*
X73000D01*
X73500Y261500D01*
Y265000D02*Y261500D01*
X75200Y261000D02*X76200D01*
X75700Y265000D02*Y261000D01*
X74700Y264000D02*X75700Y265000D01*
X104914Y250400D02*X106414D01*
X104414Y250900D02*X104914Y250400D01*
X104414Y253900D02*Y250900D01*
Y253900D02*X104914Y254400D01*
X106414D01*
X107614Y253900D02*X108114Y254400D01*
X109614D01*
X110114Y253900D01*
Y252900D01*
X107614Y250400D02*X110114Y252900D01*
X107614Y250400D02*X110114D01*
X104793Y240450D02*X106293D01*
X104293Y240950D02*X104793Y240450D01*
X104293Y243950D02*Y240950D01*
Y243950D02*X104793Y244450D01*
X106293D01*
X107493Y243950D02*X107993Y244450D01*
X109493D01*
X109993Y243950D01*
Y242950D01*
X107493Y240450D02*X109993Y242950D01*
X107493Y240450D02*X109993D01*
X111193Y243950D02*Y240450D01*
Y243950D02*X111693Y244450D01*
X113193D01*
X113693Y243950D01*
Y240450D01*
X111193Y242450D02*X113693D01*
X119050Y255450D02*Y251450D01*
X121050D01*
X122750D02*X123750D01*
X123250Y255450D02*Y251450D01*
X122250Y254450D02*X123250Y255450D01*
X104807Y215150D02*X106307D01*
X104307Y215650D02*X104807Y215150D01*
X104307Y218650D02*Y215650D01*
Y218650D02*X104807Y219150D01*
X106307D01*
X108007Y215150D02*X109007D01*
X108507Y219150D02*Y215150D01*
X107507Y218150D02*X108507Y219150D01*
X110207Y217150D02*X112207Y219150D01*
X110207Y217150D02*X112707D01*
X112207Y219150D02*Y215150D01*
X72307Y278150D02*X73807D01*
X71807Y278650D02*X72307Y278150D01*
X71807Y281650D02*Y278650D01*
Y281650D02*X72307Y282150D01*
X73807D01*
X75507Y278150D02*X76507D01*
X76007Y282150D02*Y278150D01*
X75007Y281150D02*X76007Y282150D01*
X77707Y281650D02*X78207Y282150D01*
X79207D01*
X79707Y281650D01*
Y278650D01*
X79207Y278150D02*X79707Y278650D01*
X78207Y278150D02*X79207D01*
X77707Y278650D02*X78207Y278150D01*
Y280150D02*X79707D01*
M02*
