G04 start of page 7 for group -4063 idx -4063 *
G04 Title: (unknown), componentmask *
G04 Creator: pcb 4.0.2 *
G04 CreationDate: Thu Jul  2 20:22:59 2020 UTC *
G04 For: ndholmes *
G04 Format: Gerber/RS-274X *
G04 PCB-Dimensions (mil): 4000.00 2900.00 *
G04 PCB-Coordinate-Origin: lower left *
%MOIN*%
%FSLAX25Y25*%
%LNTOPMASK*%
%ADD83C,0.0600*%
%ADD82C,0.0370*%
%ADD81C,0.1025*%
%ADD80C,0.1035*%
%ADD79C,0.0490*%
%ADD78C,0.0750*%
%ADD77C,0.1700*%
%ADD76C,0.1950*%
%ADD75C,0.0660*%
%ADD74C,0.2997*%
%ADD73C,0.0860*%
%ADD72C,0.0001*%
G54D72*G36*
X17700Y157300D02*Y148700D01*
X26300D01*
Y157300D01*
X17700D01*
G37*
G54D73*X22000Y133000D03*
G54D72*G36*
X17700Y197300D02*Y188700D01*
X26300D01*
Y197300D01*
X17700D01*
G37*
G54D73*X22000Y173000D03*
G54D74*X17000Y273000D03*
G54D75*X243500D03*
X233500D03*
X223500D03*
X213500D03*
X203500D03*
G54D76*X54700Y234400D03*
G54D77*X30700D03*
X42700Y215400D03*
G54D74*X383000Y273000D03*
Y56500D03*
G54D78*X246095Y10142D03*
X220505D03*
X312795D03*
X287205D03*
X312795Y27858D03*
G54D73*X355064Y90300D03*
X325536D03*
G54D78*X287205Y27858D03*
G54D79*X316000Y235000D03*
G54D72*G36*
X350200Y276300D02*Y269700D01*
X356800D01*
Y276300D01*
X350200D01*
G37*
G54D75*X343500Y273000D03*
X333500D03*
X323500D03*
X313500D03*
X303500D03*
X293500D03*
X283500D03*
G54D78*X112795Y10142D03*
X179495D03*
X153905D03*
X87205D03*
Y27858D03*
X112795D03*
X179495D03*
X153905D03*
X246095D03*
X220505D03*
G54D74*X17000Y56500D03*
G54D72*G36*
X19373Y114745D02*Y106145D01*
X27973D01*
Y114745D01*
X19373D01*
G37*
G54D73*X23673Y96665D03*
Y82886D03*
G54D75*X273500Y273000D03*
X263500D03*
X253500D03*
G54D80*X336000Y221000D03*
X323500D03*
G54D81*Y241000D03*
G54D80*X336000D03*
G54D79*Y231000D03*
X316000Y227000D03*
G54D72*G36*
X349273Y263252D02*X343555D01*
Y256748D01*
X349273D01*
Y263252D01*
G37*
G36*
X356359D02*X350641D01*
Y256748D01*
X356359D01*
Y263252D01*
G37*
G36*
X370200Y242250D02*X364900D01*
Y236949D01*
X370200D01*
Y242250D01*
G37*
G36*
Y250051D02*X364900D01*
Y244750D01*
X370200D01*
Y250051D01*
G37*
G36*
X358200Y246951D02*X351300D01*
Y240050D01*
X358200D01*
Y246951D01*
G37*
G54D82*X331000Y233500D03*
X326000D03*
X321000D03*
X331000Y228500D03*
X326000D03*
X321000D03*
G54D72*G36*
X386496Y196350D02*X382596D01*
Y190048D01*
X386496D01*
Y196350D01*
G37*
G36*
X381574D02*X377674D01*
Y190048D01*
X381574D01*
Y196350D01*
G37*
G36*
X376653D02*X372753D01*
Y190048D01*
X376653D01*
Y196350D01*
G37*
G36*
X371732D02*X367832D01*
Y190048D01*
X371732D01*
Y196350D01*
G37*
G36*
X366811D02*X362911D01*
Y190048D01*
X366811D01*
Y196350D01*
G37*
G36*
X361889D02*X357989D01*
Y190048D01*
X361889D01*
Y196350D01*
G37*
G36*
X356968D02*X353068D01*
Y190048D01*
X356968D01*
Y196350D01*
G37*
G36*
X352047D02*X348147D01*
Y190048D01*
X352047D01*
Y196350D01*
G37*
G36*
X374859Y210752D02*X369141D01*
Y204248D01*
X374859D01*
Y210752D01*
G37*
G36*
X381945D02*X376227D01*
Y204248D01*
X381945D01*
Y210752D01*
G37*
G36*
X374816Y220752D02*X369098D01*
Y214248D01*
X374816D01*
Y220752D01*
G37*
G36*
X381902D02*X376184D01*
Y214248D01*
X381902D01*
Y220752D01*
G37*
G36*
X347126Y196350D02*X343226D01*
Y190048D01*
X347126D01*
Y196350D01*
G37*
G36*
X342204D02*X338304D01*
Y190048D01*
X342204D01*
Y196350D01*
G37*
G36*
X337283D02*X333383D01*
Y190048D01*
X337283D01*
Y196350D01*
G37*
G36*
X332362D02*X328462D01*
Y190048D01*
X332362D01*
Y196350D01*
G37*
G36*
X321202Y186574D02*Y182674D01*
X327500D01*
Y186574D01*
X321202D01*
G37*
G36*
Y181653D02*Y177753D01*
X327500D01*
Y181653D01*
X321202D01*
G37*
G36*
Y176732D02*Y172832D01*
X327500D01*
Y176732D01*
X321202D01*
G37*
G36*
Y171811D02*Y167911D01*
X327500D01*
Y171811D01*
X321202D01*
G37*
G36*
Y166889D02*Y162989D01*
X327500D01*
Y166889D01*
X321202D01*
G37*
G36*
Y161968D02*Y158068D01*
X327500D01*
Y161968D01*
X321202D01*
G37*
G36*
Y157047D02*Y153147D01*
X327500D01*
Y157047D01*
X321202D01*
G37*
G36*
Y152126D02*Y148226D01*
X327500D01*
Y152126D01*
X321202D01*
G37*
G36*
X302923Y95200D02*Y85400D01*
X317962D01*
Y95200D01*
X302923D01*
G37*
G36*
X279859Y86252D02*X274141D01*
Y79748D01*
X279859D01*
Y86252D01*
G37*
G36*
Y105252D02*X274141D01*
Y98748D01*
X279859D01*
Y105252D01*
G37*
G36*
Y95752D02*X274141D01*
Y89248D01*
X279859D01*
Y95752D01*
G37*
G36*
X332362Y144752D02*X328462D01*
Y138450D01*
X332362D01*
Y144752D01*
G37*
G36*
X337283D02*X333383D01*
Y138450D01*
X337283D01*
Y144752D01*
G37*
G36*
X342204D02*X338304D01*
Y138450D01*
X342204D01*
Y144752D01*
G37*
G36*
X347126D02*X343226D01*
Y138450D01*
X347126D01*
Y144752D01*
G37*
G36*
X352047D02*X348147D01*
Y138450D01*
X352047D01*
Y144752D01*
G37*
G36*
X356968D02*X353068D01*
Y138450D01*
X356968D01*
Y144752D01*
G37*
G36*
X361889D02*X357989D01*
Y138450D01*
X361889D01*
Y144752D01*
G37*
G36*
X366811D02*X362911D01*
Y138450D01*
X366811D01*
Y144752D01*
G37*
G36*
X364055Y95200D02*Y85400D01*
X381655D01*
Y95200D01*
X364055D01*
G37*
G36*
X371732Y144752D02*X367832D01*
Y138450D01*
X371732D01*
Y144752D01*
G37*
G36*
X376653D02*X372753D01*
Y138450D01*
X376653D01*
Y144752D01*
G37*
G36*
X381574D02*X377674D01*
Y138450D01*
X381574D01*
Y144752D01*
G37*
G36*
X386496D02*X382596D01*
Y138450D01*
X386496D01*
Y144752D01*
G37*
G36*
X391417D02*X387517D01*
Y138450D01*
X391417D01*
Y144752D01*
G37*
G36*
X396338D02*X392438D01*
Y138450D01*
X396338D01*
Y144752D01*
G37*
G36*
X273322Y188867D02*Y186298D01*
X277072D01*
Y188867D01*
X273322D01*
G37*
G36*
X281983D02*Y186298D01*
X285733D01*
Y188867D01*
X281983D01*
G37*
G36*
X273322Y185718D02*Y183149D01*
X277072D01*
Y185718D01*
X273322D01*
G37*
G36*
X281983D02*Y183149D01*
X285733D01*
Y185718D01*
X281983D01*
G37*
G36*
X273322Y182568D02*Y179999D01*
X277072D01*
Y182568D01*
X273322D01*
G37*
G36*
Y179418D02*Y176849D01*
X277072D01*
Y179418D01*
X273322D01*
G37*
G36*
Y176269D02*Y173700D01*
X277072D01*
Y176269D01*
X273322D01*
G37*
G36*
X281983D02*Y173700D01*
X285733D01*
Y176269D01*
X281983D01*
G37*
G36*
Y179418D02*Y176849D01*
X285733D01*
Y179418D01*
X281983D01*
G37*
G36*
Y182568D02*Y179999D01*
X285733D01*
Y182568D01*
X281983D01*
G37*
G36*
X285776Y206412D02*Y204140D01*
X289920D01*
Y206412D01*
X285776D01*
G37*
G36*
Y209561D02*Y207289D01*
X289920D01*
Y209561D01*
X285776D01*
G37*
G36*
Y212711D02*Y210439D01*
X289920D01*
Y212711D01*
X285776D01*
G37*
G36*
Y215860D02*Y213588D01*
X289920D01*
Y215860D01*
X285776D01*
G37*
G36*
X279080D02*Y213588D01*
X283224D01*
Y215860D01*
X279080D01*
G37*
G36*
Y212711D02*Y210439D01*
X283224D01*
Y212711D01*
X279080D01*
G37*
G36*
Y209561D02*Y207289D01*
X283224D01*
Y209561D01*
X279080D01*
G37*
G36*
Y206412D02*Y204140D01*
X283224D01*
Y206412D01*
X279080D01*
G37*
G36*
X165580Y159360D02*Y157088D01*
X169724D01*
Y159360D01*
X165580D01*
G37*
G36*
Y156212D02*Y153938D01*
X169724D01*
Y156212D01*
X165580D01*
G37*
G36*
X158773Y226752D02*X153055D01*
Y220248D01*
X158773D01*
Y226752D01*
G37*
G36*
X165859D02*X160141D01*
Y220248D01*
X165859D01*
Y226752D01*
G37*
G36*
X171316Y203252D02*X165598D01*
Y196748D01*
X171316D01*
Y203252D01*
G37*
G36*
X171230Y176752D02*X165512D01*
Y170248D01*
X171230D01*
Y176752D01*
G37*
G36*
X165580Y153062D02*Y150788D01*
X169724D01*
Y153062D01*
X165580D01*
G37*
G36*
Y149912D02*Y147640D01*
X169724D01*
Y149912D01*
X165580D01*
G37*
G36*
X172276D02*Y147640D01*
X176420D01*
Y149912D01*
X172276D01*
G37*
G36*
Y153062D02*Y150788D01*
X176420D01*
Y153062D01*
X172276D01*
G37*
G36*
Y156212D02*Y153938D01*
X176420D01*
Y156212D01*
X172276D01*
G37*
G36*
X157213Y151453D02*X151095D01*
Y142972D01*
X157213D01*
Y151453D01*
G37*
G36*
X172276Y159360D02*Y157088D01*
X176420D01*
Y159360D01*
X172276D01*
G37*
G36*
X178402Y203252D02*X172684D01*
Y196748D01*
X178402D01*
Y203252D01*
G37*
G36*
X178316Y176752D02*X172598D01*
Y170248D01*
X178316D01*
Y176752D01*
G37*
G36*
X164697Y185303D02*Y179585D01*
X173170D01*
Y185303D01*
X164697D01*
G37*
G36*
Y194359D02*Y188641D01*
X173170D01*
Y194359D01*
X164697D01*
G37*
G36*
X140677Y209525D02*X136921D01*
Y203800D01*
X140677D01*
Y209525D01*
G37*
G36*
X136347D02*X132591D01*
Y203800D01*
X136347D01*
Y209525D01*
G37*
G36*
X132016D02*X128260D01*
Y203800D01*
X132016D01*
Y209525D01*
G37*
G36*
X127685D02*X123929D01*
Y203800D01*
X127685D01*
Y209525D01*
G37*
G36*
X147370Y209526D02*X142432D01*
Y203800D01*
X147370D01*
Y209526D01*
G37*
G36*
X127402Y220752D02*X121684D01*
Y214248D01*
X127402D01*
Y220752D01*
G37*
G36*
X193748Y220816D02*Y215098D01*
X200252D01*
Y220816D01*
X193748D01*
G37*
G36*
Y227902D02*Y222184D01*
X200252D01*
Y227902D01*
X193748D01*
G37*
G36*
X191600Y249000D02*Y246000D01*
X196200D01*
Y249000D01*
X191600D01*
G37*
G36*
Y256800D02*Y253800D01*
X196200D01*
Y256800D01*
X191600D01*
G37*
G36*
Y252900D02*Y249900D01*
X196200D01*
Y252900D01*
X191600D01*
G37*
G36*
X199800Y249000D02*Y246000D01*
X204400D01*
Y249000D01*
X199800D01*
G37*
G36*
Y252900D02*Y249900D01*
X204400D01*
Y252900D01*
X199800D01*
G37*
G36*
Y256800D02*Y253800D01*
X204400D01*
Y256800D01*
X199800D01*
G37*
G36*
X142076Y263900D02*Y258300D01*
X157164D01*
Y263900D01*
X142076D01*
G37*
G36*
X159556D02*Y258300D01*
X174644D01*
Y263900D01*
X159556D01*
G37*
G36*
X142076Y253900D02*Y248300D01*
X157164D01*
Y253900D01*
X142076D01*
G37*
G36*
X159556D02*Y248300D01*
X174644D01*
Y253900D01*
X159556D01*
G37*
G36*
X142076Y243900D02*Y238300D01*
X157164D01*
Y243900D01*
X142076D01*
G37*
G36*
X159556D02*Y238300D01*
X174644D01*
Y243900D01*
X159556D01*
G37*
G36*
X194515Y208335D02*Y206161D01*
X201115D01*
Y208335D01*
X194515D01*
G37*
G36*
Y205186D02*Y203012D01*
X201115D01*
Y205186D01*
X194515D01*
G37*
G36*
Y202036D02*Y199862D01*
X201115D01*
Y202036D01*
X194515D01*
G37*
G36*
Y198887D02*Y196713D01*
X201115D01*
Y198887D01*
X194515D01*
G37*
G36*
Y195737D02*Y193563D01*
X201115D01*
Y195737D01*
X194515D01*
G37*
G36*
Y192587D02*Y190413D01*
X201115D01*
Y192587D01*
X194515D01*
G37*
G36*
Y189438D02*Y187264D01*
X201115D01*
Y189438D01*
X194515D01*
G37*
G36*
Y186288D02*Y184114D01*
X201115D01*
Y186288D01*
X194515D01*
G37*
G36*
Y183139D02*Y180965D01*
X201115D01*
Y183139D01*
X194515D01*
G37*
G36*
Y179989D02*Y177815D01*
X201115D01*
Y179989D01*
X194515D01*
G37*
G36*
X179264Y185303D02*Y179585D01*
X187737D01*
Y185303D01*
X179264D01*
G37*
G36*
Y194359D02*Y188641D01*
X187737D01*
Y194359D01*
X179264D01*
G37*
G36*
X50675Y63051D02*X47713D01*
Y56349D01*
X50675D01*
Y63051D01*
G37*
G36*
X54612D02*X51650D01*
Y56349D01*
X54612D01*
Y63051D01*
G37*
G36*
X58550D02*X55588D01*
Y56349D01*
X58550D01*
Y63051D01*
G37*
G36*
X62487D02*X59525D01*
Y56349D01*
X62487D01*
Y63051D01*
G37*
G36*
X46738Y48287D02*X41414D01*
Y40601D01*
X46738D01*
Y48287D01*
G37*
G36*
X68786D02*X63462D01*
Y40601D01*
X68786D01*
Y48287D01*
G37*
G36*
X64402Y133252D02*X58684D01*
Y126748D01*
X64402D01*
Y133252D01*
G37*
G36*
X57316D02*X51598D01*
Y126748D01*
X57316D01*
Y133252D01*
G37*
G36*
X55600Y103100D02*X52600D01*
Y98500D01*
X55600D01*
Y103100D01*
G37*
G36*
X51700D02*X48700D01*
Y98500D01*
X51700D01*
Y103100D01*
G37*
G36*
X47800D02*X44800D01*
Y98500D01*
X47800D01*
Y103100D01*
G37*
G36*
Y94900D02*X44800D01*
Y90300D01*
X47800D01*
Y94900D01*
G37*
G36*
X51700D02*X48700D01*
Y90300D01*
X51700D01*
Y94900D01*
G37*
G36*
X55600D02*X52600D01*
Y90300D01*
X55600D01*
Y94900D01*
G37*
G36*
X225276Y134562D02*Y132288D01*
X229420D01*
Y134562D01*
X225276D01*
G37*
G36*
Y137712D02*Y135438D01*
X229420D01*
Y137712D01*
X225276D01*
G37*
G36*
X218580D02*Y135438D01*
X222724D01*
Y137712D01*
X218580D01*
G37*
G36*
Y134562D02*Y132288D01*
X222724D01*
Y134562D01*
X218580D01*
G37*
G36*
X202880Y114260D02*Y111988D01*
X207024D01*
Y114260D01*
X202880D01*
G37*
G36*
X209576D02*Y111988D01*
X213720D01*
Y114260D01*
X209576D01*
G37*
G36*
X202880Y111112D02*Y108838D01*
X207024D01*
Y111112D01*
X202880D01*
G37*
G36*
Y107962D02*Y105688D01*
X207024D01*
Y107962D01*
X202880D01*
G37*
G36*
Y104812D02*Y102540D01*
X207024D01*
Y104812D01*
X202880D01*
G37*
G36*
X209576D02*Y102540D01*
X213720D01*
Y104812D01*
X209576D01*
G37*
G36*
Y107962D02*Y105688D01*
X213720D01*
Y107962D01*
X209576D01*
G37*
G36*
Y111112D02*Y108838D01*
X213720D01*
Y111112D01*
X209576D01*
G37*
G36*
X194515Y176839D02*Y174665D01*
X201115D01*
Y176839D01*
X194515D01*
G37*
G36*
X207839Y170115D02*X205665D01*
Y163515D01*
X207839D01*
Y170115D01*
G37*
G36*
X210988D02*X208814D01*
Y163515D01*
X210988D01*
Y170115D01*
G37*
G36*
X214138D02*X211964D01*
Y163515D01*
X214138D01*
Y170115D01*
G37*
G36*
X217287D02*X215113D01*
Y163515D01*
X217287D01*
Y170115D01*
G37*
G36*
X220437D02*X218263D01*
Y163515D01*
X220437D01*
Y170115D01*
G37*
G36*
X223587D02*X221413D01*
Y163515D01*
X223587D01*
Y170115D01*
G37*
G36*
X226736D02*X224562D01*
Y163515D01*
X226736D01*
Y170115D01*
G37*
G36*
X229886D02*X227712D01*
Y163515D01*
X229886D01*
Y170115D01*
G37*
G36*
X233035D02*X230861D01*
Y163515D01*
X233035D01*
Y170115D01*
G37*
G36*
X236185D02*X234011D01*
Y163515D01*
X236185D01*
Y170115D01*
G37*
G36*
X239335D02*X237161D01*
Y163515D01*
X239335D01*
Y170115D01*
G37*
G36*
X243885Y176839D02*Y174665D01*
X250485D01*
Y176839D01*
X243885D01*
G37*
G36*
Y179988D02*Y177814D01*
X250485D01*
Y179988D01*
X243885D01*
G37*
G36*
Y183138D02*Y180964D01*
X250485D01*
Y183138D01*
X243885D01*
G37*
G36*
X258748Y187316D02*Y181598D01*
X265252D01*
Y187316D01*
X258748D01*
G37*
G36*
Y194402D02*Y188684D01*
X265252D01*
Y194402D01*
X258748D01*
G37*
G36*
X243885Y186287D02*Y184113D01*
X250485D01*
Y186287D01*
X243885D01*
G37*
G36*
Y189437D02*Y187263D01*
X250485D01*
Y189437D01*
X243885D01*
G37*
G36*
Y192587D02*Y190413D01*
X250485D01*
Y192587D01*
X243885D01*
G37*
G36*
Y195736D02*Y193562D01*
X250485D01*
Y195736D01*
X243885D01*
G37*
G36*
Y198886D02*Y196712D01*
X250485D01*
Y198886D01*
X243885D01*
G37*
G36*
Y202035D02*Y199861D01*
X250485D01*
Y202035D01*
X243885D01*
G37*
G36*
Y205185D02*Y203011D01*
X250485D01*
Y205185D01*
X243885D01*
G37*
G36*
Y208335D02*Y206161D01*
X250485D01*
Y208335D01*
X243885D01*
G37*
G36*
X239335Y219485D02*X237161D01*
Y212885D01*
X239335D01*
Y219485D01*
G37*
G36*
X236186D02*X234012D01*
Y212885D01*
X236186D01*
Y219485D01*
G37*
G36*
X233036D02*X230862D01*
Y212885D01*
X233036D01*
Y219485D01*
G37*
G36*
X229887D02*X227713D01*
Y212885D01*
X229887D01*
Y219485D01*
G37*
G36*
X226737D02*X224563D01*
Y212885D01*
X226737D01*
Y219485D01*
G37*
G36*
X223587D02*X221413D01*
Y212885D01*
X223587D01*
Y219485D01*
G37*
G36*
X220438D02*X218264D01*
Y212885D01*
X220438D01*
Y219485D01*
G37*
G36*
X217288D02*X215114D01*
Y212885D01*
X217288D01*
Y219485D01*
G37*
G36*
X214139D02*X211965D01*
Y212885D01*
X214139D01*
Y219485D01*
G37*
G36*
X210989D02*X208815D01*
Y212885D01*
X210989D01*
Y219485D01*
G37*
G36*
X207839D02*X205665D01*
Y212885D01*
X207839D01*
Y219485D01*
G37*
G36*
X201800Y82600D02*Y79600D01*
X206400D01*
Y82600D01*
X201800D01*
G37*
G36*
X193600D02*Y79600D01*
X198200D01*
Y82600D01*
X193600D01*
G37*
G36*
X201800Y86500D02*Y83500D01*
X206400D01*
Y86500D01*
X201800D01*
G37*
G36*
X193600D02*Y83500D01*
X198200D01*
Y86500D01*
X193600D01*
G37*
G36*
X201800Y90400D02*Y87400D01*
X206400D01*
Y90400D01*
X201800D01*
G37*
G36*
X193600D02*Y87400D01*
X198200D01*
Y90400D01*
X193600D01*
G37*
G36*
X180590Y106178D02*Y103216D01*
X187292D01*
Y106178D01*
X180590D01*
G37*
G36*
X170157Y102241D02*Y96917D01*
X177843D01*
Y102241D01*
X170157D01*
G37*
G36*
X180590Y110115D02*Y107153D01*
X187292D01*
Y110115D01*
X180590D01*
G37*
G36*
Y114052D02*Y111090D01*
X187292D01*
Y114052D01*
X180590D01*
G37*
G36*
Y117989D02*Y115027D01*
X187292D01*
Y117989D01*
X180590D01*
G37*
G36*
Y121926D02*Y118964D01*
X187292D01*
Y121926D01*
X180590D01*
G37*
G36*
Y125863D02*Y122901D01*
X187292D01*
Y125863D01*
X180590D01*
G37*
G36*
X170157Y132162D02*Y126838D01*
X177843D01*
Y132162D01*
X170157D01*
G37*
G36*
X242038Y91360D02*Y89088D01*
X246181D01*
Y91360D01*
X242038D01*
G37*
G36*
Y88212D02*Y85938D01*
X246181D01*
Y88212D01*
X242038D01*
G37*
G36*
Y85062D02*Y82788D01*
X246181D01*
Y85062D01*
X242038D01*
G37*
G36*
Y81912D02*Y79640D01*
X246181D01*
Y81912D01*
X242038D01*
G37*
G36*
X248734D02*Y79640D01*
X252877D01*
Y81912D01*
X248734D01*
G37*
G36*
Y85062D02*Y82788D01*
X252877D01*
Y85062D01*
X248734D01*
G37*
G36*
Y88212D02*Y85938D01*
X252877D01*
Y88212D01*
X248734D01*
G37*
G36*
Y91360D02*Y89088D01*
X252877D01*
Y91360D01*
X248734D01*
G37*
G36*
X272773Y105252D02*X267055D01*
Y98748D01*
X272773D01*
Y105252D01*
G37*
G36*
Y95752D02*X267055D01*
Y89248D01*
X272773D01*
Y95752D01*
G37*
G36*
Y86252D02*X267055D01*
Y79748D01*
X272773D01*
Y86252D01*
G37*
G36*
Y76752D02*X267055D01*
Y70248D01*
X272773D01*
Y76752D01*
G37*
G36*
X279859D02*X274141D01*
Y70248D01*
X279859D01*
Y76752D01*
G37*
G54D83*X78400Y130000D03*
G54D72*G36*
Y133000D02*X75400D01*
Y127000D01*
X78400D01*
Y133000D01*
G37*
G54D83*Y166000D03*
G54D72*G36*
Y169000D02*X75400D01*
Y163000D01*
X78400D01*
Y169000D01*
G37*
G36*
X78902Y179752D02*X73184D01*
Y173248D01*
X78902D01*
Y179752D01*
G37*
G36*
X71121Y189784D02*Y185404D01*
X79595D01*
Y189784D01*
X71121D01*
G37*
G54D83*X71600Y130000D03*
G54D72*G36*
X74600Y133000D02*X71600D01*
Y127000D01*
X74600D01*
Y133000D01*
G37*
G36*
X74900Y142000D02*Y139000D01*
X84400D01*
Y142000D01*
X74900D01*
G37*
G36*
X54400D02*Y139000D01*
X63900D01*
Y142000D01*
X54400D01*
G37*
G36*
X74900Y147000D02*Y144000D01*
X84400D01*
Y147000D01*
X74900D01*
G37*
G36*
Y152000D02*Y149000D01*
X84400D01*
Y152000D01*
X74900D01*
G37*
G36*
Y157000D02*Y154000D01*
X84400D01*
Y157000D01*
X74900D01*
G37*
G36*
X54400D02*Y154000D01*
X63900D01*
Y157000D01*
X54400D01*
G37*
G36*
Y152000D02*Y149000D01*
X63900D01*
Y152000D01*
X54400D01*
G37*
G36*
Y147000D02*Y144000D01*
X63900D01*
Y147000D01*
X54400D01*
G37*
G54D83*X71600Y166000D03*
G54D72*G36*
X74600Y169000D02*X71600D01*
Y163000D01*
X74600D01*
Y169000D01*
G37*
G36*
X71816Y179752D02*X66098D01*
Y173248D01*
X71816D01*
Y179752D01*
G37*
G36*
X57516Y169252D02*X51798D01*
Y162748D01*
X57516D01*
Y169252D01*
G37*
G36*
X64602D02*X58884D01*
Y162748D01*
X64602D01*
Y169252D01*
G37*
G36*
X63405Y195690D02*Y191310D01*
X79595D01*
Y195690D01*
X63405D01*
G37*
G36*
X56946Y198525D02*Y188475D01*
X68886D01*
Y198525D01*
X56946D01*
G37*
G36*
X71850Y191615D02*X70006Y193459D01*
X66742Y190195D01*
X68586Y188351D01*
X71850Y191615D01*
G37*
G36*
X68586Y198649D02*X66742Y196805D01*
X70006Y193541D01*
X71850Y195385D01*
X68586Y198649D01*
G37*
G36*
X71121Y201596D02*Y197216D01*
X79595D01*
Y201596D01*
X71121D01*
G37*
G36*
X98536Y167400D02*Y163249D01*
X103472D01*
Y167400D01*
X98536D01*
G37*
G36*
X103473Y192597D02*X98535D01*
Y186871D01*
X103473D01*
Y192597D01*
G37*
G36*
X103474Y154999D02*X98536D01*
Y142973D01*
X103474D01*
Y154999D01*
G37*
G36*
X62558Y223750D02*Y216850D01*
X75757D01*
Y223750D01*
X62558D01*
G37*
G36*
X82243D02*Y216850D01*
X95442D01*
Y223750D01*
X82243D01*
G37*
G36*
X123354Y209525D02*X119598D01*
Y203800D01*
X123354D01*
Y209525D01*
G37*
G36*
X119024D02*X115268D01*
Y203800D01*
X119024D01*
Y209525D01*
G37*
G36*
X120316Y220752D02*X114598D01*
Y214248D01*
X120316D01*
Y220752D01*
G37*
G36*
X114693Y209525D02*X110937D01*
Y203800D01*
X114693D01*
Y209525D01*
G37*
G36*
X110362D02*X106606D01*
Y203800D01*
X110362D01*
Y209525D01*
G37*
G36*
X106031D02*X102275D01*
Y203800D01*
X106031D01*
Y209525D01*
G37*
G36*
X101902Y255352D02*X96184D01*
Y248848D01*
X101902D01*
Y255352D01*
G37*
G36*
X94816D02*X89098D01*
Y248848D01*
X94816D01*
Y255352D01*
G37*
G36*
X101902Y245452D02*X96184D01*
Y238948D01*
X101902D01*
Y245452D01*
G37*
G36*
X94816D02*X89098D01*
Y238948D01*
X94816D01*
Y245452D01*
G37*
G36*
X75816Y257752D02*X70098D01*
Y251248D01*
X75816D01*
Y257752D01*
G37*
G36*
X82902D02*X77184D01*
Y251248D01*
X82902D01*
Y257752D01*
G37*
G36*
X78700Y271500D02*Y268500D01*
X83300D01*
Y271500D01*
X78700D01*
G37*
G36*
Y267600D02*Y264600D01*
X83300D01*
Y267600D01*
X78700D01*
G37*
G36*
Y263700D02*Y260700D01*
X83300D01*
Y263700D01*
X78700D01*
G37*
G36*
X86900Y267600D02*Y264600D01*
X91500D01*
Y267600D01*
X86900D01*
G37*
G36*
Y263700D02*Y260700D01*
X91500D01*
Y263700D01*
X86900D01*
G37*
G36*
X101300Y282600D02*X98400D01*
Y258300D01*
X101300D01*
Y282600D01*
G37*
G36*
X98400Y261200D02*Y258300D01*
X106900D01*
Y261200D01*
X98400D01*
G37*
G36*
X99200Y262700D02*Y259100D01*
X102800D01*
Y262700D01*
X99200D01*
G37*
G36*
Y281800D02*Y278200D01*
X102800D01*
Y281800D01*
X99200D01*
G37*
G36*
X94402Y283752D02*X88684D01*
Y277248D01*
X94402D01*
Y283752D01*
G37*
G36*
X86900Y271500D02*Y268500D01*
X91500D01*
Y271500D01*
X86900D01*
G37*
G36*
X87316Y283752D02*X81598D01*
Y277248D01*
X87316D01*
Y283752D01*
G37*
G36*
X98400Y282600D02*Y279700D01*
X106900D01*
Y282600D01*
X98400D01*
G37*
G36*
X114200D02*Y279700D01*
X122700D01*
Y282600D01*
X114200D01*
G37*
G36*
X107019Y280000D02*X104473Y282546D01*
X98454Y276527D01*
X101000Y273981D01*
X107019Y280000D01*
G37*
G36*
X116627Y282546D02*X114081Y280000D01*
X120100Y273981D01*
X122646Y276527D01*
X116627Y282546D01*
G37*
G36*
X118300Y281800D02*Y278200D01*
X121900D01*
Y281800D01*
X118300D01*
G37*
G36*
X122700Y282600D02*X119800D01*
Y258300D01*
X122700D01*
Y282600D01*
G37*
G36*
X114200Y261200D02*Y258300D01*
X122700D01*
Y261200D01*
X114200D01*
G37*
G36*
X101000Y266919D02*X98454Y264373D01*
X104473Y258354D01*
X107019Y260900D01*
X101000Y266919D01*
G37*
G36*
X122646Y264373D02*X120100Y266919D01*
X114081Y260900D01*
X116627Y258354D01*
X122646Y264373D01*
G37*
G36*
X118300Y262700D02*Y259100D01*
X121900D01*
Y262700D01*
X118300D01*
G37*
G36*
X54050Y284050D02*X47950D01*
Y275950D01*
X54050D01*
Y284050D01*
G37*
G36*
X67050D02*X60950D01*
Y275950D01*
X67050D01*
Y284050D01*
G37*
M02*
