M48
INCH
T69C0.012
T68C0.047
T67C0.054
T66C0.044
T65C0.039
T64C0.110
T63C0.125
T62C0.038
T61C0.129
T60C0.048
%
T69
X003850Y006000
X004180Y006000
X004500Y006000
X004550Y015550
X005000Y015550
X005000Y009680
X005500Y019750
X005500Y019350
X005500Y018950
X005850Y020050
X005850Y018650
X006050Y017650
X006250Y020050
X006250Y018650
X006350Y017650
X006600Y020050
X006600Y018650
X007200Y014300
X007200Y013750
X008000Y022700
X008000Y021350
X008050Y024750
X008100Y024250
X008450Y022700
X008450Y021350
X008500Y024750
X008500Y024250
X008510Y025740
X008860Y025740
X008900Y022700
X008900Y021350
X009050Y017050
X009050Y016650
X009050Y016250
X009050Y012550
X009050Y012150
X009240Y025740
X010090Y016920
X010090Y016130
X011715Y020195
X011720Y021140
X013447Y021147
X013700Y021950
X013800Y019500
X014000Y019800
X014000Y016100
X014150Y021950
X014150Y020200
X014150Y015800
X014450Y016100
X014550Y015350
X014600Y021950
X015300Y019000
X015600Y020200
X016050Y020500
X016050Y017100
X016050Y015050
X016250Y014700
X016300Y023600
X016300Y021550
X016350Y016250
X017100Y016250
X017200Y023600
X017600Y019150
X017600Y018250
X017850Y003900
X017950Y024750
X018150Y017400
X018150Y016600
X018150Y016100
X018300Y003900
X018700Y003900
X018720Y007700
X018800Y015500
X018850Y024750
X018891Y010468
X019050Y015800
X019050Y015200
X019100Y013700
X019150Y022500
X019150Y010700
X019250Y019150
X019400Y026350
X019400Y026000
X019590Y007700
X019850Y013700
X020000Y008900
X020000Y008500
X020000Y008120
X020050Y017150
X020250Y022500
X020300Y019150
X020350Y017400
X020410Y007700
X020700Y024750
X020800Y008850
X021150Y016100
X021200Y012850
X021200Y012050
X021300Y007700
X021350Y003900
X021500Y009850
X021753Y010998
X021800Y003900
X021900Y016150
X022000Y011300
X022200Y003900
X022250Y022120
X022250Y021110
X022570Y017190
X022570Y016180
X022850Y014950
X023200Y014700
X023746Y008400
X023800Y024350
X024200Y019150
X024700Y014950
X024700Y014400
X024950Y014700
X025240Y019150
X025500Y014200
X025750Y014750
X025800Y013650
X026300Y015500
X026500Y016450
X026500Y015200
X026800Y015500
X026900Y018950
X028100Y021950
X028400Y017050
X028900Y018450
X029950Y021400
X031150Y018450
X031200Y021400
X032360Y023100
X032860Y023100
X032990Y020850
X033050Y019900
X033050Y013500
X034000Y019900
X034200Y021100
X034350Y023500
X034350Y022750
X034780Y021100
X035500Y013400
X035500Y012750
X036770Y023230
X037250Y013500
X037310Y009840
X037310Y008200
X037650Y013500
X037900Y022600
X037900Y022250
X037910Y021260
T62
X020350Y027300
X021350Y027300
X022350Y027300
X023350Y027300
X024350Y027300
X025350Y027300
X026350Y027300
X027350Y027300
X028350Y027300
X029350Y027300
X030350Y027300
X031350Y027300
X032350Y027300
X033350Y027300
X034350Y027300
X035350Y027300
T65
X008720Y002786
X008720Y001014
X011280Y002786
X011280Y001014
X015390Y002786
X015390Y001014
X017950Y002786
X017950Y001014
X022050Y002786
X022050Y001014
X024610Y002786
X024610Y001014
X028720Y002786
X028720Y001014
X031280Y002786
X031280Y001014
T66
X035506Y009030
T68
X002367Y011044
X002367Y009666
X002367Y008289
T60
X002200Y019300
X002200Y017300
X002200Y015300
X002200Y013300
T67
X032554Y009030
T64
X003070Y023440
X004270Y021540
T63
X005470Y023440
T61
X001700Y027300
X001700Y005650
X038300Y027300
X038300Y005650
M30
