G04 start of page 8 for group -4079 idx -4079 *
G04 Title: (unknown), topsilk *
G04 Creator: pcb 20110918 *
G04 CreationDate: Tue 05 Feb 2013 03:14:35 AM GMT UTC *
G04 For: railfan *
G04 Format: Gerber/RS-274X *
G04 PCB-Dimensions: 400000 250000 *
G04 PCB-Coordinate-Origin: lower left *
%MOIN*%
%FSLAX25Y25*%
%LNTOPSILK*%
%ADD124C,0.0200*%
%ADD123C,0.0150*%
%ADD122C,0.0100*%
G54D122*X399500Y500D02*Y249500D01*
X500D01*
X296000Y79000D02*X374000D01*
G54D123*X277500Y196500D02*X283000D01*
X280500Y199000D01*
X283000Y196500D02*X280500Y194000D01*
G54D122*X500Y500D02*X399500D01*
X500Y249500D02*Y500D01*
X297000Y75000D02*X298000D01*
X297500D02*Y71000D01*
X297000D02*X298000D01*
X299200Y72500D02*Y71500D01*
Y72500D02*X299700Y73000D01*
X300700D01*
X301200Y72500D01*
Y71500D01*
X300700Y71000D02*X301200Y71500D01*
X299700Y71000D02*X300700D01*
X299200Y71500D02*X299700Y71000D01*
X302400Y73000D02*Y71500D01*
X302900Y71000D01*
X303400D01*
X303900Y71500D01*
Y73000D02*Y71500D01*
X304400Y71000D01*
X304900D01*
X305400Y71500D01*
Y73000D02*Y71500D01*
X308100Y73000D02*X308600Y72500D01*
X307100Y73000D02*X308100D01*
X306600Y72500D02*X307100Y73000D01*
X306600Y72500D02*Y71500D01*
X307100Y71000D01*
X308600Y73000D02*Y71500D01*
X309100Y71000D01*
X307100D02*X308100D01*
X308600Y71500D01*
X314100Y75000D02*X314600Y74500D01*
X312600Y75000D02*X314100D01*
X312100Y74500D02*X312600Y75000D01*
X312100Y74500D02*Y73500D01*
X312600Y73000D01*
X314100D01*
X314600Y72500D01*
Y71500D01*
X314100Y71000D02*X314600Y71500D01*
X312600Y71000D02*X314100D01*
X312100Y71500D02*X312600Y71000D01*
X316300Y73000D02*X317800D01*
X315800Y72500D02*X316300Y73000D01*
X315800Y72500D02*Y71500D01*
X316300Y71000D01*
X317800D01*
X320500Y73000D02*X321000Y72500D01*
X319500Y73000D02*X320500D01*
X319000Y72500D02*X319500Y73000D01*
X319000Y72500D02*Y71500D01*
X319500Y71000D01*
X321000Y73000D02*Y71500D01*
X321500Y71000D01*
X319500D02*X320500D01*
X321000Y71500D01*
X322700Y75000D02*Y71500D01*
X323200Y71000D01*
X324700D02*X326200D01*
X324200Y71500D02*X324700Y71000D01*
X324200Y72500D02*Y71500D01*
Y72500D02*X324700Y73000D01*
X325700D01*
X326200Y72500D01*
X324200Y72000D02*X326200D01*
Y72500D02*Y72000D01*
X329400Y75000D02*Y71000D01*
X328900D02*X329400Y71500D01*
X327900Y71000D02*X328900D01*
X327400Y71500D02*X327900Y71000D01*
X327400Y72500D02*Y71500D01*
Y72500D02*X327900Y73000D01*
X328900D01*
X329400Y72500D01*
X332400Y73000D02*X333900D01*
X332400Y71000D02*X334400D01*
X332400Y75000D02*Y71000D01*
Y75000D02*X334400D01*
X336100Y72500D02*Y71000D01*
Y72500D02*X336600Y73000D01*
X337100D01*
X337600Y72500D01*
Y71000D01*
X335600Y73000D02*X336100Y72500D01*
X340300Y73000D02*X340800Y72500D01*
X339300Y73000D02*X340300D01*
X338800Y72500D02*X339300Y73000D01*
X338800Y72500D02*Y71500D01*
X339300Y71000D01*
X340300D01*
X340800Y71500D01*
X338800Y70000D02*X339300Y69500D01*
X340300D01*
X340800Y70000D01*
Y73000D02*Y70000D01*
X342000Y74000D02*Y73500D01*
Y72500D02*Y71000D01*
X343500Y72500D02*Y71000D01*
Y72500D02*X344000Y73000D01*
X344500D01*
X345000Y72500D01*
Y71000D01*
X343000Y73000D02*X343500Y72500D01*
X346700Y71000D02*X348200D01*
X346200Y71500D02*X346700Y71000D01*
X346200Y72500D02*Y71500D01*
Y72500D02*X346700Y73000D01*
X347700D01*
X348200Y72500D01*
X346200Y72000D02*X348200D01*
Y72500D02*Y72000D01*
X349900Y71000D02*X351400D01*
X349400Y71500D02*X349900Y71000D01*
X349400Y72500D02*Y71500D01*
Y72500D02*X349900Y73000D01*
X350900D01*
X351400Y72500D01*
X349400Y72000D02*X351400D01*
Y72500D02*Y72000D01*
X353100Y72500D02*Y71000D01*
Y72500D02*X353600Y73000D01*
X354600D01*
X352600D02*X353100Y72500D01*
X355800Y74000D02*Y73500D01*
Y72500D02*Y71000D01*
X357300Y72500D02*Y71000D01*
Y72500D02*X357800Y73000D01*
X358300D01*
X358800Y72500D01*
Y71000D01*
X356800Y73000D02*X357300Y72500D01*
X361500Y73000D02*X362000Y72500D01*
X360500Y73000D02*X361500D01*
X360000Y72500D02*X360500Y73000D01*
X360000Y72500D02*Y71500D01*
X360500Y71000D01*
X361500D01*
X362000Y71500D01*
X360000Y70000D02*X360500Y69500D01*
X361500D01*
X362000Y70000D01*
Y73000D02*Y70000D01*
X346000Y82500D02*X346500Y82000D01*
X346000Y85500D02*X346500Y86000D01*
X346000Y85500D02*Y82500D01*
X348200Y82000D02*X349700D01*
X347700Y82500D02*X348200Y82000D01*
X347700Y85500D02*Y82500D01*
Y85500D02*X348200Y86000D01*
X349700D01*
X350900D02*X351400Y85500D01*
Y82500D01*
X350900Y82000D02*X351400Y82500D01*
X354400Y85500D02*X354900Y86000D01*
X356400D01*
X356900Y85500D01*
Y84500D01*
X354400Y82000D02*X356900Y84500D01*
X354400Y82000D02*X356900D01*
X358100Y82500D02*X358600Y82000D01*
X358100Y85500D02*Y82500D01*
Y85500D02*X358600Y86000D01*
X359600D01*
X360100Y85500D01*
Y82500D01*
X359600Y82000D02*X360100Y82500D01*
X358600Y82000D02*X359600D01*
X358100Y83000D02*X360100Y85000D01*
X361800Y82000D02*X362800D01*
X362300Y86000D02*Y82000D01*
X361300Y85000D02*X362300Y86000D01*
X364000Y85500D02*X364500Y86000D01*
X366000D01*
X366500Y85500D01*
Y84500D01*
X364000Y82000D02*X366500Y84500D01*
X364000Y82000D02*X366500D01*
X297000Y68000D02*Y64000D01*
Y65500D02*X297500Y66000D01*
X298500D01*
X299000Y65500D01*
Y64000D01*
X300700Y68000D02*Y64500D01*
X301200Y64000D01*
X300200Y66500D02*X301200D01*
X302700Y68000D02*Y64500D01*
X303200Y64000D01*
X302200Y66500D02*X303200D01*
X304700Y65500D02*Y62500D01*
X304200Y66000D02*X304700Y65500D01*
X305200Y66000D01*
X306200D01*
X306700Y65500D01*
Y64500D01*
X306200Y64000D02*X306700Y64500D01*
X305200Y64000D02*X306200D01*
X304700Y64500D02*X305200Y64000D01*
X307900Y66500D02*X308400D01*
X307900Y65500D02*X308400D01*
X309600Y64500D02*X312600Y67500D01*
X313800Y64500D02*X316800Y67500D01*
X318000Y66000D02*Y64500D01*
X318500Y64000D01*
X319000D01*
X319500Y64500D01*
Y66000D02*Y64500D01*
X320000Y64000D01*
X320500D01*
X321000Y64500D01*
Y66000D02*Y64500D01*
X322200Y66000D02*Y64500D01*
X322700Y64000D01*
X323200D01*
X323700Y64500D01*
Y66000D02*Y64500D01*
X324200Y64000D01*
X324700D01*
X325200Y64500D01*
Y66000D02*Y64500D01*
X326400Y66000D02*Y64500D01*
X326900Y64000D01*
X327400D01*
X327900Y64500D01*
Y66000D02*Y64500D01*
X328400Y64000D01*
X328900D01*
X329400Y64500D01*
Y66000D02*Y64500D01*
X330600Y64000D02*X331100D01*
X332300Y67000D02*Y66500D01*
Y65500D02*Y64000D01*
X334800Y66000D02*X335300Y65500D01*
X333800Y66000D02*X334800D01*
X333300Y65500D02*X333800Y66000D01*
X333300Y65500D02*Y64500D01*
X333800Y64000D01*
X335300Y66000D02*Y64500D01*
X335800Y64000D01*
X333800D02*X334800D01*
X335300Y64500D01*
X337500Y64000D02*X339000D01*
X339500Y64500D01*
X339000Y65000D02*X339500Y64500D01*
X337500Y65000D02*X339000D01*
X337000Y65500D02*X337500Y65000D01*
X337000Y65500D02*X337500Y66000D01*
X339000D01*
X339500Y65500D01*
X337000Y64500D02*X337500Y64000D01*
X341200Y66000D02*X342700D01*
X340700Y65500D02*X341200Y66000D01*
X340700Y65500D02*Y64500D01*
X341200Y64000D01*
X342700D01*
X345400Y66000D02*X345900Y65500D01*
X344400Y66000D02*X345400D01*
X343900Y65500D02*X344400Y66000D01*
X343900Y65500D02*Y64500D01*
X344400Y64000D01*
X345900Y66000D02*Y64500D01*
X346400Y64000D01*
X344400D02*X345400D01*
X345900Y64500D01*
X347600Y68000D02*Y64500D01*
X348100Y64000D01*
X349600D02*X351100D01*
X349100Y64500D02*X349600Y64000D01*
X349100Y65500D02*Y64500D01*
Y65500D02*X349600Y66000D01*
X350600D01*
X351100Y65500D01*
X349100Y65000D02*X351100D01*
Y65500D02*Y65000D01*
X354300Y68000D02*Y64000D01*
X353800D02*X354300Y64500D01*
X352800Y64000D02*X353800D01*
X352300Y64500D02*X352800Y64000D01*
X352300Y65500D02*Y64500D01*
Y65500D02*X352800Y66000D01*
X353800D01*
X354300Y65500D01*
X355500Y64000D02*X356000D01*
X357700Y66000D02*X359200D01*
X357200Y65500D02*X357700Y66000D01*
X357200Y65500D02*Y64500D01*
X357700Y64000D01*
X359200D01*
X360400Y65500D02*Y64500D01*
Y65500D02*X360900Y66000D01*
X361900D01*
X362400Y65500D01*
Y64500D01*
X361900Y64000D02*X362400Y64500D01*
X360900Y64000D02*X361900D01*
X360400Y64500D02*X360900Y64000D01*
X364100Y65500D02*Y64000D01*
Y65500D02*X364600Y66000D01*
X365100D01*
X365600Y65500D01*
Y64000D01*
Y65500D02*X366100Y66000D01*
X366600D01*
X367100Y65500D01*
Y64000D01*
X363600Y66000D02*X364100Y65500D01*
X297500Y86000D02*Y82000D01*
Y86000D02*X299000Y84500D01*
X300500Y86000D01*
Y82000D01*
X301700Y86000D02*X303700D01*
X304200Y85500D01*
Y84500D01*
X303700Y84000D02*X304200Y84500D01*
X302200Y84000D02*X303700D01*
X302200Y86000D02*Y82000D01*
Y84000D02*X304200Y82000D01*
X305400D02*X307400D01*
X307900Y82500D01*
Y83500D02*Y82500D01*
X307400Y84000D02*X307900Y83500D01*
X305900Y84000D02*X307400D01*
X305900Y86000D02*Y82000D01*
X305400Y86000D02*X307400D01*
X307900Y85500D01*
Y84500D01*
X307400Y84000D02*X307900Y84500D01*
X309100Y84000D02*X311100D01*
X312300Y86000D02*Y82000D01*
Y86000D02*X314300D01*
X312300Y84000D02*X313800D01*
X316000Y82000D02*X317500D01*
X315500Y82500D02*X316000Y82000D01*
X315500Y85500D02*Y82500D01*
Y85500D02*X316000Y86000D01*
X317500D01*
X318700D02*Y82000D01*
Y86000D02*X320200Y84500D01*
X321700Y86000D01*
Y82000D01*
X324700Y84000D02*Y83000D01*
X325700Y82000D01*
X326700Y83000D01*
Y84000D02*Y83000D01*
X328400Y82000D02*X329400D01*
X328900Y86000D02*Y82000D01*
X327900Y85000D02*X328900Y86000D01*
X330600Y82000D02*X331100D01*
X332800D02*X333800D01*
X333300Y86000D02*Y82000D01*
X332300Y85000D02*X333300Y86000D01*
X3000Y76500D02*X7000D01*
Y77000D02*Y75000D01*
X6500Y74500D01*
X5500D02*X6500D01*
X5000Y75000D02*X5500Y74500D01*
X5000Y76500D02*Y75000D01*
X3000Y73300D02*X7000D01*
X3000D02*X4500Y71800D01*
X3000Y70300D01*
X7000D01*
Y69100D02*Y67100D01*
X6500Y66600D01*
X5500D02*X6500D01*
X5000Y67100D02*X5500Y66600D01*
X5000Y68600D02*Y67100D01*
X3000Y68600D02*X7000D01*
X5000D02*X3000Y66600D01*
X4000Y157000D02*X7000D01*
X4000D02*X3000Y156000D01*
X4000Y155000D01*
X7000D01*
Y153800D02*Y152800D01*
X3000Y153300D02*X7000D01*
X3000Y153800D02*Y152800D01*
Y151600D02*X7000D01*
X6500D02*X7000D01*
X6500D02*X4000Y149100D01*
X3000D02*X7000D01*
Y136000D02*X6500Y135500D01*
X7000Y137500D02*Y136000D01*
X6500Y138000D02*X7000Y137500D01*
X3500Y138000D02*X6500D01*
X3500D02*X3000Y137500D01*
Y136000D01*
X3500Y135500D01*
X4500D01*
X5000Y136000D02*X4500Y135500D01*
X5000Y137000D02*Y136000D01*
X3000Y134300D02*X7000D01*
X6500D02*X7000D01*
X6500D02*X4000Y131800D01*
X3000D02*X7000D01*
X3000Y130100D02*X7000D01*
Y128600D02*X6500Y128100D01*
X3500D02*X6500D01*
X3000Y128600D02*X3500Y128100D01*
X3000Y130600D02*Y128600D01*
X7000Y130600D02*Y128600D01*
X3000Y114000D02*X6500D01*
X7000Y113500D01*
Y112000D01*
X6500Y111500D01*
X3000D02*X6500D01*
X5000Y114000D02*Y111500D01*
X3000Y94000D02*Y92000D01*
X3500Y91500D01*
X4500D01*
X5000Y92000D02*X4500Y91500D01*
X5000Y93500D02*Y92000D01*
X3000Y93500D02*X7000D01*
Y94000D02*Y92000D01*
X6500Y91500D01*
X5500D02*X6500D01*
X5000Y92000D02*X5500Y91500D01*
X60000Y155000D02*Y153000D01*
X59500Y152500D01*
X58500D02*X59500D01*
X58000Y153000D02*X58500Y152500D01*
X58000Y154500D02*Y153000D01*
X56000Y154500D02*X60000D01*
X58000D02*X56000Y152500D01*
X60000Y149300D02*X59500Y148800D01*
X60000Y150800D02*Y149300D01*
X59500Y151300D02*X60000Y150800D01*
X58500Y151300D02*X59500D01*
X58500D02*X58000Y150800D01*
Y149300D01*
X57500Y148800D01*
X56500D02*X57500D01*
X56000Y149300D02*X56500Y148800D01*
X56000Y150800D02*Y149300D01*
X56500Y151300D02*X56000Y150800D01*
X60000Y145600D02*X59500Y145100D01*
X60000Y147100D02*Y145600D01*
X59500Y147600D02*X60000Y147100D01*
X58500Y147600D02*X59500D01*
X58500D02*X58000Y147100D01*
Y145600D01*
X57500Y145100D01*
X56500D02*X57500D01*
X56000Y145600D02*X56500Y145100D01*
X56000Y147100D02*Y145600D01*
X56500Y147600D02*X56000Y147100D01*
X60000Y143900D02*Y142900D01*
X56000Y143400D02*X60000D01*
X56000Y143900D02*Y142900D01*
X169000Y141000D02*Y137500D01*
X169500Y137000D01*
X170500D01*
X171000Y137500D01*
Y141000D02*Y137500D01*
X172700Y137000D02*X174200D01*
X174700Y137500D01*
X174200Y138000D02*X174700Y137500D01*
X172700Y138000D02*X174200D01*
X172200Y138500D02*X172700Y138000D01*
X172200Y138500D02*X172700Y139000D01*
X174200D01*
X174700Y138500D01*
X172200Y137500D02*X172700Y137000D01*
X176400D02*X177900D01*
X175900Y137500D02*X176400Y137000D01*
X175900Y138500D02*Y137500D01*
Y138500D02*X176400Y139000D01*
X177400D01*
X177900Y138500D01*
X175900Y138000D02*X177900D01*
Y138500D02*Y138000D01*
X181400Y137000D02*X182900D01*
X180900Y137500D02*X181400Y137000D01*
X180900Y140500D02*Y137500D01*
Y140500D02*X181400Y141000D01*
X182900D01*
X184100D02*X186100D01*
X186600Y140500D01*
Y139500D01*
X186100Y139000D02*X186600Y139500D01*
X184600Y139000D02*X186100D01*
X184600Y141000D02*Y137000D01*
Y139000D02*X186600Y137000D01*
X188300D02*X189300D01*
X188800Y141000D02*Y137000D01*
X187800Y140000D02*X188800Y141000D01*
X190500Y140500D02*X191000Y141000D01*
X192500D01*
X193000Y140500D01*
Y139500D01*
X190500Y137000D02*X193000Y139500D01*
X190500Y137000D02*X193000D01*
X194200Y140500D02*X194700Y141000D01*
X196200D01*
X196700Y140500D01*
Y139500D01*
X194200Y137000D02*X196700Y139500D01*
X194200Y137000D02*X196700D01*
X197900Y137500D02*X198400Y137000D01*
X197900Y140500D02*Y137500D01*
Y140500D02*X198400Y141000D01*
X199400D01*
X199900Y140500D01*
Y137500D01*
X199400Y137000D02*X199900Y137500D01*
X198400Y137000D02*X199400D01*
X197900Y138000D02*X199900Y140000D01*
X202900Y137000D02*X204900D01*
X205400Y137500D01*
Y138500D02*Y137500D01*
X204900Y139000D02*X205400Y138500D01*
X203400Y139000D02*X204900D01*
X203400Y141000D02*Y137000D01*
X202900Y141000D02*X204900D01*
X205400Y140500D01*
Y139500D01*
X204900Y139000D02*X205400Y139500D01*
X208100Y139000D02*X208600Y138500D01*
X207100Y139000D02*X208100D01*
X206600Y138500D02*X207100Y139000D01*
X206600Y138500D02*Y137500D01*
X207100Y137000D01*
X208600Y139000D02*Y137500D01*
X209100Y137000D01*
X207100D02*X208100D01*
X208600Y137500D01*
X210800Y141000D02*Y137500D01*
X211300Y137000D01*
X210300Y139500D02*X211300D01*
X212800Y141000D02*Y137500D01*
X213300Y137000D01*
X212300Y139500D02*X213300D01*
X214800Y137000D02*X216300D01*
X214300Y137500D02*X214800Y137000D01*
X214300Y138500D02*Y137500D01*
Y138500D02*X214800Y139000D01*
X215800D01*
X216300Y138500D01*
X214300Y138000D02*X216300D01*
Y138500D02*Y138000D01*
X218000Y138500D02*Y137000D01*
Y138500D02*X218500Y139000D01*
X219500D01*
X217500D02*X218000Y138500D01*
X220700Y139000D02*Y137500D01*
X221200Y137000D01*
X222700Y139000D02*Y136000D01*
X222200Y135500D02*X222700Y136000D01*
X221200Y135500D02*X222200D01*
X220700Y136000D02*X221200Y135500D01*
Y137000D02*X222200D01*
X222700Y137500D01*
X324500Y147500D02*X325000Y147000D01*
X323000Y147500D02*X324500D01*
X322500Y147000D02*X323000Y147500D01*
X322500Y147000D02*Y146000D01*
X323000Y145500D01*
X324500D01*
X325000Y145000D01*
Y144000D01*
X324500Y143500D02*X325000Y144000D01*
X323000Y143500D02*X324500D01*
X322500Y144000D02*X323000Y143500D01*
X326200Y147500D02*Y143500D01*
X327700Y145000D01*
X329200Y143500D01*
Y147500D02*Y143500D01*
X330900D02*X331900D01*
X331400Y147500D02*Y143500D01*
X330400Y146500D02*X331400Y147500D01*
X312500Y133500D02*X314000D01*
X312000Y134000D02*X312500Y133500D01*
X312000Y137000D02*Y134000D01*
Y137000D02*X312500Y137500D01*
X314000D01*
X315200Y137000D02*Y134000D01*
Y137000D02*X315700Y137500D01*
X316700D01*
X317200Y137000D01*
Y134000D01*
X316700Y133500D02*X317200Y134000D01*
X315700Y133500D02*X316700D01*
X315200Y134000D02*X315700Y133500D01*
X318400Y137500D02*Y133500D01*
Y137500D02*X319900Y136000D01*
X321400Y137500D01*
Y133500D01*
X322600Y137500D02*Y133500D01*
Y137500D02*X324100Y136000D01*
X325600Y137500D01*
Y133500D01*
X326800Y137000D02*Y134000D01*
Y137000D02*X327300Y137500D01*
X328300D01*
X328800Y137000D01*
Y134000D01*
X328300Y133500D02*X328800Y134000D01*
X327300Y133500D02*X328300D01*
X326800Y134000D02*X327300Y133500D01*
X330000Y137500D02*Y133500D01*
Y137500D02*Y137000D01*
X332500Y134500D01*
Y137500D02*Y133500D01*
X57000Y119000D02*X60500D01*
X61000Y118500D01*
Y117000D01*
X60500Y116500D01*
X57000D02*X60500D01*
X59000Y119000D02*Y116500D01*
X61000Y113300D02*X60500Y112800D01*
X61000Y114800D02*Y113300D01*
X60500Y115300D02*X61000Y114800D01*
X59500Y115300D02*X60500D01*
X59500D02*X59000Y114800D01*
Y113300D01*
X58500Y112800D01*
X57500D02*X58500D01*
X57000Y113300D02*X57500Y112800D01*
X57000Y114800D02*Y113300D01*
X57500Y115300D02*X57000Y114800D01*
X61000Y109600D02*X60500Y109100D01*
X61000Y111100D02*Y109600D01*
X60500Y111600D02*X61000Y111100D01*
X59500Y111600D02*X60500D01*
X59500D02*X59000Y111100D01*
Y109600D01*
X58500Y109100D01*
X57500D02*X58500D01*
X57000Y109600D02*X57500Y109100D01*
X57000Y111100D02*Y109600D01*
X57500Y111600D02*X57000Y111100D01*
X57500Y107900D02*X60500D01*
X61000Y107400D01*
Y106400D01*
X60500Y105900D01*
X57500D02*X60500D01*
X57000Y106400D02*X57500Y105900D01*
X57000Y107400D02*Y106400D01*
X57500Y107900D02*X57000Y107400D01*
Y104200D02*Y102700D01*
X57500Y104700D02*X57000Y104200D01*
X57500Y104700D02*X60500D01*
X61000Y104200D01*
Y102700D01*
X171500Y66000D02*Y62000D01*
X171000Y66000D02*X173000D01*
X173500Y65500D01*
Y64500D01*
X173000Y64000D02*X173500Y64500D01*
X171500Y64000D02*X173000D01*
X174700Y66000D02*Y62000D01*
Y64000D02*X176700Y66000D01*
X174700Y64000D02*X176700Y62000D01*
X177900Y66000D02*X179900D01*
X178900D02*Y62000D01*
X345500Y207000D02*Y203500D01*
Y207000D02*X346000Y207500D01*
X347500D01*
X348000Y207000D01*
Y203500D01*
X345500Y205500D02*X348000D01*
X349700Y207500D02*Y203500D01*
X351200Y207500D02*X351700Y207000D01*
Y204000D01*
X351200Y203500D02*X351700Y204000D01*
X349200Y203500D02*X351200D01*
X349200Y207500D02*X351200D01*
X352900D02*X354400D01*
Y204000D01*
X353900Y203500D02*X354400Y204000D01*
X353400Y203500D02*X353900D01*
X352900Y204000D02*X353400Y203500D01*
X355600Y207500D02*Y204000D01*
X356100Y203500D01*
X357100D01*
X357600Y204000D01*
Y207500D02*Y204000D01*
X360800Y207500D02*X361300Y207000D01*
X359300Y207500D02*X360800D01*
X358800Y207000D02*X359300Y207500D01*
X358800Y207000D02*Y206000D01*
X359300Y205500D01*
X360800D01*
X361300Y205000D01*
Y204000D01*
X360800Y203500D02*X361300Y204000D01*
X359300Y203500D02*X360800D01*
X358800Y204000D02*X359300Y203500D01*
X362500Y207500D02*X364500D01*
X363500D02*Y203500D01*
X346000Y209500D02*X347500D01*
X345500Y210000D02*X346000Y209500D01*
X345500Y213000D02*Y210000D01*
Y213000D02*X346000Y213500D01*
X347500D01*
X348700Y213000D02*Y210000D01*
Y213000D02*X349200Y213500D01*
X350200D01*
X350700Y213000D01*
Y210000D01*
X350200Y209500D02*X350700Y210000D01*
X349200Y209500D02*X350200D01*
X348700Y210000D02*X349200Y209500D01*
X351900Y213500D02*Y209500D01*
Y213500D02*Y213000D01*
X354400Y210500D01*
Y213500D02*Y209500D01*
X357600Y213500D02*X358100Y213000D01*
X356100Y213500D02*X357600D01*
X355600Y213000D02*X356100Y213500D01*
X355600Y213000D02*Y212000D01*
X356100Y211500D01*
X357600D01*
X358100Y211000D01*
Y210000D01*
X357600Y209500D02*X358100Y210000D01*
X356100Y209500D02*X357600D01*
X355600Y210000D02*X356100Y209500D01*
X359300Y213500D02*X361300D01*
X360300D02*Y209500D01*
X362500Y213500D02*X364500D01*
X365000Y213000D01*
Y212000D01*
X364500Y211500D02*X365000Y212000D01*
X363000Y211500D02*X364500D01*
X363000Y213500D02*Y209500D01*
Y211500D02*X365000Y209500D01*
X366200Y213000D02*Y209500D01*
Y213000D02*X366700Y213500D01*
X368200D01*
X368700Y213000D01*
Y209500D01*
X366200Y211500D02*X368700D01*
X371900Y213500D02*X372400Y213000D01*
X370400Y213500D02*X371900D01*
X369900Y213000D02*X370400Y213500D01*
X369900Y213000D02*Y212000D01*
X370400Y211500D01*
X371900D01*
X372400Y211000D01*
Y210000D01*
X371900Y209500D02*X372400Y210000D01*
X370400Y209500D02*X371900D01*
X369900Y210000D02*X370400Y209500D01*
X373600Y213500D02*X375600D01*
X374600D02*Y209500D01*
X324500Y167500D02*X325000Y167000D01*
X323000Y167500D02*X324500D01*
X322500Y167000D02*X323000Y167500D01*
X322500Y167000D02*Y166000D01*
X323000Y165500D01*
X324500D01*
X325000Y165000D01*
Y164000D01*
X324500Y163500D02*X325000Y164000D01*
X323000Y163500D02*X324500D01*
X322500Y164000D02*X323000Y163500D01*
X326200Y167500D02*Y163500D01*
X327700Y165000D01*
X329200Y163500D01*
Y167500D02*Y163500D01*
X330400Y167000D02*X330900Y167500D01*
X331900D01*
X332400Y167000D01*
Y164000D01*
X331900Y163500D02*X332400Y164000D01*
X330900Y163500D02*X331900D01*
X330400Y164000D02*X330900Y163500D01*
Y165500D02*X332400D01*
X324500Y177500D02*X325000Y177000D01*
X323000Y177500D02*X324500D01*
X322500Y177000D02*X323000Y177500D01*
X322500Y177000D02*Y176000D01*
X323000Y175500D01*
X324500D01*
X325000Y175000D01*
Y174000D01*
X324500Y173500D02*X325000Y174000D01*
X323000Y173500D02*X324500D01*
X322500Y174000D02*X323000Y173500D01*
X326200Y177500D02*Y173500D01*
X327700Y175000D01*
X329200Y173500D01*
Y177500D02*Y173500D01*
X330400Y175500D02*X332400Y177500D01*
X330400Y175500D02*X332900D01*
X332400Y177500D02*Y173500D01*
X324500Y157000D02*X325000Y156500D01*
X323000Y157000D02*X324500D01*
X322500Y156500D02*X323000Y157000D01*
X322500Y156500D02*Y155500D01*
X323000Y155000D01*
X324500D01*
X325000Y154500D01*
Y153500D01*
X324500Y153000D02*X325000Y153500D01*
X323000Y153000D02*X324500D01*
X322500Y153500D02*X323000Y153000D01*
X326200Y157000D02*Y153000D01*
X327700Y154500D01*
X329200Y153000D01*
Y157000D02*Y153000D01*
X330400Y156500D02*X330900Y157000D01*
X332400D01*
X332900Y156500D01*
Y155500D01*
X330400Y153000D02*X332900Y155500D01*
X330400Y153000D02*X332900D01*
X107607Y203245D02*X108393D01*
X107607Y208755D02*X108393D01*
X68100Y170800D02*X109500D01*
Y199300D02*Y170800D01*
X68100Y199300D02*X109500D01*
X68100D02*Y170800D01*
X35000Y239800D02*Y220100D01*
X43000Y239800D02*Y220100D01*
X35000Y239800D02*X43000D01*
X35000Y220100D02*X43000D01*
X35000Y233000D02*X43000D01*
X30000Y174000D02*X500D01*
Y208000D01*
X56500D01*
Y203000D01*
X52500Y174000D02*X56500D01*
Y179000D01*
X500Y174000D02*Y208000D01*
X1000Y174000D02*Y208000D01*
X1500Y174000D02*Y208000D01*
X2000Y174000D02*Y208000D01*
X2500Y174000D02*Y208000D01*
X3000Y174000D02*Y208000D01*
X3500Y174000D02*Y208000D01*
X4000Y174000D02*Y208000D01*
X13500Y174000D02*Y208000D01*
X13000Y174000D02*Y208000D01*
X12500Y174000D02*Y208000D01*
X12000Y174000D02*Y208000D01*
X11500Y174000D02*Y208000D01*
X11000Y174000D02*Y208000D01*
X10500Y174000D02*Y208000D01*
X10000Y174000D02*Y208000D01*
X48008Y215008D02*X54504D01*
X67496D02*X73992D01*
Y234496D02*Y215008D01*
X48008Y234496D02*Y215008D01*
X73992Y234496D02*X67496Y240992D01*
X48008Y234496D02*X54504Y240992D01*
X51000Y234000D02*X55000D01*
X53000Y236000D02*Y232000D01*
X134607Y237755D02*X135393D01*
X134607Y232245D02*X135393D01*
X79465Y211526D02*X125135D01*
X79465Y244990D02*X125135D01*
X79465D02*Y211526D01*
X125135Y244990D02*Y211526D01*
X127100Y187500D02*X141000D01*
X127100D02*Y174700D01*
X141000D01*
Y187500D02*Y174700D01*
X134607Y241245D02*X135393D01*
X134607Y246755D02*X135393D01*
X198000Y238000D02*X358000D01*
X198000D02*Y228000D01*
X358000D01*
Y238000D02*Y228000D01*
X348000Y238000D02*Y228000D01*
X358000D01*
X347607Y245755D02*X348393D01*
X347607Y240245D02*X348393D01*
X221607Y167745D02*X222393D01*
X221607Y173255D02*X222393D01*
X223107Y187255D02*X223893D01*
X223107Y181745D02*X223893D01*
X253607Y187245D02*X254393D01*
X253607Y192755D02*X254393D01*
X175100Y239500D02*X189000D01*
X175100D02*Y226700D01*
X189000D01*
Y239500D02*Y226700D01*
X186000Y150500D02*G75*G03X215500Y180000I0J29500D01*G01*
X156500D02*G75*G03X186000Y150500I29500J0D01*G01*
Y209500D02*G75*G03X156500Y180000I0J-29500D01*G01*
X215500D02*G75*G03X186000Y209500I-29500J0D01*G01*
X150245Y227393D02*Y226607D01*
X155755Y227393D02*Y226607D01*
X286000Y201500D02*Y171500D01*
X306000D01*
Y201500D01*
X286000D01*
Y191500D02*X296000D01*
Y201500D01*
X341600Y195000D02*X325400D01*
X341600Y217000D02*X325400D01*
X341600Y195000D02*Y217000D01*
X325400Y195000D02*Y217000D01*
X376000Y162500D02*Y148600D01*
X387800D01*
Y162500D01*
X376000D01*
X91607Y142755D02*X92393D01*
X91607Y137245D02*X92393D01*
X53740Y151362D02*Y146638D01*
X46260Y151362D02*Y146638D01*
X53740Y118362D02*Y113638D01*
X46260Y118362D02*Y113638D01*
X91607Y151755D02*X92393D01*
X91607Y146245D02*X92393D01*
X84100Y135500D02*X98000D01*
X84100D02*Y122700D01*
X98000D01*
Y135500D02*Y122700D01*
X62755Y128393D02*Y127607D01*
X57245Y128393D02*Y127607D01*
X10260Y74362D02*Y69638D01*
X17740Y74362D02*Y69638D01*
X31755Y70393D02*Y69607D01*
X26245Y70393D02*Y69607D01*
X10500Y47500D02*X30500D01*
Y57500D02*Y47500D01*
X10500Y57500D02*X30500D01*
X10500D02*Y47500D01*
X20500Y57500D02*Y47500D01*
X10500Y57500D02*X20500D01*
X37000D02*Y37500D01*
X47000D01*
Y57500D01*
X37000D01*
Y47500D02*X47000D01*
Y57500D01*
X22107Y36745D02*X22893D01*
X22107Y42255D02*X22893D01*
X9200Y123000D02*Y83000D01*
X39200Y123000D02*Y83000D01*
X34800Y123000D02*Y83000D01*
X9200Y123000D02*X39200D01*
X9200Y83000D02*X39200D01*
X9200Y163000D02*Y123000D01*
X39200Y163000D02*Y123000D01*
X34800Y163000D02*Y123000D01*
X9200Y163000D02*X39200D01*
X9200Y123000D02*X39200D01*
X52607Y92245D02*X53393D01*
X52607Y97755D02*X53393D01*
X84755Y113393D02*Y112607D01*
X79245Y113393D02*Y112607D01*
X212100Y46500D02*X253000D01*
X212100D02*Y500D01*
X253000Y46500D02*Y500D01*
X212100D02*X253000D01*
X278600Y46500D02*X319500D01*
X278600D02*Y500D01*
X319500Y46500D02*Y500D01*
X278600D02*X319500D01*
X172638Y59740D02*X177362D01*
X172638Y52260D02*X177362D01*
X150607Y52245D02*X151393D01*
X150607Y57755D02*X151393D01*
X168472Y94500D02*Y132500D01*
X227528Y94500D02*Y132500D01*
X168472D02*X227528D01*
X168472Y94500D02*G75*G03X187901Y66753I29528J0D01*G01*
X208099Y66753D02*G75*G03X227528Y94500I-10099J27747D01*G01*
X138607Y82245D02*X139393D01*
X138607Y87755D02*X139393D01*
X138607Y103755D02*X139393D01*
X138607Y98245D02*X139393D01*
X279607Y136245D02*X280393D01*
X279607Y141755D02*X280393D01*
X241221Y171779D02*Y147921D01*
Y171779D02*X267979D01*
Y145021D01*
X244121D02*X267979D01*
X244121D02*X241221Y147921D01*
X244121Y146921D02*G75*G03X244121Y146921I0J1000D01*G01*
X308146Y137492D02*Y111508D01*
X288854Y137492D02*Y111508D01*
G75*G03X308146Y111508I9646J0D01*G01*
Y137492D02*G75*G03X288854Y137492I-9646J0D01*G01*
X323107Y121245D02*X323893D01*
X323107Y126755D02*X323893D01*
X354107Y178255D02*X354893D01*
X354107Y172745D02*X354893D01*
X354107Y168255D02*X354893D01*
X354107Y162745D02*X354893D01*
X354107Y158255D02*X354893D01*
X354107Y152745D02*X354893D01*
X354107Y148255D02*X354893D01*
X354107Y142745D02*X354893D01*
X345500Y180500D02*Y130500D01*
X335500Y180500D02*X345500D01*
X335500D02*Y130500D01*
X345500D01*
X335500Y140500D02*X345500D01*
X335500D02*Y130500D01*
X279607Y123245D02*X280393D01*
X279607Y128755D02*X280393D01*
X247607Y124245D02*X248393D01*
X247607Y129755D02*X248393D01*
X262107Y124245D02*X262893D01*
X262107Y129755D02*X262893D01*
X257500Y110500D02*X276500D01*
X257500D02*Y79500D01*
X276500D01*
Y110500D02*Y97500D01*
Y92500D02*Y79500D01*
Y97500D02*G75*G03X276500Y92500I0J-2500D01*G01*
X232000Y112000D02*Y102000D01*
X252000D01*
Y112000D01*
X232000D01*
Y102000D02*X242000D01*
Y112000D01*
X65393Y142909D02*Y59917D01*
X162007Y142909D02*Y59917D01*
X65393D02*X162007D01*
X65393Y142909D02*X95590Y168618D01*
X162007Y142909D02*X131810Y168618D01*
X95590D02*X131810D01*
X89100Y119500D02*X103000D01*
X89100D02*Y106700D01*
X103000D01*
Y119500D02*Y106700D01*
X121000Y103000D02*Y63000D01*
X81000Y103000D02*X121000D01*
X81000D02*Y63000D01*
X106000D02*X121000D01*
X81000D02*X96000D01*
X106000D02*G75*G03X96000Y63000I-5000J0D01*G01*
X106755Y78393D02*Y77607D01*
X101245Y78393D02*Y77607D01*
X130607Y73245D02*X131393D01*
X130607Y78755D02*X131393D01*
X78100Y46500D02*X119000D01*
X78100D02*Y500D01*
X119000Y46500D02*Y500D01*
X78100D02*X119000D01*
X145100Y46500D02*X186000D01*
X145100D02*Y500D01*
X186000Y46500D02*Y500D01*
X145100D02*X186000D01*
X57607Y38245D02*X58393D01*
X57607Y43755D02*X58393D01*
X108607Y137245D02*X109393D01*
X108607Y142755D02*X109393D01*
G54D124*X80900Y163800D02*Y155200D01*
G54D122*X83300Y154000D01*
X99100D01*
Y165000D01*
X83300D01*
X80900Y163800D01*
X143000Y246000D02*X145000D01*
X145500Y245500D01*
Y244500D01*
X145000Y244000D02*X145500Y244500D01*
X143500Y244000D02*X145000D01*
X143500Y246000D02*Y242000D01*
Y244000D02*X145500Y242000D01*
X146700Y246000D02*X148700D01*
X146700D02*Y244000D01*
X147200Y244500D01*
X148200D01*
X148700Y244000D01*
Y242500D01*
X148200Y242000D02*X148700Y242500D01*
X147200Y242000D02*X148200D01*
X146700Y242500D02*X147200Y242000D01*
X135000Y231000D02*X137000D01*
X137500Y230500D01*
Y229500D01*
X137000Y229000D02*X137500Y229500D01*
X135500Y229000D02*X137000D01*
X135500Y231000D02*Y227000D01*
Y229000D02*X137500Y227000D01*
X140200Y231000D02*X140700Y230500D01*
X139200Y231000D02*X140200D01*
X138700Y230500D02*X139200Y231000D01*
X138700Y230500D02*Y227500D01*
X139200Y227000D01*
X140200Y229000D02*X140700Y228500D01*
X138700Y229000D02*X140200D01*
X139200Y227000D02*X140200D01*
X140700Y227500D01*
Y228500D02*Y227500D01*
X158500Y235000D02*X160000D01*
X158000Y235500D02*X158500Y235000D01*
X158000Y238500D02*Y235500D01*
Y238500D02*X158500Y239000D01*
X160000D01*
X162700D02*X163200Y238500D01*
X161700Y239000D02*X162700D01*
X161200Y238500D02*X161700Y239000D01*
X161200Y238500D02*Y235500D01*
X161700Y235000D01*
X162700Y237000D02*X163200Y236500D01*
X161200Y237000D02*X162700D01*
X161700Y235000D02*X162700D01*
X163200Y235500D01*
Y236500D02*Y235500D01*
X118500Y204000D02*X120000D01*
X118000Y204500D02*X118500Y204000D01*
X118000Y207500D02*Y204500D01*
Y207500D02*X118500Y208000D01*
X120000D01*
X121200Y207500D02*X121700Y208000D01*
X123200D01*
X123700Y207500D01*
Y206500D01*
X121200Y204000D02*X123700Y206500D01*
X121200Y204000D02*X123700D01*
X128000Y217500D02*Y214000D01*
X128500Y213500D01*
X129500D01*
X130000Y214000D01*
Y217500D02*Y214000D01*
X131700Y213500D02*X132700D01*
X132200Y217500D02*Y213500D01*
X131200Y216500D02*X132200Y217500D01*
X157000Y209000D02*X157500Y208500D01*
X155500Y209000D02*X157000D01*
X155000Y208500D02*X155500Y209000D01*
X155000Y208500D02*Y207500D01*
X155500Y207000D01*
X157000D01*
X157500Y206500D01*
Y205500D01*
X157000Y205000D02*X157500Y205500D01*
X155500Y205000D02*X157000D01*
X155000Y205500D02*X155500Y205000D01*
X159200Y209000D02*Y205000D01*
X158700Y209000D02*X160700D01*
X161200Y208500D01*
Y207500D01*
X160700Y207000D02*X161200Y207500D01*
X159200Y207000D02*X160700D01*
X162900Y205000D02*X163900D01*
X163400Y209000D02*Y205000D01*
X162400Y208000D02*X163400Y209000D01*
X296000Y209500D02*Y208000D01*
X292500D02*X296000D01*
X292000Y208500D02*X292500Y208000D01*
X292000Y209000D02*Y208500D01*
X292500Y209500D02*X292000Y209000D01*
X295500Y206800D02*X296000Y206300D01*
Y205300D01*
X295500Y204800D01*
X292500D02*X295500D01*
X292000Y205300D02*X292500Y204800D01*
X292000Y206300D02*Y205300D01*
X292500Y206800D02*X292000Y206300D01*
X294000D02*Y204800D01*
X351500Y226000D02*Y222000D01*
X353500D01*
X355200D02*X356700D01*
X354700Y222500D02*X355200Y222000D01*
X354700Y225500D02*Y222500D01*
Y225500D02*X355200Y226000D01*
X356700D01*
X358400D02*Y222000D01*
X359900Y226000D02*X360400Y225500D01*
Y222500D01*
X359900Y222000D02*X360400Y222500D01*
X357900Y222000D02*X359900D01*
X357900Y226000D02*X359900D01*
X362100Y222000D02*X363100D01*
X362600Y226000D02*Y222000D01*
X361600Y225000D02*X362600Y226000D01*
X179000Y224000D02*Y221000D01*
Y224000D02*X179500Y224500D01*
X180500D01*
X181000Y224000D01*
Y221000D01*
X180500Y220500D02*X181000Y221000D01*
X179500Y220500D02*X180500D01*
X179000Y221000D02*X179500Y220500D01*
X180000Y221500D02*X181000Y220500D01*
X182200Y222500D02*X184200Y224500D01*
X182200Y222500D02*X184700D01*
X184200Y224500D02*Y220500D01*
X72000Y240500D02*X73500D01*
X71500Y241000D02*X72000Y240500D01*
X71500Y244000D02*Y241000D01*
Y244000D02*X72000Y244500D01*
X73500D01*
X75200Y240500D02*X76200D01*
X75700Y244500D02*Y240500D01*
X74700Y243500D02*X75700Y244500D01*
X37000Y216500D02*Y212500D01*
X38500Y216500D02*X39000Y216000D01*
Y213000D01*
X38500Y212500D02*X39000Y213000D01*
X36500Y212500D02*X38500D01*
X36500Y216500D02*X38500D01*
X40200Y216000D02*X40700Y216500D01*
X41700D01*
X42200Y216000D01*
Y213000D01*
X41700Y212500D02*X42200Y213000D01*
X40700Y212500D02*X41700D01*
X40200Y213000D02*X40700Y212500D01*
Y214500D02*X42200D01*
X3000Y214000D02*X4500D01*
Y210500D01*
X4000Y210000D02*X4500Y210500D01*
X3500Y210000D02*X4000D01*
X3000Y210500D02*X3500Y210000D01*
X5700Y214000D02*X7700D01*
X5700D02*Y212000D01*
X6200Y212500D01*
X7200D01*
X7700Y212000D01*
Y210500D01*
X7200Y210000D02*X7700Y210500D01*
X6200Y210000D02*X7200D01*
X5700Y210500D02*X6200Y210000D01*
X76500Y138000D02*X78000D01*
X76000Y138500D02*X76500Y138000D01*
X76000Y141500D02*Y138500D01*
Y141500D02*X76500Y142000D01*
X78000D01*
X79700Y138000D02*X80700D01*
X80200Y142000D02*Y138000D01*
X79200Y141000D02*X80200Y142000D01*
X82400Y138000D02*X83400D01*
X82900Y142000D02*Y138000D01*
X81900Y141000D02*X82900Y142000D01*
X51500Y165000D02*X55500D01*
Y163500D02*X55000Y163000D01*
X52000D02*X55000D01*
X51500Y163500D02*X52000Y163000D01*
X51500Y165500D02*Y163500D01*
X55500Y165500D02*Y163500D01*
Y161800D02*Y159800D01*
X53500Y161800D02*X55500D01*
X53500D02*X54000Y161300D01*
Y160300D01*
X53500Y159800D01*
X52000D02*X53500D01*
X51500Y160300D02*X52000Y159800D01*
X51500Y161300D02*Y160300D01*
X52000Y161800D02*X51500Y161300D01*
X76000Y146500D02*X77500D01*
X75500Y147000D02*X76000Y146500D01*
X75500Y150000D02*Y147000D01*
Y150000D02*X76000Y150500D01*
X77500D01*
X79200Y146500D02*X80200D01*
X79700Y150500D02*Y146500D01*
X78700Y149500D02*X79700Y150500D01*
X81400Y150000D02*X81900Y150500D01*
X83400D01*
X83900Y150000D01*
Y149000D01*
X81400Y146500D02*X83900Y149000D01*
X81400Y146500D02*X83900D01*
X73000Y162500D02*Y161000D01*
X73500Y163000D02*X73000Y162500D01*
X73500Y163000D02*X76500D01*
X77000Y162500D01*
Y161000D01*
X73000Y159300D02*Y158300D01*
Y158800D02*X77000D01*
X76000Y159800D02*X77000Y158800D01*
X76500Y157100D02*X77000Y156600D01*
Y155600D01*
X76500Y155100D01*
X73500D02*X76500D01*
X73000Y155600D02*X73500Y155100D01*
X73000Y156600D02*Y155600D01*
X73500Y157100D02*X73000Y156600D01*
X75000D02*Y155100D01*
X30000Y169500D02*Y168000D01*
X26500D02*X30000D01*
X26000Y168500D02*X26500Y168000D01*
X26000Y169000D02*Y168500D01*
X26500Y169500D02*X26000Y169000D01*
Y166300D02*Y165300D01*
Y165800D02*X30000D01*
X29000Y166800D02*X30000Y165800D01*
X148500Y169000D02*X149000D01*
X148500D02*X146000Y166500D01*
X145000D02*X146000D01*
X145000Y169000D02*X146000D01*
X148500Y166500D01*
X149000D01*
X145500Y165300D02*X149000D01*
X145500D02*X145000Y164800D01*
Y163800D01*
X145500Y163300D01*
X149000D01*
Y160600D02*X148500Y160100D01*
X149000Y161600D02*Y160600D01*
X148500Y162100D02*X149000Y161600D01*
X145500Y162100D02*X148500D01*
X145500D02*X145000Y161600D01*
X147000Y160600D02*X146500Y160100D01*
X147000Y162100D02*Y160600D01*
X145000Y161600D02*Y160600D01*
X145500Y160100D01*
X146500D01*
X112000Y188000D02*Y184500D01*
X112500Y184000D01*
X113500D01*
X114000Y184500D01*
Y188000D02*Y184500D01*
X115200Y188000D02*X117200D01*
X115200D02*Y186000D01*
X115700Y186500D01*
X116700D01*
X117200Y186000D01*
Y184500D01*
X116700Y184000D02*X117200Y184500D01*
X115700Y184000D02*X116700D01*
X115200Y184500D02*X115700Y184000D01*
X143000Y180500D02*Y177500D01*
Y180500D02*X143500Y181000D01*
X144500D01*
X145000Y180500D01*
Y177500D01*
X144500Y177000D02*X145000Y177500D01*
X143500Y177000D02*X144500D01*
X143000Y177500D02*X143500Y177000D01*
X144000Y178000D02*X145000Y177000D01*
X146200Y180500D02*X146700Y181000D01*
X147700D01*
X148200Y180500D01*
Y177500D01*
X147700Y177000D02*X148200Y177500D01*
X146700Y177000D02*X147700D01*
X146200Y177500D02*X146700Y177000D01*
Y179000D02*X148200D01*
X190500Y11000D02*X191000Y10500D01*
X189000Y11000D02*X190500D01*
X188500Y10500D02*X189000Y11000D01*
X188500Y10500D02*Y9500D01*
X189000Y9000D01*
X190500D01*
X191000Y8500D01*
Y7500D01*
X190500Y7000D02*X191000Y7500D01*
X189000Y7000D02*X190500D01*
X188500Y7500D02*X189000Y7000D01*
X192200Y10500D02*X192700Y11000D01*
X193700D01*
X194200Y10500D01*
Y7500D01*
X193700Y7000D02*X194200Y7500D01*
X192700Y7000D02*X193700D01*
X192200Y7500D02*X192700Y7000D01*
Y9000D02*X194200D01*
X257500Y11000D02*X258000Y10500D01*
X256000Y11000D02*X257500D01*
X255500Y10500D02*X256000Y11000D01*
X255500Y10500D02*Y9500D01*
X256000Y9000D01*
X257500D01*
X258000Y8500D01*
Y7500D01*
X257500Y7000D02*X258000Y7500D01*
X256000Y7000D02*X257500D01*
X255500Y7500D02*X256000Y7000D01*
X259200Y10500D02*X259700Y11000D01*
X261200D01*
X261700Y10500D01*
Y9500D01*
X259200Y7000D02*X261700Y9500D01*
X259200Y7000D02*X261700D01*
X323500Y11000D02*X324000Y10500D01*
X322000Y11000D02*X323500D01*
X321500Y10500D02*X322000Y11000D01*
X321500Y10500D02*Y9500D01*
X322000Y9000D01*
X323500D01*
X324000Y8500D01*
Y7500D01*
X323500Y7000D02*X324000Y7500D01*
X322000Y7000D02*X323500D01*
X321500Y7500D02*X322000Y7000D01*
X325700D02*X326700D01*
X326200Y11000D02*Y7000D01*
X325200Y10000D02*X326200Y11000D01*
X280000Y115500D02*X281500D01*
X279500Y116000D02*X280000Y115500D01*
X279500Y119000D02*Y116000D01*
Y119000D02*X280000Y119500D01*
X281500D01*
X282700Y115500D02*X284700Y117500D01*
Y119000D02*Y117500D01*
X284200Y119500D02*X284700Y119000D01*
X283200Y119500D02*X284200D01*
X282700Y119000D02*X283200Y119500D01*
X282700Y119000D02*Y118000D01*
X283200Y117500D01*
X284700D01*
X185500Y57000D02*Y53000D01*
X187000Y57000D02*X187500Y56500D01*
Y53500D01*
X187000Y53000D02*X187500Y53500D01*
X185000Y53000D02*X187000D01*
X185000Y57000D02*X187000D01*
X188700Y56500D02*X189200Y57000D01*
X190700D01*
X191200Y56500D01*
Y55500D01*
X188700Y53000D02*X191200Y55500D01*
X188700Y53000D02*X191200D01*
X279000Y89500D02*Y86000D01*
X279500Y85500D01*
X280500D01*
X281000Y86000D01*
Y89500D02*Y86000D01*
X282200Y87500D02*X284200Y89500D01*
X282200Y87500D02*X284700D01*
X284200Y89500D02*Y85500D01*
X256500Y112000D02*X257000D01*
X256500D02*X255500Y111000D01*
X256500Y110000D01*
X257000D01*
X253000Y111000D02*X255500D01*
X256500Y108800D02*X257000Y108300D01*
Y106800D01*
X256500Y106300D01*
X255500D02*X256500D01*
X253000Y108800D02*X255500Y106300D01*
X253000Y108800D02*Y106300D01*
X196500Y94500D02*X197000D01*
X196500D02*X194000Y92000D01*
X193000D02*X194000D01*
X193000Y94500D02*X194000D01*
X196500Y92000D01*
X197000D01*
X193000Y90800D02*Y88800D01*
X193500Y88300D01*
X194500D01*
X195000Y88800D02*X194500Y88300D01*
X195000Y90300D02*Y88800D01*
X193000Y90300D02*X197000D01*
Y90800D02*Y88800D01*
X196500Y88300D01*
X195500D02*X196500D01*
X195000Y88800D02*X195500Y88300D01*
X193000Y86600D02*Y85600D01*
Y86100D02*X197000D01*
X196000Y87100D02*X197000Y86100D01*
X19500Y72000D02*Y68000D01*
X21000Y72000D02*X21500Y71500D01*
Y68500D01*
X21000Y68000D02*X21500Y68500D01*
X19000Y68000D02*X21000D01*
X19000Y72000D02*X21000D01*
X23200Y68000D02*X24200D01*
X23700Y72000D02*Y68000D01*
X22700Y71000D02*X23700Y72000D01*
X34000Y74000D02*X36000D01*
X36500Y73500D01*
Y72500D01*
X36000Y72000D02*X36500Y72500D01*
X34500Y72000D02*X36000D01*
X34500Y74000D02*Y70000D01*
Y72000D02*X36500Y70000D01*
X38200D02*X39200D01*
X38700Y74000D02*Y70000D01*
X37700Y73000D02*X38700Y74000D01*
X19000Y62500D02*X20500D01*
Y59000D01*
X20000Y58500D02*X20500Y59000D01*
X19500Y58500D02*X20000D01*
X19000Y59000D02*X19500Y58500D01*
X22200Y62500D02*Y58500D01*
X21700Y62500D02*X23700D01*
X24200Y62000D01*
Y61000D01*
X23700Y60500D02*X24200Y61000D01*
X22200Y60500D02*X23700D01*
X25400D02*X27400Y62500D01*
X25400Y60500D02*X27900D01*
X27400Y62500D02*Y58500D01*
X5000Y42000D02*X7000D01*
X7500Y41500D01*
Y40500D01*
X7000Y40000D02*X7500Y40500D01*
X5500Y40000D02*X7000D01*
X5500Y42000D02*Y38000D01*
Y40000D02*X7500Y38000D01*
X9200D02*X10200D01*
X9700Y42000D02*Y38000D01*
X8700Y41000D02*X9700Y42000D01*
X11400Y38000D02*X13400Y40000D01*
Y41500D02*Y40000D01*
X12900Y42000D02*X13400Y41500D01*
X11900Y42000D02*X12900D01*
X11400Y41500D02*X11900Y42000D01*
X11400Y41500D02*Y40500D01*
X11900Y40000D01*
X13400D01*
X141000Y94000D02*X143000D01*
X143500Y93500D01*
Y92500D01*
X143000Y92000D02*X143500Y92500D01*
X141500Y92000D02*X143000D01*
X141500Y94000D02*Y90000D01*
Y92000D02*X143500Y90000D01*
X144700Y93500D02*X145200Y94000D01*
X146700D01*
X147200Y93500D01*
Y92500D01*
X144700Y90000D02*X147200Y92500D01*
X144700Y90000D02*X147200D01*
X101000Y125500D02*Y122500D01*
Y125500D02*X101500Y126000D01*
X102500D01*
X103000Y125500D01*
Y122500D01*
X102500Y122000D02*X103000Y122500D01*
X101500Y122000D02*X102500D01*
X101000Y122500D02*X101500Y122000D01*
X102000Y123000D02*X103000Y122000D01*
X104200Y125500D02*X104700Y126000D01*
X106200D01*
X106700Y125500D01*
Y124500D01*
X104200Y122000D02*X106700Y124500D01*
X104200Y122000D02*X106700D01*
X106000Y114500D02*Y111500D01*
Y114500D02*X106500Y115000D01*
X107500D01*
X108000Y114500D01*
Y111500D01*
X107500Y111000D02*X108000Y111500D01*
X106500Y111000D02*X107500D01*
X106000Y111500D02*X106500Y111000D01*
X107000Y112000D02*X108000Y111000D01*
X109700D02*X110700D01*
X110200Y115000D02*Y111000D01*
X109200Y114000D02*X110200Y115000D01*
X123000Y94000D02*X123500D01*
X126000Y96500D01*
X127000D01*
X126000Y94000D02*X127000D01*
X126000D02*X123500Y96500D01*
X123000D02*X123500D01*
X123000Y97700D02*X126500D01*
X127000Y98200D01*
Y99200D02*Y98200D01*
Y99200D02*X126500Y99700D01*
X123000D02*X126500D01*
X123500Y100900D02*X123000Y101400D01*
Y102900D02*Y101400D01*
Y102900D02*X123500Y103400D01*
X124500D01*
X127000Y100900D02*X124500Y103400D01*
X127000D02*Y100900D01*
X140000Y110000D02*X142000D01*
X142500Y109500D01*
Y108500D01*
X142000Y108000D02*X142500Y108500D01*
X140500Y108000D02*X142000D01*
X140500Y110000D02*Y106000D01*
Y108000D02*X142500Y106000D01*
X143700Y109500D02*X144200Y110000D01*
X145200D01*
X145700Y109500D01*
Y106500D01*
X145200Y106000D02*X145700Y106500D01*
X144200Y106000D02*X145200D01*
X143700Y106500D02*X144200Y106000D01*
Y108000D02*X145700D01*
X100000Y91000D02*X102000D01*
X102500Y90500D01*
Y89500D01*
X102000Y89000D02*X102500Y89500D01*
X100500Y89000D02*X102000D01*
X100500Y91000D02*Y87000D01*
Y89000D02*X102500Y87000D01*
X103700Y89000D02*X105700Y91000D01*
X103700Y89000D02*X106200D01*
X105700Y91000D02*Y87000D01*
X45500Y87500D02*Y86000D01*
X42000D02*X45500D01*
X41500Y86500D02*X42000Y86000D01*
X41500Y87000D02*Y86500D01*
X42000Y87500D02*X41500Y87000D01*
X45000Y84800D02*X45500Y84300D01*
Y82800D01*
X45000Y82300D01*
X44000D02*X45000D01*
X41500Y84800D02*X44000Y82300D01*
X41500Y84800D02*Y82300D01*
X54000Y35500D02*X56000D01*
X56500Y35000D01*
Y34000D01*
X56000Y33500D02*X56500Y34000D01*
X54500Y33500D02*X56000D01*
X54500Y35500D02*Y31500D01*
Y33500D02*X56500Y31500D01*
X58200D02*X59200D01*
X58700Y35500D02*Y31500D01*
X57700Y34500D02*X58700Y35500D01*
X60400Y32000D02*X60900Y31500D01*
X60400Y33000D02*Y32000D01*
Y33000D02*X60900Y33500D01*
X61900D01*
X62400Y33000D01*
Y32000D01*
X61900Y31500D02*X62400Y32000D01*
X60900Y31500D02*X61900D01*
X60400Y34000D02*X60900Y33500D01*
X60400Y35000D02*Y34000D01*
Y35000D02*X60900Y35500D01*
X61900D01*
X62400Y35000D01*
Y34000D01*
X61900Y33500D02*X62400Y34000D01*
X47000Y68500D02*Y67000D01*
X43500D02*X47000D01*
X43000Y67500D02*X43500Y67000D01*
X43000Y68000D02*Y67500D01*
X43500Y68500D02*X43000Y68000D01*
Y65300D02*X47000D01*
Y65800D02*Y63800D01*
X46500Y63300D01*
X45500D02*X46500D01*
X45000Y63800D02*X45500Y63300D01*
X45000Y65300D02*Y63800D01*
X47000Y62100D02*Y60100D01*
X45000Y62100D02*X47000D01*
X45000D02*X45500Y61600D01*
Y60600D01*
X45000Y60100D01*
X43500D02*X45000D01*
X43000Y60600D02*X43500Y60100D01*
X43000Y61600D02*Y60600D01*
X43500Y62100D02*X43000Y61600D01*
X41000Y118500D02*X45000D01*
Y117000D02*X44500Y116500D01*
X41500D02*X44500D01*
X41000Y117000D02*X41500Y116500D01*
X41000Y119000D02*Y117000D01*
X45000Y119000D02*Y117000D01*
X43000Y115300D02*X45000Y113300D01*
X43000Y115300D02*Y112800D01*
X41000Y113300D02*X45000D01*
X49000Y90000D02*X51000D01*
X51500Y89500D01*
Y88500D01*
X51000Y88000D02*X51500Y88500D01*
X49500Y88000D02*X51000D01*
X49500Y90000D02*Y86000D01*
Y88000D02*X51500Y86000D01*
X53200D02*X54200D01*
X53700Y90000D02*Y86000D01*
X52700Y89000D02*X53700Y90000D01*
X55400D02*X57400D01*
X55400D02*Y88000D01*
X55900Y88500D01*
X56900D01*
X57400Y88000D01*
Y86500D01*
X56900Y86000D02*X57400Y86500D01*
X55900Y86000D02*X56900D01*
X55400Y86500D02*X55900Y86000D01*
X55000Y135000D02*Y133000D01*
X54500Y132500D01*
X53500D02*X54500D01*
X53000Y133000D02*X53500Y132500D01*
X53000Y134500D02*Y133000D01*
X51000Y134500D02*X55000D01*
X53000D02*X51000Y132500D01*
Y130800D02*Y129800D01*
Y130300D02*X55000D01*
X54000Y131300D02*X55000Y130300D01*
Y127100D02*X54500Y126600D01*
X55000Y128100D02*Y127100D01*
X54500Y128600D02*X55000Y128100D01*
X51500Y128600D02*X54500D01*
X51500D02*X51000Y128100D01*
X53000Y127100D02*X52500Y126600D01*
X53000Y128600D02*Y127100D01*
X51000Y128100D02*Y127100D01*
X51500Y126600D01*
X52500D01*
X77000Y124000D02*Y122000D01*
Y124000D02*X77500Y124500D01*
X78500D01*
X79000Y124000D02*X78500Y124500D01*
X79000Y124000D02*Y122500D01*
X77000D02*X81000D01*
X79000D02*X81000Y124500D01*
Y127200D02*Y126200D01*
X77000Y126700D02*X81000D01*
X78000Y125700D02*X77000Y126700D01*
X79000Y128400D02*X77000Y130400D01*
X79000Y130900D02*Y128400D01*
X77000Y130400D02*X81000D01*
X105500Y130500D02*X107000D01*
X105000Y131000D02*X105500Y130500D01*
X105000Y134000D02*Y131000D01*
Y134000D02*X105500Y134500D01*
X107000D01*
X108700Y130500D02*X109700D01*
X109200Y134500D02*Y130500D01*
X108200Y133500D02*X109200Y134500D01*
X110900Y132500D02*X112900Y134500D01*
X110900Y132500D02*X113400D01*
X112900Y134500D02*Y130500D01*
X134000Y52000D02*X136000D01*
X136500Y51500D01*
Y50500D01*
X136000Y50000D02*X136500Y50500D01*
X134500Y50000D02*X136000D01*
X134500Y52000D02*Y48000D01*
Y50000D02*X136500Y48000D01*
X138200D02*X139200D01*
X138700Y52000D02*Y48000D01*
X137700Y51000D02*X138700Y52000D01*
X140400Y51500D02*X140900Y52000D01*
X141900D01*
X142400Y51500D01*
Y48500D01*
X141900Y48000D02*X142400Y48500D01*
X140900Y48000D02*X141900D01*
X140400Y48500D02*X140900Y48000D01*
Y50000D02*X142400D01*
X124500Y66000D02*X126000D01*
X124000Y66500D02*X124500Y66000D01*
X124000Y69500D02*Y66500D01*
Y69500D02*X124500Y70000D01*
X126000D01*
X127700Y66000D02*X128700D01*
X128200Y70000D02*Y66000D01*
X127200Y69000D02*X128200Y70000D01*
X129900D02*X131900D01*
X129900D02*Y68000D01*
X130400Y68500D01*
X131400D01*
X131900Y68000D01*
Y66500D01*
X131400Y66000D02*X131900Y66500D01*
X130400Y66000D02*X131400D01*
X129900Y66500D02*X130400Y66000D01*
X124000Y11000D02*X124500Y10500D01*
X122500Y11000D02*X124000D01*
X122000Y10500D02*X122500Y11000D01*
X122000Y10500D02*Y9500D01*
X122500Y9000D01*
X124000D01*
X124500Y8500D01*
Y7500D01*
X124000Y7000D02*X124500Y7500D01*
X122500Y7000D02*X124000D01*
X122000Y7500D02*X122500Y7000D01*
X125700Y9000D02*X127700Y11000D01*
X125700Y9000D02*X128200D01*
X127700Y11000D02*Y7000D01*
X218000Y175500D02*X219500D01*
X217500Y176000D02*X218000Y175500D01*
X217500Y179000D02*Y176000D01*
Y179000D02*X218000Y179500D01*
X219500D01*
X220700Y175500D02*X223200Y178000D01*
Y179500D02*Y178000D01*
X220700Y179500D02*X223200D01*
X231500Y187000D02*X233500D01*
X234000Y186500D01*
Y185500D01*
X233500Y185000D02*X234000Y185500D01*
X232000Y185000D02*X233500D01*
X232000Y187000D02*Y183000D01*
Y185000D02*X234000Y183000D01*
X235200D02*X237700Y185500D01*
Y187000D02*Y185500D01*
X235200Y187000D02*X237700D01*
X281500Y145000D02*X283000D01*
X281000Y145500D02*X281500Y145000D01*
X281000Y148500D02*Y145500D01*
Y148500D02*X281500Y149000D01*
X283000D01*
X284700Y145000D02*X285700D01*
X285200Y149000D02*Y145000D01*
X284200Y148000D02*X285200Y149000D01*
X286900Y145500D02*X287400Y145000D01*
X286900Y148500D02*Y145500D01*
Y148500D02*X287400Y149000D01*
X288400D01*
X288900Y148500D01*
Y145500D01*
X288400Y145000D02*X288900Y145500D01*
X287400Y145000D02*X288400D01*
X286900Y146000D02*X288900Y148000D01*
X245500Y118500D02*X247000D01*
X245000Y119000D02*X245500Y118500D01*
X245000Y122000D02*Y119000D01*
Y122000D02*X245500Y122500D01*
X247000D01*
X248200Y122000D02*X248700Y122500D01*
X249700D01*
X250200Y122000D01*
Y119000D01*
X249700Y118500D02*X250200Y119000D01*
X248700Y118500D02*X249700D01*
X248200Y119000D02*X248700Y118500D01*
Y120500D02*X250200D01*
X260500Y118500D02*X262000D01*
X260000Y119000D02*X260500Y118500D01*
X260000Y122000D02*Y119000D01*
Y122000D02*X260500Y122500D01*
X262000D01*
X263200Y120500D02*X265200Y122500D01*
X263200Y120500D02*X265700D01*
X265200Y122500D02*Y118500D01*
X222500Y145500D02*Y142000D01*
X223000Y141500D01*
X224000D01*
X224500Y142000D01*
Y145500D02*Y142000D01*
X225700Y145000D02*X226200Y145500D01*
X227200D01*
X227700Y145000D01*
Y142000D01*
X227200Y141500D02*X227700Y142000D01*
X226200Y141500D02*X227200D01*
X225700Y142000D02*X226200Y141500D01*
Y143500D02*X227700D01*
X358000Y241000D02*X359500D01*
X357500Y241500D02*X358000Y241000D01*
X357500Y244500D02*Y241500D01*
Y244500D02*X358000Y245000D01*
X359500D01*
X360700D02*X362700D01*
X360700D02*Y243000D01*
X361200Y243500D01*
X362200D01*
X362700Y243000D01*
Y241500D01*
X362200Y241000D02*X362700Y241500D01*
X361200Y241000D02*X362200D01*
X360700Y241500D02*X361200Y241000D01*
X282500Y106000D02*Y105500D01*
X283500Y104500D01*
X284500Y105500D01*
Y106000D02*Y105500D01*
X283500Y104500D02*Y102000D01*
X286200D02*X287200D01*
X286700Y106000D02*Y102000D01*
X285700Y105000D02*X286700Y106000D01*
X338000Y127500D02*X339500D01*
Y124000D01*
X339000Y123500D02*X339500Y124000D01*
X338500Y123500D02*X339000D01*
X338000Y124000D02*X338500Y123500D01*
X340700Y125500D02*X342700Y127500D01*
X340700Y125500D02*X343200D01*
X342700Y127500D02*Y123500D01*
X319000Y118500D02*X321000D01*
X321500Y118000D01*
Y117000D01*
X321000Y116500D02*X321500Y117000D01*
X319500Y116500D02*X321000D01*
X319500Y118500D02*Y114500D01*
Y116500D02*X321500Y114500D01*
X322700Y115000D02*X323200Y114500D01*
X322700Y116000D02*Y115000D01*
Y116000D02*X323200Y116500D01*
X324200D01*
X324700Y116000D01*
Y115000D01*
X324200Y114500D02*X324700Y115000D01*
X323200Y114500D02*X324200D01*
X322700Y117000D02*X323200Y116500D01*
X322700Y118000D02*Y117000D01*
Y118000D02*X323200Y118500D01*
X324200D01*
X324700Y118000D01*
Y117000D01*
X324200Y116500D02*X324700Y117000D01*
X256500Y195000D02*X258000D01*
X256000Y195500D02*X256500Y195000D01*
X256000Y198500D02*Y195500D01*
Y198500D02*X256500Y199000D01*
X258000D01*
X259200Y195500D02*X259700Y195000D01*
X259200Y196500D02*Y195500D01*
Y196500D02*X259700Y197000D01*
X260700D01*
X261200Y196500D01*
Y195500D01*
X260700Y195000D02*X261200Y195500D01*
X259700Y195000D02*X260700D01*
X259200Y197500D02*X259700Y197000D01*
X259200Y198500D02*Y197500D01*
Y198500D02*X259700Y199000D01*
X260700D01*
X261200Y198500D01*
Y197500D01*
X260700Y197000D02*X261200Y197500D01*
X350000Y186500D02*X352000D01*
X352500Y186000D01*
Y185000D01*
X352000Y184500D02*X352500Y185000D01*
X350500Y184500D02*X352000D01*
X350500Y186500D02*Y182500D01*
Y184500D02*X352500Y182500D01*
X354200D02*X355200D01*
X354700Y186500D02*Y182500D01*
X353700Y185500D02*X354700Y186500D01*
X356400Y186000D02*X356900Y186500D01*
X358400D01*
X358900Y186000D01*
Y185000D01*
X356400Y182500D02*X358900Y185000D01*
X356400Y182500D02*X358900D01*
X363000Y173000D02*X365000D01*
X365500Y172500D01*
Y171500D01*
X365000Y171000D02*X365500Y171500D01*
X363500Y171000D02*X365000D01*
X363500Y173000D02*Y169000D01*
Y171000D02*X365500Y169000D01*
X367200D02*X368200D01*
X367700Y173000D02*Y169000D01*
X366700Y172000D02*X367700Y173000D01*
X369900Y169000D02*X370900D01*
X370400Y173000D02*Y169000D01*
X369400Y172000D02*X370400Y173000D01*
X362500Y162500D02*X364500D01*
X365000Y162000D01*
Y161000D01*
X364500Y160500D02*X365000Y161000D01*
X363000Y160500D02*X364500D01*
X363000Y162500D02*Y158500D01*
Y160500D02*X365000Y158500D01*
X366700D02*X367700D01*
X367200Y162500D02*Y158500D01*
X366200Y161500D02*X367200Y162500D01*
X368900Y159000D02*X369400Y158500D01*
X368900Y162000D02*Y159000D01*
Y162000D02*X369400Y162500D01*
X370400D01*
X370900Y162000D01*
Y159000D01*
X370400Y158500D02*X370900Y159000D01*
X369400Y158500D02*X370400D01*
X368900Y159500D02*X370900Y161500D01*
X363000Y140500D02*X365000D01*
X365500Y140000D01*
Y139000D01*
X365000Y138500D02*X365500Y139000D01*
X363500Y138500D02*X365000D01*
X363500Y140500D02*Y136500D01*
Y138500D02*X365500Y136500D01*
X366700D02*X368700Y138500D01*
Y140000D02*Y138500D01*
X368200Y140500D02*X368700Y140000D01*
X367200Y140500D02*X368200D01*
X366700Y140000D02*X367200Y140500D01*
X366700Y140000D02*Y139000D01*
X367200Y138500D01*
X368700D01*
X345800Y199700D02*X347800D01*
X348300Y199200D01*
Y198200D01*
X347800Y197700D02*X348300Y198200D01*
X346300Y197700D02*X347800D01*
X346300Y199700D02*Y195700D01*
Y197700D02*X348300Y195700D01*
X350000D02*X351000D01*
X350500Y199700D02*Y195700D01*
X349500Y198700D02*X350500Y199700D01*
X352200Y195700D02*X354700Y198200D01*
Y199700D02*Y198200D01*
X352200Y199700D02*X354700D01*
X384000Y169500D02*Y166000D01*
X384500Y165500D01*
X385500D01*
X386000Y166000D01*
Y169500D02*Y166000D01*
X387200Y165500D02*X389700Y168000D01*
Y169500D02*Y168000D01*
X387200Y169500D02*X389700D01*
M02*
