M48
INCH
T88C0.028
T87C0.032
T86C0.045
T85C0.110
T84C0.125
T83C0.048
T82C0.020
T81C0.038
T80C0.054
T79C0.044
T78C0.129
%
T82
X029850Y011489
X029850Y013411
X019900Y019500
X019850Y016300
X020300Y017050
X020600Y019500
X024800Y019700
X025200Y019700
X021300Y019500
X021900Y019500
X022600Y019500
X022750Y017700
X021900Y015950
X022700Y016350
X021900Y014300
X021300Y006600
X021300Y005700
X020700Y006600
X020700Y005700
X025150Y016400
X025150Y015800
X025150Y015250
X026000Y016450
X027100Y013900
X024700Y011850
X023350Y014200
X028100Y018250
X028100Y022450
X032800Y024450
X012000Y011000
X013500Y005800
X014000Y005800
X013500Y009300
X013000Y005800
X013900Y007000
X011400Y011000
X006200Y008900
X011400Y011500
X011400Y012000
X012000Y011500
X012000Y012000
X000450Y004800
X005550Y004800
X006900Y021850
X005300Y021850
X025200Y011850
X025700Y011850
X027650Y012000
X026450Y011400
X026950Y011400
X028200Y016950
X037600Y017100
X037200Y016450
X036900Y015450
X036550Y014450
X036450Y015050
X035900Y013800
X036450Y018150
X036950Y018150
X037450Y018150
X037950Y018150
X038900Y012250
X039400Y012600
X038500Y013350
X038000Y013350
X038500Y013950
X038000Y013950
X036250Y013300
X035550Y013300
X034750Y011600
X035750Y011600
X035250Y010950
X034750Y010400
X035750Y010400
X038200Y011600
X038200Y010950
X038200Y010350
X006900Y022400
X005300Y022400
X006900Y021100
X005300Y021100
X008300Y020700
X009000Y020700
X009700Y020700
X008700Y016800
X009900Y016800
X013000Y016000
X013000Y016500
X013000Y017000
X010400Y016800
X010150Y016300
X010500Y015950
X010150Y015600
X010500Y015250
X010150Y014900
X016900Y023000
X016400Y023000
X015900Y023000
X013100Y019500
X013800Y019500
X014500Y019500
X015200Y019500
X015900Y019500
X016600Y019500
X017300Y019500
X008200Y016800
X008700Y017350
X008700Y017800
X007700Y016800
X007200Y016800
X006700Y016800
X006200Y016800
X006450Y017250
X008700Y018250
X008700Y018700
X008700Y019150
X008700Y019600
T88
X008600Y009800
X008600Y008800
X008600Y007800
X011600Y006800
X008600Y006800
X011600Y007800
X011600Y008800
X011600Y009800
T87
X015701Y013970
X015701Y013183
X015701Y012395
X015701Y011608
X015701Y010820
X015701Y010033
X015701Y009246
X015701Y008458
X015701Y007671
X015701Y006883
X007039Y013970
X007039Y013183
X007039Y012395
X007039Y011608
X007039Y010820
X007039Y010033
X007039Y009246
X007039Y008458
X007039Y007671
X007039Y006883
T81
X031300Y023300
X029300Y023300
X029100Y019650
X029100Y018650
X029100Y017650
X028300Y023300
X027300Y023300
X026300Y023300
X025300Y023300
X024300Y023300
X023300Y023300
X022300Y023300
X021300Y023300
X020300Y023300
X023700Y010700
X024700Y010700
X030300Y023300
X030100Y019650
X030100Y018650
X030100Y017650
X035300Y023300
X034300Y023300
X033300Y023300
X032300Y023300
X034050Y013550
X034050Y014550
X034050Y015550
X034050Y016550
X034050Y017550
X001550Y005250
X002550Y005250
X004200Y005250
X004200Y004250
T79
X022300Y002350
X024268Y002350
X028950Y002350
X030918Y002350
X019800Y007974
X015600Y002350
X017568Y002350
X008900Y002350
X010868Y002350
T86
X011230Y021940
X010230Y021940
X009230Y021940
T83
X002200Y015300
X002200Y013300
X002200Y011300
X002200Y009300
X018600Y019500
X018600Y016500
T80
X021906Y003925
X024662Y003925
X028556Y003925
X031312Y003925
X019800Y010926
X015206Y003925
X017962Y003925
X008506Y003925
X011262Y003925
T85
X003000Y019100
X004200Y017200
T84
X005400Y019100
T78
X038300Y001700
X038300Y023300
X001700Y023300
X001700Y001700
M30
