G04 start of page 12 for group -3984 idx -3984 *
G04 Title: (unknown), fab *
G04 Creator: pcb 20110918 *
G04 CreationDate: Tue 05 Feb 2013 03:14:35 AM GMT UTC *
G04 For: railfan *
G04 Format: Gerber/RS-274X *
G04 PCB-Dimensions: 400000 250000 *
G04 PCB-Coordinate-Origin: lower left *
%MOIN*%
%FSLAX25Y25*%
%LNFAB*%
%ADD140C,0.0100*%
%ADD139C,0.0060*%
%ADD138C,0.0001*%
%ADD137R,0.0080X0.0080*%
G54D137*X17000Y233000D02*Y228200D01*
G54D138*G36*
X16454Y233147D02*X21307Y235946D01*
X21706Y235253D01*
X16853Y232454D01*
X16454Y233147D01*
G37*
G36*
X17147Y232454D02*X12294Y235253D01*
X12693Y235946D01*
X17546Y233147D01*
X17147Y232454D01*
G37*
G54D137*X15400Y233000D02*G75*G03X18600Y233000I1600J0D01*G01*
G75*G03X15400Y233000I-1600J0D01*G01*
X13800D02*G75*G03X20200Y233000I3200J0D01*G01*
G75*G03X13800Y233000I-3200J0D01*G01*
X383000Y17000D02*Y12200D01*
G54D138*G36*
X382454Y17147D02*X387307Y19946D01*
X387706Y19253D01*
X382853Y16454D01*
X382454Y17147D01*
G37*
G36*
X383147Y16454D02*X378294Y19253D01*
X378693Y19946D01*
X383546Y17147D01*
X383147Y16454D01*
G37*
G54D137*X381400Y17000D02*G75*G03X384600Y17000I1600J0D01*G01*
G75*G03X381400Y17000I-1600J0D01*G01*
X379800D02*G75*G03X386200Y17000I3200J0D01*G01*
G75*G03X379800Y17000I-3200J0D01*G01*
X17000D02*Y12200D01*
G54D138*G36*
X16454Y17147D02*X21307Y19946D01*
X21706Y19253D01*
X16853Y16454D01*
X16454Y17147D01*
G37*
G36*
X17147Y16454D02*X12294Y19253D01*
X12693Y19946D01*
X17546Y17147D01*
X17147Y16454D01*
G37*
G54D137*X15400Y17000D02*G75*G03X18600Y17000I1600J0D01*G01*
G75*G03X15400Y17000I-1600J0D01*G01*
X13800D02*G75*G03X20200Y17000I3200J0D01*G01*
G75*G03X13800Y17000I-3200J0D01*G01*
X383000Y233000D02*Y228200D01*
G54D138*G36*
X382454Y233147D02*X387307Y235946D01*
X387706Y235253D01*
X382853Y232454D01*
X382454Y233147D01*
G37*
G36*
X383147Y232454D02*X378294Y235253D01*
X378693Y235946D01*
X383546Y233147D01*
X383147Y232454D01*
G37*
G54D137*X381400Y233000D02*G75*G03X384600Y233000I1600J0D01*G01*
G75*G03X381400Y233000I-1600J0D01*G01*
X379800D02*G75*G03X386200Y233000I3200J0D01*G01*
G75*G03X379800Y233000I-3200J0D01*G01*
X15000Y261250D02*Y256450D01*
G54D138*G36*
X14454Y261397D02*X19307Y264196D01*
X19706Y263503D01*
X14853Y260704D01*
X14454Y261397D01*
G37*
G36*
X15147Y260704D02*X10294Y263503D01*
X10693Y264196D01*
X15546Y261397D01*
X15147Y260704D01*
G37*
G54D137*X13400Y261250D02*G75*G03X16600Y261250I1600J0D01*G01*
G75*G03X13400Y261250I-1600J0D01*G01*
X11800D02*G75*G03X18200Y261250I3200J0D01*G01*
G75*G03X11800Y261250I-3200J0D01*G01*
G54D139*X135000Y263500D02*Y262750D01*
X136500Y261250D01*
X138000Y262750D01*
Y263500D02*Y262750D01*
X136500Y261250D02*Y257500D01*
X139800Y260500D02*X142050D01*
X139800Y257500D02*X142800D01*
X139800Y263500D02*Y257500D01*
Y263500D02*X142800D01*
X147600D02*X148350Y262750D01*
X145350Y263500D02*X147600D01*
X144600Y262750D02*X145350Y263500D01*
X144600Y262750D02*Y261250D01*
X145350Y260500D01*
X147600D01*
X148350Y259750D01*
Y258250D01*
X147600Y257500D02*X148350Y258250D01*
X145350Y257500D02*X147600D01*
X144600Y258250D02*X145350Y257500D01*
X98000Y260500D02*X101000Y263500D01*
X98000Y260500D02*X101750D01*
X101000Y263500D02*Y257500D01*
X45000Y258250D02*X45750Y257500D01*
X45000Y262750D02*Y258250D01*
Y262750D02*X45750Y263500D01*
X47250D01*
X48000Y262750D01*
Y258250D01*
X47250Y257500D02*X48000Y258250D01*
X45750Y257500D02*X47250D01*
X45000Y259000D02*X48000Y262000D01*
X49800Y257500D02*X50550D01*
X53100D02*X54600D01*
X53850Y263500D02*Y257500D01*
X52350Y262000D02*X53850Y263500D01*
X56400Y262750D02*X57150Y263500D01*
X59400D01*
X60150Y262750D01*
Y261250D01*
X56400Y257500D02*X60150Y261250D01*
X56400Y257500D02*X60150D01*
X61950D02*X64950Y260500D01*
Y262750D02*Y260500D01*
X64200Y263500D02*X64950Y262750D01*
X62700Y263500D02*X64200D01*
X61950Y262750D02*X62700Y263500D01*
X61950Y262750D02*Y261250D01*
X62700Y260500D01*
X64950D01*
X52400Y192600D02*X55600D01*
X52400D02*Y189400D01*
X55600D01*
Y192600D02*Y189400D01*
X50800Y194200D02*X57200D01*
X50800D02*Y187800D01*
X57200D01*
Y194200D02*Y187800D01*
X13400Y277850D02*X16600D01*
X13400D02*Y274650D01*
X16600D01*
Y277850D02*Y274650D01*
X11800Y279450D02*X18200D01*
X11800D02*Y273050D01*
X18200D01*
Y279450D02*Y273050D01*
X135000Y278500D02*Y277750D01*
X136500Y276250D01*
X138000Y277750D01*
Y278500D02*Y277750D01*
X136500Y276250D02*Y272500D01*
X139800Y275500D02*X142050D01*
X139800Y272500D02*X142800D01*
X139800Y278500D02*Y272500D01*
Y278500D02*X142800D01*
X147600D02*X148350Y277750D01*
X145350Y278500D02*X147600D01*
X144600Y277750D02*X145350Y278500D01*
X144600Y277750D02*Y276250D01*
X145350Y275500D01*
X147600D01*
X148350Y274750D01*
Y273250D01*
X147600Y272500D02*X148350Y273250D01*
X145350Y272500D02*X147600D01*
X144600Y273250D02*X145350Y272500D01*
X98750D02*X100250D01*
X99500Y278500D02*Y272500D01*
X98000Y277000D02*X99500Y278500D01*
X45000Y273250D02*X45750Y272500D01*
X45000Y277750D02*Y273250D01*
Y277750D02*X45750Y278500D01*
X47250D01*
X48000Y277750D01*
Y273250D01*
X47250Y272500D02*X48000Y273250D01*
X45750Y272500D02*X47250D01*
X45000Y274000D02*X48000Y277000D01*
X49800Y272500D02*X50550D01*
X53100D02*X54600D01*
X53850Y278500D02*Y272500D01*
X52350Y277000D02*X53850Y278500D01*
X56400Y277750D02*X57150Y278500D01*
X59400D01*
X60150Y277750D01*
Y276250D01*
X56400Y272500D02*X60150Y276250D01*
X56400Y272500D02*X60150D01*
X61950Y278500D02*X64950D01*
X61950D02*Y275500D01*
X62700Y276250D01*
X64200D01*
X64950Y275500D01*
Y273250D01*
X64200Y272500D02*X64950Y273250D01*
X62700Y272500D02*X64200D01*
X61950Y273250D02*X62700Y272500D01*
X29200Y191000D02*G75*G03X30800Y191000I800J0D01*G01*
G75*G03X29200Y191000I-800J0D01*G01*
X27600D02*G75*G03X32400Y191000I2400J0D01*G01*
G75*G03X27600Y191000I-2400J0D01*G01*
X41200Y172000D02*G75*G03X42800Y172000I800J0D01*G01*
G75*G03X41200Y172000I-800J0D01*G01*
X39600D02*G75*G03X44400Y172000I2400J0D01*G01*
G75*G03X39600Y172000I-2400J0D01*G01*
X14200Y291250D02*G75*G03X15800Y291250I800J0D01*G01*
G75*G03X14200Y291250I-800J0D01*G01*
X12600D02*G75*G03X17400Y291250I2400J0D01*G01*
G75*G03X12600Y291250I-2400J0D01*G01*
X135000Y293500D02*Y292750D01*
X136500Y291250D01*
X138000Y292750D01*
Y293500D02*Y292750D01*
X136500Y291250D02*Y287500D01*
X139800Y290500D02*X142050D01*
X139800Y287500D02*X142800D01*
X139800Y293500D02*Y287500D01*
Y293500D02*X142800D01*
X147600D02*X148350Y292750D01*
X145350Y293500D02*X147600D01*
X144600Y292750D02*X145350Y293500D01*
X144600Y292750D02*Y291250D01*
X145350Y290500D01*
X147600D01*
X148350Y289750D01*
Y288250D01*
X147600Y287500D02*X148350Y288250D01*
X145350Y287500D02*X147600D01*
X144600Y288250D02*X145350Y287500D01*
X98000Y292750D02*X98750Y293500D01*
X101000D01*
X101750Y292750D01*
Y291250D01*
X98000Y287500D02*X101750Y291250D01*
X98000Y287500D02*X101750D01*
X45000Y288250D02*X45750Y287500D01*
X45000Y292750D02*Y288250D01*
Y292750D02*X45750Y293500D01*
X47250D01*
X48000Y292750D01*
Y288250D01*
X47250Y287500D02*X48000Y288250D01*
X45750Y287500D02*X47250D01*
X45000Y289000D02*X48000Y292000D01*
X49800Y287500D02*X50550D01*
X53100D02*X54600D01*
X53850Y293500D02*Y287500D01*
X52350Y292000D02*X53850Y293500D01*
X57150Y287500D02*X58650D01*
X57900Y293500D02*Y287500D01*
X56400Y292000D02*X57900Y293500D01*
X60450Y288250D02*X61200Y287500D01*
X60450Y292750D02*Y288250D01*
Y292750D02*X61200Y293500D01*
X62700D01*
X63450Y292750D01*
Y288250D01*
X62700Y287500D02*X63450Y288250D01*
X61200Y287500D02*X62700D01*
X60450Y289000D02*X63450Y292000D01*
X195600Y111664D02*X200400Y106864D01*
X195600D02*X200400Y111664D01*
X196400Y110864D02*X199600D01*
X196400D02*Y107664D01*
X199600D01*
Y110864D02*Y107664D01*
X82663Y41648D02*X87463Y36848D01*
X82663D02*X87463Y41648D01*
X83463Y40848D02*X86663D01*
X83463D02*Y37648D01*
X86663D01*
Y40848D02*Y37648D01*
X110222Y41648D02*X115022Y36848D01*
X110222D02*X115022Y41648D01*
X111022Y40848D02*X114222D01*
X111022D02*Y37648D01*
X114222D01*
Y40848D02*Y37648D01*
X149663Y41648D02*X154463Y36848D01*
X149663D02*X154463Y41648D01*
X150463Y40848D02*X153663D01*
X150463D02*Y37648D01*
X153663D01*
Y40848D02*Y37648D01*
X177222Y41648D02*X182022Y36848D01*
X177222D02*X182022Y41648D01*
X178022Y40848D02*X181222D01*
X178022D02*Y37648D01*
X181222D01*
Y40848D02*Y37648D01*
X216663Y41648D02*X221463Y36848D01*
X216663D02*X221463Y41648D01*
X217463Y40848D02*X220663D01*
X217463D02*Y37648D01*
X220663D01*
Y40848D02*Y37648D01*
X244222Y41648D02*X249022Y36848D01*
X244222D02*X249022Y41648D01*
X245022Y40848D02*X248222D01*
X245022D02*Y37648D01*
X248222D01*
Y40848D02*Y37648D01*
X283163Y41648D02*X287963Y36848D01*
X283163D02*X287963Y41648D01*
X283963Y40848D02*X287163D01*
X283963D02*Y37648D01*
X287163D01*
Y40848D02*Y37648D01*
X310722Y41648D02*X315522Y36848D01*
X310722D02*X315522Y41648D01*
X311522Y40848D02*X314722D01*
X311522D02*Y37648D01*
X314722D01*
Y40848D02*Y37648D01*
X12600Y308650D02*X17400Y303850D01*
X12600D02*X17400Y308650D01*
X13400Y307850D02*X16600D01*
X13400D02*Y304650D01*
X16600D01*
Y307850D02*Y304650D01*
X135000Y308500D02*Y307750D01*
X136500Y306250D01*
X138000Y307750D01*
Y308500D02*Y307750D01*
X136500Y306250D02*Y302500D01*
X139800Y305500D02*X142050D01*
X139800Y302500D02*X142800D01*
X139800Y308500D02*Y302500D01*
Y308500D02*X142800D01*
X147600D02*X148350Y307750D01*
X145350Y308500D02*X147600D01*
X144600Y307750D02*X145350Y308500D01*
X144600Y307750D02*Y306250D01*
X145350Y305500D01*
X147600D01*
X148350Y304750D01*
Y303250D01*
X147600Y302500D02*X148350Y303250D01*
X145350Y302500D02*X147600D01*
X144600Y303250D02*X145350Y302500D01*
X98000D02*X101000Y305500D01*
Y307750D02*Y305500D01*
X100250Y308500D02*X101000Y307750D01*
X98750Y308500D02*X100250D01*
X98000Y307750D02*X98750Y308500D01*
X98000Y307750D02*Y306250D01*
X98750Y305500D01*
X101000D01*
X45000Y303250D02*X45750Y302500D01*
X45000Y307750D02*Y303250D01*
Y307750D02*X45750Y308500D01*
X47250D01*
X48000Y307750D01*
Y303250D01*
X47250Y302500D02*X48000Y303250D01*
X45750Y302500D02*X47250D01*
X45000Y304000D02*X48000Y307000D01*
X49800Y302500D02*X50550D01*
X52350Y303250D02*X53100Y302500D01*
X52350Y307750D02*Y303250D01*
Y307750D02*X53100Y308500D01*
X54600D01*
X55350Y307750D01*
Y303250D01*
X54600Y302500D02*X55350Y303250D01*
X53100Y302500D02*X54600D01*
X52350Y304000D02*X55350Y307000D01*
X57150Y308500D02*X60150D01*
X57150D02*Y305500D01*
X57900Y306250D01*
X59400D01*
X60150Y305500D01*
Y303250D01*
X59400Y302500D02*X60150Y303250D01*
X57900Y302500D02*X59400D01*
X57150Y303250D02*X57900Y302500D01*
X61950Y305500D02*X64950Y308500D01*
X61950Y305500D02*X65700D01*
X64950Y308500D02*Y302500D01*
X22000Y116200D02*Y109800D01*
X18800Y113000D02*X25200D01*
X20400Y114600D02*X23600D01*
X20400D02*Y111400D01*
X23600D01*
Y114600D02*Y111400D01*
X22000Y96200D02*Y89800D01*
X18800Y93000D02*X25200D01*
X20400Y94600D02*X23600D01*
X20400D02*Y91400D01*
X23600D01*
Y94600D02*Y91400D01*
X22000Y156200D02*Y149800D01*
X18800Y153000D02*X25200D01*
X20400Y154600D02*X23600D01*
X20400D02*Y151400D01*
X23600D01*
Y154600D02*Y151400D01*
X22000Y136200D02*Y129800D01*
X18800Y133000D02*X25200D01*
X20400Y134600D02*X23600D01*
X20400D02*Y131400D01*
X23600D01*
Y134600D02*Y131400D01*
X186000Y198200D02*Y191800D01*
X182800Y195000D02*X189200D01*
X184400Y196600D02*X187600D01*
X184400D02*Y193400D01*
X187600D01*
Y196600D02*Y193400D01*
X186000Y168200D02*Y161800D01*
X182800Y165000D02*X189200D01*
X184400Y166600D02*X187600D01*
X184400D02*Y163400D01*
X187600D01*
Y166600D02*Y163400D01*
X15000Y324450D02*Y318050D01*
X11800Y321250D02*X18200D01*
X13400Y322850D02*X16600D01*
X13400D02*Y319650D01*
X16600D01*
Y322850D02*Y319650D01*
X135000Y323500D02*Y322750D01*
X136500Y321250D01*
X138000Y322750D01*
Y323500D02*Y322750D01*
X136500Y321250D02*Y317500D01*
X139800Y320500D02*X142050D01*
X139800Y317500D02*X142800D01*
X139800Y323500D02*Y317500D01*
Y323500D02*X142800D01*
X147600D02*X148350Y322750D01*
X145350Y323500D02*X147600D01*
X144600Y322750D02*X145350Y323500D01*
X144600Y322750D02*Y321250D01*
X145350Y320500D01*
X147600D01*
X148350Y319750D01*
Y318250D01*
X147600Y317500D02*X148350Y318250D01*
X145350Y317500D02*X147600D01*
X144600Y318250D02*X145350Y317500D01*
X100250Y323500D02*X101000Y322750D01*
X98750Y323500D02*X100250D01*
X98000Y322750D02*X98750Y323500D01*
X98000Y322750D02*Y318250D01*
X98750Y317500D01*
X100250Y320500D02*X101000Y319750D01*
X98000Y320500D02*X100250D01*
X98750Y317500D02*X100250D01*
X101000Y318250D01*
Y319750D02*Y318250D01*
X45000D02*X45750Y317500D01*
X45000Y322750D02*Y318250D01*
Y322750D02*X45750Y323500D01*
X47250D01*
X48000Y322750D01*
Y318250D01*
X47250Y317500D02*X48000Y318250D01*
X45750Y317500D02*X47250D01*
X45000Y319000D02*X48000Y322000D01*
X49800Y317500D02*X50550D01*
X52350Y318250D02*X53100Y317500D01*
X52350Y322750D02*Y318250D01*
Y322750D02*X53100Y323500D01*
X54600D01*
X55350Y322750D01*
Y318250D01*
X54600Y317500D02*X55350Y318250D01*
X53100Y317500D02*X54600D01*
X52350Y319000D02*X55350Y322000D01*
X57150Y320500D02*X60150Y323500D01*
X57150Y320500D02*X60900D01*
X60150Y323500D02*Y317500D01*
X62700Y318250D02*X63450Y317500D01*
X62700Y319750D02*Y318250D01*
Y319750D02*X63450Y320500D01*
X64950D01*
X65700Y319750D01*
Y318250D01*
X64950Y317500D02*X65700Y318250D01*
X63450Y317500D02*X64950D01*
X62700Y321250D02*X63450Y320500D01*
X62700Y322750D02*Y321250D01*
Y322750D02*X63450Y323500D01*
X64950D01*
X65700Y322750D01*
Y321250D01*
X64950Y320500D02*X65700Y321250D01*
X112300Y219400D02*Y216200D01*
Y219400D02*X115073Y221000D01*
X112300Y219400D02*X109527Y221000D01*
X110700Y219400D02*G75*G03X113900Y219400I1600J0D01*G01*
G75*G03X110700Y219400I-1600J0D01*G01*
X102300D02*Y216200D01*
Y219400D02*X105073Y221000D01*
X102300Y219400D02*X99527Y221000D01*
X100700Y219400D02*G75*G03X103900Y219400I1600J0D01*G01*
G75*G03X100700Y219400I-1600J0D01*G01*
X92300D02*Y216200D01*
Y219400D02*X95073Y221000D01*
X92300Y219400D02*X89527Y221000D01*
X90700Y219400D02*G75*G03X93900Y219400I1600J0D01*G01*
G75*G03X90700Y219400I-1600J0D01*G01*
X15000Y336250D02*Y333050D01*
Y336250D02*X17773Y337850D01*
X15000Y336250D02*X12227Y337850D01*
X13400Y336250D02*G75*G03X16600Y336250I1600J0D01*G01*
G75*G03X13400Y336250I-1600J0D01*G01*
X135000Y338500D02*Y337750D01*
X136500Y336250D01*
X138000Y337750D01*
Y338500D02*Y337750D01*
X136500Y336250D02*Y332500D01*
X139800Y335500D02*X142050D01*
X139800Y332500D02*X142800D01*
X139800Y338500D02*Y332500D01*
Y338500D02*X142800D01*
X147600D02*X148350Y337750D01*
X145350Y338500D02*X147600D01*
X144600Y337750D02*X145350Y338500D01*
X144600Y337750D02*Y336250D01*
X145350Y335500D01*
X147600D01*
X148350Y334750D01*
Y333250D01*
X147600Y332500D02*X148350Y333250D01*
X145350Y332500D02*X147600D01*
X144600Y333250D02*X145350Y332500D01*
X98000Y337750D02*X98750Y338500D01*
X100250D01*
X101000Y337750D01*
Y333250D01*
X100250Y332500D02*X101000Y333250D01*
X98750Y332500D02*X100250D01*
X98000Y333250D02*X98750Y332500D01*
Y335500D02*X101000D01*
X45000Y333250D02*X45750Y332500D01*
X45000Y337750D02*Y333250D01*
Y337750D02*X45750Y338500D01*
X47250D01*
X48000Y337750D01*
Y333250D01*
X47250Y332500D02*X48000Y333250D01*
X45750Y332500D02*X47250D01*
X45000Y334000D02*X48000Y337000D01*
X49800Y332500D02*X50550D01*
X52350Y333250D02*X53100Y332500D01*
X52350Y337750D02*Y333250D01*
Y337750D02*X53100Y338500D01*
X54600D01*
X55350Y337750D01*
Y333250D01*
X54600Y332500D02*X55350Y333250D01*
X53100Y332500D02*X54600D01*
X52350Y334000D02*X55350Y337000D01*
X57150Y335500D02*X60150Y338500D01*
X57150Y335500D02*X60900D01*
X60150Y338500D02*Y332500D01*
X62700Y338500D02*X65700D01*
X62700D02*Y335500D01*
X63450Y336250D01*
X64950D01*
X65700Y335500D01*
Y333250D01*
X64950Y332500D02*X65700Y333250D01*
X63450Y332500D02*X64950D01*
X62700Y333250D02*X63450Y332500D01*
X196400Y81336D02*X199600D01*
X196400D02*Y78136D01*
X199600D01*
Y81336D02*Y78136D01*
X87400Y25100D02*X90600D01*
X87400D02*Y21900D01*
X90600D01*
Y25100D02*Y21900D01*
X107085Y25100D02*X110285D01*
X107085D02*Y21900D01*
X110285D01*
Y25100D02*Y21900D01*
X154400Y25100D02*X157600D01*
X154400D02*Y21900D01*
X157600D01*
Y25100D02*Y21900D01*
X174085Y25100D02*X177285D01*
X174085D02*Y21900D01*
X177285D01*
Y25100D02*Y21900D01*
X221400Y25100D02*X224600D01*
X221400D02*Y21900D01*
X224600D01*
Y25100D02*Y21900D01*
X241085Y25100D02*X244285D01*
X241085D02*Y21900D01*
X244285D01*
Y25100D02*Y21900D01*
X287900Y25100D02*X291100D01*
X287900D02*Y21900D01*
X291100D01*
Y25100D02*Y21900D01*
X307585Y25100D02*X310785D01*
X307585D02*Y21900D01*
X310785D01*
Y25100D02*Y21900D01*
X13400Y352850D02*X16600D01*
X13400D02*Y349650D01*
X16600D01*
Y352850D02*Y349650D01*
X135000Y353500D02*Y352750D01*
X136500Y351250D01*
X138000Y352750D01*
Y353500D02*Y352750D01*
X136500Y351250D02*Y347500D01*
X139800Y350500D02*X142050D01*
X139800Y347500D02*X142800D01*
X139800Y353500D02*Y347500D01*
Y353500D02*X142800D01*
X147600D02*X148350Y352750D01*
X145350Y353500D02*X147600D01*
X144600Y352750D02*X145350Y353500D01*
X144600Y352750D02*Y351250D01*
X145350Y350500D01*
X147600D01*
X148350Y349750D01*
Y348250D01*
X147600Y347500D02*X148350Y348250D01*
X145350Y347500D02*X147600D01*
X144600Y348250D02*X145350Y347500D01*
X98000D02*X101000Y350500D01*
Y352750D02*Y350500D01*
X100250Y353500D02*X101000Y352750D01*
X98750Y353500D02*X100250D01*
X98000Y352750D02*X98750Y353500D01*
X98000Y352750D02*Y351250D01*
X98750Y350500D01*
X101000D01*
X45000Y348250D02*X45750Y347500D01*
X45000Y352750D02*Y348250D01*
Y352750D02*X45750Y353500D01*
X47250D01*
X48000Y352750D01*
Y348250D01*
X47250Y347500D02*X48000Y348250D01*
X45750Y347500D02*X47250D01*
X45000Y349000D02*X48000Y352000D01*
X49800Y347500D02*X50550D01*
X52350Y348250D02*X53100Y347500D01*
X52350Y352750D02*Y348250D01*
Y352750D02*X53100Y353500D01*
X54600D01*
X55350Y352750D01*
Y348250D01*
X54600Y347500D02*X55350Y348250D01*
X53100Y347500D02*X54600D01*
X52350Y349000D02*X55350Y352000D01*
X57150Y350500D02*X60150Y353500D01*
X57150Y350500D02*X60900D01*
X60150Y353500D02*Y347500D01*
X62700Y350500D02*X65700Y353500D01*
X62700Y350500D02*X66450D01*
X65700Y353500D02*Y347500D01*
X352200Y233000D02*G75*G03X353800Y233000I800J0D01*G01*
G75*G03X352200Y233000I-800J0D01*G01*
X342200D02*G75*G03X343800Y233000I800J0D01*G01*
G75*G03X342200Y233000I-800J0D01*G01*
X332200D02*G75*G03X333800Y233000I800J0D01*G01*
G75*G03X332200Y233000I-800J0D01*G01*
X322200D02*G75*G03X323800Y233000I800J0D01*G01*
G75*G03X322200Y233000I-800J0D01*G01*
X312200D02*G75*G03X313800Y233000I800J0D01*G01*
G75*G03X312200Y233000I-800J0D01*G01*
X302200D02*G75*G03X303800Y233000I800J0D01*G01*
G75*G03X302200Y233000I-800J0D01*G01*
X292200D02*G75*G03X293800Y233000I800J0D01*G01*
G75*G03X292200Y233000I-800J0D01*G01*
X282200D02*G75*G03X283800Y233000I800J0D01*G01*
G75*G03X282200Y233000I-800J0D01*G01*
X272200D02*G75*G03X273800Y233000I800J0D01*G01*
G75*G03X272200Y233000I-800J0D01*G01*
X262200D02*G75*G03X263800Y233000I800J0D01*G01*
G75*G03X262200Y233000I-800J0D01*G01*
X252200D02*G75*G03X253800Y233000I800J0D01*G01*
G75*G03X252200Y233000I-800J0D01*G01*
X242200D02*G75*G03X243800Y233000I800J0D01*G01*
G75*G03X242200Y233000I-800J0D01*G01*
X232200D02*G75*G03X233800Y233000I800J0D01*G01*
G75*G03X232200Y233000I-800J0D01*G01*
X222200D02*G75*G03X223800Y233000I800J0D01*G01*
G75*G03X222200Y233000I-800J0D01*G01*
X212200D02*G75*G03X213800Y233000I800J0D01*G01*
G75*G03X212200Y233000I-800J0D01*G01*
X202200D02*G75*G03X203800Y233000I800J0D01*G01*
G75*G03X202200Y233000I-800J0D01*G01*
X290200Y196500D02*G75*G03X291800Y196500I800J0D01*G01*
G75*G03X290200Y196500I-800J0D01*G01*
Y186500D02*G75*G03X291800Y186500I800J0D01*G01*
G75*G03X290200Y186500I-800J0D01*G01*
Y176500D02*G75*G03X291800Y176500I800J0D01*G01*
G75*G03X290200Y176500I-800J0D01*G01*
X300200Y196500D02*G75*G03X301800Y196500I800J0D01*G01*
G75*G03X300200Y196500I-800J0D01*G01*
Y186500D02*G75*G03X301800Y186500I800J0D01*G01*
G75*G03X300200Y186500I-800J0D01*G01*
Y176500D02*G75*G03X301800Y176500I800J0D01*G01*
G75*G03X300200Y176500I-800J0D01*G01*
X339700Y135500D02*G75*G03X341300Y135500I800J0D01*G01*
G75*G03X339700Y135500I-800J0D01*G01*
Y145500D02*G75*G03X341300Y145500I800J0D01*G01*
G75*G03X339700Y145500I-800J0D01*G01*
Y155500D02*G75*G03X341300Y155500I800J0D01*G01*
G75*G03X339700Y155500I-800J0D01*G01*
Y165500D02*G75*G03X341300Y165500I800J0D01*G01*
G75*G03X339700Y165500I-800J0D01*G01*
Y175500D02*G75*G03X341300Y175500I800J0D01*G01*
G75*G03X339700Y175500I-800J0D01*G01*
X236200Y107000D02*G75*G03X237800Y107000I800J0D01*G01*
G75*G03X236200Y107000I-800J0D01*G01*
X246200D02*G75*G03X247800Y107000I800J0D01*G01*
G75*G03X246200Y107000I-800J0D01*G01*
X14700Y52500D02*G75*G03X16300Y52500I800J0D01*G01*
G75*G03X14700Y52500I-800J0D01*G01*
X24700D02*G75*G03X26300Y52500I800J0D01*G01*
G75*G03X24700Y52500I-800J0D01*G01*
X41200D02*G75*G03X42800Y52500I800J0D01*G01*
G75*G03X41200Y52500I-800J0D01*G01*
Y42500D02*G75*G03X42800Y42500I800J0D01*G01*
G75*G03X41200Y42500I-800J0D01*G01*
X14200Y366250D02*G75*G03X15800Y366250I800J0D01*G01*
G75*G03X14200Y366250I-800J0D01*G01*
X135000Y368500D02*Y367750D01*
X136500Y366250D01*
X138000Y367750D01*
Y368500D02*Y367750D01*
X136500Y366250D02*Y362500D01*
X139800Y365500D02*X142050D01*
X139800Y362500D02*X142800D01*
X139800Y368500D02*Y362500D01*
Y368500D02*X142800D01*
X147600D02*X148350Y367750D01*
X145350Y368500D02*X147600D01*
X144600Y367750D02*X145350Y368500D01*
X144600Y367750D02*Y366250D01*
X145350Y365500D01*
X147600D01*
X148350Y364750D01*
Y363250D01*
X147600Y362500D02*X148350Y363250D01*
X145350Y362500D02*X147600D01*
X144600Y363250D02*X145350Y362500D01*
X98000Y367750D02*X98750Y368500D01*
X100250D01*
X101000Y367750D01*
Y363250D01*
X100250Y362500D02*X101000Y363250D01*
X98750Y362500D02*X100250D01*
X98000Y363250D02*X98750Y362500D01*
Y365500D02*X101000D01*
X102800Y367750D02*X103550Y368500D01*
X105050D01*
X105800Y367750D01*
Y363250D01*
X105050Y362500D02*X105800Y363250D01*
X103550Y362500D02*X105050D01*
X102800Y363250D02*X103550Y362500D01*
Y365500D02*X105800D01*
X45000Y363250D02*X45750Y362500D01*
X45000Y367750D02*Y363250D01*
Y367750D02*X45750Y368500D01*
X47250D01*
X48000Y367750D01*
Y363250D01*
X47250Y362500D02*X48000Y363250D01*
X45750Y362500D02*X47250D01*
X45000Y364000D02*X48000Y367000D01*
X49800Y362500D02*X50550D01*
X52350Y363250D02*X53100Y362500D01*
X52350Y367750D02*Y363250D01*
Y367750D02*X53100Y368500D01*
X54600D01*
X55350Y367750D01*
Y363250D01*
X54600Y362500D02*X55350Y363250D01*
X53100Y362500D02*X54600D01*
X52350Y364000D02*X55350Y367000D01*
X57150Y367750D02*X57900Y368500D01*
X59400D01*
X60150Y367750D01*
Y363250D01*
X59400Y362500D02*X60150Y363250D01*
X57900Y362500D02*X59400D01*
X57150Y363250D02*X57900Y362500D01*
Y365500D02*X60150D01*
X61950Y363250D02*X62700Y362500D01*
X61950Y364750D02*Y363250D01*
Y364750D02*X62700Y365500D01*
X64200D01*
X64950Y364750D01*
Y363250D01*
X64200Y362500D02*X64950Y363250D01*
X62700Y362500D02*X64200D01*
X61950Y366250D02*X62700Y365500D01*
X61950Y367750D02*Y366250D01*
Y367750D02*X62700Y368500D01*
X64200D01*
X64950Y367750D01*
Y366250D01*
X64200Y365500D02*X64950Y366250D01*
X69193Y140900D02*X71593Y138500D01*
X69193D02*X71593Y140900D01*
X69193Y133026D02*X71593Y130626D01*
X69193D02*X71593Y133026D01*
X69193Y125152D02*X71593Y122752D01*
X69193D02*X71593Y125152D01*
X69193Y117278D02*X71593Y114878D01*
X69193D02*X71593Y117278D01*
X69193Y109404D02*X71593Y107004D01*
X69193D02*X71593Y109404D01*
X69193Y101530D02*X71593Y99130D01*
X69193D02*X71593Y101530D01*
X69193Y93656D02*X71593Y91256D01*
X69193D02*X71593Y93656D01*
X69193Y85782D02*X71593Y83382D01*
X69193D02*X71593Y85782D01*
X69193Y77908D02*X71593Y75508D01*
X69193D02*X71593Y77908D01*
X69193Y70034D02*X71593Y67634D01*
X69193D02*X71593Y70034D01*
X155807Y140900D02*X158207Y138500D01*
X155807D02*X158207Y140900D01*
X155807Y133026D02*X158207Y130626D01*
X155807D02*X158207Y133026D01*
X155807Y125152D02*X158207Y122752D01*
X155807D02*X158207Y125152D01*
X155807Y117278D02*X158207Y114878D01*
X155807D02*X158207Y117278D01*
X155807Y109404D02*X158207Y107004D01*
X155807D02*X158207Y109404D01*
X155807Y101530D02*X158207Y99130D01*
X155807D02*X158207Y101530D01*
X155807Y93656D02*X158207Y91256D01*
X155807D02*X158207Y93656D01*
X155807Y85782D02*X158207Y83382D01*
X155807D02*X158207Y85782D01*
X155807Y77908D02*X158207Y75508D01*
X155807D02*X158207Y77908D01*
X155807Y70034D02*X158207Y67634D01*
X155807D02*X158207Y70034D01*
X13800Y382450D02*X16200Y380050D01*
X13800D02*X16200Y382450D01*
X135000Y383500D02*Y382750D01*
X136500Y381250D01*
X138000Y382750D01*
Y383500D02*Y382750D01*
X136500Y381250D02*Y377500D01*
X139800Y380500D02*X142050D01*
X139800Y377500D02*X142800D01*
X139800Y383500D02*Y377500D01*
Y383500D02*X142800D01*
X147600D02*X148350Y382750D01*
X145350Y383500D02*X147600D01*
X144600Y382750D02*X145350Y383500D01*
X144600Y382750D02*Y381250D01*
X145350Y380500D01*
X147600D01*
X148350Y379750D01*
Y378250D01*
X147600Y377500D02*X148350Y378250D01*
X145350Y377500D02*X147600D01*
X144600Y378250D02*X145350Y377500D01*
X98000Y382750D02*X98750Y383500D01*
X101000D01*
X101750Y382750D01*
Y381250D01*
X98000Y377500D02*X101750Y381250D01*
X98000Y377500D02*X101750D01*
X103550Y378250D02*X104300Y377500D01*
X103550Y382750D02*Y378250D01*
Y382750D02*X104300Y383500D01*
X105800D01*
X106550Y382750D01*
Y378250D01*
X105800Y377500D02*X106550Y378250D01*
X104300Y377500D02*X105800D01*
X103550Y379000D02*X106550Y382000D01*
X45000Y378250D02*X45750Y377500D01*
X45000Y382750D02*Y378250D01*
Y382750D02*X45750Y383500D01*
X47250D01*
X48000Y382750D01*
Y378250D01*
X47250Y377500D02*X48000Y378250D01*
X45750Y377500D02*X47250D01*
X45000Y379000D02*X48000Y382000D01*
X49800Y377500D02*X50550D01*
X52350Y378250D02*X53100Y377500D01*
X52350Y382750D02*Y378250D01*
Y382750D02*X53100Y383500D01*
X54600D01*
X55350Y382750D01*
Y378250D01*
X54600Y377500D02*X55350Y378250D01*
X53100Y377500D02*X54600D01*
X52350Y379000D02*X55350Y382000D01*
X57150Y382750D02*X57900Y383500D01*
X59400D01*
X60150Y382750D01*
Y378250D01*
X59400Y377500D02*X60150Y378250D01*
X57900Y377500D02*X59400D01*
X57150Y378250D02*X57900Y377500D01*
Y380500D02*X60150D01*
X61950Y382750D02*X62700Y383500D01*
X64950D01*
X65700Y382750D01*
Y381250D01*
X61950Y377500D02*X65700Y381250D01*
X61950Y377500D02*X65700D01*
X116000Y69600D02*Y66400D01*
X114400Y68000D02*X117600D01*
X116000Y79600D02*Y76400D01*
X114400Y78000D02*X117600D01*
X116000Y89600D02*Y86400D01*
X114400Y88000D02*X117600D01*
X116000Y99600D02*Y96400D01*
X114400Y98000D02*X117600D01*
X86000Y99600D02*Y96400D01*
X84400Y98000D02*X87600D01*
X86000Y89600D02*Y86400D01*
X84400Y88000D02*X87600D01*
X86000Y79600D02*Y76400D01*
X84400Y78000D02*X87600D01*
X86000Y69600D02*Y66400D01*
X84400Y68000D02*X87600D01*
X15000Y397850D02*Y394650D01*
X13400Y396250D02*X16600D01*
X135000Y398500D02*Y397750D01*
X136500Y396250D01*
X138000Y397750D01*
Y398500D02*Y397750D01*
X136500Y396250D02*Y392500D01*
X139800Y395500D02*X142050D01*
X139800Y392500D02*X142800D01*
X139800Y398500D02*Y392500D01*
Y398500D02*X142800D01*
X147600D02*X148350Y397750D01*
X145350Y398500D02*X147600D01*
X144600Y397750D02*X145350Y398500D01*
X144600Y397750D02*Y396250D01*
X145350Y395500D01*
X147600D01*
X148350Y394750D01*
Y393250D01*
X147600Y392500D02*X148350Y393250D01*
X145350Y392500D02*X147600D01*
X144600Y393250D02*X145350Y392500D01*
X98000Y393250D02*X98750Y392500D01*
X98000Y394750D02*Y393250D01*
Y394750D02*X98750Y395500D01*
X100250D01*
X101000Y394750D01*
Y393250D01*
X100250Y392500D02*X101000Y393250D01*
X98750Y392500D02*X100250D01*
X98000Y396250D02*X98750Y395500D01*
X98000Y397750D02*Y396250D01*
Y397750D02*X98750Y398500D01*
X100250D01*
X101000Y397750D01*
Y396250D01*
X100250Y395500D02*X101000Y396250D01*
X45000Y393250D02*X45750Y392500D01*
X45000Y397750D02*Y393250D01*
Y397750D02*X45750Y398500D01*
X47250D01*
X48000Y397750D01*
Y393250D01*
X47250Y392500D02*X48000Y393250D01*
X45750Y392500D02*X47250D01*
X45000Y394000D02*X48000Y397000D01*
X49800Y392500D02*X50550D01*
X52350Y393250D02*X53100Y392500D01*
X52350Y397750D02*Y393250D01*
Y397750D02*X53100Y398500D01*
X54600D01*
X55350Y397750D01*
Y393250D01*
X54600Y392500D02*X55350Y393250D01*
X53100Y392500D02*X54600D01*
X52350Y394000D02*X55350Y397000D01*
X57150Y397750D02*X57900Y398500D01*
X60150D01*
X60900Y397750D01*
Y396250D01*
X57150Y392500D02*X60900Y396250D01*
X57150Y392500D02*X60900D01*
X62700Y393250D02*X63450Y392500D01*
X62700Y394750D02*Y393250D01*
Y394750D02*X63450Y395500D01*
X64950D01*
X65700Y394750D01*
Y393250D01*
X64950Y392500D02*X65700Y393250D01*
X63450Y392500D02*X64950D01*
X62700Y396250D02*X63450Y395500D01*
X62700Y397750D02*Y396250D01*
Y397750D02*X63450Y398500D01*
X64950D01*
X65700Y397750D01*
Y396250D01*
X64950Y395500D02*X65700Y396250D01*
X298500Y114894D02*Y113294D01*
Y114894D02*X299887Y115694D01*
X298500Y114894D02*X297113Y115694D01*
X298500Y134106D02*Y132506D01*
Y134106D02*X299887Y134906D01*
X298500Y134106D02*X297113Y134906D01*
X69000Y224000D02*Y222400D01*
Y224000D02*X70387Y224800D01*
X69000Y224000D02*X67613Y224800D01*
X53000Y224000D02*Y222400D01*
Y224000D02*X54387Y224800D01*
X53000Y224000D02*X51613Y224800D01*
X69000Y211000D02*Y209400D01*
Y211000D02*X70387Y211800D01*
X69000Y211000D02*X67613Y211800D01*
X53000Y211000D02*Y209400D01*
Y211000D02*X54387Y211800D01*
X53000Y211000D02*X51613Y211800D01*
X87000Y168000D02*Y166400D01*
Y168000D02*X88387Y168800D01*
X87000Y168000D02*X85613Y168800D01*
X99000Y168000D02*Y166400D01*
Y168000D02*X100387Y168800D01*
X99000Y168000D02*X97613Y168800D01*
X104000Y168000D02*Y166400D01*
Y168000D02*X105387Y168800D01*
X104000Y168000D02*X102613Y168800D01*
X120000Y110000D02*Y108400D01*
Y110000D02*X121387Y110800D01*
X120000Y110000D02*X118613Y110800D01*
X114000Y110000D02*Y108400D01*
Y110000D02*X115387Y110800D01*
X114000Y110000D02*X112613Y110800D01*
X114000Y115000D02*Y113400D01*
Y115000D02*X115387Y115800D01*
X114000Y115000D02*X112613Y115800D01*
X120000Y115000D02*Y113400D01*
Y115000D02*X121387Y115800D01*
X120000Y115000D02*X118613Y115800D01*
X135000Y58000D02*Y56400D01*
Y58000D02*X136387Y58800D01*
X135000Y58000D02*X133613Y58800D01*
X140000Y58000D02*Y56400D01*
Y58000D02*X141387Y58800D01*
X140000Y58000D02*X138613Y58800D01*
X114000Y120000D02*Y118400D01*
Y120000D02*X115387Y120800D01*
X114000Y120000D02*X112613Y120800D01*
X120000Y120000D02*Y118400D01*
Y120000D02*X121387Y120800D01*
X120000Y120000D02*X118613Y120800D01*
X135000Y93000D02*Y91400D01*
Y93000D02*X136387Y93800D01*
X135000Y93000D02*X133613Y93800D01*
X62000Y89000D02*Y87400D01*
Y89000D02*X63387Y89800D01*
X62000Y89000D02*X60613Y89800D01*
X130000Y160000D02*Y158400D01*
Y160000D02*X131387Y160800D01*
X130000Y160000D02*X128613Y160800D01*
X130000Y165000D02*Y163400D01*
Y165000D02*X131387Y165800D01*
X130000Y165000D02*X128613Y165800D01*
X130000Y170000D02*Y168400D01*
Y170000D02*X131387Y170800D01*
X130000Y170000D02*X128613Y170800D01*
X169000Y230000D02*Y228400D01*
Y230000D02*X170387Y230800D01*
X169000Y230000D02*X167613Y230800D01*
X164000Y230000D02*Y228400D01*
Y230000D02*X165387Y230800D01*
X164000Y230000D02*X162613Y230800D01*
X159000Y230000D02*Y228400D01*
Y230000D02*X160387Y230800D01*
X159000Y230000D02*X157613Y230800D01*
X83000Y207000D02*Y205400D01*
Y207000D02*X84387Y207800D01*
X83000Y207000D02*X81613Y207800D01*
X90000Y207000D02*Y205400D01*
Y207000D02*X91387Y207800D01*
X90000Y207000D02*X88613Y207800D01*
X97000Y207000D02*Y205400D01*
Y207000D02*X98387Y207800D01*
X97000Y207000D02*X95613Y207800D01*
X131000Y195000D02*Y193400D01*
Y195000D02*X132387Y195800D01*
X131000Y195000D02*X129613Y195800D01*
X138000Y195000D02*Y193400D01*
Y195000D02*X139387Y195800D01*
X138000Y195000D02*X136613Y195800D01*
X145000Y195000D02*Y193400D01*
Y195000D02*X146387Y195800D01*
X145000Y195000D02*X143613Y195800D01*
X152000Y195000D02*Y193400D01*
Y195000D02*X153387Y195800D01*
X152000Y195000D02*X150613Y195800D01*
X159000Y195000D02*Y193400D01*
Y195000D02*X160387Y195800D01*
X159000Y195000D02*X157613Y195800D01*
X166000Y195000D02*Y193400D01*
Y195000D02*X167387Y195800D01*
X166000Y195000D02*X164613Y195800D01*
X173000Y195000D02*Y193400D01*
Y195000D02*X174387Y195800D01*
X173000Y195000D02*X171613Y195800D01*
X199000Y195000D02*Y193400D01*
Y195000D02*X200387Y195800D01*
X199000Y195000D02*X197613Y195800D01*
X206000Y195000D02*Y193400D01*
Y195000D02*X207387Y195800D01*
X206000Y195000D02*X204613Y195800D01*
X213000Y195000D02*Y193400D01*
Y195000D02*X214387Y195800D01*
X213000Y195000D02*X211613Y195800D01*
X219000Y195000D02*Y193400D01*
Y195000D02*X220387Y195800D01*
X219000Y195000D02*X217613Y195800D01*
X226000Y195000D02*Y193400D01*
Y195000D02*X227387Y195800D01*
X226000Y195000D02*X224613Y195800D01*
X251500Y164000D02*Y162400D01*
Y164000D02*X252887Y164800D01*
X251500Y164000D02*X250113Y164800D01*
X251500Y158000D02*Y156400D01*
Y158000D02*X252887Y158800D01*
X251500Y158000D02*X250113Y158800D01*
X251500Y152500D02*Y150900D01*
Y152500D02*X252887Y153300D01*
X251500Y152500D02*X250113Y153300D01*
X260000Y164500D02*Y162900D01*
Y164500D02*X261387Y165300D01*
X260000Y164500D02*X258613Y165300D01*
X247000Y118500D02*Y116900D01*
Y118500D02*X248387Y119300D01*
X247000Y118500D02*X245613Y119300D01*
X252000Y118500D02*Y116900D01*
Y118500D02*X253387Y119300D01*
X252000Y118500D02*X250613Y119300D01*
X257000Y118500D02*Y116900D01*
Y118500D02*X258387Y119300D01*
X257000Y118500D02*X255613Y119300D01*
X271000Y139000D02*Y137400D01*
Y139000D02*X272387Y139800D01*
X271000Y139000D02*X269613Y139800D01*
X276500Y120000D02*Y118400D01*
Y120000D02*X277887Y120800D01*
X276500Y120000D02*X275113Y120800D01*
X227500Y177000D02*Y175400D01*
Y177000D02*X228887Y177800D01*
X227500Y177000D02*X226113Y177800D01*
X233500Y142000D02*Y140400D01*
Y142000D02*X234887Y142800D01*
X233500Y142000D02*X232113Y142800D01*
X198500Y163000D02*Y161400D01*
Y163000D02*X199887Y163800D01*
X198500Y163000D02*X197113Y163800D01*
X203000Y170500D02*Y168900D01*
Y170500D02*X204387Y171300D01*
X203000Y170500D02*X201613Y171300D01*
X219000Y159500D02*Y157900D01*
Y159500D02*X220387Y160300D01*
X219000Y159500D02*X217613Y160300D01*
X248000Y197000D02*Y195400D01*
Y197000D02*X249387Y197800D01*
X248000Y197000D02*X246613Y197800D01*
X252000Y197000D02*Y195400D01*
Y197000D02*X253387Y197800D01*
X252000Y197000D02*X250613Y197800D01*
X281000Y182500D02*Y180900D01*
Y182500D02*X282387Y183300D01*
X281000Y182500D02*X279613Y183300D01*
X281000Y224500D02*Y222900D01*
Y224500D02*X282387Y225300D01*
X281000Y224500D02*X279613Y225300D01*
X282000Y169500D02*Y167900D01*
Y169500D02*X283387Y170300D01*
X282000Y169500D02*X280613Y170300D01*
X264500Y114000D02*Y112400D01*
Y114000D02*X265887Y114800D01*
X264500Y114000D02*X263113Y114800D01*
X269500Y114000D02*Y112400D01*
Y114000D02*X270887Y114800D01*
X269500Y114000D02*X268113Y114800D01*
X219000Y143000D02*Y141400D01*
Y143000D02*X220387Y143800D01*
X219000Y143000D02*X217613Y143800D01*
X213000Y66000D02*Y64400D01*
Y66000D02*X214387Y66800D01*
X213000Y66000D02*X211613Y66800D01*
X227000Y163500D02*Y161900D01*
Y163500D02*X228387Y164300D01*
X227000Y163500D02*X225613Y164300D01*
X130000Y58000D02*Y56400D01*
Y58000D02*X131387Y58800D01*
X130000Y58000D02*X128613Y58800D01*
X139000Y70000D02*Y68400D01*
Y70000D02*X140387Y70800D01*
X139000Y70000D02*X137613Y70800D01*
X207000Y66000D02*Y64400D01*
Y66000D02*X208387Y66800D01*
X207000Y66000D02*X205613Y66800D01*
X213000Y57000D02*Y55400D01*
Y57000D02*X214387Y57800D01*
X213000Y57000D02*X211613Y57800D01*
X207000Y57000D02*Y55400D01*
Y57000D02*X208387Y57800D01*
X207000Y57000D02*X205613Y57800D01*
X101500Y163000D02*Y161400D01*
Y163000D02*X102887Y163800D01*
X101500Y163000D02*X100113Y163800D01*
X105000Y159500D02*Y157900D01*
Y159500D02*X106387Y160300D01*
X105000Y159500D02*X103613Y160300D01*
X101500Y156000D02*Y154400D01*
Y156000D02*X102887Y156800D01*
X101500Y156000D02*X100113Y156800D01*
X105000Y152500D02*Y150900D01*
Y152500D02*X106387Y153300D01*
X105000Y152500D02*X103613Y153300D01*
X101500Y149000D02*Y147400D01*
Y149000D02*X102887Y149800D01*
X101500Y149000D02*X100113Y149800D01*
X82000Y168000D02*Y166400D01*
Y168000D02*X83387Y168800D01*
X82000Y168000D02*X80613Y168800D01*
X77000Y168000D02*Y166400D01*
Y168000D02*X78387Y168800D01*
X77000Y168000D02*X75613Y168800D01*
X72000Y168000D02*Y166400D01*
Y168000D02*X73387Y168800D01*
X72000Y168000D02*X70613Y168800D01*
X67000Y168000D02*Y166400D01*
Y168000D02*X68387Y168800D01*
X67000Y168000D02*X65613Y168800D01*
X62000Y168000D02*Y166400D01*
Y168000D02*X63387Y168800D01*
X62000Y168000D02*X60613Y168800D01*
X64500Y172500D02*Y170900D01*
Y172500D02*X65887Y173300D01*
X64500Y172500D02*X63113Y173300D01*
X87000Y173500D02*Y171900D01*
Y173500D02*X88387Y174300D01*
X87000Y173500D02*X85613Y174300D01*
X87000Y178000D02*Y176400D01*
Y178000D02*X88387Y178800D01*
X87000Y178000D02*X85613Y178800D01*
X87000Y182500D02*Y180900D01*
Y182500D02*X88387Y183300D01*
X87000Y182500D02*X85613Y183300D01*
X87000Y187000D02*Y185400D01*
Y187000D02*X88387Y187800D01*
X87000Y187000D02*X85613Y187800D01*
X87000Y191500D02*Y189900D01*
Y191500D02*X88387Y192300D01*
X87000Y191500D02*X85613Y192300D01*
X87000Y196000D02*Y194400D01*
Y196000D02*X88387Y196800D01*
X87000Y196000D02*X85613Y196800D01*
X328000Y244500D02*Y242900D01*
Y244500D02*X329387Y245300D01*
X328000Y244500D02*X326613Y245300D01*
X4500Y48000D02*Y46400D01*
Y48000D02*X5887Y48800D01*
X4500Y48000D02*X3113Y48800D01*
X55500Y48000D02*Y46400D01*
Y48000D02*X56887Y48800D01*
X55500Y48000D02*X54113Y48800D01*
X389000Y122500D02*Y120900D01*
Y122500D02*X390387Y123300D01*
X389000Y122500D02*X387613Y123300D01*
X394000Y126000D02*Y124400D01*
Y126000D02*X395387Y126800D01*
X394000Y126000D02*X392613Y126800D01*
X376000Y171000D02*Y169400D01*
Y171000D02*X377387Y171800D01*
X376000Y171000D02*X374613Y171800D01*
X372000Y164500D02*Y162900D01*
Y164500D02*X373387Y165300D01*
X372000Y164500D02*X370613Y165300D01*
X369000Y154500D02*Y152900D01*
Y154500D02*X370387Y155300D01*
X369000Y154500D02*X367613Y155300D01*
X365500Y144500D02*Y142900D01*
Y144500D02*X366887Y145300D01*
X365500Y144500D02*X364113Y145300D01*
X362500Y133000D02*Y131400D01*
Y133000D02*X363887Y133800D01*
X362500Y133000D02*X361113Y133800D01*
X355500Y133000D02*Y131400D01*
Y133000D02*X356887Y133800D01*
X355500Y133000D02*X354113Y133800D01*
X359000Y138000D02*Y136400D01*
Y138000D02*X360387Y138800D01*
X359000Y138000D02*X357613Y138800D01*
X385000Y139500D02*Y137900D01*
Y139500D02*X386387Y140300D01*
X385000Y139500D02*X383613Y140300D01*
X385000Y133500D02*Y131900D01*
Y133500D02*X386387Y134300D01*
X385000Y133500D02*X383613Y134300D01*
X380000Y139500D02*Y137900D01*
Y139500D02*X381387Y140300D01*
X380000Y139500D02*X378613Y140300D01*
X380000Y133500D02*Y131900D01*
Y133500D02*X381387Y134300D01*
X380000Y133500D02*X378613Y134300D01*
X364500Y181500D02*Y179900D01*
Y181500D02*X365887Y182300D01*
X364500Y181500D02*X363113Y182300D01*
X369500Y181500D02*Y179900D01*
Y181500D02*X370887Y182300D01*
X369500Y181500D02*X368113Y182300D01*
X374500Y181500D02*Y179900D01*
Y181500D02*X375887Y182300D01*
X374500Y181500D02*X373113Y182300D01*
X379500Y181500D02*Y179900D01*
Y181500D02*X380887Y182300D01*
X379500Y181500D02*X378113Y182300D01*
X364500Y150500D02*Y148900D01*
Y150500D02*X365887Y151300D01*
X364500Y150500D02*X363113Y151300D01*
X347500Y116000D02*Y114400D01*
Y116000D02*X348887Y116800D01*
X347500Y116000D02*X346113Y116800D01*
X357500Y116000D02*Y114400D01*
Y116000D02*X358887Y116800D01*
X357500Y116000D02*X356113Y116800D01*
X352500Y109500D02*Y107900D01*
Y109500D02*X353887Y110300D01*
X352500Y109500D02*X351113Y110300D01*
X347500Y104000D02*Y102400D01*
Y104000D02*X348887Y104800D01*
X347500Y104000D02*X346113Y104800D01*
X357500Y104000D02*Y102400D01*
Y104000D02*X358887Y104800D01*
X357500Y104000D02*X356113Y104800D01*
X382000Y116000D02*Y114400D01*
Y116000D02*X383387Y116800D01*
X382000Y116000D02*X380613Y116800D01*
X382000Y109500D02*Y107900D01*
Y109500D02*X383387Y110300D01*
X382000Y109500D02*X380613Y110300D01*
X382000Y103500D02*Y101900D01*
Y103500D02*X383387Y104300D01*
X382000Y103500D02*X380613Y104300D01*
X69000Y218500D02*Y216900D01*
Y218500D02*X70387Y219300D01*
X69000Y218500D02*X67613Y219300D01*
X53000Y218500D02*Y216900D01*
Y218500D02*X54387Y219300D01*
X53000Y218500D02*X51613Y219300D01*
X15000Y411250D02*Y409650D01*
Y411250D02*X16387Y412050D01*
X15000Y411250D02*X13613Y412050D01*
X135000Y413500D02*Y412750D01*
X136500Y411250D01*
X138000Y412750D01*
Y413500D02*Y412750D01*
X136500Y411250D02*Y407500D01*
X139800Y410500D02*X142050D01*
X139800Y407500D02*X142800D01*
X139800Y413500D02*Y407500D01*
Y413500D02*X142800D01*
X147600D02*X148350Y412750D01*
X145350Y413500D02*X147600D01*
X144600Y412750D02*X145350Y413500D01*
X144600Y412750D02*Y411250D01*
X145350Y410500D01*
X147600D01*
X148350Y409750D01*
Y408250D01*
X147600Y407500D02*X148350Y408250D01*
X145350Y407500D02*X147600D01*
X144600Y408250D02*X145350Y407500D01*
X98750D02*X100250D01*
X99500Y413500D02*Y407500D01*
X98000Y412000D02*X99500Y413500D01*
X102800Y407500D02*X104300D01*
X103550Y413500D02*Y407500D01*
X102050Y412000D02*X103550Y413500D01*
X106100Y407500D02*X109850Y411250D01*
Y413500D02*Y411250D01*
X106100Y413500D02*X109850D01*
X45000Y408250D02*X45750Y407500D01*
X45000Y412750D02*Y408250D01*
Y412750D02*X45750Y413500D01*
X47250D01*
X48000Y412750D01*
Y408250D01*
X47250Y407500D02*X48000Y408250D01*
X45750Y407500D02*X47250D01*
X45000Y409000D02*X48000Y412000D01*
X49800Y407500D02*X50550D01*
X52350Y408250D02*X53100Y407500D01*
X52350Y412750D02*Y408250D01*
Y412750D02*X53100Y413500D01*
X54600D01*
X55350Y412750D01*
Y408250D01*
X54600Y407500D02*X55350Y408250D01*
X53100Y407500D02*X54600D01*
X52350Y409000D02*X55350Y412000D01*
X57150Y412750D02*X57900Y413500D01*
X60150D01*
X60900Y412750D01*
Y411250D01*
X57150Y407500D02*X60900Y411250D01*
X57150Y407500D02*X60900D01*
X62700Y408250D02*X63450Y407500D01*
X62700Y412750D02*Y408250D01*
Y412750D02*X63450Y413500D01*
X64950D01*
X65700Y412750D01*
Y408250D01*
X64950Y407500D02*X65700Y408250D01*
X63450Y407500D02*X64950D01*
X62700Y409000D02*X65700Y412000D01*
X3000Y428500D02*X3750Y427750D01*
X750Y428500D02*X3000D01*
X0Y427750D02*X750Y428500D01*
X0Y427750D02*Y426250D01*
X750Y425500D01*
X3000D01*
X3750Y424750D01*
Y423250D01*
X3000Y422500D02*X3750Y423250D01*
X750Y422500D02*X3000D01*
X0Y423250D02*X750Y422500D01*
X5550Y425500D02*Y423250D01*
X6300Y422500D01*
X8550Y425500D02*Y421000D01*
X7800Y420250D02*X8550Y421000D01*
X6300Y420250D02*X7800D01*
X5550Y421000D02*X6300Y420250D01*
Y422500D02*X7800D01*
X8550Y423250D01*
X11100Y424750D02*Y422500D01*
Y424750D02*X11850Y425500D01*
X12600D01*
X13350Y424750D01*
Y422500D01*
Y424750D02*X14100Y425500D01*
X14850D01*
X15600Y424750D01*
Y422500D01*
X10350Y425500D02*X11100Y424750D01*
X17400Y428500D02*Y422500D01*
Y423250D02*X18150Y422500D01*
X19650D01*
X20400Y423250D01*
Y424750D02*Y423250D01*
X19650Y425500D02*X20400Y424750D01*
X18150Y425500D02*X19650D01*
X17400Y424750D02*X18150Y425500D01*
X22200Y424750D02*Y423250D01*
Y424750D02*X22950Y425500D01*
X24450D01*
X25200Y424750D01*
Y423250D01*
X24450Y422500D02*X25200Y423250D01*
X22950Y422500D02*X24450D01*
X22200Y423250D02*X22950Y422500D01*
X27000Y428500D02*Y423250D01*
X27750Y422500D01*
X0Y419250D02*X29250D01*
X41750Y428500D02*Y422500D01*
X44000Y428500D02*X44750Y427750D01*
Y423250D01*
X44000Y422500D02*X44750Y423250D01*
X41000Y422500D02*X44000D01*
X41000Y428500D02*X44000D01*
X46550Y427000D02*Y426250D01*
Y424750D02*Y422500D01*
X50300Y425500D02*X51050Y424750D01*
X48800Y425500D02*X50300D01*
X48050Y424750D02*X48800Y425500D01*
X48050Y424750D02*Y423250D01*
X48800Y422500D01*
X51050Y425500D02*Y423250D01*
X51800Y422500D01*
X48800D02*X50300D01*
X51050Y423250D01*
X54350Y424750D02*Y422500D01*
Y424750D02*X55100Y425500D01*
X55850D01*
X56600Y424750D01*
Y422500D01*
Y424750D02*X57350Y425500D01*
X58100D01*
X58850Y424750D01*
Y422500D01*
X53600Y425500D02*X54350Y424750D01*
X60650Y422500D02*X61400D01*
X65900Y423250D02*X66650Y422500D01*
X65900Y427750D02*X66650Y428500D01*
X65900Y427750D02*Y423250D01*
X68450Y428500D02*X69950D01*
X69200D02*Y422500D01*
X68450D02*X69950D01*
X72500Y424750D02*Y422500D01*
Y424750D02*X73250Y425500D01*
X74000D01*
X74750Y424750D01*
Y422500D01*
X71750Y425500D02*X72500Y424750D01*
X77300Y425500D02*X79550D01*
X76550Y424750D02*X77300Y425500D01*
X76550Y424750D02*Y423250D01*
X77300Y422500D01*
X79550D01*
X81350Y428500D02*Y422500D01*
Y424750D02*X82100Y425500D01*
X83600D01*
X84350Y424750D01*
Y422500D01*
X86150Y428500D02*X86900Y427750D01*
Y423250D01*
X86150Y422500D02*X86900Y423250D01*
X41000Y419250D02*X88700D01*
X95750Y422500D02*X98000D01*
X95000Y423250D02*X95750Y422500D01*
X95000Y427750D02*Y423250D01*
Y427750D02*X95750Y428500D01*
X98000D01*
X99800Y424750D02*Y423250D01*
Y424750D02*X100550Y425500D01*
X102050D01*
X102800Y424750D01*
Y423250D01*
X102050Y422500D02*X102800Y423250D01*
X100550Y422500D02*X102050D01*
X99800Y423250D02*X100550Y422500D01*
X104600Y425500D02*Y423250D01*
X105350Y422500D01*
X106850D01*
X107600Y423250D01*
Y425500D02*Y423250D01*
X110150Y424750D02*Y422500D01*
Y424750D02*X110900Y425500D01*
X111650D01*
X112400Y424750D01*
Y422500D01*
X109400Y425500D02*X110150Y424750D01*
X114950Y428500D02*Y423250D01*
X115700Y422500D01*
X114200Y426250D02*X115700D01*
X95000Y419250D02*X117200D01*
X130750Y428500D02*Y422500D01*
X130000Y428500D02*X133000D01*
X133750Y427750D01*
Y426250D01*
X133000Y425500D02*X133750Y426250D01*
X130750Y425500D02*X133000D01*
X135550Y428500D02*Y423250D01*
X136300Y422500D01*
X140050Y425500D02*X140800Y424750D01*
X138550Y425500D02*X140050D01*
X137800Y424750D02*X138550Y425500D01*
X137800Y424750D02*Y423250D01*
X138550Y422500D01*
X140800Y425500D02*Y423250D01*
X141550Y422500D01*
X138550D02*X140050D01*
X140800Y423250D01*
X144100Y428500D02*Y423250D01*
X144850Y422500D01*
X143350Y426250D02*X144850D01*
X147100Y422500D02*X149350D01*
X146350Y423250D02*X147100Y422500D01*
X146350Y424750D02*Y423250D01*
Y424750D02*X147100Y425500D01*
X148600D01*
X149350Y424750D01*
X146350Y424000D02*X149350D01*
Y424750D02*Y424000D01*
X154150Y428500D02*Y422500D01*
X153400D02*X154150Y423250D01*
X151900Y422500D02*X153400D01*
X151150Y423250D02*X151900Y422500D01*
X151150Y424750D02*Y423250D01*
Y424750D02*X151900Y425500D01*
X153400D01*
X154150Y424750D01*
X157450Y425500D02*Y424750D01*
Y423250D02*Y422500D01*
X155950Y427750D02*Y427000D01*
Y427750D02*X156700Y428500D01*
X158200D01*
X158950Y427750D01*
Y427000D01*
X157450Y425500D02*X158950Y427000D01*
X130000Y419250D02*X160750D01*
X0Y443500D02*X3000D01*
X1500D02*Y437500D01*
X4800Y443500D02*Y437500D01*
Y439750D02*X5550Y440500D01*
X7050D01*
X7800Y439750D01*
Y437500D01*
X10350D02*X12600D01*
X9600Y438250D02*X10350Y437500D01*
X9600Y439750D02*Y438250D01*
Y439750D02*X10350Y440500D01*
X11850D01*
X12600Y439750D01*
X9600Y439000D02*X12600D01*
Y439750D02*Y439000D01*
X15150Y439750D02*Y437500D01*
Y439750D02*X15900Y440500D01*
X17400D01*
X14400D02*X15150Y439750D01*
X19950Y437500D02*X22200D01*
X19200Y438250D02*X19950Y437500D01*
X19200Y439750D02*Y438250D01*
Y439750D02*X19950Y440500D01*
X21450D01*
X22200Y439750D01*
X19200Y439000D02*X22200D01*
Y439750D02*Y439000D01*
X28950Y440500D02*X29700Y439750D01*
X27450Y440500D02*X28950D01*
X26700Y439750D02*X27450Y440500D01*
X26700Y439750D02*Y438250D01*
X27450Y437500D01*
X29700Y440500D02*Y438250D01*
X30450Y437500D01*
X27450D02*X28950D01*
X29700Y438250D01*
X33000Y439750D02*Y437500D01*
Y439750D02*X33750Y440500D01*
X35250D01*
X32250D02*X33000Y439750D01*
X37800Y437500D02*X40050D01*
X37050Y438250D02*X37800Y437500D01*
X37050Y439750D02*Y438250D01*
Y439750D02*X37800Y440500D01*
X39300D01*
X40050Y439750D01*
X37050Y439000D02*X40050D01*
Y439750D02*Y439000D01*
X45300Y437500D02*X46800D01*
X46050Y443500D02*Y437500D01*
X44550Y442000D02*X46050Y443500D01*
X49350Y437500D02*X50850D01*
X50100Y443500D02*Y437500D01*
X48600Y442000D02*X50100Y443500D01*
X58350D02*Y437500D01*
X57600D02*X58350Y438250D01*
X56100Y437500D02*X57600D01*
X55350Y438250D02*X56100Y437500D01*
X55350Y439750D02*Y438250D01*
Y439750D02*X56100Y440500D01*
X57600D01*
X58350Y439750D01*
X60150Y442000D02*Y441250D01*
Y439750D02*Y437500D01*
X62400Y442750D02*Y437500D01*
Y442750D02*X63150Y443500D01*
X63900D01*
X61650Y440500D02*X63150D01*
X66150Y442750D02*Y437500D01*
Y442750D02*X66900Y443500D01*
X67650D01*
X65400Y440500D02*X66900D01*
X69900Y437500D02*X72150D01*
X69150Y438250D02*X69900Y437500D01*
X69150Y439750D02*Y438250D01*
Y439750D02*X69900Y440500D01*
X71400D01*
X72150Y439750D01*
X69150Y439000D02*X72150D01*
Y439750D02*Y439000D01*
X74700Y439750D02*Y437500D01*
Y439750D02*X75450Y440500D01*
X76950D01*
X73950D02*X74700Y439750D01*
X79500Y437500D02*X81750D01*
X78750Y438250D02*X79500Y437500D01*
X78750Y439750D02*Y438250D01*
Y439750D02*X79500Y440500D01*
X81000D01*
X81750Y439750D01*
X78750Y439000D02*X81750D01*
Y439750D02*Y439000D01*
X84300Y439750D02*Y437500D01*
Y439750D02*X85050Y440500D01*
X85800D01*
X86550Y439750D01*
Y437500D01*
X83550Y440500D02*X84300Y439750D01*
X89100Y443500D02*Y438250D01*
X89850Y437500D01*
X88350Y441250D02*X89850D01*
X97050Y443500D02*Y437500D01*
X96300D02*X97050Y438250D01*
X94800Y437500D02*X96300D01*
X94050Y438250D02*X94800Y437500D01*
X94050Y439750D02*Y438250D01*
Y439750D02*X94800Y440500D01*
X96300D01*
X97050Y439750D01*
X99600D02*Y437500D01*
Y439750D02*X100350Y440500D01*
X101850D01*
X98850D02*X99600Y439750D01*
X103650Y442000D02*Y441250D01*
Y439750D02*Y437500D01*
X105150Y443500D02*Y438250D01*
X105900Y437500D01*
X107400Y443500D02*Y438250D01*
X108150Y437500D01*
X113100D02*X115350D01*
X116100Y438250D01*
X115350Y439000D02*X116100Y438250D01*
X113100Y439000D02*X115350D01*
X112350Y439750D02*X113100Y439000D01*
X112350Y439750D02*X113100Y440500D01*
X115350D01*
X116100Y439750D01*
X112350Y438250D02*X113100Y437500D01*
X117900Y442000D02*Y441250D01*
Y439750D02*Y437500D01*
X119400Y440500D02*X122400D01*
X119400Y437500D02*X122400Y440500D01*
X119400Y437500D02*X122400D01*
X124950D02*X127200D01*
X124200Y438250D02*X124950Y437500D01*
X124200Y439750D02*Y438250D01*
Y439750D02*X124950Y440500D01*
X126450D01*
X127200Y439750D01*
X124200Y439000D02*X127200D01*
Y439750D02*Y439000D01*
X129750Y437500D02*X132000D01*
X132750Y438250D01*
X132000Y439000D02*X132750Y438250D01*
X129750Y439000D02*X132000D01*
X129000Y439750D02*X129750Y439000D01*
X129000Y439750D02*X129750Y440500D01*
X132000D01*
X132750Y439750D01*
X129000Y438250D02*X129750Y437500D01*
X137250Y440500D02*Y438250D01*
X138000Y437500D01*
X139500D01*
X140250Y438250D01*
Y440500D02*Y438250D01*
X142800Y437500D02*X145050D01*
X145800Y438250D01*
X145050Y439000D02*X145800Y438250D01*
X142800Y439000D02*X145050D01*
X142050Y439750D02*X142800Y439000D01*
X142050Y439750D02*X142800Y440500D01*
X145050D01*
X145800Y439750D01*
X142050Y438250D02*X142800Y437500D01*
X148350D02*X150600D01*
X147600Y438250D02*X148350Y437500D01*
X147600Y439750D02*Y438250D01*
Y439750D02*X148350Y440500D01*
X149850D01*
X150600Y439750D01*
X147600Y439000D02*X150600D01*
Y439750D02*Y439000D01*
X155400Y443500D02*Y437500D01*
X154650D02*X155400Y438250D01*
X153150Y437500D02*X154650D01*
X152400Y438250D02*X153150Y437500D01*
X152400Y439750D02*Y438250D01*
Y439750D02*X153150Y440500D01*
X154650D01*
X155400Y439750D01*
X159900Y442000D02*Y441250D01*
Y439750D02*Y437500D01*
X162150Y439750D02*Y437500D01*
Y439750D02*X162900Y440500D01*
X163650D01*
X164400Y439750D01*
Y437500D01*
X161400Y440500D02*X162150Y439750D01*
X169650Y443500D02*Y438250D01*
X170400Y437500D01*
X168900Y441250D02*X170400D01*
X171900Y443500D02*Y437500D01*
Y439750D02*X172650Y440500D01*
X174150D01*
X174900Y439750D01*
Y437500D01*
X176700Y442000D02*Y441250D01*
Y439750D02*Y437500D01*
X178950D02*X181200D01*
X181950Y438250D01*
X181200Y439000D02*X181950Y438250D01*
X178950Y439000D02*X181200D01*
X178200Y439750D02*X178950Y439000D01*
X178200Y439750D02*X178950Y440500D01*
X181200D01*
X181950Y439750D01*
X178200Y438250D02*X178950Y437500D01*
X186450Y443500D02*Y438250D01*
X187200Y437500D01*
X190950Y440500D02*X191700Y439750D01*
X189450Y440500D02*X190950D01*
X188700Y439750D02*X189450Y440500D01*
X188700Y439750D02*Y438250D01*
X189450Y437500D01*
X191700Y440500D02*Y438250D01*
X192450Y437500D01*
X189450D02*X190950D01*
X191700Y438250D01*
X194250Y440500D02*Y438250D01*
X195000Y437500D01*
X197250Y440500D02*Y436000D01*
X196500Y435250D02*X197250Y436000D01*
X195000Y435250D02*X196500D01*
X194250Y436000D02*X195000Y435250D01*
Y437500D02*X196500D01*
X197250Y438250D01*
X199050Y439750D02*Y438250D01*
Y439750D02*X199800Y440500D01*
X201300D01*
X202050Y439750D01*
Y438250D01*
X201300Y437500D02*X202050Y438250D01*
X199800Y437500D02*X201300D01*
X199050Y438250D02*X199800Y437500D01*
X203850Y440500D02*Y438250D01*
X204600Y437500D01*
X206100D01*
X206850Y438250D01*
Y440500D02*Y438250D01*
X209400Y443500D02*Y438250D01*
X210150Y437500D01*
X208650Y441250D02*X210150D01*
X211650Y436000D02*X213150Y437500D01*
X217650Y442750D02*X218400Y443500D01*
X220650D01*
X221400Y442750D01*
Y441250D01*
X217650Y437500D02*X221400Y441250D01*
X217650Y437500D02*X221400D01*
X223950D02*X225450D01*
X224700Y443500D02*Y437500D01*
X223200Y442000D02*X224700Y443500D01*
X227250Y442750D02*X228000Y443500D01*
X230250D01*
X231000Y442750D01*
Y441250D01*
X227250Y437500D02*X231000Y441250D01*
X227250Y437500D02*X231000D01*
X235500Y443500D02*Y437500D01*
Y439750D02*X236250Y440500D01*
X237750D01*
X238500Y439750D01*
Y437500D01*
X240300Y439750D02*Y438250D01*
Y439750D02*X241050Y440500D01*
X242550D01*
X243300Y439750D01*
Y438250D01*
X242550Y437500D02*X243300Y438250D01*
X241050Y437500D02*X242550D01*
X240300Y438250D02*X241050Y437500D01*
X245100Y443500D02*Y438250D01*
X245850Y437500D01*
X248100D02*X250350D01*
X247350Y438250D02*X248100Y437500D01*
X247350Y439750D02*Y438250D01*
Y439750D02*X248100Y440500D01*
X249600D01*
X250350Y439750D01*
X247350Y439000D02*X250350D01*
Y439750D02*Y439000D01*
X252900Y437500D02*X255150D01*
X255900Y438250D01*
X255150Y439000D02*X255900Y438250D01*
X252900Y439000D02*X255150D01*
X252150Y439750D02*X252900Y439000D01*
X252150Y439750D02*X252900Y440500D01*
X255150D01*
X255900Y439750D01*
X252150Y438250D02*X252900Y437500D01*
X261150Y443500D02*Y438250D01*
X261900Y437500D01*
X260400Y441250D02*X261900D01*
X263400Y439750D02*Y438250D01*
Y439750D02*X264150Y440500D01*
X265650D01*
X266400Y439750D01*
Y438250D01*
X265650Y437500D02*X266400Y438250D01*
X264150Y437500D02*X265650D01*
X263400Y438250D02*X264150Y437500D01*
X268950Y443500D02*Y438250D01*
X269700Y437500D01*
X268200Y441250D02*X269700D01*
X273450Y440500D02*X274200Y439750D01*
X271950Y440500D02*X273450D01*
X271200Y439750D02*X271950Y440500D01*
X271200Y439750D02*Y438250D01*
X271950Y437500D01*
X274200Y440500D02*Y438250D01*
X274950Y437500D01*
X271950D02*X273450D01*
X274200Y438250D01*
X276750Y443500D02*Y438250D01*
X277500Y437500D01*
G54D140*X0Y250000D02*X400000D01*
X0D02*Y0D01*
X400000Y250000D02*Y0D01*
X0D02*X400000D01*
G54D139*X200000Y263500D02*Y257500D01*
Y263500D02*X202250Y261250D01*
X204500Y263500D01*
Y257500D01*
X208550Y260500D02*X209300Y259750D01*
X207050Y260500D02*X208550D01*
X206300Y259750D02*X207050Y260500D01*
X206300Y259750D02*Y258250D01*
X207050Y257500D01*
X209300Y260500D02*Y258250D01*
X210050Y257500D01*
X207050D02*X208550D01*
X209300Y258250D01*
X211850Y260500D02*X214850Y257500D01*
X211850D02*X214850Y260500D01*
X216650Y262000D02*Y261250D01*
Y259750D02*Y257500D01*
X218900Y259750D02*Y257500D01*
Y259750D02*X219650Y260500D01*
X220400D01*
X221150Y259750D01*
Y257500D01*
Y259750D02*X221900Y260500D01*
X222650D01*
X223400Y259750D01*
Y257500D01*
X218150Y260500D02*X218900Y259750D01*
X225200Y260500D02*Y258250D01*
X225950Y257500D01*
X227450D01*
X228200Y258250D01*
Y260500D02*Y258250D01*
X230750Y259750D02*Y257500D01*
Y259750D02*X231500Y260500D01*
X232250D01*
X233000Y259750D01*
Y257500D01*
Y259750D02*X233750Y260500D01*
X234500D01*
X235250Y259750D01*
Y257500D01*
X230000Y260500D02*X230750Y259750D01*
X240500Y263500D02*Y257500D01*
X242750Y263500D02*X243500Y262750D01*
Y258250D01*
X242750Y257500D02*X243500Y258250D01*
X239750Y257500D02*X242750D01*
X239750Y263500D02*X242750D01*
X245300Y262000D02*Y261250D01*
Y259750D02*Y257500D01*
X247550Y259750D02*Y257500D01*
Y259750D02*X248300Y260500D01*
X249050D01*
X249800Y259750D01*
Y257500D01*
Y259750D02*X250550Y260500D01*
X251300D01*
X252050Y259750D01*
Y257500D01*
X246800Y260500D02*X247550Y259750D01*
X254600Y257500D02*X256850D01*
X253850Y258250D02*X254600Y257500D01*
X253850Y259750D02*Y258250D01*
Y259750D02*X254600Y260500D01*
X256100D01*
X256850Y259750D01*
X253850Y259000D02*X256850D01*
Y259750D02*Y259000D01*
X259400Y259750D02*Y257500D01*
Y259750D02*X260150Y260500D01*
X260900D01*
X261650Y259750D01*
Y257500D01*
X258650Y260500D02*X259400Y259750D01*
X264200Y257500D02*X266450D01*
X267200Y258250D01*
X266450Y259000D02*X267200Y258250D01*
X264200Y259000D02*X266450D01*
X263450Y259750D02*X264200Y259000D01*
X263450Y259750D02*X264200Y260500D01*
X266450D01*
X267200Y259750D01*
X263450Y258250D02*X264200Y257500D01*
X269000Y262000D02*Y261250D01*
Y259750D02*Y257500D01*
X270500Y259750D02*Y258250D01*
Y259750D02*X271250Y260500D01*
X272750D01*
X273500Y259750D01*
Y258250D01*
X272750Y257500D02*X273500Y258250D01*
X271250Y257500D02*X272750D01*
X270500Y258250D02*X271250Y257500D01*
X276050Y259750D02*Y257500D01*
Y259750D02*X276800Y260500D01*
X277550D01*
X278300Y259750D01*
Y257500D01*
X275300Y260500D02*X276050Y259750D01*
X280850Y257500D02*X283100D01*
X283850Y258250D01*
X283100Y259000D02*X283850Y258250D01*
X280850Y259000D02*X283100D01*
X280100Y259750D02*X280850Y259000D01*
X280100Y259750D02*X280850Y260500D01*
X283100D01*
X283850Y259750D01*
X280100Y258250D02*X280850Y257500D01*
X285650Y261250D02*X286400D01*
X285650Y259750D02*X286400D01*
X290900Y260500D02*X293900Y263500D01*
X290900Y260500D02*X294650D01*
X293900Y263500D02*Y257500D01*
X296450Y258250D02*X297200Y257500D01*
X296450Y262750D02*Y258250D01*
Y262750D02*X297200Y263500D01*
X298700D01*
X299450Y262750D01*
Y258250D01*
X298700Y257500D02*X299450Y258250D01*
X297200Y257500D02*X298700D01*
X296450Y259000D02*X299450Y262000D01*
X301250Y258250D02*X302000Y257500D01*
X301250Y262750D02*Y258250D01*
Y262750D02*X302000Y263500D01*
X303500D01*
X304250Y262750D01*
Y258250D01*
X303500Y257500D02*X304250Y258250D01*
X302000Y257500D02*X303500D01*
X301250Y259000D02*X304250Y262000D01*
X306050Y258250D02*X306800Y257500D01*
X306050Y262750D02*Y258250D01*
Y262750D02*X306800Y263500D01*
X308300D01*
X309050Y262750D01*
Y258250D01*
X308300Y257500D02*X309050Y258250D01*
X306800Y257500D02*X308300D01*
X306050Y259000D02*X309050Y262000D01*
X310850Y257500D02*X311600D01*
X313400Y258250D02*X314150Y257500D01*
X313400Y262750D02*Y258250D01*
Y262750D02*X314150Y263500D01*
X315650D01*
X316400Y262750D01*
Y258250D01*
X315650Y257500D02*X316400Y258250D01*
X314150Y257500D02*X315650D01*
X313400Y259000D02*X316400Y262000D01*
X318200Y258250D02*X318950Y257500D01*
X318200Y262750D02*Y258250D01*
Y262750D02*X318950Y263500D01*
X320450D01*
X321200Y262750D01*
Y258250D01*
X320450Y257500D02*X321200Y258250D01*
X318950Y257500D02*X320450D01*
X318200Y259000D02*X321200Y262000D01*
X323000Y258250D02*X323750Y257500D01*
X323000Y262750D02*Y258250D01*
Y262750D02*X323750Y263500D01*
X325250D01*
X326000Y262750D01*
Y258250D01*
X325250Y257500D02*X326000Y258250D01*
X323750Y257500D02*X325250D01*
X323000Y259000D02*X326000Y262000D01*
X327800Y258250D02*X328550Y257500D01*
X327800Y262750D02*Y258250D01*
Y262750D02*X328550Y263500D01*
X330050D01*
X330800Y262750D01*
Y258250D01*
X330050Y257500D02*X330800Y258250D01*
X328550Y257500D02*X330050D01*
X327800Y259000D02*X330800Y262000D01*
X332600Y258250D02*X333350Y257500D01*
X332600Y262750D02*Y258250D01*
Y262750D02*X333350Y263500D01*
X334850D01*
X335600Y262750D01*
Y258250D01*
X334850Y257500D02*X335600Y258250D01*
X333350Y257500D02*X334850D01*
X332600Y259000D02*X335600Y262000D01*
X337400Y258250D02*X338150Y257500D01*
X337400Y262750D02*Y258250D01*
Y262750D02*X338150Y263500D01*
X339650D01*
X340400Y262750D01*
Y258250D01*
X339650Y257500D02*X340400Y258250D01*
X338150Y257500D02*X339650D01*
X337400Y259000D02*X340400Y262000D01*
X345650Y259750D02*Y257500D01*
Y259750D02*X346400Y260500D01*
X347150D01*
X347900Y259750D01*
Y257500D01*
Y259750D02*X348650Y260500D01*
X349400D01*
X350150Y259750D01*
Y257500D01*
X344900Y260500D02*X345650Y259750D01*
X351950Y262000D02*Y261250D01*
Y259750D02*Y257500D01*
X353450Y263500D02*Y258250D01*
X354200Y257500D01*
X356450D02*X358700D01*
X359450Y258250D01*
X358700Y259000D02*X359450Y258250D01*
X356450Y259000D02*X358700D01*
X355700Y259750D02*X356450Y259000D01*
X355700Y259750D02*X356450Y260500D01*
X358700D01*
X359450Y259750D01*
X355700Y258250D02*X356450Y257500D01*
X363950Y260500D02*Y258250D01*
X364700Y257500D01*
X365450D01*
X366200Y258250D01*
Y260500D02*Y258250D01*
X366950Y257500D01*
X367700D01*
X368450Y258250D01*
Y260500D02*Y258250D01*
X370250Y262000D02*Y261250D01*
Y259750D02*Y257500D01*
X374750Y263500D02*Y257500D01*
X374000D02*X374750Y258250D01*
X372500Y257500D02*X374000D01*
X371750Y258250D02*X372500Y257500D01*
X371750Y259750D02*Y258250D01*
Y259750D02*X372500Y260500D01*
X374000D01*
X374750Y259750D01*
X377300Y257500D02*X379550D01*
X376550Y258250D02*X377300Y257500D01*
X376550Y259750D02*Y258250D01*
Y259750D02*X377300Y260500D01*
X378800D01*
X379550Y259750D01*
X376550Y259000D02*X379550D01*
Y259750D02*Y259000D01*
X381350Y256000D02*X382850Y257500D01*
X387350Y262750D02*X388100Y263500D01*
X390350D01*
X391100Y262750D01*
Y261250D01*
X387350Y257500D02*X391100Y261250D01*
X387350Y257500D02*X391100D01*
X392900Y263500D02*X395900D01*
X392900D02*Y260500D01*
X393650Y261250D01*
X395150D01*
X395900Y260500D01*
Y258250D01*
X395150Y257500D02*X395900Y258250D01*
X393650Y257500D02*X395150D01*
X392900Y258250D02*X393650Y257500D01*
X397700Y258250D02*X398450Y257500D01*
X397700Y262750D02*Y258250D01*
Y262750D02*X398450Y263500D01*
X399950D01*
X400700Y262750D01*
Y258250D01*
X399950Y257500D02*X400700Y258250D01*
X398450Y257500D02*X399950D01*
X397700Y259000D02*X400700Y262000D01*
X402500Y258250D02*X403250Y257500D01*
X402500Y262750D02*Y258250D01*
Y262750D02*X403250Y263500D01*
X404750D01*
X405500Y262750D01*
Y258250D01*
X404750Y257500D02*X405500Y258250D01*
X403250Y257500D02*X404750D01*
X402500Y259000D02*X405500Y262000D01*
X407300Y257500D02*X408050D01*
X409850Y258250D02*X410600Y257500D01*
X409850Y262750D02*Y258250D01*
Y262750D02*X410600Y263500D01*
X412100D01*
X412850Y262750D01*
Y258250D01*
X412100Y257500D02*X412850Y258250D01*
X410600Y257500D02*X412100D01*
X409850Y259000D02*X412850Y262000D01*
X414650Y258250D02*X415400Y257500D01*
X414650Y262750D02*Y258250D01*
Y262750D02*X415400Y263500D01*
X416900D01*
X417650Y262750D01*
Y258250D01*
X416900Y257500D02*X417650Y258250D01*
X415400Y257500D02*X416900D01*
X414650Y259000D02*X417650Y262000D01*
X419450Y258250D02*X420200Y257500D01*
X419450Y262750D02*Y258250D01*
Y262750D02*X420200Y263500D01*
X421700D01*
X422450Y262750D01*
Y258250D01*
X421700Y257500D02*X422450Y258250D01*
X420200Y257500D02*X421700D01*
X419450Y259000D02*X422450Y262000D01*
X424250Y258250D02*X425000Y257500D01*
X424250Y262750D02*Y258250D01*
Y262750D02*X425000Y263500D01*
X426500D01*
X427250Y262750D01*
Y258250D01*
X426500Y257500D02*X427250Y258250D01*
X425000Y257500D02*X426500D01*
X424250Y259000D02*X427250Y262000D01*
X429050Y258250D02*X429800Y257500D01*
X429050Y262750D02*Y258250D01*
Y262750D02*X429800Y263500D01*
X431300D01*
X432050Y262750D01*
Y258250D01*
X431300Y257500D02*X432050Y258250D01*
X429800Y257500D02*X431300D01*
X429050Y259000D02*X432050Y262000D01*
X433850Y258250D02*X434600Y257500D01*
X433850Y262750D02*Y258250D01*
Y262750D02*X434600Y263500D01*
X436100D01*
X436850Y262750D01*
Y258250D01*
X436100Y257500D02*X436850Y258250D01*
X434600Y257500D02*X436100D01*
X433850Y259000D02*X436850Y262000D01*
X442100Y259750D02*Y257500D01*
Y259750D02*X442850Y260500D01*
X443600D01*
X444350Y259750D01*
Y257500D01*
Y259750D02*X445100Y260500D01*
X445850D01*
X446600Y259750D01*
Y257500D01*
X441350Y260500D02*X442100Y259750D01*
X448400Y262000D02*Y261250D01*
Y259750D02*Y257500D01*
X449900Y263500D02*Y258250D01*
X450650Y257500D01*
X452900D02*X455150D01*
X455900Y258250D01*
X455150Y259000D02*X455900Y258250D01*
X452900Y259000D02*X455150D01*
X452150Y259750D02*X452900Y259000D01*
X452150Y259750D02*X452900Y260500D01*
X455150D01*
X455900Y259750D01*
X452150Y258250D02*X452900Y257500D01*
X460400Y263500D02*Y257500D01*
Y259750D02*X461150Y260500D01*
X462650D01*
X463400Y259750D01*
Y257500D01*
X465200Y262000D02*Y261250D01*
Y259750D02*Y257500D01*
X468950Y260500D02*X469700Y259750D01*
X467450Y260500D02*X468950D01*
X466700Y259750D02*X467450Y260500D01*
X466700Y259750D02*Y258250D01*
X467450Y257500D01*
X468950D01*
X469700Y258250D01*
X466700Y256000D02*X467450Y255250D01*
X468950D01*
X469700Y256000D01*
Y260500D02*Y256000D01*
X471500Y263500D02*Y257500D01*
Y259750D02*X472250Y260500D01*
X473750D01*
X474500Y259750D01*
Y257500D01*
X0Y-9500D02*X3000D01*
X3750Y-8750D01*
Y-7250D02*Y-8750D01*
X3000Y-6500D02*X3750Y-7250D01*
X750Y-6500D02*X3000D01*
X750Y-3500D02*Y-9500D01*
X0Y-3500D02*X3000D01*
X3750Y-4250D01*
Y-5750D01*
X3000Y-6500D02*X3750Y-5750D01*
X5550Y-7250D02*Y-8750D01*
Y-7250D02*X6300Y-6500D01*
X7800D01*
X8550Y-7250D01*
Y-8750D01*
X7800Y-9500D02*X8550Y-8750D01*
X6300Y-9500D02*X7800D01*
X5550Y-8750D02*X6300Y-9500D01*
X12600Y-6500D02*X13350Y-7250D01*
X11100Y-6500D02*X12600D01*
X10350Y-7250D02*X11100Y-6500D01*
X10350Y-7250D02*Y-8750D01*
X11100Y-9500D01*
X13350Y-6500D02*Y-8750D01*
X14100Y-9500D01*
X11100D02*X12600D01*
X13350Y-8750D01*
X16650Y-7250D02*Y-9500D01*
Y-7250D02*X17400Y-6500D01*
X18900D01*
X15900D02*X16650Y-7250D01*
X23700Y-3500D02*Y-9500D01*
X22950D02*X23700Y-8750D01*
X21450Y-9500D02*X22950D01*
X20700Y-8750D02*X21450Y-9500D01*
X20700Y-7250D02*Y-8750D01*
Y-7250D02*X21450Y-6500D01*
X22950D01*
X23700Y-7250D01*
X28200D02*Y-8750D01*
Y-7250D02*X28950Y-6500D01*
X30450D01*
X31200Y-7250D01*
Y-8750D01*
X30450Y-9500D02*X31200Y-8750D01*
X28950Y-9500D02*X30450D01*
X28200Y-8750D02*X28950Y-9500D01*
X33000Y-6500D02*Y-8750D01*
X33750Y-9500D01*
X35250D01*
X36000Y-8750D01*
Y-6500D02*Y-8750D01*
X38550Y-3500D02*Y-8750D01*
X39300Y-9500D01*
X37800Y-5750D02*X39300D01*
X40800Y-3500D02*Y-8750D01*
X41550Y-9500D01*
X43050Y-5000D02*Y-5750D01*
Y-7250D02*Y-9500D01*
X45300Y-7250D02*Y-9500D01*
Y-7250D02*X46050Y-6500D01*
X46800D01*
X47550Y-7250D01*
Y-9500D01*
X44550Y-6500D02*X45300Y-7250D01*
X50100Y-9500D02*X52350D01*
X49350Y-8750D02*X50100Y-9500D01*
X49350Y-7250D02*Y-8750D01*
Y-7250D02*X50100Y-6500D01*
X51600D01*
X52350Y-7250D01*
X49350Y-8000D02*X52350D01*
Y-7250D02*Y-8000D01*
X56850Y-5000D02*Y-5750D01*
Y-7250D02*Y-9500D01*
X59100D02*X61350D01*
X62100Y-8750D01*
X61350Y-8000D02*X62100Y-8750D01*
X59100Y-8000D02*X61350D01*
X58350Y-7250D02*X59100Y-8000D01*
X58350Y-7250D02*X59100Y-6500D01*
X61350D01*
X62100Y-7250D01*
X58350Y-8750D02*X59100Y-9500D01*
X67350Y-3500D02*Y-8750D01*
X68100Y-9500D01*
X66600Y-5750D02*X68100D01*
X69600Y-3500D02*Y-9500D01*
Y-7250D02*X70350Y-6500D01*
X71850D01*
X72600Y-7250D01*
Y-9500D01*
X75150D02*X77400D01*
X74400Y-8750D02*X75150Y-9500D01*
X74400Y-7250D02*Y-8750D01*
Y-7250D02*X75150Y-6500D01*
X76650D01*
X77400Y-7250D01*
X74400Y-8000D02*X77400D01*
Y-7250D02*Y-8000D01*
X82650Y-6500D02*X84900D01*
X81900Y-7250D02*X82650Y-6500D01*
X81900Y-7250D02*Y-8750D01*
X82650Y-9500D01*
X84900D01*
X87450D02*X89700D01*
X86700Y-8750D02*X87450Y-9500D01*
X86700Y-7250D02*Y-8750D01*
Y-7250D02*X87450Y-6500D01*
X88950D01*
X89700Y-7250D01*
X86700Y-8000D02*X89700D01*
Y-7250D02*Y-8000D01*
X92250Y-7250D02*Y-9500D01*
Y-7250D02*X93000Y-6500D01*
X93750D01*
X94500Y-7250D01*
Y-9500D01*
X91500Y-6500D02*X92250Y-7250D01*
X97050Y-3500D02*Y-8750D01*
X97800Y-9500D01*
X96300Y-5750D02*X97800D01*
X100050Y-9500D02*X102300D01*
X99300Y-8750D02*X100050Y-9500D01*
X99300Y-7250D02*Y-8750D01*
Y-7250D02*X100050Y-6500D01*
X101550D01*
X102300Y-7250D01*
X99300Y-8000D02*X102300D01*
Y-7250D02*Y-8000D01*
X104850Y-7250D02*Y-9500D01*
Y-7250D02*X105600Y-6500D01*
X107100D01*
X104100D02*X104850Y-7250D01*
X108900Y-3500D02*Y-8750D01*
X109650Y-9500D01*
X111150Y-5000D02*Y-5750D01*
Y-7250D02*Y-9500D01*
X113400Y-7250D02*Y-9500D01*
Y-7250D02*X114150Y-6500D01*
X114900D01*
X115650Y-7250D01*
Y-9500D01*
X112650Y-6500D02*X113400Y-7250D01*
X118200Y-9500D02*X120450D01*
X117450Y-8750D02*X118200Y-9500D01*
X117450Y-7250D02*Y-8750D01*
Y-7250D02*X118200Y-6500D01*
X119700D01*
X120450Y-7250D01*
X117450Y-8000D02*X120450D01*
Y-7250D02*Y-8000D01*
X124950Y-7250D02*Y-8750D01*
Y-7250D02*X125700Y-6500D01*
X127200D01*
X127950Y-7250D01*
Y-8750D01*
X127200Y-9500D02*X127950Y-8750D01*
X125700Y-9500D02*X127200D01*
X124950Y-8750D02*X125700Y-9500D01*
X130500Y-4250D02*Y-9500D01*
Y-4250D02*X131250Y-3500D01*
X132000D01*
X129750Y-6500D02*X131250D01*
X136950Y-3500D02*Y-8750D01*
X137700Y-9500D01*
X136200Y-5750D02*X137700D01*
X139200Y-3500D02*Y-9500D01*
Y-7250D02*X139950Y-6500D01*
X141450D01*
X142200Y-7250D01*
Y-9500D01*
X144000Y-5000D02*Y-5750D01*
Y-7250D02*Y-9500D01*
X146250D02*X148500D01*
X149250Y-8750D01*
X148500Y-8000D02*X149250Y-8750D01*
X146250Y-8000D02*X148500D01*
X145500Y-7250D02*X146250Y-8000D01*
X145500Y-7250D02*X146250Y-6500D01*
X148500D01*
X149250Y-7250D01*
X145500Y-8750D02*X146250Y-9500D01*
X153750Y-8750D02*X154500Y-9500D01*
X153750Y-7250D02*Y-8750D01*
Y-7250D02*X154500Y-6500D01*
X156000D01*
X156750Y-7250D01*
Y-8750D01*
X156000Y-9500D02*X156750Y-8750D01*
X154500Y-9500D02*X156000D01*
X153750Y-5750D02*X154500Y-6500D01*
X153750Y-4250D02*Y-5750D01*
Y-4250D02*X154500Y-3500D01*
X156000D01*
X156750Y-4250D01*
Y-5750D01*
X156000Y-6500D02*X156750Y-5750D01*
X158550Y-9500D02*X159300D01*
X161100Y-8750D02*X161850Y-9500D01*
X161100Y-4250D02*Y-8750D01*
Y-4250D02*X161850Y-3500D01*
X163350D01*
X164100Y-4250D01*
Y-8750D01*
X163350Y-9500D02*X164100Y-8750D01*
X161850Y-9500D02*X163350D01*
X161100Y-8000D02*X164100Y-5000D01*
X165900Y-8750D02*X166650Y-9500D01*
X165900Y-4250D02*Y-8750D01*
Y-4250D02*X166650Y-3500D01*
X168150D01*
X168900Y-4250D01*
Y-8750D01*
X168150Y-9500D02*X168900Y-8750D01*
X166650Y-9500D02*X168150D01*
X165900Y-8000D02*X168900Y-5000D01*
X170700Y-8750D02*X171450Y-9500D01*
X170700Y-4250D02*Y-8750D01*
Y-4250D02*X171450Y-3500D01*
X172950D01*
X173700Y-4250D01*
Y-8750D01*
X172950Y-9500D02*X173700Y-8750D01*
X171450Y-9500D02*X172950D01*
X170700Y-8000D02*X173700Y-5000D01*
X175500Y-8750D02*X176250Y-9500D01*
X175500Y-4250D02*Y-8750D01*
Y-4250D02*X176250Y-3500D01*
X177750D01*
X178500Y-4250D01*
Y-8750D01*
X177750Y-9500D02*X178500Y-8750D01*
X176250Y-9500D02*X177750D01*
X175500Y-8000D02*X178500Y-5000D01*
X180300Y-8750D02*X181050Y-9500D01*
X180300Y-4250D02*Y-8750D01*
Y-4250D02*X181050Y-3500D01*
X182550D01*
X183300Y-4250D01*
Y-8750D01*
X182550Y-9500D02*X183300Y-8750D01*
X181050Y-9500D02*X182550D01*
X180300Y-8000D02*X183300Y-5000D01*
X185100Y-8750D02*X185850Y-9500D01*
X185100Y-4250D02*Y-8750D01*
Y-4250D02*X185850Y-3500D01*
X187350D01*
X188100Y-4250D01*
Y-8750D01*
X187350Y-9500D02*X188100Y-8750D01*
X185850Y-9500D02*X187350D01*
X185100Y-8000D02*X188100Y-5000D01*
X193350Y-7250D02*Y-9500D01*
Y-7250D02*X194100Y-6500D01*
X194850D01*
X195600Y-7250D01*
Y-9500D01*
Y-7250D02*X196350Y-6500D01*
X197100D01*
X197850Y-7250D01*
Y-9500D01*
X192600Y-6500D02*X193350Y-7250D01*
X199650Y-5000D02*Y-5750D01*
Y-7250D02*Y-9500D01*
X201150Y-3500D02*Y-8750D01*
X201900Y-9500D01*
X206850Y-7250D02*Y-9500D01*
Y-7250D02*X207600Y-6500D01*
X209100D01*
X206100D02*X206850Y-7250D01*
X211650Y-9500D02*X213900D01*
X210900Y-8750D02*X211650Y-9500D01*
X210900Y-7250D02*Y-8750D01*
Y-7250D02*X211650Y-6500D01*
X213150D01*
X213900Y-7250D01*
X210900Y-8000D02*X213900D01*
Y-7250D02*Y-8000D01*
X216450Y-6500D02*X218700D01*
X215700Y-7250D02*X216450Y-6500D01*
X215700Y-7250D02*Y-8750D01*
X216450Y-9500D01*
X218700D01*
X221250Y-3500D02*Y-8750D01*
X222000Y-9500D01*
X220500Y-5750D02*X222000D01*
X225750Y-6500D02*X226500Y-7250D01*
X224250Y-6500D02*X225750D01*
X223500Y-7250D02*X224250Y-6500D01*
X223500Y-7250D02*Y-8750D01*
X224250Y-9500D01*
X226500Y-6500D02*Y-8750D01*
X227250Y-9500D01*
X224250D02*X225750D01*
X226500Y-8750D01*
X229800Y-7250D02*Y-9500D01*
Y-7250D02*X230550Y-6500D01*
X231300D01*
X232050Y-7250D01*
Y-9500D01*
X229050Y-6500D02*X229800Y-7250D01*
X236100Y-6500D02*X236850Y-7250D01*
X234600Y-6500D02*X236100D01*
X233850Y-7250D02*X234600Y-6500D01*
X233850Y-7250D02*Y-8750D01*
X234600Y-9500D01*
X236100D01*
X236850Y-8750D01*
X233850Y-11000D02*X234600Y-11750D01*
X236100D01*
X236850Y-11000D01*
Y-6500D02*Y-11000D01*
X238650Y-3500D02*Y-8750D01*
X239400Y-9500D01*
X241650D02*X243900D01*
X240900Y-8750D02*X241650Y-9500D01*
X240900Y-7250D02*Y-8750D01*
Y-7250D02*X241650Y-6500D01*
X243150D01*
X243900Y-7250D01*
X240900Y-8000D02*X243900D01*
Y-7250D02*Y-8000D01*
X248400Y-6500D02*X251400D01*
X255900Y-8750D02*X256650Y-9500D01*
X255900Y-4250D02*Y-8750D01*
Y-4250D02*X256650Y-3500D01*
X258150D01*
X258900Y-4250D01*
Y-8750D01*
X258150Y-9500D02*X258900Y-8750D01*
X256650Y-9500D02*X258150D01*
X255900Y-8000D02*X258900Y-5000D01*
X260700Y-11000D02*X262200Y-9500D01*
X264000Y-8750D02*X264750Y-9500D01*
X264000Y-4250D02*Y-8750D01*
Y-4250D02*X264750Y-3500D01*
X266250D01*
X267000Y-4250D01*
Y-8750D01*
X266250Y-9500D02*X267000Y-8750D01*
X264750Y-9500D02*X266250D01*
X264000Y-8000D02*X267000Y-5000D01*
X272250Y-3500D02*Y-8750D01*
X273000Y-9500D01*
X271500Y-5750D02*X273000D01*
X274500Y-7250D02*Y-8750D01*
Y-7250D02*X275250Y-6500D01*
X276750D01*
X277500Y-7250D01*
Y-8750D01*
X276750Y-9500D02*X277500Y-8750D01*
X275250Y-9500D02*X276750D01*
X274500Y-8750D02*X275250Y-9500D01*
X282000Y-6500D02*X285000Y-3500D01*
X282000Y-6500D02*X285750D01*
X285000Y-3500D02*Y-9500D01*
X287550Y-8750D02*X288300Y-9500D01*
X287550Y-4250D02*Y-8750D01*
Y-4250D02*X288300Y-3500D01*
X289800D01*
X290550Y-4250D01*
Y-8750D01*
X289800Y-9500D02*X290550Y-8750D01*
X288300Y-9500D02*X289800D01*
X287550Y-8000D02*X290550Y-5000D01*
X292350Y-8750D02*X293100Y-9500D01*
X292350Y-4250D02*Y-8750D01*
Y-4250D02*X293100Y-3500D01*
X294600D01*
X295350Y-4250D01*
Y-8750D01*
X294600Y-9500D02*X295350Y-8750D01*
X293100Y-9500D02*X294600D01*
X292350Y-8000D02*X295350Y-5000D01*
X297150Y-8750D02*X297900Y-9500D01*
X297150Y-4250D02*Y-8750D01*
Y-4250D02*X297900Y-3500D01*
X299400D01*
X300150Y-4250D01*
Y-8750D01*
X299400Y-9500D02*X300150Y-8750D01*
X297900Y-9500D02*X299400D01*
X297150Y-8000D02*X300150Y-5000D01*
X301950Y-9500D02*X302700D01*
X304500Y-8750D02*X305250Y-9500D01*
X304500Y-4250D02*Y-8750D01*
Y-4250D02*X305250Y-3500D01*
X306750D01*
X307500Y-4250D01*
Y-8750D01*
X306750Y-9500D02*X307500Y-8750D01*
X305250Y-9500D02*X306750D01*
X304500Y-8000D02*X307500Y-5000D01*
X309300Y-8750D02*X310050Y-9500D01*
X309300Y-4250D02*Y-8750D01*
Y-4250D02*X310050Y-3500D01*
X311550D01*
X312300Y-4250D01*
Y-8750D01*
X311550Y-9500D02*X312300Y-8750D01*
X310050Y-9500D02*X311550D01*
X309300Y-8000D02*X312300Y-5000D01*
X314100Y-8750D02*X314850Y-9500D01*
X314100Y-4250D02*Y-8750D01*
Y-4250D02*X314850Y-3500D01*
X316350D01*
X317100Y-4250D01*
Y-8750D01*
X316350Y-9500D02*X317100Y-8750D01*
X314850Y-9500D02*X316350D01*
X314100Y-8000D02*X317100Y-5000D01*
X318900Y-8750D02*X319650Y-9500D01*
X318900Y-4250D02*Y-8750D01*
Y-4250D02*X319650Y-3500D01*
X321150D01*
X321900Y-4250D01*
Y-8750D01*
X321150Y-9500D02*X321900Y-8750D01*
X319650Y-9500D02*X321150D01*
X318900Y-8000D02*X321900Y-5000D01*
X323700Y-8750D02*X324450Y-9500D01*
X323700Y-4250D02*Y-8750D01*
Y-4250D02*X324450Y-3500D01*
X325950D01*
X326700Y-4250D01*
Y-8750D01*
X325950Y-9500D02*X326700Y-8750D01*
X324450Y-9500D02*X325950D01*
X323700Y-8000D02*X326700Y-5000D01*
X328500Y-8750D02*X329250Y-9500D01*
X328500Y-4250D02*Y-8750D01*
Y-4250D02*X329250Y-3500D01*
X330750D01*
X331500Y-4250D01*
Y-8750D01*
X330750Y-9500D02*X331500Y-8750D01*
X329250Y-9500D02*X330750D01*
X328500Y-8000D02*X331500Y-5000D01*
X333300Y-11000D02*X334800Y-9500D01*
X336600Y-4250D02*X337350Y-3500D01*
X339600D01*
X340350Y-4250D01*
Y-5750D01*
X336600Y-9500D02*X340350Y-5750D01*
X336600Y-9500D02*X340350D01*
X342150Y-3500D02*X345150D01*
X342150D02*Y-6500D01*
X342900Y-5750D01*
X344400D01*
X345150Y-6500D01*
Y-8750D01*
X344400Y-9500D02*X345150Y-8750D01*
X342900Y-9500D02*X344400D01*
X342150Y-8750D02*X342900Y-9500D01*
X346950Y-8750D02*X347700Y-9500D01*
X346950Y-4250D02*Y-8750D01*
Y-4250D02*X347700Y-3500D01*
X349200D01*
X349950Y-4250D01*
Y-8750D01*
X349200Y-9500D02*X349950Y-8750D01*
X347700Y-9500D02*X349200D01*
X346950Y-8000D02*X349950Y-5000D01*
X351750Y-8750D02*X352500Y-9500D01*
X351750Y-4250D02*Y-8750D01*
Y-4250D02*X352500Y-3500D01*
X354000D01*
X354750Y-4250D01*
Y-8750D01*
X354000Y-9500D02*X354750Y-8750D01*
X352500Y-9500D02*X354000D01*
X351750Y-8000D02*X354750Y-5000D01*
X356550Y-9500D02*X357300D01*
X359100Y-8750D02*X359850Y-9500D01*
X359100Y-4250D02*Y-8750D01*
Y-4250D02*X359850Y-3500D01*
X361350D01*
X362100Y-4250D01*
Y-8750D01*
X361350Y-9500D02*X362100Y-8750D01*
X359850Y-9500D02*X361350D01*
X359100Y-8000D02*X362100Y-5000D01*
X363900Y-8750D02*X364650Y-9500D01*
X363900Y-4250D02*Y-8750D01*
Y-4250D02*X364650Y-3500D01*
X366150D01*
X366900Y-4250D01*
Y-8750D01*
X366150Y-9500D02*X366900Y-8750D01*
X364650Y-9500D02*X366150D01*
X363900Y-8000D02*X366900Y-5000D01*
X368700Y-8750D02*X369450Y-9500D01*
X368700Y-4250D02*Y-8750D01*
Y-4250D02*X369450Y-3500D01*
X370950D01*
X371700Y-4250D01*
Y-8750D01*
X370950Y-9500D02*X371700Y-8750D01*
X369450Y-9500D02*X370950D01*
X368700Y-8000D02*X371700Y-5000D01*
X373500Y-8750D02*X374250Y-9500D01*
X373500Y-4250D02*Y-8750D01*
Y-4250D02*X374250Y-3500D01*
X375750D01*
X376500Y-4250D01*
Y-8750D01*
X375750Y-9500D02*X376500Y-8750D01*
X374250Y-9500D02*X375750D01*
X373500Y-8000D02*X376500Y-5000D01*
X378300Y-8750D02*X379050Y-9500D01*
X378300Y-4250D02*Y-8750D01*
Y-4250D02*X379050Y-3500D01*
X380550D01*
X381300Y-4250D01*
Y-8750D01*
X380550Y-9500D02*X381300Y-8750D01*
X379050Y-9500D02*X380550D01*
X378300Y-8000D02*X381300Y-5000D01*
X383100Y-8750D02*X383850Y-9500D01*
X383100Y-4250D02*Y-8750D01*
Y-4250D02*X383850Y-3500D01*
X385350D01*
X386100Y-4250D01*
Y-8750D01*
X385350Y-9500D02*X386100Y-8750D01*
X383850Y-9500D02*X385350D01*
X383100Y-8000D02*X386100Y-5000D01*
X391350Y-7250D02*Y-9500D01*
Y-7250D02*X392100Y-6500D01*
X392850D01*
X393600Y-7250D01*
Y-9500D01*
Y-7250D02*X394350Y-6500D01*
X395100D01*
X395850Y-7250D01*
Y-9500D01*
X390600Y-6500D02*X391350Y-7250D01*
X397650Y-5000D02*Y-5750D01*
Y-7250D02*Y-9500D01*
X399150Y-3500D02*Y-8750D01*
X399900Y-9500D01*
X402150D02*X404400D01*
X405150Y-8750D01*
X404400Y-8000D02*X405150Y-8750D01*
X402150Y-8000D02*X404400D01*
X401400Y-7250D02*X402150Y-8000D01*
X401400Y-7250D02*X402150Y-6500D01*
X404400D01*
X405150Y-7250D01*
X401400Y-8750D02*X402150Y-9500D01*
X200750Y278500D02*Y272500D01*
X203000Y278500D02*X203750Y277750D01*
Y273250D01*
X203000Y272500D02*X203750Y273250D01*
X200000Y272500D02*X203000D01*
X200000Y278500D02*X203000D01*
X207800Y275500D02*X208550Y274750D01*
X206300Y275500D02*X207800D01*
X205550Y274750D02*X206300Y275500D01*
X205550Y274750D02*Y273250D01*
X206300Y272500D01*
X208550Y275500D02*Y273250D01*
X209300Y272500D01*
X206300D02*X207800D01*
X208550Y273250D01*
X211850Y278500D02*Y273250D01*
X212600Y272500D01*
X211100Y276250D02*X212600D01*
X214850Y272500D02*X217100D01*
X214100Y273250D02*X214850Y272500D01*
X214100Y274750D02*Y273250D01*
Y274750D02*X214850Y275500D01*
X216350D01*
X217100Y274750D01*
X214100Y274000D02*X217100D01*
Y274750D02*Y274000D01*
X218900Y276250D02*X219650D01*
X218900Y274750D02*X219650D01*
X224150Y278500D02*X227150D01*
X225650D02*Y272500D01*
X228950Y275500D02*Y273250D01*
X229700Y272500D01*
X231200D01*
X231950Y273250D01*
Y275500D02*Y273250D01*
X234500Y272500D02*X236750D01*
X233750Y273250D02*X234500Y272500D01*
X233750Y274750D02*Y273250D01*
Y274750D02*X234500Y275500D01*
X236000D01*
X236750Y274750D01*
X233750Y274000D02*X236750D01*
Y274750D02*Y274000D01*
X241250Y273250D02*X242000Y272500D01*
X241250Y277750D02*Y273250D01*
Y277750D02*X242000Y278500D01*
X243500D01*
X244250Y277750D01*
Y273250D01*
X243500Y272500D02*X244250Y273250D01*
X242000Y272500D02*X243500D01*
X241250Y274000D02*X244250Y277000D01*
X246050Y278500D02*X249050D01*
X246050D02*Y275500D01*
X246800Y276250D01*
X248300D01*
X249050Y275500D01*
Y273250D01*
X248300Y272500D02*X249050Y273250D01*
X246800Y272500D02*X248300D01*
X246050Y273250D02*X246800Y272500D01*
X253550Y278500D02*Y272500D01*
Y278500D02*X256550D01*
X253550Y275500D02*X255800D01*
X259100Y272500D02*X261350D01*
X258350Y273250D02*X259100Y272500D01*
X258350Y274750D02*Y273250D01*
Y274750D02*X259100Y275500D01*
X260600D01*
X261350Y274750D01*
X258350Y274000D02*X261350D01*
Y274750D02*Y274000D01*
X263150Y278500D02*Y272500D01*
Y273250D02*X263900Y272500D01*
X265400D01*
X266150Y273250D01*
Y274750D02*Y273250D01*
X265400Y275500D02*X266150Y274750D01*
X263900Y275500D02*X265400D01*
X263150Y274750D02*X263900Y275500D01*
X270650Y277750D02*X271400Y278500D01*
X273650D01*
X274400Y277750D01*
Y276250D01*
X270650Y272500D02*X274400Y276250D01*
X270650Y272500D02*X274400D01*
X276200Y273250D02*X276950Y272500D01*
X276200Y277750D02*Y273250D01*
Y277750D02*X276950Y278500D01*
X278450D01*
X279200Y277750D01*
Y273250D01*
X278450Y272500D02*X279200Y273250D01*
X276950Y272500D02*X278450D01*
X276200Y274000D02*X279200Y277000D01*
X281750Y272500D02*X283250D01*
X282500Y278500D02*Y272500D01*
X281000Y277000D02*X282500Y278500D01*
X285050Y277750D02*X285800Y278500D01*
X287300D01*
X288050Y277750D01*
Y273250D01*
X287300Y272500D02*X288050Y273250D01*
X285800Y272500D02*X287300D01*
X285050Y273250D02*X285800Y272500D01*
Y275500D02*X288050D01*
X292550Y273250D02*X293300Y272500D01*
X292550Y277750D02*Y273250D01*
Y277750D02*X293300Y278500D01*
X294800D01*
X295550Y277750D01*
Y273250D01*
X294800Y272500D02*X295550Y273250D01*
X293300Y272500D02*X294800D01*
X292550Y274000D02*X295550Y277000D01*
X297350Y277750D02*X298100Y278500D01*
X299600D01*
X300350Y277750D01*
Y273250D01*
X299600Y272500D02*X300350Y273250D01*
X298100Y272500D02*X299600D01*
X297350Y273250D02*X298100Y272500D01*
Y275500D02*X300350D01*
X302150Y276250D02*X302900D01*
X302150Y274750D02*X302900D01*
X305450Y272500D02*X306950D01*
X306200Y278500D02*Y272500D01*
X304700Y277000D02*X306200Y278500D01*
X308750Y275500D02*X311750Y278500D01*
X308750Y275500D02*X312500D01*
X311750Y278500D02*Y272500D01*
X314300Y276250D02*X315050D01*
X314300Y274750D02*X315050D01*
X316850Y277750D02*X317600Y278500D01*
X319100D01*
X319850Y277750D01*
Y273250D01*
X319100Y272500D02*X319850Y273250D01*
X317600Y272500D02*X319100D01*
X316850Y273250D02*X317600Y272500D01*
Y275500D02*X319850D01*
X321650Y278500D02*X324650D01*
X321650D02*Y275500D01*
X322400Y276250D01*
X323900D01*
X324650Y275500D01*
Y273250D01*
X323900Y272500D02*X324650Y273250D01*
X322400Y272500D02*X323900D01*
X321650Y273250D02*X322400Y272500D01*
X329150Y277750D02*Y272500D01*
Y277750D02*X329900Y278500D01*
X332150D01*
X332900Y277750D01*
Y272500D01*
X329150Y275500D02*X332900D01*
X334700Y278500D02*Y272500D01*
Y278500D02*X336950Y276250D01*
X339200Y278500D01*
Y272500D01*
X346700Y278500D02*X347450Y277750D01*
X344450Y278500D02*X346700D01*
X343700Y277750D02*X344450Y278500D01*
X343700Y277750D02*Y273250D01*
X344450Y272500D01*
X346700D01*
X347450Y273250D01*
Y274750D02*Y273250D01*
X346700Y275500D02*X347450Y274750D01*
X345200Y275500D02*X346700D01*
X349250Y278500D02*Y272500D01*
Y278500D02*X351500Y276250D01*
X353750Y278500D01*
Y272500D01*
X355550Y278500D02*X358550D01*
X357050D02*Y272500D01*
X363050Y278500D02*Y273250D01*
X363800Y272500D01*
X365300D01*
X366050Y273250D01*
Y278500D02*Y273250D01*
X367850Y278500D02*X370850D01*
X369350D02*Y272500D01*
X373400D02*X375650D01*
X372650Y273250D02*X373400Y272500D01*
X372650Y277750D02*Y273250D01*
Y277750D02*X373400Y278500D01*
X375650D01*
X200000Y292750D02*Y287500D01*
Y292750D02*X200750Y293500D01*
X203000D01*
X203750Y292750D01*
Y287500D01*
X200000Y290500D02*X203750D01*
X205550D02*Y288250D01*
X206300Y287500D01*
X207800D01*
X208550Y288250D01*
Y290500D02*Y288250D01*
X211100Y293500D02*Y288250D01*
X211850Y287500D01*
X210350Y291250D02*X211850D01*
X213350Y293500D02*Y287500D01*
Y289750D02*X214100Y290500D01*
X215600D01*
X216350Y289750D01*
Y287500D01*
X218150Y289750D02*Y288250D01*
Y289750D02*X218900Y290500D01*
X220400D01*
X221150Y289750D01*
Y288250D01*
X220400Y287500D02*X221150Y288250D01*
X218900Y287500D02*X220400D01*
X218150Y288250D02*X218900Y287500D01*
X223700Y289750D02*Y287500D01*
Y289750D02*X224450Y290500D01*
X225950D01*
X222950D02*X223700Y289750D01*
X227750Y291250D02*X228500D01*
X227750Y289750D02*X228500D01*
X233000Y293500D02*Y287500D01*
Y293500D02*X235250Y291250D01*
X237500Y293500D01*
Y287500D01*
X239300Y292000D02*Y291250D01*
Y289750D02*Y287500D01*
X241550Y290500D02*X243800D01*
X240800Y289750D02*X241550Y290500D01*
X240800Y289750D02*Y288250D01*
X241550Y287500D01*
X243800D01*
X245600Y293500D02*Y287500D01*
Y289750D02*X246350Y290500D01*
X247850D01*
X248600Y289750D01*
Y287500D01*
X252650Y290500D02*X253400Y289750D01*
X251150Y290500D02*X252650D01*
X250400Y289750D02*X251150Y290500D01*
X250400Y289750D02*Y288250D01*
X251150Y287500D01*
X253400Y290500D02*Y288250D01*
X254150Y287500D01*
X251150D02*X252650D01*
X253400Y288250D01*
X256700Y287500D02*X258950D01*
X255950Y288250D02*X256700Y287500D01*
X255950Y289750D02*Y288250D01*
Y289750D02*X256700Y290500D01*
X258200D01*
X258950Y289750D01*
X255950Y289000D02*X258950D01*
Y289750D02*Y289000D01*
X260750Y293500D02*Y288250D01*
X261500Y287500D01*
X266450Y293500D02*Y287500D01*
X265700Y293500D02*X268700D01*
X269450Y292750D01*
Y291250D01*
X268700Y290500D02*X269450Y291250D01*
X266450Y290500D02*X268700D01*
X272000Y287500D02*X274250D01*
X271250Y288250D02*X272000Y287500D01*
X271250Y289750D02*Y288250D01*
Y289750D02*X272000Y290500D01*
X273500D01*
X274250Y289750D01*
X271250Y289000D02*X274250D01*
Y289750D02*Y289000D01*
X276800Y293500D02*Y288250D01*
X277550Y287500D01*
X276050Y291250D02*X277550D01*
X279800Y287500D02*X282050D01*
X279050Y288250D02*X279800Y287500D01*
X279050Y289750D02*Y288250D01*
Y289750D02*X279800Y290500D01*
X281300D01*
X282050Y289750D01*
X279050Y289000D02*X282050D01*
Y289750D02*Y289000D01*
X284600Y289750D02*Y287500D01*
Y289750D02*X285350Y290500D01*
X286850D01*
X283850D02*X284600Y289750D01*
X289400Y287500D02*X291650D01*
X292400Y288250D01*
X291650Y289000D02*X292400Y288250D01*
X289400Y289000D02*X291650D01*
X288650Y289750D02*X289400Y289000D01*
X288650Y289750D02*X289400Y290500D01*
X291650D01*
X292400Y289750D01*
X288650Y288250D02*X289400Y287500D01*
X294950D02*X297200D01*
X294200Y288250D02*X294950Y287500D01*
X294200Y289750D02*Y288250D01*
Y289750D02*X294950Y290500D01*
X296450D01*
X297200Y289750D01*
X294200Y289000D02*X297200D01*
Y289750D02*Y289000D01*
X299750Y289750D02*Y287500D01*
Y289750D02*X300500Y290500D01*
X301250D01*
X302000Y289750D01*
Y287500D01*
X299000Y290500D02*X299750Y289750D01*
X200000Y308500D02*X203000D01*
X201500D02*Y302500D01*
X204800Y307000D02*Y306250D01*
Y304750D02*Y302500D01*
X207050Y308500D02*Y303250D01*
X207800Y302500D01*
X206300Y306250D02*X207800D01*
X209300Y308500D02*Y303250D01*
X210050Y302500D01*
X212300D02*X214550D01*
X211550Y303250D02*X212300Y302500D01*
X211550Y304750D02*Y303250D01*
Y304750D02*X212300Y305500D01*
X213800D01*
X214550Y304750D01*
X211550Y304000D02*X214550D01*
Y304750D02*Y304000D01*
X216350Y306250D02*X217100D01*
X216350Y304750D02*X217100D01*
X221600Y303250D02*X222350Y302500D01*
X221600Y307750D02*X222350Y308500D01*
X221600Y307750D02*Y303250D01*
X224150Y305500D02*Y303250D01*
X224900Y302500D01*
X226400D01*
X227150Y303250D01*
Y305500D02*Y303250D01*
X229700Y304750D02*Y302500D01*
Y304750D02*X230450Y305500D01*
X231200D01*
X231950Y304750D01*
Y302500D01*
X228950Y305500D02*X229700Y304750D01*
X233750Y308500D02*Y302500D01*
Y304750D02*X236000Y302500D01*
X233750Y304750D02*X235250Y306250D01*
X238550Y304750D02*Y302500D01*
Y304750D02*X239300Y305500D01*
X240050D01*
X240800Y304750D01*
Y302500D01*
X237800Y305500D02*X238550Y304750D01*
X242600D02*Y303250D01*
Y304750D02*X243350Y305500D01*
X244850D01*
X245600Y304750D01*
Y303250D01*
X244850Y302500D02*X245600Y303250D01*
X243350Y302500D02*X244850D01*
X242600Y303250D02*X243350Y302500D01*
X247400Y305500D02*Y303250D01*
X248150Y302500D01*
X248900D01*
X249650Y303250D01*
Y305500D02*Y303250D01*
X250400Y302500D01*
X251150D01*
X251900Y303250D01*
Y305500D02*Y303250D01*
X254450Y304750D02*Y302500D01*
Y304750D02*X255200Y305500D01*
X255950D01*
X256700Y304750D01*
Y302500D01*
X253700Y305500D02*X254450Y304750D01*
X258500Y308500D02*X259250Y307750D01*
Y303250D01*
X258500Y302500D02*X259250Y303250D01*
X263750Y305500D02*X266750D01*
X271250Y308500D02*Y302500D01*
Y308500D02*X274250D01*
X271250Y305500D02*X273500D01*
X278300D02*X279050Y304750D01*
X276800Y305500D02*X278300D01*
X276050Y304750D02*X276800Y305500D01*
X276050Y304750D02*Y303250D01*
X276800Y302500D01*
X279050Y305500D02*Y303250D01*
X279800Y302500D01*
X276800D02*X278300D01*
X279050Y303250D01*
X281600Y308500D02*Y302500D01*
Y303250D02*X282350Y302500D01*
X283850D01*
X284600Y303250D01*
Y304750D02*Y303250D01*
X283850Y305500D02*X284600Y304750D01*
X282350Y305500D02*X283850D01*
X281600Y304750D02*X282350Y305500D01*
X287150Y304750D02*Y302500D01*
Y304750D02*X287900Y305500D01*
X289400D01*
X286400D02*X287150Y304750D01*
X291200Y307000D02*Y306250D01*
Y304750D02*Y302500D01*
X293450Y305500D02*X295700D01*
X292700Y304750D02*X293450Y305500D01*
X292700Y304750D02*Y303250D01*
X293450Y302500D01*
X295700D01*
X299750Y305500D02*X300500Y304750D01*
X298250Y305500D02*X299750D01*
X297500Y304750D02*X298250Y305500D01*
X297500Y304750D02*Y303250D01*
X298250Y302500D01*
X300500Y305500D02*Y303250D01*
X301250Y302500D01*
X298250D02*X299750D01*
X300500Y303250D01*
X303800Y308500D02*Y303250D01*
X304550Y302500D01*
X303050Y306250D02*X304550D01*
X306050Y307000D02*Y306250D01*
Y304750D02*Y302500D01*
X307550Y304750D02*Y303250D01*
Y304750D02*X308300Y305500D01*
X309800D01*
X310550Y304750D01*
Y303250D01*
X309800Y302500D02*X310550Y303250D01*
X308300Y302500D02*X309800D01*
X307550Y303250D02*X308300Y302500D01*
X313100Y304750D02*Y302500D01*
Y304750D02*X313850Y305500D01*
X314600D01*
X315350Y304750D01*
Y302500D01*
X312350Y305500D02*X313100Y304750D01*
X320600Y308500D02*Y302500D01*
X322850Y308500D02*X323600Y307750D01*
Y303250D01*
X322850Y302500D02*X323600Y303250D01*
X319850Y302500D02*X322850D01*
X319850Y308500D02*X322850D01*
X326150Y304750D02*Y302500D01*
Y304750D02*X326900Y305500D01*
X328400D01*
X325400D02*X326150Y304750D01*
X332450Y305500D02*X333200Y304750D01*
X330950Y305500D02*X332450D01*
X330200Y304750D02*X330950Y305500D01*
X330200Y304750D02*Y303250D01*
X330950Y302500D01*
X333200Y305500D02*Y303250D01*
X333950Y302500D01*
X330950D02*X332450D01*
X333200Y303250D01*
X335750Y305500D02*Y303250D01*
X336500Y302500D01*
X337250D01*
X338000Y303250D01*
Y305500D02*Y303250D01*
X338750Y302500D01*
X339500D01*
X340250Y303250D01*
Y305500D02*Y303250D01*
X342050Y307000D02*Y306250D01*
Y304750D02*Y302500D01*
X344300Y304750D02*Y302500D01*
Y304750D02*X345050Y305500D01*
X345800D01*
X346550Y304750D01*
Y302500D01*
X343550Y305500D02*X344300Y304750D01*
X350600Y305500D02*X351350Y304750D01*
X349100Y305500D02*X350600D01*
X348350Y304750D02*X349100Y305500D01*
X348350Y304750D02*Y303250D01*
X349100Y302500D01*
X350600D01*
X351350Y303250D01*
X348350Y301000D02*X349100Y300250D01*
X350600D01*
X351350Y301000D01*
Y305500D02*Y301000D01*
M02*
